<?xml version="1.0" encoding="UTF-8" standalone="no"?>
<!-- Created with Inkscape (http://www.inkscape.org/) -->

<svg
   xmlns:dc="http://purl.org/dc/elements/1.1/"
   xmlns:cc="http://creativecommons.org/ns#"
   xmlns:rdf="http://www.w3.org/1999/02/22-rdf-syntax-ns#"
   xmlns:svg="http://www.w3.org/2000/svg"
   xmlns="http://www.w3.org/2000/svg"
   xmlns:sodipodi="http://sodipodi.sourceforge.net/DTD/sodipodi-0.dtd"
   xmlns:inkscape="http://www.inkscape.org/namespaces/inkscape"
   width="744.09448819"
   height="1052.3622047"
   id="svg2"
   version="1.1"
   inkscape:version="0.48.3.1 r9886"
   sodipodi:docname="Power Conenctor.svg">
  <defs
     id="defs4" />
  <sodipodi:namedview
     id="base"
     pagecolor="#ffffff"
     bordercolor="#666666"
     borderopacity="1.0"
     inkscape:pageopacity="0.0"
     inkscape:pageshadow="2"
     inkscape:zoom="1.5055555"
     inkscape:cx="249.99999"
     inkscape:cy="181.99998"
     inkscape:document-units="in"
     inkscape:current-layer="layer1"
     showgrid="true"
     inkscape:window-width="1280"
     inkscape:window-height="753"
     inkscape:window-x="-4"
     inkscape:window-y="-4"
     inkscape:window-maximized="1"
     showborder="false">
    <inkscape:grid
       type="xygrid"
       id="grid3833"
       empspacing="5"
       visible="true"
       enabled="true"
       snapvisiblegridlinesonly="true" />
  </sodipodi:namedview>
  <metadata
     id="metadata7">
    <rdf:RDF>
      <cc:Work
         rdf:about="">
        <dc:format>image/svg+xml</dc:format>
        <dc:type
           rdf:resource="http://purl.org/dc/dcmitype/StillImage" />
        <dc:title />
      </cc:Work>
    </rdf:RDF>
  </metadata>
  <g
     inkscape:label="Layer 1"
     inkscape:groupmode="layer"
     id="layer1">
    <rect
       style="fill:none;stroke:#000000;stroke-width:0.99999994;stroke-linejoin:miter;stroke-miterlimit:4;stroke-opacity:1;stroke-dasharray:none;stroke-dashoffset:0"
       id="rect3879"
       width="94.669998"
       height="184.67"
       x="-863.03217"
       y="-340.66998"
       transform="matrix(0,-1,-1,0,0,0)" />
    <rect
       style="fill:none;stroke:#000000;stroke-width:1.05869162;stroke-linejoin:miter;stroke-miterlimit:4;stroke-opacity:1;stroke-dasharray:none;stroke-dashoffset:0"
       id="rect2985"
       width="538.94128"
       height="358.94131"
       x="-19.470654"
       y="690.89154" />
    <path
       sodipodi:type="arc"
       style="fill:none;stroke:#000000;stroke-width:1;stroke-linejoin:miter;stroke-miterlimit:4;stroke-opacity:1;stroke-dasharray:none;stroke-dashoffset:0"
       id="path3755"
       sodipodi:cx="75.168358"
       sodipodi:cy="951.10797"
       sodipodi:rx="14.759085"
       sodipodi:ry="14.759085"
       d="m 89.927443,951.10797 a 14.759085,14.759085 0 1 1 -29.51817,0 14.759085,14.759085 0 1 1 29.51817,0 z"
       transform="matrix(0.55294929,0,0,0.55294929,56.87321,343.63521)" />
    <text
       sodipodi:linespacing="125%"
       id="text3956"
       y="920.36218"
       x="-116.75"
       style="font-size:14px;font-style:normal;font-weight:normal;line-height:125%;letter-spacing:0px;word-spacing:0px;fill:#ff0000;fill-opacity:1;stroke:none;font-family:Sans"
       xml:space="preserve"
       transform="scale(-1,1)"><tspan
         y="920.36218"
         x="-116.75"
         id="tspan3958"
         sodipodi:role="line" /></text>
    <path
       sodipodi:type="arc"
       style="fill:none;stroke:#000000;stroke-width:0.99862432;stroke-linejoin:miter;stroke-miterlimit:4;stroke-opacity:1;stroke-dasharray:none;stroke-dashoffset:0"
       id="path3755-3"
       sodipodi:cx="75.168358"
       sodipodi:cy="951.10797"
       sodipodi:rx="14.759085"
       sodipodi:ry="14.759085"
       d="m 89.927443,951.10797 a 14.759085,14.759085 0 1 1 -29.51817,0 14.759085,14.759085 0 1 1 29.51817,0 z"
       transform="matrix(0.55294929,0,0,0.55447377,56.87321,426.53776)" />
    <path
       sodipodi:type="arc"
       style="fill:none;stroke:#000000;stroke-width:0.99862432;stroke-linejoin:miter;stroke-miterlimit:4;stroke-opacity:1;stroke-dasharray:none;stroke-dashoffset:0"
       id="path3755-3-8"
       sodipodi:cx="75.168358"
       sodipodi:cy="951.10797"
       sodipodi:rx="14.759085"
       sodipodi:ry="14.759085"
       d="m 89.927443,951.10797 a 14.759085,14.759085 0 1 1 -29.51817,0 14.759085,14.759085 0 1 1 29.51817,0 z"
       transform="matrix(0.55294929,0,0,0.55447377,56.87321,257.78776)" />
    <path
       sodipodi:type="arc"
       style="fill:none;stroke:#000000;stroke-width:1;stroke-linejoin:miter;stroke-miterlimit:4;stroke-opacity:1;stroke-dasharray:none;stroke-dashoffset:0"
       id="path3755-1"
       sodipodi:cx="75.168358"
       sodipodi:cy="951.10797"
       sodipodi:rx="14.759085"
       sodipodi:ry="14.759085"
       d="m 89.927443,951.10797 a 14.759085,14.759085 0 1 1 -29.51817,0 14.759085,14.759085 0 1 1 29.51817,0 z"
       transform="matrix(0.55294929,0,0,0.55294929,354.99821,343.63521)" />
    <path
       sodipodi:type="arc"
       style="fill:none;stroke:#000000;stroke-width:0.99862432;stroke-linejoin:miter;stroke-miterlimit:4;stroke-opacity:1;stroke-dasharray:none;stroke-dashoffset:0"
       id="path3755-3-7"
       sodipodi:cx="75.168358"
       sodipodi:cy="951.10797"
       sodipodi:rx="14.759085"
       sodipodi:ry="14.759085"
       d="m 89.927443,951.10797 a 14.759085,14.759085 0 1 1 -29.51817,0 14.759085,14.759085 0 1 1 29.51817,0 z"
       transform="matrix(0.55294929,0,0,0.55447377,354.99821,426.53776)" />
    <path
       sodipodi:type="arc"
       style="fill:none;stroke:#000000;stroke-width:0.99862432;stroke-linejoin:miter;stroke-miterlimit:4;stroke-opacity:1;stroke-dasharray:none;stroke-dashoffset:0"
       id="path3755-3-8-4"
       sodipodi:cx="75.168358"
       sodipodi:cy="951.10797"
       sodipodi:rx="14.759085"
       sodipodi:ry="14.759085"
       d="m 89.927443,951.10797 a 14.759085,14.759085 0 1 1 -29.51817,0 14.759085,14.759085 0 1 1 29.51817,0 z"
       transform="matrix(0.55294929,0,0,0.55447377,354.99821,257.78776)" />
    <path
       sodipodi:type="arc"
       style="fill:none;stroke:#000000;stroke-width:0.26597419;stroke-linejoin:miter;stroke-miterlimit:4;stroke-opacity:1;stroke-dasharray:none;stroke-dashoffset:0"
       id="path3755-3-8-0"
       sodipodi:cx="75.168358"
       sodipodi:cy="951.10797"
       sodipodi:rx="14.759085"
       sodipodi:ry="14.759085"
       d="m 89.927443,951.10797 a 14.759085,14.759085 0 1 1 -29.51817,0 14.759085,14.759085 0 1 1 29.51817,0 z"
       transform="matrix(2.0789586,0,0,2.0789586,177.04457,-1054.9519)" />
  </g>
</svg>
