M48
;DRILL file {KiCad (2016-05-27 BZR 6836, Git 4441a4b)-product} date 09/15/16 12:11:01
;FORMAT={-:-/ absolute / inch / decimal}
FMAT,2
INCH,TZ
T1C0.012
T2C0.016
T3C0.031
T4C0.032
T5C0.035
T6C0.040
T7C0.043
T8C0.063
%
G90
G05
M72
T1
X4.1273Y-2.6161
X4.1273Y-2.7146
X4.1273Y-2.813
X4.1273Y-2.9114
X4.1273Y-3.0098
X4.1273Y-3.1083
X4.1273Y-3.2067
X4.1273Y-3.3051
X4.1273Y-3.4035
X4.1273Y-3.502
X4.1273Y-3.6004
X4.1273Y-3.6988
X4.1273Y-3.7972
X4.1273Y-3.8957
X4.1273Y-3.9941
X4.1273Y-4.0925
X4.1273Y-4.1909
X4.1273Y-4.2894
X4.1273Y-4.3878
X4.1273Y-4.4862
X4.1273Y-4.5846
X4.1273Y-4.6831
X4.1273Y-4.7815
X4.1273Y-4.8799
X4.1273Y-4.9783
X4.1273Y-5.0768
X4.1273Y-5.1752
X4.2257Y-2.5965
X4.2257Y-5.2047
X4.2356Y-4.25
X4.275Y-4.1516
X4.3232Y-3.4213
X4.3232Y-3.4656
X4.3242Y-2.5965
X4.3242Y-3.7776
X4.3242Y-3.8268
X4.3242Y-3.876
X4.3242Y-3.9252
X4.3242Y-3.9744
X4.3242Y-5.2047
X4.3734Y-4.0039
X4.3832Y-3.7579
X4.4226Y-2.5965
X4.4226Y-4.0039
X4.4226Y-5.2047
X4.4275Y-2.8681
X4.521Y-2.5965
X4.521Y-5.2047
X4.5476Y-3.19
X4.6194Y-2.5866
X4.6194Y-5.2047
X4.6982Y-3.8169
X4.7179Y-2.5965
X4.7179Y-5.2047
X4.8163Y-2.5965
X4.8163Y-5.2047
X4.895Y-3.2854
X4.895Y-3.3248
X4.895Y-3.3642
X4.895Y-3.8858
X4.9147Y-2.5965
X4.9147Y-5.2047
X5.0033Y-3.2953
X5.0033Y-3.3346
X5.0131Y-2.5965
X5.0131Y-5.2047
X5.082Y-3.1083
X5.082Y-3.2756
X5.082Y-3.8563
X5.1116Y-2.5965
X5.1116Y-5.2047
X5.1214Y-3.128
X5.1214Y-3.1673
X5.1214Y-3.2067
X5.1214Y-3.2461
X5.21Y-2.5965
X5.21Y-5.2047
X5.24Y-2.9
X5.3084Y-2.5965
X5.3084Y-5.2047
X5.3301Y-4.2323
X5.4069Y-2.5965
X5.4069Y-5.2047
X5.4659Y-4.6732
X5.4856Y-4.7323
X5.4856Y-4.7717
X5.4856Y-4.811
X5.5Y-3.83
X5.5053Y-2.5965
X5.5053Y-5.2047
X5.5151Y-4.9783
X5.5446Y-4.8307
X5.5643Y-5.0768
X5.584Y-3.2362
X5.584Y-3.2756
X5.584Y-3.315
X5.584Y-3.374
X5.584Y-3.4134
X5.584Y-3.4528
X5.6037Y-2.5965
X5.6037Y-3.1083
X5.6037Y-4.6339
X5.6037Y-4.6732
X5.6037Y-5.2047
X5.68Y-3.63
X5.68Y-3.79
X5.6824Y-3.2854
X5.6923Y-3.1772
X5.7021Y-2.5965
X5.7021Y-5.2047
X5.8006Y-2.5965
X5.8006Y-5.2047
X5.8301Y-2.813
X5.8694Y-2.813
X5.899Y-2.5965
X5.899Y-5.2047
X5.9088Y-2.813
X5.9482Y-2.813
X5.9974Y-2.5965
X5.9974Y-5.2047
X6.0958Y-2.5965
X6.0958Y-5.2047
X6.1943Y-2.5965
X6.1943Y-5.2047
X6.2927Y-2.5965
X6.2927Y-5.2047
X6.3911Y-2.5965
X6.3911Y-5.2047
X6.4895Y-2.5965
X6.4895Y-5.2047
X6.588Y-2.5965
X6.588Y-5.2047
X6.6864Y-2.5965
X6.6864Y-5.2047
X6.7848Y-2.5965
X6.7848Y-5.2047
X6.8832Y-2.5965
X6.8832Y-5.2047
X6.9817Y-2.5965
X6.9817Y-5.2047
X7.0801Y-2.5965
X7.0801Y-5.2047
X7.1785Y-2.5965
X7.1785Y-5.2047
X7.2769Y-2.5965
X7.2769Y-5.2047
X7.3754Y-2.5965
X7.3754Y-5.2047
X7.4147Y-4.063
X7.4541Y-4.7028
X7.4639Y-3.0984
X7.4738Y-2.5965
X7.4738Y-5.2047
X7.5722Y-2.5965
X7.5722Y-5.2047
X7.6608Y-2.5965
X7.6608Y-2.6654
X7.6608Y-2.7638
X7.6608Y-2.8622
X7.6608Y-2.9606
X7.6608Y-3.0591
X7.6608Y-3.1575
X7.6608Y-3.2559
X7.6608Y-3.3543
X7.6608Y-3.4528
X7.6608Y-3.5512
X7.6608Y-3.6496
X7.6608Y-3.748
X7.6608Y-3.8465
X7.6608Y-3.9449
X7.6608Y-4.0433
X7.6608Y-4.1417
X7.6608Y-4.2402
X7.6608Y-4.3386
X7.6608Y-4.437
X7.6608Y-4.5354
X7.6608Y-4.6339
X7.6608Y-4.7323
X7.6608Y-4.8307
X7.6608Y-4.9291
X7.6608Y-5.0276
X7.6608Y-5.126
T2
X4.39Y-2.93
X4.41Y-3.62
X4.54Y-3.52
X4.5506Y-2.6949
X4.59Y-3.44
X4.6Y-2.95
X4.62Y-4.1
X4.63Y-3.37
X4.6785Y-2.872
X4.69Y-4.2
X4.73Y-3.54
X4.74Y-4.1
X4.83Y-3.54
X4.85Y-3.44
X4.88Y-3.54
X4.96Y-3.54
X5.01Y-3.51
X5.04Y-3.38
X5.11Y-3.51
X5.17Y-4.23
X5.19Y-3.51
X5.19Y-4.11
X5.21Y-3.41
X5.2198Y-3.1969
X5.26Y-3.2
X5.29Y-4.19
X5.35Y-2.72
X5.38Y-2.94
X5.39Y-3.48
X5.42Y-2.8
X5.45Y-2.72
X5.59Y-2.74
X5.6Y-4.19
X5.6Y-4.48
X5.6Y-4.58
X5.64Y-3.52
X5.66Y-2.81
X5.6746Y-4.4094
X5.7809Y-2.7146
X5.84Y-3.23
X5.8916Y-3.0392
X5.9285Y-3.2953
X6.06Y-3.02
X6.24Y-2.99
X6.31Y-3.75
X6.5Y-3.98
X6.89Y-4.44
X7.07Y-3.76
X7.52Y-3.64
T3
X5.28Y-3.71
T4
X4.25Y-3.19
X4.25Y-3.29
X4.35Y-3.19
X4.35Y-3.29
X4.47Y-3.19
X4.47Y-3.29
T5
X4.34Y-3.01
X4.4384Y-3.01
X4.5369Y-3.01
X4.62Y-4.99
X4.6353Y-3.01
X4.7184Y-4.99
X4.8169Y-4.99
X4.836Y-2.7638
X4.9153Y-4.99
X4.9344Y-2.7638
X5.0137Y-4.99
X5.1121Y-4.99
X5.2106Y-4.99
X5.309Y-4.99
T6
X4.41Y-3.42
X4.41Y-3.52
T7
X6.0368Y-4.9488
X6.0368Y-5.0669
X6.1549Y-4.9488
X6.1549Y-5.0669
X6.7356Y-2.7638
X6.7356Y-2.8819
X6.8537Y-2.7638
X6.8537Y-2.8819
X7.1293Y-2.8819
X7.1293Y-3.
X7.2474Y-2.8819
X7.2474Y-3.
T8
X6.48Y-4.915
X6.48Y-5.049
X7.01Y-4.915
X7.01Y-5.049
T0
M30
