G04 #@! TF.FileFunction,Legend,Top*
%FSLAX46Y46*%
G04 Gerber Fmt 4.6, Leading zero omitted, Abs format (unit mm)*
G04 Created by KiCad (PCBNEW (2016-05-27 BZR 6836, Git 4441a4b)-product) date 09/15/16 12:10:58*
%MOMM*%
%LPD*%
G01*
G04 APERTURE LIST*
%ADD10C,0.100000*%
%ADD11C,0.300000*%
%ADD12C,0.150000*%
%ADD13C,0.062500*%
G04 APERTURE END LIST*
D10*
D11*
X191705428Y-98200000D02*
X191705428Y-97485714D01*
X193205428Y-97485714D01*
X193205428Y-98485714D02*
X193205428Y-99342857D01*
X191705428Y-98914285D02*
X193205428Y-98914285D01*
X191848285Y-100700000D02*
X191776857Y-100628571D01*
X191705428Y-100414285D01*
X191705428Y-100271428D01*
X191776857Y-100057142D01*
X191919714Y-99914285D01*
X192062571Y-99842857D01*
X192348285Y-99771428D01*
X192562571Y-99771428D01*
X192848285Y-99842857D01*
X192991142Y-99914285D01*
X193134000Y-100057142D01*
X193205428Y-100271428D01*
X193205428Y-100414285D01*
X193134000Y-100628571D01*
X193062571Y-100700000D01*
X193205428Y-101200000D02*
X193205428Y-102128571D01*
X192634000Y-101628571D01*
X192634000Y-101842857D01*
X192562571Y-101985714D01*
X192491142Y-102057142D01*
X192348285Y-102128571D01*
X191991142Y-102128571D01*
X191848285Y-102057142D01*
X191776857Y-101985714D01*
X191705428Y-101842857D01*
X191705428Y-101414285D01*
X191776857Y-101271428D01*
X191848285Y-101200000D01*
X191848285Y-102771428D02*
X191776857Y-102842857D01*
X191705428Y-102771428D01*
X191776857Y-102700000D01*
X191848285Y-102771428D01*
X191705428Y-102771428D01*
X192634000Y-102771428D02*
X192562571Y-102842857D01*
X192491142Y-102771428D01*
X192562571Y-102700000D01*
X192634000Y-102771428D01*
X192491142Y-102771428D01*
X191848285Y-105485714D02*
X191776857Y-105414285D01*
X191705428Y-105200000D01*
X191705428Y-105057142D01*
X191776857Y-104842857D01*
X191919714Y-104700000D01*
X192062571Y-104628571D01*
X192348285Y-104557142D01*
X192562571Y-104557142D01*
X192848285Y-104628571D01*
X192991142Y-104700000D01*
X193134000Y-104842857D01*
X193205428Y-105057142D01*
X193205428Y-105200000D01*
X193134000Y-105414285D01*
X193062571Y-105485714D01*
X191776857Y-106700000D02*
X191705428Y-106557142D01*
X191705428Y-106271428D01*
X191776857Y-106128571D01*
X191919714Y-106057142D01*
X192491142Y-106057142D01*
X192634000Y-106128571D01*
X192705428Y-106271428D01*
X192705428Y-106557142D01*
X192634000Y-106700000D01*
X192491142Y-106771428D01*
X192348285Y-106771428D01*
X192205428Y-106057142D01*
X191705428Y-107628571D02*
X191776857Y-107485714D01*
X191919714Y-107414285D01*
X193205428Y-107414285D01*
X191705428Y-108414285D02*
X191776857Y-108271428D01*
X191919714Y-108200000D01*
X193205428Y-108200000D01*
X191705428Y-110128571D02*
X193205428Y-110128571D01*
X193205428Y-110700000D01*
X193134000Y-110842857D01*
X193062571Y-110914285D01*
X192919714Y-110985714D01*
X192705428Y-110985714D01*
X192562571Y-110914285D01*
X192491142Y-110842857D01*
X192419714Y-110700000D01*
X192419714Y-110128571D01*
X191705428Y-111628571D02*
X192705428Y-111628571D01*
X192419714Y-111628571D02*
X192562571Y-111700000D01*
X192634000Y-111771428D01*
X192705428Y-111914285D01*
X192705428Y-112057142D01*
X191705428Y-112771428D02*
X191776857Y-112628571D01*
X191848285Y-112557142D01*
X191991142Y-112485714D01*
X192419714Y-112485714D01*
X192562571Y-112557142D01*
X192634000Y-112628571D01*
X192705428Y-112771428D01*
X192705428Y-112985714D01*
X192634000Y-113128571D01*
X192562571Y-113200000D01*
X192419714Y-113271428D01*
X191991142Y-113271428D01*
X191848285Y-113200000D01*
X191776857Y-113128571D01*
X191705428Y-112985714D01*
X191705428Y-112771428D01*
X192705428Y-113700000D02*
X192705428Y-114271428D01*
X193205428Y-113914285D02*
X191919714Y-113914285D01*
X191776857Y-113985714D01*
X191705428Y-114128571D01*
X191705428Y-114271428D01*
X191776857Y-115342857D02*
X191705428Y-115200000D01*
X191705428Y-114914285D01*
X191776857Y-114771428D01*
X191919714Y-114700000D01*
X192491142Y-114700000D01*
X192634000Y-114771428D01*
X192705428Y-114914285D01*
X192705428Y-115200000D01*
X192634000Y-115342857D01*
X192491142Y-115414285D01*
X192348285Y-115414285D01*
X192205428Y-114700000D01*
X191776857Y-116700000D02*
X191705428Y-116557142D01*
X191705428Y-116271428D01*
X191776857Y-116128571D01*
X191848285Y-116057142D01*
X191991142Y-115985714D01*
X192419714Y-115985714D01*
X192562571Y-116057142D01*
X192634000Y-116128571D01*
X192705428Y-116271428D01*
X192705428Y-116557142D01*
X192634000Y-116700000D01*
X192705428Y-117128571D02*
X192705428Y-117700000D01*
X193205428Y-117342857D02*
X191919714Y-117342857D01*
X191776857Y-117414285D01*
X191705428Y-117557142D01*
X191705428Y-117700000D01*
X191705428Y-118200000D02*
X192705428Y-118200000D01*
X193205428Y-118200000D02*
X193134000Y-118128571D01*
X193062571Y-118200000D01*
X193134000Y-118271428D01*
X193205428Y-118200000D01*
X193062571Y-118200000D01*
X191705428Y-119128571D02*
X191776857Y-118985714D01*
X191848285Y-118914285D01*
X191991142Y-118842857D01*
X192419714Y-118842857D01*
X192562571Y-118914285D01*
X192634000Y-118985714D01*
X192705428Y-119128571D01*
X192705428Y-119342857D01*
X192634000Y-119485714D01*
X192562571Y-119557142D01*
X192419714Y-119628571D01*
X191991142Y-119628571D01*
X191848285Y-119557142D01*
X191776857Y-119485714D01*
X191705428Y-119342857D01*
X191705428Y-119128571D01*
X192705428Y-120271428D02*
X191705428Y-120271428D01*
X192562571Y-120271428D02*
X192634000Y-120342857D01*
X192705428Y-120485714D01*
X192705428Y-120700000D01*
X192634000Y-120842857D01*
X192491142Y-120914285D01*
X191705428Y-120914285D01*
X189155428Y-103057142D02*
X189155428Y-103342857D01*
X189226857Y-103485714D01*
X189298285Y-103557142D01*
X189512571Y-103700000D01*
X189798285Y-103771428D01*
X190369714Y-103771428D01*
X190512571Y-103700000D01*
X190584000Y-103628571D01*
X190655428Y-103485714D01*
X190655428Y-103200000D01*
X190584000Y-103057142D01*
X190512571Y-102985714D01*
X190369714Y-102914285D01*
X190012571Y-102914285D01*
X189869714Y-102985714D01*
X189798285Y-103057142D01*
X189726857Y-103200000D01*
X189726857Y-103485714D01*
X189798285Y-103628571D01*
X189869714Y-103700000D01*
X190012571Y-103771428D01*
X190726857Y-105485714D02*
X188798285Y-104200000D01*
X189155428Y-106771428D02*
X189155428Y-105914285D01*
X189155428Y-106342857D02*
X190655428Y-106342857D01*
X190441142Y-106200000D01*
X190298285Y-106057142D01*
X190226857Y-105914285D01*
X190512571Y-107342857D02*
X190584000Y-107414285D01*
X190655428Y-107557142D01*
X190655428Y-107914285D01*
X190584000Y-108057142D01*
X190512571Y-108128571D01*
X190369714Y-108200000D01*
X190226857Y-108200000D01*
X190012571Y-108128571D01*
X189155428Y-107271428D01*
X189155428Y-108200000D01*
X190726857Y-109914285D02*
X188798285Y-108628571D01*
X190512571Y-110342857D02*
X190584000Y-110414285D01*
X190655428Y-110557142D01*
X190655428Y-110914285D01*
X190584000Y-111057142D01*
X190512571Y-111128571D01*
X190369714Y-111200000D01*
X190226857Y-111200000D01*
X190012571Y-111128571D01*
X189155428Y-110271428D01*
X189155428Y-111200000D01*
X190655428Y-112128571D02*
X190655428Y-112271428D01*
X190584000Y-112414285D01*
X190512571Y-112485714D01*
X190369714Y-112557142D01*
X190084000Y-112628571D01*
X189726857Y-112628571D01*
X189441142Y-112557142D01*
X189298285Y-112485714D01*
X189226857Y-112414285D01*
X189155428Y-112271428D01*
X189155428Y-112128571D01*
X189226857Y-111985714D01*
X189298285Y-111914285D01*
X189441142Y-111842857D01*
X189726857Y-111771428D01*
X190084000Y-111771428D01*
X190369714Y-111842857D01*
X190512571Y-111914285D01*
X190584000Y-111985714D01*
X190655428Y-112128571D01*
X189155428Y-114057142D02*
X189155428Y-113200000D01*
X189155428Y-113628571D02*
X190655428Y-113628571D01*
X190441142Y-113485714D01*
X190298285Y-113342857D01*
X190226857Y-113200000D01*
X190655428Y-115342857D02*
X190655428Y-115057142D01*
X190584000Y-114914285D01*
X190512571Y-114842857D01*
X190298285Y-114700000D01*
X190012571Y-114628571D01*
X189441142Y-114628571D01*
X189298285Y-114700000D01*
X189226857Y-114771428D01*
X189155428Y-114914285D01*
X189155428Y-115200000D01*
X189226857Y-115342857D01*
X189298285Y-115414285D01*
X189441142Y-115485714D01*
X189798285Y-115485714D01*
X189941142Y-115414285D01*
X190012571Y-115342857D01*
X190084000Y-115200000D01*
X190084000Y-114914285D01*
X190012571Y-114771428D01*
X189941142Y-114700000D01*
X189798285Y-114628571D01*
X186605428Y-105735714D02*
X187319714Y-105235714D01*
X186605428Y-104878571D02*
X188105428Y-104878571D01*
X188105428Y-105450000D01*
X188034000Y-105592857D01*
X187962571Y-105664285D01*
X187819714Y-105735714D01*
X187605428Y-105735714D01*
X187462571Y-105664285D01*
X187391142Y-105592857D01*
X187319714Y-105450000D01*
X187319714Y-104878571D01*
X186676857Y-106950000D02*
X186605428Y-106807142D01*
X186605428Y-106521428D01*
X186676857Y-106378571D01*
X186819714Y-106307142D01*
X187391142Y-106307142D01*
X187534000Y-106378571D01*
X187605428Y-106521428D01*
X187605428Y-106807142D01*
X187534000Y-106950000D01*
X187391142Y-107021428D01*
X187248285Y-107021428D01*
X187105428Y-106307142D01*
X187605428Y-107521428D02*
X186605428Y-107878571D01*
X187605428Y-108235714D01*
X186748285Y-108807142D02*
X186676857Y-108878571D01*
X186605428Y-108807142D01*
X186676857Y-108735714D01*
X186748285Y-108807142D01*
X186605428Y-108807142D01*
X186605428Y-111450000D02*
X186605428Y-110592857D01*
X186605428Y-111021428D02*
X188105428Y-111021428D01*
X187891142Y-110878571D01*
X187748285Y-110735714D01*
X187676857Y-110592857D01*
X186748285Y-112092857D02*
X186676857Y-112164285D01*
X186605428Y-112092857D01*
X186676857Y-112021428D01*
X186748285Y-112092857D01*
X186605428Y-112092857D01*
X188105428Y-113092857D02*
X188105428Y-113235714D01*
X188034000Y-113378571D01*
X187962571Y-113450000D01*
X187819714Y-113521428D01*
X187534000Y-113592857D01*
X187176857Y-113592857D01*
X186891142Y-113521428D01*
X186748285Y-113450000D01*
X186676857Y-113378571D01*
X186605428Y-113235714D01*
X186605428Y-113092857D01*
X186676857Y-112950000D01*
X186748285Y-112878571D01*
X186891142Y-112807142D01*
X187176857Y-112735714D01*
X187534000Y-112735714D01*
X187819714Y-112807142D01*
X187962571Y-112878571D01*
X188034000Y-112950000D01*
X188105428Y-113092857D01*
D12*
X114949000Y-67730000D02*
X114949000Y-68930000D01*
X113199000Y-68930000D02*
X113199000Y-67730000D01*
X116247000Y-68930000D02*
X116247000Y-67730000D01*
X117997000Y-67730000D02*
X117997000Y-68930000D01*
X116247000Y-72486000D02*
X116247000Y-71286000D01*
X117997000Y-71286000D02*
X117997000Y-72486000D01*
X114949000Y-71286000D02*
X114949000Y-72486000D01*
X113199000Y-72486000D02*
X113199000Y-71286000D01*
X139946000Y-85764000D02*
X138946000Y-85764000D01*
X138946000Y-87464000D02*
X139946000Y-87464000D01*
X111768000Y-100926000D02*
X112768000Y-100926000D01*
X112768000Y-99226000D02*
X111768000Y-99226000D01*
X155868000Y-78732000D02*
X155868000Y-79732000D01*
X157568000Y-79732000D02*
X157568000Y-78732000D01*
X111768000Y-98132000D02*
X112768000Y-98132000D01*
X112768000Y-96432000D02*
X111768000Y-96432000D01*
X113118000Y-105402000D02*
X113118000Y-104402000D01*
X111418000Y-104402000D02*
X111418000Y-105402000D01*
X141312000Y-114292000D02*
X141312000Y-113292000D01*
X139612000Y-113292000D02*
X139612000Y-114292000D01*
X145384000Y-105150000D02*
X146384000Y-105150000D01*
X146384000Y-103450000D02*
X145384000Y-103450000D01*
X111244000Y-117260000D02*
X110244000Y-117260000D01*
X110244000Y-118960000D02*
X111244000Y-118960000D01*
X115308000Y-117260000D02*
X114308000Y-117260000D01*
X114308000Y-118960000D02*
X115308000Y-118960000D01*
X119372000Y-117260000D02*
X118372000Y-117260000D01*
X118372000Y-118960000D02*
X119372000Y-118960000D01*
X123436000Y-117260000D02*
X122436000Y-117260000D01*
X122436000Y-118960000D02*
X123436000Y-118960000D01*
X127500000Y-117260000D02*
X126500000Y-117260000D01*
X126500000Y-118960000D02*
X127500000Y-118960000D01*
X131564000Y-117260000D02*
X130564000Y-117260000D01*
X130564000Y-118960000D02*
X131564000Y-118960000D01*
X135628000Y-117260000D02*
X134628000Y-117260000D01*
X134628000Y-118960000D02*
X135628000Y-118960000D01*
X141136000Y-71636000D02*
X141136000Y-72636000D01*
X142836000Y-72636000D02*
X142836000Y-71636000D01*
X162587940Y-77194860D02*
X162938460Y-77194860D01*
X166088060Y-77194860D02*
X165737540Y-77194860D01*
X162587940Y-81244440D02*
X162938460Y-81244440D01*
X162587940Y-76743560D02*
X162938460Y-76743560D01*
X166088060Y-76743560D02*
X165737540Y-76743560D01*
X166088060Y-81244440D02*
X165737540Y-81244440D01*
X162587940Y-76743560D02*
X162587940Y-81244440D01*
X166088060Y-76743560D02*
X166088060Y-81244440D01*
X166088060Y-72632120D02*
X165737540Y-72632120D01*
X162587940Y-72632120D02*
X162938460Y-72632120D01*
X166088060Y-68582540D02*
X165737540Y-68582540D01*
X166088060Y-73083420D02*
X165737540Y-73083420D01*
X162587940Y-73083420D02*
X162938460Y-73083420D01*
X162587940Y-68582540D02*
X162938460Y-68582540D01*
X166088060Y-73083420D02*
X166088060Y-68582540D01*
X162587940Y-73083420D02*
X162587940Y-68582540D01*
X143709840Y-102842060D02*
X143709840Y-102491540D01*
X143709840Y-99341940D02*
X143709840Y-99692460D01*
X147759420Y-102842060D02*
X147759420Y-102491540D01*
X143258540Y-102842060D02*
X143258540Y-102491540D01*
X143258540Y-99341940D02*
X143258540Y-99692460D01*
X147759420Y-99341940D02*
X147759420Y-99692460D01*
X143258540Y-102842060D02*
X147759420Y-102842060D01*
X143258540Y-99341940D02*
X147759420Y-99341940D01*
X139500160Y-99341940D02*
X139500160Y-99692460D01*
X139500160Y-102842060D02*
X139500160Y-102491540D01*
X135450580Y-99341940D02*
X135450580Y-99692460D01*
X139951460Y-99341940D02*
X139951460Y-99692460D01*
X139951460Y-102842060D02*
X139951460Y-102491540D01*
X135450580Y-102842060D02*
X135450580Y-102491540D01*
X139951460Y-99341940D02*
X135450580Y-99341940D01*
X139951460Y-102842060D02*
X135450580Y-102842060D01*
X161544000Y-123190000D02*
X181356000Y-123190000D01*
X161544000Y-129921000D02*
X161544000Y-123190000D01*
X181356000Y-129921000D02*
X161544000Y-129921000D01*
X181356000Y-123190000D02*
X181356000Y-129921000D01*
X137200000Y-95214500D02*
X137200000Y-95514500D01*
X137200000Y-95514500D02*
X142200000Y-95514500D01*
X142200000Y-95514500D02*
X142200000Y-95214500D01*
X137200000Y-92214500D02*
X137200000Y-91214500D01*
X137200000Y-91214500D02*
X138400000Y-91214500D01*
X142200000Y-92214500D02*
X142200000Y-91214500D01*
X142200000Y-91214500D02*
X141000000Y-91214500D01*
X138300000Y-90414500D02*
X137800000Y-90164500D01*
X137800000Y-90164500D02*
X137800000Y-90664500D01*
X137800000Y-90664500D02*
X138300000Y-90414500D01*
X110744000Y-88138000D02*
X110744000Y-85598000D01*
X110464000Y-90958000D02*
X110464000Y-89408000D01*
X110744000Y-88138000D02*
X113284000Y-88138000D01*
X113564000Y-89408000D02*
X113564000Y-90958000D01*
X113564000Y-90958000D02*
X110464000Y-90958000D01*
X113284000Y-88138000D02*
X113284000Y-85598000D01*
X113284000Y-85598000D02*
X110744000Y-85598000D01*
X114798000Y-124296000D02*
X114798000Y-130246000D01*
X114798000Y-130246000D02*
X137398000Y-130246000D01*
X137398000Y-130246000D02*
X137398000Y-124296000D01*
X137398000Y-124296000D02*
X114798000Y-124296000D01*
X118098000Y-124296000D02*
X118098000Y-125046000D01*
X118098000Y-125046000D02*
X134098000Y-125046000D01*
X134098000Y-125046000D02*
X134098000Y-124296000D01*
X134098000Y-124296000D02*
X118098000Y-124296000D01*
X114798000Y-124296000D02*
X114798000Y-125046000D01*
X114798000Y-125046000D02*
X116598000Y-125046000D01*
X116598000Y-125046000D02*
X116598000Y-124296000D01*
X116598000Y-124296000D02*
X114798000Y-124296000D01*
X135598000Y-124296000D02*
X135598000Y-125046000D01*
X135598000Y-125046000D02*
X137398000Y-125046000D01*
X137398000Y-125046000D02*
X137398000Y-124296000D01*
X137398000Y-124296000D02*
X135598000Y-124296000D01*
X114798000Y-126546000D02*
X115548000Y-126546000D01*
X115548000Y-126546000D02*
X115548000Y-129496000D01*
X115548000Y-129496000D02*
X126098000Y-129496000D01*
X137398000Y-126546000D02*
X136648000Y-126546000D01*
X136648000Y-126546000D02*
X136648000Y-129496000D01*
X136648000Y-129496000D02*
X126098000Y-129496000D01*
X117348000Y-123996000D02*
X117048000Y-123396000D01*
X117048000Y-123396000D02*
X117648000Y-123396000D01*
X117648000Y-123396000D02*
X117348000Y-123996000D01*
X177078000Y-85932000D02*
X177078000Y-87182000D01*
X177078000Y-85932000D02*
X175578000Y-85932000D01*
X177078000Y-95932000D02*
X175578000Y-95932000D01*
X177078000Y-95932000D02*
X177078000Y-94682000D01*
X157774000Y-85932000D02*
X157774000Y-87182000D01*
X157774000Y-85932000D02*
X156274000Y-85932000D01*
X157774000Y-95932000D02*
X156274000Y-95932000D01*
X157774000Y-95932000D02*
X157774000Y-94682000D01*
X187579000Y-96139000D02*
G75*
G03X187579000Y-96139000I-127000J0D01*
G01*
X188087000Y-96774000D02*
X188087000Y-91694000D01*
X184785000Y-96774000D02*
X184785000Y-91694000D01*
X188595000Y-96774000D02*
X188595000Y-91694000D01*
X188595000Y-96774000D02*
X184785000Y-96774000D01*
X188595000Y-91694000D02*
X184785000Y-91694000D01*
X184578000Y-110276000D02*
X183328000Y-110276000D01*
X184578000Y-110276000D02*
X184578000Y-108776000D01*
X174578000Y-110276000D02*
X174578000Y-108776000D01*
X174578000Y-110276000D02*
X175828000Y-110276000D01*
X155274000Y-103592000D02*
X156524000Y-103592000D01*
X155274000Y-103592000D02*
X155274000Y-105092000D01*
X165274000Y-103592000D02*
X165274000Y-105092000D01*
X165274000Y-103592000D02*
X164024000Y-103592000D01*
X149211000Y-78582000D02*
X149211000Y-79782000D01*
X147461000Y-79782000D02*
X147461000Y-78582000D01*
X154799000Y-78648000D02*
X154799000Y-79848000D01*
X153049000Y-79848000D02*
X153049000Y-78648000D01*
X154799000Y-74076000D02*
X154799000Y-75276000D01*
X153049000Y-75276000D02*
X153049000Y-74076000D01*
X135220000Y-87489000D02*
X134020000Y-87489000D01*
X134020000Y-85739000D02*
X135220000Y-85739000D01*
X140046000Y-83933000D02*
X138846000Y-83933000D01*
X138846000Y-82183000D02*
X140046000Y-82183000D01*
X160895000Y-78648000D02*
X160895000Y-79848000D01*
X159145000Y-79848000D02*
X159145000Y-78648000D01*
X155102000Y-67451000D02*
X156302000Y-67451000D01*
X156302000Y-69201000D02*
X155102000Y-69201000D01*
X183480000Y-84441000D02*
X182280000Y-84441000D01*
X182280000Y-82691000D02*
X183480000Y-82691000D01*
X139587000Y-118202000D02*
X139587000Y-117002000D01*
X141337000Y-117002000D02*
X141337000Y-118202000D01*
X143143000Y-118202000D02*
X143143000Y-117002000D01*
X144893000Y-117002000D02*
X144893000Y-118202000D01*
X145284000Y-105675000D02*
X146484000Y-105675000D01*
X146484000Y-107425000D02*
X145284000Y-107425000D01*
X138334000Y-105525000D02*
X139534000Y-105525000D01*
X139534000Y-107275000D02*
X138334000Y-107275000D01*
X109587000Y-113700000D02*
X109587000Y-114900000D01*
X107837000Y-114900000D02*
X107837000Y-113700000D01*
X113651000Y-113700000D02*
X113651000Y-114900000D01*
X111901000Y-114900000D02*
X111901000Y-113700000D01*
X117715000Y-113700000D02*
X117715000Y-114900000D01*
X115965000Y-114900000D02*
X115965000Y-113700000D01*
X121779000Y-113700000D02*
X121779000Y-114900000D01*
X120029000Y-114900000D02*
X120029000Y-113700000D01*
X125843000Y-113700000D02*
X125843000Y-114900000D01*
X124093000Y-114900000D02*
X124093000Y-113700000D01*
X129907000Y-113700000D02*
X129907000Y-114900000D01*
X128157000Y-114900000D02*
X128157000Y-113700000D01*
X133971000Y-113700000D02*
X133971000Y-114900000D01*
X132221000Y-114900000D02*
X132221000Y-113700000D01*
X138035000Y-113700000D02*
X138035000Y-114900000D01*
X136285000Y-114900000D02*
X136285000Y-113700000D01*
X145196000Y-109361000D02*
X146396000Y-109361000D01*
X146396000Y-111111000D02*
X145196000Y-111111000D01*
X140067000Y-71536000D02*
X140067000Y-72736000D01*
X138317000Y-72736000D02*
X138317000Y-71536000D01*
X116173000Y-93661000D02*
X115823000Y-94136000D01*
X115823000Y-94136000D02*
X115823000Y-100936000D01*
X115823000Y-100936000D02*
X116173000Y-101386000D01*
X131223000Y-93661000D02*
X131573000Y-94136000D01*
X131573000Y-94136000D02*
X131573000Y-100936000D01*
X131573000Y-100936000D02*
X131223000Y-101411000D01*
X132274254Y-69756000D02*
G75*
G03X132274254Y-69756000I-228254J0D01*
G01*
D10*
X134598500Y-69363500D02*
X134598500Y-72363500D01*
X134598500Y-72363500D02*
X131598500Y-72363500D01*
X131598500Y-72363500D02*
X131598500Y-69363500D01*
X131598500Y-69363500D02*
X134598500Y-69363500D01*
D12*
X107420000Y-80126000D02*
X111020000Y-80126000D01*
X111020000Y-80126000D02*
X111520000Y-80626000D01*
X111520000Y-80626000D02*
X111520000Y-81426000D01*
X111520000Y-81426000D02*
X111020000Y-81926000D01*
X111020000Y-81926000D02*
X107420000Y-81926000D01*
X107420000Y-81926000D02*
X106920000Y-81426000D01*
X106920000Y-81426000D02*
X106920000Y-80626000D01*
X106920000Y-80626000D02*
X107420000Y-80126000D01*
X107420000Y-82666000D02*
X111020000Y-82666000D01*
X111020000Y-82666000D02*
X111520000Y-83166000D01*
X111520000Y-83166000D02*
X111520000Y-83966000D01*
X111520000Y-83966000D02*
X111020000Y-84466000D01*
X111020000Y-84466000D02*
X107420000Y-84466000D01*
X107420000Y-84466000D02*
X106920000Y-83966000D01*
X106920000Y-83966000D02*
X106920000Y-83166000D01*
X106920000Y-83166000D02*
X107420000Y-82666000D01*
X112638000Y-84096000D02*
X112638000Y-80496000D01*
X112638000Y-80496000D02*
X113138000Y-79996000D01*
X113138000Y-79996000D02*
X113938000Y-79996000D01*
X113938000Y-79996000D02*
X114438000Y-80496000D01*
X114438000Y-80496000D02*
X114438000Y-84096000D01*
X114438000Y-84096000D02*
X113938000Y-84596000D01*
X113938000Y-84596000D02*
X113138000Y-84596000D01*
X113138000Y-84596000D02*
X112638000Y-84096000D01*
X128254000Y-79551000D02*
X126254000Y-79551000D01*
X126254000Y-82501000D02*
X128254000Y-82501000D01*
X148131000Y-73398000D02*
X148131000Y-75398000D01*
X151081000Y-75398000D02*
X151081000Y-73398000D01*
X125206000Y-83107000D02*
X123206000Y-83107000D01*
X123206000Y-86057000D02*
X125206000Y-86057000D01*
X140734000Y-111175000D02*
X142734000Y-111175000D01*
X142734000Y-108225000D02*
X140734000Y-108225000D01*
X143240000Y-121979000D02*
X141240000Y-121979000D01*
X141240000Y-119829000D02*
X143240000Y-119829000D01*
X174334000Y-80525000D02*
X169134000Y-80525000D01*
X169134000Y-76875000D02*
X174334000Y-76875000D01*
X107536000Y-74654000D02*
X107536000Y-78854000D01*
X107536000Y-78854000D02*
X120436000Y-78854000D01*
X120436000Y-78854000D02*
X120436000Y-74654000D01*
X120436000Y-74654000D02*
X107536000Y-74654000D01*
X107536000Y-76454000D02*
X108036000Y-76454000D01*
X108036000Y-76454000D02*
X108036000Y-75154000D01*
X108036000Y-75154000D02*
X119936000Y-75154000D01*
X119936000Y-75154000D02*
X119936000Y-76454000D01*
X119936000Y-76454000D02*
X120436000Y-76454000D01*
X107536000Y-77354000D02*
X108536000Y-77354000D01*
X108536000Y-77354000D02*
X108536000Y-78854000D01*
X120436000Y-77354000D02*
X119436000Y-77354000D01*
X119436000Y-77354000D02*
X119436000Y-78854000D01*
X110236000Y-79204000D02*
X109936000Y-79804000D01*
X109936000Y-79804000D02*
X110536000Y-79804000D01*
X110536000Y-79804000D02*
X110236000Y-79204000D01*
X151684000Y-79750000D02*
X151684000Y-78200000D01*
X150484000Y-79750000D02*
X150484000Y-78200000D01*
X146134000Y-112350000D02*
X144584000Y-112350000D01*
X146134000Y-113550000D02*
X144584000Y-113550000D01*
X120134000Y-68400000D02*
X120134000Y-72600000D01*
X120134000Y-72600000D02*
X128034000Y-72600000D01*
X128034000Y-72600000D02*
X128034000Y-68400000D01*
X128034000Y-68400000D02*
X120134000Y-68400000D01*
X120134000Y-70200000D02*
X120634000Y-70200000D01*
X120634000Y-70200000D02*
X120634000Y-68900000D01*
X120634000Y-68900000D02*
X127534000Y-68900000D01*
X127534000Y-68900000D02*
X127534000Y-70200000D01*
X127534000Y-70200000D02*
X128034000Y-70200000D01*
X120134000Y-71100000D02*
X121134000Y-71100000D01*
X121134000Y-71100000D02*
X121134000Y-72600000D01*
X128034000Y-71100000D02*
X127034000Y-71100000D01*
X127034000Y-71100000D02*
X127034000Y-72600000D01*
X122834000Y-72950000D02*
X122534000Y-73550000D01*
X122534000Y-73550000D02*
X123134000Y-73550000D01*
X123134000Y-73550000D02*
X122834000Y-72950000D01*
X166784000Y-67550000D02*
X166784000Y-75300000D01*
X178384000Y-67550000D02*
X178384000Y-75300000D01*
X166784000Y-67550000D02*
X178384000Y-67550000D01*
X166784000Y-75300000D02*
X178384000Y-75300000D01*
X186734000Y-68900000D02*
X178984000Y-68900000D01*
X186734000Y-80500000D02*
X178984000Y-80500000D01*
X186734000Y-68900000D02*
X186734000Y-80500000D01*
X178984000Y-68900000D02*
X178984000Y-80500000D01*
X149034000Y-123050000D02*
X149034000Y-130800000D01*
X160634000Y-123050000D02*
X160634000Y-130800000D01*
X149034000Y-123050000D02*
X160634000Y-123050000D01*
X149034000Y-130800000D02*
X160634000Y-130800000D01*
X113657142Y-66238380D02*
X113323809Y-65762190D01*
X113085714Y-66238380D02*
X113085714Y-65238380D01*
X113466666Y-65238380D01*
X113561904Y-65286000D01*
X113609523Y-65333619D01*
X113657142Y-65428857D01*
X113657142Y-65571714D01*
X113609523Y-65666952D01*
X113561904Y-65714571D01*
X113466666Y-65762190D01*
X113085714Y-65762190D01*
X114038095Y-65333619D02*
X114085714Y-65286000D01*
X114180952Y-65238380D01*
X114419047Y-65238380D01*
X114514285Y-65286000D01*
X114561904Y-65333619D01*
X114609523Y-65428857D01*
X114609523Y-65524095D01*
X114561904Y-65666952D01*
X113990476Y-66238380D01*
X114609523Y-66238380D01*
X114942857Y-65238380D02*
X115609523Y-65238380D01*
X115180952Y-66238380D01*
X119674380Y-68972857D02*
X119198190Y-69306190D01*
X119674380Y-69544285D02*
X118674380Y-69544285D01*
X118674380Y-69163333D01*
X118722000Y-69068095D01*
X118769619Y-69020476D01*
X118864857Y-68972857D01*
X119007714Y-68972857D01*
X119102952Y-69020476D01*
X119150571Y-69068095D01*
X119198190Y-69163333D01*
X119198190Y-69544285D01*
X118769619Y-68591904D02*
X118722000Y-68544285D01*
X118674380Y-68449047D01*
X118674380Y-68210952D01*
X118722000Y-68115714D01*
X118769619Y-68068095D01*
X118864857Y-68020476D01*
X118960095Y-68020476D01*
X119102952Y-68068095D01*
X119674380Y-68639523D01*
X119674380Y-68020476D01*
X118674380Y-67115714D02*
X118674380Y-67591904D01*
X119150571Y-67639523D01*
X119102952Y-67591904D01*
X119055333Y-67496666D01*
X119055333Y-67258571D01*
X119102952Y-67163333D01*
X119150571Y-67115714D01*
X119245809Y-67068095D01*
X119483904Y-67068095D01*
X119579142Y-67115714D01*
X119626761Y-67163333D01*
X119674380Y-67258571D01*
X119674380Y-67496666D01*
X119626761Y-67591904D01*
X119579142Y-67639523D01*
X119674380Y-72528857D02*
X119198190Y-72862190D01*
X119674380Y-73100285D02*
X118674380Y-73100285D01*
X118674380Y-72719333D01*
X118722000Y-72624095D01*
X118769619Y-72576476D01*
X118864857Y-72528857D01*
X119007714Y-72528857D01*
X119102952Y-72576476D01*
X119150571Y-72624095D01*
X119198190Y-72719333D01*
X119198190Y-73100285D01*
X118769619Y-72147904D02*
X118722000Y-72100285D01*
X118674380Y-72005047D01*
X118674380Y-71766952D01*
X118722000Y-71671714D01*
X118769619Y-71624095D01*
X118864857Y-71576476D01*
X118960095Y-71576476D01*
X119102952Y-71624095D01*
X119674380Y-72195523D01*
X119674380Y-71576476D01*
X119102952Y-71005047D02*
X119055333Y-71100285D01*
X119007714Y-71147904D01*
X118912476Y-71195523D01*
X118864857Y-71195523D01*
X118769619Y-71147904D01*
X118722000Y-71100285D01*
X118674380Y-71005047D01*
X118674380Y-70814571D01*
X118722000Y-70719333D01*
X118769619Y-70671714D01*
X118864857Y-70624095D01*
X118912476Y-70624095D01*
X119007714Y-70671714D01*
X119055333Y-70719333D01*
X119102952Y-70814571D01*
X119102952Y-71005047D01*
X119150571Y-71100285D01*
X119198190Y-71147904D01*
X119293428Y-71195523D01*
X119483904Y-71195523D01*
X119579142Y-71147904D01*
X119626761Y-71100285D01*
X119674380Y-71005047D01*
X119674380Y-70814571D01*
X119626761Y-70719333D01*
X119579142Y-70671714D01*
X119483904Y-70624095D01*
X119293428Y-70624095D01*
X119198190Y-70671714D01*
X119150571Y-70719333D01*
X119102952Y-70814571D01*
X112720380Y-72528857D02*
X112244190Y-72862190D01*
X112720380Y-73100285D02*
X111720380Y-73100285D01*
X111720380Y-72719333D01*
X111768000Y-72624095D01*
X111815619Y-72576476D01*
X111910857Y-72528857D01*
X112053714Y-72528857D01*
X112148952Y-72576476D01*
X112196571Y-72624095D01*
X112244190Y-72719333D01*
X112244190Y-73100285D01*
X111815619Y-72147904D02*
X111768000Y-72100285D01*
X111720380Y-72005047D01*
X111720380Y-71766952D01*
X111768000Y-71671714D01*
X111815619Y-71624095D01*
X111910857Y-71576476D01*
X112006095Y-71576476D01*
X112148952Y-71624095D01*
X112720380Y-72195523D01*
X112720380Y-71576476D01*
X111720380Y-70719333D02*
X111720380Y-70909809D01*
X111768000Y-71005047D01*
X111815619Y-71052666D01*
X111958476Y-71147904D01*
X112148952Y-71195523D01*
X112529904Y-71195523D01*
X112625142Y-71147904D01*
X112672761Y-71100285D01*
X112720380Y-71005047D01*
X112720380Y-70814571D01*
X112672761Y-70719333D01*
X112625142Y-70671714D01*
X112529904Y-70624095D01*
X112291809Y-70624095D01*
X112196571Y-70671714D01*
X112148952Y-70719333D01*
X112101333Y-70814571D01*
X112101333Y-71005047D01*
X112148952Y-71100285D01*
X112196571Y-71147904D01*
X112291809Y-71195523D01*
X189719714Y-74752380D02*
X189719714Y-73752380D01*
X190053047Y-74466666D01*
X190386380Y-73752380D01*
X190386380Y-74752380D01*
X190719714Y-73752380D02*
X191291142Y-73752380D01*
X191005428Y-74752380D02*
X191005428Y-73752380D01*
X192148285Y-73800000D02*
X192053047Y-73752380D01*
X191910190Y-73752380D01*
X191767333Y-73800000D01*
X191672095Y-73895238D01*
X191624476Y-73990476D01*
X191576857Y-74180952D01*
X191576857Y-74323809D01*
X191624476Y-74514285D01*
X191672095Y-74609523D01*
X191767333Y-74704761D01*
X191910190Y-74752380D01*
X192005428Y-74752380D01*
X192148285Y-74704761D01*
X192195904Y-74657142D01*
X192195904Y-74323809D01*
X192005428Y-74323809D01*
X107497714Y-124531380D02*
X107497714Y-123531380D01*
X107831047Y-124245666D01*
X108164380Y-123531380D01*
X108164380Y-124531380D01*
X108497714Y-123531380D02*
X109069142Y-123531380D01*
X108783428Y-124531380D02*
X108783428Y-123531380D01*
X109926285Y-123579000D02*
X109831047Y-123531380D01*
X109688190Y-123531380D01*
X109545333Y-123579000D01*
X109450095Y-123674238D01*
X109402476Y-123769476D01*
X109354857Y-123959952D01*
X109354857Y-124102809D01*
X109402476Y-124293285D01*
X109450095Y-124388523D01*
X109545333Y-124483761D01*
X109688190Y-124531380D01*
X109783428Y-124531380D01*
X109926285Y-124483761D01*
X109973904Y-124436142D01*
X109973904Y-124102809D01*
X109783428Y-124102809D01*
X139279333Y-84871142D02*
X139231714Y-84918761D01*
X139088857Y-84966380D01*
X138993619Y-84966380D01*
X138850761Y-84918761D01*
X138755523Y-84823523D01*
X138707904Y-84728285D01*
X138660285Y-84537809D01*
X138660285Y-84394952D01*
X138707904Y-84204476D01*
X138755523Y-84109238D01*
X138850761Y-84014000D01*
X138993619Y-83966380D01*
X139088857Y-83966380D01*
X139231714Y-84014000D01*
X139279333Y-84061619D01*
X140136476Y-84299714D02*
X140136476Y-84966380D01*
X139898380Y-83918761D02*
X139660285Y-84633047D01*
X140279333Y-84633047D01*
X109320033Y-100420442D02*
X109272414Y-100468061D01*
X109129557Y-100515680D01*
X109034319Y-100515680D01*
X108891461Y-100468061D01*
X108796223Y-100372823D01*
X108748604Y-100277585D01*
X108700985Y-100087109D01*
X108700985Y-99944252D01*
X108748604Y-99753776D01*
X108796223Y-99658538D01*
X108891461Y-99563300D01*
X109034319Y-99515680D01*
X109129557Y-99515680D01*
X109272414Y-99563300D01*
X109320033Y-99610919D01*
X110224795Y-99515680D02*
X109748604Y-99515680D01*
X109700985Y-99991871D01*
X109748604Y-99944252D01*
X109843842Y-99896633D01*
X110081938Y-99896633D01*
X110177176Y-99944252D01*
X110224795Y-99991871D01*
X110272414Y-100087109D01*
X110272414Y-100325204D01*
X110224795Y-100420442D01*
X110177176Y-100468061D01*
X110081938Y-100515680D01*
X109843842Y-100515680D01*
X109748604Y-100468061D01*
X109700985Y-100420442D01*
X156525933Y-82145142D02*
X156478314Y-82192761D01*
X156335457Y-82240380D01*
X156240219Y-82240380D01*
X156097361Y-82192761D01*
X156002123Y-82097523D01*
X155954504Y-82002285D01*
X155906885Y-81811809D01*
X155906885Y-81668952D01*
X155954504Y-81478476D01*
X156002123Y-81383238D01*
X156097361Y-81288000D01*
X156240219Y-81240380D01*
X156335457Y-81240380D01*
X156478314Y-81288000D01*
X156525933Y-81335619D01*
X157383076Y-81240380D02*
X157192600Y-81240380D01*
X157097361Y-81288000D01*
X157049742Y-81335619D01*
X156954504Y-81478476D01*
X156906885Y-81668952D01*
X156906885Y-82049904D01*
X156954504Y-82145142D01*
X157002123Y-82192761D01*
X157097361Y-82240380D01*
X157287838Y-82240380D01*
X157383076Y-82192761D01*
X157430695Y-82145142D01*
X157478314Y-82049904D01*
X157478314Y-81811809D01*
X157430695Y-81716571D01*
X157383076Y-81668952D01*
X157287838Y-81621333D01*
X157097361Y-81621333D01*
X157002123Y-81668952D01*
X156954504Y-81716571D01*
X156906885Y-81811809D01*
X109269233Y-97677242D02*
X109221614Y-97724861D01*
X109078757Y-97772480D01*
X108983519Y-97772480D01*
X108840661Y-97724861D01*
X108745423Y-97629623D01*
X108697804Y-97534385D01*
X108650185Y-97343909D01*
X108650185Y-97201052D01*
X108697804Y-97010576D01*
X108745423Y-96915338D01*
X108840661Y-96820100D01*
X108983519Y-96772480D01*
X109078757Y-96772480D01*
X109221614Y-96820100D01*
X109269233Y-96867719D01*
X109602566Y-96772480D02*
X110269233Y-96772480D01*
X109840661Y-97772480D01*
X114725142Y-105068666D02*
X114772761Y-105116285D01*
X114820380Y-105259142D01*
X114820380Y-105354380D01*
X114772761Y-105497238D01*
X114677523Y-105592476D01*
X114582285Y-105640095D01*
X114391809Y-105687714D01*
X114248952Y-105687714D01*
X114058476Y-105640095D01*
X113963238Y-105592476D01*
X113868000Y-105497238D01*
X113820380Y-105354380D01*
X113820380Y-105259142D01*
X113868000Y-105116285D01*
X113915619Y-105068666D01*
X114248952Y-104497238D02*
X114201333Y-104592476D01*
X114153714Y-104640095D01*
X114058476Y-104687714D01*
X114010857Y-104687714D01*
X113915619Y-104640095D01*
X113868000Y-104592476D01*
X113820380Y-104497238D01*
X113820380Y-104306761D01*
X113868000Y-104211523D01*
X113915619Y-104163904D01*
X114010857Y-104116285D01*
X114058476Y-104116285D01*
X114153714Y-104163904D01*
X114201333Y-104211523D01*
X114248952Y-104306761D01*
X114248952Y-104497238D01*
X114296571Y-104592476D01*
X114344190Y-104640095D01*
X114439428Y-104687714D01*
X114629904Y-104687714D01*
X114725142Y-104640095D01*
X114772761Y-104592476D01*
X114820380Y-104497238D01*
X114820380Y-104306761D01*
X114772761Y-104211523D01*
X114725142Y-104163904D01*
X114629904Y-104116285D01*
X114439428Y-104116285D01*
X114344190Y-104163904D01*
X114296571Y-104211523D01*
X114248952Y-104306761D01*
X142546342Y-113920566D02*
X142593961Y-113968185D01*
X142641580Y-114111042D01*
X142641580Y-114206280D01*
X142593961Y-114349138D01*
X142498723Y-114444376D01*
X142403485Y-114491995D01*
X142213009Y-114539614D01*
X142070152Y-114539614D01*
X141879676Y-114491995D01*
X141784438Y-114444376D01*
X141689200Y-114349138D01*
X141641580Y-114206280D01*
X141641580Y-114111042D01*
X141689200Y-113968185D01*
X141736819Y-113920566D01*
X142641580Y-113444376D02*
X142641580Y-113253900D01*
X142593961Y-113158661D01*
X142546342Y-113111042D01*
X142403485Y-113015804D01*
X142213009Y-112968185D01*
X141832057Y-112968185D01*
X141736819Y-113015804D01*
X141689200Y-113063423D01*
X141641580Y-113158661D01*
X141641580Y-113349138D01*
X141689200Y-113444376D01*
X141736819Y-113491995D01*
X141832057Y-113539614D01*
X142070152Y-113539614D01*
X142165390Y-113491995D01*
X142213009Y-113444376D01*
X142260628Y-113349138D01*
X142260628Y-113158661D01*
X142213009Y-113063423D01*
X142165390Y-113015804D01*
X142070152Y-112968185D01*
X148749642Y-104555542D02*
X148702023Y-104603161D01*
X148559166Y-104650780D01*
X148463928Y-104650780D01*
X148321071Y-104603161D01*
X148225833Y-104507923D01*
X148178214Y-104412685D01*
X148130595Y-104222209D01*
X148130595Y-104079352D01*
X148178214Y-103888876D01*
X148225833Y-103793638D01*
X148321071Y-103698400D01*
X148463928Y-103650780D01*
X148559166Y-103650780D01*
X148702023Y-103698400D01*
X148749642Y-103746019D01*
X149702023Y-104650780D02*
X149130595Y-104650780D01*
X149416309Y-104650780D02*
X149416309Y-103650780D01*
X149321071Y-103793638D01*
X149225833Y-103888876D01*
X149130595Y-103936495D01*
X150321071Y-103650780D02*
X150416309Y-103650780D01*
X150511547Y-103698400D01*
X150559166Y-103746019D01*
X150606785Y-103841257D01*
X150654404Y-104031733D01*
X150654404Y-104269828D01*
X150606785Y-104460304D01*
X150559166Y-104555542D01*
X150511547Y-104603161D01*
X150416309Y-104650780D01*
X150321071Y-104650780D01*
X150225833Y-104603161D01*
X150178214Y-104555542D01*
X150130595Y-104460304D01*
X150082976Y-104269828D01*
X150082976Y-104031733D01*
X150130595Y-103841257D01*
X150178214Y-103746019D01*
X150225833Y-103698400D01*
X150321071Y-103650780D01*
X110266242Y-120448342D02*
X110218623Y-120495961D01*
X110075766Y-120543580D01*
X109980528Y-120543580D01*
X109837671Y-120495961D01*
X109742433Y-120400723D01*
X109694814Y-120305485D01*
X109647195Y-120115009D01*
X109647195Y-119972152D01*
X109694814Y-119781676D01*
X109742433Y-119686438D01*
X109837671Y-119591200D01*
X109980528Y-119543580D01*
X110075766Y-119543580D01*
X110218623Y-119591200D01*
X110266242Y-119638819D01*
X111218623Y-120543580D02*
X110647195Y-120543580D01*
X110932909Y-120543580D02*
X110932909Y-119543580D01*
X110837671Y-119686438D01*
X110742433Y-119781676D01*
X110647195Y-119829295D01*
X112171004Y-120543580D02*
X111599576Y-120543580D01*
X111885290Y-120543580D02*
X111885290Y-119543580D01*
X111790052Y-119686438D01*
X111694814Y-119781676D01*
X111599576Y-119829295D01*
X114165142Y-120511842D02*
X114117523Y-120559461D01*
X113974666Y-120607080D01*
X113879428Y-120607080D01*
X113736571Y-120559461D01*
X113641333Y-120464223D01*
X113593714Y-120368985D01*
X113546095Y-120178509D01*
X113546095Y-120035652D01*
X113593714Y-119845176D01*
X113641333Y-119749938D01*
X113736571Y-119654700D01*
X113879428Y-119607080D01*
X113974666Y-119607080D01*
X114117523Y-119654700D01*
X114165142Y-119702319D01*
X115117523Y-120607080D02*
X114546095Y-120607080D01*
X114831809Y-120607080D02*
X114831809Y-119607080D01*
X114736571Y-119749938D01*
X114641333Y-119845176D01*
X114546095Y-119892795D01*
X115498476Y-119702319D02*
X115546095Y-119654700D01*
X115641333Y-119607080D01*
X115879428Y-119607080D01*
X115974666Y-119654700D01*
X116022285Y-119702319D01*
X116069904Y-119797557D01*
X116069904Y-119892795D01*
X116022285Y-120035652D01*
X115450857Y-120607080D01*
X116069904Y-120607080D01*
X118229142Y-120613442D02*
X118181523Y-120661061D01*
X118038666Y-120708680D01*
X117943428Y-120708680D01*
X117800571Y-120661061D01*
X117705333Y-120565823D01*
X117657714Y-120470585D01*
X117610095Y-120280109D01*
X117610095Y-120137252D01*
X117657714Y-119946776D01*
X117705333Y-119851538D01*
X117800571Y-119756300D01*
X117943428Y-119708680D01*
X118038666Y-119708680D01*
X118181523Y-119756300D01*
X118229142Y-119803919D01*
X119181523Y-120708680D02*
X118610095Y-120708680D01*
X118895809Y-120708680D02*
X118895809Y-119708680D01*
X118800571Y-119851538D01*
X118705333Y-119946776D01*
X118610095Y-119994395D01*
X119514857Y-119708680D02*
X120133904Y-119708680D01*
X119800571Y-120089633D01*
X119943428Y-120089633D01*
X120038666Y-120137252D01*
X120086285Y-120184871D01*
X120133904Y-120280109D01*
X120133904Y-120518204D01*
X120086285Y-120613442D01*
X120038666Y-120661061D01*
X119943428Y-120708680D01*
X119657714Y-120708680D01*
X119562476Y-120661061D01*
X119514857Y-120613442D01*
X122343942Y-120486442D02*
X122296323Y-120534061D01*
X122153466Y-120581680D01*
X122058228Y-120581680D01*
X121915371Y-120534061D01*
X121820133Y-120438823D01*
X121772514Y-120343585D01*
X121724895Y-120153109D01*
X121724895Y-120010252D01*
X121772514Y-119819776D01*
X121820133Y-119724538D01*
X121915371Y-119629300D01*
X122058228Y-119581680D01*
X122153466Y-119581680D01*
X122296323Y-119629300D01*
X122343942Y-119676919D01*
X123296323Y-120581680D02*
X122724895Y-120581680D01*
X123010609Y-120581680D02*
X123010609Y-119581680D01*
X122915371Y-119724538D01*
X122820133Y-119819776D01*
X122724895Y-119867395D01*
X124153466Y-119915014D02*
X124153466Y-120581680D01*
X123915371Y-119534061D02*
X123677276Y-120248347D01*
X124296323Y-120248347D01*
X126382542Y-120473742D02*
X126334923Y-120521361D01*
X126192066Y-120568980D01*
X126096828Y-120568980D01*
X125953971Y-120521361D01*
X125858733Y-120426123D01*
X125811114Y-120330885D01*
X125763495Y-120140409D01*
X125763495Y-119997552D01*
X125811114Y-119807076D01*
X125858733Y-119711838D01*
X125953971Y-119616600D01*
X126096828Y-119568980D01*
X126192066Y-119568980D01*
X126334923Y-119616600D01*
X126382542Y-119664219D01*
X127334923Y-120568980D02*
X126763495Y-120568980D01*
X127049209Y-120568980D02*
X127049209Y-119568980D01*
X126953971Y-119711838D01*
X126858733Y-119807076D01*
X126763495Y-119854695D01*
X128239685Y-119568980D02*
X127763495Y-119568980D01*
X127715876Y-120045171D01*
X127763495Y-119997552D01*
X127858733Y-119949933D01*
X128096828Y-119949933D01*
X128192066Y-119997552D01*
X128239685Y-120045171D01*
X128287304Y-120140409D01*
X128287304Y-120378504D01*
X128239685Y-120473742D01*
X128192066Y-120521361D01*
X128096828Y-120568980D01*
X127858733Y-120568980D01*
X127763495Y-120521361D01*
X127715876Y-120473742D01*
X130395742Y-120397542D02*
X130348123Y-120445161D01*
X130205266Y-120492780D01*
X130110028Y-120492780D01*
X129967171Y-120445161D01*
X129871933Y-120349923D01*
X129824314Y-120254685D01*
X129776695Y-120064209D01*
X129776695Y-119921352D01*
X129824314Y-119730876D01*
X129871933Y-119635638D01*
X129967171Y-119540400D01*
X130110028Y-119492780D01*
X130205266Y-119492780D01*
X130348123Y-119540400D01*
X130395742Y-119588019D01*
X131348123Y-120492780D02*
X130776695Y-120492780D01*
X131062409Y-120492780D02*
X131062409Y-119492780D01*
X130967171Y-119635638D01*
X130871933Y-119730876D01*
X130776695Y-119778495D01*
X132205266Y-119492780D02*
X132014790Y-119492780D01*
X131919552Y-119540400D01*
X131871933Y-119588019D01*
X131776695Y-119730876D01*
X131729076Y-119921352D01*
X131729076Y-120302304D01*
X131776695Y-120397542D01*
X131824314Y-120445161D01*
X131919552Y-120492780D01*
X132110028Y-120492780D01*
X132205266Y-120445161D01*
X132252885Y-120397542D01*
X132300504Y-120302304D01*
X132300504Y-120064209D01*
X132252885Y-119968971D01*
X132205266Y-119921352D01*
X132110028Y-119873733D01*
X131919552Y-119873733D01*
X131824314Y-119921352D01*
X131776695Y-119968971D01*
X131729076Y-120064209D01*
X134497842Y-120397542D02*
X134450223Y-120445161D01*
X134307366Y-120492780D01*
X134212128Y-120492780D01*
X134069271Y-120445161D01*
X133974033Y-120349923D01*
X133926414Y-120254685D01*
X133878795Y-120064209D01*
X133878795Y-119921352D01*
X133926414Y-119730876D01*
X133974033Y-119635638D01*
X134069271Y-119540400D01*
X134212128Y-119492780D01*
X134307366Y-119492780D01*
X134450223Y-119540400D01*
X134497842Y-119588019D01*
X135450223Y-120492780D02*
X134878795Y-120492780D01*
X135164509Y-120492780D02*
X135164509Y-119492780D01*
X135069271Y-119635638D01*
X134974033Y-119730876D01*
X134878795Y-119778495D01*
X135783557Y-119492780D02*
X136450223Y-119492780D01*
X136021652Y-120492780D01*
X144197342Y-72613757D02*
X144244961Y-72661376D01*
X144292580Y-72804233D01*
X144292580Y-72899471D01*
X144244961Y-73042328D01*
X144149723Y-73137566D01*
X144054485Y-73185185D01*
X143864009Y-73232804D01*
X143721152Y-73232804D01*
X143530676Y-73185185D01*
X143435438Y-73137566D01*
X143340200Y-73042328D01*
X143292580Y-72899471D01*
X143292580Y-72804233D01*
X143340200Y-72661376D01*
X143387819Y-72613757D01*
X143387819Y-72232804D02*
X143340200Y-72185185D01*
X143292580Y-72089947D01*
X143292580Y-71851852D01*
X143340200Y-71756614D01*
X143387819Y-71708995D01*
X143483057Y-71661376D01*
X143578295Y-71661376D01*
X143721152Y-71708995D01*
X144292580Y-72280423D01*
X144292580Y-71661376D01*
X143292580Y-71042328D02*
X143292580Y-70947090D01*
X143340200Y-70851852D01*
X143387819Y-70804233D01*
X143483057Y-70756614D01*
X143673533Y-70708995D01*
X143911628Y-70708995D01*
X144102104Y-70756614D01*
X144197342Y-70804233D01*
X144244961Y-70851852D01*
X144292580Y-70947090D01*
X144292580Y-71042328D01*
X144244961Y-71137566D01*
X144197342Y-71185185D01*
X144102104Y-71232804D01*
X143911628Y-71280423D01*
X143673533Y-71280423D01*
X143483057Y-71232804D01*
X143387819Y-71185185D01*
X143340200Y-71137566D01*
X143292580Y-71042328D01*
X167286380Y-79938095D02*
X166286380Y-79938095D01*
X166286380Y-79700000D01*
X166334000Y-79557142D01*
X166429238Y-79461904D01*
X166524476Y-79414285D01*
X166714952Y-79366666D01*
X166857809Y-79366666D01*
X167048285Y-79414285D01*
X167143523Y-79461904D01*
X167238761Y-79557142D01*
X167286380Y-79700000D01*
X167286380Y-79938095D01*
X166381619Y-78985714D02*
X166334000Y-78938095D01*
X166286380Y-78842857D01*
X166286380Y-78604761D01*
X166334000Y-78509523D01*
X166381619Y-78461904D01*
X166476857Y-78414285D01*
X166572095Y-78414285D01*
X166714952Y-78461904D01*
X167286380Y-79033333D01*
X167286380Y-78414285D01*
X161840380Y-76355904D02*
X160840380Y-76355904D01*
X161840380Y-75784476D02*
X161268952Y-76213047D01*
X160840380Y-75784476D02*
X161411809Y-76355904D01*
X161604666Y-82132095D02*
X161604666Y-81655904D01*
X161890380Y-82227333D02*
X160890380Y-81894000D01*
X161890380Y-81560666D01*
X161920180Y-71489795D02*
X160920180Y-71489795D01*
X160920180Y-71251700D01*
X160967800Y-71108842D01*
X161063038Y-71013604D01*
X161158276Y-70965985D01*
X161348752Y-70918366D01*
X161491609Y-70918366D01*
X161682085Y-70965985D01*
X161777323Y-71013604D01*
X161872561Y-71108842D01*
X161920180Y-71251700D01*
X161920180Y-71489795D01*
X160920180Y-70585033D02*
X160920180Y-69965985D01*
X161301133Y-70299319D01*
X161301133Y-70156461D01*
X161348752Y-70061223D01*
X161396371Y-70013604D01*
X161491609Y-69965985D01*
X161729704Y-69965985D01*
X161824942Y-70013604D01*
X161872561Y-70061223D01*
X161920180Y-70156461D01*
X161920180Y-70442176D01*
X161872561Y-70537414D01*
X161824942Y-70585033D01*
X161786380Y-73161904D02*
X160786380Y-73161904D01*
X161786380Y-72590476D02*
X161214952Y-73019047D01*
X160786380Y-72590476D02*
X161357809Y-73161904D01*
X161500666Y-68738095D02*
X161500666Y-68261904D01*
X161786380Y-68833333D02*
X160786380Y-68500000D01*
X161786380Y-68166666D01*
X144842004Y-98775780D02*
X144842004Y-97775780D01*
X145080100Y-97775780D01*
X145222957Y-97823400D01*
X145318195Y-97918638D01*
X145365814Y-98013876D01*
X145413433Y-98204352D01*
X145413433Y-98347209D01*
X145365814Y-98537685D01*
X145318195Y-98632923D01*
X145222957Y-98728161D01*
X145080100Y-98775780D01*
X144842004Y-98775780D01*
X146270576Y-98109114D02*
X146270576Y-98775780D01*
X146032480Y-97728161D02*
X145794385Y-98442447D01*
X146413433Y-98442447D01*
X143172095Y-98852380D02*
X143172095Y-97852380D01*
X143743523Y-98852380D02*
X143314952Y-98280952D01*
X143743523Y-97852380D02*
X143172095Y-98423809D01*
X147595904Y-98566666D02*
X148072095Y-98566666D01*
X147500666Y-98852380D02*
X147834000Y-97852380D01*
X148167333Y-98852380D01*
X136795904Y-98952380D02*
X136795904Y-97952380D01*
X137034000Y-97952380D01*
X137176857Y-98000000D01*
X137272095Y-98095238D01*
X137319714Y-98190476D01*
X137367333Y-98380952D01*
X137367333Y-98523809D01*
X137319714Y-98714285D01*
X137272095Y-98809523D01*
X137176857Y-98904761D01*
X137034000Y-98952380D01*
X136795904Y-98952380D01*
X138272095Y-97952380D02*
X137795904Y-97952380D01*
X137748285Y-98428571D01*
X137795904Y-98380952D01*
X137891142Y-98333333D01*
X138129238Y-98333333D01*
X138224476Y-98380952D01*
X138272095Y-98428571D01*
X138319714Y-98523809D01*
X138319714Y-98761904D01*
X138272095Y-98857142D01*
X138224476Y-98904761D01*
X138129238Y-98952380D01*
X137891142Y-98952380D01*
X137795904Y-98904761D01*
X137748285Y-98857142D01*
X140339115Y-98594380D02*
X140339115Y-97594380D01*
X140910543Y-98594380D02*
X140481972Y-98022952D01*
X140910543Y-97594380D02*
X140339115Y-98165809D01*
X134562924Y-98358666D02*
X135039115Y-98358666D01*
X134467686Y-98644380D02*
X134801020Y-97644380D01*
X135134353Y-98644380D01*
X171116666Y-131119571D02*
X170783333Y-131119571D01*
X170783333Y-131643380D02*
X170783333Y-130643380D01*
X171259523Y-130643380D01*
X172164285Y-131643380D02*
X171592857Y-131643380D01*
X171878571Y-131643380D02*
X171878571Y-130643380D01*
X171783333Y-130786238D01*
X171688095Y-130881476D01*
X171592857Y-130929095D01*
X138961904Y-89266880D02*
X138961904Y-88266880D01*
X139342857Y-88266880D01*
X139438095Y-88314500D01*
X139485714Y-88362119D01*
X139533333Y-88457357D01*
X139533333Y-88600214D01*
X139485714Y-88695452D01*
X139438095Y-88743071D01*
X139342857Y-88790690D01*
X138961904Y-88790690D01*
X140485714Y-89266880D02*
X139914285Y-89266880D01*
X140200000Y-89266880D02*
X140200000Y-88266880D01*
X140104761Y-88409738D01*
X140009523Y-88504976D01*
X139914285Y-88552595D01*
X109888280Y-88901495D02*
X108888280Y-88901495D01*
X108888280Y-88520542D01*
X108935900Y-88425304D01*
X108983519Y-88377685D01*
X109078757Y-88330066D01*
X109221614Y-88330066D01*
X109316852Y-88377685D01*
X109364471Y-88425304D01*
X109412090Y-88520542D01*
X109412090Y-88901495D01*
X108983519Y-87949114D02*
X108935900Y-87901495D01*
X108888280Y-87806257D01*
X108888280Y-87568161D01*
X108935900Y-87472923D01*
X108983519Y-87425304D01*
X109078757Y-87377685D01*
X109173995Y-87377685D01*
X109316852Y-87425304D01*
X109888280Y-87996733D01*
X109888280Y-87377685D01*
X125359904Y-123698380D02*
X125359904Y-122698380D01*
X125740857Y-122698380D01*
X125836095Y-122746000D01*
X125883714Y-122793619D01*
X125931333Y-122888857D01*
X125931333Y-123031714D01*
X125883714Y-123126952D01*
X125836095Y-123174571D01*
X125740857Y-123222190D01*
X125359904Y-123222190D01*
X126788476Y-123031714D02*
X126788476Y-123698380D01*
X126550380Y-122650761D02*
X126312285Y-123365047D01*
X126931333Y-123365047D01*
X165139619Y-90773238D02*
X165092000Y-90868476D01*
X164996761Y-90963714D01*
X164853904Y-91106571D01*
X164806285Y-91201809D01*
X164806285Y-91297047D01*
X165044380Y-91249428D02*
X164996761Y-91344666D01*
X164901523Y-91439904D01*
X164711047Y-91487523D01*
X164377714Y-91487523D01*
X164187238Y-91439904D01*
X164092000Y-91344666D01*
X164044380Y-91249428D01*
X164044380Y-91058952D01*
X164092000Y-90963714D01*
X164187238Y-90868476D01*
X164377714Y-90820857D01*
X164711047Y-90820857D01*
X164901523Y-90868476D01*
X164996761Y-90963714D01*
X165044380Y-91058952D01*
X165044380Y-91249428D01*
X165044380Y-89868476D02*
X165044380Y-90439904D01*
X165044380Y-90154190D02*
X164044380Y-90154190D01*
X164187238Y-90249428D01*
X164282476Y-90344666D01*
X164330095Y-90439904D01*
X145835619Y-90773238D02*
X145788000Y-90868476D01*
X145692761Y-90963714D01*
X145549904Y-91106571D01*
X145502285Y-91201809D01*
X145502285Y-91297047D01*
X145740380Y-91249428D02*
X145692761Y-91344666D01*
X145597523Y-91439904D01*
X145407047Y-91487523D01*
X145073714Y-91487523D01*
X144883238Y-91439904D01*
X144788000Y-91344666D01*
X144740380Y-91249428D01*
X144740380Y-91058952D01*
X144788000Y-90963714D01*
X144883238Y-90868476D01*
X145073714Y-90820857D01*
X145407047Y-90820857D01*
X145597523Y-90868476D01*
X145692761Y-90963714D01*
X145740380Y-91058952D01*
X145740380Y-91249428D01*
X144835619Y-90439904D02*
X144788000Y-90392285D01*
X144740380Y-90297047D01*
X144740380Y-90058952D01*
X144788000Y-89963714D01*
X144835619Y-89916095D01*
X144930857Y-89868476D01*
X145026095Y-89868476D01*
X145168952Y-89916095D01*
X145740380Y-90487523D01*
X145740380Y-89868476D01*
X186594761Y-91225619D02*
X186499523Y-91178000D01*
X186404285Y-91082761D01*
X186261428Y-90939904D01*
X186166190Y-90892285D01*
X186070952Y-90892285D01*
X186118571Y-91130380D02*
X186023333Y-91082761D01*
X185928095Y-90987523D01*
X185880476Y-90797047D01*
X185880476Y-90463714D01*
X185928095Y-90273238D01*
X186023333Y-90178000D01*
X186118571Y-90130380D01*
X186309047Y-90130380D01*
X186404285Y-90178000D01*
X186499523Y-90273238D01*
X186547142Y-90463714D01*
X186547142Y-90797047D01*
X186499523Y-90987523D01*
X186404285Y-91082761D01*
X186309047Y-91130380D01*
X186118571Y-91130380D01*
X186880476Y-90130380D02*
X187499523Y-90130380D01*
X187166190Y-90511333D01*
X187309047Y-90511333D01*
X187404285Y-90558952D01*
X187451904Y-90606571D01*
X187499523Y-90701809D01*
X187499523Y-90939904D01*
X187451904Y-91035142D01*
X187404285Y-91082761D01*
X187309047Y-91130380D01*
X187023333Y-91130380D01*
X186928095Y-91082761D01*
X186880476Y-91035142D01*
X179736761Y-98337619D02*
X179641523Y-98290000D01*
X179546285Y-98194761D01*
X179403428Y-98051904D01*
X179308190Y-98004285D01*
X179212952Y-98004285D01*
X179260571Y-98242380D02*
X179165333Y-98194761D01*
X179070095Y-98099523D01*
X179022476Y-97909047D01*
X179022476Y-97575714D01*
X179070095Y-97385238D01*
X179165333Y-97290000D01*
X179260571Y-97242380D01*
X179451047Y-97242380D01*
X179546285Y-97290000D01*
X179641523Y-97385238D01*
X179689142Y-97575714D01*
X179689142Y-97909047D01*
X179641523Y-98099523D01*
X179546285Y-98194761D01*
X179451047Y-98242380D01*
X179260571Y-98242380D01*
X180546285Y-97575714D02*
X180546285Y-98242380D01*
X180308190Y-97194761D02*
X180070095Y-97909047D01*
X180689142Y-97909047D01*
X160178761Y-98083619D02*
X160083523Y-98036000D01*
X159988285Y-97940761D01*
X159845428Y-97797904D01*
X159750190Y-97750285D01*
X159654952Y-97750285D01*
X159702571Y-97988380D02*
X159607333Y-97940761D01*
X159512095Y-97845523D01*
X159464476Y-97655047D01*
X159464476Y-97321714D01*
X159512095Y-97131238D01*
X159607333Y-97036000D01*
X159702571Y-96988380D01*
X159893047Y-96988380D01*
X159988285Y-97036000D01*
X160083523Y-97131238D01*
X160131142Y-97321714D01*
X160131142Y-97655047D01*
X160083523Y-97845523D01*
X159988285Y-97940761D01*
X159893047Y-97988380D01*
X159702571Y-97988380D01*
X161035904Y-96988380D02*
X160559714Y-96988380D01*
X160512095Y-97464571D01*
X160559714Y-97416952D01*
X160654952Y-97369333D01*
X160893047Y-97369333D01*
X160988285Y-97416952D01*
X161035904Y-97464571D01*
X161083523Y-97559809D01*
X161083523Y-97797904D01*
X161035904Y-97893142D01*
X160988285Y-97940761D01*
X160893047Y-97988380D01*
X160654952Y-97988380D01*
X160559714Y-97940761D01*
X160512095Y-97893142D01*
X148309033Y-82113380D02*
X147975700Y-81637190D01*
X147737604Y-82113380D02*
X147737604Y-81113380D01*
X148118557Y-81113380D01*
X148213795Y-81161000D01*
X148261414Y-81208619D01*
X148309033Y-81303857D01*
X148309033Y-81446714D01*
X148261414Y-81541952D01*
X148213795Y-81589571D01*
X148118557Y-81637190D01*
X147737604Y-81637190D01*
X149261414Y-82113380D02*
X148689985Y-82113380D01*
X148975700Y-82113380D02*
X148975700Y-81113380D01*
X148880461Y-81256238D01*
X148785223Y-81351476D01*
X148689985Y-81399095D01*
X153744633Y-82126080D02*
X153411300Y-81649890D01*
X153173204Y-82126080D02*
X153173204Y-81126080D01*
X153554157Y-81126080D01*
X153649395Y-81173700D01*
X153697014Y-81221319D01*
X153744633Y-81316557D01*
X153744633Y-81459414D01*
X153697014Y-81554652D01*
X153649395Y-81602271D01*
X153554157Y-81649890D01*
X153173204Y-81649890D01*
X154125585Y-81221319D02*
X154173204Y-81173700D01*
X154268442Y-81126080D01*
X154506538Y-81126080D01*
X154601776Y-81173700D01*
X154649395Y-81221319D01*
X154697014Y-81316557D01*
X154697014Y-81411795D01*
X154649395Y-81554652D01*
X154077966Y-82126080D01*
X154697014Y-82126080D01*
X153820833Y-72829680D02*
X153487500Y-72353490D01*
X153249404Y-72829680D02*
X153249404Y-71829680D01*
X153630357Y-71829680D01*
X153725595Y-71877300D01*
X153773214Y-71924919D01*
X153820833Y-72020157D01*
X153820833Y-72163014D01*
X153773214Y-72258252D01*
X153725595Y-72305871D01*
X153630357Y-72353490D01*
X153249404Y-72353490D01*
X154154166Y-71829680D02*
X154773214Y-71829680D01*
X154439880Y-72210633D01*
X154582738Y-72210633D01*
X154677976Y-72258252D01*
X154725595Y-72305871D01*
X154773214Y-72401109D01*
X154773214Y-72639204D01*
X154725595Y-72734442D01*
X154677976Y-72782061D01*
X154582738Y-72829680D01*
X154297023Y-72829680D01*
X154201785Y-72782061D01*
X154154166Y-72734442D01*
X134453333Y-84966380D02*
X134120000Y-84490190D01*
X133881904Y-84966380D02*
X133881904Y-83966380D01*
X134262857Y-83966380D01*
X134358095Y-84014000D01*
X134405714Y-84061619D01*
X134453333Y-84156857D01*
X134453333Y-84299714D01*
X134405714Y-84394952D01*
X134358095Y-84442571D01*
X134262857Y-84490190D01*
X133881904Y-84490190D01*
X135310476Y-84299714D02*
X135310476Y-84966380D01*
X135072380Y-83918761D02*
X134834285Y-84633047D01*
X135453333Y-84633047D01*
X139279333Y-81410380D02*
X138946000Y-80934190D01*
X138707904Y-81410380D02*
X138707904Y-80410380D01*
X139088857Y-80410380D01*
X139184095Y-80458000D01*
X139231714Y-80505619D01*
X139279333Y-80600857D01*
X139279333Y-80743714D01*
X139231714Y-80838952D01*
X139184095Y-80886571D01*
X139088857Y-80934190D01*
X138707904Y-80934190D01*
X140184095Y-80410380D02*
X139707904Y-80410380D01*
X139660285Y-80886571D01*
X139707904Y-80838952D01*
X139803142Y-80791333D01*
X140041238Y-80791333D01*
X140136476Y-80838952D01*
X140184095Y-80886571D01*
X140231714Y-80981809D01*
X140231714Y-81219904D01*
X140184095Y-81315142D01*
X140136476Y-81362761D01*
X140041238Y-81410380D01*
X139803142Y-81410380D01*
X139707904Y-81362761D01*
X139660285Y-81315142D01*
X158372380Y-79414666D02*
X157896190Y-79748000D01*
X158372380Y-79986095D02*
X157372380Y-79986095D01*
X157372380Y-79605142D01*
X157420000Y-79509904D01*
X157467619Y-79462285D01*
X157562857Y-79414666D01*
X157705714Y-79414666D01*
X157800952Y-79462285D01*
X157848571Y-79509904D01*
X157896190Y-79605142D01*
X157896190Y-79986095D01*
X157372380Y-78557523D02*
X157372380Y-78748000D01*
X157420000Y-78843238D01*
X157467619Y-78890857D01*
X157610476Y-78986095D01*
X157800952Y-79033714D01*
X158181904Y-79033714D01*
X158277142Y-78986095D01*
X158324761Y-78938476D01*
X158372380Y-78843238D01*
X158372380Y-78652761D01*
X158324761Y-78557523D01*
X158277142Y-78509904D01*
X158181904Y-78462285D01*
X157943809Y-78462285D01*
X157848571Y-78509904D01*
X157800952Y-78557523D01*
X157753333Y-78652761D01*
X157753333Y-78843238D01*
X157800952Y-78938476D01*
X157848571Y-78986095D01*
X157943809Y-79033714D01*
X155535333Y-70878380D02*
X155202000Y-70402190D01*
X154963904Y-70878380D02*
X154963904Y-69878380D01*
X155344857Y-69878380D01*
X155440095Y-69926000D01*
X155487714Y-69973619D01*
X155535333Y-70068857D01*
X155535333Y-70211714D01*
X155487714Y-70306952D01*
X155440095Y-70354571D01*
X155344857Y-70402190D01*
X154963904Y-70402190D01*
X155868666Y-69878380D02*
X156535333Y-69878380D01*
X156106761Y-70878380D01*
X182713333Y-81918380D02*
X182380000Y-81442190D01*
X182141904Y-81918380D02*
X182141904Y-80918380D01*
X182522857Y-80918380D01*
X182618095Y-80966000D01*
X182665714Y-81013619D01*
X182713333Y-81108857D01*
X182713333Y-81251714D01*
X182665714Y-81346952D01*
X182618095Y-81394571D01*
X182522857Y-81442190D01*
X182141904Y-81442190D01*
X183284761Y-81346952D02*
X183189523Y-81299333D01*
X183141904Y-81251714D01*
X183094285Y-81156476D01*
X183094285Y-81108857D01*
X183141904Y-81013619D01*
X183189523Y-80966000D01*
X183284761Y-80918380D01*
X183475238Y-80918380D01*
X183570476Y-80966000D01*
X183618095Y-81013619D01*
X183665714Y-81108857D01*
X183665714Y-81156476D01*
X183618095Y-81251714D01*
X183570476Y-81299333D01*
X183475238Y-81346952D01*
X183284761Y-81346952D01*
X183189523Y-81394571D01*
X183141904Y-81442190D01*
X183094285Y-81537428D01*
X183094285Y-81727904D01*
X183141904Y-81823142D01*
X183189523Y-81870761D01*
X183284761Y-81918380D01*
X183475238Y-81918380D01*
X183570476Y-81870761D01*
X183618095Y-81823142D01*
X183665714Y-81727904D01*
X183665714Y-81537428D01*
X183618095Y-81442190D01*
X183570476Y-81394571D01*
X183475238Y-81346952D01*
X139286380Y-117266666D02*
X138810190Y-117600000D01*
X139286380Y-117838095D02*
X138286380Y-117838095D01*
X138286380Y-117457142D01*
X138334000Y-117361904D01*
X138381619Y-117314285D01*
X138476857Y-117266666D01*
X138619714Y-117266666D01*
X138714952Y-117314285D01*
X138762571Y-117361904D01*
X138810190Y-117457142D01*
X138810190Y-117838095D01*
X139286380Y-116790476D02*
X139286380Y-116600000D01*
X139238761Y-116504761D01*
X139191142Y-116457142D01*
X139048285Y-116361904D01*
X138857809Y-116314285D01*
X138476857Y-116314285D01*
X138381619Y-116361904D01*
X138334000Y-116409523D01*
X138286380Y-116504761D01*
X138286380Y-116695238D01*
X138334000Y-116790476D01*
X138381619Y-116838095D01*
X138476857Y-116885714D01*
X138714952Y-116885714D01*
X138810190Y-116838095D01*
X138857809Y-116790476D01*
X138905428Y-116695238D01*
X138905428Y-116504761D01*
X138857809Y-116409523D01*
X138810190Y-116361904D01*
X138714952Y-116314285D01*
X146349980Y-118206757D02*
X145873790Y-118540090D01*
X146349980Y-118778185D02*
X145349980Y-118778185D01*
X145349980Y-118397233D01*
X145397600Y-118301995D01*
X145445219Y-118254376D01*
X145540457Y-118206757D01*
X145683314Y-118206757D01*
X145778552Y-118254376D01*
X145826171Y-118301995D01*
X145873790Y-118397233D01*
X145873790Y-118778185D01*
X146349980Y-117254376D02*
X146349980Y-117825804D01*
X146349980Y-117540090D02*
X145349980Y-117540090D01*
X145492838Y-117635328D01*
X145588076Y-117730566D01*
X145635695Y-117825804D01*
X146349980Y-116301995D02*
X146349980Y-116873423D01*
X146349980Y-116587709D02*
X145349980Y-116587709D01*
X145492838Y-116682947D01*
X145588076Y-116778185D01*
X145635695Y-116873423D01*
X148733642Y-106964280D02*
X148400309Y-106488090D01*
X148162214Y-106964280D02*
X148162214Y-105964280D01*
X148543166Y-105964280D01*
X148638404Y-106011900D01*
X148686023Y-106059519D01*
X148733642Y-106154757D01*
X148733642Y-106297614D01*
X148686023Y-106392852D01*
X148638404Y-106440471D01*
X148543166Y-106488090D01*
X148162214Y-106488090D01*
X149686023Y-106964280D02*
X149114595Y-106964280D01*
X149400309Y-106964280D02*
X149400309Y-105964280D01*
X149305071Y-106107138D01*
X149209833Y-106202376D01*
X149114595Y-106249995D01*
X150066976Y-106059519D02*
X150114595Y-106011900D01*
X150209833Y-105964280D01*
X150447928Y-105964280D01*
X150543166Y-106011900D01*
X150590785Y-106059519D01*
X150638404Y-106154757D01*
X150638404Y-106249995D01*
X150590785Y-106392852D01*
X150019357Y-106964280D01*
X150638404Y-106964280D01*
X138291142Y-105052380D02*
X137957809Y-104576190D01*
X137719714Y-105052380D02*
X137719714Y-104052380D01*
X138100666Y-104052380D01*
X138195904Y-104100000D01*
X138243523Y-104147619D01*
X138291142Y-104242857D01*
X138291142Y-104385714D01*
X138243523Y-104480952D01*
X138195904Y-104528571D01*
X138100666Y-104576190D01*
X137719714Y-104576190D01*
X139243523Y-105052380D02*
X138672095Y-105052380D01*
X138957809Y-105052380D02*
X138957809Y-104052380D01*
X138862571Y-104195238D01*
X138767333Y-104290476D01*
X138672095Y-104338095D01*
X139576857Y-104052380D02*
X140195904Y-104052380D01*
X139862571Y-104433333D01*
X140005428Y-104433333D01*
X140100666Y-104480952D01*
X140148285Y-104528571D01*
X140195904Y-104623809D01*
X140195904Y-104861904D01*
X140148285Y-104957142D01*
X140100666Y-105004761D01*
X140005428Y-105052380D01*
X139719714Y-105052380D01*
X139624476Y-105004761D01*
X139576857Y-104957142D01*
X107064380Y-114942857D02*
X106588190Y-115276190D01*
X107064380Y-115514285D02*
X106064380Y-115514285D01*
X106064380Y-115133333D01*
X106112000Y-115038095D01*
X106159619Y-114990476D01*
X106254857Y-114942857D01*
X106397714Y-114942857D01*
X106492952Y-114990476D01*
X106540571Y-115038095D01*
X106588190Y-115133333D01*
X106588190Y-115514285D01*
X107064380Y-113990476D02*
X107064380Y-114561904D01*
X107064380Y-114276190D02*
X106064380Y-114276190D01*
X106207238Y-114371428D01*
X106302476Y-114466666D01*
X106350095Y-114561904D01*
X106397714Y-113133333D02*
X107064380Y-113133333D01*
X106016761Y-113371428D02*
X106731047Y-113609523D01*
X106731047Y-112990476D01*
X111128380Y-114942857D02*
X110652190Y-115276190D01*
X111128380Y-115514285D02*
X110128380Y-115514285D01*
X110128380Y-115133333D01*
X110176000Y-115038095D01*
X110223619Y-114990476D01*
X110318857Y-114942857D01*
X110461714Y-114942857D01*
X110556952Y-114990476D01*
X110604571Y-115038095D01*
X110652190Y-115133333D01*
X110652190Y-115514285D01*
X111128380Y-113990476D02*
X111128380Y-114561904D01*
X111128380Y-114276190D02*
X110128380Y-114276190D01*
X110271238Y-114371428D01*
X110366476Y-114466666D01*
X110414095Y-114561904D01*
X110128380Y-113085714D02*
X110128380Y-113561904D01*
X110604571Y-113609523D01*
X110556952Y-113561904D01*
X110509333Y-113466666D01*
X110509333Y-113228571D01*
X110556952Y-113133333D01*
X110604571Y-113085714D01*
X110699809Y-113038095D01*
X110937904Y-113038095D01*
X111033142Y-113085714D01*
X111080761Y-113133333D01*
X111128380Y-113228571D01*
X111128380Y-113466666D01*
X111080761Y-113561904D01*
X111033142Y-113609523D01*
X115192380Y-114942857D02*
X114716190Y-115276190D01*
X115192380Y-115514285D02*
X114192380Y-115514285D01*
X114192380Y-115133333D01*
X114240000Y-115038095D01*
X114287619Y-114990476D01*
X114382857Y-114942857D01*
X114525714Y-114942857D01*
X114620952Y-114990476D01*
X114668571Y-115038095D01*
X114716190Y-115133333D01*
X114716190Y-115514285D01*
X115192380Y-113990476D02*
X115192380Y-114561904D01*
X115192380Y-114276190D02*
X114192380Y-114276190D01*
X114335238Y-114371428D01*
X114430476Y-114466666D01*
X114478095Y-114561904D01*
X114192380Y-113133333D02*
X114192380Y-113323809D01*
X114240000Y-113419047D01*
X114287619Y-113466666D01*
X114430476Y-113561904D01*
X114620952Y-113609523D01*
X115001904Y-113609523D01*
X115097142Y-113561904D01*
X115144761Y-113514285D01*
X115192380Y-113419047D01*
X115192380Y-113228571D01*
X115144761Y-113133333D01*
X115097142Y-113085714D01*
X115001904Y-113038095D01*
X114763809Y-113038095D01*
X114668571Y-113085714D01*
X114620952Y-113133333D01*
X114573333Y-113228571D01*
X114573333Y-113419047D01*
X114620952Y-113514285D01*
X114668571Y-113561904D01*
X114763809Y-113609523D01*
X119256380Y-114942857D02*
X118780190Y-115276190D01*
X119256380Y-115514285D02*
X118256380Y-115514285D01*
X118256380Y-115133333D01*
X118304000Y-115038095D01*
X118351619Y-114990476D01*
X118446857Y-114942857D01*
X118589714Y-114942857D01*
X118684952Y-114990476D01*
X118732571Y-115038095D01*
X118780190Y-115133333D01*
X118780190Y-115514285D01*
X119256380Y-113990476D02*
X119256380Y-114561904D01*
X119256380Y-114276190D02*
X118256380Y-114276190D01*
X118399238Y-114371428D01*
X118494476Y-114466666D01*
X118542095Y-114561904D01*
X118256380Y-113657142D02*
X118256380Y-112990476D01*
X119256380Y-113419047D01*
X123320380Y-114942857D02*
X122844190Y-115276190D01*
X123320380Y-115514285D02*
X122320380Y-115514285D01*
X122320380Y-115133333D01*
X122368000Y-115038095D01*
X122415619Y-114990476D01*
X122510857Y-114942857D01*
X122653714Y-114942857D01*
X122748952Y-114990476D01*
X122796571Y-115038095D01*
X122844190Y-115133333D01*
X122844190Y-115514285D01*
X123320380Y-113990476D02*
X123320380Y-114561904D01*
X123320380Y-114276190D02*
X122320380Y-114276190D01*
X122463238Y-114371428D01*
X122558476Y-114466666D01*
X122606095Y-114561904D01*
X122748952Y-113419047D02*
X122701333Y-113514285D01*
X122653714Y-113561904D01*
X122558476Y-113609523D01*
X122510857Y-113609523D01*
X122415619Y-113561904D01*
X122368000Y-113514285D01*
X122320380Y-113419047D01*
X122320380Y-113228571D01*
X122368000Y-113133333D01*
X122415619Y-113085714D01*
X122510857Y-113038095D01*
X122558476Y-113038095D01*
X122653714Y-113085714D01*
X122701333Y-113133333D01*
X122748952Y-113228571D01*
X122748952Y-113419047D01*
X122796571Y-113514285D01*
X122844190Y-113561904D01*
X122939428Y-113609523D01*
X123129904Y-113609523D01*
X123225142Y-113561904D01*
X123272761Y-113514285D01*
X123320380Y-113419047D01*
X123320380Y-113228571D01*
X123272761Y-113133333D01*
X123225142Y-113085714D01*
X123129904Y-113038095D01*
X122939428Y-113038095D01*
X122844190Y-113085714D01*
X122796571Y-113133333D01*
X122748952Y-113228571D01*
X127384380Y-114942857D02*
X126908190Y-115276190D01*
X127384380Y-115514285D02*
X126384380Y-115514285D01*
X126384380Y-115133333D01*
X126432000Y-115038095D01*
X126479619Y-114990476D01*
X126574857Y-114942857D01*
X126717714Y-114942857D01*
X126812952Y-114990476D01*
X126860571Y-115038095D01*
X126908190Y-115133333D01*
X126908190Y-115514285D01*
X127384380Y-113990476D02*
X127384380Y-114561904D01*
X127384380Y-114276190D02*
X126384380Y-114276190D01*
X126527238Y-114371428D01*
X126622476Y-114466666D01*
X126670095Y-114561904D01*
X127384380Y-113514285D02*
X127384380Y-113323809D01*
X127336761Y-113228571D01*
X127289142Y-113180952D01*
X127146285Y-113085714D01*
X126955809Y-113038095D01*
X126574857Y-113038095D01*
X126479619Y-113085714D01*
X126432000Y-113133333D01*
X126384380Y-113228571D01*
X126384380Y-113419047D01*
X126432000Y-113514285D01*
X126479619Y-113561904D01*
X126574857Y-113609523D01*
X126812952Y-113609523D01*
X126908190Y-113561904D01*
X126955809Y-113514285D01*
X127003428Y-113419047D01*
X127003428Y-113228571D01*
X126955809Y-113133333D01*
X126908190Y-113085714D01*
X126812952Y-113038095D01*
X131448380Y-114942857D02*
X130972190Y-115276190D01*
X131448380Y-115514285D02*
X130448380Y-115514285D01*
X130448380Y-115133333D01*
X130496000Y-115038095D01*
X130543619Y-114990476D01*
X130638857Y-114942857D01*
X130781714Y-114942857D01*
X130876952Y-114990476D01*
X130924571Y-115038095D01*
X130972190Y-115133333D01*
X130972190Y-115514285D01*
X130543619Y-114561904D02*
X130496000Y-114514285D01*
X130448380Y-114419047D01*
X130448380Y-114180952D01*
X130496000Y-114085714D01*
X130543619Y-114038095D01*
X130638857Y-113990476D01*
X130734095Y-113990476D01*
X130876952Y-114038095D01*
X131448380Y-114609523D01*
X131448380Y-113990476D01*
X130448380Y-113371428D02*
X130448380Y-113276190D01*
X130496000Y-113180952D01*
X130543619Y-113133333D01*
X130638857Y-113085714D01*
X130829333Y-113038095D01*
X131067428Y-113038095D01*
X131257904Y-113085714D01*
X131353142Y-113133333D01*
X131400761Y-113180952D01*
X131448380Y-113276190D01*
X131448380Y-113371428D01*
X131400761Y-113466666D01*
X131353142Y-113514285D01*
X131257904Y-113561904D01*
X131067428Y-113609523D01*
X130829333Y-113609523D01*
X130638857Y-113561904D01*
X130543619Y-113514285D01*
X130496000Y-113466666D01*
X130448380Y-113371428D01*
X135512380Y-114942857D02*
X135036190Y-115276190D01*
X135512380Y-115514285D02*
X134512380Y-115514285D01*
X134512380Y-115133333D01*
X134560000Y-115038095D01*
X134607619Y-114990476D01*
X134702857Y-114942857D01*
X134845714Y-114942857D01*
X134940952Y-114990476D01*
X134988571Y-115038095D01*
X135036190Y-115133333D01*
X135036190Y-115514285D01*
X134607619Y-114561904D02*
X134560000Y-114514285D01*
X134512380Y-114419047D01*
X134512380Y-114180952D01*
X134560000Y-114085714D01*
X134607619Y-114038095D01*
X134702857Y-113990476D01*
X134798095Y-113990476D01*
X134940952Y-114038095D01*
X135512380Y-114609523D01*
X135512380Y-113990476D01*
X135512380Y-113038095D02*
X135512380Y-113609523D01*
X135512380Y-113323809D02*
X134512380Y-113323809D01*
X134655238Y-113419047D01*
X134750476Y-113514285D01*
X134798095Y-113609523D01*
X148467842Y-110751880D02*
X148134509Y-110275690D01*
X147896414Y-110751880D02*
X147896414Y-109751880D01*
X148277366Y-109751880D01*
X148372604Y-109799500D01*
X148420223Y-109847119D01*
X148467842Y-109942357D01*
X148467842Y-110085214D01*
X148420223Y-110180452D01*
X148372604Y-110228071D01*
X148277366Y-110275690D01*
X147896414Y-110275690D01*
X148848795Y-109847119D02*
X148896414Y-109799500D01*
X148991652Y-109751880D01*
X149229747Y-109751880D01*
X149324985Y-109799500D01*
X149372604Y-109847119D01*
X149420223Y-109942357D01*
X149420223Y-110037595D01*
X149372604Y-110180452D01*
X148801176Y-110751880D01*
X149420223Y-110751880D01*
X149801176Y-109847119D02*
X149848795Y-109799500D01*
X149944033Y-109751880D01*
X150182128Y-109751880D01*
X150277366Y-109799500D01*
X150324985Y-109847119D01*
X150372604Y-109942357D01*
X150372604Y-110037595D01*
X150324985Y-110180452D01*
X149753557Y-110751880D01*
X150372604Y-110751880D01*
X137942580Y-72740757D02*
X137466390Y-73074090D01*
X137942580Y-73312185D02*
X136942580Y-73312185D01*
X136942580Y-72931233D01*
X136990200Y-72835995D01*
X137037819Y-72788376D01*
X137133057Y-72740757D01*
X137275914Y-72740757D01*
X137371152Y-72788376D01*
X137418771Y-72835995D01*
X137466390Y-72931233D01*
X137466390Y-73312185D01*
X137037819Y-72359804D02*
X136990200Y-72312185D01*
X136942580Y-72216947D01*
X136942580Y-71978852D01*
X136990200Y-71883614D01*
X137037819Y-71835995D01*
X137133057Y-71788376D01*
X137228295Y-71788376D01*
X137371152Y-71835995D01*
X137942580Y-72407423D01*
X137942580Y-71788376D01*
X137275914Y-70931233D02*
X137942580Y-70931233D01*
X136894961Y-71169328D02*
X137609247Y-71407423D01*
X137609247Y-70788376D01*
D10*
X132060190Y-97916952D02*
X132464952Y-97916952D01*
X132512571Y-97893142D01*
X132536380Y-97869333D01*
X132560190Y-97821714D01*
X132560190Y-97726476D01*
X132536380Y-97678857D01*
X132512571Y-97655047D01*
X132464952Y-97631238D01*
X132060190Y-97631238D01*
X132560190Y-97131238D02*
X132560190Y-97416952D01*
X132560190Y-97274095D02*
X132060190Y-97274095D01*
X132131619Y-97321714D01*
X132179238Y-97369333D01*
X132203047Y-97416952D01*
X133314285Y-99399967D02*
X133338095Y-99328539D01*
X133361904Y-99304729D01*
X133409523Y-99280920D01*
X133480952Y-99280920D01*
X133528571Y-99304729D01*
X133552380Y-99328539D01*
X133576190Y-99376158D01*
X133576190Y-99566634D01*
X133076190Y-99566634D01*
X133076190Y-99399967D01*
X133100000Y-99352348D01*
X133123809Y-99328539D01*
X133171428Y-99304729D01*
X133219047Y-99304729D01*
X133266666Y-99328539D01*
X133290476Y-99352348D01*
X133314285Y-99399967D01*
X133314285Y-99566634D01*
X133623809Y-98733300D02*
X133600000Y-98780920D01*
X133552380Y-98828539D01*
X133480952Y-98899967D01*
X133457142Y-98947586D01*
X133457142Y-98995205D01*
X133576190Y-98971396D02*
X133552380Y-99019015D01*
X133504761Y-99066634D01*
X133409523Y-99090443D01*
X133242857Y-99090443D01*
X133147619Y-99066634D01*
X133100000Y-99019015D01*
X133076190Y-98971396D01*
X133076190Y-98876158D01*
X133100000Y-98828539D01*
X133147619Y-98780920D01*
X133242857Y-98757110D01*
X133409523Y-98757110D01*
X133504761Y-98780920D01*
X133552380Y-98828539D01*
X133576190Y-98876158D01*
X133576190Y-98971396D01*
X133076190Y-98590443D02*
X133076190Y-98257110D01*
X133576190Y-98471396D01*
X133076190Y-98114253D02*
X133076190Y-97780920D01*
X133576190Y-97995205D01*
X133576190Y-97590443D02*
X133076190Y-97590443D01*
X133076190Y-97399967D01*
X133100000Y-97352348D01*
X133123809Y-97328539D01*
X133171428Y-97304729D01*
X133242857Y-97304729D01*
X133290476Y-97328539D01*
X133314285Y-97352348D01*
X133338095Y-97399967D01*
X133338095Y-97590443D01*
X133576190Y-96852348D02*
X133576190Y-97090443D01*
X133076190Y-97090443D01*
X133576190Y-96661872D02*
X133576190Y-96566634D01*
X133552380Y-96519015D01*
X133528571Y-96495205D01*
X133457142Y-96447586D01*
X133361904Y-96423777D01*
X133171428Y-96423777D01*
X133123809Y-96447586D01*
X133100000Y-96471396D01*
X133076190Y-96519015D01*
X133076190Y-96614253D01*
X133100000Y-96661872D01*
X133123809Y-96685681D01*
X133171428Y-96709491D01*
X133290476Y-96709491D01*
X133338095Y-96685681D01*
X133361904Y-96661872D01*
X133385714Y-96614253D01*
X133385714Y-96519015D01*
X133361904Y-96471396D01*
X133338095Y-96447586D01*
X133290476Y-96423777D01*
X133076190Y-96114253D02*
X133076190Y-96066634D01*
X133100000Y-96019015D01*
X133123809Y-95995205D01*
X133171428Y-95971396D01*
X133266666Y-95947586D01*
X133385714Y-95947586D01*
X133480952Y-95971396D01*
X133528571Y-95995205D01*
X133552380Y-96019015D01*
X133576190Y-96066634D01*
X133576190Y-96114253D01*
X133552380Y-96161872D01*
X133528571Y-96185681D01*
X133480952Y-96209491D01*
X133385714Y-96233300D01*
X133266666Y-96233300D01*
X133171428Y-96209491D01*
X133123809Y-96185681D01*
X133100000Y-96161872D01*
X133076190Y-96114253D01*
X133076190Y-95638062D02*
X133076190Y-95590443D01*
X133100000Y-95542824D01*
X133123809Y-95519015D01*
X133171428Y-95495205D01*
X133266666Y-95471396D01*
X133385714Y-95471396D01*
X133480952Y-95495205D01*
X133528571Y-95519015D01*
X133552380Y-95542824D01*
X133576190Y-95590443D01*
X133576190Y-95638062D01*
X133552380Y-95685681D01*
X133528571Y-95709491D01*
X133480952Y-95733300D01*
X133385714Y-95757110D01*
X133266666Y-95757110D01*
X133171428Y-95733300D01*
X133123809Y-95709491D01*
X133100000Y-95685681D01*
X133076190Y-95638062D01*
D13*
X132935523Y-68829095D02*
X132935523Y-69031476D01*
X132947428Y-69055285D01*
X132959333Y-69067190D01*
X132983142Y-69079095D01*
X133030761Y-69079095D01*
X133054571Y-69067190D01*
X133066476Y-69055285D01*
X133078380Y-69031476D01*
X133078380Y-68829095D01*
X133185523Y-68852904D02*
X133197428Y-68841000D01*
X133221238Y-68829095D01*
X133280761Y-68829095D01*
X133304571Y-68841000D01*
X133316476Y-68852904D01*
X133328380Y-68876714D01*
X133328380Y-68900523D01*
X133316476Y-68936238D01*
X133173619Y-69079095D01*
X133328380Y-69079095D01*
D12*
X104679238Y-80652380D02*
X104917333Y-81652380D01*
X105107809Y-80938095D01*
X105298285Y-81652380D01*
X105536380Y-80652380D01*
X106441142Y-81652380D02*
X105869714Y-81652380D01*
X106155428Y-81652380D02*
X106155428Y-80652380D01*
X106060190Y-80795238D01*
X105964952Y-80890476D01*
X105869714Y-80938095D01*
X133207238Y-91686380D02*
X133445333Y-92686380D01*
X133635809Y-91972095D01*
X133826285Y-92686380D01*
X134064380Y-91686380D01*
X134350095Y-91686380D02*
X134969142Y-91686380D01*
X134635809Y-92067333D01*
X134778666Y-92067333D01*
X134873904Y-92114952D01*
X134921523Y-92162571D01*
X134969142Y-92257809D01*
X134969142Y-92495904D01*
X134921523Y-92591142D01*
X134873904Y-92638761D01*
X134778666Y-92686380D01*
X134492952Y-92686380D01*
X134397714Y-92638761D01*
X134350095Y-92591142D01*
X104679238Y-82902380D02*
X104917333Y-83902380D01*
X105107809Y-83188095D01*
X105298285Y-83902380D01*
X105536380Y-82902380D01*
X106345904Y-82902380D02*
X106155428Y-82902380D01*
X106060190Y-82950000D01*
X106012571Y-82997619D01*
X105917333Y-83140476D01*
X105869714Y-83330952D01*
X105869714Y-83711904D01*
X105917333Y-83807142D01*
X105964952Y-83854761D01*
X106060190Y-83902380D01*
X106250666Y-83902380D01*
X106345904Y-83854761D01*
X106393523Y-83807142D01*
X106441142Y-83711904D01*
X106441142Y-83473809D01*
X106393523Y-83378571D01*
X106345904Y-83330952D01*
X106250666Y-83283333D01*
X106060190Y-83283333D01*
X105964952Y-83330952D01*
X105917333Y-83378571D01*
X105869714Y-83473809D01*
X115036380Y-83104761D02*
X116036380Y-82866666D01*
X115322095Y-82676190D01*
X116036380Y-82485714D01*
X115036380Y-82247619D01*
X115036380Y-81961904D02*
X115036380Y-81295238D01*
X116036380Y-81723809D01*
X127087333Y-78683142D02*
X127039714Y-78730761D01*
X126896857Y-78778380D01*
X126801619Y-78778380D01*
X126658761Y-78730761D01*
X126563523Y-78635523D01*
X126515904Y-78540285D01*
X126468285Y-78349809D01*
X126468285Y-78206952D01*
X126515904Y-78016476D01*
X126563523Y-77921238D01*
X126658761Y-77826000D01*
X126801619Y-77778380D01*
X126896857Y-77778380D01*
X127039714Y-77826000D01*
X127087333Y-77873619D01*
X128039714Y-78778380D02*
X127468285Y-78778380D01*
X127754000Y-78778380D02*
X127754000Y-77778380D01*
X127658761Y-77921238D01*
X127563523Y-78016476D01*
X127468285Y-78064095D01*
X147263142Y-74564666D02*
X147310761Y-74612285D01*
X147358380Y-74755142D01*
X147358380Y-74850380D01*
X147310761Y-74993238D01*
X147215523Y-75088476D01*
X147120285Y-75136095D01*
X146929809Y-75183714D01*
X146786952Y-75183714D01*
X146596476Y-75136095D01*
X146501238Y-75088476D01*
X146406000Y-74993238D01*
X146358380Y-74850380D01*
X146358380Y-74755142D01*
X146406000Y-74612285D01*
X146453619Y-74564666D01*
X146453619Y-74183714D02*
X146406000Y-74136095D01*
X146358380Y-74040857D01*
X146358380Y-73802761D01*
X146406000Y-73707523D01*
X146453619Y-73659904D01*
X146548857Y-73612285D01*
X146644095Y-73612285D01*
X146786952Y-73659904D01*
X147358380Y-74231333D01*
X147358380Y-73612285D01*
X123417333Y-82557142D02*
X123369714Y-82604761D01*
X123226857Y-82652380D01*
X123131619Y-82652380D01*
X122988761Y-82604761D01*
X122893523Y-82509523D01*
X122845904Y-82414285D01*
X122798285Y-82223809D01*
X122798285Y-82080952D01*
X122845904Y-81890476D01*
X122893523Y-81795238D01*
X122988761Y-81700000D01*
X123131619Y-81652380D01*
X123226857Y-81652380D01*
X123369714Y-81700000D01*
X123417333Y-81747619D01*
X123750666Y-81652380D02*
X124369714Y-81652380D01*
X124036380Y-82033333D01*
X124179238Y-82033333D01*
X124274476Y-82080952D01*
X124322095Y-82128571D01*
X124369714Y-82223809D01*
X124369714Y-82461904D01*
X124322095Y-82557142D01*
X124274476Y-82604761D01*
X124179238Y-82652380D01*
X123893523Y-82652380D01*
X123798285Y-82604761D01*
X123750666Y-82557142D01*
X141091142Y-112757142D02*
X141043523Y-112804761D01*
X140900666Y-112852380D01*
X140805428Y-112852380D01*
X140662571Y-112804761D01*
X140567333Y-112709523D01*
X140519714Y-112614285D01*
X140472095Y-112423809D01*
X140472095Y-112280952D01*
X140519714Y-112090476D01*
X140567333Y-111995238D01*
X140662571Y-111900000D01*
X140805428Y-111852380D01*
X140900666Y-111852380D01*
X141043523Y-111900000D01*
X141091142Y-111947619D01*
X142043523Y-112852380D02*
X141472095Y-112852380D01*
X141757809Y-112852380D02*
X141757809Y-111852380D01*
X141662571Y-111995238D01*
X141567333Y-112090476D01*
X141472095Y-112138095D01*
X142614952Y-112280952D02*
X142519714Y-112233333D01*
X142472095Y-112185714D01*
X142424476Y-112090476D01*
X142424476Y-112042857D01*
X142472095Y-111947619D01*
X142519714Y-111900000D01*
X142614952Y-111852380D01*
X142805428Y-111852380D01*
X142900666Y-111900000D01*
X142948285Y-111947619D01*
X142995904Y-112042857D01*
X142995904Y-112090476D01*
X142948285Y-112185714D01*
X142900666Y-112233333D01*
X142805428Y-112280952D01*
X142614952Y-112280952D01*
X142519714Y-112328571D01*
X142472095Y-112376190D01*
X142424476Y-112471428D01*
X142424476Y-112661904D01*
X142472095Y-112757142D01*
X142519714Y-112804761D01*
X142614952Y-112852380D01*
X142805428Y-112852380D01*
X142900666Y-112804761D01*
X142948285Y-112757142D01*
X142995904Y-112661904D01*
X142995904Y-112471428D01*
X142948285Y-112376190D01*
X142900666Y-112328571D01*
X142805428Y-112280952D01*
X141591142Y-123452380D02*
X141257809Y-122976190D01*
X141019714Y-123452380D02*
X141019714Y-122452380D01*
X141400666Y-122452380D01*
X141495904Y-122500000D01*
X141543523Y-122547619D01*
X141591142Y-122642857D01*
X141591142Y-122785714D01*
X141543523Y-122880952D01*
X141495904Y-122928571D01*
X141400666Y-122976190D01*
X141019714Y-122976190D01*
X142543523Y-123452380D02*
X141972095Y-123452380D01*
X142257809Y-123452380D02*
X142257809Y-122452380D01*
X142162571Y-122595238D01*
X142067333Y-122690476D01*
X141972095Y-122738095D01*
X143162571Y-122452380D02*
X143257809Y-122452380D01*
X143353047Y-122500000D01*
X143400666Y-122547619D01*
X143448285Y-122642857D01*
X143495904Y-122833333D01*
X143495904Y-123071428D01*
X143448285Y-123261904D01*
X143400666Y-123357142D01*
X143353047Y-123404761D01*
X143257809Y-123452380D01*
X143162571Y-123452380D01*
X143067333Y-123404761D01*
X143019714Y-123357142D01*
X142972095Y-123261904D01*
X142924476Y-123071428D01*
X142924476Y-122833333D01*
X142972095Y-122642857D01*
X143019714Y-122547619D01*
X143067333Y-122500000D01*
X143162571Y-122452380D01*
X171091142Y-82152380D02*
X170757809Y-81676190D01*
X170519714Y-82152380D02*
X170519714Y-81152380D01*
X170900666Y-81152380D01*
X170995904Y-81200000D01*
X171043523Y-81247619D01*
X171091142Y-81342857D01*
X171091142Y-81485714D01*
X171043523Y-81580952D01*
X170995904Y-81628571D01*
X170900666Y-81676190D01*
X170519714Y-81676190D01*
X171472095Y-81247619D02*
X171519714Y-81200000D01*
X171614952Y-81152380D01*
X171853047Y-81152380D01*
X171948285Y-81200000D01*
X171995904Y-81247619D01*
X172043523Y-81342857D01*
X172043523Y-81438095D01*
X171995904Y-81580952D01*
X171424476Y-82152380D01*
X172043523Y-82152380D01*
X172376857Y-81152380D02*
X172995904Y-81152380D01*
X172662571Y-81533333D01*
X172805428Y-81533333D01*
X172900666Y-81580952D01*
X172948285Y-81628571D01*
X172995904Y-81723809D01*
X172995904Y-81961904D01*
X172948285Y-82057142D01*
X172900666Y-82104761D01*
X172805428Y-82152380D01*
X172519714Y-82152380D01*
X172424476Y-82104761D01*
X172376857Y-82057142D01*
X109497904Y-73906380D02*
X109497904Y-72906380D01*
X109878857Y-72906380D01*
X109974095Y-72954000D01*
X110021714Y-73001619D01*
X110069333Y-73096857D01*
X110069333Y-73239714D01*
X110021714Y-73334952D01*
X109974095Y-73382571D01*
X109878857Y-73430190D01*
X109497904Y-73430190D01*
X110545523Y-73906380D02*
X110736000Y-73906380D01*
X110831238Y-73858761D01*
X110878857Y-73811142D01*
X110974095Y-73668285D01*
X111021714Y-73477809D01*
X111021714Y-73096857D01*
X110974095Y-73001619D01*
X110926476Y-72954000D01*
X110831238Y-72906380D01*
X110640761Y-72906380D01*
X110545523Y-72954000D01*
X110497904Y-73001619D01*
X110450285Y-73096857D01*
X110450285Y-73334952D01*
X110497904Y-73430190D01*
X110545523Y-73477809D01*
X110640761Y-73525428D01*
X110831238Y-73525428D01*
X110926476Y-73477809D01*
X110974095Y-73430190D01*
X111021714Y-73334952D01*
X107719714Y-66352380D02*
X107719714Y-65352380D01*
X108053047Y-66066666D01*
X108386380Y-65352380D01*
X108386380Y-66352380D01*
X108719714Y-65352380D02*
X109291142Y-65352380D01*
X109005428Y-66352380D02*
X109005428Y-65352380D01*
X110148285Y-65400000D02*
X110053047Y-65352380D01*
X109910190Y-65352380D01*
X109767333Y-65400000D01*
X109672095Y-65495238D01*
X109624476Y-65590476D01*
X109576857Y-65780952D01*
X109576857Y-65923809D01*
X109624476Y-66114285D01*
X109672095Y-66209523D01*
X109767333Y-66304761D01*
X109910190Y-66352380D01*
X110005428Y-66352380D01*
X110148285Y-66304761D01*
X110195904Y-66257142D01*
X110195904Y-65923809D01*
X110005428Y-65923809D01*
X189539714Y-124531380D02*
X189539714Y-123531380D01*
X189873047Y-124245666D01*
X190206380Y-123531380D01*
X190206380Y-124531380D01*
X190539714Y-123531380D02*
X191111142Y-123531380D01*
X190825428Y-124531380D02*
X190825428Y-123531380D01*
X191968285Y-123579000D02*
X191873047Y-123531380D01*
X191730190Y-123531380D01*
X191587333Y-123579000D01*
X191492095Y-123674238D01*
X191444476Y-123769476D01*
X191396857Y-123959952D01*
X191396857Y-124102809D01*
X191444476Y-124293285D01*
X191492095Y-124388523D01*
X191587333Y-124483761D01*
X191730190Y-124531380D01*
X191825428Y-124531380D01*
X191968285Y-124483761D01*
X192015904Y-124436142D01*
X192015904Y-124102809D01*
X191825428Y-124102809D01*
X150036380Y-80088095D02*
X149036380Y-80088095D01*
X149036380Y-79850000D01*
X149084000Y-79707142D01*
X149179238Y-79611904D01*
X149274476Y-79564285D01*
X149464952Y-79516666D01*
X149607809Y-79516666D01*
X149798285Y-79564285D01*
X149893523Y-79611904D01*
X149988761Y-79707142D01*
X150036380Y-79850000D01*
X150036380Y-80088095D01*
X150036380Y-78564285D02*
X150036380Y-79135714D01*
X150036380Y-78850000D02*
X149036380Y-78850000D01*
X149179238Y-78945238D01*
X149274476Y-79040476D01*
X149322095Y-79135714D01*
X144995904Y-114902380D02*
X144995904Y-113902380D01*
X145234000Y-113902380D01*
X145376857Y-113950000D01*
X145472095Y-114045238D01*
X145519714Y-114140476D01*
X145567333Y-114330952D01*
X145567333Y-114473809D01*
X145519714Y-114664285D01*
X145472095Y-114759523D01*
X145376857Y-114854761D01*
X145234000Y-114902380D01*
X144995904Y-114902380D01*
X146424476Y-113902380D02*
X146234000Y-113902380D01*
X146138761Y-113950000D01*
X146091142Y-113997619D01*
X145995904Y-114140476D01*
X145948285Y-114330952D01*
X145948285Y-114711904D01*
X145995904Y-114807142D01*
X146043523Y-114854761D01*
X146138761Y-114902380D01*
X146329238Y-114902380D01*
X146424476Y-114854761D01*
X146472095Y-114807142D01*
X146519714Y-114711904D01*
X146519714Y-114473809D01*
X146472095Y-114378571D01*
X146424476Y-114330952D01*
X146329238Y-114283333D01*
X146138761Y-114283333D01*
X146043523Y-114330952D01*
X145995904Y-114378571D01*
X145948285Y-114473809D01*
X121619714Y-67652380D02*
X121619714Y-66652380D01*
X122000666Y-66652380D01*
X122095904Y-66700000D01*
X122143523Y-66747619D01*
X122191142Y-66842857D01*
X122191142Y-66985714D01*
X122143523Y-67080952D01*
X122095904Y-67128571D01*
X122000666Y-67176190D01*
X121619714Y-67176190D01*
X123143523Y-67652380D02*
X122572095Y-67652380D01*
X122857809Y-67652380D02*
X122857809Y-66652380D01*
X122762571Y-66795238D01*
X122667333Y-66890476D01*
X122572095Y-66938095D01*
X124095904Y-67652380D02*
X123524476Y-67652380D01*
X123810190Y-67652380D02*
X123810190Y-66652380D01*
X123714952Y-66795238D01*
X123619714Y-66890476D01*
X123524476Y-66938095D01*
X172345904Y-65652380D02*
X172345904Y-64652380D01*
X172726857Y-64652380D01*
X172822095Y-64700000D01*
X172869714Y-64747619D01*
X172917333Y-64842857D01*
X172917333Y-64985714D01*
X172869714Y-65080952D01*
X172822095Y-65128571D01*
X172726857Y-65176190D01*
X172345904Y-65176190D01*
X173250666Y-64652380D02*
X173917333Y-64652380D01*
X173488761Y-65652380D01*
X189536380Y-75938095D02*
X188536380Y-75938095D01*
X188536380Y-75557142D01*
X188584000Y-75461904D01*
X188631619Y-75414285D01*
X188726857Y-75366666D01*
X188869714Y-75366666D01*
X188964952Y-75414285D01*
X189012571Y-75461904D01*
X189060190Y-75557142D01*
X189060190Y-75938095D01*
X188964952Y-74795238D02*
X188917333Y-74890476D01*
X188869714Y-74938095D01*
X188774476Y-74985714D01*
X188726857Y-74985714D01*
X188631619Y-74938095D01*
X188584000Y-74890476D01*
X188536380Y-74795238D01*
X188536380Y-74604761D01*
X188584000Y-74509523D01*
X188631619Y-74461904D01*
X188726857Y-74414285D01*
X188774476Y-74414285D01*
X188869714Y-74461904D01*
X188917333Y-74509523D01*
X188964952Y-74604761D01*
X188964952Y-74795238D01*
X189012571Y-74890476D01*
X189060190Y-74938095D01*
X189155428Y-74985714D01*
X189345904Y-74985714D01*
X189441142Y-74938095D01*
X189488761Y-74890476D01*
X189536380Y-74795238D01*
X189536380Y-74604761D01*
X189488761Y-74509523D01*
X189441142Y-74461904D01*
X189345904Y-74414285D01*
X189155428Y-74414285D01*
X189060190Y-74461904D01*
X189012571Y-74509523D01*
X188964952Y-74604761D01*
X154595904Y-121152380D02*
X154595904Y-120152380D01*
X154976857Y-120152380D01*
X155072095Y-120200000D01*
X155119714Y-120247619D01*
X155167333Y-120342857D01*
X155167333Y-120485714D01*
X155119714Y-120580952D01*
X155072095Y-120628571D01*
X154976857Y-120676190D01*
X154595904Y-120676190D01*
X155500666Y-120152380D02*
X156119714Y-120152380D01*
X155786380Y-120533333D01*
X155929238Y-120533333D01*
X156024476Y-120580952D01*
X156072095Y-120628571D01*
X156119714Y-120723809D01*
X156119714Y-120961904D01*
X156072095Y-121057142D01*
X156024476Y-121104761D01*
X155929238Y-121152380D01*
X155643523Y-121152380D01*
X155548285Y-121104761D01*
X155500666Y-121057142D01*
M02*
