G04 #@! TF.FileFunction,Legend,Top*
%FSLAX46Y46*%
G04 Gerber Fmt 4.6, Leading zero omitted, Abs format (unit mm)*
G04 Created by KiCad (PCBNEW 4.0.5+dfsg1-4) date Wed Feb  8 16:57:30 2017*
%MOMM*%
%LPD*%
G01*
G04 APERTURE LIST*
%ADD10C,0.100000*%
%ADD11C,0.300000*%
%ADD12C,0.150000*%
%ADD13C,0.254000*%
%ADD14C,0.062500*%
%ADD15C,0.203200*%
G04 APERTURE END LIST*
D10*
D11*
X99034571Y-99736713D02*
X99034571Y-100450999D01*
X97534571Y-100450999D01*
X97534571Y-99450999D02*
X97534571Y-98593856D01*
X99034571Y-99022427D02*
X97534571Y-99022427D01*
X98891714Y-97236713D02*
X98963143Y-97308142D01*
X99034571Y-97522428D01*
X99034571Y-97665285D01*
X98963143Y-97879570D01*
X98820286Y-98022428D01*
X98677429Y-98093856D01*
X98391714Y-98165285D01*
X98177429Y-98165285D01*
X97891714Y-98093856D01*
X97748857Y-98022428D01*
X97606000Y-97879570D01*
X97534571Y-97665285D01*
X97534571Y-97522428D01*
X97606000Y-97308142D01*
X97677429Y-97236713D01*
X97534571Y-96736713D02*
X97534571Y-95808142D01*
X98106000Y-96308142D01*
X98106000Y-96093856D01*
X98177429Y-95950999D01*
X98248857Y-95879570D01*
X98391714Y-95808142D01*
X98748857Y-95808142D01*
X98891714Y-95879570D01*
X98963143Y-95950999D01*
X99034571Y-96093856D01*
X99034571Y-96522428D01*
X98963143Y-96665285D01*
X98891714Y-96736713D01*
X98891714Y-95165285D02*
X98963143Y-95093857D01*
X99034571Y-95165285D01*
X98963143Y-95236714D01*
X98891714Y-95165285D01*
X99034571Y-95165285D01*
X98106000Y-95165285D02*
X98177429Y-95093857D01*
X98248857Y-95165285D01*
X98177429Y-95236714D01*
X98106000Y-95165285D01*
X98248857Y-95165285D01*
X98891714Y-92450999D02*
X98963143Y-92522428D01*
X99034571Y-92736714D01*
X99034571Y-92879571D01*
X98963143Y-93093856D01*
X98820286Y-93236714D01*
X98677429Y-93308142D01*
X98391714Y-93379571D01*
X98177429Y-93379571D01*
X97891714Y-93308142D01*
X97748857Y-93236714D01*
X97606000Y-93093856D01*
X97534571Y-92879571D01*
X97534571Y-92736714D01*
X97606000Y-92522428D01*
X97677429Y-92450999D01*
X99034571Y-91808142D02*
X97534571Y-91808142D01*
X99034571Y-91165285D02*
X98248857Y-91165285D01*
X98106000Y-91236714D01*
X98034571Y-91379571D01*
X98034571Y-91593856D01*
X98106000Y-91736714D01*
X98177429Y-91808142D01*
X99034571Y-89808142D02*
X98248857Y-89808142D01*
X98106000Y-89879571D01*
X98034571Y-90022428D01*
X98034571Y-90308142D01*
X98106000Y-90450999D01*
X98963143Y-89808142D02*
X99034571Y-89950999D01*
X99034571Y-90308142D01*
X98963143Y-90450999D01*
X98820286Y-90522428D01*
X98677429Y-90522428D01*
X98534571Y-90450999D01*
X98463143Y-90308142D01*
X98463143Y-89950999D01*
X98391714Y-89808142D01*
X99034571Y-89093856D02*
X98034571Y-89093856D01*
X98320286Y-89093856D02*
X98177429Y-89022428D01*
X98106000Y-88950999D01*
X98034571Y-88808142D01*
X98034571Y-88665285D01*
X98034571Y-87522428D02*
X99248857Y-87522428D01*
X99391714Y-87593857D01*
X99463143Y-87665285D01*
X99534571Y-87808142D01*
X99534571Y-88022428D01*
X99463143Y-88165285D01*
X98963143Y-87522428D02*
X99034571Y-87665285D01*
X99034571Y-87950999D01*
X98963143Y-88093857D01*
X98891714Y-88165285D01*
X98748857Y-88236714D01*
X98320286Y-88236714D01*
X98177429Y-88165285D01*
X98106000Y-88093857D01*
X98034571Y-87950999D01*
X98034571Y-87665285D01*
X98106000Y-87522428D01*
X98963143Y-86236714D02*
X99034571Y-86379571D01*
X99034571Y-86665285D01*
X98963143Y-86808142D01*
X98820286Y-86879571D01*
X98248857Y-86879571D01*
X98106000Y-86808142D01*
X98034571Y-86665285D01*
X98034571Y-86379571D01*
X98106000Y-86236714D01*
X98248857Y-86165285D01*
X98391714Y-86165285D01*
X98534571Y-86879571D01*
X98891714Y-83522428D02*
X98963143Y-83593857D01*
X99034571Y-83808143D01*
X99034571Y-83951000D01*
X98963143Y-84165285D01*
X98820286Y-84308143D01*
X98677429Y-84379571D01*
X98391714Y-84451000D01*
X98177429Y-84451000D01*
X97891714Y-84379571D01*
X97748857Y-84308143D01*
X97606000Y-84165285D01*
X97534571Y-83951000D01*
X97534571Y-83808143D01*
X97606000Y-83593857D01*
X97677429Y-83522428D01*
X99034571Y-82665285D02*
X98963143Y-82808143D01*
X98891714Y-82879571D01*
X98748857Y-82951000D01*
X98320286Y-82951000D01*
X98177429Y-82879571D01*
X98106000Y-82808143D01*
X98034571Y-82665285D01*
X98034571Y-82451000D01*
X98106000Y-82308143D01*
X98177429Y-82236714D01*
X98320286Y-82165285D01*
X98748857Y-82165285D01*
X98891714Y-82236714D01*
X98963143Y-82308143D01*
X99034571Y-82451000D01*
X99034571Y-82665285D01*
X98034571Y-81522428D02*
X99034571Y-81522428D01*
X98177429Y-81522428D02*
X98106000Y-81451000D01*
X98034571Y-81308142D01*
X98034571Y-81093857D01*
X98106000Y-80951000D01*
X98248857Y-80879571D01*
X99034571Y-80879571D01*
X98034571Y-80379571D02*
X98034571Y-79808142D01*
X97534571Y-80165285D02*
X98820286Y-80165285D01*
X98963143Y-80093857D01*
X99034571Y-79950999D01*
X99034571Y-79808142D01*
X99034571Y-79308142D02*
X98034571Y-79308142D01*
X98320286Y-79308142D02*
X98177429Y-79236714D01*
X98106000Y-79165285D01*
X98034571Y-79022428D01*
X98034571Y-78879571D01*
X99034571Y-78165285D02*
X98963143Y-78308143D01*
X98891714Y-78379571D01*
X98748857Y-78451000D01*
X98320286Y-78451000D01*
X98177429Y-78379571D01*
X98106000Y-78308143D01*
X98034571Y-78165285D01*
X98034571Y-77951000D01*
X98106000Y-77808143D01*
X98177429Y-77736714D01*
X98320286Y-77665285D01*
X98748857Y-77665285D01*
X98891714Y-77736714D01*
X98963143Y-77808143D01*
X99034571Y-77951000D01*
X99034571Y-78165285D01*
X99034571Y-76808142D02*
X98963143Y-76951000D01*
X98820286Y-77022428D01*
X97534571Y-77022428D01*
X99034571Y-76022428D02*
X98963143Y-76165286D01*
X98820286Y-76236714D01*
X97534571Y-76236714D01*
X98963143Y-74879572D02*
X99034571Y-75022429D01*
X99034571Y-75308143D01*
X98963143Y-75451000D01*
X98820286Y-75522429D01*
X98248857Y-75522429D01*
X98106000Y-75451000D01*
X98034571Y-75308143D01*
X98034571Y-75022429D01*
X98106000Y-74879572D01*
X98248857Y-74808143D01*
X98391714Y-74808143D01*
X98534571Y-75522429D01*
X99034571Y-74165286D02*
X98034571Y-74165286D01*
X98320286Y-74165286D02*
X98177429Y-74093858D01*
X98106000Y-74022429D01*
X98034571Y-73879572D01*
X98034571Y-73736715D01*
X101584571Y-93343856D02*
X101584571Y-93058141D01*
X101513143Y-92915284D01*
X101441714Y-92843856D01*
X101227429Y-92700998D01*
X100941714Y-92629570D01*
X100370286Y-92629570D01*
X100227429Y-92700998D01*
X100156000Y-92772427D01*
X100084571Y-92915284D01*
X100084571Y-93200998D01*
X100156000Y-93343856D01*
X100227429Y-93415284D01*
X100370286Y-93486713D01*
X100727429Y-93486713D01*
X100870286Y-93415284D01*
X100941714Y-93343856D01*
X101013143Y-93200998D01*
X101013143Y-92915284D01*
X100941714Y-92772427D01*
X100870286Y-92700998D01*
X100727429Y-92629570D01*
X100013143Y-90915285D02*
X101941714Y-92200999D01*
X101584571Y-89629570D02*
X101584571Y-90486713D01*
X101584571Y-90058141D02*
X100084571Y-90058141D01*
X100298857Y-90200998D01*
X100441714Y-90343856D01*
X100513143Y-90486713D01*
X100227429Y-89058142D02*
X100156000Y-88986713D01*
X100084571Y-88843856D01*
X100084571Y-88486713D01*
X100156000Y-88343856D01*
X100227429Y-88272427D01*
X100370286Y-88200999D01*
X100513143Y-88200999D01*
X100727429Y-88272427D01*
X101584571Y-89129570D01*
X101584571Y-88200999D01*
X100013143Y-86486714D02*
X101941714Y-87772428D01*
X100227429Y-86058142D02*
X100156000Y-85986713D01*
X100084571Y-85843856D01*
X100084571Y-85486713D01*
X100156000Y-85343856D01*
X100227429Y-85272427D01*
X100370286Y-85200999D01*
X100513143Y-85200999D01*
X100727429Y-85272427D01*
X101584571Y-86129570D01*
X101584571Y-85200999D01*
X100084571Y-84272428D02*
X100084571Y-84129571D01*
X100156000Y-83986714D01*
X100227429Y-83915285D01*
X100370286Y-83843856D01*
X100656000Y-83772428D01*
X101013143Y-83772428D01*
X101298857Y-83843856D01*
X101441714Y-83915285D01*
X101513143Y-83986714D01*
X101584571Y-84129571D01*
X101584571Y-84272428D01*
X101513143Y-84415285D01*
X101441714Y-84486714D01*
X101298857Y-84558142D01*
X101013143Y-84629571D01*
X100656000Y-84629571D01*
X100370286Y-84558142D01*
X100227429Y-84486714D01*
X100156000Y-84415285D01*
X100084571Y-84272428D01*
X101584571Y-82343857D02*
X101584571Y-83201000D01*
X101584571Y-82772428D02*
X100084571Y-82772428D01*
X100298857Y-82915285D01*
X100441714Y-83058143D01*
X100513143Y-83201000D01*
X100084571Y-81058143D02*
X100084571Y-81343857D01*
X100156000Y-81486714D01*
X100227429Y-81558143D01*
X100441714Y-81701000D01*
X100727429Y-81772429D01*
X101298857Y-81772429D01*
X101441714Y-81701000D01*
X101513143Y-81629572D01*
X101584571Y-81486714D01*
X101584571Y-81201000D01*
X101513143Y-81058143D01*
X101441714Y-80986714D01*
X101298857Y-80915286D01*
X100941714Y-80915286D01*
X100798857Y-80986714D01*
X100727429Y-81058143D01*
X100656000Y-81201000D01*
X100656000Y-81486714D01*
X100727429Y-81629572D01*
X100798857Y-81701000D01*
X100941714Y-81772429D01*
X104134571Y-90665285D02*
X103420286Y-91165285D01*
X104134571Y-91522428D02*
X102634571Y-91522428D01*
X102634571Y-90951000D01*
X102706000Y-90808142D01*
X102777429Y-90736714D01*
X102920286Y-90665285D01*
X103134571Y-90665285D01*
X103277429Y-90736714D01*
X103348857Y-90808142D01*
X103420286Y-90951000D01*
X103420286Y-91522428D01*
X104063143Y-89451000D02*
X104134571Y-89593857D01*
X104134571Y-89879571D01*
X104063143Y-90022428D01*
X103920286Y-90093857D01*
X103348857Y-90093857D01*
X103206000Y-90022428D01*
X103134571Y-89879571D01*
X103134571Y-89593857D01*
X103206000Y-89451000D01*
X103348857Y-89379571D01*
X103491714Y-89379571D01*
X103634571Y-90093857D01*
X103134571Y-88879571D02*
X104134571Y-88522428D01*
X103134571Y-88165286D01*
X103991714Y-87593857D02*
X104063143Y-87522429D01*
X104134571Y-87593857D01*
X104063143Y-87665286D01*
X103991714Y-87593857D01*
X104134571Y-87593857D01*
X104134571Y-84951000D02*
X104134571Y-85808143D01*
X104134571Y-85379571D02*
X102634571Y-85379571D01*
X102848857Y-85522428D01*
X102991714Y-85665286D01*
X103063143Y-85808143D01*
X103991714Y-84308143D02*
X104063143Y-84236715D01*
X104134571Y-84308143D01*
X104063143Y-84379572D01*
X103991714Y-84308143D01*
X104134571Y-84308143D01*
X102634571Y-83308143D02*
X102634571Y-83165286D01*
X102706000Y-83022429D01*
X102777429Y-82951000D01*
X102920286Y-82879571D01*
X103206000Y-82808143D01*
X103563143Y-82808143D01*
X103848857Y-82879571D01*
X103991714Y-82951000D01*
X104063143Y-83022429D01*
X104134571Y-83165286D01*
X104134571Y-83308143D01*
X104063143Y-83451000D01*
X103991714Y-83522429D01*
X103848857Y-83593857D01*
X103563143Y-83665286D01*
X103206000Y-83665286D01*
X102920286Y-83593857D01*
X102777429Y-83522429D01*
X102706000Y-83451000D01*
X102634571Y-83308143D01*
D12*
X176762000Y-84742000D02*
X180962000Y-84742000D01*
X180962000Y-84742000D02*
X180962000Y-71842000D01*
X180962000Y-71842000D02*
X176762000Y-71842000D01*
X176762000Y-71842000D02*
X176762000Y-84742000D01*
X178562000Y-84742000D02*
X178562000Y-84242000D01*
X178562000Y-84242000D02*
X177262000Y-84242000D01*
X177262000Y-84242000D02*
X177262000Y-72342000D01*
X177262000Y-72342000D02*
X178562000Y-72342000D01*
X178562000Y-72342000D02*
X178562000Y-71842000D01*
X179462000Y-84742000D02*
X179462000Y-83742000D01*
X179462000Y-83742000D02*
X180962000Y-83742000D01*
X179462000Y-71842000D02*
X179462000Y-72842000D01*
X179462000Y-72842000D02*
X180962000Y-72842000D01*
X181312000Y-82042000D02*
X181912000Y-82342000D01*
X181912000Y-82342000D02*
X181912000Y-81742000D01*
X181912000Y-81742000D02*
X181312000Y-82042000D01*
X123862000Y-142078000D02*
X104050000Y-142078000D01*
X123862000Y-135347000D02*
X123862000Y-142078000D01*
X104050000Y-135347000D02*
X123862000Y-135347000D01*
X104050000Y-142078000D02*
X104050000Y-135347000D01*
X173631000Y-140526000D02*
X173631000Y-128026000D01*
X173491000Y-140522000D02*
X173491000Y-128030000D01*
X173351000Y-140516000D02*
X173351000Y-128036000D01*
X173211000Y-140506000D02*
X173211000Y-128046000D01*
X173071000Y-140494000D02*
X173071000Y-128058000D01*
X172931000Y-140478000D02*
X172931000Y-128074000D01*
X172791000Y-140459000D02*
X172791000Y-128093000D01*
X172651000Y-140436000D02*
X172651000Y-128116000D01*
X172511000Y-140411000D02*
X172511000Y-128141000D01*
X172371000Y-140382000D02*
X172371000Y-128170000D01*
X172231000Y-140349000D02*
X172231000Y-134797000D01*
X172231000Y-133755000D02*
X172231000Y-128203000D01*
X172091000Y-140314000D02*
X172091000Y-135010000D01*
X172091000Y-133542000D02*
X172091000Y-128238000D01*
X171951000Y-140275000D02*
X171951000Y-135152000D01*
X171951000Y-133400000D02*
X171951000Y-128277000D01*
X171811000Y-140232000D02*
X171811000Y-135254000D01*
X171811000Y-133298000D02*
X171811000Y-128320000D01*
X171671000Y-140185000D02*
X171671000Y-135328000D01*
X171671000Y-133224000D02*
X171671000Y-128367000D01*
X171531000Y-140135000D02*
X171531000Y-135379000D01*
X171531000Y-133173000D02*
X171531000Y-128417000D01*
X171391000Y-140081000D02*
X171391000Y-135411000D01*
X171391000Y-133141000D02*
X171391000Y-128471000D01*
X171251000Y-140024000D02*
X171251000Y-135425000D01*
X171251000Y-133127000D02*
X171251000Y-128528000D01*
X171111000Y-139962000D02*
X171111000Y-135422000D01*
X171111000Y-133130000D02*
X171111000Y-128590000D01*
X170971000Y-139896000D02*
X170971000Y-135402000D01*
X170971000Y-133150000D02*
X170971000Y-128656000D01*
X170831000Y-139825000D02*
X170831000Y-135363000D01*
X170831000Y-133189000D02*
X170831000Y-128727000D01*
X170691000Y-139751000D02*
X170691000Y-135304000D01*
X170691000Y-133248000D02*
X170691000Y-128801000D01*
X170551000Y-139671000D02*
X170551000Y-135221000D01*
X170551000Y-133331000D02*
X170551000Y-128881000D01*
X170411000Y-139587000D02*
X170411000Y-135107000D01*
X170411000Y-133445000D02*
X170411000Y-128965000D01*
X170271000Y-139497000D02*
X170271000Y-134946000D01*
X170271000Y-133606000D02*
X170271000Y-129055000D01*
X170131000Y-139403000D02*
X170131000Y-134685000D01*
X170131000Y-133867000D02*
X170131000Y-129149000D01*
X169991000Y-139302000D02*
X169991000Y-129250000D01*
X169851000Y-139195000D02*
X169851000Y-129357000D01*
X169711000Y-139083000D02*
X169711000Y-129469000D01*
X169571000Y-138963000D02*
X169571000Y-129589000D01*
X169431000Y-138835000D02*
X169431000Y-129717000D01*
X169291000Y-138700000D02*
X169291000Y-129852000D01*
X169151000Y-138556000D02*
X169151000Y-129996000D01*
X169011000Y-138401000D02*
X169011000Y-130151000D01*
X168871000Y-138236000D02*
X168871000Y-130316000D01*
X168731000Y-138059000D02*
X168731000Y-130493000D01*
X168591000Y-137868000D02*
X168591000Y-130684000D01*
X168451000Y-137659000D02*
X168451000Y-130893000D01*
X168311000Y-137431000D02*
X168311000Y-131121000D01*
X168171000Y-137179000D02*
X168171000Y-131373000D01*
X168031000Y-136895000D02*
X168031000Y-131657000D01*
X167891000Y-136567000D02*
X167891000Y-131985000D01*
X167751000Y-136173000D02*
X167751000Y-132379000D01*
X167611000Y-135659000D02*
X167611000Y-132893000D01*
X167471000Y-134709000D02*
X167471000Y-133843000D01*
X172356000Y-134276000D02*
G75*
G03X172356000Y-134276000I-1150000J0D01*
G01*
X179993500Y-134276000D02*
G75*
G03X179993500Y-134276000I-6287500J0D01*
G01*
X115404000Y-92702000D02*
X115404000Y-91702000D01*
X113704000Y-91702000D02*
X113704000Y-92702000D01*
X129501000Y-96893000D02*
X129501000Y-95893000D01*
X127801000Y-95893000D02*
X127801000Y-96893000D01*
X137050400Y-90945600D02*
X136050400Y-90945600D01*
X136050400Y-92645600D02*
X137050400Y-92645600D01*
X137025000Y-93511000D02*
X136025000Y-93511000D01*
X136025000Y-95211000D02*
X137025000Y-95211000D01*
X144311000Y-66556000D02*
X144311000Y-67556000D01*
X146011000Y-67556000D02*
X146011000Y-66556000D01*
X126072000Y-91940000D02*
X126072000Y-90940000D01*
X124372000Y-90940000D02*
X124372000Y-91940000D01*
X147582000Y-92544000D02*
X148582000Y-92544000D01*
X148582000Y-90844000D02*
X147582000Y-90844000D01*
X153678000Y-92544000D02*
X154678000Y-92544000D01*
X154678000Y-90844000D02*
X153678000Y-90844000D01*
X130214000Y-88019000D02*
X130214000Y-89019000D01*
X131914000Y-89019000D02*
X131914000Y-88019000D01*
X126072000Y-96893000D02*
X126072000Y-95893000D01*
X124372000Y-95893000D02*
X124372000Y-96893000D01*
X157060000Y-78732000D02*
X157060000Y-77732000D01*
X155360000Y-77732000D02*
X155360000Y-78732000D01*
X138088000Y-66175000D02*
X138088000Y-67175000D01*
X139788000Y-67175000D02*
X139788000Y-66175000D01*
X119722000Y-85590000D02*
X119722000Y-84590000D01*
X118022000Y-84590000D02*
X118022000Y-85590000D01*
X118626000Y-73875000D02*
X119626000Y-73875000D01*
X119626000Y-72175000D02*
X118626000Y-72175000D01*
X127420000Y-72017000D02*
X127420000Y-73017000D01*
X129120000Y-73017000D02*
X129120000Y-72017000D01*
X125134000Y-72017000D02*
X125134000Y-73017000D01*
X126834000Y-73017000D02*
X126834000Y-72017000D01*
X149487000Y-67525000D02*
X150487000Y-67525000D01*
X150487000Y-65825000D02*
X149487000Y-65825000D01*
X114181000Y-97370000D02*
X115181000Y-97370000D01*
X115181000Y-95670000D02*
X114181000Y-95670000D01*
X166256000Y-101226000D02*
X165256000Y-101226000D01*
X165256000Y-102926000D02*
X166256000Y-102926000D01*
X159606000Y-82976000D02*
X159606000Y-81976000D01*
X157906000Y-81976000D02*
X157906000Y-82976000D01*
X155406000Y-81976000D02*
X155406000Y-82976000D01*
X157106000Y-82976000D02*
X157106000Y-81976000D01*
X167425000Y-89416000D02*
X167425000Y-90416000D01*
X169125000Y-90416000D02*
X169125000Y-89416000D01*
X148399500Y-88138000D02*
X148780500Y-88138000D01*
X147383500Y-88138000D02*
X147764500Y-88138000D01*
X147764500Y-88138000D02*
X148399500Y-87757000D01*
X148399500Y-87757000D02*
X148399500Y-88519000D01*
X148399500Y-88519000D02*
X147764500Y-88138000D01*
X147764500Y-87630000D02*
X147764500Y-88646000D01*
X146082000Y-89038000D02*
X149622000Y-89038000D01*
X146082000Y-87238000D02*
X149622000Y-87238000D01*
X153860500Y-88138000D02*
X153479500Y-88138000D01*
X154876500Y-88138000D02*
X154495500Y-88138000D01*
X154495500Y-88138000D02*
X153860500Y-88519000D01*
X153860500Y-88519000D02*
X153860500Y-87757000D01*
X153860500Y-87757000D02*
X154495500Y-88138000D01*
X154495500Y-88646000D02*
X154495500Y-87630000D01*
X156178000Y-87238000D02*
X152638000Y-87238000D01*
X156178000Y-89038000D02*
X152638000Y-89038000D01*
X137170000Y-140692000D02*
X135270000Y-140692000D01*
X135270000Y-140692000D02*
X135070000Y-140492000D01*
X137370000Y-140492000D02*
X137170000Y-140692000D01*
X137370000Y-137892000D02*
X137170000Y-137692000D01*
X137170000Y-137692000D02*
X135270000Y-137692000D01*
X135270000Y-137692000D02*
X135070000Y-137892000D01*
X142621000Y-113411000D02*
G75*
G03X142621000Y-113411000I-127000J0D01*
G01*
X143129000Y-114046000D02*
X143129000Y-108966000D01*
X139827000Y-114046000D02*
X139827000Y-108966000D01*
X143637000Y-114046000D02*
X143637000Y-108966000D01*
X143637000Y-114046000D02*
X139827000Y-114046000D01*
X143637000Y-108966000D02*
X139827000Y-108966000D01*
X148209000Y-108585000D02*
G75*
G03X148209000Y-108585000I-127000J0D01*
G01*
X148717000Y-109220000D02*
X148717000Y-104140000D01*
X145415000Y-109220000D02*
X145415000Y-104140000D01*
X149225000Y-109220000D02*
X149225000Y-104140000D01*
X149225000Y-109220000D02*
X145415000Y-109220000D01*
X149225000Y-104140000D02*
X145415000Y-104140000D01*
X161925000Y-109601000D02*
G75*
G03X161925000Y-109601000I-127000J0D01*
G01*
X161163000Y-108966000D02*
X161163000Y-114046000D01*
X164465000Y-108966000D02*
X164465000Y-114046000D01*
X160655000Y-108966000D02*
X160655000Y-114046000D01*
X160655000Y-108966000D02*
X164465000Y-108966000D01*
X160655000Y-114046000D02*
X164465000Y-114046000D01*
X156337000Y-104648000D02*
G75*
G03X156337000Y-104648000I-127000J0D01*
G01*
X155575000Y-104013000D02*
X155575000Y-109093000D01*
X158877000Y-104013000D02*
X158877000Y-109093000D01*
X155067000Y-104013000D02*
X155067000Y-109093000D01*
X155067000Y-104013000D02*
X158877000Y-104013000D01*
X155067000Y-109093000D02*
X158877000Y-109093000D01*
X165383160Y-89265760D02*
X165334900Y-89265760D01*
X162584180Y-89966800D02*
X162584180Y-89265760D01*
X162584180Y-89265760D02*
X162833100Y-89265760D01*
X165383160Y-89265760D02*
X165583820Y-89265760D01*
X165583820Y-89265760D02*
X165583820Y-89966800D01*
X121525000Y-78140000D02*
X121525000Y-79340000D01*
X119775000Y-79340000D02*
X119775000Y-78140000D01*
X117489000Y-79340000D02*
X117489000Y-78140000D01*
X119239000Y-78140000D02*
X119239000Y-79340000D01*
X129045000Y-139792000D02*
X129045000Y-138592000D01*
X130795000Y-138592000D02*
X130795000Y-139792000D01*
X126251000Y-139792000D02*
X126251000Y-138592000D01*
X128001000Y-138592000D02*
X128001000Y-139792000D01*
X113806000Y-87849000D02*
X113806000Y-86649000D01*
X115556000Y-86649000D02*
X115556000Y-87849000D01*
X134585000Y-70725000D02*
X133385000Y-70725000D01*
X133385000Y-68975000D02*
X134585000Y-68975000D01*
X131839000Y-139792000D02*
X131839000Y-138592000D01*
X133589000Y-138592000D02*
X133589000Y-139792000D01*
X138951000Y-139792000D02*
X138951000Y-138592000D01*
X140701000Y-138592000D02*
X140701000Y-139792000D01*
X113933000Y-83404000D02*
X113933000Y-82204000D01*
X115683000Y-82204000D02*
X115683000Y-83404000D01*
X121553000Y-68926000D02*
X121553000Y-67726000D01*
X123303000Y-67726000D02*
X123303000Y-68926000D01*
X133971000Y-95666000D02*
X133971000Y-96866000D01*
X132221000Y-96866000D02*
X132221000Y-95666000D01*
X143750000Y-66456000D02*
X143750000Y-67656000D01*
X142000000Y-67656000D02*
X142000000Y-66456000D01*
X146798000Y-74711000D02*
X146798000Y-75911000D01*
X145048000Y-75911000D02*
X145048000Y-74711000D01*
X132348000Y-67148000D02*
X132348000Y-65948000D01*
X134098000Y-65948000D02*
X134098000Y-67148000D01*
X131304000Y-65948000D02*
X131304000Y-67148000D01*
X129554000Y-67148000D02*
X129554000Y-65948000D01*
X131939000Y-91856000D02*
X131939000Y-93056000D01*
X130189000Y-93056000D02*
X130189000Y-91856000D01*
X152795000Y-78832000D02*
X152795000Y-77632000D01*
X154545000Y-77632000D02*
X154545000Y-78832000D01*
X132983000Y-86960000D02*
X132983000Y-85760000D01*
X134733000Y-85760000D02*
X134733000Y-86960000D01*
X161706000Y-71515000D02*
X162906000Y-71515000D01*
X162906000Y-73265000D02*
X161706000Y-73265000D01*
X161706000Y-68721000D02*
X162906000Y-68721000D01*
X162906000Y-70471000D02*
X161706000Y-70471000D01*
X150587000Y-72884000D02*
X149387000Y-72884000D01*
X149387000Y-71134000D02*
X150587000Y-71134000D01*
X150587000Y-75678000D02*
X149387000Y-75678000D01*
X149387000Y-73928000D02*
X150587000Y-73928000D01*
X120791000Y-85690000D02*
X120791000Y-84490000D01*
X122541000Y-84490000D02*
X122541000Y-85690000D01*
X118526000Y-74690000D02*
X119726000Y-74690000D01*
X119726000Y-76440000D02*
X118526000Y-76440000D01*
X123303000Y-71790000D02*
X123303000Y-72990000D01*
X121553000Y-72990000D02*
X121553000Y-71790000D01*
X150587000Y-69963000D02*
X149387000Y-69963000D01*
X149387000Y-68213000D02*
X150587000Y-68213000D01*
X118251000Y-96993000D02*
X118251000Y-95793000D01*
X120001000Y-95793000D02*
X120001000Y-96993000D01*
X118251000Y-93056000D02*
X118251000Y-91856000D01*
X120001000Y-91856000D02*
X120001000Y-93056000D01*
X111619000Y-91602000D02*
X111619000Y-92802000D01*
X109869000Y-92802000D02*
X109869000Y-91602000D01*
X121426000Y-95342000D02*
X121426000Y-94142000D01*
X123176000Y-94142000D02*
X123176000Y-95342000D01*
X152881000Y-82976000D02*
X152881000Y-81776000D01*
X154631000Y-81776000D02*
X154631000Y-82976000D01*
X160387000Y-91348000D02*
X160387000Y-92548000D01*
X158637000Y-92548000D02*
X158637000Y-91348000D01*
X164959000Y-84490000D02*
X164959000Y-85690000D01*
X163209000Y-85690000D02*
X163209000Y-84490000D01*
X139192000Y-74221360D02*
X135691880Y-74221360D01*
X135691880Y-74221360D02*
X135691880Y-85275440D01*
X135691880Y-85275440D02*
X142692120Y-85275440D01*
X142692120Y-85275440D02*
X142692120Y-74221360D01*
X142692120Y-74221360D02*
X139192000Y-74221360D01*
X171458254Y-95471000D02*
G75*
G03X171458254Y-95471000I-228254J0D01*
G01*
D10*
X168677500Y-95863500D02*
X168677500Y-92863500D01*
X168677500Y-92863500D02*
X171677500Y-92863500D01*
X171677500Y-92863500D02*
X171677500Y-95863500D01*
X171677500Y-95863500D02*
X168677500Y-95863500D01*
D13*
X138303000Y-134366000D02*
X138303000Y-114554000D01*
X166243000Y-134366000D02*
X138303000Y-134366000D01*
X166243000Y-114554000D02*
X166243000Y-134366000D01*
X138303000Y-114554000D02*
X166243000Y-114554000D01*
D12*
X156836400Y-68919200D02*
X156836400Y-72519200D01*
X158936400Y-68919200D02*
X158936400Y-72519200D01*
X158186400Y-70969200D02*
X157586400Y-70969200D01*
X157586400Y-70969200D02*
X157886400Y-70669200D01*
X157886400Y-70669200D02*
X158086400Y-70869200D01*
X158086400Y-70869200D02*
X157836400Y-70869200D01*
X157836400Y-70869200D02*
X157886400Y-70819200D01*
X158386400Y-70569200D02*
X157386400Y-70569200D01*
X157886400Y-71069200D02*
X157886400Y-71569200D01*
X157886400Y-70569200D02*
X158386400Y-71069200D01*
X158386400Y-71069200D02*
X157386400Y-71069200D01*
X157386400Y-71069200D02*
X157886400Y-70569200D01*
X153432800Y-68868400D02*
X153432800Y-72468400D01*
X155532800Y-68868400D02*
X155532800Y-72468400D01*
X154782800Y-70918400D02*
X154182800Y-70918400D01*
X154182800Y-70918400D02*
X154482800Y-70618400D01*
X154482800Y-70618400D02*
X154682800Y-70818400D01*
X154682800Y-70818400D02*
X154432800Y-70818400D01*
X154432800Y-70818400D02*
X154482800Y-70768400D01*
X154982800Y-70518400D02*
X153982800Y-70518400D01*
X154482800Y-71018400D02*
X154482800Y-71518400D01*
X154482800Y-70518400D02*
X154982800Y-71018400D01*
X154982800Y-71018400D02*
X153982800Y-71018400D01*
X153982800Y-71018400D02*
X154482800Y-70518400D01*
X151630000Y-95925000D02*
X150630000Y-95925000D01*
X150630000Y-94575000D02*
X151630000Y-94575000D01*
X144693000Y-96782000D02*
X144693000Y-97782000D01*
X143343000Y-97782000D02*
X143343000Y-96782000D01*
X137327000Y-98306000D02*
X137327000Y-99306000D01*
X135977000Y-99306000D02*
X135977000Y-98306000D01*
X157900000Y-77732000D02*
X157900000Y-78732000D01*
X159600000Y-78732000D02*
X159600000Y-77732000D01*
X175627000Y-101254000D02*
X175627000Y-102454000D01*
X173877000Y-102454000D02*
X173877000Y-101254000D01*
X176925000Y-102454000D02*
X176925000Y-101254000D01*
X178675000Y-101254000D02*
X178675000Y-102454000D01*
X178675000Y-97190000D02*
X178675000Y-98390000D01*
X176925000Y-98390000D02*
X176925000Y-97190000D01*
X175627000Y-97190000D02*
X175627000Y-98390000D01*
X173877000Y-98390000D02*
X173877000Y-97190000D01*
X132972000Y-132602500D02*
X130940000Y-132602500D01*
X130559000Y-132475500D02*
X133480000Y-132475500D01*
X133734000Y-132348500D02*
X130178000Y-132348500D01*
X129797000Y-132221500D02*
X134115000Y-132221500D01*
X134369000Y-132094500D02*
X129543000Y-132094500D01*
X129416000Y-131967500D02*
X134496000Y-131967500D01*
X126749000Y-132983500D02*
X137163000Y-132983500D01*
X137163000Y-132983500D02*
X137163000Y-123331500D01*
X137163000Y-123331500D02*
X136401000Y-122569500D01*
X136401000Y-122569500D02*
X127511000Y-122569500D01*
X127511000Y-122569500D02*
X126749000Y-123331500D01*
X126749000Y-123331500D02*
X126749000Y-132983500D01*
X131956000Y-123204500D02*
X131956000Y-123966500D01*
X131575000Y-123585500D02*
X132337000Y-123585500D01*
X136909000Y-127776500D02*
G75*
G03X136909000Y-127776500I-4953000J0D01*
G01*
X123952000Y-107696000D02*
X125984000Y-107696000D01*
X126365000Y-107823000D02*
X123444000Y-107823000D01*
X123190000Y-107950000D02*
X126746000Y-107950000D01*
X127127000Y-108077000D02*
X122809000Y-108077000D01*
X122555000Y-108204000D02*
X127381000Y-108204000D01*
X127508000Y-108331000D02*
X122428000Y-108331000D01*
X130175000Y-107315000D02*
X119761000Y-107315000D01*
X119761000Y-107315000D02*
X119761000Y-116967000D01*
X119761000Y-116967000D02*
X120523000Y-117729000D01*
X120523000Y-117729000D02*
X129413000Y-117729000D01*
X129413000Y-117729000D02*
X130175000Y-116967000D01*
X130175000Y-116967000D02*
X130175000Y-107315000D01*
X124968000Y-117094000D02*
X124968000Y-116332000D01*
X125349000Y-116713000D02*
X124587000Y-116713000D01*
X129921000Y-112522000D02*
G75*
G03X129921000Y-112522000I-4953000J0D01*
G01*
X121412000Y-132602500D02*
X119380000Y-132602500D01*
X118999000Y-132475500D02*
X121920000Y-132475500D01*
X122174000Y-132348500D02*
X118618000Y-132348500D01*
X118237000Y-132221500D02*
X122555000Y-132221500D01*
X122809000Y-132094500D02*
X117983000Y-132094500D01*
X117856000Y-131967500D02*
X122936000Y-131967500D01*
X115189000Y-132983500D02*
X125603000Y-132983500D01*
X125603000Y-132983500D02*
X125603000Y-123331500D01*
X125603000Y-123331500D02*
X124841000Y-122569500D01*
X124841000Y-122569500D02*
X115951000Y-122569500D01*
X115951000Y-122569500D02*
X115189000Y-123331500D01*
X115189000Y-123331500D02*
X115189000Y-132983500D01*
X120396000Y-123204500D02*
X120396000Y-123966500D01*
X120015000Y-123585500D02*
X120777000Y-123585500D01*
X125349000Y-127776500D02*
G75*
G03X125349000Y-127776500I-4953000J0D01*
G01*
X135366000Y-116889000D02*
X133366000Y-116889000D01*
X133366000Y-119839000D02*
X135366000Y-119839000D01*
X114505000Y-129778000D02*
X114505000Y-127778000D01*
X111555000Y-127778000D02*
X111555000Y-129778000D01*
X113079000Y-109514000D02*
X113079000Y-111514000D01*
X116029000Y-111514000D02*
X116029000Y-109514000D01*
X116381000Y-109514000D02*
X116381000Y-111514000D01*
X119331000Y-111514000D02*
X119331000Y-109514000D01*
X136701000Y-104918000D02*
X136701000Y-106918000D01*
X139651000Y-106918000D02*
X139651000Y-104918000D01*
X132891000Y-104918000D02*
X132891000Y-106918000D01*
X135841000Y-106918000D02*
X135841000Y-104918000D01*
X174567000Y-106412000D02*
X174567000Y-111012000D01*
X180017000Y-111012000D02*
X180017000Y-106412000D01*
X168471000Y-106476000D02*
X168471000Y-111076000D01*
X173921000Y-111076000D02*
X173921000Y-106476000D01*
X185928000Y-104775000D02*
X184404000Y-104775000D01*
X184023000Y-104902000D02*
X186309000Y-104902000D01*
X186563000Y-105029000D02*
X183769000Y-105029000D01*
X183515000Y-105156000D02*
X186817000Y-105156000D01*
X186944000Y-105283000D02*
X183388000Y-105283000D01*
X188468000Y-104394000D02*
X181864000Y-104394000D01*
X181864000Y-104394000D02*
X181864000Y-110236000D01*
X181864000Y-110236000D02*
X182626000Y-110998000D01*
X182626000Y-110998000D02*
X187706000Y-110998000D01*
X187706000Y-110998000D02*
X188468000Y-110236000D01*
X188468000Y-110236000D02*
X188468000Y-104394000D01*
X185166000Y-109855000D02*
X185166000Y-109093000D01*
X185547000Y-109474000D02*
X184785000Y-109474000D01*
X188214000Y-107696000D02*
G75*
G03X188214000Y-107696000I-3048000J0D01*
G01*
X171135000Y-122814000D02*
X171135000Y-124338000D01*
X171262000Y-124719000D02*
X171262000Y-122433000D01*
X171389000Y-122179000D02*
X171389000Y-124973000D01*
X171516000Y-125227000D02*
X171516000Y-121925000D01*
X171643000Y-121798000D02*
X171643000Y-125354000D01*
X170754000Y-120274000D02*
X170754000Y-126878000D01*
X170754000Y-126878000D02*
X176596000Y-126878000D01*
X176596000Y-126878000D02*
X177358000Y-126116000D01*
X177358000Y-126116000D02*
X177358000Y-121036000D01*
X177358000Y-121036000D02*
X176596000Y-120274000D01*
X176596000Y-120274000D02*
X170754000Y-120274000D01*
X176215000Y-123576000D02*
X175453000Y-123576000D01*
X175834000Y-123195000D02*
X175834000Y-123957000D01*
X177104000Y-123576000D02*
G75*
G03X177104000Y-123576000I-3048000J0D01*
G01*
X164156000Y-78258500D02*
X164156000Y-77877500D01*
X164156000Y-79274500D02*
X164156000Y-78893500D01*
X164156000Y-78893500D02*
X163775000Y-78258500D01*
X163775000Y-78258500D02*
X164537000Y-78258500D01*
X164537000Y-78258500D02*
X164156000Y-78893500D01*
X163648000Y-78893500D02*
X164664000Y-78893500D01*
X165056000Y-80576000D02*
X165056000Y-77036000D01*
X163256000Y-80576000D02*
X163256000Y-77036000D01*
X173646000Y-66030000D02*
X167696000Y-66030000D01*
X167696000Y-66030000D02*
X167696000Y-73630000D01*
X167696000Y-73630000D02*
X173646000Y-73630000D01*
X173646000Y-73630000D02*
X173646000Y-66030000D01*
X173646000Y-69330000D02*
X172896000Y-69330000D01*
X172896000Y-69330000D02*
X172896000Y-70330000D01*
X172896000Y-70330000D02*
X173646000Y-70330000D01*
X173646000Y-70330000D02*
X173646000Y-69330000D01*
X173646000Y-66030000D02*
X172896000Y-66030000D01*
X172896000Y-66030000D02*
X172896000Y-67830000D01*
X172896000Y-67830000D02*
X173646000Y-67830000D01*
X173646000Y-67830000D02*
X173646000Y-66030000D01*
X173646000Y-71830000D02*
X172896000Y-71830000D01*
X172896000Y-71830000D02*
X172896000Y-73630000D01*
X172896000Y-73630000D02*
X173646000Y-73630000D01*
X173646000Y-73630000D02*
X173646000Y-71830000D01*
X171396000Y-66030000D02*
X171396000Y-66780000D01*
X171396000Y-66780000D02*
X168446000Y-66780000D01*
X168446000Y-66780000D02*
X168446000Y-69830000D01*
X171396000Y-73630000D02*
X171396000Y-72880000D01*
X171396000Y-72880000D02*
X168446000Y-72880000D01*
X168446000Y-72880000D02*
X168446000Y-69830000D01*
X173946000Y-68580000D02*
X174546000Y-68280000D01*
X174546000Y-68280000D02*
X174546000Y-68880000D01*
X174546000Y-68880000D02*
X173946000Y-68580000D01*
X176762000Y-95156000D02*
X180962000Y-95156000D01*
X180962000Y-95156000D02*
X180962000Y-87256000D01*
X180962000Y-87256000D02*
X176762000Y-87256000D01*
X176762000Y-87256000D02*
X176762000Y-95156000D01*
X178562000Y-95156000D02*
X178562000Y-94656000D01*
X178562000Y-94656000D02*
X177262000Y-94656000D01*
X177262000Y-94656000D02*
X177262000Y-87756000D01*
X177262000Y-87756000D02*
X178562000Y-87756000D01*
X178562000Y-87756000D02*
X178562000Y-87256000D01*
X179462000Y-95156000D02*
X179462000Y-94156000D01*
X179462000Y-94156000D02*
X180962000Y-94156000D01*
X179462000Y-87256000D02*
X179462000Y-88256000D01*
X179462000Y-88256000D02*
X180962000Y-88256000D01*
X181312000Y-92456000D02*
X181912000Y-92756000D01*
X181912000Y-92756000D02*
X181912000Y-92156000D01*
X181912000Y-92156000D02*
X181312000Y-92456000D01*
X160055160Y-96825760D02*
X160006900Y-96825760D01*
X157256180Y-97526800D02*
X157256180Y-96825760D01*
X157256180Y-96825760D02*
X157505100Y-96825760D01*
X160055160Y-96825760D02*
X160255820Y-96825760D01*
X160255820Y-96825760D02*
X160255820Y-97526800D01*
X184856000Y-114151000D02*
X190056000Y-114151000D01*
X190056000Y-117801000D02*
X184856000Y-117801000D01*
X106518000Y-118477000D02*
X105318000Y-118477000D01*
X105318000Y-116727000D02*
X106518000Y-116727000D01*
X107788000Y-129399000D02*
X106588000Y-129399000D01*
X106588000Y-127649000D02*
X107788000Y-127649000D01*
X133181000Y-111776000D02*
X133181000Y-109776000D01*
X135331000Y-109776000D02*
X135331000Y-111776000D01*
X121056000Y-89451000D02*
X119056000Y-89451000D01*
X119056000Y-87301000D02*
X121056000Y-87301000D01*
X172556000Y-115001000D02*
X174556000Y-115001000D01*
X174556000Y-117151000D02*
X172556000Y-117151000D01*
X94706000Y-124676000D02*
X102456000Y-124676000D01*
X94706000Y-107076000D02*
X102456000Y-107076000D01*
X94706000Y-124676000D02*
X94706000Y-107076000D01*
X102456000Y-124676000D02*
X102456000Y-107076000D01*
X183956000Y-75051000D02*
X183956000Y-76251000D01*
X182206000Y-76251000D02*
X182206000Y-75051000D01*
X108231000Y-79201000D02*
X108231000Y-78001000D01*
X109981000Y-78001000D02*
X109981000Y-79201000D01*
X108231000Y-74001000D02*
X108231000Y-72801000D01*
X109981000Y-72801000D02*
X109981000Y-74001000D01*
X190721000Y-89701000D02*
X190721000Y-88431000D01*
X183371000Y-89701000D02*
X183371000Y-88431000D01*
X183371000Y-80031000D02*
X183371000Y-81301000D01*
X190721000Y-80031000D02*
X190721000Y-81301000D01*
X190721000Y-89701000D02*
X183371000Y-89701000D01*
X190721000Y-80031000D02*
X183371000Y-80031000D01*
X190721000Y-88431000D02*
X191656000Y-88431000D01*
X193381000Y-119751000D02*
X185631000Y-119751000D01*
X193381000Y-131351000D02*
X185631000Y-131351000D01*
X193381000Y-119751000D02*
X193381000Y-131351000D01*
X185631000Y-119751000D02*
X185631000Y-131351000D01*
X176014381Y-82780095D02*
X175014381Y-82780095D01*
X175014381Y-82399142D01*
X175062000Y-82303904D01*
X175109619Y-82256285D01*
X175204857Y-82208666D01*
X175347714Y-82208666D01*
X175442952Y-82256285D01*
X175490571Y-82303904D01*
X175538190Y-82399142D01*
X175538190Y-82780095D01*
X175014381Y-81351523D02*
X175014381Y-81542000D01*
X175062000Y-81637238D01*
X175109619Y-81684857D01*
X175252476Y-81780095D01*
X175442952Y-81827714D01*
X175823905Y-81827714D01*
X175919143Y-81780095D01*
X175966762Y-81732476D01*
X176014381Y-81637238D01*
X176014381Y-81446761D01*
X175966762Y-81351523D01*
X175919143Y-81303904D01*
X175823905Y-81256285D01*
X175585810Y-81256285D01*
X175490571Y-81303904D01*
X175442952Y-81351523D01*
X175395333Y-81446761D01*
X175395333Y-81637238D01*
X175442952Y-81732476D01*
X175490571Y-81780095D01*
X175585810Y-81827714D01*
X113622667Y-134005571D02*
X113289333Y-134005571D01*
X113289333Y-134529381D02*
X113289333Y-133529381D01*
X113765524Y-133529381D01*
X114670286Y-134529381D02*
X114098857Y-134529381D01*
X114384571Y-134529381D02*
X114384571Y-133529381D01*
X114289333Y-133672238D01*
X114194095Y-133767476D01*
X114098857Y-133815095D01*
X173063143Y-142233143D02*
X173015524Y-142280762D01*
X172872667Y-142328381D01*
X172777429Y-142328381D01*
X172634571Y-142280762D01*
X172539333Y-142185524D01*
X172491714Y-142090286D01*
X172444095Y-141899810D01*
X172444095Y-141756952D01*
X172491714Y-141566476D01*
X172539333Y-141471238D01*
X172634571Y-141376000D01*
X172777429Y-141328381D01*
X172872667Y-141328381D01*
X173015524Y-141376000D01*
X173063143Y-141423619D01*
X173396476Y-141328381D02*
X174015524Y-141328381D01*
X173682190Y-141709333D01*
X173825048Y-141709333D01*
X173920286Y-141756952D01*
X173967905Y-141804571D01*
X174015524Y-141899810D01*
X174015524Y-142137905D01*
X173967905Y-142233143D01*
X173920286Y-142280762D01*
X173825048Y-142328381D01*
X173539333Y-142328381D01*
X173444095Y-142280762D01*
X173396476Y-142233143D01*
X174872667Y-141328381D02*
X174682190Y-141328381D01*
X174586952Y-141376000D01*
X174539333Y-141423619D01*
X174444095Y-141566476D01*
X174396476Y-141756952D01*
X174396476Y-142137905D01*
X174444095Y-142233143D01*
X174491714Y-142280762D01*
X174586952Y-142328381D01*
X174777429Y-142328381D01*
X174872667Y-142280762D01*
X174920286Y-142233143D01*
X174967905Y-142137905D01*
X174967905Y-141899810D01*
X174920286Y-141804571D01*
X174872667Y-141756952D01*
X174777429Y-141709333D01*
X174586952Y-141709333D01*
X174491714Y-141756952D01*
X174444095Y-141804571D01*
X174396476Y-141899810D01*
X114387334Y-95099143D02*
X114339715Y-95146762D01*
X114196858Y-95194381D01*
X114101620Y-95194381D01*
X113958762Y-95146762D01*
X113863524Y-95051524D01*
X113815905Y-94956286D01*
X113768286Y-94765810D01*
X113768286Y-94622952D01*
X113815905Y-94432476D01*
X113863524Y-94337238D01*
X113958762Y-94242000D01*
X114101620Y-94194381D01*
X114196858Y-94194381D01*
X114339715Y-94242000D01*
X114387334Y-94289619D01*
X115339715Y-95194381D02*
X114768286Y-95194381D01*
X115054000Y-95194381D02*
X115054000Y-94194381D01*
X114958762Y-94337238D01*
X114863524Y-94432476D01*
X114768286Y-94480095D01*
X131108143Y-96559666D02*
X131155762Y-96607285D01*
X131203381Y-96750142D01*
X131203381Y-96845380D01*
X131155762Y-96988238D01*
X131060524Y-97083476D01*
X130965286Y-97131095D01*
X130774810Y-97178714D01*
X130631952Y-97178714D01*
X130441476Y-97131095D01*
X130346238Y-97083476D01*
X130251000Y-96988238D01*
X130203381Y-96845380D01*
X130203381Y-96750142D01*
X130251000Y-96607285D01*
X130298619Y-96559666D01*
X130203381Y-96226333D02*
X130203381Y-95607285D01*
X130584333Y-95940619D01*
X130584333Y-95797761D01*
X130631952Y-95702523D01*
X130679571Y-95654904D01*
X130774810Y-95607285D01*
X131012905Y-95607285D01*
X131108143Y-95654904D01*
X131155762Y-95702523D01*
X131203381Y-95797761D01*
X131203381Y-96083476D01*
X131155762Y-96178714D01*
X131108143Y-96226333D01*
X136383734Y-90052743D02*
X136336115Y-90100362D01*
X136193258Y-90147981D01*
X136098020Y-90147981D01*
X135955162Y-90100362D01*
X135859924Y-90005124D01*
X135812305Y-89909886D01*
X135764686Y-89719410D01*
X135764686Y-89576552D01*
X135812305Y-89386076D01*
X135859924Y-89290838D01*
X135955162Y-89195600D01*
X136098020Y-89147981D01*
X136193258Y-89147981D01*
X136336115Y-89195600D01*
X136383734Y-89243219D01*
X137240877Y-89147981D02*
X137050400Y-89147981D01*
X136955162Y-89195600D01*
X136907543Y-89243219D01*
X136812305Y-89386076D01*
X136764686Y-89576552D01*
X136764686Y-89957505D01*
X136812305Y-90052743D01*
X136859924Y-90100362D01*
X136955162Y-90147981D01*
X137145639Y-90147981D01*
X137240877Y-90100362D01*
X137288496Y-90052743D01*
X137336115Y-89957505D01*
X137336115Y-89719410D01*
X137288496Y-89624171D01*
X137240877Y-89576552D01*
X137145639Y-89528933D01*
X136955162Y-89528933D01*
X136859924Y-89576552D01*
X136812305Y-89624171D01*
X136764686Y-89719410D01*
X139189334Y-94783143D02*
X139141715Y-94830762D01*
X138998858Y-94878381D01*
X138903620Y-94878381D01*
X138760762Y-94830762D01*
X138665524Y-94735524D01*
X138617905Y-94640286D01*
X138570286Y-94449810D01*
X138570286Y-94306952D01*
X138617905Y-94116476D01*
X138665524Y-94021238D01*
X138760762Y-93926000D01*
X138903620Y-93878381D01*
X138998858Y-93878381D01*
X139141715Y-93926000D01*
X139189334Y-93973619D01*
X139522667Y-93878381D02*
X140189334Y-93878381D01*
X139760762Y-94878381D01*
X145121334Y-69953143D02*
X145073715Y-70000762D01*
X144930858Y-70048381D01*
X144835620Y-70048381D01*
X144692762Y-70000762D01*
X144597524Y-69905524D01*
X144549905Y-69810286D01*
X144502286Y-69619810D01*
X144502286Y-69476952D01*
X144549905Y-69286476D01*
X144597524Y-69191238D01*
X144692762Y-69096000D01*
X144835620Y-69048381D01*
X144930858Y-69048381D01*
X145073715Y-69096000D01*
X145121334Y-69143619D01*
X145692762Y-69476952D02*
X145597524Y-69429333D01*
X145549905Y-69381714D01*
X145502286Y-69286476D01*
X145502286Y-69238857D01*
X145549905Y-69143619D01*
X145597524Y-69096000D01*
X145692762Y-69048381D01*
X145883239Y-69048381D01*
X145978477Y-69096000D01*
X146026096Y-69143619D01*
X146073715Y-69238857D01*
X146073715Y-69286476D01*
X146026096Y-69381714D01*
X145978477Y-69429333D01*
X145883239Y-69476952D01*
X145692762Y-69476952D01*
X145597524Y-69524571D01*
X145549905Y-69572190D01*
X145502286Y-69667429D01*
X145502286Y-69857905D01*
X145549905Y-69953143D01*
X145597524Y-70000762D01*
X145692762Y-70048381D01*
X145883239Y-70048381D01*
X145978477Y-70000762D01*
X146026096Y-69953143D01*
X146073715Y-69857905D01*
X146073715Y-69667429D01*
X146026096Y-69572190D01*
X145978477Y-69524571D01*
X145883239Y-69476952D01*
X127679143Y-92082857D02*
X127726762Y-92130476D01*
X127774381Y-92273333D01*
X127774381Y-92368571D01*
X127726762Y-92511429D01*
X127631524Y-92606667D01*
X127536286Y-92654286D01*
X127345810Y-92701905D01*
X127202952Y-92701905D01*
X127012476Y-92654286D01*
X126917238Y-92606667D01*
X126822000Y-92511429D01*
X126774381Y-92368571D01*
X126774381Y-92273333D01*
X126822000Y-92130476D01*
X126869619Y-92082857D01*
X127774381Y-91130476D02*
X127774381Y-91701905D01*
X127774381Y-91416191D02*
X126774381Y-91416191D01*
X126917238Y-91511429D01*
X127012476Y-91606667D01*
X127060095Y-91701905D01*
X126774381Y-90511429D02*
X126774381Y-90416190D01*
X126822000Y-90320952D01*
X126869619Y-90273333D01*
X126964857Y-90225714D01*
X127155333Y-90178095D01*
X127393429Y-90178095D01*
X127583905Y-90225714D01*
X127679143Y-90273333D01*
X127726762Y-90320952D01*
X127774381Y-90416190D01*
X127774381Y-90511429D01*
X127726762Y-90606667D01*
X127679143Y-90654286D01*
X127583905Y-90701905D01*
X127393429Y-90749524D01*
X127155333Y-90749524D01*
X126964857Y-90701905D01*
X126869619Y-90654286D01*
X126822000Y-90606667D01*
X126774381Y-90511429D01*
X147439143Y-93829143D02*
X147391524Y-93876762D01*
X147248667Y-93924381D01*
X147153429Y-93924381D01*
X147010571Y-93876762D01*
X146915333Y-93781524D01*
X146867714Y-93686286D01*
X146820095Y-93495810D01*
X146820095Y-93352952D01*
X146867714Y-93162476D01*
X146915333Y-93067238D01*
X147010571Y-92972000D01*
X147153429Y-92924381D01*
X147248667Y-92924381D01*
X147391524Y-92972000D01*
X147439143Y-93019619D01*
X148391524Y-93924381D02*
X147820095Y-93924381D01*
X148105809Y-93924381D02*
X148105809Y-92924381D01*
X148010571Y-93067238D01*
X147915333Y-93162476D01*
X147820095Y-93210095D01*
X148724857Y-92924381D02*
X149343905Y-92924381D01*
X149010571Y-93305333D01*
X149153429Y-93305333D01*
X149248667Y-93352952D01*
X149296286Y-93400571D01*
X149343905Y-93495810D01*
X149343905Y-93733905D01*
X149296286Y-93829143D01*
X149248667Y-93876762D01*
X149153429Y-93924381D01*
X148867714Y-93924381D01*
X148772476Y-93876762D01*
X148724857Y-93829143D01*
X153535143Y-94151143D02*
X153487524Y-94198762D01*
X153344667Y-94246381D01*
X153249429Y-94246381D01*
X153106571Y-94198762D01*
X153011333Y-94103524D01*
X152963714Y-94008286D01*
X152916095Y-93817810D01*
X152916095Y-93674952D01*
X152963714Y-93484476D01*
X153011333Y-93389238D01*
X153106571Y-93294000D01*
X153249429Y-93246381D01*
X153344667Y-93246381D01*
X153487524Y-93294000D01*
X153535143Y-93341619D01*
X154487524Y-94246381D02*
X153916095Y-94246381D01*
X154201809Y-94246381D02*
X154201809Y-93246381D01*
X154106571Y-93389238D01*
X154011333Y-93484476D01*
X153916095Y-93532095D01*
X155392286Y-93246381D02*
X154916095Y-93246381D01*
X154868476Y-93722571D01*
X154916095Y-93674952D01*
X155011333Y-93627333D01*
X155249429Y-93627333D01*
X155344667Y-93674952D01*
X155392286Y-93722571D01*
X155439905Y-93817810D01*
X155439905Y-94055905D01*
X155392286Y-94151143D01*
X155344667Y-94198762D01*
X155249429Y-94246381D01*
X155011333Y-94246381D01*
X154916095Y-94198762D01*
X154868476Y-94151143D01*
X129321143Y-89161857D02*
X129368762Y-89209476D01*
X129416381Y-89352333D01*
X129416381Y-89447571D01*
X129368762Y-89590429D01*
X129273524Y-89685667D01*
X129178286Y-89733286D01*
X128987810Y-89780905D01*
X128844952Y-89780905D01*
X128654476Y-89733286D01*
X128559238Y-89685667D01*
X128464000Y-89590429D01*
X128416381Y-89447571D01*
X128416381Y-89352333D01*
X128464000Y-89209476D01*
X128511619Y-89161857D01*
X129416381Y-88209476D02*
X129416381Y-88780905D01*
X129416381Y-88495191D02*
X128416381Y-88495191D01*
X128559238Y-88590429D01*
X128654476Y-88685667D01*
X128702095Y-88780905D01*
X128416381Y-87352333D02*
X128416381Y-87542810D01*
X128464000Y-87638048D01*
X128511619Y-87685667D01*
X128654476Y-87780905D01*
X128844952Y-87828524D01*
X129225905Y-87828524D01*
X129321143Y-87780905D01*
X129368762Y-87733286D01*
X129416381Y-87638048D01*
X129416381Y-87447571D01*
X129368762Y-87352333D01*
X129321143Y-87304714D01*
X129225905Y-87257095D01*
X128987810Y-87257095D01*
X128892571Y-87304714D01*
X128844952Y-87352333D01*
X128797333Y-87447571D01*
X128797333Y-87638048D01*
X128844952Y-87733286D01*
X128892571Y-87780905D01*
X128987810Y-87828524D01*
X127679143Y-97035857D02*
X127726762Y-97083476D01*
X127774381Y-97226333D01*
X127774381Y-97321571D01*
X127726762Y-97464429D01*
X127631524Y-97559667D01*
X127536286Y-97607286D01*
X127345810Y-97654905D01*
X127202952Y-97654905D01*
X127012476Y-97607286D01*
X126917238Y-97559667D01*
X126822000Y-97464429D01*
X126774381Y-97321571D01*
X126774381Y-97226333D01*
X126822000Y-97083476D01*
X126869619Y-97035857D01*
X127774381Y-96083476D02*
X127774381Y-96654905D01*
X127774381Y-96369191D02*
X126774381Y-96369191D01*
X126917238Y-96464429D01*
X127012476Y-96559667D01*
X127060095Y-96654905D01*
X126774381Y-95750143D02*
X126774381Y-95083476D01*
X127774381Y-95512048D01*
X155400143Y-76216143D02*
X155352524Y-76263762D01*
X155209667Y-76311381D01*
X155114429Y-76311381D01*
X154971571Y-76263762D01*
X154876333Y-76168524D01*
X154828714Y-76073286D01*
X154781095Y-75882810D01*
X154781095Y-75739952D01*
X154828714Y-75549476D01*
X154876333Y-75454238D01*
X154971571Y-75359000D01*
X155114429Y-75311381D01*
X155209667Y-75311381D01*
X155352524Y-75359000D01*
X155400143Y-75406619D01*
X156352524Y-76311381D02*
X155781095Y-76311381D01*
X156066809Y-76311381D02*
X156066809Y-75311381D01*
X155971571Y-75454238D01*
X155876333Y-75549476D01*
X155781095Y-75597095D01*
X156923952Y-75739952D02*
X156828714Y-75692333D01*
X156781095Y-75644714D01*
X156733476Y-75549476D01*
X156733476Y-75501857D01*
X156781095Y-75406619D01*
X156828714Y-75359000D01*
X156923952Y-75311381D01*
X157114429Y-75311381D01*
X157209667Y-75359000D01*
X157257286Y-75406619D01*
X157304905Y-75501857D01*
X157304905Y-75549476D01*
X157257286Y-75644714D01*
X157209667Y-75692333D01*
X157114429Y-75739952D01*
X156923952Y-75739952D01*
X156828714Y-75787571D01*
X156781095Y-75835190D01*
X156733476Y-75930429D01*
X156733476Y-76120905D01*
X156781095Y-76216143D01*
X156828714Y-76263762D01*
X156923952Y-76311381D01*
X157114429Y-76311381D01*
X157209667Y-76263762D01*
X157257286Y-76216143D01*
X157304905Y-76120905D01*
X157304905Y-75930429D01*
X157257286Y-75835190D01*
X157209667Y-75787571D01*
X157114429Y-75739952D01*
X138295143Y-64619143D02*
X138247524Y-64666762D01*
X138104667Y-64714381D01*
X138009429Y-64714381D01*
X137866571Y-64666762D01*
X137771333Y-64571524D01*
X137723714Y-64476286D01*
X137676095Y-64285810D01*
X137676095Y-64142952D01*
X137723714Y-63952476D01*
X137771333Y-63857238D01*
X137866571Y-63762000D01*
X138009429Y-63714381D01*
X138104667Y-63714381D01*
X138247524Y-63762000D01*
X138295143Y-63809619D01*
X139247524Y-64714381D02*
X138676095Y-64714381D01*
X138961809Y-64714381D02*
X138961809Y-63714381D01*
X138866571Y-63857238D01*
X138771333Y-63952476D01*
X138676095Y-64000095D01*
X139723714Y-64714381D02*
X139914190Y-64714381D01*
X140009429Y-64666762D01*
X140057048Y-64619143D01*
X140152286Y-64476286D01*
X140199905Y-64285810D01*
X140199905Y-63904857D01*
X140152286Y-63809619D01*
X140104667Y-63762000D01*
X140009429Y-63714381D01*
X139818952Y-63714381D01*
X139723714Y-63762000D01*
X139676095Y-63809619D01*
X139628476Y-63904857D01*
X139628476Y-64142952D01*
X139676095Y-64238190D01*
X139723714Y-64285810D01*
X139818952Y-64333429D01*
X140009429Y-64333429D01*
X140104667Y-64285810D01*
X140152286Y-64238190D01*
X140199905Y-64142952D01*
X117705143Y-85732857D02*
X117752762Y-85780476D01*
X117800381Y-85923333D01*
X117800381Y-86018571D01*
X117752762Y-86161429D01*
X117657524Y-86256667D01*
X117562286Y-86304286D01*
X117371810Y-86351905D01*
X117228952Y-86351905D01*
X117038476Y-86304286D01*
X116943238Y-86256667D01*
X116848000Y-86161429D01*
X116800381Y-86018571D01*
X116800381Y-85923333D01*
X116848000Y-85780476D01*
X116895619Y-85732857D01*
X116895619Y-85351905D02*
X116848000Y-85304286D01*
X116800381Y-85209048D01*
X116800381Y-84970952D01*
X116848000Y-84875714D01*
X116895619Y-84828095D01*
X116990857Y-84780476D01*
X117086095Y-84780476D01*
X117228952Y-84828095D01*
X117800381Y-85399524D01*
X117800381Y-84780476D01*
X116895619Y-84399524D02*
X116848000Y-84351905D01*
X116800381Y-84256667D01*
X116800381Y-84018571D01*
X116848000Y-83923333D01*
X116895619Y-83875714D01*
X116990857Y-83828095D01*
X117086095Y-83828095D01*
X117228952Y-83875714D01*
X117800381Y-84447143D01*
X117800381Y-83828095D01*
X118483143Y-71731143D02*
X118435524Y-71778762D01*
X118292667Y-71826381D01*
X118197429Y-71826381D01*
X118054571Y-71778762D01*
X117959333Y-71683524D01*
X117911714Y-71588286D01*
X117864095Y-71397810D01*
X117864095Y-71254952D01*
X117911714Y-71064476D01*
X117959333Y-70969238D01*
X118054571Y-70874000D01*
X118197429Y-70826381D01*
X118292667Y-70826381D01*
X118435524Y-70874000D01*
X118483143Y-70921619D01*
X118864095Y-70921619D02*
X118911714Y-70874000D01*
X119006952Y-70826381D01*
X119245048Y-70826381D01*
X119340286Y-70874000D01*
X119387905Y-70921619D01*
X119435524Y-71016857D01*
X119435524Y-71112095D01*
X119387905Y-71254952D01*
X118816476Y-71826381D01*
X119435524Y-71826381D01*
X119768857Y-70826381D02*
X120387905Y-70826381D01*
X120054571Y-71207333D01*
X120197429Y-71207333D01*
X120292667Y-71254952D01*
X120340286Y-71302571D01*
X120387905Y-71397810D01*
X120387905Y-71635905D01*
X120340286Y-71731143D01*
X120292667Y-71778762D01*
X120197429Y-71826381D01*
X119911714Y-71826381D01*
X119816476Y-71778762D01*
X119768857Y-71731143D01*
X127627143Y-70461143D02*
X127579524Y-70508762D01*
X127436667Y-70556381D01*
X127341429Y-70556381D01*
X127198571Y-70508762D01*
X127103333Y-70413524D01*
X127055714Y-70318286D01*
X127008095Y-70127810D01*
X127008095Y-69984952D01*
X127055714Y-69794476D01*
X127103333Y-69699238D01*
X127198571Y-69604000D01*
X127341429Y-69556381D01*
X127436667Y-69556381D01*
X127579524Y-69604000D01*
X127627143Y-69651619D01*
X128008095Y-69651619D02*
X128055714Y-69604000D01*
X128150952Y-69556381D01*
X128389048Y-69556381D01*
X128484286Y-69604000D01*
X128531905Y-69651619D01*
X128579524Y-69746857D01*
X128579524Y-69842095D01*
X128531905Y-69984952D01*
X127960476Y-70556381D01*
X128579524Y-70556381D01*
X129436667Y-69889714D02*
X129436667Y-70556381D01*
X129198571Y-69508762D02*
X128960476Y-70223048D01*
X129579524Y-70223048D01*
X125341143Y-75541143D02*
X125293524Y-75588762D01*
X125150667Y-75636381D01*
X125055429Y-75636381D01*
X124912571Y-75588762D01*
X124817333Y-75493524D01*
X124769714Y-75398286D01*
X124722095Y-75207810D01*
X124722095Y-75064952D01*
X124769714Y-74874476D01*
X124817333Y-74779238D01*
X124912571Y-74684000D01*
X125055429Y-74636381D01*
X125150667Y-74636381D01*
X125293524Y-74684000D01*
X125341143Y-74731619D01*
X125722095Y-74731619D02*
X125769714Y-74684000D01*
X125864952Y-74636381D01*
X126103048Y-74636381D01*
X126198286Y-74684000D01*
X126245905Y-74731619D01*
X126293524Y-74826857D01*
X126293524Y-74922095D01*
X126245905Y-75064952D01*
X125674476Y-75636381D01*
X126293524Y-75636381D01*
X127198286Y-74636381D02*
X126722095Y-74636381D01*
X126674476Y-75112571D01*
X126722095Y-75064952D01*
X126817333Y-75017333D01*
X127055429Y-75017333D01*
X127150667Y-75064952D01*
X127198286Y-75112571D01*
X127245905Y-75207810D01*
X127245905Y-75445905D01*
X127198286Y-75541143D01*
X127150667Y-75588762D01*
X127055429Y-75636381D01*
X126817333Y-75636381D01*
X126722095Y-75588762D01*
X126674476Y-75541143D01*
X147931143Y-69730857D02*
X147978762Y-69778476D01*
X148026381Y-69921333D01*
X148026381Y-70016571D01*
X147978762Y-70159429D01*
X147883524Y-70254667D01*
X147788286Y-70302286D01*
X147597810Y-70349905D01*
X147454952Y-70349905D01*
X147264476Y-70302286D01*
X147169238Y-70254667D01*
X147074000Y-70159429D01*
X147026381Y-70016571D01*
X147026381Y-69921333D01*
X147074000Y-69778476D01*
X147121619Y-69730857D01*
X147121619Y-69349905D02*
X147074000Y-69302286D01*
X147026381Y-69207048D01*
X147026381Y-68968952D01*
X147074000Y-68873714D01*
X147121619Y-68826095D01*
X147216857Y-68778476D01*
X147312095Y-68778476D01*
X147454952Y-68826095D01*
X148026381Y-69397524D01*
X148026381Y-68778476D01*
X147026381Y-67921333D02*
X147026381Y-68111810D01*
X147074000Y-68207048D01*
X147121619Y-68254667D01*
X147264476Y-68349905D01*
X147454952Y-68397524D01*
X147835905Y-68397524D01*
X147931143Y-68349905D01*
X147978762Y-68302286D01*
X148026381Y-68207048D01*
X148026381Y-68016571D01*
X147978762Y-67921333D01*
X147931143Y-67873714D01*
X147835905Y-67826095D01*
X147597810Y-67826095D01*
X147502571Y-67873714D01*
X147454952Y-67921333D01*
X147407333Y-68016571D01*
X147407333Y-68207048D01*
X147454952Y-68302286D01*
X147502571Y-68349905D01*
X147597810Y-68397524D01*
X114038143Y-98977143D02*
X113990524Y-99024762D01*
X113847667Y-99072381D01*
X113752429Y-99072381D01*
X113609571Y-99024762D01*
X113514333Y-98929524D01*
X113466714Y-98834286D01*
X113419095Y-98643810D01*
X113419095Y-98500952D01*
X113466714Y-98310476D01*
X113514333Y-98215238D01*
X113609571Y-98120000D01*
X113752429Y-98072381D01*
X113847667Y-98072381D01*
X113990524Y-98120000D01*
X114038143Y-98167619D01*
X114419095Y-98167619D02*
X114466714Y-98120000D01*
X114561952Y-98072381D01*
X114800048Y-98072381D01*
X114895286Y-98120000D01*
X114942905Y-98167619D01*
X114990524Y-98262857D01*
X114990524Y-98358095D01*
X114942905Y-98500952D01*
X114371476Y-99072381D01*
X114990524Y-99072381D01*
X115323857Y-98072381D02*
X115990524Y-98072381D01*
X115561952Y-99072381D01*
X165113143Y-100655143D02*
X165065524Y-100702762D01*
X164922667Y-100750381D01*
X164827429Y-100750381D01*
X164684571Y-100702762D01*
X164589333Y-100607524D01*
X164541714Y-100512286D01*
X164494095Y-100321810D01*
X164494095Y-100178952D01*
X164541714Y-99988476D01*
X164589333Y-99893238D01*
X164684571Y-99798000D01*
X164827429Y-99750381D01*
X164922667Y-99750381D01*
X165065524Y-99798000D01*
X165113143Y-99845619D01*
X165446476Y-99750381D02*
X166065524Y-99750381D01*
X165732190Y-100131333D01*
X165875048Y-100131333D01*
X165970286Y-100178952D01*
X166017905Y-100226571D01*
X166065524Y-100321810D01*
X166065524Y-100559905D01*
X166017905Y-100655143D01*
X165970286Y-100702762D01*
X165875048Y-100750381D01*
X165589333Y-100750381D01*
X165494095Y-100702762D01*
X165446476Y-100655143D01*
X166684571Y-99750381D02*
X166779810Y-99750381D01*
X166875048Y-99798000D01*
X166922667Y-99845619D01*
X166970286Y-99940857D01*
X167017905Y-100131333D01*
X167017905Y-100369429D01*
X166970286Y-100559905D01*
X166922667Y-100655143D01*
X166875048Y-100702762D01*
X166779810Y-100750381D01*
X166684571Y-100750381D01*
X166589333Y-100702762D01*
X166541714Y-100655143D01*
X166494095Y-100559905D01*
X166446476Y-100369429D01*
X166446476Y-100131333D01*
X166494095Y-99940857D01*
X166541714Y-99845619D01*
X166589333Y-99798000D01*
X166684571Y-99750381D01*
X158448143Y-85373143D02*
X158400524Y-85420762D01*
X158257667Y-85468381D01*
X158162429Y-85468381D01*
X158019571Y-85420762D01*
X157924333Y-85325524D01*
X157876714Y-85230286D01*
X157829095Y-85039810D01*
X157829095Y-84896952D01*
X157876714Y-84706476D01*
X157924333Y-84611238D01*
X158019571Y-84516000D01*
X158162429Y-84468381D01*
X158257667Y-84468381D01*
X158400524Y-84516000D01*
X158448143Y-84563619D01*
X158781476Y-84468381D02*
X159400524Y-84468381D01*
X159067190Y-84849333D01*
X159210048Y-84849333D01*
X159305286Y-84896952D01*
X159352905Y-84944571D01*
X159400524Y-85039810D01*
X159400524Y-85277905D01*
X159352905Y-85373143D01*
X159305286Y-85420762D01*
X159210048Y-85468381D01*
X158924333Y-85468381D01*
X158829095Y-85420762D01*
X158781476Y-85373143D01*
X160352905Y-85468381D02*
X159781476Y-85468381D01*
X160067190Y-85468381D02*
X160067190Y-84468381D01*
X159971952Y-84611238D01*
X159876714Y-84706476D01*
X159781476Y-84754095D01*
X155486143Y-85500143D02*
X155438524Y-85547762D01*
X155295667Y-85595381D01*
X155200429Y-85595381D01*
X155057571Y-85547762D01*
X154962333Y-85452524D01*
X154914714Y-85357286D01*
X154867095Y-85166810D01*
X154867095Y-85023952D01*
X154914714Y-84833476D01*
X154962333Y-84738238D01*
X155057571Y-84643000D01*
X155200429Y-84595381D01*
X155295667Y-84595381D01*
X155438524Y-84643000D01*
X155486143Y-84690619D01*
X155819476Y-84595381D02*
X156438524Y-84595381D01*
X156105190Y-84976333D01*
X156248048Y-84976333D01*
X156343286Y-85023952D01*
X156390905Y-85071571D01*
X156438524Y-85166810D01*
X156438524Y-85404905D01*
X156390905Y-85500143D01*
X156343286Y-85547762D01*
X156248048Y-85595381D01*
X155962333Y-85595381D01*
X155867095Y-85547762D01*
X155819476Y-85500143D01*
X156819476Y-84690619D02*
X156867095Y-84643000D01*
X156962333Y-84595381D01*
X157200429Y-84595381D01*
X157295667Y-84643000D01*
X157343286Y-84690619D01*
X157390905Y-84785857D01*
X157390905Y-84881095D01*
X157343286Y-85023952D01*
X156771857Y-85595381D01*
X157390905Y-85595381D01*
X167592143Y-87392143D02*
X167544524Y-87439762D01*
X167401667Y-87487381D01*
X167306429Y-87487381D01*
X167163571Y-87439762D01*
X167068333Y-87344524D01*
X167020714Y-87249286D01*
X166973095Y-87058810D01*
X166973095Y-86915952D01*
X167020714Y-86725476D01*
X167068333Y-86630238D01*
X167163571Y-86535000D01*
X167306429Y-86487381D01*
X167401667Y-86487381D01*
X167544524Y-86535000D01*
X167592143Y-86582619D01*
X167925476Y-86487381D02*
X168544524Y-86487381D01*
X168211190Y-86868333D01*
X168354048Y-86868333D01*
X168449286Y-86915952D01*
X168496905Y-86963571D01*
X168544524Y-87058810D01*
X168544524Y-87296905D01*
X168496905Y-87392143D01*
X168449286Y-87439762D01*
X168354048Y-87487381D01*
X168068333Y-87487381D01*
X167973095Y-87439762D01*
X167925476Y-87392143D01*
X169401667Y-86820714D02*
X169401667Y-87487381D01*
X169163571Y-86439762D02*
X168925476Y-87154048D01*
X169544524Y-87154048D01*
X145486381Y-88876095D02*
X144486381Y-88876095D01*
X144486381Y-88638000D01*
X144534000Y-88495142D01*
X144629238Y-88399904D01*
X144724476Y-88352285D01*
X144914952Y-88304666D01*
X145057810Y-88304666D01*
X145248286Y-88352285D01*
X145343524Y-88399904D01*
X145438762Y-88495142D01*
X145486381Y-88638000D01*
X145486381Y-88876095D01*
X145486381Y-87352285D02*
X145486381Y-87923714D01*
X145486381Y-87638000D02*
X144486381Y-87638000D01*
X144629238Y-87733238D01*
X144724476Y-87828476D01*
X144772095Y-87923714D01*
X151582381Y-88876095D02*
X150582381Y-88876095D01*
X150582381Y-88638000D01*
X150630000Y-88495142D01*
X150725238Y-88399904D01*
X150820476Y-88352285D01*
X151010952Y-88304666D01*
X151153810Y-88304666D01*
X151344286Y-88352285D01*
X151439524Y-88399904D01*
X151534762Y-88495142D01*
X151582381Y-88638000D01*
X151582381Y-88876095D01*
X150677619Y-87923714D02*
X150630000Y-87876095D01*
X150582381Y-87780857D01*
X150582381Y-87542761D01*
X150630000Y-87447523D01*
X150677619Y-87399904D01*
X150772857Y-87352285D01*
X150868095Y-87352285D01*
X151010952Y-87399904D01*
X151582381Y-87971333D01*
X151582381Y-87352285D01*
X136174762Y-137366619D02*
X136079524Y-137319000D01*
X135984286Y-137223762D01*
X135841429Y-137080905D01*
X135746190Y-137033286D01*
X135650952Y-137033286D01*
X135698571Y-137271381D02*
X135603333Y-137223762D01*
X135508095Y-137128524D01*
X135460476Y-136938048D01*
X135460476Y-136604714D01*
X135508095Y-136414238D01*
X135603333Y-136319000D01*
X135698571Y-136271381D01*
X135889048Y-136271381D01*
X135984286Y-136319000D01*
X136079524Y-136414238D01*
X136127143Y-136604714D01*
X136127143Y-136938048D01*
X136079524Y-137128524D01*
X135984286Y-137223762D01*
X135889048Y-137271381D01*
X135698571Y-137271381D01*
X137079524Y-137271381D02*
X136508095Y-137271381D01*
X136793809Y-137271381D02*
X136793809Y-136271381D01*
X136698571Y-136414238D01*
X136603333Y-136509476D01*
X136508095Y-136557095D01*
X141723762Y-108918619D02*
X141628524Y-108871000D01*
X141533286Y-108775762D01*
X141390429Y-108632905D01*
X141295190Y-108585286D01*
X141199952Y-108585286D01*
X141247571Y-108823381D02*
X141152333Y-108775762D01*
X141057095Y-108680524D01*
X141009476Y-108490048D01*
X141009476Y-108156714D01*
X141057095Y-107966238D01*
X141152333Y-107871000D01*
X141247571Y-107823381D01*
X141438048Y-107823381D01*
X141533286Y-107871000D01*
X141628524Y-107966238D01*
X141676143Y-108156714D01*
X141676143Y-108490048D01*
X141628524Y-108680524D01*
X141533286Y-108775762D01*
X141438048Y-108823381D01*
X141247571Y-108823381D01*
X142057095Y-107918619D02*
X142104714Y-107871000D01*
X142199952Y-107823381D01*
X142438048Y-107823381D01*
X142533286Y-107871000D01*
X142580905Y-107918619D01*
X142628524Y-108013857D01*
X142628524Y-108109095D01*
X142580905Y-108251952D01*
X142009476Y-108823381D01*
X142628524Y-108823381D01*
X147057762Y-110696619D02*
X146962524Y-110649000D01*
X146867286Y-110553762D01*
X146724429Y-110410905D01*
X146629190Y-110363286D01*
X146533952Y-110363286D01*
X146581571Y-110601381D02*
X146486333Y-110553762D01*
X146391095Y-110458524D01*
X146343476Y-110268048D01*
X146343476Y-109934714D01*
X146391095Y-109744238D01*
X146486333Y-109649000D01*
X146581571Y-109601381D01*
X146772048Y-109601381D01*
X146867286Y-109649000D01*
X146962524Y-109744238D01*
X147010143Y-109934714D01*
X147010143Y-110268048D01*
X146962524Y-110458524D01*
X146867286Y-110553762D01*
X146772048Y-110601381D01*
X146581571Y-110601381D01*
X147343476Y-109601381D02*
X147962524Y-109601381D01*
X147629190Y-109982333D01*
X147772048Y-109982333D01*
X147867286Y-110029952D01*
X147914905Y-110077571D01*
X147962524Y-110172810D01*
X147962524Y-110410905D01*
X147914905Y-110506143D01*
X147867286Y-110553762D01*
X147772048Y-110601381D01*
X147486333Y-110601381D01*
X147391095Y-110553762D01*
X147343476Y-110506143D01*
X162551762Y-108918619D02*
X162456524Y-108871000D01*
X162361286Y-108775762D01*
X162218429Y-108632905D01*
X162123190Y-108585286D01*
X162027952Y-108585286D01*
X162075571Y-108823381D02*
X161980333Y-108775762D01*
X161885095Y-108680524D01*
X161837476Y-108490048D01*
X161837476Y-108156714D01*
X161885095Y-107966238D01*
X161980333Y-107871000D01*
X162075571Y-107823381D01*
X162266048Y-107823381D01*
X162361286Y-107871000D01*
X162456524Y-107966238D01*
X162504143Y-108156714D01*
X162504143Y-108490048D01*
X162456524Y-108680524D01*
X162361286Y-108775762D01*
X162266048Y-108823381D01*
X162075571Y-108823381D01*
X163361286Y-108156714D02*
X163361286Y-108823381D01*
X163123190Y-107775762D02*
X162885095Y-108490048D01*
X163504143Y-108490048D01*
X156963762Y-110442619D02*
X156868524Y-110395000D01*
X156773286Y-110299762D01*
X156630429Y-110156905D01*
X156535190Y-110109286D01*
X156439952Y-110109286D01*
X156487571Y-110347381D02*
X156392333Y-110299762D01*
X156297095Y-110204524D01*
X156249476Y-110014048D01*
X156249476Y-109680714D01*
X156297095Y-109490238D01*
X156392333Y-109395000D01*
X156487571Y-109347381D01*
X156678048Y-109347381D01*
X156773286Y-109395000D01*
X156868524Y-109490238D01*
X156916143Y-109680714D01*
X156916143Y-110014048D01*
X156868524Y-110204524D01*
X156773286Y-110299762D01*
X156678048Y-110347381D01*
X156487571Y-110347381D01*
X157820905Y-109347381D02*
X157344714Y-109347381D01*
X157297095Y-109823571D01*
X157344714Y-109775952D01*
X157439952Y-109728333D01*
X157678048Y-109728333D01*
X157773286Y-109775952D01*
X157820905Y-109823571D01*
X157868524Y-109918810D01*
X157868524Y-110156905D01*
X157820905Y-110252143D01*
X157773286Y-110299762D01*
X157678048Y-110347381D01*
X157439952Y-110347381D01*
X157344714Y-110299762D01*
X157297095Y-110252143D01*
X163988762Y-88213619D02*
X163893524Y-88166000D01*
X163798286Y-88070762D01*
X163655429Y-87927905D01*
X163560190Y-87880286D01*
X163464952Y-87880286D01*
X163512571Y-88118381D02*
X163417333Y-88070762D01*
X163322095Y-87975524D01*
X163274476Y-87785048D01*
X163274476Y-87451714D01*
X163322095Y-87261238D01*
X163417333Y-87166000D01*
X163512571Y-87118381D01*
X163703048Y-87118381D01*
X163798286Y-87166000D01*
X163893524Y-87261238D01*
X163941143Y-87451714D01*
X163941143Y-87785048D01*
X163893524Y-87975524D01*
X163798286Y-88070762D01*
X163703048Y-88118381D01*
X163512571Y-88118381D01*
X164274476Y-87118381D02*
X164941143Y-87118381D01*
X164512571Y-88118381D01*
X120483334Y-81478381D02*
X120150000Y-81002190D01*
X119911905Y-81478381D02*
X119911905Y-80478381D01*
X120292858Y-80478381D01*
X120388096Y-80526000D01*
X120435715Y-80573619D01*
X120483334Y-80668857D01*
X120483334Y-80811714D01*
X120435715Y-80906952D01*
X120388096Y-80954571D01*
X120292858Y-81002190D01*
X119911905Y-81002190D01*
X121435715Y-81478381D02*
X120864286Y-81478381D01*
X121150000Y-81478381D02*
X121150000Y-80478381D01*
X121054762Y-80621238D01*
X120959524Y-80716476D01*
X120864286Y-80764095D01*
X118197334Y-81478381D02*
X117864000Y-81002190D01*
X117625905Y-81478381D02*
X117625905Y-80478381D01*
X118006858Y-80478381D01*
X118102096Y-80526000D01*
X118149715Y-80573619D01*
X118197334Y-80668857D01*
X118197334Y-80811714D01*
X118149715Y-80906952D01*
X118102096Y-80954571D01*
X118006858Y-81002190D01*
X117625905Y-81002190D01*
X118578286Y-80573619D02*
X118625905Y-80526000D01*
X118721143Y-80478381D01*
X118959239Y-80478381D01*
X119054477Y-80526000D01*
X119102096Y-80573619D01*
X119149715Y-80668857D01*
X119149715Y-80764095D01*
X119102096Y-80906952D01*
X118530667Y-81478381D01*
X119149715Y-81478381D01*
X129714334Y-137271381D02*
X129381000Y-136795190D01*
X129142905Y-137271381D02*
X129142905Y-136271381D01*
X129523858Y-136271381D01*
X129619096Y-136319000D01*
X129666715Y-136366619D01*
X129714334Y-136461857D01*
X129714334Y-136604714D01*
X129666715Y-136699952D01*
X129619096Y-136747571D01*
X129523858Y-136795190D01*
X129142905Y-136795190D01*
X130047667Y-136271381D02*
X130666715Y-136271381D01*
X130333381Y-136652333D01*
X130476239Y-136652333D01*
X130571477Y-136699952D01*
X130619096Y-136747571D01*
X130666715Y-136842810D01*
X130666715Y-137080905D01*
X130619096Y-137176143D01*
X130571477Y-137223762D01*
X130476239Y-137271381D01*
X130190524Y-137271381D01*
X130095286Y-137223762D01*
X130047667Y-137176143D01*
X125673381Y-139358666D02*
X125197190Y-139692000D01*
X125673381Y-139930095D02*
X124673381Y-139930095D01*
X124673381Y-139549142D01*
X124721000Y-139453904D01*
X124768619Y-139406285D01*
X124863857Y-139358666D01*
X125006714Y-139358666D01*
X125101952Y-139406285D01*
X125149571Y-139453904D01*
X125197190Y-139549142D01*
X125197190Y-139930095D01*
X125006714Y-138501523D02*
X125673381Y-138501523D01*
X124625762Y-138739619D02*
X125340048Y-138977714D01*
X125340048Y-138358666D01*
X113482381Y-87288666D02*
X113006190Y-87622000D01*
X113482381Y-87860095D02*
X112482381Y-87860095D01*
X112482381Y-87479142D01*
X112530000Y-87383904D01*
X112577619Y-87336285D01*
X112672857Y-87288666D01*
X112815714Y-87288666D01*
X112910952Y-87336285D01*
X112958571Y-87383904D01*
X113006190Y-87479142D01*
X113006190Y-87860095D01*
X112482381Y-86955333D02*
X112482381Y-86288666D01*
X113482381Y-86717238D01*
X133945334Y-72080381D02*
X133612000Y-71604190D01*
X133373905Y-72080381D02*
X133373905Y-71080381D01*
X133754858Y-71080381D01*
X133850096Y-71128000D01*
X133897715Y-71175619D01*
X133945334Y-71270857D01*
X133945334Y-71413714D01*
X133897715Y-71508952D01*
X133850096Y-71556571D01*
X133754858Y-71604190D01*
X133373905Y-71604190D01*
X134516762Y-71508952D02*
X134421524Y-71461333D01*
X134373905Y-71413714D01*
X134326286Y-71318476D01*
X134326286Y-71270857D01*
X134373905Y-71175619D01*
X134421524Y-71128000D01*
X134516762Y-71080381D01*
X134707239Y-71080381D01*
X134802477Y-71128000D01*
X134850096Y-71175619D01*
X134897715Y-71270857D01*
X134897715Y-71318476D01*
X134850096Y-71413714D01*
X134802477Y-71461333D01*
X134707239Y-71508952D01*
X134516762Y-71508952D01*
X134421524Y-71556571D01*
X134373905Y-71604190D01*
X134326286Y-71699429D01*
X134326286Y-71889905D01*
X134373905Y-71985143D01*
X134421524Y-72032762D01*
X134516762Y-72080381D01*
X134707239Y-72080381D01*
X134802477Y-72032762D01*
X134850096Y-71985143D01*
X134897715Y-71889905D01*
X134897715Y-71699429D01*
X134850096Y-71604190D01*
X134802477Y-71556571D01*
X134707239Y-71508952D01*
X132547334Y-142133581D02*
X132214000Y-141657390D01*
X131975905Y-142133581D02*
X131975905Y-141133581D01*
X132356858Y-141133581D01*
X132452096Y-141181200D01*
X132499715Y-141228819D01*
X132547334Y-141324057D01*
X132547334Y-141466914D01*
X132499715Y-141562152D01*
X132452096Y-141609771D01*
X132356858Y-141657390D01*
X131975905Y-141657390D01*
X133023524Y-142133581D02*
X133214000Y-142133581D01*
X133309239Y-142085962D01*
X133356858Y-142038343D01*
X133452096Y-141895486D01*
X133499715Y-141705010D01*
X133499715Y-141324057D01*
X133452096Y-141228819D01*
X133404477Y-141181200D01*
X133309239Y-141133581D01*
X133118762Y-141133581D01*
X133023524Y-141181200D01*
X132975905Y-141228819D01*
X132928286Y-141324057D01*
X132928286Y-141562152D01*
X132975905Y-141657390D01*
X133023524Y-141705010D01*
X133118762Y-141752629D01*
X133309239Y-141752629D01*
X133404477Y-141705010D01*
X133452096Y-141657390D01*
X133499715Y-141562152D01*
X139437143Y-142184381D02*
X139103809Y-141708190D01*
X138865714Y-142184381D02*
X138865714Y-141184381D01*
X139246667Y-141184381D01*
X139341905Y-141232000D01*
X139389524Y-141279619D01*
X139437143Y-141374857D01*
X139437143Y-141517714D01*
X139389524Y-141612952D01*
X139341905Y-141660571D01*
X139246667Y-141708190D01*
X138865714Y-141708190D01*
X140389524Y-142184381D02*
X139818095Y-142184381D01*
X140103809Y-142184381D02*
X140103809Y-141184381D01*
X140008571Y-141327238D01*
X139913333Y-141422476D01*
X139818095Y-141470095D01*
X141008571Y-141184381D02*
X141103810Y-141184381D01*
X141199048Y-141232000D01*
X141246667Y-141279619D01*
X141294286Y-141374857D01*
X141341905Y-141565333D01*
X141341905Y-141803429D01*
X141294286Y-141993905D01*
X141246667Y-142089143D01*
X141199048Y-142136762D01*
X141103810Y-142184381D01*
X141008571Y-142184381D01*
X140913333Y-142136762D01*
X140865714Y-142089143D01*
X140818095Y-141993905D01*
X140770476Y-141803429D01*
X140770476Y-141565333D01*
X140818095Y-141374857D01*
X140865714Y-141279619D01*
X140913333Y-141232000D01*
X141008571Y-141184381D01*
X113482381Y-83446857D02*
X113006190Y-83780191D01*
X113482381Y-84018286D02*
X112482381Y-84018286D01*
X112482381Y-83637333D01*
X112530000Y-83542095D01*
X112577619Y-83494476D01*
X112672857Y-83446857D01*
X112815714Y-83446857D01*
X112910952Y-83494476D01*
X112958571Y-83542095D01*
X113006190Y-83637333D01*
X113006190Y-84018286D01*
X113482381Y-82494476D02*
X113482381Y-83065905D01*
X113482381Y-82780191D02*
X112482381Y-82780191D01*
X112625238Y-82875429D01*
X112720476Y-82970667D01*
X112768095Y-83065905D01*
X113482381Y-81542095D02*
X113482381Y-82113524D01*
X113482381Y-81827810D02*
X112482381Y-81827810D01*
X112625238Y-81923048D01*
X112720476Y-82018286D01*
X112768095Y-82113524D01*
X124980381Y-68968857D02*
X124504190Y-69302191D01*
X124980381Y-69540286D02*
X123980381Y-69540286D01*
X123980381Y-69159333D01*
X124028000Y-69064095D01*
X124075619Y-69016476D01*
X124170857Y-68968857D01*
X124313714Y-68968857D01*
X124408952Y-69016476D01*
X124456571Y-69064095D01*
X124504190Y-69159333D01*
X124504190Y-69540286D01*
X124980381Y-68016476D02*
X124980381Y-68587905D01*
X124980381Y-68302191D02*
X123980381Y-68302191D01*
X124123238Y-68397429D01*
X124218476Y-68492667D01*
X124266095Y-68587905D01*
X124075619Y-67635524D02*
X124028000Y-67587905D01*
X123980381Y-67492667D01*
X123980381Y-67254571D01*
X124028000Y-67159333D01*
X124075619Y-67111714D01*
X124170857Y-67064095D01*
X124266095Y-67064095D01*
X124408952Y-67111714D01*
X124980381Y-67683143D01*
X124980381Y-67064095D01*
X131448381Y-96908857D02*
X130972190Y-97242191D01*
X131448381Y-97480286D02*
X130448381Y-97480286D01*
X130448381Y-97099333D01*
X130496000Y-97004095D01*
X130543619Y-96956476D01*
X130638857Y-96908857D01*
X130781714Y-96908857D01*
X130876952Y-96956476D01*
X130924571Y-97004095D01*
X130972190Y-97099333D01*
X130972190Y-97480286D01*
X131448381Y-95956476D02*
X131448381Y-96527905D01*
X131448381Y-96242191D02*
X130448381Y-96242191D01*
X130591238Y-96337429D01*
X130686476Y-96432667D01*
X130734095Y-96527905D01*
X130448381Y-95623143D02*
X130448381Y-95004095D01*
X130829333Y-95337429D01*
X130829333Y-95194571D01*
X130876952Y-95099333D01*
X130924571Y-95051714D01*
X131019810Y-95004095D01*
X131257905Y-95004095D01*
X131353143Y-95051714D01*
X131400762Y-95099333D01*
X131448381Y-95194571D01*
X131448381Y-95480286D01*
X131400762Y-95575524D01*
X131353143Y-95623143D01*
X142105143Y-65222381D02*
X141771809Y-64746190D01*
X141533714Y-65222381D02*
X141533714Y-64222381D01*
X141914667Y-64222381D01*
X142009905Y-64270000D01*
X142057524Y-64317619D01*
X142105143Y-64412857D01*
X142105143Y-64555714D01*
X142057524Y-64650952D01*
X142009905Y-64698571D01*
X141914667Y-64746190D01*
X141533714Y-64746190D01*
X143057524Y-65222381D02*
X142486095Y-65222381D01*
X142771809Y-65222381D02*
X142771809Y-64222381D01*
X142676571Y-64365238D01*
X142581333Y-64460476D01*
X142486095Y-64508095D01*
X143914667Y-64555714D02*
X143914667Y-65222381D01*
X143676571Y-64174762D02*
X143438476Y-64889048D01*
X144057524Y-64889048D01*
X145407143Y-78176381D02*
X145073809Y-77700190D01*
X144835714Y-78176381D02*
X144835714Y-77176381D01*
X145216667Y-77176381D01*
X145311905Y-77224000D01*
X145359524Y-77271619D01*
X145407143Y-77366857D01*
X145407143Y-77509714D01*
X145359524Y-77604952D01*
X145311905Y-77652571D01*
X145216667Y-77700190D01*
X144835714Y-77700190D01*
X146359524Y-78176381D02*
X145788095Y-78176381D01*
X146073809Y-78176381D02*
X146073809Y-77176381D01*
X145978571Y-77319238D01*
X145883333Y-77414476D01*
X145788095Y-77462095D01*
X147216667Y-77176381D02*
X147026190Y-77176381D01*
X146930952Y-77224000D01*
X146883333Y-77271619D01*
X146788095Y-77414476D01*
X146740476Y-77604952D01*
X146740476Y-77985905D01*
X146788095Y-78081143D01*
X146835714Y-78128762D01*
X146930952Y-78176381D01*
X147121429Y-78176381D01*
X147216667Y-78128762D01*
X147264286Y-78081143D01*
X147311905Y-77985905D01*
X147311905Y-77747810D01*
X147264286Y-77652571D01*
X147216667Y-77604952D01*
X147121429Y-77557333D01*
X146930952Y-77557333D01*
X146835714Y-77604952D01*
X146788095Y-77652571D01*
X146740476Y-77747810D01*
X132961143Y-64714381D02*
X132627809Y-64238190D01*
X132389714Y-64714381D02*
X132389714Y-63714381D01*
X132770667Y-63714381D01*
X132865905Y-63762000D01*
X132913524Y-63809619D01*
X132961143Y-63904857D01*
X132961143Y-64047714D01*
X132913524Y-64142952D01*
X132865905Y-64190571D01*
X132770667Y-64238190D01*
X132389714Y-64238190D01*
X133913524Y-64714381D02*
X133342095Y-64714381D01*
X133627809Y-64714381D02*
X133627809Y-63714381D01*
X133532571Y-63857238D01*
X133437333Y-63952476D01*
X133342095Y-64000095D01*
X134246857Y-63714381D02*
X134913524Y-63714381D01*
X134484952Y-64714381D01*
X129659143Y-64714381D02*
X129325809Y-64238190D01*
X129087714Y-64714381D02*
X129087714Y-63714381D01*
X129468667Y-63714381D01*
X129563905Y-63762000D01*
X129611524Y-63809619D01*
X129659143Y-63904857D01*
X129659143Y-64047714D01*
X129611524Y-64142952D01*
X129563905Y-64190571D01*
X129468667Y-64238190D01*
X129087714Y-64238190D01*
X130611524Y-64714381D02*
X130040095Y-64714381D01*
X130325809Y-64714381D02*
X130325809Y-63714381D01*
X130230571Y-63857238D01*
X130135333Y-63952476D01*
X130040095Y-64000095D01*
X131182952Y-64142952D02*
X131087714Y-64095333D01*
X131040095Y-64047714D01*
X130992476Y-63952476D01*
X130992476Y-63904857D01*
X131040095Y-63809619D01*
X131087714Y-63762000D01*
X131182952Y-63714381D01*
X131373429Y-63714381D01*
X131468667Y-63762000D01*
X131516286Y-63809619D01*
X131563905Y-63904857D01*
X131563905Y-63952476D01*
X131516286Y-64047714D01*
X131468667Y-64095333D01*
X131373429Y-64142952D01*
X131182952Y-64142952D01*
X131087714Y-64190571D01*
X131040095Y-64238190D01*
X130992476Y-64333429D01*
X130992476Y-64523905D01*
X131040095Y-64619143D01*
X131087714Y-64666762D01*
X131182952Y-64714381D01*
X131373429Y-64714381D01*
X131468667Y-64666762D01*
X131516286Y-64619143D01*
X131563905Y-64523905D01*
X131563905Y-64333429D01*
X131516286Y-64238190D01*
X131468667Y-64190571D01*
X131373429Y-64142952D01*
X129416381Y-93098857D02*
X128940190Y-93432191D01*
X129416381Y-93670286D02*
X128416381Y-93670286D01*
X128416381Y-93289333D01*
X128464000Y-93194095D01*
X128511619Y-93146476D01*
X128606857Y-93098857D01*
X128749714Y-93098857D01*
X128844952Y-93146476D01*
X128892571Y-93194095D01*
X128940190Y-93289333D01*
X128940190Y-93670286D01*
X129416381Y-92146476D02*
X129416381Y-92717905D01*
X129416381Y-92432191D02*
X128416381Y-92432191D01*
X128559238Y-92527429D01*
X128654476Y-92622667D01*
X128702095Y-92717905D01*
X129416381Y-91670286D02*
X129416381Y-91479810D01*
X129368762Y-91384571D01*
X129321143Y-91336952D01*
X129178286Y-91241714D01*
X128987810Y-91194095D01*
X128606857Y-91194095D01*
X128511619Y-91241714D01*
X128464000Y-91289333D01*
X128416381Y-91384571D01*
X128416381Y-91575048D01*
X128464000Y-91670286D01*
X128511619Y-91717905D01*
X128606857Y-91765524D01*
X128844952Y-91765524D01*
X128940190Y-91717905D01*
X128987810Y-91670286D01*
X129035429Y-91575048D01*
X129035429Y-91384571D01*
X128987810Y-91289333D01*
X128940190Y-91241714D01*
X128844952Y-91194095D01*
X152860143Y-76565381D02*
X152526809Y-76089190D01*
X152288714Y-76565381D02*
X152288714Y-75565381D01*
X152669667Y-75565381D01*
X152764905Y-75613000D01*
X152812524Y-75660619D01*
X152860143Y-75755857D01*
X152860143Y-75898714D01*
X152812524Y-75993952D01*
X152764905Y-76041571D01*
X152669667Y-76089190D01*
X152288714Y-76089190D01*
X153241095Y-75660619D02*
X153288714Y-75613000D01*
X153383952Y-75565381D01*
X153622048Y-75565381D01*
X153717286Y-75613000D01*
X153764905Y-75660619D01*
X153812524Y-75755857D01*
X153812524Y-75851095D01*
X153764905Y-75993952D01*
X153193476Y-76565381D01*
X153812524Y-76565381D01*
X154764905Y-76565381D02*
X154193476Y-76565381D01*
X154479190Y-76565381D02*
X154479190Y-75565381D01*
X154383952Y-75708238D01*
X154288714Y-75803476D01*
X154193476Y-75851095D01*
X136410381Y-87002857D02*
X135934190Y-87336191D01*
X136410381Y-87574286D02*
X135410381Y-87574286D01*
X135410381Y-87193333D01*
X135458000Y-87098095D01*
X135505619Y-87050476D01*
X135600857Y-87002857D01*
X135743714Y-87002857D01*
X135838952Y-87050476D01*
X135886571Y-87098095D01*
X135934190Y-87193333D01*
X135934190Y-87574286D01*
X135505619Y-86621905D02*
X135458000Y-86574286D01*
X135410381Y-86479048D01*
X135410381Y-86240952D01*
X135458000Y-86145714D01*
X135505619Y-86098095D01*
X135600857Y-86050476D01*
X135696095Y-86050476D01*
X135838952Y-86098095D01*
X136410381Y-86669524D01*
X136410381Y-86050476D01*
X135505619Y-85669524D02*
X135458000Y-85621905D01*
X135410381Y-85526667D01*
X135410381Y-85288571D01*
X135458000Y-85193333D01*
X135505619Y-85145714D01*
X135600857Y-85098095D01*
X135696095Y-85098095D01*
X135838952Y-85145714D01*
X136410381Y-85717143D01*
X136410381Y-85098095D01*
X165298381Y-73286857D02*
X164822190Y-73620191D01*
X165298381Y-73858286D02*
X164298381Y-73858286D01*
X164298381Y-73477333D01*
X164346000Y-73382095D01*
X164393619Y-73334476D01*
X164488857Y-73286857D01*
X164631714Y-73286857D01*
X164726952Y-73334476D01*
X164774571Y-73382095D01*
X164822190Y-73477333D01*
X164822190Y-73858286D01*
X164393619Y-72905905D02*
X164346000Y-72858286D01*
X164298381Y-72763048D01*
X164298381Y-72524952D01*
X164346000Y-72429714D01*
X164393619Y-72382095D01*
X164488857Y-72334476D01*
X164584095Y-72334476D01*
X164726952Y-72382095D01*
X165298381Y-72953524D01*
X165298381Y-72334476D01*
X164298381Y-72001143D02*
X164298381Y-71382095D01*
X164679333Y-71715429D01*
X164679333Y-71572571D01*
X164726952Y-71477333D01*
X164774571Y-71429714D01*
X164869810Y-71382095D01*
X165107905Y-71382095D01*
X165203143Y-71429714D01*
X165250762Y-71477333D01*
X165298381Y-71572571D01*
X165298381Y-71858286D01*
X165250762Y-71953524D01*
X165203143Y-72001143D01*
X165298381Y-70238857D02*
X164822190Y-70572191D01*
X165298381Y-70810286D02*
X164298381Y-70810286D01*
X164298381Y-70429333D01*
X164346000Y-70334095D01*
X164393619Y-70286476D01*
X164488857Y-70238857D01*
X164631714Y-70238857D01*
X164726952Y-70286476D01*
X164774571Y-70334095D01*
X164822190Y-70429333D01*
X164822190Y-70810286D01*
X164393619Y-69857905D02*
X164346000Y-69810286D01*
X164298381Y-69715048D01*
X164298381Y-69476952D01*
X164346000Y-69381714D01*
X164393619Y-69334095D01*
X164488857Y-69286476D01*
X164584095Y-69286476D01*
X164726952Y-69334095D01*
X165298381Y-69905524D01*
X165298381Y-69286476D01*
X164631714Y-68429333D02*
X165298381Y-68429333D01*
X164250762Y-68667429D02*
X164965048Y-68905524D01*
X164965048Y-68286476D01*
X148026381Y-72778857D02*
X147550190Y-73112191D01*
X148026381Y-73350286D02*
X147026381Y-73350286D01*
X147026381Y-72969333D01*
X147074000Y-72874095D01*
X147121619Y-72826476D01*
X147216857Y-72778857D01*
X147359714Y-72778857D01*
X147454952Y-72826476D01*
X147502571Y-72874095D01*
X147550190Y-72969333D01*
X147550190Y-73350286D01*
X147121619Y-72397905D02*
X147074000Y-72350286D01*
X147026381Y-72255048D01*
X147026381Y-72016952D01*
X147074000Y-71921714D01*
X147121619Y-71874095D01*
X147216857Y-71826476D01*
X147312095Y-71826476D01*
X147454952Y-71874095D01*
X148026381Y-72445524D01*
X148026381Y-71826476D01*
X147026381Y-70969333D02*
X147026381Y-71159810D01*
X147074000Y-71255048D01*
X147121619Y-71302667D01*
X147264476Y-71397905D01*
X147454952Y-71445524D01*
X147835905Y-71445524D01*
X147931143Y-71397905D01*
X147978762Y-71350286D01*
X148026381Y-71255048D01*
X148026381Y-71064571D01*
X147978762Y-70969333D01*
X147931143Y-70921714D01*
X147835905Y-70874095D01*
X147597810Y-70874095D01*
X147502571Y-70921714D01*
X147454952Y-70969333D01*
X147407333Y-71064571D01*
X147407333Y-71255048D01*
X147454952Y-71350286D01*
X147502571Y-71397905D01*
X147597810Y-71445524D01*
X149471143Y-77160381D02*
X149137809Y-76684190D01*
X148899714Y-77160381D02*
X148899714Y-76160381D01*
X149280667Y-76160381D01*
X149375905Y-76208000D01*
X149423524Y-76255619D01*
X149471143Y-76350857D01*
X149471143Y-76493714D01*
X149423524Y-76588952D01*
X149375905Y-76636571D01*
X149280667Y-76684190D01*
X148899714Y-76684190D01*
X149852095Y-76255619D02*
X149899714Y-76208000D01*
X149994952Y-76160381D01*
X150233048Y-76160381D01*
X150328286Y-76208000D01*
X150375905Y-76255619D01*
X150423524Y-76350857D01*
X150423524Y-76446095D01*
X150375905Y-76588952D01*
X149804476Y-77160381D01*
X150423524Y-77160381D01*
X150756857Y-76160381D02*
X151423524Y-76160381D01*
X150994952Y-77160381D01*
X123983381Y-85899857D02*
X123507190Y-86233191D01*
X123983381Y-86471286D02*
X122983381Y-86471286D01*
X122983381Y-86090333D01*
X123031000Y-85995095D01*
X123078619Y-85947476D01*
X123173857Y-85899857D01*
X123316714Y-85899857D01*
X123411952Y-85947476D01*
X123459571Y-85995095D01*
X123507190Y-86090333D01*
X123507190Y-86471286D01*
X123078619Y-85518905D02*
X123031000Y-85471286D01*
X122983381Y-85376048D01*
X122983381Y-85137952D01*
X123031000Y-85042714D01*
X123078619Y-84995095D01*
X123173857Y-84947476D01*
X123269095Y-84947476D01*
X123411952Y-84995095D01*
X123983381Y-85566524D01*
X123983381Y-84947476D01*
X123411952Y-84376048D02*
X123364333Y-84471286D01*
X123316714Y-84518905D01*
X123221476Y-84566524D01*
X123173857Y-84566524D01*
X123078619Y-84518905D01*
X123031000Y-84471286D01*
X122983381Y-84376048D01*
X122983381Y-84185571D01*
X123031000Y-84090333D01*
X123078619Y-84042714D01*
X123173857Y-83995095D01*
X123221476Y-83995095D01*
X123316714Y-84042714D01*
X123364333Y-84090333D01*
X123411952Y-84185571D01*
X123411952Y-84376048D01*
X123459571Y-84471286D01*
X123507190Y-84518905D01*
X123602429Y-84566524D01*
X123792905Y-84566524D01*
X123888143Y-84518905D01*
X123935762Y-84471286D01*
X123983381Y-84376048D01*
X123983381Y-84185571D01*
X123935762Y-84090333D01*
X123888143Y-84042714D01*
X123792905Y-83995095D01*
X123602429Y-83995095D01*
X123507190Y-84042714D01*
X123459571Y-84090333D01*
X123411952Y-84185571D01*
X117292381Y-76334857D02*
X116816190Y-76668191D01*
X117292381Y-76906286D02*
X116292381Y-76906286D01*
X116292381Y-76525333D01*
X116340000Y-76430095D01*
X116387619Y-76382476D01*
X116482857Y-76334857D01*
X116625714Y-76334857D01*
X116720952Y-76382476D01*
X116768571Y-76430095D01*
X116816190Y-76525333D01*
X116816190Y-76906286D01*
X116387619Y-75953905D02*
X116340000Y-75906286D01*
X116292381Y-75811048D01*
X116292381Y-75572952D01*
X116340000Y-75477714D01*
X116387619Y-75430095D01*
X116482857Y-75382476D01*
X116578095Y-75382476D01*
X116720952Y-75430095D01*
X117292381Y-76001524D01*
X117292381Y-75382476D01*
X117292381Y-74906286D02*
X117292381Y-74715810D01*
X117244762Y-74620571D01*
X117197143Y-74572952D01*
X117054286Y-74477714D01*
X116863810Y-74430095D01*
X116482857Y-74430095D01*
X116387619Y-74477714D01*
X116340000Y-74525333D01*
X116292381Y-74620571D01*
X116292381Y-74811048D01*
X116340000Y-74906286D01*
X116387619Y-74953905D01*
X116482857Y-75001524D01*
X116720952Y-75001524D01*
X116816190Y-74953905D01*
X116863810Y-74906286D01*
X116911429Y-74811048D01*
X116911429Y-74620571D01*
X116863810Y-74525333D01*
X116816190Y-74477714D01*
X116720952Y-74430095D01*
X121785143Y-75382381D02*
X121451809Y-74906190D01*
X121213714Y-75382381D02*
X121213714Y-74382381D01*
X121594667Y-74382381D01*
X121689905Y-74430000D01*
X121737524Y-74477619D01*
X121785143Y-74572857D01*
X121785143Y-74715714D01*
X121737524Y-74810952D01*
X121689905Y-74858571D01*
X121594667Y-74906190D01*
X121213714Y-74906190D01*
X122118476Y-74382381D02*
X122737524Y-74382381D01*
X122404190Y-74763333D01*
X122547048Y-74763333D01*
X122642286Y-74810952D01*
X122689905Y-74858571D01*
X122737524Y-74953810D01*
X122737524Y-75191905D01*
X122689905Y-75287143D01*
X122642286Y-75334762D01*
X122547048Y-75382381D01*
X122261333Y-75382381D01*
X122166095Y-75334762D01*
X122118476Y-75287143D01*
X123356571Y-74382381D02*
X123451810Y-74382381D01*
X123547048Y-74430000D01*
X123594667Y-74477619D01*
X123642286Y-74572857D01*
X123689905Y-74763333D01*
X123689905Y-75001429D01*
X123642286Y-75191905D01*
X123594667Y-75287143D01*
X123547048Y-75334762D01*
X123451810Y-75382381D01*
X123356571Y-75382381D01*
X123261333Y-75334762D01*
X123213714Y-75287143D01*
X123166095Y-75191905D01*
X123118476Y-75001429D01*
X123118476Y-74763333D01*
X123166095Y-74572857D01*
X123213714Y-74477619D01*
X123261333Y-74430000D01*
X123356571Y-74382381D01*
X149471143Y-65476381D02*
X149137809Y-65000190D01*
X148899714Y-65476381D02*
X148899714Y-64476381D01*
X149280667Y-64476381D01*
X149375905Y-64524000D01*
X149423524Y-64571619D01*
X149471143Y-64666857D01*
X149471143Y-64809714D01*
X149423524Y-64904952D01*
X149375905Y-64952571D01*
X149280667Y-65000190D01*
X148899714Y-65000190D01*
X149804476Y-64476381D02*
X150423524Y-64476381D01*
X150090190Y-64857333D01*
X150233048Y-64857333D01*
X150328286Y-64904952D01*
X150375905Y-64952571D01*
X150423524Y-65047810D01*
X150423524Y-65285905D01*
X150375905Y-65381143D01*
X150328286Y-65428762D01*
X150233048Y-65476381D01*
X149947333Y-65476381D01*
X149852095Y-65428762D01*
X149804476Y-65381143D01*
X150804476Y-64571619D02*
X150852095Y-64524000D01*
X150947333Y-64476381D01*
X151185429Y-64476381D01*
X151280667Y-64524000D01*
X151328286Y-64571619D01*
X151375905Y-64666857D01*
X151375905Y-64762095D01*
X151328286Y-64904952D01*
X150756857Y-65476381D01*
X151375905Y-65476381D01*
X121678381Y-97035857D02*
X121202190Y-97369191D01*
X121678381Y-97607286D02*
X120678381Y-97607286D01*
X120678381Y-97226333D01*
X120726000Y-97131095D01*
X120773619Y-97083476D01*
X120868857Y-97035857D01*
X121011714Y-97035857D01*
X121106952Y-97083476D01*
X121154571Y-97131095D01*
X121202190Y-97226333D01*
X121202190Y-97607286D01*
X120678381Y-96702524D02*
X120678381Y-96083476D01*
X121059333Y-96416810D01*
X121059333Y-96273952D01*
X121106952Y-96178714D01*
X121154571Y-96131095D01*
X121249810Y-96083476D01*
X121487905Y-96083476D01*
X121583143Y-96131095D01*
X121630762Y-96178714D01*
X121678381Y-96273952D01*
X121678381Y-96559667D01*
X121630762Y-96654905D01*
X121583143Y-96702524D01*
X120678381Y-95750143D02*
X120678381Y-95131095D01*
X121059333Y-95464429D01*
X121059333Y-95321571D01*
X121106952Y-95226333D01*
X121154571Y-95178714D01*
X121249810Y-95131095D01*
X121487905Y-95131095D01*
X121583143Y-95178714D01*
X121630762Y-95226333D01*
X121678381Y-95321571D01*
X121678381Y-95607286D01*
X121630762Y-95702524D01*
X121583143Y-95750143D01*
X121678381Y-93098857D02*
X121202190Y-93432191D01*
X121678381Y-93670286D02*
X120678381Y-93670286D01*
X120678381Y-93289333D01*
X120726000Y-93194095D01*
X120773619Y-93146476D01*
X120868857Y-93098857D01*
X121011714Y-93098857D01*
X121106952Y-93146476D01*
X121154571Y-93194095D01*
X121202190Y-93289333D01*
X121202190Y-93670286D01*
X120678381Y-92765524D02*
X120678381Y-92146476D01*
X121059333Y-92479810D01*
X121059333Y-92336952D01*
X121106952Y-92241714D01*
X121154571Y-92194095D01*
X121249810Y-92146476D01*
X121487905Y-92146476D01*
X121583143Y-92194095D01*
X121630762Y-92241714D01*
X121678381Y-92336952D01*
X121678381Y-92622667D01*
X121630762Y-92717905D01*
X121583143Y-92765524D01*
X120678381Y-91241714D02*
X120678381Y-91717905D01*
X121154571Y-91765524D01*
X121106952Y-91717905D01*
X121059333Y-91622667D01*
X121059333Y-91384571D01*
X121106952Y-91289333D01*
X121154571Y-91241714D01*
X121249810Y-91194095D01*
X121487905Y-91194095D01*
X121583143Y-91241714D01*
X121630762Y-91289333D01*
X121678381Y-91384571D01*
X121678381Y-91622667D01*
X121630762Y-91717905D01*
X121583143Y-91765524D01*
X110101143Y-95194381D02*
X109767809Y-94718190D01*
X109529714Y-95194381D02*
X109529714Y-94194381D01*
X109910667Y-94194381D01*
X110005905Y-94242000D01*
X110053524Y-94289619D01*
X110101143Y-94384857D01*
X110101143Y-94527714D01*
X110053524Y-94622952D01*
X110005905Y-94670571D01*
X109910667Y-94718190D01*
X109529714Y-94718190D01*
X110434476Y-94194381D02*
X111053524Y-94194381D01*
X110720190Y-94575333D01*
X110863048Y-94575333D01*
X110958286Y-94622952D01*
X111005905Y-94670571D01*
X111053524Y-94765810D01*
X111053524Y-95003905D01*
X111005905Y-95099143D01*
X110958286Y-95146762D01*
X110863048Y-95194381D01*
X110577333Y-95194381D01*
X110482095Y-95146762D01*
X110434476Y-95099143D01*
X111910667Y-94194381D02*
X111720190Y-94194381D01*
X111624952Y-94242000D01*
X111577333Y-94289619D01*
X111482095Y-94432476D01*
X111434476Y-94622952D01*
X111434476Y-95003905D01*
X111482095Y-95099143D01*
X111529714Y-95146762D01*
X111624952Y-95194381D01*
X111815429Y-95194381D01*
X111910667Y-95146762D01*
X111958286Y-95099143D01*
X112005905Y-95003905D01*
X112005905Y-94765810D01*
X111958286Y-94670571D01*
X111910667Y-94622952D01*
X111815429Y-94575333D01*
X111624952Y-94575333D01*
X111529714Y-94622952D01*
X111482095Y-94670571D01*
X111434476Y-94765810D01*
X124853381Y-95384857D02*
X124377190Y-95718191D01*
X124853381Y-95956286D02*
X123853381Y-95956286D01*
X123853381Y-95575333D01*
X123901000Y-95480095D01*
X123948619Y-95432476D01*
X124043857Y-95384857D01*
X124186714Y-95384857D01*
X124281952Y-95432476D01*
X124329571Y-95480095D01*
X124377190Y-95575333D01*
X124377190Y-95956286D01*
X123853381Y-95051524D02*
X123853381Y-94432476D01*
X124234333Y-94765810D01*
X124234333Y-94622952D01*
X124281952Y-94527714D01*
X124329571Y-94480095D01*
X124424810Y-94432476D01*
X124662905Y-94432476D01*
X124758143Y-94480095D01*
X124805762Y-94527714D01*
X124853381Y-94622952D01*
X124853381Y-94908667D01*
X124805762Y-95003905D01*
X124758143Y-95051524D01*
X123853381Y-94099143D02*
X123853381Y-93432476D01*
X124853381Y-93861048D01*
X152986143Y-85241381D02*
X152652809Y-84765190D01*
X152414714Y-85241381D02*
X152414714Y-84241381D01*
X152795667Y-84241381D01*
X152890905Y-84289000D01*
X152938524Y-84336619D01*
X152986143Y-84431857D01*
X152986143Y-84574714D01*
X152938524Y-84669952D01*
X152890905Y-84717571D01*
X152795667Y-84765190D01*
X152414714Y-84765190D01*
X153319476Y-84241381D02*
X153938524Y-84241381D01*
X153605190Y-84622333D01*
X153748048Y-84622333D01*
X153843286Y-84669952D01*
X153890905Y-84717571D01*
X153938524Y-84812810D01*
X153938524Y-85050905D01*
X153890905Y-85146143D01*
X153843286Y-85193762D01*
X153748048Y-85241381D01*
X153462333Y-85241381D01*
X153367095Y-85193762D01*
X153319476Y-85146143D01*
X154414714Y-85241381D02*
X154605190Y-85241381D01*
X154700429Y-85193762D01*
X154748048Y-85146143D01*
X154843286Y-85003286D01*
X154890905Y-84812810D01*
X154890905Y-84431857D01*
X154843286Y-84336619D01*
X154795667Y-84289000D01*
X154700429Y-84241381D01*
X154509952Y-84241381D01*
X154414714Y-84289000D01*
X154367095Y-84336619D01*
X154319476Y-84431857D01*
X154319476Y-84669952D01*
X154367095Y-84765190D01*
X154414714Y-84812810D01*
X154509952Y-84860429D01*
X154700429Y-84860429D01*
X154795667Y-84812810D01*
X154843286Y-84765190D01*
X154890905Y-84669952D01*
X157864381Y-92590857D02*
X157388190Y-92924191D01*
X157864381Y-93162286D02*
X156864381Y-93162286D01*
X156864381Y-92781333D01*
X156912000Y-92686095D01*
X156959619Y-92638476D01*
X157054857Y-92590857D01*
X157197714Y-92590857D01*
X157292952Y-92638476D01*
X157340571Y-92686095D01*
X157388190Y-92781333D01*
X157388190Y-93162286D01*
X157197714Y-91733714D02*
X157864381Y-91733714D01*
X156816762Y-91971810D02*
X157531048Y-92209905D01*
X157531048Y-91590857D01*
X156864381Y-91019429D02*
X156864381Y-90924190D01*
X156912000Y-90828952D01*
X156959619Y-90781333D01*
X157054857Y-90733714D01*
X157245333Y-90686095D01*
X157483429Y-90686095D01*
X157673905Y-90733714D01*
X157769143Y-90781333D01*
X157816762Y-90828952D01*
X157864381Y-90924190D01*
X157864381Y-91019429D01*
X157816762Y-91114667D01*
X157769143Y-91162286D01*
X157673905Y-91209905D01*
X157483429Y-91257524D01*
X157245333Y-91257524D01*
X157054857Y-91209905D01*
X156959619Y-91162286D01*
X156912000Y-91114667D01*
X156864381Y-91019429D01*
X162591381Y-85732857D02*
X162115190Y-86066191D01*
X162591381Y-86304286D02*
X161591381Y-86304286D01*
X161591381Y-85923333D01*
X161639000Y-85828095D01*
X161686619Y-85780476D01*
X161781857Y-85732857D01*
X161924714Y-85732857D01*
X162019952Y-85780476D01*
X162067571Y-85828095D01*
X162115190Y-85923333D01*
X162115190Y-86304286D01*
X161924714Y-84875714D02*
X162591381Y-84875714D01*
X161543762Y-85113810D02*
X162258048Y-85351905D01*
X162258048Y-84732857D01*
X162591381Y-83828095D02*
X162591381Y-84399524D01*
X162591381Y-84113810D02*
X161591381Y-84113810D01*
X161734238Y-84209048D01*
X161829476Y-84304286D01*
X161877095Y-84399524D01*
X106513095Y-106807381D02*
X106513095Y-107616905D01*
X106560714Y-107712143D01*
X106608333Y-107759762D01*
X106703571Y-107807381D01*
X106894048Y-107807381D01*
X106989286Y-107759762D01*
X107036905Y-107712143D01*
X107084524Y-107616905D01*
X107084524Y-106807381D01*
X108084524Y-107807381D02*
X107513095Y-107807381D01*
X107798809Y-107807381D02*
X107798809Y-106807381D01*
X107703571Y-106950238D01*
X107608333Y-107045476D01*
X107513095Y-107093095D01*
X111593095Y-122301381D02*
X111593095Y-123110905D01*
X111640714Y-123206143D01*
X111688333Y-123253762D01*
X111783571Y-123301381D01*
X111974048Y-123301381D01*
X112069286Y-123253762D01*
X112116905Y-123206143D01*
X112164524Y-123110905D01*
X112164524Y-122301381D01*
X112593095Y-122396619D02*
X112640714Y-122349000D01*
X112735952Y-122301381D01*
X112974048Y-122301381D01*
X113069286Y-122349000D01*
X113116905Y-122396619D01*
X113164524Y-122491857D01*
X113164524Y-122587095D01*
X113116905Y-122729952D01*
X112545476Y-123301381D01*
X113164524Y-123301381D01*
X132381381Y-80430905D02*
X133190905Y-80430905D01*
X133286143Y-80383286D01*
X133333762Y-80335667D01*
X133381381Y-80240429D01*
X133381381Y-80049952D01*
X133333762Y-79954714D01*
X133286143Y-79907095D01*
X133190905Y-79859476D01*
X132381381Y-79859476D01*
X132381381Y-79478524D02*
X132381381Y-78859476D01*
X132762333Y-79192810D01*
X132762333Y-79049952D01*
X132809952Y-78954714D01*
X132857571Y-78907095D01*
X132952810Y-78859476D01*
X133190905Y-78859476D01*
X133286143Y-78907095D01*
X133333762Y-78954714D01*
X133381381Y-79049952D01*
X133381381Y-79335667D01*
X133333762Y-79430905D01*
X133286143Y-79478524D01*
D14*
X169959524Y-96124095D02*
X169959524Y-96326476D01*
X169971429Y-96350286D01*
X169983333Y-96362190D01*
X170007143Y-96374095D01*
X170054762Y-96374095D01*
X170078571Y-96362190D01*
X170090476Y-96350286D01*
X170102381Y-96326476D01*
X170102381Y-96124095D01*
X170328572Y-96207429D02*
X170328572Y-96374095D01*
X170269048Y-96112190D02*
X170209524Y-96290762D01*
X170364286Y-96290762D01*
D12*
X163496334Y-135747381D02*
X163020143Y-135747381D01*
X163020143Y-134747381D01*
X164353477Y-135747381D02*
X163782048Y-135747381D01*
X164067762Y-135747381D02*
X164067762Y-134747381D01*
X163972524Y-134890238D01*
X163877286Y-134985476D01*
X163782048Y-135033095D01*
D15*
X151275143Y-121224524D02*
X151275143Y-119954524D01*
X152000857Y-121224524D01*
X152000857Y-119954524D01*
X153331333Y-121103571D02*
X153270857Y-121164048D01*
X153089428Y-121224524D01*
X152968476Y-121224524D01*
X152787048Y-121164048D01*
X152666095Y-121043095D01*
X152605619Y-120922143D01*
X152545143Y-120680238D01*
X152545143Y-120498810D01*
X152605619Y-120256905D01*
X152666095Y-120135952D01*
X152787048Y-120015000D01*
X152968476Y-119954524D01*
X153089428Y-119954524D01*
X153270857Y-120015000D01*
X153331333Y-120075476D01*
D12*
X156995905Y-74874381D02*
X156995905Y-73874381D01*
X157234000Y-73874381D01*
X157376858Y-73922000D01*
X157472096Y-74017238D01*
X157519715Y-74112476D01*
X157567334Y-74302952D01*
X157567334Y-74445810D01*
X157519715Y-74636286D01*
X157472096Y-74731524D01*
X157376858Y-74826762D01*
X157234000Y-74874381D01*
X156995905Y-74874381D01*
X157900667Y-73874381D02*
X158519715Y-73874381D01*
X158186381Y-74255333D01*
X158329239Y-74255333D01*
X158424477Y-74302952D01*
X158472096Y-74350571D01*
X158519715Y-74445810D01*
X158519715Y-74683905D01*
X158472096Y-74779143D01*
X158424477Y-74826762D01*
X158329239Y-74874381D01*
X158043524Y-74874381D01*
X157948286Y-74826762D01*
X157900667Y-74779143D01*
X153693905Y-74874381D02*
X153693905Y-73874381D01*
X153932000Y-73874381D01*
X154074858Y-73922000D01*
X154170096Y-74017238D01*
X154217715Y-74112476D01*
X154265334Y-74302952D01*
X154265334Y-74445810D01*
X154217715Y-74636286D01*
X154170096Y-74731524D01*
X154074858Y-74826762D01*
X153932000Y-74874381D01*
X153693905Y-74874381D01*
X155122477Y-74207714D02*
X155122477Y-74874381D01*
X154884381Y-73826762D02*
X154646286Y-74541048D01*
X155265334Y-74541048D01*
X150487143Y-97226381D02*
X150153809Y-96750190D01*
X149915714Y-97226381D02*
X149915714Y-96226381D01*
X150296667Y-96226381D01*
X150391905Y-96274000D01*
X150439524Y-96321619D01*
X150487143Y-96416857D01*
X150487143Y-96559714D01*
X150439524Y-96654952D01*
X150391905Y-96702571D01*
X150296667Y-96750190D01*
X149915714Y-96750190D01*
X151439524Y-97226381D02*
X150868095Y-97226381D01*
X151153809Y-97226381D02*
X151153809Y-96226381D01*
X151058571Y-96369238D01*
X150963333Y-96464476D01*
X150868095Y-96512095D01*
X152344286Y-96226381D02*
X151868095Y-96226381D01*
X151820476Y-96702571D01*
X151868095Y-96654952D01*
X151963333Y-96607333D01*
X152201429Y-96607333D01*
X152296667Y-96654952D01*
X152344286Y-96702571D01*
X152391905Y-96797810D01*
X152391905Y-97035905D01*
X152344286Y-97131143D01*
X152296667Y-97178762D01*
X152201429Y-97226381D01*
X151963333Y-97226381D01*
X151868095Y-97178762D01*
X151820476Y-97131143D01*
X143121143Y-95702381D02*
X142787809Y-95226190D01*
X142549714Y-95702381D02*
X142549714Y-94702381D01*
X142930667Y-94702381D01*
X143025905Y-94750000D01*
X143073524Y-94797619D01*
X143121143Y-94892857D01*
X143121143Y-95035714D01*
X143073524Y-95130952D01*
X143025905Y-95178571D01*
X142930667Y-95226190D01*
X142549714Y-95226190D01*
X143502095Y-94797619D02*
X143549714Y-94750000D01*
X143644952Y-94702381D01*
X143883048Y-94702381D01*
X143978286Y-94750000D01*
X144025905Y-94797619D01*
X144073524Y-94892857D01*
X144073524Y-94988095D01*
X144025905Y-95130952D01*
X143454476Y-95702381D01*
X144073524Y-95702381D01*
X144978286Y-94702381D02*
X144502095Y-94702381D01*
X144454476Y-95178571D01*
X144502095Y-95130952D01*
X144597333Y-95083333D01*
X144835429Y-95083333D01*
X144930667Y-95130952D01*
X144978286Y-95178571D01*
X145025905Y-95273810D01*
X145025905Y-95511905D01*
X144978286Y-95607143D01*
X144930667Y-95654762D01*
X144835429Y-95702381D01*
X144597333Y-95702381D01*
X144502095Y-95654762D01*
X144454476Y-95607143D01*
X136009143Y-101290381D02*
X135675809Y-100814190D01*
X135437714Y-101290381D02*
X135437714Y-100290381D01*
X135818667Y-100290381D01*
X135913905Y-100338000D01*
X135961524Y-100385619D01*
X136009143Y-100480857D01*
X136009143Y-100623714D01*
X135961524Y-100718952D01*
X135913905Y-100766571D01*
X135818667Y-100814190D01*
X135437714Y-100814190D01*
X136342476Y-100290381D02*
X136961524Y-100290381D01*
X136628190Y-100671333D01*
X136771048Y-100671333D01*
X136866286Y-100718952D01*
X136913905Y-100766571D01*
X136961524Y-100861810D01*
X136961524Y-101099905D01*
X136913905Y-101195143D01*
X136866286Y-101242762D01*
X136771048Y-101290381D01*
X136485333Y-101290381D01*
X136390095Y-101242762D01*
X136342476Y-101195143D01*
X137818667Y-100623714D02*
X137818667Y-101290381D01*
X137580571Y-100242762D02*
X137342476Y-100957048D01*
X137961524Y-100957048D01*
X160972143Y-78787857D02*
X161019762Y-78835476D01*
X161067381Y-78978333D01*
X161067381Y-79073571D01*
X161019762Y-79216429D01*
X160924524Y-79311667D01*
X160829286Y-79359286D01*
X160638810Y-79406905D01*
X160495952Y-79406905D01*
X160305476Y-79359286D01*
X160210238Y-79311667D01*
X160115000Y-79216429D01*
X160067381Y-79073571D01*
X160067381Y-78978333D01*
X160115000Y-78835476D01*
X160162619Y-78787857D01*
X160067381Y-78454524D02*
X160067381Y-77835476D01*
X160448333Y-78168810D01*
X160448333Y-78025952D01*
X160495952Y-77930714D01*
X160543571Y-77883095D01*
X160638810Y-77835476D01*
X160876905Y-77835476D01*
X160972143Y-77883095D01*
X161019762Y-77930714D01*
X161067381Y-78025952D01*
X161067381Y-78311667D01*
X161019762Y-78406905D01*
X160972143Y-78454524D01*
X160067381Y-77502143D02*
X160067381Y-76835476D01*
X161067381Y-77264048D01*
X173104381Y-102496857D02*
X172628190Y-102830191D01*
X173104381Y-103068286D02*
X172104381Y-103068286D01*
X172104381Y-102687333D01*
X172152000Y-102592095D01*
X172199619Y-102544476D01*
X172294857Y-102496857D01*
X172437714Y-102496857D01*
X172532952Y-102544476D01*
X172580571Y-102592095D01*
X172628190Y-102687333D01*
X172628190Y-103068286D01*
X172437714Y-101639714D02*
X173104381Y-101639714D01*
X172056762Y-101877810D02*
X172771048Y-102115905D01*
X172771048Y-101496857D01*
X172104381Y-101211143D02*
X172104381Y-100592095D01*
X172485333Y-100925429D01*
X172485333Y-100782571D01*
X172532952Y-100687333D01*
X172580571Y-100639714D01*
X172675810Y-100592095D01*
X172913905Y-100592095D01*
X173009143Y-100639714D01*
X173056762Y-100687333D01*
X173104381Y-100782571D01*
X173104381Y-101068286D01*
X173056762Y-101163524D01*
X173009143Y-101211143D01*
X180352381Y-102496857D02*
X179876190Y-102830191D01*
X180352381Y-103068286D02*
X179352381Y-103068286D01*
X179352381Y-102687333D01*
X179400000Y-102592095D01*
X179447619Y-102544476D01*
X179542857Y-102496857D01*
X179685714Y-102496857D01*
X179780952Y-102544476D01*
X179828571Y-102592095D01*
X179876190Y-102687333D01*
X179876190Y-103068286D01*
X179685714Y-101639714D02*
X180352381Y-101639714D01*
X179304762Y-101877810D02*
X180019048Y-102115905D01*
X180019048Y-101496857D01*
X179685714Y-100687333D02*
X180352381Y-100687333D01*
X179304762Y-100925429D02*
X180019048Y-101163524D01*
X180019048Y-100544476D01*
X180371381Y-98345857D02*
X179895190Y-98679191D01*
X180371381Y-98917286D02*
X179371381Y-98917286D01*
X179371381Y-98536333D01*
X179419000Y-98441095D01*
X179466619Y-98393476D01*
X179561857Y-98345857D01*
X179704714Y-98345857D01*
X179799952Y-98393476D01*
X179847571Y-98441095D01*
X179895190Y-98536333D01*
X179895190Y-98917286D01*
X179704714Y-97488714D02*
X180371381Y-97488714D01*
X179323762Y-97726810D02*
X180038048Y-97964905D01*
X180038048Y-97345857D01*
X179371381Y-96488714D02*
X179371381Y-96964905D01*
X179847571Y-97012524D01*
X179799952Y-96964905D01*
X179752333Y-96869667D01*
X179752333Y-96631571D01*
X179799952Y-96536333D01*
X179847571Y-96488714D01*
X179942810Y-96441095D01*
X180180905Y-96441095D01*
X180276143Y-96488714D01*
X180323762Y-96536333D01*
X180371381Y-96631571D01*
X180371381Y-96869667D01*
X180323762Y-96964905D01*
X180276143Y-97012524D01*
X173104381Y-98432857D02*
X172628190Y-98766191D01*
X173104381Y-99004286D02*
X172104381Y-99004286D01*
X172104381Y-98623333D01*
X172152000Y-98528095D01*
X172199619Y-98480476D01*
X172294857Y-98432857D01*
X172437714Y-98432857D01*
X172532952Y-98480476D01*
X172580571Y-98528095D01*
X172628190Y-98623333D01*
X172628190Y-99004286D01*
X172437714Y-97575714D02*
X173104381Y-97575714D01*
X172056762Y-97813810D02*
X172771048Y-98051905D01*
X172771048Y-97432857D01*
X172104381Y-96623333D02*
X172104381Y-96813810D01*
X172152000Y-96909048D01*
X172199619Y-96956667D01*
X172342476Y-97051905D01*
X172532952Y-97099524D01*
X172913905Y-97099524D01*
X173009143Y-97051905D01*
X173056762Y-97004286D01*
X173104381Y-96909048D01*
X173104381Y-96718571D01*
X173056762Y-96623333D01*
X173009143Y-96575714D01*
X172913905Y-96528095D01*
X172675810Y-96528095D01*
X172580571Y-96575714D01*
X172532952Y-96623333D01*
X172485333Y-96718571D01*
X172485333Y-96909048D01*
X172532952Y-97004286D01*
X172580571Y-97051905D01*
X172675810Y-97099524D01*
X129460334Y-121174143D02*
X129412715Y-121221762D01*
X129269858Y-121269381D01*
X129174620Y-121269381D01*
X129031762Y-121221762D01*
X128936524Y-121126524D01*
X128888905Y-121031286D01*
X128841286Y-120840810D01*
X128841286Y-120697952D01*
X128888905Y-120507476D01*
X128936524Y-120412238D01*
X129031762Y-120317000D01*
X129174620Y-120269381D01*
X129269858Y-120269381D01*
X129412715Y-120317000D01*
X129460334Y-120364619D01*
X129841286Y-120364619D02*
X129888905Y-120317000D01*
X129984143Y-120269381D01*
X130222239Y-120269381D01*
X130317477Y-120317000D01*
X130365096Y-120364619D01*
X130412715Y-120459857D01*
X130412715Y-120555095D01*
X130365096Y-120697952D01*
X129793667Y-121269381D01*
X130412715Y-121269381D01*
X128444334Y-105680143D02*
X128396715Y-105727762D01*
X128253858Y-105775381D01*
X128158620Y-105775381D01*
X128015762Y-105727762D01*
X127920524Y-105632524D01*
X127872905Y-105537286D01*
X127825286Y-105346810D01*
X127825286Y-105203952D01*
X127872905Y-105013476D01*
X127920524Y-104918238D01*
X128015762Y-104823000D01*
X128158620Y-104775381D01*
X128253858Y-104775381D01*
X128396715Y-104823000D01*
X128444334Y-104870619D01*
X129301477Y-105108714D02*
X129301477Y-105775381D01*
X129063381Y-104727762D02*
X128825286Y-105442048D01*
X129444334Y-105442048D01*
X120316334Y-120920143D02*
X120268715Y-120967762D01*
X120125858Y-121015381D01*
X120030620Y-121015381D01*
X119887762Y-120967762D01*
X119792524Y-120872524D01*
X119744905Y-120777286D01*
X119697286Y-120586810D01*
X119697286Y-120443952D01*
X119744905Y-120253476D01*
X119792524Y-120158238D01*
X119887762Y-120063000D01*
X120030620Y-120015381D01*
X120125858Y-120015381D01*
X120268715Y-120063000D01*
X120316334Y-120110619D01*
X121221096Y-120015381D02*
X120744905Y-120015381D01*
X120697286Y-120491571D01*
X120744905Y-120443952D01*
X120840143Y-120396333D01*
X121078239Y-120396333D01*
X121173477Y-120443952D01*
X121221096Y-120491571D01*
X121268715Y-120586810D01*
X121268715Y-120824905D01*
X121221096Y-120920143D01*
X121173477Y-120967762D01*
X121078239Y-121015381D01*
X120840143Y-121015381D01*
X120744905Y-120967762D01*
X120697286Y-120920143D01*
X134199334Y-116021143D02*
X134151715Y-116068762D01*
X134008858Y-116116381D01*
X133913620Y-116116381D01*
X133770762Y-116068762D01*
X133675524Y-115973524D01*
X133627905Y-115878286D01*
X133580286Y-115687810D01*
X133580286Y-115544952D01*
X133627905Y-115354476D01*
X133675524Y-115259238D01*
X133770762Y-115164000D01*
X133913620Y-115116381D01*
X134008858Y-115116381D01*
X134151715Y-115164000D01*
X134199334Y-115211619D01*
X134675524Y-116116381D02*
X134866000Y-116116381D01*
X134961239Y-116068762D01*
X135008858Y-116021143D01*
X135104096Y-115878286D01*
X135151715Y-115687810D01*
X135151715Y-115306857D01*
X135104096Y-115211619D01*
X135056477Y-115164000D01*
X134961239Y-115116381D01*
X134770762Y-115116381D01*
X134675524Y-115164000D01*
X134627905Y-115211619D01*
X134580286Y-115306857D01*
X134580286Y-115544952D01*
X134627905Y-115640190D01*
X134675524Y-115687810D01*
X134770762Y-115735429D01*
X134961239Y-115735429D01*
X135056477Y-115687810D01*
X135104096Y-115640190D01*
X135151715Y-115544952D01*
X112474143Y-126254143D02*
X112426524Y-126301762D01*
X112283667Y-126349381D01*
X112188429Y-126349381D01*
X112045571Y-126301762D01*
X111950333Y-126206524D01*
X111902714Y-126111286D01*
X111855095Y-125920810D01*
X111855095Y-125777952D01*
X111902714Y-125587476D01*
X111950333Y-125492238D01*
X112045571Y-125397000D01*
X112188429Y-125349381D01*
X112283667Y-125349381D01*
X112426524Y-125397000D01*
X112474143Y-125444619D01*
X113426524Y-126349381D02*
X112855095Y-126349381D01*
X113140809Y-126349381D02*
X113140809Y-125349381D01*
X113045571Y-125492238D01*
X112950333Y-125587476D01*
X112855095Y-125635095D01*
X114378905Y-126349381D02*
X113807476Y-126349381D01*
X114093190Y-126349381D02*
X114093190Y-125349381D01*
X113997952Y-125492238D01*
X113902714Y-125587476D01*
X113807476Y-125635095D01*
X112211143Y-111156857D02*
X112258762Y-111204476D01*
X112306381Y-111347333D01*
X112306381Y-111442571D01*
X112258762Y-111585429D01*
X112163524Y-111680667D01*
X112068286Y-111728286D01*
X111877810Y-111775905D01*
X111734952Y-111775905D01*
X111544476Y-111728286D01*
X111449238Y-111680667D01*
X111354000Y-111585429D01*
X111306381Y-111442571D01*
X111306381Y-111347333D01*
X111354000Y-111204476D01*
X111401619Y-111156857D01*
X112306381Y-110204476D02*
X112306381Y-110775905D01*
X112306381Y-110490191D02*
X111306381Y-110490191D01*
X111449238Y-110585429D01*
X111544476Y-110680667D01*
X111592095Y-110775905D01*
X111401619Y-109823524D02*
X111354000Y-109775905D01*
X111306381Y-109680667D01*
X111306381Y-109442571D01*
X111354000Y-109347333D01*
X111401619Y-109299714D01*
X111496857Y-109252095D01*
X111592095Y-109252095D01*
X111734952Y-109299714D01*
X112306381Y-109871143D01*
X112306381Y-109252095D01*
X115513143Y-111156857D02*
X115560762Y-111204476D01*
X115608381Y-111347333D01*
X115608381Y-111442571D01*
X115560762Y-111585429D01*
X115465524Y-111680667D01*
X115370286Y-111728286D01*
X115179810Y-111775905D01*
X115036952Y-111775905D01*
X114846476Y-111728286D01*
X114751238Y-111680667D01*
X114656000Y-111585429D01*
X114608381Y-111442571D01*
X114608381Y-111347333D01*
X114656000Y-111204476D01*
X114703619Y-111156857D01*
X115608381Y-110204476D02*
X115608381Y-110775905D01*
X115608381Y-110490191D02*
X114608381Y-110490191D01*
X114751238Y-110585429D01*
X114846476Y-110680667D01*
X114894095Y-110775905D01*
X114941714Y-109347333D02*
X115608381Y-109347333D01*
X114560762Y-109585429D02*
X115275048Y-109823524D01*
X115275048Y-109204476D01*
X141160143Y-106473857D02*
X141207762Y-106521476D01*
X141255381Y-106664333D01*
X141255381Y-106759571D01*
X141207762Y-106902429D01*
X141112524Y-106997667D01*
X141017286Y-107045286D01*
X140826810Y-107092905D01*
X140683952Y-107092905D01*
X140493476Y-107045286D01*
X140398238Y-106997667D01*
X140303000Y-106902429D01*
X140255381Y-106759571D01*
X140255381Y-106664333D01*
X140303000Y-106521476D01*
X140350619Y-106473857D01*
X140350619Y-106092905D02*
X140303000Y-106045286D01*
X140255381Y-105950048D01*
X140255381Y-105711952D01*
X140303000Y-105616714D01*
X140350619Y-105569095D01*
X140445857Y-105521476D01*
X140541095Y-105521476D01*
X140683952Y-105569095D01*
X141255381Y-106140524D01*
X141255381Y-105521476D01*
X140255381Y-104902429D02*
X140255381Y-104807190D01*
X140303000Y-104711952D01*
X140350619Y-104664333D01*
X140445857Y-104616714D01*
X140636333Y-104569095D01*
X140874429Y-104569095D01*
X141064905Y-104616714D01*
X141160143Y-104664333D01*
X141207762Y-104711952D01*
X141255381Y-104807190D01*
X141255381Y-104902429D01*
X141207762Y-104997667D01*
X141160143Y-105045286D01*
X141064905Y-105092905D01*
X140874429Y-105140524D01*
X140636333Y-105140524D01*
X140445857Y-105092905D01*
X140350619Y-105045286D01*
X140303000Y-104997667D01*
X140255381Y-104902429D01*
X132023143Y-106560857D02*
X132070762Y-106608476D01*
X132118381Y-106751333D01*
X132118381Y-106846571D01*
X132070762Y-106989429D01*
X131975524Y-107084667D01*
X131880286Y-107132286D01*
X131689810Y-107179905D01*
X131546952Y-107179905D01*
X131356476Y-107132286D01*
X131261238Y-107084667D01*
X131166000Y-106989429D01*
X131118381Y-106846571D01*
X131118381Y-106751333D01*
X131166000Y-106608476D01*
X131213619Y-106560857D01*
X131213619Y-106179905D02*
X131166000Y-106132286D01*
X131118381Y-106037048D01*
X131118381Y-105798952D01*
X131166000Y-105703714D01*
X131213619Y-105656095D01*
X131308857Y-105608476D01*
X131404095Y-105608476D01*
X131546952Y-105656095D01*
X132118381Y-106227524D01*
X132118381Y-105608476D01*
X132118381Y-104656095D02*
X132118381Y-105227524D01*
X132118381Y-104941810D02*
X131118381Y-104941810D01*
X131261238Y-105037048D01*
X131356476Y-105132286D01*
X131404095Y-105227524D01*
X176482143Y-113554143D02*
X176434524Y-113601762D01*
X176291667Y-113649381D01*
X176196429Y-113649381D01*
X176053571Y-113601762D01*
X175958333Y-113506524D01*
X175910714Y-113411286D01*
X175863095Y-113220810D01*
X175863095Y-113077952D01*
X175910714Y-112887476D01*
X175958333Y-112792238D01*
X176053571Y-112697000D01*
X176196429Y-112649381D01*
X176291667Y-112649381D01*
X176434524Y-112697000D01*
X176482143Y-112744619D01*
X176863095Y-112744619D02*
X176910714Y-112697000D01*
X177005952Y-112649381D01*
X177244048Y-112649381D01*
X177339286Y-112697000D01*
X177386905Y-112744619D01*
X177434524Y-112839857D01*
X177434524Y-112935095D01*
X177386905Y-113077952D01*
X176815476Y-113649381D01*
X177434524Y-113649381D01*
X178005952Y-113077952D02*
X177910714Y-113030333D01*
X177863095Y-112982714D01*
X177815476Y-112887476D01*
X177815476Y-112839857D01*
X177863095Y-112744619D01*
X177910714Y-112697000D01*
X178005952Y-112649381D01*
X178196429Y-112649381D01*
X178291667Y-112697000D01*
X178339286Y-112744619D01*
X178386905Y-112839857D01*
X178386905Y-112887476D01*
X178339286Y-112982714D01*
X178291667Y-113030333D01*
X178196429Y-113077952D01*
X178005952Y-113077952D01*
X177910714Y-113125571D01*
X177863095Y-113173190D01*
X177815476Y-113268429D01*
X177815476Y-113458905D01*
X177863095Y-113554143D01*
X177910714Y-113601762D01*
X178005952Y-113649381D01*
X178196429Y-113649381D01*
X178291667Y-113601762D01*
X178339286Y-113554143D01*
X178386905Y-113458905D01*
X178386905Y-113268429D01*
X178339286Y-113173190D01*
X178291667Y-113125571D01*
X178196429Y-113077952D01*
X170640143Y-113554143D02*
X170592524Y-113601762D01*
X170449667Y-113649381D01*
X170354429Y-113649381D01*
X170211571Y-113601762D01*
X170116333Y-113506524D01*
X170068714Y-113411286D01*
X170021095Y-113220810D01*
X170021095Y-113077952D01*
X170068714Y-112887476D01*
X170116333Y-112792238D01*
X170211571Y-112697000D01*
X170354429Y-112649381D01*
X170449667Y-112649381D01*
X170592524Y-112697000D01*
X170640143Y-112744619D01*
X171021095Y-112744619D02*
X171068714Y-112697000D01*
X171163952Y-112649381D01*
X171402048Y-112649381D01*
X171497286Y-112697000D01*
X171544905Y-112744619D01*
X171592524Y-112839857D01*
X171592524Y-112935095D01*
X171544905Y-113077952D01*
X170973476Y-113649381D01*
X171592524Y-113649381D01*
X172068714Y-113649381D02*
X172259190Y-113649381D01*
X172354429Y-113601762D01*
X172402048Y-113554143D01*
X172497286Y-113411286D01*
X172544905Y-113220810D01*
X172544905Y-112839857D01*
X172497286Y-112744619D01*
X172449667Y-112697000D01*
X172354429Y-112649381D01*
X172163952Y-112649381D01*
X172068714Y-112697000D01*
X172021095Y-112744619D01*
X171973476Y-112839857D01*
X171973476Y-113077952D01*
X172021095Y-113173190D01*
X172068714Y-113220810D01*
X172163952Y-113268429D01*
X172354429Y-113268429D01*
X172449667Y-113220810D01*
X172497286Y-113173190D01*
X172544905Y-113077952D01*
X189841143Y-108338857D02*
X189888762Y-108386476D01*
X189936381Y-108529333D01*
X189936381Y-108624571D01*
X189888762Y-108767429D01*
X189793524Y-108862667D01*
X189698286Y-108910286D01*
X189507810Y-108957905D01*
X189364952Y-108957905D01*
X189174476Y-108910286D01*
X189079238Y-108862667D01*
X188984000Y-108767429D01*
X188936381Y-108624571D01*
X188936381Y-108529333D01*
X188984000Y-108386476D01*
X189031619Y-108338857D01*
X188936381Y-108005524D02*
X188936381Y-107386476D01*
X189317333Y-107719810D01*
X189317333Y-107576952D01*
X189364952Y-107481714D01*
X189412571Y-107434095D01*
X189507810Y-107386476D01*
X189745905Y-107386476D01*
X189841143Y-107434095D01*
X189888762Y-107481714D01*
X189936381Y-107576952D01*
X189936381Y-107862667D01*
X189888762Y-107957905D01*
X189841143Y-108005524D01*
X188936381Y-107053143D02*
X188936381Y-106434095D01*
X189317333Y-106767429D01*
X189317333Y-106624571D01*
X189364952Y-106529333D01*
X189412571Y-106481714D01*
X189507810Y-106434095D01*
X189745905Y-106434095D01*
X189841143Y-106481714D01*
X189888762Y-106529333D01*
X189936381Y-106624571D01*
X189936381Y-106910286D01*
X189888762Y-107005524D01*
X189841143Y-107053143D01*
X180022143Y-124253857D02*
X180069762Y-124301476D01*
X180117381Y-124444333D01*
X180117381Y-124539571D01*
X180069762Y-124682429D01*
X179974524Y-124777667D01*
X179879286Y-124825286D01*
X179688810Y-124872905D01*
X179545952Y-124872905D01*
X179355476Y-124825286D01*
X179260238Y-124777667D01*
X179165000Y-124682429D01*
X179117381Y-124539571D01*
X179117381Y-124444333D01*
X179165000Y-124301476D01*
X179212619Y-124253857D01*
X179117381Y-123920524D02*
X179117381Y-123301476D01*
X179498333Y-123634810D01*
X179498333Y-123491952D01*
X179545952Y-123396714D01*
X179593571Y-123349095D01*
X179688810Y-123301476D01*
X179926905Y-123301476D01*
X180022143Y-123349095D01*
X180069762Y-123396714D01*
X180117381Y-123491952D01*
X180117381Y-123777667D01*
X180069762Y-123872905D01*
X180022143Y-123920524D01*
X179117381Y-122396714D02*
X179117381Y-122872905D01*
X179593571Y-122920524D01*
X179545952Y-122872905D01*
X179498333Y-122777667D01*
X179498333Y-122539571D01*
X179545952Y-122444333D01*
X179593571Y-122396714D01*
X179688810Y-122349095D01*
X179926905Y-122349095D01*
X180022143Y-122396714D01*
X180069762Y-122444333D01*
X180117381Y-122539571D01*
X180117381Y-122777667D01*
X180069762Y-122872905D01*
X180022143Y-122920524D01*
X162845381Y-79314095D02*
X161845381Y-79314095D01*
X161845381Y-79076000D01*
X161893000Y-78933142D01*
X161988238Y-78837904D01*
X162083476Y-78790285D01*
X162273952Y-78742666D01*
X162416810Y-78742666D01*
X162607286Y-78790285D01*
X162702524Y-78837904D01*
X162797762Y-78933142D01*
X162845381Y-79076000D01*
X162845381Y-79314095D01*
X161845381Y-77837904D02*
X161845381Y-78314095D01*
X162321571Y-78361714D01*
X162273952Y-78314095D01*
X162226333Y-78218857D01*
X162226333Y-77980761D01*
X162273952Y-77885523D01*
X162321571Y-77837904D01*
X162416810Y-77790285D01*
X162654905Y-77790285D01*
X162750143Y-77837904D01*
X162797762Y-77885523D01*
X162845381Y-77980761D01*
X162845381Y-78218857D01*
X162797762Y-78314095D01*
X162750143Y-78361714D01*
X175148381Y-72318095D02*
X174148381Y-72318095D01*
X174148381Y-71937142D01*
X174196000Y-71841904D01*
X174243619Y-71794285D01*
X174338857Y-71746666D01*
X174481714Y-71746666D01*
X174576952Y-71794285D01*
X174624571Y-71841904D01*
X174672190Y-71937142D01*
X174672190Y-72318095D01*
X174148381Y-71413333D02*
X174148381Y-70794285D01*
X174529333Y-71127619D01*
X174529333Y-70984761D01*
X174576952Y-70889523D01*
X174624571Y-70841904D01*
X174719810Y-70794285D01*
X174957905Y-70794285D01*
X175053143Y-70841904D01*
X175100762Y-70889523D01*
X175148381Y-70984761D01*
X175148381Y-71270476D01*
X175100762Y-71365714D01*
X175053143Y-71413333D01*
X176014381Y-93194095D02*
X175014381Y-93194095D01*
X175014381Y-92813142D01*
X175062000Y-92717904D01*
X175109619Y-92670285D01*
X175204857Y-92622666D01*
X175347714Y-92622666D01*
X175442952Y-92670285D01*
X175490571Y-92717904D01*
X175538190Y-92813142D01*
X175538190Y-93194095D01*
X175014381Y-91717904D02*
X175014381Y-92194095D01*
X175490571Y-92241714D01*
X175442952Y-92194095D01*
X175395333Y-92098857D01*
X175395333Y-91860761D01*
X175442952Y-91765523D01*
X175490571Y-91717904D01*
X175585810Y-91670285D01*
X175823905Y-91670285D01*
X175919143Y-91717904D01*
X175966762Y-91765523D01*
X176014381Y-91860761D01*
X176014381Y-92098857D01*
X175966762Y-92194095D01*
X175919143Y-92241714D01*
X158660762Y-95773619D02*
X158565524Y-95726000D01*
X158470286Y-95630762D01*
X158327429Y-95487905D01*
X158232190Y-95440286D01*
X158136952Y-95440286D01*
X158184571Y-95678381D02*
X158089333Y-95630762D01*
X157994095Y-95535524D01*
X157946476Y-95345048D01*
X157946476Y-95011714D01*
X157994095Y-94821238D01*
X158089333Y-94726000D01*
X158184571Y-94678381D01*
X158375048Y-94678381D01*
X158470286Y-94726000D01*
X158565524Y-94821238D01*
X158613143Y-95011714D01*
X158613143Y-95345048D01*
X158565524Y-95535524D01*
X158470286Y-95630762D01*
X158375048Y-95678381D01*
X158184571Y-95678381D01*
X159470286Y-94678381D02*
X159279809Y-94678381D01*
X159184571Y-94726000D01*
X159136952Y-94773619D01*
X159041714Y-94916476D01*
X158994095Y-95106952D01*
X158994095Y-95487905D01*
X159041714Y-95583143D01*
X159089333Y-95630762D01*
X159184571Y-95678381D01*
X159375048Y-95678381D01*
X159470286Y-95630762D01*
X159517905Y-95583143D01*
X159565524Y-95487905D01*
X159565524Y-95249810D01*
X159517905Y-95154571D01*
X159470286Y-95106952D01*
X159375048Y-95059333D01*
X159184571Y-95059333D01*
X159089333Y-95106952D01*
X159041714Y-95154571D01*
X158994095Y-95249810D01*
X186896143Y-119237381D02*
X186562809Y-118761190D01*
X186324714Y-119237381D02*
X186324714Y-118237381D01*
X186705667Y-118237381D01*
X186800905Y-118285000D01*
X186848524Y-118332619D01*
X186896143Y-118427857D01*
X186896143Y-118570714D01*
X186848524Y-118665952D01*
X186800905Y-118713571D01*
X186705667Y-118761190D01*
X186324714Y-118761190D01*
X187753286Y-118570714D02*
X187753286Y-119237381D01*
X187515190Y-118189762D02*
X187277095Y-118904048D01*
X187896143Y-118904048D01*
X188229476Y-118332619D02*
X188277095Y-118285000D01*
X188372333Y-118237381D01*
X188610429Y-118237381D01*
X188705667Y-118285000D01*
X188753286Y-118332619D01*
X188800905Y-118427857D01*
X188800905Y-118523095D01*
X188753286Y-118665952D01*
X188181857Y-119237381D01*
X188800905Y-119237381D01*
X104171381Y-117681666D02*
X103695190Y-118015000D01*
X104171381Y-118253095D02*
X103171381Y-118253095D01*
X103171381Y-117872142D01*
X103219000Y-117776904D01*
X103266619Y-117729285D01*
X103361857Y-117681666D01*
X103504714Y-117681666D01*
X103599952Y-117729285D01*
X103647571Y-117776904D01*
X103695190Y-117872142D01*
X103695190Y-118253095D01*
X103171381Y-116776904D02*
X103171381Y-117253095D01*
X103647571Y-117300714D01*
X103599952Y-117253095D01*
X103552333Y-117157857D01*
X103552333Y-116919761D01*
X103599952Y-116824523D01*
X103647571Y-116776904D01*
X103742810Y-116729285D01*
X103980905Y-116729285D01*
X104076143Y-116776904D01*
X104123762Y-116824523D01*
X104171381Y-116919761D01*
X104171381Y-117157857D01*
X104123762Y-117253095D01*
X104076143Y-117300714D01*
X106854334Y-131429381D02*
X106521000Y-130953190D01*
X106282905Y-131429381D02*
X106282905Y-130429381D01*
X106663858Y-130429381D01*
X106759096Y-130477000D01*
X106806715Y-130524619D01*
X106854334Y-130619857D01*
X106854334Y-130762714D01*
X106806715Y-130857952D01*
X106759096Y-130905571D01*
X106663858Y-130953190D01*
X106282905Y-130953190D01*
X107711477Y-130429381D02*
X107521000Y-130429381D01*
X107425762Y-130477000D01*
X107378143Y-130524619D01*
X107282905Y-130667476D01*
X107235286Y-130857952D01*
X107235286Y-131238905D01*
X107282905Y-131334143D01*
X107330524Y-131381762D01*
X107425762Y-131429381D01*
X107616239Y-131429381D01*
X107711477Y-131381762D01*
X107759096Y-131334143D01*
X107806715Y-131238905D01*
X107806715Y-131000810D01*
X107759096Y-130905571D01*
X107711477Y-130857952D01*
X107616239Y-130810333D01*
X107425762Y-130810333D01*
X107330524Y-130857952D01*
X107282905Y-130905571D01*
X107235286Y-131000810D01*
X133556143Y-114157381D02*
X133222809Y-113681190D01*
X132984714Y-114157381D02*
X132984714Y-113157381D01*
X133365667Y-113157381D01*
X133460905Y-113205000D01*
X133508524Y-113252619D01*
X133556143Y-113347857D01*
X133556143Y-113490714D01*
X133508524Y-113585952D01*
X133460905Y-113633571D01*
X133365667Y-113681190D01*
X132984714Y-113681190D01*
X133937095Y-113252619D02*
X133984714Y-113205000D01*
X134079952Y-113157381D01*
X134318048Y-113157381D01*
X134413286Y-113205000D01*
X134460905Y-113252619D01*
X134508524Y-113347857D01*
X134508524Y-113443095D01*
X134460905Y-113585952D01*
X133889476Y-114157381D01*
X134508524Y-114157381D01*
X135127571Y-113157381D02*
X135222810Y-113157381D01*
X135318048Y-113205000D01*
X135365667Y-113252619D01*
X135413286Y-113347857D01*
X135460905Y-113538333D01*
X135460905Y-113776429D01*
X135413286Y-113966905D01*
X135365667Y-114062143D01*
X135318048Y-114109762D01*
X135222810Y-114157381D01*
X135127571Y-114157381D01*
X135032333Y-114109762D01*
X134984714Y-114062143D01*
X134937095Y-113966905D01*
X134889476Y-113776429D01*
X134889476Y-113538333D01*
X134937095Y-113347857D01*
X134984714Y-113252619D01*
X135032333Y-113205000D01*
X135127571Y-113157381D01*
X119413143Y-90535381D02*
X119079809Y-90059190D01*
X118841714Y-90535381D02*
X118841714Y-89535381D01*
X119222667Y-89535381D01*
X119317905Y-89583000D01*
X119365524Y-89630619D01*
X119413143Y-89725857D01*
X119413143Y-89868714D01*
X119365524Y-89963952D01*
X119317905Y-90011571D01*
X119222667Y-90059190D01*
X118841714Y-90059190D01*
X119746476Y-89535381D02*
X120365524Y-89535381D01*
X120032190Y-89916333D01*
X120175048Y-89916333D01*
X120270286Y-89963952D01*
X120317905Y-90011571D01*
X120365524Y-90106810D01*
X120365524Y-90344905D01*
X120317905Y-90440143D01*
X120270286Y-90487762D01*
X120175048Y-90535381D01*
X119889333Y-90535381D01*
X119794095Y-90487762D01*
X119746476Y-90440143D01*
X121317905Y-90535381D02*
X120746476Y-90535381D01*
X121032190Y-90535381D02*
X121032190Y-89535381D01*
X120936952Y-89678238D01*
X120841714Y-89773476D01*
X120746476Y-89821095D01*
X172913143Y-118828381D02*
X172579809Y-118352190D01*
X172341714Y-118828381D02*
X172341714Y-117828381D01*
X172722667Y-117828381D01*
X172817905Y-117876000D01*
X172865524Y-117923619D01*
X172913143Y-118018857D01*
X172913143Y-118161714D01*
X172865524Y-118256952D01*
X172817905Y-118304571D01*
X172722667Y-118352190D01*
X172341714Y-118352190D01*
X173246476Y-117828381D02*
X173865524Y-117828381D01*
X173532190Y-118209333D01*
X173675048Y-118209333D01*
X173770286Y-118256952D01*
X173817905Y-118304571D01*
X173865524Y-118399810D01*
X173865524Y-118637905D01*
X173817905Y-118733143D01*
X173770286Y-118780762D01*
X173675048Y-118828381D01*
X173389333Y-118828381D01*
X173294095Y-118780762D01*
X173246476Y-118733143D01*
X174436952Y-118256952D02*
X174341714Y-118209333D01*
X174294095Y-118161714D01*
X174246476Y-118066476D01*
X174246476Y-118018857D01*
X174294095Y-117923619D01*
X174341714Y-117876000D01*
X174436952Y-117828381D01*
X174627429Y-117828381D01*
X174722667Y-117876000D01*
X174770286Y-117923619D01*
X174817905Y-118018857D01*
X174817905Y-118066476D01*
X174770286Y-118161714D01*
X174722667Y-118209333D01*
X174627429Y-118256952D01*
X174436952Y-118256952D01*
X174341714Y-118304571D01*
X174294095Y-118352190D01*
X174246476Y-118447429D01*
X174246476Y-118637905D01*
X174294095Y-118733143D01*
X174341714Y-118780762D01*
X174436952Y-118828381D01*
X174627429Y-118828381D01*
X174722667Y-118780762D01*
X174770286Y-118733143D01*
X174817905Y-118637905D01*
X174817905Y-118447429D01*
X174770286Y-118352190D01*
X174722667Y-118304571D01*
X174627429Y-118256952D01*
X97900905Y-106537381D02*
X97900905Y-105537381D01*
X98281858Y-105537381D01*
X98377096Y-105585000D01*
X98424715Y-105632619D01*
X98472334Y-105727857D01*
X98472334Y-105870714D01*
X98424715Y-105965952D01*
X98377096Y-106013571D01*
X98281858Y-106061190D01*
X97900905Y-106061190D01*
X99424715Y-106537381D02*
X98853286Y-106537381D01*
X99139000Y-106537381D02*
X99139000Y-105537381D01*
X99043762Y-105680238D01*
X98948524Y-105775476D01*
X98853286Y-105823095D01*
X185451381Y-76293857D02*
X184975190Y-76627191D01*
X185451381Y-76865286D02*
X184451381Y-76865286D01*
X184451381Y-76484333D01*
X184499000Y-76389095D01*
X184546619Y-76341476D01*
X184641857Y-76293857D01*
X184784714Y-76293857D01*
X184879952Y-76341476D01*
X184927571Y-76389095D01*
X184975190Y-76484333D01*
X184975190Y-76865286D01*
X184784714Y-75436714D02*
X185451381Y-75436714D01*
X184403762Y-75674810D02*
X185118048Y-75912905D01*
X185118048Y-75293857D01*
X184451381Y-75008143D02*
X184451381Y-74341476D01*
X185451381Y-74770048D01*
X111658381Y-79243857D02*
X111182190Y-79577191D01*
X111658381Y-79815286D02*
X110658381Y-79815286D01*
X110658381Y-79434333D01*
X110706000Y-79339095D01*
X110753619Y-79291476D01*
X110848857Y-79243857D01*
X110991714Y-79243857D01*
X111086952Y-79291476D01*
X111134571Y-79339095D01*
X111182190Y-79434333D01*
X111182190Y-79815286D01*
X110991714Y-78386714D02*
X111658381Y-78386714D01*
X110610762Y-78624810D02*
X111325048Y-78862905D01*
X111325048Y-78243857D01*
X111086952Y-77720048D02*
X111039333Y-77815286D01*
X110991714Y-77862905D01*
X110896476Y-77910524D01*
X110848857Y-77910524D01*
X110753619Y-77862905D01*
X110706000Y-77815286D01*
X110658381Y-77720048D01*
X110658381Y-77529571D01*
X110706000Y-77434333D01*
X110753619Y-77386714D01*
X110848857Y-77339095D01*
X110896476Y-77339095D01*
X110991714Y-77386714D01*
X111039333Y-77434333D01*
X111086952Y-77529571D01*
X111086952Y-77720048D01*
X111134571Y-77815286D01*
X111182190Y-77862905D01*
X111277429Y-77910524D01*
X111467905Y-77910524D01*
X111563143Y-77862905D01*
X111610762Y-77815286D01*
X111658381Y-77720048D01*
X111658381Y-77529571D01*
X111610762Y-77434333D01*
X111563143Y-77386714D01*
X111467905Y-77339095D01*
X111277429Y-77339095D01*
X111182190Y-77386714D01*
X111134571Y-77434333D01*
X111086952Y-77529571D01*
X111658381Y-74043857D02*
X111182190Y-74377191D01*
X111658381Y-74615286D02*
X110658381Y-74615286D01*
X110658381Y-74234333D01*
X110706000Y-74139095D01*
X110753619Y-74091476D01*
X110848857Y-74043857D01*
X110991714Y-74043857D01*
X111086952Y-74091476D01*
X111134571Y-74139095D01*
X111182190Y-74234333D01*
X111182190Y-74615286D01*
X110991714Y-73186714D02*
X111658381Y-73186714D01*
X110610762Y-73424810D02*
X111325048Y-73662905D01*
X111325048Y-73043857D01*
X111658381Y-72615286D02*
X111658381Y-72424810D01*
X111610762Y-72329571D01*
X111563143Y-72281952D01*
X111420286Y-72186714D01*
X111229810Y-72139095D01*
X110848857Y-72139095D01*
X110753619Y-72186714D01*
X110706000Y-72234333D01*
X110658381Y-72329571D01*
X110658381Y-72520048D01*
X110706000Y-72615286D01*
X110753619Y-72662905D01*
X110848857Y-72710524D01*
X111086952Y-72710524D01*
X111182190Y-72662905D01*
X111229810Y-72615286D01*
X111277429Y-72520048D01*
X111277429Y-72329571D01*
X111229810Y-72234333D01*
X111182190Y-72186714D01*
X111086952Y-72139095D01*
X186269095Y-90805381D02*
X186269095Y-91614905D01*
X186316714Y-91710143D01*
X186364333Y-91757762D01*
X186459571Y-91805381D01*
X186650048Y-91805381D01*
X186745286Y-91757762D01*
X186792905Y-91710143D01*
X186840524Y-91614905D01*
X186840524Y-90805381D01*
X187792905Y-90805381D02*
X187316714Y-90805381D01*
X187269095Y-91281571D01*
X187316714Y-91233952D01*
X187411952Y-91186333D01*
X187650048Y-91186333D01*
X187745286Y-91233952D01*
X187792905Y-91281571D01*
X187840524Y-91376810D01*
X187840524Y-91614905D01*
X187792905Y-91710143D01*
X187745286Y-91757762D01*
X187650048Y-91805381D01*
X187411952Y-91805381D01*
X187316714Y-91757762D01*
X187269095Y-91710143D01*
X185197381Y-126381095D02*
X184197381Y-126381095D01*
X184197381Y-126000142D01*
X184245000Y-125904904D01*
X184292619Y-125857285D01*
X184387857Y-125809666D01*
X184530714Y-125809666D01*
X184625952Y-125857285D01*
X184673571Y-125904904D01*
X184721190Y-126000142D01*
X184721190Y-126381095D01*
X184292619Y-125428714D02*
X184245000Y-125381095D01*
X184197381Y-125285857D01*
X184197381Y-125047761D01*
X184245000Y-124952523D01*
X184292619Y-124904904D01*
X184387857Y-124857285D01*
X184483095Y-124857285D01*
X184625952Y-124904904D01*
X185197381Y-125476333D01*
X185197381Y-124857285D01*
M02*
