G04 #@! TF.FileFunction,Paste,Top*
%FSLAX46Y46*%
G04 Gerber Fmt 4.6, Leading zero omitted, Abs format (unit mm)*
G04 Created by KiCad (PCBNEW 4.0.5+dfsg1-4) date Wed Feb  8 16:57:30 2017*
%MOMM*%
%LPD*%
G01*
G04 APERTURE LIST*
%ADD10C,0.100000*%
%ADD11R,1.250000X1.000000*%
%ADD12R,1.000000X1.250000*%
%ADD13R,0.910000X1.220000*%
%ADD14R,0.800000X0.550000*%
%ADD15O,1.473200X0.609600*%
%ADD16R,0.800100X0.800100*%
%ADD17R,1.300000X0.700000*%
%ADD18R,0.700000X1.300000*%
%ADD19R,0.600000X0.600000*%
%ADD20R,0.575000X1.500000*%
%ADD21R,2.250000X0.500000*%
%ADD22R,2.500000X0.575000*%
%ADD23R,0.700000X0.250000*%
%ADD24R,1.800000X0.250000*%
%ADD25R,0.250000X0.700000*%
%ADD26R,1.500000X0.250000*%
%ADD27R,3.500000X5.400000*%
%ADD28R,5.500000X4.350000*%
%ADD29R,1.016000X0.343000*%
%ADD30R,6.350000X5.283200*%
%ADD31R,5.334000X5.588000*%
%ADD32R,1.800860X1.597660*%
%ADD33R,0.500000X0.900000*%
%ADD34R,0.900000X0.500000*%
%ADD35R,2.400300X4.000500*%
%ADD36R,1.000000X2.500000*%
%ADD37R,2.500000X1.000000*%
%ADD38R,5.000000X1.000000*%
%ADD39R,1.600200X3.599180*%
%ADD40R,3.599180X1.600200*%
%ADD41R,1.220000X0.910000*%
%ADD42R,1.000000X3.200000*%
%ADD43R,1.700000X0.900000*%
%ADD44R,0.900000X1.700000*%
G04 APERTURE END LIST*
D10*
D11*
X114554000Y-91202000D03*
X114554000Y-93202000D03*
X128651000Y-95393000D03*
X128651000Y-97393000D03*
D12*
X135550400Y-91795600D03*
X137550400Y-91795600D03*
X135525000Y-94361000D03*
X137525000Y-94361000D03*
D11*
X145161000Y-68056000D03*
X145161000Y-66056000D03*
X125222000Y-90440000D03*
X125222000Y-92440000D03*
D12*
X149082000Y-91694000D03*
X147082000Y-91694000D03*
X155178000Y-91694000D03*
X153178000Y-91694000D03*
D11*
X131064000Y-89519000D03*
X131064000Y-87519000D03*
X125222000Y-95393000D03*
X125222000Y-97393000D03*
X156210000Y-77232000D03*
X156210000Y-79232000D03*
X138938000Y-67675000D03*
X138938000Y-65675000D03*
X118872000Y-84090000D03*
X118872000Y-86090000D03*
D12*
X120126000Y-73025000D03*
X118126000Y-73025000D03*
D11*
X128270000Y-73517000D03*
X128270000Y-71517000D03*
X125984000Y-73517000D03*
X125984000Y-71517000D03*
D12*
X150987000Y-66675000D03*
X148987000Y-66675000D03*
X115681000Y-96520000D03*
X113681000Y-96520000D03*
X164756000Y-102076000D03*
X166756000Y-102076000D03*
D11*
X158756000Y-81476000D03*
X158756000Y-83476000D03*
X156256000Y-83476000D03*
X156256000Y-81476000D03*
X168275000Y-90916000D03*
X168275000Y-88916000D03*
D13*
X146447000Y-88138000D03*
X149717000Y-88138000D03*
X155813000Y-88138000D03*
X152543000Y-88138000D03*
D14*
X137470000Y-140142000D03*
X137470000Y-139192000D03*
X137470000Y-138242000D03*
X135070000Y-140142000D03*
X135070000Y-138242000D03*
X135070000Y-139192000D03*
D15*
X144526000Y-113411000D03*
X144526000Y-112141000D03*
X144526000Y-110871000D03*
X144526000Y-109601000D03*
X138938000Y-109601000D03*
X138938000Y-110871000D03*
X138938000Y-112141000D03*
X138938000Y-113411000D03*
X150114000Y-108585000D03*
X150114000Y-107315000D03*
X150114000Y-106045000D03*
X150114000Y-104775000D03*
X144526000Y-104775000D03*
X144526000Y-106045000D03*
X144526000Y-107315000D03*
X144526000Y-108585000D03*
X159766000Y-109601000D03*
X159766000Y-110871000D03*
X159766000Y-112141000D03*
X159766000Y-113411000D03*
X165354000Y-113411000D03*
X165354000Y-112141000D03*
X165354000Y-110871000D03*
X165354000Y-109601000D03*
X154178000Y-104648000D03*
X154178000Y-105918000D03*
X154178000Y-107188000D03*
X154178000Y-108458000D03*
X159766000Y-108458000D03*
X159766000Y-107188000D03*
X159766000Y-105918000D03*
X159766000Y-104648000D03*
D16*
X163134000Y-90916760D03*
X165034000Y-90916760D03*
X164084000Y-88917780D03*
D17*
X120650000Y-79690000D03*
X120650000Y-77790000D03*
X118364000Y-77790000D03*
X118364000Y-79690000D03*
X129920000Y-138242000D03*
X129920000Y-140142000D03*
X127126000Y-138242000D03*
X127126000Y-140142000D03*
X114681000Y-86299000D03*
X114681000Y-88199000D03*
D18*
X133035000Y-69850000D03*
X134935000Y-69850000D03*
D17*
X132714000Y-138242000D03*
X132714000Y-140142000D03*
X139826000Y-138242000D03*
X139826000Y-140142000D03*
X114808000Y-81854000D03*
X114808000Y-83754000D03*
X122428000Y-67376000D03*
X122428000Y-69276000D03*
X133096000Y-97216000D03*
X133096000Y-95316000D03*
X142875000Y-68006000D03*
X142875000Y-66106000D03*
X145923000Y-76261000D03*
X145923000Y-74361000D03*
X133223000Y-65598000D03*
X133223000Y-67498000D03*
X130429000Y-67498000D03*
X130429000Y-65598000D03*
X131064000Y-93406000D03*
X131064000Y-91506000D03*
X153670000Y-77282000D03*
X153670000Y-79182000D03*
X133858000Y-85410000D03*
X133858000Y-87310000D03*
D18*
X163256000Y-72390000D03*
X161356000Y-72390000D03*
X163256000Y-69596000D03*
X161356000Y-69596000D03*
X149037000Y-72009000D03*
X150937000Y-72009000D03*
X149037000Y-74803000D03*
X150937000Y-74803000D03*
D17*
X121666000Y-84140000D03*
X121666000Y-86040000D03*
D18*
X120076000Y-75565000D03*
X118176000Y-75565000D03*
D17*
X122428000Y-73340000D03*
X122428000Y-71440000D03*
D18*
X149037000Y-69088000D03*
X150937000Y-69088000D03*
D17*
X119126000Y-95443000D03*
X119126000Y-97343000D03*
X119126000Y-91506000D03*
X119126000Y-93406000D03*
X110744000Y-93152000D03*
X110744000Y-91252000D03*
X122301000Y-93792000D03*
X122301000Y-95692000D03*
X153756000Y-81426000D03*
X153756000Y-83326000D03*
X159512000Y-92898000D03*
X159512000Y-90998000D03*
X164084000Y-86040000D03*
X164084000Y-84140000D03*
D19*
X110854000Y-114420000D03*
X110204000Y-115570000D03*
X109204000Y-115570000D03*
X108204000Y-115570000D03*
X107204000Y-115570000D03*
X106204000Y-115570000D03*
X105204000Y-115570000D03*
X104204000Y-115570000D03*
X103554000Y-114420000D03*
D20*
X103416000Y-112920000D03*
X103416000Y-110920000D03*
X110992000Y-112945000D03*
X110992000Y-110920000D03*
D21*
X109079000Y-112920000D03*
X105329000Y-112920000D03*
D22*
X109204000Y-109132000D03*
X105204000Y-109132000D03*
D19*
X110838000Y-125444000D03*
X110188000Y-126594000D03*
X109188000Y-126594000D03*
X108188000Y-126594000D03*
X107188000Y-126594000D03*
X106188000Y-126594000D03*
X105188000Y-126594000D03*
X104188000Y-126594000D03*
X103538000Y-125444000D03*
D20*
X103400000Y-123944000D03*
X103400000Y-121944000D03*
X110976000Y-123969000D03*
X110976000Y-121944000D03*
D21*
X109063000Y-123944000D03*
X105313000Y-123944000D03*
D22*
X109188000Y-120156000D03*
X105188000Y-120156000D03*
D23*
X135792000Y-74973000D03*
D24*
X136342000Y-75473000D03*
X136342000Y-75973000D03*
X136342000Y-76473000D03*
X136342000Y-76973000D03*
X136342000Y-77473000D03*
X136342000Y-77973000D03*
X136342000Y-78473000D03*
X136342000Y-78973000D03*
X136342000Y-79473000D03*
X136342000Y-79973000D03*
D23*
X135792000Y-80473000D03*
X135792000Y-80973000D03*
X135792000Y-81473000D03*
X135792000Y-81973000D03*
X135792000Y-82473000D03*
X135792000Y-82973000D03*
X135792000Y-83473000D03*
X135792000Y-83973000D03*
X135792000Y-84473000D03*
D25*
X136442000Y-85123000D03*
X136942000Y-85123000D03*
X137442000Y-85123000D03*
X137942000Y-85123000D03*
X138442000Y-85123000D03*
X139442000Y-85123000D03*
X139942000Y-85123000D03*
X140442000Y-85123000D03*
X141442000Y-85123000D03*
X141942000Y-85123000D03*
D23*
X142592000Y-84473000D03*
X142592000Y-83473000D03*
X142592000Y-82973000D03*
X142592000Y-82473000D03*
X142592000Y-81973000D03*
X142592000Y-80973000D03*
X142592000Y-80473000D03*
D26*
X142192000Y-79973000D03*
X142192000Y-78973000D03*
X142192000Y-78473000D03*
X142192000Y-77973000D03*
D24*
X142042000Y-76973000D03*
X142042000Y-76473000D03*
X142042000Y-75973000D03*
X142042000Y-75473000D03*
D23*
X142592000Y-74973000D03*
D25*
X141942000Y-74323000D03*
X141442000Y-74323000D03*
X140942000Y-74323000D03*
X140442000Y-74323000D03*
X139942000Y-74323000D03*
X139442000Y-74323000D03*
X138942000Y-74323000D03*
X138442000Y-74323000D03*
X137942000Y-74323000D03*
X137442000Y-74323000D03*
X136942000Y-74323000D03*
X136442000Y-74323000D03*
D27*
X139192000Y-77573000D03*
D28*
X139192000Y-82423000D03*
D29*
X172223500Y-95363500D03*
X172223500Y-94863500D03*
X172223500Y-94363500D03*
X172223500Y-93863500D03*
X172223500Y-93363500D03*
X168131500Y-95363500D03*
X168131500Y-94863500D03*
X168131500Y-94363500D03*
X168131500Y-93863500D03*
X168131500Y-93363500D03*
D30*
X152273000Y-116738400D03*
D31*
X147193000Y-138811000D03*
X157353000Y-138811000D03*
D32*
X157886400Y-72489060D03*
X157886400Y-69649340D03*
X154482800Y-72438260D03*
X154482800Y-69598540D03*
D33*
X150380000Y-95250000D03*
X151880000Y-95250000D03*
D34*
X144018000Y-98032000D03*
X144018000Y-96532000D03*
X136652000Y-99556000D03*
X136652000Y-98056000D03*
D11*
X158750000Y-79232000D03*
X158750000Y-77232000D03*
D17*
X174752000Y-102804000D03*
X174752000Y-100904000D03*
X177800000Y-100904000D03*
X177800000Y-102804000D03*
X177800000Y-98740000D03*
X177800000Y-96840000D03*
X174752000Y-98740000D03*
X174752000Y-96840000D03*
D35*
X131956000Y-123776000D03*
X131956000Y-131777000D03*
X124968000Y-116522500D03*
X124968000Y-108521500D03*
X120396000Y-123776000D03*
X120396000Y-131777000D03*
D36*
X132866000Y-118364000D03*
X135866000Y-118364000D03*
D37*
X113030000Y-127278000D03*
X113030000Y-130278000D03*
X114554000Y-112014000D03*
X114554000Y-109014000D03*
X117856000Y-112014000D03*
X117856000Y-109014000D03*
X138176000Y-107418000D03*
X138176000Y-104418000D03*
X134366000Y-107418000D03*
X134366000Y-104418000D03*
D38*
X177292000Y-111512000D03*
X177292000Y-105912000D03*
X171196000Y-111576000D03*
X171196000Y-105976000D03*
D39*
X185166000Y-110446820D03*
X185166000Y-104945180D03*
D40*
X176806820Y-123576000D03*
X171305180Y-123576000D03*
D41*
X164156000Y-80211000D03*
X164156000Y-76941000D03*
D16*
X157806000Y-98476760D03*
X159706000Y-98476760D03*
X158756000Y-96477780D03*
D42*
X190556000Y-115976000D03*
X184356000Y-115976000D03*
D18*
X104968000Y-117602000D03*
X106868000Y-117602000D03*
X106238000Y-128524000D03*
X108138000Y-128524000D03*
D43*
X134256000Y-109326000D03*
X134256000Y-112226000D03*
D44*
X118606000Y-88376000D03*
X121506000Y-88376000D03*
X175006000Y-116076000D03*
X172106000Y-116076000D03*
D17*
X183081000Y-76601000D03*
X183081000Y-74701000D03*
X109106000Y-77651000D03*
X109106000Y-79551000D03*
X109106000Y-72451000D03*
X109106000Y-74351000D03*
M02*
