G04 #@! TF.FileFunction,Legend,Top*
%FSLAX46Y46*%
G04 Gerber Fmt 4.6, Leading zero omitted, Abs format (unit mm)*
G04 Created by KiCad (PCBNEW (2016-05-27 BZR 6836, Git 4441a4b)-product) date 09/13/16 14:24:09*
%MOMM*%
%LPD*%
G01*
G04 APERTURE LIST*
%ADD10C,0.100000*%
%ADD11C,0.300000*%
%ADD12C,0.150000*%
%ADD13C,0.254000*%
%ADD14C,0.062500*%
%ADD15C,0.203200*%
G04 APERTURE END LIST*
D10*
D11*
X99034571Y-99736714D02*
X99034571Y-100451000D01*
X97534571Y-100451000D01*
X97534571Y-99451000D02*
X97534571Y-98593857D01*
X99034571Y-99022428D02*
X97534571Y-99022428D01*
X98891714Y-97236714D02*
X98963142Y-97308142D01*
X99034571Y-97522428D01*
X99034571Y-97665285D01*
X98963142Y-97879571D01*
X98820285Y-98022428D01*
X98677428Y-98093857D01*
X98391714Y-98165285D01*
X98177428Y-98165285D01*
X97891714Y-98093857D01*
X97748857Y-98022428D01*
X97606000Y-97879571D01*
X97534571Y-97665285D01*
X97534571Y-97522428D01*
X97606000Y-97308142D01*
X97677428Y-97236714D01*
X97534571Y-96736714D02*
X97534571Y-95808142D01*
X98106000Y-96308142D01*
X98106000Y-96093857D01*
X98177428Y-95951000D01*
X98248857Y-95879571D01*
X98391714Y-95808142D01*
X98748857Y-95808142D01*
X98891714Y-95879571D01*
X98963142Y-95951000D01*
X99034571Y-96093857D01*
X99034571Y-96522428D01*
X98963142Y-96665285D01*
X98891714Y-96736714D01*
X98891714Y-95165285D02*
X98963142Y-95093857D01*
X99034571Y-95165285D01*
X98963142Y-95236714D01*
X98891714Y-95165285D01*
X99034571Y-95165285D01*
X98106000Y-95165285D02*
X98177428Y-95093857D01*
X98248857Y-95165285D01*
X98177428Y-95236714D01*
X98106000Y-95165285D01*
X98248857Y-95165285D01*
X98891714Y-92451000D02*
X98963142Y-92522428D01*
X99034571Y-92736714D01*
X99034571Y-92879571D01*
X98963142Y-93093857D01*
X98820285Y-93236714D01*
X98677428Y-93308142D01*
X98391714Y-93379571D01*
X98177428Y-93379571D01*
X97891714Y-93308142D01*
X97748857Y-93236714D01*
X97606000Y-93093857D01*
X97534571Y-92879571D01*
X97534571Y-92736714D01*
X97606000Y-92522428D01*
X97677428Y-92451000D01*
X99034571Y-91808142D02*
X97534571Y-91808142D01*
X99034571Y-91165285D02*
X98248857Y-91165285D01*
X98106000Y-91236714D01*
X98034571Y-91379571D01*
X98034571Y-91593857D01*
X98106000Y-91736714D01*
X98177428Y-91808142D01*
X99034571Y-89808142D02*
X98248857Y-89808142D01*
X98106000Y-89879571D01*
X98034571Y-90022428D01*
X98034571Y-90308142D01*
X98106000Y-90451000D01*
X98963142Y-89808142D02*
X99034571Y-89951000D01*
X99034571Y-90308142D01*
X98963142Y-90451000D01*
X98820285Y-90522428D01*
X98677428Y-90522428D01*
X98534571Y-90451000D01*
X98463142Y-90308142D01*
X98463142Y-89951000D01*
X98391714Y-89808142D01*
X99034571Y-89093857D02*
X98034571Y-89093857D01*
X98320285Y-89093857D02*
X98177428Y-89022428D01*
X98106000Y-88951000D01*
X98034571Y-88808142D01*
X98034571Y-88665285D01*
X98034571Y-87522428D02*
X99248857Y-87522428D01*
X99391714Y-87593857D01*
X99463142Y-87665285D01*
X99534571Y-87808142D01*
X99534571Y-88022428D01*
X99463142Y-88165285D01*
X98963142Y-87522428D02*
X99034571Y-87665285D01*
X99034571Y-87951000D01*
X98963142Y-88093857D01*
X98891714Y-88165285D01*
X98748857Y-88236714D01*
X98320285Y-88236714D01*
X98177428Y-88165285D01*
X98106000Y-88093857D01*
X98034571Y-87951000D01*
X98034571Y-87665285D01*
X98106000Y-87522428D01*
X98963142Y-86236714D02*
X99034571Y-86379571D01*
X99034571Y-86665285D01*
X98963142Y-86808142D01*
X98820285Y-86879571D01*
X98248857Y-86879571D01*
X98106000Y-86808142D01*
X98034571Y-86665285D01*
X98034571Y-86379571D01*
X98106000Y-86236714D01*
X98248857Y-86165285D01*
X98391714Y-86165285D01*
X98534571Y-86879571D01*
X98891714Y-83522428D02*
X98963142Y-83593857D01*
X99034571Y-83808142D01*
X99034571Y-83951000D01*
X98963142Y-84165285D01*
X98820285Y-84308142D01*
X98677428Y-84379571D01*
X98391714Y-84451000D01*
X98177428Y-84451000D01*
X97891714Y-84379571D01*
X97748857Y-84308142D01*
X97606000Y-84165285D01*
X97534571Y-83951000D01*
X97534571Y-83808142D01*
X97606000Y-83593857D01*
X97677428Y-83522428D01*
X99034571Y-82665285D02*
X98963142Y-82808142D01*
X98891714Y-82879571D01*
X98748857Y-82951000D01*
X98320285Y-82951000D01*
X98177428Y-82879571D01*
X98106000Y-82808142D01*
X98034571Y-82665285D01*
X98034571Y-82451000D01*
X98106000Y-82308142D01*
X98177428Y-82236714D01*
X98320285Y-82165285D01*
X98748857Y-82165285D01*
X98891714Y-82236714D01*
X98963142Y-82308142D01*
X99034571Y-82451000D01*
X99034571Y-82665285D01*
X98034571Y-81522428D02*
X99034571Y-81522428D01*
X98177428Y-81522428D02*
X98106000Y-81451000D01*
X98034571Y-81308142D01*
X98034571Y-81093857D01*
X98106000Y-80951000D01*
X98248857Y-80879571D01*
X99034571Y-80879571D01*
X98034571Y-80379571D02*
X98034571Y-79808142D01*
X97534571Y-80165285D02*
X98820285Y-80165285D01*
X98963142Y-80093857D01*
X99034571Y-79951000D01*
X99034571Y-79808142D01*
X99034571Y-79308142D02*
X98034571Y-79308142D01*
X98320285Y-79308142D02*
X98177428Y-79236714D01*
X98106000Y-79165285D01*
X98034571Y-79022428D01*
X98034571Y-78879571D01*
X99034571Y-78165285D02*
X98963142Y-78308142D01*
X98891714Y-78379571D01*
X98748857Y-78451000D01*
X98320285Y-78451000D01*
X98177428Y-78379571D01*
X98106000Y-78308142D01*
X98034571Y-78165285D01*
X98034571Y-77951000D01*
X98106000Y-77808142D01*
X98177428Y-77736714D01*
X98320285Y-77665285D01*
X98748857Y-77665285D01*
X98891714Y-77736714D01*
X98963142Y-77808142D01*
X99034571Y-77951000D01*
X99034571Y-78165285D01*
X99034571Y-76808142D02*
X98963142Y-76951000D01*
X98820285Y-77022428D01*
X97534571Y-77022428D01*
X99034571Y-76022428D02*
X98963142Y-76165285D01*
X98820285Y-76236714D01*
X97534571Y-76236714D01*
X98963142Y-74879571D02*
X99034571Y-75022428D01*
X99034571Y-75308142D01*
X98963142Y-75451000D01*
X98820285Y-75522428D01*
X98248857Y-75522428D01*
X98106000Y-75451000D01*
X98034571Y-75308142D01*
X98034571Y-75022428D01*
X98106000Y-74879571D01*
X98248857Y-74808142D01*
X98391714Y-74808142D01*
X98534571Y-75522428D01*
X99034571Y-74165285D02*
X98034571Y-74165285D01*
X98320285Y-74165285D02*
X98177428Y-74093857D01*
X98106000Y-74022428D01*
X98034571Y-73879571D01*
X98034571Y-73736714D01*
X101584571Y-93343857D02*
X101584571Y-93058142D01*
X101513142Y-92915285D01*
X101441714Y-92843857D01*
X101227428Y-92701000D01*
X100941714Y-92629571D01*
X100370285Y-92629571D01*
X100227428Y-92701000D01*
X100156000Y-92772428D01*
X100084571Y-92915285D01*
X100084571Y-93201000D01*
X100156000Y-93343857D01*
X100227428Y-93415285D01*
X100370285Y-93486714D01*
X100727428Y-93486714D01*
X100870285Y-93415285D01*
X100941714Y-93343857D01*
X101013142Y-93201000D01*
X101013142Y-92915285D01*
X100941714Y-92772428D01*
X100870285Y-92701000D01*
X100727428Y-92629571D01*
X100013142Y-90915285D02*
X101941714Y-92201000D01*
X101584571Y-89629571D02*
X101584571Y-90486714D01*
X101584571Y-90058142D02*
X100084571Y-90058142D01*
X100298857Y-90201000D01*
X100441714Y-90343857D01*
X100513142Y-90486714D01*
X100227428Y-89058142D02*
X100156000Y-88986714D01*
X100084571Y-88843857D01*
X100084571Y-88486714D01*
X100156000Y-88343857D01*
X100227428Y-88272428D01*
X100370285Y-88201000D01*
X100513142Y-88201000D01*
X100727428Y-88272428D01*
X101584571Y-89129571D01*
X101584571Y-88201000D01*
X100013142Y-86486714D02*
X101941714Y-87772428D01*
X100227428Y-86058142D02*
X100156000Y-85986714D01*
X100084571Y-85843857D01*
X100084571Y-85486714D01*
X100156000Y-85343857D01*
X100227428Y-85272428D01*
X100370285Y-85201000D01*
X100513142Y-85201000D01*
X100727428Y-85272428D01*
X101584571Y-86129571D01*
X101584571Y-85201000D01*
X100084571Y-84272428D02*
X100084571Y-84129571D01*
X100156000Y-83986714D01*
X100227428Y-83915285D01*
X100370285Y-83843857D01*
X100656000Y-83772428D01*
X101013142Y-83772428D01*
X101298857Y-83843857D01*
X101441714Y-83915285D01*
X101513142Y-83986714D01*
X101584571Y-84129571D01*
X101584571Y-84272428D01*
X101513142Y-84415285D01*
X101441714Y-84486714D01*
X101298857Y-84558142D01*
X101013142Y-84629571D01*
X100656000Y-84629571D01*
X100370285Y-84558142D01*
X100227428Y-84486714D01*
X100156000Y-84415285D01*
X100084571Y-84272428D01*
X101584571Y-82343857D02*
X101584571Y-83201000D01*
X101584571Y-82772428D02*
X100084571Y-82772428D01*
X100298857Y-82915285D01*
X100441714Y-83058142D01*
X100513142Y-83201000D01*
X100084571Y-81058142D02*
X100084571Y-81343857D01*
X100156000Y-81486714D01*
X100227428Y-81558142D01*
X100441714Y-81701000D01*
X100727428Y-81772428D01*
X101298857Y-81772428D01*
X101441714Y-81701000D01*
X101513142Y-81629571D01*
X101584571Y-81486714D01*
X101584571Y-81201000D01*
X101513142Y-81058142D01*
X101441714Y-80986714D01*
X101298857Y-80915285D01*
X100941714Y-80915285D01*
X100798857Y-80986714D01*
X100727428Y-81058142D01*
X100656000Y-81201000D01*
X100656000Y-81486714D01*
X100727428Y-81629571D01*
X100798857Y-81701000D01*
X100941714Y-81772428D01*
X104134571Y-90665285D02*
X103420285Y-91165285D01*
X104134571Y-91522428D02*
X102634571Y-91522428D01*
X102634571Y-90951000D01*
X102706000Y-90808142D01*
X102777428Y-90736714D01*
X102920285Y-90665285D01*
X103134571Y-90665285D01*
X103277428Y-90736714D01*
X103348857Y-90808142D01*
X103420285Y-90951000D01*
X103420285Y-91522428D01*
X104063142Y-89451000D02*
X104134571Y-89593857D01*
X104134571Y-89879571D01*
X104063142Y-90022428D01*
X103920285Y-90093857D01*
X103348857Y-90093857D01*
X103206000Y-90022428D01*
X103134571Y-89879571D01*
X103134571Y-89593857D01*
X103206000Y-89451000D01*
X103348857Y-89379571D01*
X103491714Y-89379571D01*
X103634571Y-90093857D01*
X103134571Y-88879571D02*
X104134571Y-88522428D01*
X103134571Y-88165285D01*
X103991714Y-87593857D02*
X104063142Y-87522428D01*
X104134571Y-87593857D01*
X104063142Y-87665285D01*
X103991714Y-87593857D01*
X104134571Y-87593857D01*
X104134571Y-84951000D02*
X104134571Y-85808142D01*
X104134571Y-85379571D02*
X102634571Y-85379571D01*
X102848857Y-85522428D01*
X102991714Y-85665285D01*
X103063142Y-85808142D01*
X103991714Y-84308142D02*
X104063142Y-84236714D01*
X104134571Y-84308142D01*
X104063142Y-84379571D01*
X103991714Y-84308142D01*
X104134571Y-84308142D01*
X102634571Y-83308142D02*
X102634571Y-83165285D01*
X102706000Y-83022428D01*
X102777428Y-82951000D01*
X102920285Y-82879571D01*
X103206000Y-82808142D01*
X103563142Y-82808142D01*
X103848857Y-82879571D01*
X103991714Y-82951000D01*
X104063142Y-83022428D01*
X104134571Y-83165285D01*
X104134571Y-83308142D01*
X104063142Y-83451000D01*
X103991714Y-83522428D01*
X103848857Y-83593857D01*
X103563142Y-83665285D01*
X103206000Y-83665285D01*
X102920285Y-83593857D01*
X102777428Y-83522428D01*
X102706000Y-83451000D01*
X102634571Y-83308142D01*
D12*
X176762000Y-84742000D02*
X180962000Y-84742000D01*
X180962000Y-84742000D02*
X180962000Y-71842000D01*
X180962000Y-71842000D02*
X176762000Y-71842000D01*
X176762000Y-71842000D02*
X176762000Y-84742000D01*
X178562000Y-84742000D02*
X178562000Y-84242000D01*
X178562000Y-84242000D02*
X177262000Y-84242000D01*
X177262000Y-84242000D02*
X177262000Y-72342000D01*
X177262000Y-72342000D02*
X178562000Y-72342000D01*
X178562000Y-72342000D02*
X178562000Y-71842000D01*
X179462000Y-84742000D02*
X179462000Y-83742000D01*
X179462000Y-83742000D02*
X180962000Y-83742000D01*
X179462000Y-71842000D02*
X179462000Y-72842000D01*
X179462000Y-72842000D02*
X180962000Y-72842000D01*
X181312000Y-82042000D02*
X181912000Y-82342000D01*
X181912000Y-82342000D02*
X181912000Y-81742000D01*
X181912000Y-81742000D02*
X181312000Y-82042000D01*
X123862000Y-142078000D02*
X104050000Y-142078000D01*
X123862000Y-135347000D02*
X123862000Y-142078000D01*
X104050000Y-135347000D02*
X123862000Y-135347000D01*
X104050000Y-142078000D02*
X104050000Y-135347000D01*
X173631000Y-140526000D02*
X173631000Y-128026000D01*
X173491000Y-140522000D02*
X173491000Y-128030000D01*
X173351000Y-140516000D02*
X173351000Y-128036000D01*
X173211000Y-140506000D02*
X173211000Y-128046000D01*
X173071000Y-140494000D02*
X173071000Y-128058000D01*
X172931000Y-140478000D02*
X172931000Y-128074000D01*
X172791000Y-140459000D02*
X172791000Y-128093000D01*
X172651000Y-140436000D02*
X172651000Y-128116000D01*
X172511000Y-140411000D02*
X172511000Y-128141000D01*
X172371000Y-140382000D02*
X172371000Y-128170000D01*
X172231000Y-140349000D02*
X172231000Y-134797000D01*
X172231000Y-133755000D02*
X172231000Y-128203000D01*
X172091000Y-140314000D02*
X172091000Y-135010000D01*
X172091000Y-133542000D02*
X172091000Y-128238000D01*
X171951000Y-140275000D02*
X171951000Y-135152000D01*
X171951000Y-133400000D02*
X171951000Y-128277000D01*
X171811000Y-140232000D02*
X171811000Y-135254000D01*
X171811000Y-133298000D02*
X171811000Y-128320000D01*
X171671000Y-140185000D02*
X171671000Y-135328000D01*
X171671000Y-133224000D02*
X171671000Y-128367000D01*
X171531000Y-140135000D02*
X171531000Y-135379000D01*
X171531000Y-133173000D02*
X171531000Y-128417000D01*
X171391000Y-140081000D02*
X171391000Y-135411000D01*
X171391000Y-133141000D02*
X171391000Y-128471000D01*
X171251000Y-140024000D02*
X171251000Y-135425000D01*
X171251000Y-133127000D02*
X171251000Y-128528000D01*
X171111000Y-139962000D02*
X171111000Y-135422000D01*
X171111000Y-133130000D02*
X171111000Y-128590000D01*
X170971000Y-139896000D02*
X170971000Y-135402000D01*
X170971000Y-133150000D02*
X170971000Y-128656000D01*
X170831000Y-139825000D02*
X170831000Y-135363000D01*
X170831000Y-133189000D02*
X170831000Y-128727000D01*
X170691000Y-139751000D02*
X170691000Y-135304000D01*
X170691000Y-133248000D02*
X170691000Y-128801000D01*
X170551000Y-139671000D02*
X170551000Y-135221000D01*
X170551000Y-133331000D02*
X170551000Y-128881000D01*
X170411000Y-139587000D02*
X170411000Y-135107000D01*
X170411000Y-133445000D02*
X170411000Y-128965000D01*
X170271000Y-139497000D02*
X170271000Y-134946000D01*
X170271000Y-133606000D02*
X170271000Y-129055000D01*
X170131000Y-139403000D02*
X170131000Y-134685000D01*
X170131000Y-133867000D02*
X170131000Y-129149000D01*
X169991000Y-139302000D02*
X169991000Y-129250000D01*
X169851000Y-139195000D02*
X169851000Y-129357000D01*
X169711000Y-139083000D02*
X169711000Y-129469000D01*
X169571000Y-138963000D02*
X169571000Y-129589000D01*
X169431000Y-138835000D02*
X169431000Y-129717000D01*
X169291000Y-138700000D02*
X169291000Y-129852000D01*
X169151000Y-138556000D02*
X169151000Y-129996000D01*
X169011000Y-138401000D02*
X169011000Y-130151000D01*
X168871000Y-138236000D02*
X168871000Y-130316000D01*
X168731000Y-138059000D02*
X168731000Y-130493000D01*
X168591000Y-137868000D02*
X168591000Y-130684000D01*
X168451000Y-137659000D02*
X168451000Y-130893000D01*
X168311000Y-137431000D02*
X168311000Y-131121000D01*
X168171000Y-137179000D02*
X168171000Y-131373000D01*
X168031000Y-136895000D02*
X168031000Y-131657000D01*
X167891000Y-136567000D02*
X167891000Y-131985000D01*
X167751000Y-136173000D02*
X167751000Y-132379000D01*
X167611000Y-135659000D02*
X167611000Y-132893000D01*
X167471000Y-134709000D02*
X167471000Y-133843000D01*
X172356000Y-134276000D02*
G75*
G03X172356000Y-134276000I-1150000J0D01*
G01*
X179993500Y-134276000D02*
G75*
G03X179993500Y-134276000I-6287500J0D01*
G01*
X115404000Y-92702000D02*
X115404000Y-91702000D01*
X113704000Y-91702000D02*
X113704000Y-92702000D01*
X129501000Y-96893000D02*
X129501000Y-95893000D01*
X127801000Y-95893000D02*
X127801000Y-96893000D01*
X137050400Y-90945600D02*
X136050400Y-90945600D01*
X136050400Y-92645600D02*
X137050400Y-92645600D01*
X137025000Y-93511000D02*
X136025000Y-93511000D01*
X136025000Y-95211000D02*
X137025000Y-95211000D01*
X144311000Y-66556000D02*
X144311000Y-67556000D01*
X146011000Y-67556000D02*
X146011000Y-66556000D01*
X126072000Y-91940000D02*
X126072000Y-90940000D01*
X124372000Y-90940000D02*
X124372000Y-91940000D01*
X147582000Y-92544000D02*
X148582000Y-92544000D01*
X148582000Y-90844000D02*
X147582000Y-90844000D01*
X153678000Y-92544000D02*
X154678000Y-92544000D01*
X154678000Y-90844000D02*
X153678000Y-90844000D01*
X130214000Y-88019000D02*
X130214000Y-89019000D01*
X131914000Y-89019000D02*
X131914000Y-88019000D01*
X126072000Y-96893000D02*
X126072000Y-95893000D01*
X124372000Y-95893000D02*
X124372000Y-96893000D01*
X157060000Y-78732000D02*
X157060000Y-77732000D01*
X155360000Y-77732000D02*
X155360000Y-78732000D01*
X138088000Y-66175000D02*
X138088000Y-67175000D01*
X139788000Y-67175000D02*
X139788000Y-66175000D01*
X119722000Y-85590000D02*
X119722000Y-84590000D01*
X118022000Y-84590000D02*
X118022000Y-85590000D01*
X118626000Y-73875000D02*
X119626000Y-73875000D01*
X119626000Y-72175000D02*
X118626000Y-72175000D01*
X127420000Y-72017000D02*
X127420000Y-73017000D01*
X129120000Y-73017000D02*
X129120000Y-72017000D01*
X125134000Y-72017000D02*
X125134000Y-73017000D01*
X126834000Y-73017000D02*
X126834000Y-72017000D01*
X149487000Y-67525000D02*
X150487000Y-67525000D01*
X150487000Y-65825000D02*
X149487000Y-65825000D01*
X114181000Y-97370000D02*
X115181000Y-97370000D01*
X115181000Y-95670000D02*
X114181000Y-95670000D01*
X166256000Y-101226000D02*
X165256000Y-101226000D01*
X165256000Y-102926000D02*
X166256000Y-102926000D01*
X159606000Y-82976000D02*
X159606000Y-81976000D01*
X157906000Y-81976000D02*
X157906000Y-82976000D01*
X155406000Y-81976000D02*
X155406000Y-82976000D01*
X157106000Y-82976000D02*
X157106000Y-81976000D01*
X167425000Y-89416000D02*
X167425000Y-90416000D01*
X169125000Y-90416000D02*
X169125000Y-89416000D01*
X148399500Y-88138000D02*
X148780500Y-88138000D01*
X147383500Y-88138000D02*
X147764500Y-88138000D01*
X147764500Y-88138000D02*
X148399500Y-87757000D01*
X148399500Y-87757000D02*
X148399500Y-88519000D01*
X148399500Y-88519000D02*
X147764500Y-88138000D01*
X147764500Y-87630000D02*
X147764500Y-88646000D01*
X146082000Y-89038000D02*
X149622000Y-89038000D01*
X146082000Y-87238000D02*
X149622000Y-87238000D01*
X153860500Y-88138000D02*
X153479500Y-88138000D01*
X154876500Y-88138000D02*
X154495500Y-88138000D01*
X154495500Y-88138000D02*
X153860500Y-88519000D01*
X153860500Y-88519000D02*
X153860500Y-87757000D01*
X153860500Y-87757000D02*
X154495500Y-88138000D01*
X154495500Y-88646000D02*
X154495500Y-87630000D01*
X156178000Y-87238000D02*
X152638000Y-87238000D01*
X156178000Y-89038000D02*
X152638000Y-89038000D01*
X137170000Y-140692000D02*
X135270000Y-140692000D01*
X135270000Y-140692000D02*
X135070000Y-140492000D01*
X137370000Y-140492000D02*
X137170000Y-140692000D01*
X137370000Y-137892000D02*
X137170000Y-137692000D01*
X137170000Y-137692000D02*
X135270000Y-137692000D01*
X135270000Y-137692000D02*
X135070000Y-137892000D01*
X142621000Y-113411000D02*
G75*
G03X142621000Y-113411000I-127000J0D01*
G01*
X143129000Y-114046000D02*
X143129000Y-108966000D01*
X139827000Y-114046000D02*
X139827000Y-108966000D01*
X143637000Y-114046000D02*
X143637000Y-108966000D01*
X143637000Y-114046000D02*
X139827000Y-114046000D01*
X143637000Y-108966000D02*
X139827000Y-108966000D01*
X148209000Y-108585000D02*
G75*
G03X148209000Y-108585000I-127000J0D01*
G01*
X148717000Y-109220000D02*
X148717000Y-104140000D01*
X145415000Y-109220000D02*
X145415000Y-104140000D01*
X149225000Y-109220000D02*
X149225000Y-104140000D01*
X149225000Y-109220000D02*
X145415000Y-109220000D01*
X149225000Y-104140000D02*
X145415000Y-104140000D01*
X161925000Y-109601000D02*
G75*
G03X161925000Y-109601000I-127000J0D01*
G01*
X161163000Y-108966000D02*
X161163000Y-114046000D01*
X164465000Y-108966000D02*
X164465000Y-114046000D01*
X160655000Y-108966000D02*
X160655000Y-114046000D01*
X160655000Y-108966000D02*
X164465000Y-108966000D01*
X160655000Y-114046000D02*
X164465000Y-114046000D01*
X156337000Y-104648000D02*
G75*
G03X156337000Y-104648000I-127000J0D01*
G01*
X155575000Y-104013000D02*
X155575000Y-109093000D01*
X158877000Y-104013000D02*
X158877000Y-109093000D01*
X155067000Y-104013000D02*
X155067000Y-109093000D01*
X155067000Y-104013000D02*
X158877000Y-104013000D01*
X155067000Y-109093000D02*
X158877000Y-109093000D01*
X165383160Y-89265760D02*
X165334900Y-89265760D01*
X162584180Y-89966800D02*
X162584180Y-89265760D01*
X162584180Y-89265760D02*
X162833100Y-89265760D01*
X165383160Y-89265760D02*
X165583820Y-89265760D01*
X165583820Y-89265760D02*
X165583820Y-89966800D01*
X121525000Y-78140000D02*
X121525000Y-79340000D01*
X119775000Y-79340000D02*
X119775000Y-78140000D01*
X117489000Y-79340000D02*
X117489000Y-78140000D01*
X119239000Y-78140000D02*
X119239000Y-79340000D01*
X129045000Y-139792000D02*
X129045000Y-138592000D01*
X130795000Y-138592000D02*
X130795000Y-139792000D01*
X126251000Y-139792000D02*
X126251000Y-138592000D01*
X128001000Y-138592000D02*
X128001000Y-139792000D01*
X113806000Y-87849000D02*
X113806000Y-86649000D01*
X115556000Y-86649000D02*
X115556000Y-87849000D01*
X134585000Y-70725000D02*
X133385000Y-70725000D01*
X133385000Y-68975000D02*
X134585000Y-68975000D01*
X131839000Y-139792000D02*
X131839000Y-138592000D01*
X133589000Y-138592000D02*
X133589000Y-139792000D01*
X138951000Y-139792000D02*
X138951000Y-138592000D01*
X140701000Y-138592000D02*
X140701000Y-139792000D01*
X113933000Y-83404000D02*
X113933000Y-82204000D01*
X115683000Y-82204000D02*
X115683000Y-83404000D01*
X121553000Y-68926000D02*
X121553000Y-67726000D01*
X123303000Y-67726000D02*
X123303000Y-68926000D01*
X133971000Y-95666000D02*
X133971000Y-96866000D01*
X132221000Y-96866000D02*
X132221000Y-95666000D01*
X143750000Y-66456000D02*
X143750000Y-67656000D01*
X142000000Y-67656000D02*
X142000000Y-66456000D01*
X146798000Y-74711000D02*
X146798000Y-75911000D01*
X145048000Y-75911000D02*
X145048000Y-74711000D01*
X132348000Y-67148000D02*
X132348000Y-65948000D01*
X134098000Y-65948000D02*
X134098000Y-67148000D01*
X131304000Y-65948000D02*
X131304000Y-67148000D01*
X129554000Y-67148000D02*
X129554000Y-65948000D01*
X131939000Y-91856000D02*
X131939000Y-93056000D01*
X130189000Y-93056000D02*
X130189000Y-91856000D01*
X152795000Y-78832000D02*
X152795000Y-77632000D01*
X154545000Y-77632000D02*
X154545000Y-78832000D01*
X132983000Y-86960000D02*
X132983000Y-85760000D01*
X134733000Y-85760000D02*
X134733000Y-86960000D01*
X161706000Y-71515000D02*
X162906000Y-71515000D01*
X162906000Y-73265000D02*
X161706000Y-73265000D01*
X161706000Y-68721000D02*
X162906000Y-68721000D01*
X162906000Y-70471000D02*
X161706000Y-70471000D01*
X150587000Y-72884000D02*
X149387000Y-72884000D01*
X149387000Y-71134000D02*
X150587000Y-71134000D01*
X150587000Y-75678000D02*
X149387000Y-75678000D01*
X149387000Y-73928000D02*
X150587000Y-73928000D01*
X120791000Y-85690000D02*
X120791000Y-84490000D01*
X122541000Y-84490000D02*
X122541000Y-85690000D01*
X118526000Y-74690000D02*
X119726000Y-74690000D01*
X119726000Y-76440000D02*
X118526000Y-76440000D01*
X123303000Y-71790000D02*
X123303000Y-72990000D01*
X121553000Y-72990000D02*
X121553000Y-71790000D01*
X150587000Y-69963000D02*
X149387000Y-69963000D01*
X149387000Y-68213000D02*
X150587000Y-68213000D01*
X118251000Y-96993000D02*
X118251000Y-95793000D01*
X120001000Y-95793000D02*
X120001000Y-96993000D01*
X118251000Y-93056000D02*
X118251000Y-91856000D01*
X120001000Y-91856000D02*
X120001000Y-93056000D01*
X111619000Y-91602000D02*
X111619000Y-92802000D01*
X109869000Y-92802000D02*
X109869000Y-91602000D01*
X121426000Y-95342000D02*
X121426000Y-94142000D01*
X123176000Y-94142000D02*
X123176000Y-95342000D01*
X152881000Y-82976000D02*
X152881000Y-81776000D01*
X154631000Y-81776000D02*
X154631000Y-82976000D01*
X160387000Y-91348000D02*
X160387000Y-92548000D01*
X158637000Y-92548000D02*
X158637000Y-91348000D01*
X164959000Y-84490000D02*
X164959000Y-85690000D01*
X163209000Y-85690000D02*
X163209000Y-84490000D01*
X139192000Y-74221360D02*
X135691880Y-74221360D01*
X135691880Y-74221360D02*
X135691880Y-85275440D01*
X135691880Y-85275440D02*
X142692120Y-85275440D01*
X142692120Y-85275440D02*
X142692120Y-74221360D01*
X142692120Y-74221360D02*
X139192000Y-74221360D01*
X171458254Y-95471000D02*
G75*
G03X171458254Y-95471000I-228254J0D01*
G01*
D10*
X168677500Y-95863500D02*
X168677500Y-92863500D01*
X168677500Y-92863500D02*
X171677500Y-92863500D01*
X171677500Y-92863500D02*
X171677500Y-95863500D01*
X171677500Y-95863500D02*
X168677500Y-95863500D01*
D13*
X138303000Y-134366000D02*
X138303000Y-114554000D01*
X166243000Y-134366000D02*
X138303000Y-134366000D01*
X166243000Y-114554000D02*
X166243000Y-134366000D01*
X138303000Y-114554000D02*
X166243000Y-114554000D01*
D12*
X156836400Y-68919200D02*
X156836400Y-72519200D01*
X158936400Y-68919200D02*
X158936400Y-72519200D01*
X158186400Y-70969200D02*
X157586400Y-70969200D01*
X157586400Y-70969200D02*
X157886400Y-70669200D01*
X157886400Y-70669200D02*
X158086400Y-70869200D01*
X158086400Y-70869200D02*
X157836400Y-70869200D01*
X157836400Y-70869200D02*
X157886400Y-70819200D01*
X158386400Y-70569200D02*
X157386400Y-70569200D01*
X157886400Y-71069200D02*
X157886400Y-71569200D01*
X157886400Y-70569200D02*
X158386400Y-71069200D01*
X158386400Y-71069200D02*
X157386400Y-71069200D01*
X157386400Y-71069200D02*
X157886400Y-70569200D01*
X153432800Y-68868400D02*
X153432800Y-72468400D01*
X155532800Y-68868400D02*
X155532800Y-72468400D01*
X154782800Y-70918400D02*
X154182800Y-70918400D01*
X154182800Y-70918400D02*
X154482800Y-70618400D01*
X154482800Y-70618400D02*
X154682800Y-70818400D01*
X154682800Y-70818400D02*
X154432800Y-70818400D01*
X154432800Y-70818400D02*
X154482800Y-70768400D01*
X154982800Y-70518400D02*
X153982800Y-70518400D01*
X154482800Y-71018400D02*
X154482800Y-71518400D01*
X154482800Y-70518400D02*
X154982800Y-71018400D01*
X154982800Y-71018400D02*
X153982800Y-71018400D01*
X153982800Y-71018400D02*
X154482800Y-70518400D01*
X151630000Y-95925000D02*
X150630000Y-95925000D01*
X150630000Y-94575000D02*
X151630000Y-94575000D01*
X144693000Y-96782000D02*
X144693000Y-97782000D01*
X143343000Y-97782000D02*
X143343000Y-96782000D01*
X137327000Y-98306000D02*
X137327000Y-99306000D01*
X135977000Y-99306000D02*
X135977000Y-98306000D01*
X157900000Y-77732000D02*
X157900000Y-78732000D01*
X159600000Y-78732000D02*
X159600000Y-77732000D01*
X175627000Y-101254000D02*
X175627000Y-102454000D01*
X173877000Y-102454000D02*
X173877000Y-101254000D01*
X176925000Y-102454000D02*
X176925000Y-101254000D01*
X178675000Y-101254000D02*
X178675000Y-102454000D01*
X178675000Y-97190000D02*
X178675000Y-98390000D01*
X176925000Y-98390000D02*
X176925000Y-97190000D01*
X175627000Y-97190000D02*
X175627000Y-98390000D01*
X173877000Y-98390000D02*
X173877000Y-97190000D01*
X132972000Y-132602500D02*
X130940000Y-132602500D01*
X130559000Y-132475500D02*
X133480000Y-132475500D01*
X133734000Y-132348500D02*
X130178000Y-132348500D01*
X129797000Y-132221500D02*
X134115000Y-132221500D01*
X134369000Y-132094500D02*
X129543000Y-132094500D01*
X129416000Y-131967500D02*
X134496000Y-131967500D01*
X126749000Y-132983500D02*
X137163000Y-132983500D01*
X137163000Y-132983500D02*
X137163000Y-123331500D01*
X137163000Y-123331500D02*
X136401000Y-122569500D01*
X136401000Y-122569500D02*
X127511000Y-122569500D01*
X127511000Y-122569500D02*
X126749000Y-123331500D01*
X126749000Y-123331500D02*
X126749000Y-132983500D01*
X131956000Y-123204500D02*
X131956000Y-123966500D01*
X131575000Y-123585500D02*
X132337000Y-123585500D01*
X136909000Y-127776500D02*
G75*
G03X136909000Y-127776500I-4953000J0D01*
G01*
X123952000Y-107696000D02*
X125984000Y-107696000D01*
X126365000Y-107823000D02*
X123444000Y-107823000D01*
X123190000Y-107950000D02*
X126746000Y-107950000D01*
X127127000Y-108077000D02*
X122809000Y-108077000D01*
X122555000Y-108204000D02*
X127381000Y-108204000D01*
X127508000Y-108331000D02*
X122428000Y-108331000D01*
X130175000Y-107315000D02*
X119761000Y-107315000D01*
X119761000Y-107315000D02*
X119761000Y-116967000D01*
X119761000Y-116967000D02*
X120523000Y-117729000D01*
X120523000Y-117729000D02*
X129413000Y-117729000D01*
X129413000Y-117729000D02*
X130175000Y-116967000D01*
X130175000Y-116967000D02*
X130175000Y-107315000D01*
X124968000Y-117094000D02*
X124968000Y-116332000D01*
X125349000Y-116713000D02*
X124587000Y-116713000D01*
X129921000Y-112522000D02*
G75*
G03X129921000Y-112522000I-4953000J0D01*
G01*
X121412000Y-132602500D02*
X119380000Y-132602500D01*
X118999000Y-132475500D02*
X121920000Y-132475500D01*
X122174000Y-132348500D02*
X118618000Y-132348500D01*
X118237000Y-132221500D02*
X122555000Y-132221500D01*
X122809000Y-132094500D02*
X117983000Y-132094500D01*
X117856000Y-131967500D02*
X122936000Y-131967500D01*
X115189000Y-132983500D02*
X125603000Y-132983500D01*
X125603000Y-132983500D02*
X125603000Y-123331500D01*
X125603000Y-123331500D02*
X124841000Y-122569500D01*
X124841000Y-122569500D02*
X115951000Y-122569500D01*
X115951000Y-122569500D02*
X115189000Y-123331500D01*
X115189000Y-123331500D02*
X115189000Y-132983500D01*
X120396000Y-123204500D02*
X120396000Y-123966500D01*
X120015000Y-123585500D02*
X120777000Y-123585500D01*
X125349000Y-127776500D02*
G75*
G03X125349000Y-127776500I-4953000J0D01*
G01*
X135366000Y-116889000D02*
X133366000Y-116889000D01*
X133366000Y-119839000D02*
X135366000Y-119839000D01*
X114505000Y-129778000D02*
X114505000Y-127778000D01*
X111555000Y-127778000D02*
X111555000Y-129778000D01*
X113079000Y-109514000D02*
X113079000Y-111514000D01*
X116029000Y-111514000D02*
X116029000Y-109514000D01*
X116381000Y-109514000D02*
X116381000Y-111514000D01*
X119331000Y-111514000D02*
X119331000Y-109514000D01*
X136701000Y-104918000D02*
X136701000Y-106918000D01*
X139651000Y-106918000D02*
X139651000Y-104918000D01*
X132891000Y-104918000D02*
X132891000Y-106918000D01*
X135841000Y-106918000D02*
X135841000Y-104918000D01*
X174567000Y-106412000D02*
X174567000Y-111012000D01*
X180017000Y-111012000D02*
X180017000Y-106412000D01*
X168471000Y-106476000D02*
X168471000Y-111076000D01*
X173921000Y-111076000D02*
X173921000Y-106476000D01*
X185928000Y-104775000D02*
X184404000Y-104775000D01*
X184023000Y-104902000D02*
X186309000Y-104902000D01*
X186563000Y-105029000D02*
X183769000Y-105029000D01*
X183515000Y-105156000D02*
X186817000Y-105156000D01*
X186944000Y-105283000D02*
X183388000Y-105283000D01*
X188468000Y-104394000D02*
X181864000Y-104394000D01*
X181864000Y-104394000D02*
X181864000Y-110236000D01*
X181864000Y-110236000D02*
X182626000Y-110998000D01*
X182626000Y-110998000D02*
X187706000Y-110998000D01*
X187706000Y-110998000D02*
X188468000Y-110236000D01*
X188468000Y-110236000D02*
X188468000Y-104394000D01*
X185166000Y-109855000D02*
X185166000Y-109093000D01*
X185547000Y-109474000D02*
X184785000Y-109474000D01*
X188214000Y-107696000D02*
G75*
G03X188214000Y-107696000I-3048000J0D01*
G01*
X171135000Y-122814000D02*
X171135000Y-124338000D01*
X171262000Y-124719000D02*
X171262000Y-122433000D01*
X171389000Y-122179000D02*
X171389000Y-124973000D01*
X171516000Y-125227000D02*
X171516000Y-121925000D01*
X171643000Y-121798000D02*
X171643000Y-125354000D01*
X170754000Y-120274000D02*
X170754000Y-126878000D01*
X170754000Y-126878000D02*
X176596000Y-126878000D01*
X176596000Y-126878000D02*
X177358000Y-126116000D01*
X177358000Y-126116000D02*
X177358000Y-121036000D01*
X177358000Y-121036000D02*
X176596000Y-120274000D01*
X176596000Y-120274000D02*
X170754000Y-120274000D01*
X176215000Y-123576000D02*
X175453000Y-123576000D01*
X175834000Y-123195000D02*
X175834000Y-123957000D01*
X177104000Y-123576000D02*
G75*
G03X177104000Y-123576000I-3048000J0D01*
G01*
X164156000Y-78258500D02*
X164156000Y-77877500D01*
X164156000Y-79274500D02*
X164156000Y-78893500D01*
X164156000Y-78893500D02*
X163775000Y-78258500D01*
X163775000Y-78258500D02*
X164537000Y-78258500D01*
X164537000Y-78258500D02*
X164156000Y-78893500D01*
X163648000Y-78893500D02*
X164664000Y-78893500D01*
X165056000Y-80576000D02*
X165056000Y-77036000D01*
X163256000Y-80576000D02*
X163256000Y-77036000D01*
X173646000Y-66030000D02*
X167696000Y-66030000D01*
X167696000Y-66030000D02*
X167696000Y-73630000D01*
X167696000Y-73630000D02*
X173646000Y-73630000D01*
X173646000Y-73630000D02*
X173646000Y-66030000D01*
X173646000Y-69330000D02*
X172896000Y-69330000D01*
X172896000Y-69330000D02*
X172896000Y-70330000D01*
X172896000Y-70330000D02*
X173646000Y-70330000D01*
X173646000Y-70330000D02*
X173646000Y-69330000D01*
X173646000Y-66030000D02*
X172896000Y-66030000D01*
X172896000Y-66030000D02*
X172896000Y-67830000D01*
X172896000Y-67830000D02*
X173646000Y-67830000D01*
X173646000Y-67830000D02*
X173646000Y-66030000D01*
X173646000Y-71830000D02*
X172896000Y-71830000D01*
X172896000Y-71830000D02*
X172896000Y-73630000D01*
X172896000Y-73630000D02*
X173646000Y-73630000D01*
X173646000Y-73630000D02*
X173646000Y-71830000D01*
X171396000Y-66030000D02*
X171396000Y-66780000D01*
X171396000Y-66780000D02*
X168446000Y-66780000D01*
X168446000Y-66780000D02*
X168446000Y-69830000D01*
X171396000Y-73630000D02*
X171396000Y-72880000D01*
X171396000Y-72880000D02*
X168446000Y-72880000D01*
X168446000Y-72880000D02*
X168446000Y-69830000D01*
X173946000Y-68580000D02*
X174546000Y-68280000D01*
X174546000Y-68280000D02*
X174546000Y-68880000D01*
X174546000Y-68880000D02*
X173946000Y-68580000D01*
X176762000Y-95156000D02*
X180962000Y-95156000D01*
X180962000Y-95156000D02*
X180962000Y-87256000D01*
X180962000Y-87256000D02*
X176762000Y-87256000D01*
X176762000Y-87256000D02*
X176762000Y-95156000D01*
X178562000Y-95156000D02*
X178562000Y-94656000D01*
X178562000Y-94656000D02*
X177262000Y-94656000D01*
X177262000Y-94656000D02*
X177262000Y-87756000D01*
X177262000Y-87756000D02*
X178562000Y-87756000D01*
X178562000Y-87756000D02*
X178562000Y-87256000D01*
X179462000Y-95156000D02*
X179462000Y-94156000D01*
X179462000Y-94156000D02*
X180962000Y-94156000D01*
X179462000Y-87256000D02*
X179462000Y-88256000D01*
X179462000Y-88256000D02*
X180962000Y-88256000D01*
X181312000Y-92456000D02*
X181912000Y-92756000D01*
X181912000Y-92756000D02*
X181912000Y-92156000D01*
X181912000Y-92156000D02*
X181312000Y-92456000D01*
X160055160Y-96825760D02*
X160006900Y-96825760D01*
X157256180Y-97526800D02*
X157256180Y-96825760D01*
X157256180Y-96825760D02*
X157505100Y-96825760D01*
X160055160Y-96825760D02*
X160255820Y-96825760D01*
X160255820Y-96825760D02*
X160255820Y-97526800D01*
X184856000Y-114151000D02*
X190056000Y-114151000D01*
X190056000Y-117801000D02*
X184856000Y-117801000D01*
X106518000Y-118477000D02*
X105318000Y-118477000D01*
X105318000Y-116727000D02*
X106518000Y-116727000D01*
X107788000Y-129399000D02*
X106588000Y-129399000D01*
X106588000Y-127649000D02*
X107788000Y-127649000D01*
X133181000Y-111776000D02*
X133181000Y-109776000D01*
X135331000Y-109776000D02*
X135331000Y-111776000D01*
X121056000Y-89451000D02*
X119056000Y-89451000D01*
X119056000Y-87301000D02*
X121056000Y-87301000D01*
X172556000Y-115001000D02*
X174556000Y-115001000D01*
X174556000Y-117151000D02*
X172556000Y-117151000D01*
X94706000Y-124676000D02*
X102456000Y-124676000D01*
X94706000Y-107076000D02*
X102456000Y-107076000D01*
X94706000Y-124676000D02*
X94706000Y-107076000D01*
X102456000Y-124676000D02*
X102456000Y-107076000D01*
X183956000Y-75051000D02*
X183956000Y-76251000D01*
X182206000Y-76251000D02*
X182206000Y-75051000D01*
X108231000Y-79201000D02*
X108231000Y-78001000D01*
X109981000Y-78001000D02*
X109981000Y-79201000D01*
X108231000Y-74001000D02*
X108231000Y-72801000D01*
X109981000Y-72801000D02*
X109981000Y-74001000D01*
X190721000Y-89701000D02*
X190721000Y-88431000D01*
X183371000Y-89701000D02*
X183371000Y-88431000D01*
X183371000Y-80031000D02*
X183371000Y-81301000D01*
X190721000Y-80031000D02*
X190721000Y-81301000D01*
X190721000Y-89701000D02*
X183371000Y-89701000D01*
X190721000Y-80031000D02*
X183371000Y-80031000D01*
X190721000Y-88431000D02*
X191656000Y-88431000D01*
X193381000Y-119751000D02*
X185631000Y-119751000D01*
X193381000Y-131351000D02*
X185631000Y-131351000D01*
X193381000Y-119751000D02*
X193381000Y-131351000D01*
X185631000Y-119751000D02*
X185631000Y-131351000D01*
X176014380Y-82780095D02*
X175014380Y-82780095D01*
X175014380Y-82399142D01*
X175062000Y-82303904D01*
X175109619Y-82256285D01*
X175204857Y-82208666D01*
X175347714Y-82208666D01*
X175442952Y-82256285D01*
X175490571Y-82303904D01*
X175538190Y-82399142D01*
X175538190Y-82780095D01*
X175014380Y-81351523D02*
X175014380Y-81542000D01*
X175062000Y-81637238D01*
X175109619Y-81684857D01*
X175252476Y-81780095D01*
X175442952Y-81827714D01*
X175823904Y-81827714D01*
X175919142Y-81780095D01*
X175966761Y-81732476D01*
X176014380Y-81637238D01*
X176014380Y-81446761D01*
X175966761Y-81351523D01*
X175919142Y-81303904D01*
X175823904Y-81256285D01*
X175585809Y-81256285D01*
X175490571Y-81303904D01*
X175442952Y-81351523D01*
X175395333Y-81446761D01*
X175395333Y-81637238D01*
X175442952Y-81732476D01*
X175490571Y-81780095D01*
X175585809Y-81827714D01*
X188122666Y-135783380D02*
X187789333Y-135307190D01*
X187551238Y-135783380D02*
X187551238Y-134783380D01*
X187932190Y-134783380D01*
X188027428Y-134831000D01*
X188075047Y-134878619D01*
X188122666Y-134973857D01*
X188122666Y-135116714D01*
X188075047Y-135211952D01*
X188027428Y-135259571D01*
X187932190Y-135307190D01*
X187551238Y-135307190D01*
X188551238Y-135259571D02*
X188884571Y-135259571D01*
X189027428Y-135783380D02*
X188551238Y-135783380D01*
X188551238Y-134783380D01*
X189027428Y-134783380D01*
X189789333Y-135259571D02*
X189456000Y-135259571D01*
X189456000Y-135783380D02*
X189456000Y-134783380D01*
X189932190Y-134783380D01*
X190456000Y-134783380D02*
X190456000Y-135021476D01*
X190217904Y-134926238D02*
X190456000Y-135021476D01*
X190694095Y-134926238D01*
X190313142Y-135211952D02*
X190456000Y-135021476D01*
X190598857Y-135211952D01*
X191217904Y-134783380D02*
X191217904Y-135021476D01*
X190979809Y-134926238D02*
X191217904Y-135021476D01*
X191456000Y-134926238D01*
X191075047Y-135211952D02*
X191217904Y-135021476D01*
X191360761Y-135211952D01*
X113622666Y-134005571D02*
X113289333Y-134005571D01*
X113289333Y-134529380D02*
X113289333Y-133529380D01*
X113765523Y-133529380D01*
X114670285Y-134529380D02*
X114098857Y-134529380D01*
X114384571Y-134529380D02*
X114384571Y-133529380D01*
X114289333Y-133672238D01*
X114194095Y-133767476D01*
X114098857Y-133815095D01*
X173063142Y-142233142D02*
X173015523Y-142280761D01*
X172872666Y-142328380D01*
X172777428Y-142328380D01*
X172634571Y-142280761D01*
X172539333Y-142185523D01*
X172491714Y-142090285D01*
X172444095Y-141899809D01*
X172444095Y-141756952D01*
X172491714Y-141566476D01*
X172539333Y-141471238D01*
X172634571Y-141376000D01*
X172777428Y-141328380D01*
X172872666Y-141328380D01*
X173015523Y-141376000D01*
X173063142Y-141423619D01*
X173396476Y-141328380D02*
X174015523Y-141328380D01*
X173682190Y-141709333D01*
X173825047Y-141709333D01*
X173920285Y-141756952D01*
X173967904Y-141804571D01*
X174015523Y-141899809D01*
X174015523Y-142137904D01*
X173967904Y-142233142D01*
X173920285Y-142280761D01*
X173825047Y-142328380D01*
X173539333Y-142328380D01*
X173444095Y-142280761D01*
X173396476Y-142233142D01*
X174872666Y-141328380D02*
X174682190Y-141328380D01*
X174586952Y-141376000D01*
X174539333Y-141423619D01*
X174444095Y-141566476D01*
X174396476Y-141756952D01*
X174396476Y-142137904D01*
X174444095Y-142233142D01*
X174491714Y-142280761D01*
X174586952Y-142328380D01*
X174777428Y-142328380D01*
X174872666Y-142280761D01*
X174920285Y-142233142D01*
X174967904Y-142137904D01*
X174967904Y-141899809D01*
X174920285Y-141804571D01*
X174872666Y-141756952D01*
X174777428Y-141709333D01*
X174586952Y-141709333D01*
X174491714Y-141756952D01*
X174444095Y-141804571D01*
X174396476Y-141899809D01*
X114387333Y-95099142D02*
X114339714Y-95146761D01*
X114196857Y-95194380D01*
X114101619Y-95194380D01*
X113958761Y-95146761D01*
X113863523Y-95051523D01*
X113815904Y-94956285D01*
X113768285Y-94765809D01*
X113768285Y-94622952D01*
X113815904Y-94432476D01*
X113863523Y-94337238D01*
X113958761Y-94242000D01*
X114101619Y-94194380D01*
X114196857Y-94194380D01*
X114339714Y-94242000D01*
X114387333Y-94289619D01*
X115339714Y-95194380D02*
X114768285Y-95194380D01*
X115054000Y-95194380D02*
X115054000Y-94194380D01*
X114958761Y-94337238D01*
X114863523Y-94432476D01*
X114768285Y-94480095D01*
X131108142Y-96559666D02*
X131155761Y-96607285D01*
X131203380Y-96750142D01*
X131203380Y-96845380D01*
X131155761Y-96988238D01*
X131060523Y-97083476D01*
X130965285Y-97131095D01*
X130774809Y-97178714D01*
X130631952Y-97178714D01*
X130441476Y-97131095D01*
X130346238Y-97083476D01*
X130251000Y-96988238D01*
X130203380Y-96845380D01*
X130203380Y-96750142D01*
X130251000Y-96607285D01*
X130298619Y-96559666D01*
X130203380Y-96226333D02*
X130203380Y-95607285D01*
X130584333Y-95940619D01*
X130584333Y-95797761D01*
X130631952Y-95702523D01*
X130679571Y-95654904D01*
X130774809Y-95607285D01*
X131012904Y-95607285D01*
X131108142Y-95654904D01*
X131155761Y-95702523D01*
X131203380Y-95797761D01*
X131203380Y-96083476D01*
X131155761Y-96178714D01*
X131108142Y-96226333D01*
X136383733Y-90052742D02*
X136336114Y-90100361D01*
X136193257Y-90147980D01*
X136098019Y-90147980D01*
X135955161Y-90100361D01*
X135859923Y-90005123D01*
X135812304Y-89909885D01*
X135764685Y-89719409D01*
X135764685Y-89576552D01*
X135812304Y-89386076D01*
X135859923Y-89290838D01*
X135955161Y-89195600D01*
X136098019Y-89147980D01*
X136193257Y-89147980D01*
X136336114Y-89195600D01*
X136383733Y-89243219D01*
X137240876Y-89147980D02*
X137050400Y-89147980D01*
X136955161Y-89195600D01*
X136907542Y-89243219D01*
X136812304Y-89386076D01*
X136764685Y-89576552D01*
X136764685Y-89957504D01*
X136812304Y-90052742D01*
X136859923Y-90100361D01*
X136955161Y-90147980D01*
X137145638Y-90147980D01*
X137240876Y-90100361D01*
X137288495Y-90052742D01*
X137336114Y-89957504D01*
X137336114Y-89719409D01*
X137288495Y-89624171D01*
X137240876Y-89576552D01*
X137145638Y-89528933D01*
X136955161Y-89528933D01*
X136859923Y-89576552D01*
X136812304Y-89624171D01*
X136764685Y-89719409D01*
X139189333Y-94783142D02*
X139141714Y-94830761D01*
X138998857Y-94878380D01*
X138903619Y-94878380D01*
X138760761Y-94830761D01*
X138665523Y-94735523D01*
X138617904Y-94640285D01*
X138570285Y-94449809D01*
X138570285Y-94306952D01*
X138617904Y-94116476D01*
X138665523Y-94021238D01*
X138760761Y-93926000D01*
X138903619Y-93878380D01*
X138998857Y-93878380D01*
X139141714Y-93926000D01*
X139189333Y-93973619D01*
X139522666Y-93878380D02*
X140189333Y-93878380D01*
X139760761Y-94878380D01*
X145121333Y-69953142D02*
X145073714Y-70000761D01*
X144930857Y-70048380D01*
X144835619Y-70048380D01*
X144692761Y-70000761D01*
X144597523Y-69905523D01*
X144549904Y-69810285D01*
X144502285Y-69619809D01*
X144502285Y-69476952D01*
X144549904Y-69286476D01*
X144597523Y-69191238D01*
X144692761Y-69096000D01*
X144835619Y-69048380D01*
X144930857Y-69048380D01*
X145073714Y-69096000D01*
X145121333Y-69143619D01*
X145692761Y-69476952D02*
X145597523Y-69429333D01*
X145549904Y-69381714D01*
X145502285Y-69286476D01*
X145502285Y-69238857D01*
X145549904Y-69143619D01*
X145597523Y-69096000D01*
X145692761Y-69048380D01*
X145883238Y-69048380D01*
X145978476Y-69096000D01*
X146026095Y-69143619D01*
X146073714Y-69238857D01*
X146073714Y-69286476D01*
X146026095Y-69381714D01*
X145978476Y-69429333D01*
X145883238Y-69476952D01*
X145692761Y-69476952D01*
X145597523Y-69524571D01*
X145549904Y-69572190D01*
X145502285Y-69667428D01*
X145502285Y-69857904D01*
X145549904Y-69953142D01*
X145597523Y-70000761D01*
X145692761Y-70048380D01*
X145883238Y-70048380D01*
X145978476Y-70000761D01*
X146026095Y-69953142D01*
X146073714Y-69857904D01*
X146073714Y-69667428D01*
X146026095Y-69572190D01*
X145978476Y-69524571D01*
X145883238Y-69476952D01*
X127679142Y-92082857D02*
X127726761Y-92130476D01*
X127774380Y-92273333D01*
X127774380Y-92368571D01*
X127726761Y-92511428D01*
X127631523Y-92606666D01*
X127536285Y-92654285D01*
X127345809Y-92701904D01*
X127202952Y-92701904D01*
X127012476Y-92654285D01*
X126917238Y-92606666D01*
X126822000Y-92511428D01*
X126774380Y-92368571D01*
X126774380Y-92273333D01*
X126822000Y-92130476D01*
X126869619Y-92082857D01*
X127774380Y-91130476D02*
X127774380Y-91701904D01*
X127774380Y-91416190D02*
X126774380Y-91416190D01*
X126917238Y-91511428D01*
X127012476Y-91606666D01*
X127060095Y-91701904D01*
X126774380Y-90511428D02*
X126774380Y-90416190D01*
X126822000Y-90320952D01*
X126869619Y-90273333D01*
X126964857Y-90225714D01*
X127155333Y-90178095D01*
X127393428Y-90178095D01*
X127583904Y-90225714D01*
X127679142Y-90273333D01*
X127726761Y-90320952D01*
X127774380Y-90416190D01*
X127774380Y-90511428D01*
X127726761Y-90606666D01*
X127679142Y-90654285D01*
X127583904Y-90701904D01*
X127393428Y-90749523D01*
X127155333Y-90749523D01*
X126964857Y-90701904D01*
X126869619Y-90654285D01*
X126822000Y-90606666D01*
X126774380Y-90511428D01*
X147439142Y-93829142D02*
X147391523Y-93876761D01*
X147248666Y-93924380D01*
X147153428Y-93924380D01*
X147010571Y-93876761D01*
X146915333Y-93781523D01*
X146867714Y-93686285D01*
X146820095Y-93495809D01*
X146820095Y-93352952D01*
X146867714Y-93162476D01*
X146915333Y-93067238D01*
X147010571Y-92972000D01*
X147153428Y-92924380D01*
X147248666Y-92924380D01*
X147391523Y-92972000D01*
X147439142Y-93019619D01*
X148391523Y-93924380D02*
X147820095Y-93924380D01*
X148105809Y-93924380D02*
X148105809Y-92924380D01*
X148010571Y-93067238D01*
X147915333Y-93162476D01*
X147820095Y-93210095D01*
X148724857Y-92924380D02*
X149343904Y-92924380D01*
X149010571Y-93305333D01*
X149153428Y-93305333D01*
X149248666Y-93352952D01*
X149296285Y-93400571D01*
X149343904Y-93495809D01*
X149343904Y-93733904D01*
X149296285Y-93829142D01*
X149248666Y-93876761D01*
X149153428Y-93924380D01*
X148867714Y-93924380D01*
X148772476Y-93876761D01*
X148724857Y-93829142D01*
X153535142Y-94151142D02*
X153487523Y-94198761D01*
X153344666Y-94246380D01*
X153249428Y-94246380D01*
X153106571Y-94198761D01*
X153011333Y-94103523D01*
X152963714Y-94008285D01*
X152916095Y-93817809D01*
X152916095Y-93674952D01*
X152963714Y-93484476D01*
X153011333Y-93389238D01*
X153106571Y-93294000D01*
X153249428Y-93246380D01*
X153344666Y-93246380D01*
X153487523Y-93294000D01*
X153535142Y-93341619D01*
X154487523Y-94246380D02*
X153916095Y-94246380D01*
X154201809Y-94246380D02*
X154201809Y-93246380D01*
X154106571Y-93389238D01*
X154011333Y-93484476D01*
X153916095Y-93532095D01*
X155392285Y-93246380D02*
X154916095Y-93246380D01*
X154868476Y-93722571D01*
X154916095Y-93674952D01*
X155011333Y-93627333D01*
X155249428Y-93627333D01*
X155344666Y-93674952D01*
X155392285Y-93722571D01*
X155439904Y-93817809D01*
X155439904Y-94055904D01*
X155392285Y-94151142D01*
X155344666Y-94198761D01*
X155249428Y-94246380D01*
X155011333Y-94246380D01*
X154916095Y-94198761D01*
X154868476Y-94151142D01*
X129321142Y-89161857D02*
X129368761Y-89209476D01*
X129416380Y-89352333D01*
X129416380Y-89447571D01*
X129368761Y-89590428D01*
X129273523Y-89685666D01*
X129178285Y-89733285D01*
X128987809Y-89780904D01*
X128844952Y-89780904D01*
X128654476Y-89733285D01*
X128559238Y-89685666D01*
X128464000Y-89590428D01*
X128416380Y-89447571D01*
X128416380Y-89352333D01*
X128464000Y-89209476D01*
X128511619Y-89161857D01*
X129416380Y-88209476D02*
X129416380Y-88780904D01*
X129416380Y-88495190D02*
X128416380Y-88495190D01*
X128559238Y-88590428D01*
X128654476Y-88685666D01*
X128702095Y-88780904D01*
X128416380Y-87352333D02*
X128416380Y-87542809D01*
X128464000Y-87638047D01*
X128511619Y-87685666D01*
X128654476Y-87780904D01*
X128844952Y-87828523D01*
X129225904Y-87828523D01*
X129321142Y-87780904D01*
X129368761Y-87733285D01*
X129416380Y-87638047D01*
X129416380Y-87447571D01*
X129368761Y-87352333D01*
X129321142Y-87304714D01*
X129225904Y-87257095D01*
X128987809Y-87257095D01*
X128892571Y-87304714D01*
X128844952Y-87352333D01*
X128797333Y-87447571D01*
X128797333Y-87638047D01*
X128844952Y-87733285D01*
X128892571Y-87780904D01*
X128987809Y-87828523D01*
X127679142Y-97035857D02*
X127726761Y-97083476D01*
X127774380Y-97226333D01*
X127774380Y-97321571D01*
X127726761Y-97464428D01*
X127631523Y-97559666D01*
X127536285Y-97607285D01*
X127345809Y-97654904D01*
X127202952Y-97654904D01*
X127012476Y-97607285D01*
X126917238Y-97559666D01*
X126822000Y-97464428D01*
X126774380Y-97321571D01*
X126774380Y-97226333D01*
X126822000Y-97083476D01*
X126869619Y-97035857D01*
X127774380Y-96083476D02*
X127774380Y-96654904D01*
X127774380Y-96369190D02*
X126774380Y-96369190D01*
X126917238Y-96464428D01*
X127012476Y-96559666D01*
X127060095Y-96654904D01*
X126774380Y-95750142D02*
X126774380Y-95083476D01*
X127774380Y-95512047D01*
X158667142Y-78874857D02*
X158714761Y-78922476D01*
X158762380Y-79065333D01*
X158762380Y-79160571D01*
X158714761Y-79303428D01*
X158619523Y-79398666D01*
X158524285Y-79446285D01*
X158333809Y-79493904D01*
X158190952Y-79493904D01*
X158000476Y-79446285D01*
X157905238Y-79398666D01*
X157810000Y-79303428D01*
X157762380Y-79160571D01*
X157762380Y-79065333D01*
X157810000Y-78922476D01*
X157857619Y-78874857D01*
X158762380Y-77922476D02*
X158762380Y-78493904D01*
X158762380Y-78208190D02*
X157762380Y-78208190D01*
X157905238Y-78303428D01*
X158000476Y-78398666D01*
X158048095Y-78493904D01*
X158190952Y-77351047D02*
X158143333Y-77446285D01*
X158095714Y-77493904D01*
X158000476Y-77541523D01*
X157952857Y-77541523D01*
X157857619Y-77493904D01*
X157810000Y-77446285D01*
X157762380Y-77351047D01*
X157762380Y-77160571D01*
X157810000Y-77065333D01*
X157857619Y-77017714D01*
X157952857Y-76970095D01*
X158000476Y-76970095D01*
X158095714Y-77017714D01*
X158143333Y-77065333D01*
X158190952Y-77160571D01*
X158190952Y-77351047D01*
X158238571Y-77446285D01*
X158286190Y-77493904D01*
X158381428Y-77541523D01*
X158571904Y-77541523D01*
X158667142Y-77493904D01*
X158714761Y-77446285D01*
X158762380Y-77351047D01*
X158762380Y-77160571D01*
X158714761Y-77065333D01*
X158667142Y-77017714D01*
X158571904Y-76970095D01*
X158381428Y-76970095D01*
X158286190Y-77017714D01*
X158238571Y-77065333D01*
X158190952Y-77160571D01*
X138295142Y-64619142D02*
X138247523Y-64666761D01*
X138104666Y-64714380D01*
X138009428Y-64714380D01*
X137866571Y-64666761D01*
X137771333Y-64571523D01*
X137723714Y-64476285D01*
X137676095Y-64285809D01*
X137676095Y-64142952D01*
X137723714Y-63952476D01*
X137771333Y-63857238D01*
X137866571Y-63762000D01*
X138009428Y-63714380D01*
X138104666Y-63714380D01*
X138247523Y-63762000D01*
X138295142Y-63809619D01*
X139247523Y-64714380D02*
X138676095Y-64714380D01*
X138961809Y-64714380D02*
X138961809Y-63714380D01*
X138866571Y-63857238D01*
X138771333Y-63952476D01*
X138676095Y-64000095D01*
X139723714Y-64714380D02*
X139914190Y-64714380D01*
X140009428Y-64666761D01*
X140057047Y-64619142D01*
X140152285Y-64476285D01*
X140199904Y-64285809D01*
X140199904Y-63904857D01*
X140152285Y-63809619D01*
X140104666Y-63762000D01*
X140009428Y-63714380D01*
X139818952Y-63714380D01*
X139723714Y-63762000D01*
X139676095Y-63809619D01*
X139628476Y-63904857D01*
X139628476Y-64142952D01*
X139676095Y-64238190D01*
X139723714Y-64285809D01*
X139818952Y-64333428D01*
X140009428Y-64333428D01*
X140104666Y-64285809D01*
X140152285Y-64238190D01*
X140199904Y-64142952D01*
X117705142Y-85732857D02*
X117752761Y-85780476D01*
X117800380Y-85923333D01*
X117800380Y-86018571D01*
X117752761Y-86161428D01*
X117657523Y-86256666D01*
X117562285Y-86304285D01*
X117371809Y-86351904D01*
X117228952Y-86351904D01*
X117038476Y-86304285D01*
X116943238Y-86256666D01*
X116848000Y-86161428D01*
X116800380Y-86018571D01*
X116800380Y-85923333D01*
X116848000Y-85780476D01*
X116895619Y-85732857D01*
X116895619Y-85351904D02*
X116848000Y-85304285D01*
X116800380Y-85209047D01*
X116800380Y-84970952D01*
X116848000Y-84875714D01*
X116895619Y-84828095D01*
X116990857Y-84780476D01*
X117086095Y-84780476D01*
X117228952Y-84828095D01*
X117800380Y-85399523D01*
X117800380Y-84780476D01*
X116895619Y-84399523D02*
X116848000Y-84351904D01*
X116800380Y-84256666D01*
X116800380Y-84018571D01*
X116848000Y-83923333D01*
X116895619Y-83875714D01*
X116990857Y-83828095D01*
X117086095Y-83828095D01*
X117228952Y-83875714D01*
X117800380Y-84447142D01*
X117800380Y-83828095D01*
X118483142Y-71731142D02*
X118435523Y-71778761D01*
X118292666Y-71826380D01*
X118197428Y-71826380D01*
X118054571Y-71778761D01*
X117959333Y-71683523D01*
X117911714Y-71588285D01*
X117864095Y-71397809D01*
X117864095Y-71254952D01*
X117911714Y-71064476D01*
X117959333Y-70969238D01*
X118054571Y-70874000D01*
X118197428Y-70826380D01*
X118292666Y-70826380D01*
X118435523Y-70874000D01*
X118483142Y-70921619D01*
X118864095Y-70921619D02*
X118911714Y-70874000D01*
X119006952Y-70826380D01*
X119245047Y-70826380D01*
X119340285Y-70874000D01*
X119387904Y-70921619D01*
X119435523Y-71016857D01*
X119435523Y-71112095D01*
X119387904Y-71254952D01*
X118816476Y-71826380D01*
X119435523Y-71826380D01*
X119768857Y-70826380D02*
X120387904Y-70826380D01*
X120054571Y-71207333D01*
X120197428Y-71207333D01*
X120292666Y-71254952D01*
X120340285Y-71302571D01*
X120387904Y-71397809D01*
X120387904Y-71635904D01*
X120340285Y-71731142D01*
X120292666Y-71778761D01*
X120197428Y-71826380D01*
X119911714Y-71826380D01*
X119816476Y-71778761D01*
X119768857Y-71731142D01*
X127627142Y-70461142D02*
X127579523Y-70508761D01*
X127436666Y-70556380D01*
X127341428Y-70556380D01*
X127198571Y-70508761D01*
X127103333Y-70413523D01*
X127055714Y-70318285D01*
X127008095Y-70127809D01*
X127008095Y-69984952D01*
X127055714Y-69794476D01*
X127103333Y-69699238D01*
X127198571Y-69604000D01*
X127341428Y-69556380D01*
X127436666Y-69556380D01*
X127579523Y-69604000D01*
X127627142Y-69651619D01*
X128008095Y-69651619D02*
X128055714Y-69604000D01*
X128150952Y-69556380D01*
X128389047Y-69556380D01*
X128484285Y-69604000D01*
X128531904Y-69651619D01*
X128579523Y-69746857D01*
X128579523Y-69842095D01*
X128531904Y-69984952D01*
X127960476Y-70556380D01*
X128579523Y-70556380D01*
X129436666Y-69889714D02*
X129436666Y-70556380D01*
X129198571Y-69508761D02*
X128960476Y-70223047D01*
X129579523Y-70223047D01*
X125341142Y-75541142D02*
X125293523Y-75588761D01*
X125150666Y-75636380D01*
X125055428Y-75636380D01*
X124912571Y-75588761D01*
X124817333Y-75493523D01*
X124769714Y-75398285D01*
X124722095Y-75207809D01*
X124722095Y-75064952D01*
X124769714Y-74874476D01*
X124817333Y-74779238D01*
X124912571Y-74684000D01*
X125055428Y-74636380D01*
X125150666Y-74636380D01*
X125293523Y-74684000D01*
X125341142Y-74731619D01*
X125722095Y-74731619D02*
X125769714Y-74684000D01*
X125864952Y-74636380D01*
X126103047Y-74636380D01*
X126198285Y-74684000D01*
X126245904Y-74731619D01*
X126293523Y-74826857D01*
X126293523Y-74922095D01*
X126245904Y-75064952D01*
X125674476Y-75636380D01*
X126293523Y-75636380D01*
X127198285Y-74636380D02*
X126722095Y-74636380D01*
X126674476Y-75112571D01*
X126722095Y-75064952D01*
X126817333Y-75017333D01*
X127055428Y-75017333D01*
X127150666Y-75064952D01*
X127198285Y-75112571D01*
X127245904Y-75207809D01*
X127245904Y-75445904D01*
X127198285Y-75541142D01*
X127150666Y-75588761D01*
X127055428Y-75636380D01*
X126817333Y-75636380D01*
X126722095Y-75588761D01*
X126674476Y-75541142D01*
X147931142Y-69730857D02*
X147978761Y-69778476D01*
X148026380Y-69921333D01*
X148026380Y-70016571D01*
X147978761Y-70159428D01*
X147883523Y-70254666D01*
X147788285Y-70302285D01*
X147597809Y-70349904D01*
X147454952Y-70349904D01*
X147264476Y-70302285D01*
X147169238Y-70254666D01*
X147074000Y-70159428D01*
X147026380Y-70016571D01*
X147026380Y-69921333D01*
X147074000Y-69778476D01*
X147121619Y-69730857D01*
X147121619Y-69349904D02*
X147074000Y-69302285D01*
X147026380Y-69207047D01*
X147026380Y-68968952D01*
X147074000Y-68873714D01*
X147121619Y-68826095D01*
X147216857Y-68778476D01*
X147312095Y-68778476D01*
X147454952Y-68826095D01*
X148026380Y-69397523D01*
X148026380Y-68778476D01*
X147026380Y-67921333D02*
X147026380Y-68111809D01*
X147074000Y-68207047D01*
X147121619Y-68254666D01*
X147264476Y-68349904D01*
X147454952Y-68397523D01*
X147835904Y-68397523D01*
X147931142Y-68349904D01*
X147978761Y-68302285D01*
X148026380Y-68207047D01*
X148026380Y-68016571D01*
X147978761Y-67921333D01*
X147931142Y-67873714D01*
X147835904Y-67826095D01*
X147597809Y-67826095D01*
X147502571Y-67873714D01*
X147454952Y-67921333D01*
X147407333Y-68016571D01*
X147407333Y-68207047D01*
X147454952Y-68302285D01*
X147502571Y-68349904D01*
X147597809Y-68397523D01*
X114038142Y-98977142D02*
X113990523Y-99024761D01*
X113847666Y-99072380D01*
X113752428Y-99072380D01*
X113609571Y-99024761D01*
X113514333Y-98929523D01*
X113466714Y-98834285D01*
X113419095Y-98643809D01*
X113419095Y-98500952D01*
X113466714Y-98310476D01*
X113514333Y-98215238D01*
X113609571Y-98120000D01*
X113752428Y-98072380D01*
X113847666Y-98072380D01*
X113990523Y-98120000D01*
X114038142Y-98167619D01*
X114419095Y-98167619D02*
X114466714Y-98120000D01*
X114561952Y-98072380D01*
X114800047Y-98072380D01*
X114895285Y-98120000D01*
X114942904Y-98167619D01*
X114990523Y-98262857D01*
X114990523Y-98358095D01*
X114942904Y-98500952D01*
X114371476Y-99072380D01*
X114990523Y-99072380D01*
X115323857Y-98072380D02*
X115990523Y-98072380D01*
X115561952Y-99072380D01*
X165113142Y-100655142D02*
X165065523Y-100702761D01*
X164922666Y-100750380D01*
X164827428Y-100750380D01*
X164684571Y-100702761D01*
X164589333Y-100607523D01*
X164541714Y-100512285D01*
X164494095Y-100321809D01*
X164494095Y-100178952D01*
X164541714Y-99988476D01*
X164589333Y-99893238D01*
X164684571Y-99798000D01*
X164827428Y-99750380D01*
X164922666Y-99750380D01*
X165065523Y-99798000D01*
X165113142Y-99845619D01*
X165446476Y-99750380D02*
X166065523Y-99750380D01*
X165732190Y-100131333D01*
X165875047Y-100131333D01*
X165970285Y-100178952D01*
X166017904Y-100226571D01*
X166065523Y-100321809D01*
X166065523Y-100559904D01*
X166017904Y-100655142D01*
X165970285Y-100702761D01*
X165875047Y-100750380D01*
X165589333Y-100750380D01*
X165494095Y-100702761D01*
X165446476Y-100655142D01*
X166684571Y-99750380D02*
X166779809Y-99750380D01*
X166875047Y-99798000D01*
X166922666Y-99845619D01*
X166970285Y-99940857D01*
X167017904Y-100131333D01*
X167017904Y-100369428D01*
X166970285Y-100559904D01*
X166922666Y-100655142D01*
X166875047Y-100702761D01*
X166779809Y-100750380D01*
X166684571Y-100750380D01*
X166589333Y-100702761D01*
X166541714Y-100655142D01*
X166494095Y-100559904D01*
X166446476Y-100369428D01*
X166446476Y-100131333D01*
X166494095Y-99940857D01*
X166541714Y-99845619D01*
X166589333Y-99798000D01*
X166684571Y-99750380D01*
X157986142Y-85373142D02*
X157938523Y-85420761D01*
X157795666Y-85468380D01*
X157700428Y-85468380D01*
X157557571Y-85420761D01*
X157462333Y-85325523D01*
X157414714Y-85230285D01*
X157367095Y-85039809D01*
X157367095Y-84896952D01*
X157414714Y-84706476D01*
X157462333Y-84611238D01*
X157557571Y-84516000D01*
X157700428Y-84468380D01*
X157795666Y-84468380D01*
X157938523Y-84516000D01*
X157986142Y-84563619D01*
X158319476Y-84468380D02*
X158938523Y-84468380D01*
X158605190Y-84849333D01*
X158748047Y-84849333D01*
X158843285Y-84896952D01*
X158890904Y-84944571D01*
X158938523Y-85039809D01*
X158938523Y-85277904D01*
X158890904Y-85373142D01*
X158843285Y-85420761D01*
X158748047Y-85468380D01*
X158462333Y-85468380D01*
X158367095Y-85420761D01*
X158319476Y-85373142D01*
X159890904Y-85468380D02*
X159319476Y-85468380D01*
X159605190Y-85468380D02*
X159605190Y-84468380D01*
X159509952Y-84611238D01*
X159414714Y-84706476D01*
X159319476Y-84754095D01*
X155486142Y-85500142D02*
X155438523Y-85547761D01*
X155295666Y-85595380D01*
X155200428Y-85595380D01*
X155057571Y-85547761D01*
X154962333Y-85452523D01*
X154914714Y-85357285D01*
X154867095Y-85166809D01*
X154867095Y-85023952D01*
X154914714Y-84833476D01*
X154962333Y-84738238D01*
X155057571Y-84643000D01*
X155200428Y-84595380D01*
X155295666Y-84595380D01*
X155438523Y-84643000D01*
X155486142Y-84690619D01*
X155819476Y-84595380D02*
X156438523Y-84595380D01*
X156105190Y-84976333D01*
X156248047Y-84976333D01*
X156343285Y-85023952D01*
X156390904Y-85071571D01*
X156438523Y-85166809D01*
X156438523Y-85404904D01*
X156390904Y-85500142D01*
X156343285Y-85547761D01*
X156248047Y-85595380D01*
X155962333Y-85595380D01*
X155867095Y-85547761D01*
X155819476Y-85500142D01*
X156819476Y-84690619D02*
X156867095Y-84643000D01*
X156962333Y-84595380D01*
X157200428Y-84595380D01*
X157295666Y-84643000D01*
X157343285Y-84690619D01*
X157390904Y-84785857D01*
X157390904Y-84881095D01*
X157343285Y-85023952D01*
X156771857Y-85595380D01*
X157390904Y-85595380D01*
X166532142Y-90558857D02*
X166579761Y-90606476D01*
X166627380Y-90749333D01*
X166627380Y-90844571D01*
X166579761Y-90987428D01*
X166484523Y-91082666D01*
X166389285Y-91130285D01*
X166198809Y-91177904D01*
X166055952Y-91177904D01*
X165865476Y-91130285D01*
X165770238Y-91082666D01*
X165675000Y-90987428D01*
X165627380Y-90844571D01*
X165627380Y-90749333D01*
X165675000Y-90606476D01*
X165722619Y-90558857D01*
X165627380Y-90225523D02*
X165627380Y-89606476D01*
X166008333Y-89939809D01*
X166008333Y-89796952D01*
X166055952Y-89701714D01*
X166103571Y-89654095D01*
X166198809Y-89606476D01*
X166436904Y-89606476D01*
X166532142Y-89654095D01*
X166579761Y-89701714D01*
X166627380Y-89796952D01*
X166627380Y-90082666D01*
X166579761Y-90177904D01*
X166532142Y-90225523D01*
X165960714Y-88749333D02*
X166627380Y-88749333D01*
X165579761Y-88987428D02*
X166294047Y-89225523D01*
X166294047Y-88606476D01*
X145486380Y-88876095D02*
X144486380Y-88876095D01*
X144486380Y-88638000D01*
X144534000Y-88495142D01*
X144629238Y-88399904D01*
X144724476Y-88352285D01*
X144914952Y-88304666D01*
X145057809Y-88304666D01*
X145248285Y-88352285D01*
X145343523Y-88399904D01*
X145438761Y-88495142D01*
X145486380Y-88638000D01*
X145486380Y-88876095D01*
X145486380Y-87352285D02*
X145486380Y-87923714D01*
X145486380Y-87638000D02*
X144486380Y-87638000D01*
X144629238Y-87733238D01*
X144724476Y-87828476D01*
X144772095Y-87923714D01*
X151582380Y-88876095D02*
X150582380Y-88876095D01*
X150582380Y-88638000D01*
X150630000Y-88495142D01*
X150725238Y-88399904D01*
X150820476Y-88352285D01*
X151010952Y-88304666D01*
X151153809Y-88304666D01*
X151344285Y-88352285D01*
X151439523Y-88399904D01*
X151534761Y-88495142D01*
X151582380Y-88638000D01*
X151582380Y-88876095D01*
X150677619Y-87923714D02*
X150630000Y-87876095D01*
X150582380Y-87780857D01*
X150582380Y-87542761D01*
X150630000Y-87447523D01*
X150677619Y-87399904D01*
X150772857Y-87352285D01*
X150868095Y-87352285D01*
X151010952Y-87399904D01*
X151582380Y-87971333D01*
X151582380Y-87352285D01*
X136817619Y-139287238D02*
X136770000Y-139382476D01*
X136674761Y-139477714D01*
X136531904Y-139620571D01*
X136484285Y-139715809D01*
X136484285Y-139811047D01*
X136722380Y-139763428D02*
X136674761Y-139858666D01*
X136579523Y-139953904D01*
X136389047Y-140001523D01*
X136055714Y-140001523D01*
X135865238Y-139953904D01*
X135770000Y-139858666D01*
X135722380Y-139763428D01*
X135722380Y-139572952D01*
X135770000Y-139477714D01*
X135865238Y-139382476D01*
X136055714Y-139334857D01*
X136389047Y-139334857D01*
X136579523Y-139382476D01*
X136674761Y-139477714D01*
X136722380Y-139572952D01*
X136722380Y-139763428D01*
X136722380Y-138382476D02*
X136722380Y-138953904D01*
X136722380Y-138668190D02*
X135722380Y-138668190D01*
X135865238Y-138763428D01*
X135960476Y-138858666D01*
X136008095Y-138953904D01*
X142279619Y-111601238D02*
X142232000Y-111696476D01*
X142136761Y-111791714D01*
X141993904Y-111934571D01*
X141946285Y-112029809D01*
X141946285Y-112125047D01*
X142184380Y-112077428D02*
X142136761Y-112172666D01*
X142041523Y-112267904D01*
X141851047Y-112315523D01*
X141517714Y-112315523D01*
X141327238Y-112267904D01*
X141232000Y-112172666D01*
X141184380Y-112077428D01*
X141184380Y-111886952D01*
X141232000Y-111791714D01*
X141327238Y-111696476D01*
X141517714Y-111648857D01*
X141851047Y-111648857D01*
X142041523Y-111696476D01*
X142136761Y-111791714D01*
X142184380Y-111886952D01*
X142184380Y-112077428D01*
X141279619Y-111267904D02*
X141232000Y-111220285D01*
X141184380Y-111125047D01*
X141184380Y-110886952D01*
X141232000Y-110791714D01*
X141279619Y-110744095D01*
X141374857Y-110696476D01*
X141470095Y-110696476D01*
X141612952Y-110744095D01*
X142184380Y-111315523D01*
X142184380Y-110696476D01*
X147867619Y-106775238D02*
X147820000Y-106870476D01*
X147724761Y-106965714D01*
X147581904Y-107108571D01*
X147534285Y-107203809D01*
X147534285Y-107299047D01*
X147772380Y-107251428D02*
X147724761Y-107346666D01*
X147629523Y-107441904D01*
X147439047Y-107489523D01*
X147105714Y-107489523D01*
X146915238Y-107441904D01*
X146820000Y-107346666D01*
X146772380Y-107251428D01*
X146772380Y-107060952D01*
X146820000Y-106965714D01*
X146915238Y-106870476D01*
X147105714Y-106822857D01*
X147439047Y-106822857D01*
X147629523Y-106870476D01*
X147724761Y-106965714D01*
X147772380Y-107060952D01*
X147772380Y-107251428D01*
X146772380Y-106489523D02*
X146772380Y-105870476D01*
X147153333Y-106203809D01*
X147153333Y-106060952D01*
X147200952Y-105965714D01*
X147248571Y-105918095D01*
X147343809Y-105870476D01*
X147581904Y-105870476D01*
X147677142Y-105918095D01*
X147724761Y-105965714D01*
X147772380Y-106060952D01*
X147772380Y-106346666D01*
X147724761Y-106441904D01*
X147677142Y-106489523D01*
X163361619Y-111347238D02*
X163314000Y-111442476D01*
X163218761Y-111537714D01*
X163075904Y-111680571D01*
X163028285Y-111775809D01*
X163028285Y-111871047D01*
X163266380Y-111823428D02*
X163218761Y-111918666D01*
X163123523Y-112013904D01*
X162933047Y-112061523D01*
X162599714Y-112061523D01*
X162409238Y-112013904D01*
X162314000Y-111918666D01*
X162266380Y-111823428D01*
X162266380Y-111632952D01*
X162314000Y-111537714D01*
X162409238Y-111442476D01*
X162599714Y-111394857D01*
X162933047Y-111394857D01*
X163123523Y-111442476D01*
X163218761Y-111537714D01*
X163266380Y-111632952D01*
X163266380Y-111823428D01*
X162599714Y-110537714D02*
X163266380Y-110537714D01*
X162218761Y-110775809D02*
X162933047Y-111013904D01*
X162933047Y-110394857D01*
X157519619Y-106521238D02*
X157472000Y-106616476D01*
X157376761Y-106711714D01*
X157233904Y-106854571D01*
X157186285Y-106949809D01*
X157186285Y-107045047D01*
X157424380Y-106997428D02*
X157376761Y-107092666D01*
X157281523Y-107187904D01*
X157091047Y-107235523D01*
X156757714Y-107235523D01*
X156567238Y-107187904D01*
X156472000Y-107092666D01*
X156424380Y-106997428D01*
X156424380Y-106806952D01*
X156472000Y-106711714D01*
X156567238Y-106616476D01*
X156757714Y-106568857D01*
X157091047Y-106568857D01*
X157281523Y-106616476D01*
X157376761Y-106711714D01*
X157424380Y-106806952D01*
X157424380Y-106997428D01*
X156424380Y-105664095D02*
X156424380Y-106140285D01*
X156900571Y-106187904D01*
X156852952Y-106140285D01*
X156805333Y-106045047D01*
X156805333Y-105806952D01*
X156852952Y-105711714D01*
X156900571Y-105664095D01*
X156995809Y-105616476D01*
X157233904Y-105616476D01*
X157329142Y-105664095D01*
X157376761Y-105711714D01*
X157424380Y-105806952D01*
X157424380Y-106045047D01*
X157376761Y-106140285D01*
X157329142Y-106187904D01*
X163988761Y-88213619D02*
X163893523Y-88166000D01*
X163798285Y-88070761D01*
X163655428Y-87927904D01*
X163560190Y-87880285D01*
X163464952Y-87880285D01*
X163512571Y-88118380D02*
X163417333Y-88070761D01*
X163322095Y-87975523D01*
X163274476Y-87785047D01*
X163274476Y-87451714D01*
X163322095Y-87261238D01*
X163417333Y-87166000D01*
X163512571Y-87118380D01*
X163703047Y-87118380D01*
X163798285Y-87166000D01*
X163893523Y-87261238D01*
X163941142Y-87451714D01*
X163941142Y-87785047D01*
X163893523Y-87975523D01*
X163798285Y-88070761D01*
X163703047Y-88118380D01*
X163512571Y-88118380D01*
X164274476Y-87118380D02*
X164941142Y-87118380D01*
X164512571Y-88118380D01*
X120483333Y-81478380D02*
X120150000Y-81002190D01*
X119911904Y-81478380D02*
X119911904Y-80478380D01*
X120292857Y-80478380D01*
X120388095Y-80526000D01*
X120435714Y-80573619D01*
X120483333Y-80668857D01*
X120483333Y-80811714D01*
X120435714Y-80906952D01*
X120388095Y-80954571D01*
X120292857Y-81002190D01*
X119911904Y-81002190D01*
X121435714Y-81478380D02*
X120864285Y-81478380D01*
X121150000Y-81478380D02*
X121150000Y-80478380D01*
X121054761Y-80621238D01*
X120959523Y-80716476D01*
X120864285Y-80764095D01*
X118197333Y-81478380D02*
X117864000Y-81002190D01*
X117625904Y-81478380D02*
X117625904Y-80478380D01*
X118006857Y-80478380D01*
X118102095Y-80526000D01*
X118149714Y-80573619D01*
X118197333Y-80668857D01*
X118197333Y-80811714D01*
X118149714Y-80906952D01*
X118102095Y-80954571D01*
X118006857Y-81002190D01*
X117625904Y-81002190D01*
X118578285Y-80573619D02*
X118625904Y-80526000D01*
X118721142Y-80478380D01*
X118959238Y-80478380D01*
X119054476Y-80526000D01*
X119102095Y-80573619D01*
X119149714Y-80668857D01*
X119149714Y-80764095D01*
X119102095Y-80906952D01*
X118530666Y-81478380D01*
X119149714Y-81478380D01*
X132277380Y-139358666D02*
X131801190Y-139692000D01*
X132277380Y-139930095D02*
X131277380Y-139930095D01*
X131277380Y-139549142D01*
X131325000Y-139453904D01*
X131372619Y-139406285D01*
X131467857Y-139358666D01*
X131610714Y-139358666D01*
X131705952Y-139406285D01*
X131753571Y-139453904D01*
X131801190Y-139549142D01*
X131801190Y-139930095D01*
X131277380Y-139025333D02*
X131277380Y-138406285D01*
X131658333Y-138739619D01*
X131658333Y-138596761D01*
X131705952Y-138501523D01*
X131753571Y-138453904D01*
X131848809Y-138406285D01*
X132086904Y-138406285D01*
X132182142Y-138453904D01*
X132229761Y-138501523D01*
X132277380Y-138596761D01*
X132277380Y-138882476D01*
X132229761Y-138977714D01*
X132182142Y-139025333D01*
X125673380Y-139358666D02*
X125197190Y-139692000D01*
X125673380Y-139930095D02*
X124673380Y-139930095D01*
X124673380Y-139549142D01*
X124721000Y-139453904D01*
X124768619Y-139406285D01*
X124863857Y-139358666D01*
X125006714Y-139358666D01*
X125101952Y-139406285D01*
X125149571Y-139453904D01*
X125197190Y-139549142D01*
X125197190Y-139930095D01*
X125006714Y-138501523D02*
X125673380Y-138501523D01*
X124625761Y-138739619D02*
X125340047Y-138977714D01*
X125340047Y-138358666D01*
X113482380Y-87288666D02*
X113006190Y-87622000D01*
X113482380Y-87860095D02*
X112482380Y-87860095D01*
X112482380Y-87479142D01*
X112530000Y-87383904D01*
X112577619Y-87336285D01*
X112672857Y-87288666D01*
X112815714Y-87288666D01*
X112910952Y-87336285D01*
X112958571Y-87383904D01*
X113006190Y-87479142D01*
X113006190Y-87860095D01*
X112482380Y-86955333D02*
X112482380Y-86288666D01*
X113482380Y-86717238D01*
X133945333Y-72080380D02*
X133612000Y-71604190D01*
X133373904Y-72080380D02*
X133373904Y-71080380D01*
X133754857Y-71080380D01*
X133850095Y-71128000D01*
X133897714Y-71175619D01*
X133945333Y-71270857D01*
X133945333Y-71413714D01*
X133897714Y-71508952D01*
X133850095Y-71556571D01*
X133754857Y-71604190D01*
X133373904Y-71604190D01*
X134516761Y-71508952D02*
X134421523Y-71461333D01*
X134373904Y-71413714D01*
X134326285Y-71318476D01*
X134326285Y-71270857D01*
X134373904Y-71175619D01*
X134421523Y-71128000D01*
X134516761Y-71080380D01*
X134707238Y-71080380D01*
X134802476Y-71128000D01*
X134850095Y-71175619D01*
X134897714Y-71270857D01*
X134897714Y-71318476D01*
X134850095Y-71413714D01*
X134802476Y-71461333D01*
X134707238Y-71508952D01*
X134516761Y-71508952D01*
X134421523Y-71556571D01*
X134373904Y-71604190D01*
X134326285Y-71699428D01*
X134326285Y-71889904D01*
X134373904Y-71985142D01*
X134421523Y-72032761D01*
X134516761Y-72080380D01*
X134707238Y-72080380D01*
X134802476Y-72032761D01*
X134850095Y-71985142D01*
X134897714Y-71889904D01*
X134897714Y-71699428D01*
X134850095Y-71604190D01*
X134802476Y-71556571D01*
X134707238Y-71508952D01*
X132547333Y-142133580D02*
X132214000Y-141657390D01*
X131975904Y-142133580D02*
X131975904Y-141133580D01*
X132356857Y-141133580D01*
X132452095Y-141181200D01*
X132499714Y-141228819D01*
X132547333Y-141324057D01*
X132547333Y-141466914D01*
X132499714Y-141562152D01*
X132452095Y-141609771D01*
X132356857Y-141657390D01*
X131975904Y-141657390D01*
X133023523Y-142133580D02*
X133214000Y-142133580D01*
X133309238Y-142085961D01*
X133356857Y-142038342D01*
X133452095Y-141895485D01*
X133499714Y-141705009D01*
X133499714Y-141324057D01*
X133452095Y-141228819D01*
X133404476Y-141181200D01*
X133309238Y-141133580D01*
X133118761Y-141133580D01*
X133023523Y-141181200D01*
X132975904Y-141228819D01*
X132928285Y-141324057D01*
X132928285Y-141562152D01*
X132975904Y-141657390D01*
X133023523Y-141705009D01*
X133118761Y-141752628D01*
X133309238Y-141752628D01*
X133404476Y-141705009D01*
X133452095Y-141657390D01*
X133499714Y-141562152D01*
X139437142Y-142184380D02*
X139103809Y-141708190D01*
X138865714Y-142184380D02*
X138865714Y-141184380D01*
X139246666Y-141184380D01*
X139341904Y-141232000D01*
X139389523Y-141279619D01*
X139437142Y-141374857D01*
X139437142Y-141517714D01*
X139389523Y-141612952D01*
X139341904Y-141660571D01*
X139246666Y-141708190D01*
X138865714Y-141708190D01*
X140389523Y-142184380D02*
X139818095Y-142184380D01*
X140103809Y-142184380D02*
X140103809Y-141184380D01*
X140008571Y-141327238D01*
X139913333Y-141422476D01*
X139818095Y-141470095D01*
X141008571Y-141184380D02*
X141103809Y-141184380D01*
X141199047Y-141232000D01*
X141246666Y-141279619D01*
X141294285Y-141374857D01*
X141341904Y-141565333D01*
X141341904Y-141803428D01*
X141294285Y-141993904D01*
X141246666Y-142089142D01*
X141199047Y-142136761D01*
X141103809Y-142184380D01*
X141008571Y-142184380D01*
X140913333Y-142136761D01*
X140865714Y-142089142D01*
X140818095Y-141993904D01*
X140770476Y-141803428D01*
X140770476Y-141565333D01*
X140818095Y-141374857D01*
X140865714Y-141279619D01*
X140913333Y-141232000D01*
X141008571Y-141184380D01*
X113482380Y-83446857D02*
X113006190Y-83780190D01*
X113482380Y-84018285D02*
X112482380Y-84018285D01*
X112482380Y-83637333D01*
X112530000Y-83542095D01*
X112577619Y-83494476D01*
X112672857Y-83446857D01*
X112815714Y-83446857D01*
X112910952Y-83494476D01*
X112958571Y-83542095D01*
X113006190Y-83637333D01*
X113006190Y-84018285D01*
X113482380Y-82494476D02*
X113482380Y-83065904D01*
X113482380Y-82780190D02*
X112482380Y-82780190D01*
X112625238Y-82875428D01*
X112720476Y-82970666D01*
X112768095Y-83065904D01*
X113482380Y-81542095D02*
X113482380Y-82113523D01*
X113482380Y-81827809D02*
X112482380Y-81827809D01*
X112625238Y-81923047D01*
X112720476Y-82018285D01*
X112768095Y-82113523D01*
X124980380Y-68968857D02*
X124504190Y-69302190D01*
X124980380Y-69540285D02*
X123980380Y-69540285D01*
X123980380Y-69159333D01*
X124028000Y-69064095D01*
X124075619Y-69016476D01*
X124170857Y-68968857D01*
X124313714Y-68968857D01*
X124408952Y-69016476D01*
X124456571Y-69064095D01*
X124504190Y-69159333D01*
X124504190Y-69540285D01*
X124980380Y-68016476D02*
X124980380Y-68587904D01*
X124980380Y-68302190D02*
X123980380Y-68302190D01*
X124123238Y-68397428D01*
X124218476Y-68492666D01*
X124266095Y-68587904D01*
X124075619Y-67635523D02*
X124028000Y-67587904D01*
X123980380Y-67492666D01*
X123980380Y-67254571D01*
X124028000Y-67159333D01*
X124075619Y-67111714D01*
X124170857Y-67064095D01*
X124266095Y-67064095D01*
X124408952Y-67111714D01*
X124980380Y-67683142D01*
X124980380Y-67064095D01*
X131448380Y-96908857D02*
X130972190Y-97242190D01*
X131448380Y-97480285D02*
X130448380Y-97480285D01*
X130448380Y-97099333D01*
X130496000Y-97004095D01*
X130543619Y-96956476D01*
X130638857Y-96908857D01*
X130781714Y-96908857D01*
X130876952Y-96956476D01*
X130924571Y-97004095D01*
X130972190Y-97099333D01*
X130972190Y-97480285D01*
X131448380Y-95956476D02*
X131448380Y-96527904D01*
X131448380Y-96242190D02*
X130448380Y-96242190D01*
X130591238Y-96337428D01*
X130686476Y-96432666D01*
X130734095Y-96527904D01*
X130448380Y-95623142D02*
X130448380Y-95004095D01*
X130829333Y-95337428D01*
X130829333Y-95194571D01*
X130876952Y-95099333D01*
X130924571Y-95051714D01*
X131019809Y-95004095D01*
X131257904Y-95004095D01*
X131353142Y-95051714D01*
X131400761Y-95099333D01*
X131448380Y-95194571D01*
X131448380Y-95480285D01*
X131400761Y-95575523D01*
X131353142Y-95623142D01*
X142105142Y-65222380D02*
X141771809Y-64746190D01*
X141533714Y-65222380D02*
X141533714Y-64222380D01*
X141914666Y-64222380D01*
X142009904Y-64270000D01*
X142057523Y-64317619D01*
X142105142Y-64412857D01*
X142105142Y-64555714D01*
X142057523Y-64650952D01*
X142009904Y-64698571D01*
X141914666Y-64746190D01*
X141533714Y-64746190D01*
X143057523Y-65222380D02*
X142486095Y-65222380D01*
X142771809Y-65222380D02*
X142771809Y-64222380D01*
X142676571Y-64365238D01*
X142581333Y-64460476D01*
X142486095Y-64508095D01*
X143914666Y-64555714D02*
X143914666Y-65222380D01*
X143676571Y-64174761D02*
X143438476Y-64889047D01*
X144057523Y-64889047D01*
X145407142Y-78176380D02*
X145073809Y-77700190D01*
X144835714Y-78176380D02*
X144835714Y-77176380D01*
X145216666Y-77176380D01*
X145311904Y-77224000D01*
X145359523Y-77271619D01*
X145407142Y-77366857D01*
X145407142Y-77509714D01*
X145359523Y-77604952D01*
X145311904Y-77652571D01*
X145216666Y-77700190D01*
X144835714Y-77700190D01*
X146359523Y-78176380D02*
X145788095Y-78176380D01*
X146073809Y-78176380D02*
X146073809Y-77176380D01*
X145978571Y-77319238D01*
X145883333Y-77414476D01*
X145788095Y-77462095D01*
X147216666Y-77176380D02*
X147026190Y-77176380D01*
X146930952Y-77224000D01*
X146883333Y-77271619D01*
X146788095Y-77414476D01*
X146740476Y-77604952D01*
X146740476Y-77985904D01*
X146788095Y-78081142D01*
X146835714Y-78128761D01*
X146930952Y-78176380D01*
X147121428Y-78176380D01*
X147216666Y-78128761D01*
X147264285Y-78081142D01*
X147311904Y-77985904D01*
X147311904Y-77747809D01*
X147264285Y-77652571D01*
X147216666Y-77604952D01*
X147121428Y-77557333D01*
X146930952Y-77557333D01*
X146835714Y-77604952D01*
X146788095Y-77652571D01*
X146740476Y-77747809D01*
X132961142Y-64714380D02*
X132627809Y-64238190D01*
X132389714Y-64714380D02*
X132389714Y-63714380D01*
X132770666Y-63714380D01*
X132865904Y-63762000D01*
X132913523Y-63809619D01*
X132961142Y-63904857D01*
X132961142Y-64047714D01*
X132913523Y-64142952D01*
X132865904Y-64190571D01*
X132770666Y-64238190D01*
X132389714Y-64238190D01*
X133913523Y-64714380D02*
X133342095Y-64714380D01*
X133627809Y-64714380D02*
X133627809Y-63714380D01*
X133532571Y-63857238D01*
X133437333Y-63952476D01*
X133342095Y-64000095D01*
X134246857Y-63714380D02*
X134913523Y-63714380D01*
X134484952Y-64714380D01*
X129659142Y-64714380D02*
X129325809Y-64238190D01*
X129087714Y-64714380D02*
X129087714Y-63714380D01*
X129468666Y-63714380D01*
X129563904Y-63762000D01*
X129611523Y-63809619D01*
X129659142Y-63904857D01*
X129659142Y-64047714D01*
X129611523Y-64142952D01*
X129563904Y-64190571D01*
X129468666Y-64238190D01*
X129087714Y-64238190D01*
X130611523Y-64714380D02*
X130040095Y-64714380D01*
X130325809Y-64714380D02*
X130325809Y-63714380D01*
X130230571Y-63857238D01*
X130135333Y-63952476D01*
X130040095Y-64000095D01*
X131182952Y-64142952D02*
X131087714Y-64095333D01*
X131040095Y-64047714D01*
X130992476Y-63952476D01*
X130992476Y-63904857D01*
X131040095Y-63809619D01*
X131087714Y-63762000D01*
X131182952Y-63714380D01*
X131373428Y-63714380D01*
X131468666Y-63762000D01*
X131516285Y-63809619D01*
X131563904Y-63904857D01*
X131563904Y-63952476D01*
X131516285Y-64047714D01*
X131468666Y-64095333D01*
X131373428Y-64142952D01*
X131182952Y-64142952D01*
X131087714Y-64190571D01*
X131040095Y-64238190D01*
X130992476Y-64333428D01*
X130992476Y-64523904D01*
X131040095Y-64619142D01*
X131087714Y-64666761D01*
X131182952Y-64714380D01*
X131373428Y-64714380D01*
X131468666Y-64666761D01*
X131516285Y-64619142D01*
X131563904Y-64523904D01*
X131563904Y-64333428D01*
X131516285Y-64238190D01*
X131468666Y-64190571D01*
X131373428Y-64142952D01*
X129416380Y-93098857D02*
X128940190Y-93432190D01*
X129416380Y-93670285D02*
X128416380Y-93670285D01*
X128416380Y-93289333D01*
X128464000Y-93194095D01*
X128511619Y-93146476D01*
X128606857Y-93098857D01*
X128749714Y-93098857D01*
X128844952Y-93146476D01*
X128892571Y-93194095D01*
X128940190Y-93289333D01*
X128940190Y-93670285D01*
X129416380Y-92146476D02*
X129416380Y-92717904D01*
X129416380Y-92432190D02*
X128416380Y-92432190D01*
X128559238Y-92527428D01*
X128654476Y-92622666D01*
X128702095Y-92717904D01*
X129416380Y-91670285D02*
X129416380Y-91479809D01*
X129368761Y-91384571D01*
X129321142Y-91336952D01*
X129178285Y-91241714D01*
X128987809Y-91194095D01*
X128606857Y-91194095D01*
X128511619Y-91241714D01*
X128464000Y-91289333D01*
X128416380Y-91384571D01*
X128416380Y-91575047D01*
X128464000Y-91670285D01*
X128511619Y-91717904D01*
X128606857Y-91765523D01*
X128844952Y-91765523D01*
X128940190Y-91717904D01*
X128987809Y-91670285D01*
X129035428Y-91575047D01*
X129035428Y-91384571D01*
X128987809Y-91289333D01*
X128940190Y-91241714D01*
X128844952Y-91194095D01*
X155900380Y-78874857D02*
X155424190Y-79208190D01*
X155900380Y-79446285D02*
X154900380Y-79446285D01*
X154900380Y-79065333D01*
X154948000Y-78970095D01*
X154995619Y-78922476D01*
X155090857Y-78874857D01*
X155233714Y-78874857D01*
X155328952Y-78922476D01*
X155376571Y-78970095D01*
X155424190Y-79065333D01*
X155424190Y-79446285D01*
X154995619Y-78493904D02*
X154948000Y-78446285D01*
X154900380Y-78351047D01*
X154900380Y-78112952D01*
X154948000Y-78017714D01*
X154995619Y-77970095D01*
X155090857Y-77922476D01*
X155186095Y-77922476D01*
X155328952Y-77970095D01*
X155900380Y-78541523D01*
X155900380Y-77922476D01*
X155900380Y-76970095D02*
X155900380Y-77541523D01*
X155900380Y-77255809D02*
X154900380Y-77255809D01*
X155043238Y-77351047D01*
X155138476Y-77446285D01*
X155186095Y-77541523D01*
X136410380Y-87002857D02*
X135934190Y-87336190D01*
X136410380Y-87574285D02*
X135410380Y-87574285D01*
X135410380Y-87193333D01*
X135458000Y-87098095D01*
X135505619Y-87050476D01*
X135600857Y-87002857D01*
X135743714Y-87002857D01*
X135838952Y-87050476D01*
X135886571Y-87098095D01*
X135934190Y-87193333D01*
X135934190Y-87574285D01*
X135505619Y-86621904D02*
X135458000Y-86574285D01*
X135410380Y-86479047D01*
X135410380Y-86240952D01*
X135458000Y-86145714D01*
X135505619Y-86098095D01*
X135600857Y-86050476D01*
X135696095Y-86050476D01*
X135838952Y-86098095D01*
X136410380Y-86669523D01*
X136410380Y-86050476D01*
X135505619Y-85669523D02*
X135458000Y-85621904D01*
X135410380Y-85526666D01*
X135410380Y-85288571D01*
X135458000Y-85193333D01*
X135505619Y-85145714D01*
X135600857Y-85098095D01*
X135696095Y-85098095D01*
X135838952Y-85145714D01*
X136410380Y-85717142D01*
X136410380Y-85098095D01*
X165298380Y-73286857D02*
X164822190Y-73620190D01*
X165298380Y-73858285D02*
X164298380Y-73858285D01*
X164298380Y-73477333D01*
X164346000Y-73382095D01*
X164393619Y-73334476D01*
X164488857Y-73286857D01*
X164631714Y-73286857D01*
X164726952Y-73334476D01*
X164774571Y-73382095D01*
X164822190Y-73477333D01*
X164822190Y-73858285D01*
X164393619Y-72905904D02*
X164346000Y-72858285D01*
X164298380Y-72763047D01*
X164298380Y-72524952D01*
X164346000Y-72429714D01*
X164393619Y-72382095D01*
X164488857Y-72334476D01*
X164584095Y-72334476D01*
X164726952Y-72382095D01*
X165298380Y-72953523D01*
X165298380Y-72334476D01*
X164298380Y-72001142D02*
X164298380Y-71382095D01*
X164679333Y-71715428D01*
X164679333Y-71572571D01*
X164726952Y-71477333D01*
X164774571Y-71429714D01*
X164869809Y-71382095D01*
X165107904Y-71382095D01*
X165203142Y-71429714D01*
X165250761Y-71477333D01*
X165298380Y-71572571D01*
X165298380Y-71858285D01*
X165250761Y-71953523D01*
X165203142Y-72001142D01*
X165298380Y-70238857D02*
X164822190Y-70572190D01*
X165298380Y-70810285D02*
X164298380Y-70810285D01*
X164298380Y-70429333D01*
X164346000Y-70334095D01*
X164393619Y-70286476D01*
X164488857Y-70238857D01*
X164631714Y-70238857D01*
X164726952Y-70286476D01*
X164774571Y-70334095D01*
X164822190Y-70429333D01*
X164822190Y-70810285D01*
X164393619Y-69857904D02*
X164346000Y-69810285D01*
X164298380Y-69715047D01*
X164298380Y-69476952D01*
X164346000Y-69381714D01*
X164393619Y-69334095D01*
X164488857Y-69286476D01*
X164584095Y-69286476D01*
X164726952Y-69334095D01*
X165298380Y-69905523D01*
X165298380Y-69286476D01*
X164631714Y-68429333D02*
X165298380Y-68429333D01*
X164250761Y-68667428D02*
X164965047Y-68905523D01*
X164965047Y-68286476D01*
X148026380Y-72778857D02*
X147550190Y-73112190D01*
X148026380Y-73350285D02*
X147026380Y-73350285D01*
X147026380Y-72969333D01*
X147074000Y-72874095D01*
X147121619Y-72826476D01*
X147216857Y-72778857D01*
X147359714Y-72778857D01*
X147454952Y-72826476D01*
X147502571Y-72874095D01*
X147550190Y-72969333D01*
X147550190Y-73350285D01*
X147121619Y-72397904D02*
X147074000Y-72350285D01*
X147026380Y-72255047D01*
X147026380Y-72016952D01*
X147074000Y-71921714D01*
X147121619Y-71874095D01*
X147216857Y-71826476D01*
X147312095Y-71826476D01*
X147454952Y-71874095D01*
X148026380Y-72445523D01*
X148026380Y-71826476D01*
X147026380Y-70969333D02*
X147026380Y-71159809D01*
X147074000Y-71255047D01*
X147121619Y-71302666D01*
X147264476Y-71397904D01*
X147454952Y-71445523D01*
X147835904Y-71445523D01*
X147931142Y-71397904D01*
X147978761Y-71350285D01*
X148026380Y-71255047D01*
X148026380Y-71064571D01*
X147978761Y-70969333D01*
X147931142Y-70921714D01*
X147835904Y-70874095D01*
X147597809Y-70874095D01*
X147502571Y-70921714D01*
X147454952Y-70969333D01*
X147407333Y-71064571D01*
X147407333Y-71255047D01*
X147454952Y-71350285D01*
X147502571Y-71397904D01*
X147597809Y-71445523D01*
X149471142Y-77160380D02*
X149137809Y-76684190D01*
X148899714Y-77160380D02*
X148899714Y-76160380D01*
X149280666Y-76160380D01*
X149375904Y-76208000D01*
X149423523Y-76255619D01*
X149471142Y-76350857D01*
X149471142Y-76493714D01*
X149423523Y-76588952D01*
X149375904Y-76636571D01*
X149280666Y-76684190D01*
X148899714Y-76684190D01*
X149852095Y-76255619D02*
X149899714Y-76208000D01*
X149994952Y-76160380D01*
X150233047Y-76160380D01*
X150328285Y-76208000D01*
X150375904Y-76255619D01*
X150423523Y-76350857D01*
X150423523Y-76446095D01*
X150375904Y-76588952D01*
X149804476Y-77160380D01*
X150423523Y-77160380D01*
X150756857Y-76160380D02*
X151423523Y-76160380D01*
X150994952Y-77160380D01*
X121023142Y-88082380D02*
X120689809Y-87606190D01*
X120451714Y-88082380D02*
X120451714Y-87082380D01*
X120832666Y-87082380D01*
X120927904Y-87130000D01*
X120975523Y-87177619D01*
X121023142Y-87272857D01*
X121023142Y-87415714D01*
X120975523Y-87510952D01*
X120927904Y-87558571D01*
X120832666Y-87606190D01*
X120451714Y-87606190D01*
X121404095Y-87177619D02*
X121451714Y-87130000D01*
X121546952Y-87082380D01*
X121785047Y-87082380D01*
X121880285Y-87130000D01*
X121927904Y-87177619D01*
X121975523Y-87272857D01*
X121975523Y-87368095D01*
X121927904Y-87510952D01*
X121356476Y-88082380D01*
X121975523Y-88082380D01*
X122546952Y-87510952D02*
X122451714Y-87463333D01*
X122404095Y-87415714D01*
X122356476Y-87320476D01*
X122356476Y-87272857D01*
X122404095Y-87177619D01*
X122451714Y-87130000D01*
X122546952Y-87082380D01*
X122737428Y-87082380D01*
X122832666Y-87130000D01*
X122880285Y-87177619D01*
X122927904Y-87272857D01*
X122927904Y-87320476D01*
X122880285Y-87415714D01*
X122832666Y-87463333D01*
X122737428Y-87510952D01*
X122546952Y-87510952D01*
X122451714Y-87558571D01*
X122404095Y-87606190D01*
X122356476Y-87701428D01*
X122356476Y-87891904D01*
X122404095Y-87987142D01*
X122451714Y-88034761D01*
X122546952Y-88082380D01*
X122737428Y-88082380D01*
X122832666Y-88034761D01*
X122880285Y-87987142D01*
X122927904Y-87891904D01*
X122927904Y-87701428D01*
X122880285Y-87606190D01*
X122832666Y-87558571D01*
X122737428Y-87510952D01*
X117292380Y-76334857D02*
X116816190Y-76668190D01*
X117292380Y-76906285D02*
X116292380Y-76906285D01*
X116292380Y-76525333D01*
X116340000Y-76430095D01*
X116387619Y-76382476D01*
X116482857Y-76334857D01*
X116625714Y-76334857D01*
X116720952Y-76382476D01*
X116768571Y-76430095D01*
X116816190Y-76525333D01*
X116816190Y-76906285D01*
X116387619Y-75953904D02*
X116340000Y-75906285D01*
X116292380Y-75811047D01*
X116292380Y-75572952D01*
X116340000Y-75477714D01*
X116387619Y-75430095D01*
X116482857Y-75382476D01*
X116578095Y-75382476D01*
X116720952Y-75430095D01*
X117292380Y-76001523D01*
X117292380Y-75382476D01*
X117292380Y-74906285D02*
X117292380Y-74715809D01*
X117244761Y-74620571D01*
X117197142Y-74572952D01*
X117054285Y-74477714D01*
X116863809Y-74430095D01*
X116482857Y-74430095D01*
X116387619Y-74477714D01*
X116340000Y-74525333D01*
X116292380Y-74620571D01*
X116292380Y-74811047D01*
X116340000Y-74906285D01*
X116387619Y-74953904D01*
X116482857Y-75001523D01*
X116720952Y-75001523D01*
X116816190Y-74953904D01*
X116863809Y-74906285D01*
X116911428Y-74811047D01*
X116911428Y-74620571D01*
X116863809Y-74525333D01*
X116816190Y-74477714D01*
X116720952Y-74430095D01*
X121785142Y-75382380D02*
X121451809Y-74906190D01*
X121213714Y-75382380D02*
X121213714Y-74382380D01*
X121594666Y-74382380D01*
X121689904Y-74430000D01*
X121737523Y-74477619D01*
X121785142Y-74572857D01*
X121785142Y-74715714D01*
X121737523Y-74810952D01*
X121689904Y-74858571D01*
X121594666Y-74906190D01*
X121213714Y-74906190D01*
X122118476Y-74382380D02*
X122737523Y-74382380D01*
X122404190Y-74763333D01*
X122547047Y-74763333D01*
X122642285Y-74810952D01*
X122689904Y-74858571D01*
X122737523Y-74953809D01*
X122737523Y-75191904D01*
X122689904Y-75287142D01*
X122642285Y-75334761D01*
X122547047Y-75382380D01*
X122261333Y-75382380D01*
X122166095Y-75334761D01*
X122118476Y-75287142D01*
X123356571Y-74382380D02*
X123451809Y-74382380D01*
X123547047Y-74430000D01*
X123594666Y-74477619D01*
X123642285Y-74572857D01*
X123689904Y-74763333D01*
X123689904Y-75001428D01*
X123642285Y-75191904D01*
X123594666Y-75287142D01*
X123547047Y-75334761D01*
X123451809Y-75382380D01*
X123356571Y-75382380D01*
X123261333Y-75334761D01*
X123213714Y-75287142D01*
X123166095Y-75191904D01*
X123118476Y-75001428D01*
X123118476Y-74763333D01*
X123166095Y-74572857D01*
X123213714Y-74477619D01*
X123261333Y-74430000D01*
X123356571Y-74382380D01*
X149471142Y-65476380D02*
X149137809Y-65000190D01*
X148899714Y-65476380D02*
X148899714Y-64476380D01*
X149280666Y-64476380D01*
X149375904Y-64524000D01*
X149423523Y-64571619D01*
X149471142Y-64666857D01*
X149471142Y-64809714D01*
X149423523Y-64904952D01*
X149375904Y-64952571D01*
X149280666Y-65000190D01*
X148899714Y-65000190D01*
X149804476Y-64476380D02*
X150423523Y-64476380D01*
X150090190Y-64857333D01*
X150233047Y-64857333D01*
X150328285Y-64904952D01*
X150375904Y-64952571D01*
X150423523Y-65047809D01*
X150423523Y-65285904D01*
X150375904Y-65381142D01*
X150328285Y-65428761D01*
X150233047Y-65476380D01*
X149947333Y-65476380D01*
X149852095Y-65428761D01*
X149804476Y-65381142D01*
X150804476Y-64571619D02*
X150852095Y-64524000D01*
X150947333Y-64476380D01*
X151185428Y-64476380D01*
X151280666Y-64524000D01*
X151328285Y-64571619D01*
X151375904Y-64666857D01*
X151375904Y-64762095D01*
X151328285Y-64904952D01*
X150756857Y-65476380D01*
X151375904Y-65476380D01*
X121678380Y-97035857D02*
X121202190Y-97369190D01*
X121678380Y-97607285D02*
X120678380Y-97607285D01*
X120678380Y-97226333D01*
X120726000Y-97131095D01*
X120773619Y-97083476D01*
X120868857Y-97035857D01*
X121011714Y-97035857D01*
X121106952Y-97083476D01*
X121154571Y-97131095D01*
X121202190Y-97226333D01*
X121202190Y-97607285D01*
X120678380Y-96702523D02*
X120678380Y-96083476D01*
X121059333Y-96416809D01*
X121059333Y-96273952D01*
X121106952Y-96178714D01*
X121154571Y-96131095D01*
X121249809Y-96083476D01*
X121487904Y-96083476D01*
X121583142Y-96131095D01*
X121630761Y-96178714D01*
X121678380Y-96273952D01*
X121678380Y-96559666D01*
X121630761Y-96654904D01*
X121583142Y-96702523D01*
X120678380Y-95750142D02*
X120678380Y-95131095D01*
X121059333Y-95464428D01*
X121059333Y-95321571D01*
X121106952Y-95226333D01*
X121154571Y-95178714D01*
X121249809Y-95131095D01*
X121487904Y-95131095D01*
X121583142Y-95178714D01*
X121630761Y-95226333D01*
X121678380Y-95321571D01*
X121678380Y-95607285D01*
X121630761Y-95702523D01*
X121583142Y-95750142D01*
X121678380Y-93098857D02*
X121202190Y-93432190D01*
X121678380Y-93670285D02*
X120678380Y-93670285D01*
X120678380Y-93289333D01*
X120726000Y-93194095D01*
X120773619Y-93146476D01*
X120868857Y-93098857D01*
X121011714Y-93098857D01*
X121106952Y-93146476D01*
X121154571Y-93194095D01*
X121202190Y-93289333D01*
X121202190Y-93670285D01*
X120678380Y-92765523D02*
X120678380Y-92146476D01*
X121059333Y-92479809D01*
X121059333Y-92336952D01*
X121106952Y-92241714D01*
X121154571Y-92194095D01*
X121249809Y-92146476D01*
X121487904Y-92146476D01*
X121583142Y-92194095D01*
X121630761Y-92241714D01*
X121678380Y-92336952D01*
X121678380Y-92622666D01*
X121630761Y-92717904D01*
X121583142Y-92765523D01*
X120678380Y-91241714D02*
X120678380Y-91717904D01*
X121154571Y-91765523D01*
X121106952Y-91717904D01*
X121059333Y-91622666D01*
X121059333Y-91384571D01*
X121106952Y-91289333D01*
X121154571Y-91241714D01*
X121249809Y-91194095D01*
X121487904Y-91194095D01*
X121583142Y-91241714D01*
X121630761Y-91289333D01*
X121678380Y-91384571D01*
X121678380Y-91622666D01*
X121630761Y-91717904D01*
X121583142Y-91765523D01*
X110101142Y-95194380D02*
X109767809Y-94718190D01*
X109529714Y-95194380D02*
X109529714Y-94194380D01*
X109910666Y-94194380D01*
X110005904Y-94242000D01*
X110053523Y-94289619D01*
X110101142Y-94384857D01*
X110101142Y-94527714D01*
X110053523Y-94622952D01*
X110005904Y-94670571D01*
X109910666Y-94718190D01*
X109529714Y-94718190D01*
X110434476Y-94194380D02*
X111053523Y-94194380D01*
X110720190Y-94575333D01*
X110863047Y-94575333D01*
X110958285Y-94622952D01*
X111005904Y-94670571D01*
X111053523Y-94765809D01*
X111053523Y-95003904D01*
X111005904Y-95099142D01*
X110958285Y-95146761D01*
X110863047Y-95194380D01*
X110577333Y-95194380D01*
X110482095Y-95146761D01*
X110434476Y-95099142D01*
X111910666Y-94194380D02*
X111720190Y-94194380D01*
X111624952Y-94242000D01*
X111577333Y-94289619D01*
X111482095Y-94432476D01*
X111434476Y-94622952D01*
X111434476Y-95003904D01*
X111482095Y-95099142D01*
X111529714Y-95146761D01*
X111624952Y-95194380D01*
X111815428Y-95194380D01*
X111910666Y-95146761D01*
X111958285Y-95099142D01*
X112005904Y-95003904D01*
X112005904Y-94765809D01*
X111958285Y-94670571D01*
X111910666Y-94622952D01*
X111815428Y-94575333D01*
X111624952Y-94575333D01*
X111529714Y-94622952D01*
X111482095Y-94670571D01*
X111434476Y-94765809D01*
X124853380Y-95384857D02*
X124377190Y-95718190D01*
X124853380Y-95956285D02*
X123853380Y-95956285D01*
X123853380Y-95575333D01*
X123901000Y-95480095D01*
X123948619Y-95432476D01*
X124043857Y-95384857D01*
X124186714Y-95384857D01*
X124281952Y-95432476D01*
X124329571Y-95480095D01*
X124377190Y-95575333D01*
X124377190Y-95956285D01*
X123853380Y-95051523D02*
X123853380Y-94432476D01*
X124234333Y-94765809D01*
X124234333Y-94622952D01*
X124281952Y-94527714D01*
X124329571Y-94480095D01*
X124424809Y-94432476D01*
X124662904Y-94432476D01*
X124758142Y-94480095D01*
X124805761Y-94527714D01*
X124853380Y-94622952D01*
X124853380Y-94908666D01*
X124805761Y-95003904D01*
X124758142Y-95051523D01*
X123853380Y-94099142D02*
X123853380Y-93432476D01*
X124853380Y-93861047D01*
X152986142Y-85241380D02*
X152652809Y-84765190D01*
X152414714Y-85241380D02*
X152414714Y-84241380D01*
X152795666Y-84241380D01*
X152890904Y-84289000D01*
X152938523Y-84336619D01*
X152986142Y-84431857D01*
X152986142Y-84574714D01*
X152938523Y-84669952D01*
X152890904Y-84717571D01*
X152795666Y-84765190D01*
X152414714Y-84765190D01*
X153319476Y-84241380D02*
X153938523Y-84241380D01*
X153605190Y-84622333D01*
X153748047Y-84622333D01*
X153843285Y-84669952D01*
X153890904Y-84717571D01*
X153938523Y-84812809D01*
X153938523Y-85050904D01*
X153890904Y-85146142D01*
X153843285Y-85193761D01*
X153748047Y-85241380D01*
X153462333Y-85241380D01*
X153367095Y-85193761D01*
X153319476Y-85146142D01*
X154414714Y-85241380D02*
X154605190Y-85241380D01*
X154700428Y-85193761D01*
X154748047Y-85146142D01*
X154843285Y-85003285D01*
X154890904Y-84812809D01*
X154890904Y-84431857D01*
X154843285Y-84336619D01*
X154795666Y-84289000D01*
X154700428Y-84241380D01*
X154509952Y-84241380D01*
X154414714Y-84289000D01*
X154367095Y-84336619D01*
X154319476Y-84431857D01*
X154319476Y-84669952D01*
X154367095Y-84765190D01*
X154414714Y-84812809D01*
X154509952Y-84860428D01*
X154700428Y-84860428D01*
X154795666Y-84812809D01*
X154843285Y-84765190D01*
X154890904Y-84669952D01*
X157864380Y-92590857D02*
X157388190Y-92924190D01*
X157864380Y-93162285D02*
X156864380Y-93162285D01*
X156864380Y-92781333D01*
X156912000Y-92686095D01*
X156959619Y-92638476D01*
X157054857Y-92590857D01*
X157197714Y-92590857D01*
X157292952Y-92638476D01*
X157340571Y-92686095D01*
X157388190Y-92781333D01*
X157388190Y-93162285D01*
X157197714Y-91733714D02*
X157864380Y-91733714D01*
X156816761Y-91971809D02*
X157531047Y-92209904D01*
X157531047Y-91590857D01*
X156864380Y-91019428D02*
X156864380Y-90924190D01*
X156912000Y-90828952D01*
X156959619Y-90781333D01*
X157054857Y-90733714D01*
X157245333Y-90686095D01*
X157483428Y-90686095D01*
X157673904Y-90733714D01*
X157769142Y-90781333D01*
X157816761Y-90828952D01*
X157864380Y-90924190D01*
X157864380Y-91019428D01*
X157816761Y-91114666D01*
X157769142Y-91162285D01*
X157673904Y-91209904D01*
X157483428Y-91257523D01*
X157245333Y-91257523D01*
X157054857Y-91209904D01*
X156959619Y-91162285D01*
X156912000Y-91114666D01*
X156864380Y-91019428D01*
X162436380Y-85732857D02*
X161960190Y-86066190D01*
X162436380Y-86304285D02*
X161436380Y-86304285D01*
X161436380Y-85923333D01*
X161484000Y-85828095D01*
X161531619Y-85780476D01*
X161626857Y-85732857D01*
X161769714Y-85732857D01*
X161864952Y-85780476D01*
X161912571Y-85828095D01*
X161960190Y-85923333D01*
X161960190Y-86304285D01*
X161769714Y-84875714D02*
X162436380Y-84875714D01*
X161388761Y-85113809D02*
X162103047Y-85351904D01*
X162103047Y-84732857D01*
X162436380Y-83828095D02*
X162436380Y-84399523D01*
X162436380Y-84113809D02*
X161436380Y-84113809D01*
X161579238Y-84209047D01*
X161674476Y-84304285D01*
X161722095Y-84399523D01*
X106442095Y-113872380D02*
X106442095Y-114681904D01*
X106489714Y-114777142D01*
X106537333Y-114824761D01*
X106632571Y-114872380D01*
X106823047Y-114872380D01*
X106918285Y-114824761D01*
X106965904Y-114777142D01*
X107013523Y-114681904D01*
X107013523Y-113872380D01*
X108013523Y-114872380D02*
X107442095Y-114872380D01*
X107727809Y-114872380D02*
X107727809Y-113872380D01*
X107632571Y-114015238D01*
X107537333Y-114110476D01*
X107442095Y-114158095D01*
X106426095Y-124896380D02*
X106426095Y-125705904D01*
X106473714Y-125801142D01*
X106521333Y-125848761D01*
X106616571Y-125896380D01*
X106807047Y-125896380D01*
X106902285Y-125848761D01*
X106949904Y-125801142D01*
X106997523Y-125705904D01*
X106997523Y-124896380D01*
X107426095Y-124991619D02*
X107473714Y-124944000D01*
X107568952Y-124896380D01*
X107807047Y-124896380D01*
X107902285Y-124944000D01*
X107949904Y-124991619D01*
X107997523Y-125086857D01*
X107997523Y-125182095D01*
X107949904Y-125324952D01*
X107378476Y-125896380D01*
X107997523Y-125896380D01*
X138430095Y-77905380D02*
X138430095Y-78714904D01*
X138477714Y-78810142D01*
X138525333Y-78857761D01*
X138620571Y-78905380D01*
X138811047Y-78905380D01*
X138906285Y-78857761D01*
X138953904Y-78810142D01*
X139001523Y-78714904D01*
X139001523Y-77905380D01*
X139382476Y-77905380D02*
X140001523Y-77905380D01*
X139668190Y-78286333D01*
X139811047Y-78286333D01*
X139906285Y-78333952D01*
X139953904Y-78381571D01*
X140001523Y-78476809D01*
X140001523Y-78714904D01*
X139953904Y-78810142D01*
X139906285Y-78857761D01*
X139811047Y-78905380D01*
X139525333Y-78905380D01*
X139430095Y-78857761D01*
X139382476Y-78810142D01*
X137215809Y-81445380D02*
X136739619Y-81445380D01*
X136739619Y-80445380D01*
X137406285Y-80445380D02*
X137977714Y-80445380D01*
X137692000Y-81445380D02*
X137692000Y-80445380D01*
X138453904Y-80873952D02*
X138358666Y-80826333D01*
X138311047Y-80778714D01*
X138263428Y-80683476D01*
X138263428Y-80635857D01*
X138311047Y-80540619D01*
X138358666Y-80493000D01*
X138453904Y-80445380D01*
X138644380Y-80445380D01*
X138739619Y-80493000D01*
X138787238Y-80540619D01*
X138834857Y-80635857D01*
X138834857Y-80683476D01*
X138787238Y-80778714D01*
X138739619Y-80826333D01*
X138644380Y-80873952D01*
X138453904Y-80873952D01*
X138358666Y-80921571D01*
X138311047Y-80969190D01*
X138263428Y-81064428D01*
X138263428Y-81254904D01*
X138311047Y-81350142D01*
X138358666Y-81397761D01*
X138453904Y-81445380D01*
X138644380Y-81445380D01*
X138739619Y-81397761D01*
X138787238Y-81350142D01*
X138834857Y-81254904D01*
X138834857Y-81064428D01*
X138787238Y-80969190D01*
X138739619Y-80921571D01*
X138644380Y-80873952D01*
X139692000Y-80778714D02*
X139692000Y-81445380D01*
X139453904Y-80397761D02*
X139215809Y-81112047D01*
X139834857Y-81112047D01*
X140263428Y-81445380D02*
X140453904Y-81445380D01*
X140549142Y-81397761D01*
X140596761Y-81350142D01*
X140692000Y-81207285D01*
X140739619Y-81016809D01*
X140739619Y-80635857D01*
X140692000Y-80540619D01*
X140644380Y-80493000D01*
X140549142Y-80445380D01*
X140358666Y-80445380D01*
X140263428Y-80493000D01*
X140215809Y-80540619D01*
X140168190Y-80635857D01*
X140168190Y-80873952D01*
X140215809Y-80969190D01*
X140263428Y-81016809D01*
X140358666Y-81064428D01*
X140549142Y-81064428D01*
X140644380Y-81016809D01*
X140692000Y-80969190D01*
X140739619Y-80873952D01*
X141358666Y-80445380D02*
X141453904Y-80445380D01*
X141549142Y-80493000D01*
X141596761Y-80540619D01*
X141644380Y-80635857D01*
X141692000Y-80826333D01*
X141692000Y-81064428D01*
X141644380Y-81254904D01*
X141596761Y-81350142D01*
X141549142Y-81397761D01*
X141453904Y-81445380D01*
X141358666Y-81445380D01*
X141263428Y-81397761D01*
X141215809Y-81350142D01*
X141168190Y-81254904D01*
X141120571Y-81064428D01*
X141120571Y-80826333D01*
X141168190Y-80635857D01*
X141215809Y-80540619D01*
X141263428Y-80493000D01*
X141358666Y-80445380D01*
D14*
X169959523Y-96124095D02*
X169959523Y-96326476D01*
X169971428Y-96350285D01*
X169983333Y-96362190D01*
X170007142Y-96374095D01*
X170054761Y-96374095D01*
X170078571Y-96362190D01*
X170090476Y-96350285D01*
X170102380Y-96326476D01*
X170102380Y-96124095D01*
X170328571Y-96207428D02*
X170328571Y-96374095D01*
X170269047Y-96112190D02*
X170209523Y-96290761D01*
X170364285Y-96290761D01*
D12*
X152233333Y-124912380D02*
X151757142Y-124912380D01*
X151757142Y-123912380D01*
X153090476Y-124912380D02*
X152519047Y-124912380D01*
X152804761Y-124912380D02*
X152804761Y-123912380D01*
X152709523Y-124055238D01*
X152614285Y-124150476D01*
X152519047Y-124198095D01*
D15*
X151275142Y-121224523D02*
X151275142Y-119954523D01*
X152000857Y-121224523D01*
X152000857Y-119954523D01*
X153331333Y-121103571D02*
X153270857Y-121164047D01*
X153089428Y-121224523D01*
X152968476Y-121224523D01*
X152787047Y-121164047D01*
X152666095Y-121043095D01*
X152605619Y-120922142D01*
X152545142Y-120680238D01*
X152545142Y-120498809D01*
X152605619Y-120256904D01*
X152666095Y-120135952D01*
X152787047Y-120015000D01*
X152968476Y-119954523D01*
X153089428Y-119954523D01*
X153270857Y-120015000D01*
X153331333Y-120075476D01*
D12*
X156995904Y-74874380D02*
X156995904Y-73874380D01*
X157234000Y-73874380D01*
X157376857Y-73922000D01*
X157472095Y-74017238D01*
X157519714Y-74112476D01*
X157567333Y-74302952D01*
X157567333Y-74445809D01*
X157519714Y-74636285D01*
X157472095Y-74731523D01*
X157376857Y-74826761D01*
X157234000Y-74874380D01*
X156995904Y-74874380D01*
X157900666Y-73874380D02*
X158519714Y-73874380D01*
X158186380Y-74255333D01*
X158329238Y-74255333D01*
X158424476Y-74302952D01*
X158472095Y-74350571D01*
X158519714Y-74445809D01*
X158519714Y-74683904D01*
X158472095Y-74779142D01*
X158424476Y-74826761D01*
X158329238Y-74874380D01*
X158043523Y-74874380D01*
X157948285Y-74826761D01*
X157900666Y-74779142D01*
X153693904Y-74874380D02*
X153693904Y-73874380D01*
X153932000Y-73874380D01*
X154074857Y-73922000D01*
X154170095Y-74017238D01*
X154217714Y-74112476D01*
X154265333Y-74302952D01*
X154265333Y-74445809D01*
X154217714Y-74636285D01*
X154170095Y-74731523D01*
X154074857Y-74826761D01*
X153932000Y-74874380D01*
X153693904Y-74874380D01*
X155122476Y-74207714D02*
X155122476Y-74874380D01*
X154884380Y-73826761D02*
X154646285Y-74541047D01*
X155265333Y-74541047D01*
X150487142Y-97226380D02*
X150153809Y-96750190D01*
X149915714Y-97226380D02*
X149915714Y-96226380D01*
X150296666Y-96226380D01*
X150391904Y-96274000D01*
X150439523Y-96321619D01*
X150487142Y-96416857D01*
X150487142Y-96559714D01*
X150439523Y-96654952D01*
X150391904Y-96702571D01*
X150296666Y-96750190D01*
X149915714Y-96750190D01*
X151439523Y-97226380D02*
X150868095Y-97226380D01*
X151153809Y-97226380D02*
X151153809Y-96226380D01*
X151058571Y-96369238D01*
X150963333Y-96464476D01*
X150868095Y-96512095D01*
X152344285Y-96226380D02*
X151868095Y-96226380D01*
X151820476Y-96702571D01*
X151868095Y-96654952D01*
X151963333Y-96607333D01*
X152201428Y-96607333D01*
X152296666Y-96654952D01*
X152344285Y-96702571D01*
X152391904Y-96797809D01*
X152391904Y-97035904D01*
X152344285Y-97131142D01*
X152296666Y-97178761D01*
X152201428Y-97226380D01*
X151963333Y-97226380D01*
X151868095Y-97178761D01*
X151820476Y-97131142D01*
X143121142Y-95702380D02*
X142787809Y-95226190D01*
X142549714Y-95702380D02*
X142549714Y-94702380D01*
X142930666Y-94702380D01*
X143025904Y-94750000D01*
X143073523Y-94797619D01*
X143121142Y-94892857D01*
X143121142Y-95035714D01*
X143073523Y-95130952D01*
X143025904Y-95178571D01*
X142930666Y-95226190D01*
X142549714Y-95226190D01*
X143502095Y-94797619D02*
X143549714Y-94750000D01*
X143644952Y-94702380D01*
X143883047Y-94702380D01*
X143978285Y-94750000D01*
X144025904Y-94797619D01*
X144073523Y-94892857D01*
X144073523Y-94988095D01*
X144025904Y-95130952D01*
X143454476Y-95702380D01*
X144073523Y-95702380D01*
X144978285Y-94702380D02*
X144502095Y-94702380D01*
X144454476Y-95178571D01*
X144502095Y-95130952D01*
X144597333Y-95083333D01*
X144835428Y-95083333D01*
X144930666Y-95130952D01*
X144978285Y-95178571D01*
X145025904Y-95273809D01*
X145025904Y-95511904D01*
X144978285Y-95607142D01*
X144930666Y-95654761D01*
X144835428Y-95702380D01*
X144597333Y-95702380D01*
X144502095Y-95654761D01*
X144454476Y-95607142D01*
X136009142Y-101290380D02*
X135675809Y-100814190D01*
X135437714Y-101290380D02*
X135437714Y-100290380D01*
X135818666Y-100290380D01*
X135913904Y-100338000D01*
X135961523Y-100385619D01*
X136009142Y-100480857D01*
X136009142Y-100623714D01*
X135961523Y-100718952D01*
X135913904Y-100766571D01*
X135818666Y-100814190D01*
X135437714Y-100814190D01*
X136342476Y-100290380D02*
X136961523Y-100290380D01*
X136628190Y-100671333D01*
X136771047Y-100671333D01*
X136866285Y-100718952D01*
X136913904Y-100766571D01*
X136961523Y-100861809D01*
X136961523Y-101099904D01*
X136913904Y-101195142D01*
X136866285Y-101242761D01*
X136771047Y-101290380D01*
X136485333Y-101290380D01*
X136390095Y-101242761D01*
X136342476Y-101195142D01*
X137818666Y-100623714D02*
X137818666Y-101290380D01*
X137580571Y-100242761D02*
X137342476Y-100957047D01*
X137961523Y-100957047D01*
X157007142Y-78874857D02*
X157054761Y-78922476D01*
X157102380Y-79065333D01*
X157102380Y-79160571D01*
X157054761Y-79303428D01*
X156959523Y-79398666D01*
X156864285Y-79446285D01*
X156673809Y-79493904D01*
X156530952Y-79493904D01*
X156340476Y-79446285D01*
X156245238Y-79398666D01*
X156150000Y-79303428D01*
X156102380Y-79160571D01*
X156102380Y-79065333D01*
X156150000Y-78922476D01*
X156197619Y-78874857D01*
X156102380Y-78541523D02*
X156102380Y-77922476D01*
X156483333Y-78255809D01*
X156483333Y-78112952D01*
X156530952Y-78017714D01*
X156578571Y-77970095D01*
X156673809Y-77922476D01*
X156911904Y-77922476D01*
X157007142Y-77970095D01*
X157054761Y-78017714D01*
X157102380Y-78112952D01*
X157102380Y-78398666D01*
X157054761Y-78493904D01*
X157007142Y-78541523D01*
X156102380Y-77589142D02*
X156102380Y-76922476D01*
X157102380Y-77351047D01*
X173104380Y-102496857D02*
X172628190Y-102830190D01*
X173104380Y-103068285D02*
X172104380Y-103068285D01*
X172104380Y-102687333D01*
X172152000Y-102592095D01*
X172199619Y-102544476D01*
X172294857Y-102496857D01*
X172437714Y-102496857D01*
X172532952Y-102544476D01*
X172580571Y-102592095D01*
X172628190Y-102687333D01*
X172628190Y-103068285D01*
X172437714Y-101639714D02*
X173104380Y-101639714D01*
X172056761Y-101877809D02*
X172771047Y-102115904D01*
X172771047Y-101496857D01*
X172104380Y-101211142D02*
X172104380Y-100592095D01*
X172485333Y-100925428D01*
X172485333Y-100782571D01*
X172532952Y-100687333D01*
X172580571Y-100639714D01*
X172675809Y-100592095D01*
X172913904Y-100592095D01*
X173009142Y-100639714D01*
X173056761Y-100687333D01*
X173104380Y-100782571D01*
X173104380Y-101068285D01*
X173056761Y-101163523D01*
X173009142Y-101211142D01*
X180352380Y-102496857D02*
X179876190Y-102830190D01*
X180352380Y-103068285D02*
X179352380Y-103068285D01*
X179352380Y-102687333D01*
X179400000Y-102592095D01*
X179447619Y-102544476D01*
X179542857Y-102496857D01*
X179685714Y-102496857D01*
X179780952Y-102544476D01*
X179828571Y-102592095D01*
X179876190Y-102687333D01*
X179876190Y-103068285D01*
X179685714Y-101639714D02*
X180352380Y-101639714D01*
X179304761Y-101877809D02*
X180019047Y-102115904D01*
X180019047Y-101496857D01*
X179685714Y-100687333D02*
X180352380Y-100687333D01*
X179304761Y-100925428D02*
X180019047Y-101163523D01*
X180019047Y-100544476D01*
X176152380Y-98432857D02*
X175676190Y-98766190D01*
X176152380Y-99004285D02*
X175152380Y-99004285D01*
X175152380Y-98623333D01*
X175200000Y-98528095D01*
X175247619Y-98480476D01*
X175342857Y-98432857D01*
X175485714Y-98432857D01*
X175580952Y-98480476D01*
X175628571Y-98528095D01*
X175676190Y-98623333D01*
X175676190Y-99004285D01*
X175485714Y-97575714D02*
X176152380Y-97575714D01*
X175104761Y-97813809D02*
X175819047Y-98051904D01*
X175819047Y-97432857D01*
X175152380Y-96575714D02*
X175152380Y-97051904D01*
X175628571Y-97099523D01*
X175580952Y-97051904D01*
X175533333Y-96956666D01*
X175533333Y-96718571D01*
X175580952Y-96623333D01*
X175628571Y-96575714D01*
X175723809Y-96528095D01*
X175961904Y-96528095D01*
X176057142Y-96575714D01*
X176104761Y-96623333D01*
X176152380Y-96718571D01*
X176152380Y-96956666D01*
X176104761Y-97051904D01*
X176057142Y-97099523D01*
X173104380Y-98432857D02*
X172628190Y-98766190D01*
X173104380Y-99004285D02*
X172104380Y-99004285D01*
X172104380Y-98623333D01*
X172152000Y-98528095D01*
X172199619Y-98480476D01*
X172294857Y-98432857D01*
X172437714Y-98432857D01*
X172532952Y-98480476D01*
X172580571Y-98528095D01*
X172628190Y-98623333D01*
X172628190Y-99004285D01*
X172437714Y-97575714D02*
X173104380Y-97575714D01*
X172056761Y-97813809D02*
X172771047Y-98051904D01*
X172771047Y-97432857D01*
X172104380Y-96623333D02*
X172104380Y-96813809D01*
X172152000Y-96909047D01*
X172199619Y-96956666D01*
X172342476Y-97051904D01*
X172532952Y-97099523D01*
X172913904Y-97099523D01*
X173009142Y-97051904D01*
X173056761Y-97004285D01*
X173104380Y-96909047D01*
X173104380Y-96718571D01*
X173056761Y-96623333D01*
X173009142Y-96575714D01*
X172913904Y-96528095D01*
X172675809Y-96528095D01*
X172580571Y-96575714D01*
X172532952Y-96623333D01*
X172485333Y-96718571D01*
X172485333Y-96909047D01*
X172532952Y-97004285D01*
X172580571Y-97051904D01*
X172675809Y-97099523D01*
X125963142Y-127943166D02*
X126010761Y-127990785D01*
X126058380Y-128133642D01*
X126058380Y-128228880D01*
X126010761Y-128371738D01*
X125915523Y-128466976D01*
X125820285Y-128514595D01*
X125629809Y-128562214D01*
X125486952Y-128562214D01*
X125296476Y-128514595D01*
X125201238Y-128466976D01*
X125106000Y-128371738D01*
X125058380Y-128228880D01*
X125058380Y-128133642D01*
X125106000Y-127990785D01*
X125153619Y-127943166D01*
X125153619Y-127562214D02*
X125106000Y-127514595D01*
X125058380Y-127419357D01*
X125058380Y-127181261D01*
X125106000Y-127086023D01*
X125153619Y-127038404D01*
X125248857Y-126990785D01*
X125344095Y-126990785D01*
X125486952Y-127038404D01*
X126058380Y-127609833D01*
X126058380Y-126990785D01*
X131675142Y-112688666D02*
X131722761Y-112736285D01*
X131770380Y-112879142D01*
X131770380Y-112974380D01*
X131722761Y-113117238D01*
X131627523Y-113212476D01*
X131532285Y-113260095D01*
X131341809Y-113307714D01*
X131198952Y-113307714D01*
X131008476Y-113260095D01*
X130913238Y-113212476D01*
X130818000Y-113117238D01*
X130770380Y-112974380D01*
X130770380Y-112879142D01*
X130818000Y-112736285D01*
X130865619Y-112688666D01*
X131103714Y-111831523D02*
X131770380Y-111831523D01*
X130722761Y-112069619D02*
X131437047Y-112307714D01*
X131437047Y-111688666D01*
X114403142Y-127943166D02*
X114450761Y-127990785D01*
X114498380Y-128133642D01*
X114498380Y-128228880D01*
X114450761Y-128371738D01*
X114355523Y-128466976D01*
X114260285Y-128514595D01*
X114069809Y-128562214D01*
X113926952Y-128562214D01*
X113736476Y-128514595D01*
X113641238Y-128466976D01*
X113546000Y-128371738D01*
X113498380Y-128228880D01*
X113498380Y-128133642D01*
X113546000Y-127990785D01*
X113593619Y-127943166D01*
X113498380Y-127038404D02*
X113498380Y-127514595D01*
X113974571Y-127562214D01*
X113926952Y-127514595D01*
X113879333Y-127419357D01*
X113879333Y-127181261D01*
X113926952Y-127086023D01*
X113974571Y-127038404D01*
X114069809Y-126990785D01*
X114307904Y-126990785D01*
X114403142Y-127038404D01*
X114450761Y-127086023D01*
X114498380Y-127181261D01*
X114498380Y-127419357D01*
X114450761Y-127514595D01*
X114403142Y-127562214D01*
X134199333Y-116021142D02*
X134151714Y-116068761D01*
X134008857Y-116116380D01*
X133913619Y-116116380D01*
X133770761Y-116068761D01*
X133675523Y-115973523D01*
X133627904Y-115878285D01*
X133580285Y-115687809D01*
X133580285Y-115544952D01*
X133627904Y-115354476D01*
X133675523Y-115259238D01*
X133770761Y-115164000D01*
X133913619Y-115116380D01*
X134008857Y-115116380D01*
X134151714Y-115164000D01*
X134199333Y-115211619D01*
X134675523Y-116116380D02*
X134866000Y-116116380D01*
X134961238Y-116068761D01*
X135008857Y-116021142D01*
X135104095Y-115878285D01*
X135151714Y-115687809D01*
X135151714Y-115306857D01*
X135104095Y-115211619D01*
X135056476Y-115164000D01*
X134961238Y-115116380D01*
X134770761Y-115116380D01*
X134675523Y-115164000D01*
X134627904Y-115211619D01*
X134580285Y-115306857D01*
X134580285Y-115544952D01*
X134627904Y-115640190D01*
X134675523Y-115687809D01*
X134770761Y-115735428D01*
X134961238Y-115735428D01*
X135056476Y-115687809D01*
X135104095Y-115640190D01*
X135151714Y-115544952D01*
X116087142Y-129420857D02*
X116134761Y-129468476D01*
X116182380Y-129611333D01*
X116182380Y-129706571D01*
X116134761Y-129849428D01*
X116039523Y-129944666D01*
X115944285Y-129992285D01*
X115753809Y-130039904D01*
X115610952Y-130039904D01*
X115420476Y-129992285D01*
X115325238Y-129944666D01*
X115230000Y-129849428D01*
X115182380Y-129706571D01*
X115182380Y-129611333D01*
X115230000Y-129468476D01*
X115277619Y-129420857D01*
X116182380Y-128468476D02*
X116182380Y-129039904D01*
X116182380Y-128754190D02*
X115182380Y-128754190D01*
X115325238Y-128849428D01*
X115420476Y-128944666D01*
X115468095Y-129039904D01*
X116182380Y-127516095D02*
X116182380Y-128087523D01*
X116182380Y-127801809D02*
X115182380Y-127801809D01*
X115325238Y-127897047D01*
X115420476Y-127992285D01*
X115468095Y-128087523D01*
X112211142Y-111156857D02*
X112258761Y-111204476D01*
X112306380Y-111347333D01*
X112306380Y-111442571D01*
X112258761Y-111585428D01*
X112163523Y-111680666D01*
X112068285Y-111728285D01*
X111877809Y-111775904D01*
X111734952Y-111775904D01*
X111544476Y-111728285D01*
X111449238Y-111680666D01*
X111354000Y-111585428D01*
X111306380Y-111442571D01*
X111306380Y-111347333D01*
X111354000Y-111204476D01*
X111401619Y-111156857D01*
X112306380Y-110204476D02*
X112306380Y-110775904D01*
X112306380Y-110490190D02*
X111306380Y-110490190D01*
X111449238Y-110585428D01*
X111544476Y-110680666D01*
X111592095Y-110775904D01*
X111401619Y-109823523D02*
X111354000Y-109775904D01*
X111306380Y-109680666D01*
X111306380Y-109442571D01*
X111354000Y-109347333D01*
X111401619Y-109299714D01*
X111496857Y-109252095D01*
X111592095Y-109252095D01*
X111734952Y-109299714D01*
X112306380Y-109871142D01*
X112306380Y-109252095D01*
X115513142Y-111156857D02*
X115560761Y-111204476D01*
X115608380Y-111347333D01*
X115608380Y-111442571D01*
X115560761Y-111585428D01*
X115465523Y-111680666D01*
X115370285Y-111728285D01*
X115179809Y-111775904D01*
X115036952Y-111775904D01*
X114846476Y-111728285D01*
X114751238Y-111680666D01*
X114656000Y-111585428D01*
X114608380Y-111442571D01*
X114608380Y-111347333D01*
X114656000Y-111204476D01*
X114703619Y-111156857D01*
X115608380Y-110204476D02*
X115608380Y-110775904D01*
X115608380Y-110490190D02*
X114608380Y-110490190D01*
X114751238Y-110585428D01*
X114846476Y-110680666D01*
X114894095Y-110775904D01*
X114941714Y-109347333D02*
X115608380Y-109347333D01*
X114560761Y-109585428D02*
X115275047Y-109823523D01*
X115275047Y-109204476D01*
X135833142Y-106560857D02*
X135880761Y-106608476D01*
X135928380Y-106751333D01*
X135928380Y-106846571D01*
X135880761Y-106989428D01*
X135785523Y-107084666D01*
X135690285Y-107132285D01*
X135499809Y-107179904D01*
X135356952Y-107179904D01*
X135166476Y-107132285D01*
X135071238Y-107084666D01*
X134976000Y-106989428D01*
X134928380Y-106846571D01*
X134928380Y-106751333D01*
X134976000Y-106608476D01*
X135023619Y-106560857D01*
X135023619Y-106179904D02*
X134976000Y-106132285D01*
X134928380Y-106037047D01*
X134928380Y-105798952D01*
X134976000Y-105703714D01*
X135023619Y-105656095D01*
X135118857Y-105608476D01*
X135214095Y-105608476D01*
X135356952Y-105656095D01*
X135928380Y-106227523D01*
X135928380Y-105608476D01*
X134928380Y-104989428D02*
X134928380Y-104894190D01*
X134976000Y-104798952D01*
X135023619Y-104751333D01*
X135118857Y-104703714D01*
X135309333Y-104656095D01*
X135547428Y-104656095D01*
X135737904Y-104703714D01*
X135833142Y-104751333D01*
X135880761Y-104798952D01*
X135928380Y-104894190D01*
X135928380Y-104989428D01*
X135880761Y-105084666D01*
X135833142Y-105132285D01*
X135737904Y-105179904D01*
X135547428Y-105227523D01*
X135309333Y-105227523D01*
X135118857Y-105179904D01*
X135023619Y-105132285D01*
X134976000Y-105084666D01*
X134928380Y-104989428D01*
X132023142Y-106560857D02*
X132070761Y-106608476D01*
X132118380Y-106751333D01*
X132118380Y-106846571D01*
X132070761Y-106989428D01*
X131975523Y-107084666D01*
X131880285Y-107132285D01*
X131689809Y-107179904D01*
X131546952Y-107179904D01*
X131356476Y-107132285D01*
X131261238Y-107084666D01*
X131166000Y-106989428D01*
X131118380Y-106846571D01*
X131118380Y-106751333D01*
X131166000Y-106608476D01*
X131213619Y-106560857D01*
X131213619Y-106179904D02*
X131166000Y-106132285D01*
X131118380Y-106037047D01*
X131118380Y-105798952D01*
X131166000Y-105703714D01*
X131213619Y-105656095D01*
X131308857Y-105608476D01*
X131404095Y-105608476D01*
X131546952Y-105656095D01*
X132118380Y-106227523D01*
X132118380Y-105608476D01*
X132118380Y-104656095D02*
X132118380Y-105227523D01*
X132118380Y-104941809D02*
X131118380Y-104941809D01*
X131261238Y-105037047D01*
X131356476Y-105132285D01*
X131404095Y-105227523D01*
X173649142Y-109354857D02*
X173696761Y-109402476D01*
X173744380Y-109545333D01*
X173744380Y-109640571D01*
X173696761Y-109783428D01*
X173601523Y-109878666D01*
X173506285Y-109926285D01*
X173315809Y-109973904D01*
X173172952Y-109973904D01*
X172982476Y-109926285D01*
X172887238Y-109878666D01*
X172792000Y-109783428D01*
X172744380Y-109640571D01*
X172744380Y-109545333D01*
X172792000Y-109402476D01*
X172839619Y-109354857D01*
X172839619Y-108973904D02*
X172792000Y-108926285D01*
X172744380Y-108831047D01*
X172744380Y-108592952D01*
X172792000Y-108497714D01*
X172839619Y-108450095D01*
X172934857Y-108402476D01*
X173030095Y-108402476D01*
X173172952Y-108450095D01*
X173744380Y-109021523D01*
X173744380Y-108402476D01*
X173172952Y-107831047D02*
X173125333Y-107926285D01*
X173077714Y-107973904D01*
X172982476Y-108021523D01*
X172934857Y-108021523D01*
X172839619Y-107973904D01*
X172792000Y-107926285D01*
X172744380Y-107831047D01*
X172744380Y-107640571D01*
X172792000Y-107545333D01*
X172839619Y-107497714D01*
X172934857Y-107450095D01*
X172982476Y-107450095D01*
X173077714Y-107497714D01*
X173125333Y-107545333D01*
X173172952Y-107640571D01*
X173172952Y-107831047D01*
X173220571Y-107926285D01*
X173268190Y-107973904D01*
X173363428Y-108021523D01*
X173553904Y-108021523D01*
X173649142Y-107973904D01*
X173696761Y-107926285D01*
X173744380Y-107831047D01*
X173744380Y-107640571D01*
X173696761Y-107545333D01*
X173649142Y-107497714D01*
X173553904Y-107450095D01*
X173363428Y-107450095D01*
X173268190Y-107497714D01*
X173220571Y-107545333D01*
X173172952Y-107640571D01*
X167553142Y-109418857D02*
X167600761Y-109466476D01*
X167648380Y-109609333D01*
X167648380Y-109704571D01*
X167600761Y-109847428D01*
X167505523Y-109942666D01*
X167410285Y-109990285D01*
X167219809Y-110037904D01*
X167076952Y-110037904D01*
X166886476Y-109990285D01*
X166791238Y-109942666D01*
X166696000Y-109847428D01*
X166648380Y-109704571D01*
X166648380Y-109609333D01*
X166696000Y-109466476D01*
X166743619Y-109418857D01*
X166743619Y-109037904D02*
X166696000Y-108990285D01*
X166648380Y-108895047D01*
X166648380Y-108656952D01*
X166696000Y-108561714D01*
X166743619Y-108514095D01*
X166838857Y-108466476D01*
X166934095Y-108466476D01*
X167076952Y-108514095D01*
X167648380Y-109085523D01*
X167648380Y-108466476D01*
X167648380Y-107990285D02*
X167648380Y-107799809D01*
X167600761Y-107704571D01*
X167553142Y-107656952D01*
X167410285Y-107561714D01*
X167219809Y-107514095D01*
X166838857Y-107514095D01*
X166743619Y-107561714D01*
X166696000Y-107609333D01*
X166648380Y-107704571D01*
X166648380Y-107895047D01*
X166696000Y-107990285D01*
X166743619Y-108037904D01*
X166838857Y-108085523D01*
X167076952Y-108085523D01*
X167172190Y-108037904D01*
X167219809Y-107990285D01*
X167267428Y-107895047D01*
X167267428Y-107704571D01*
X167219809Y-107609333D01*
X167172190Y-107561714D01*
X167076952Y-107514095D01*
X189841142Y-108338857D02*
X189888761Y-108386476D01*
X189936380Y-108529333D01*
X189936380Y-108624571D01*
X189888761Y-108767428D01*
X189793523Y-108862666D01*
X189698285Y-108910285D01*
X189507809Y-108957904D01*
X189364952Y-108957904D01*
X189174476Y-108910285D01*
X189079238Y-108862666D01*
X188984000Y-108767428D01*
X188936380Y-108624571D01*
X188936380Y-108529333D01*
X188984000Y-108386476D01*
X189031619Y-108338857D01*
X188936380Y-108005523D02*
X188936380Y-107386476D01*
X189317333Y-107719809D01*
X189317333Y-107576952D01*
X189364952Y-107481714D01*
X189412571Y-107434095D01*
X189507809Y-107386476D01*
X189745904Y-107386476D01*
X189841142Y-107434095D01*
X189888761Y-107481714D01*
X189936380Y-107576952D01*
X189936380Y-107862666D01*
X189888761Y-107957904D01*
X189841142Y-108005523D01*
X188936380Y-107053142D02*
X188936380Y-106434095D01*
X189317333Y-106767428D01*
X189317333Y-106624571D01*
X189364952Y-106529333D01*
X189412571Y-106481714D01*
X189507809Y-106434095D01*
X189745904Y-106434095D01*
X189841142Y-106481714D01*
X189888761Y-106529333D01*
X189936380Y-106624571D01*
X189936380Y-106910285D01*
X189888761Y-107005523D01*
X189841142Y-107053142D01*
X178652322Y-128211142D02*
X178604703Y-128258761D01*
X178461846Y-128306380D01*
X178366608Y-128306380D01*
X178223751Y-128258761D01*
X178128513Y-128163523D01*
X178080894Y-128068285D01*
X178033275Y-127877809D01*
X178033275Y-127734952D01*
X178080894Y-127544476D01*
X178128513Y-127449238D01*
X178223751Y-127354000D01*
X178366608Y-127306380D01*
X178461846Y-127306380D01*
X178604703Y-127354000D01*
X178652322Y-127401619D01*
X178985656Y-127306380D02*
X179604703Y-127306380D01*
X179271370Y-127687333D01*
X179414227Y-127687333D01*
X179509465Y-127734952D01*
X179557084Y-127782571D01*
X179604703Y-127877809D01*
X179604703Y-128115904D01*
X179557084Y-128211142D01*
X179509465Y-128258761D01*
X179414227Y-128306380D01*
X179128513Y-128306380D01*
X179033275Y-128258761D01*
X178985656Y-128211142D01*
X180509465Y-127306380D02*
X180033275Y-127306380D01*
X179985656Y-127782571D01*
X180033275Y-127734952D01*
X180128513Y-127687333D01*
X180366608Y-127687333D01*
X180461846Y-127734952D01*
X180509465Y-127782571D01*
X180557084Y-127877809D01*
X180557084Y-128115904D01*
X180509465Y-128211142D01*
X180461846Y-128258761D01*
X180366608Y-128306380D01*
X180128513Y-128306380D01*
X180033275Y-128258761D01*
X179985656Y-128211142D01*
X162608380Y-79314095D02*
X161608380Y-79314095D01*
X161608380Y-79076000D01*
X161656000Y-78933142D01*
X161751238Y-78837904D01*
X161846476Y-78790285D01*
X162036952Y-78742666D01*
X162179809Y-78742666D01*
X162370285Y-78790285D01*
X162465523Y-78837904D01*
X162560761Y-78933142D01*
X162608380Y-79076000D01*
X162608380Y-79314095D01*
X161608380Y-77837904D02*
X161608380Y-78314095D01*
X162084571Y-78361714D01*
X162036952Y-78314095D01*
X161989333Y-78218857D01*
X161989333Y-77980761D01*
X162036952Y-77885523D01*
X162084571Y-77837904D01*
X162179809Y-77790285D01*
X162417904Y-77790285D01*
X162513142Y-77837904D01*
X162560761Y-77885523D01*
X162608380Y-77980761D01*
X162608380Y-78218857D01*
X162560761Y-78314095D01*
X162513142Y-78361714D01*
X175148380Y-72318095D02*
X174148380Y-72318095D01*
X174148380Y-71937142D01*
X174196000Y-71841904D01*
X174243619Y-71794285D01*
X174338857Y-71746666D01*
X174481714Y-71746666D01*
X174576952Y-71794285D01*
X174624571Y-71841904D01*
X174672190Y-71937142D01*
X174672190Y-72318095D01*
X174148380Y-71413333D02*
X174148380Y-70794285D01*
X174529333Y-71127619D01*
X174529333Y-70984761D01*
X174576952Y-70889523D01*
X174624571Y-70841904D01*
X174719809Y-70794285D01*
X174957904Y-70794285D01*
X175053142Y-70841904D01*
X175100761Y-70889523D01*
X175148380Y-70984761D01*
X175148380Y-71270476D01*
X175100761Y-71365714D01*
X175053142Y-71413333D01*
X176014380Y-93194095D02*
X175014380Y-93194095D01*
X175014380Y-92813142D01*
X175062000Y-92717904D01*
X175109619Y-92670285D01*
X175204857Y-92622666D01*
X175347714Y-92622666D01*
X175442952Y-92670285D01*
X175490571Y-92717904D01*
X175538190Y-92813142D01*
X175538190Y-93194095D01*
X175014380Y-91717904D02*
X175014380Y-92194095D01*
X175490571Y-92241714D01*
X175442952Y-92194095D01*
X175395333Y-92098857D01*
X175395333Y-91860761D01*
X175442952Y-91765523D01*
X175490571Y-91717904D01*
X175585809Y-91670285D01*
X175823904Y-91670285D01*
X175919142Y-91717904D01*
X175966761Y-91765523D01*
X176014380Y-91860761D01*
X176014380Y-92098857D01*
X175966761Y-92194095D01*
X175919142Y-92241714D01*
X158660761Y-95773619D02*
X158565523Y-95726000D01*
X158470285Y-95630761D01*
X158327428Y-95487904D01*
X158232190Y-95440285D01*
X158136952Y-95440285D01*
X158184571Y-95678380D02*
X158089333Y-95630761D01*
X157994095Y-95535523D01*
X157946476Y-95345047D01*
X157946476Y-95011714D01*
X157994095Y-94821238D01*
X158089333Y-94726000D01*
X158184571Y-94678380D01*
X158375047Y-94678380D01*
X158470285Y-94726000D01*
X158565523Y-94821238D01*
X158613142Y-95011714D01*
X158613142Y-95345047D01*
X158565523Y-95535523D01*
X158470285Y-95630761D01*
X158375047Y-95678380D01*
X158184571Y-95678380D01*
X159470285Y-94678380D02*
X159279809Y-94678380D01*
X159184571Y-94726000D01*
X159136952Y-94773619D01*
X159041714Y-94916476D01*
X158994095Y-95106952D01*
X158994095Y-95487904D01*
X159041714Y-95583142D01*
X159089333Y-95630761D01*
X159184571Y-95678380D01*
X159375047Y-95678380D01*
X159470285Y-95630761D01*
X159517904Y-95583142D01*
X159565523Y-95487904D01*
X159565523Y-95249809D01*
X159517904Y-95154571D01*
X159470285Y-95106952D01*
X159375047Y-95059333D01*
X159184571Y-95059333D01*
X159089333Y-95106952D01*
X159041714Y-95154571D01*
X158994095Y-95249809D01*
X186813142Y-119528380D02*
X186479809Y-119052190D01*
X186241714Y-119528380D02*
X186241714Y-118528380D01*
X186622666Y-118528380D01*
X186717904Y-118576000D01*
X186765523Y-118623619D01*
X186813142Y-118718857D01*
X186813142Y-118861714D01*
X186765523Y-118956952D01*
X186717904Y-119004571D01*
X186622666Y-119052190D01*
X186241714Y-119052190D01*
X187670285Y-118861714D02*
X187670285Y-119528380D01*
X187432190Y-118480761D02*
X187194095Y-119195047D01*
X187813142Y-119195047D01*
X188146476Y-118623619D02*
X188194095Y-118576000D01*
X188289333Y-118528380D01*
X188527428Y-118528380D01*
X188622666Y-118576000D01*
X188670285Y-118623619D01*
X188717904Y-118718857D01*
X188717904Y-118814095D01*
X188670285Y-118956952D01*
X188098857Y-119528380D01*
X188717904Y-119528380D01*
X96122666Y-135783380D02*
X95789333Y-135307190D01*
X95551238Y-135783380D02*
X95551238Y-134783380D01*
X95932190Y-134783380D01*
X96027428Y-134831000D01*
X96075047Y-134878619D01*
X96122666Y-134973857D01*
X96122666Y-135116714D01*
X96075047Y-135211952D01*
X96027428Y-135259571D01*
X95932190Y-135307190D01*
X95551238Y-135307190D01*
X96551238Y-135259571D02*
X96884571Y-135259571D01*
X97027428Y-135783380D02*
X96551238Y-135783380D01*
X96551238Y-134783380D01*
X97027428Y-134783380D01*
X97789333Y-135259571D02*
X97456000Y-135259571D01*
X97456000Y-135783380D02*
X97456000Y-134783380D01*
X97932190Y-134783380D01*
X98456000Y-134783380D02*
X98456000Y-135021476D01*
X98217904Y-134926238D02*
X98456000Y-135021476D01*
X98694095Y-134926238D01*
X98313142Y-135211952D02*
X98456000Y-135021476D01*
X98598857Y-135211952D01*
X99217904Y-134783380D02*
X99217904Y-135021476D01*
X98979809Y-134926238D02*
X99217904Y-135021476D01*
X99456000Y-134926238D01*
X99075047Y-135211952D02*
X99217904Y-135021476D01*
X99360761Y-135211952D01*
X96122666Y-62783380D02*
X95789333Y-62307190D01*
X95551238Y-62783380D02*
X95551238Y-61783380D01*
X95932190Y-61783380D01*
X96027428Y-61831000D01*
X96075047Y-61878619D01*
X96122666Y-61973857D01*
X96122666Y-62116714D01*
X96075047Y-62211952D01*
X96027428Y-62259571D01*
X95932190Y-62307190D01*
X95551238Y-62307190D01*
X96551238Y-62259571D02*
X96884571Y-62259571D01*
X97027428Y-62783380D02*
X96551238Y-62783380D01*
X96551238Y-61783380D01*
X97027428Y-61783380D01*
X97789333Y-62259571D02*
X97456000Y-62259571D01*
X97456000Y-62783380D02*
X97456000Y-61783380D01*
X97932190Y-61783380D01*
X98456000Y-61783380D02*
X98456000Y-62021476D01*
X98217904Y-61926238D02*
X98456000Y-62021476D01*
X98694095Y-61926238D01*
X98313142Y-62211952D02*
X98456000Y-62021476D01*
X98598857Y-62211952D01*
X99217904Y-61783380D02*
X99217904Y-62021476D01*
X98979809Y-61926238D02*
X99217904Y-62021476D01*
X99456000Y-61926238D01*
X99075047Y-62211952D02*
X99217904Y-62021476D01*
X99360761Y-62211952D01*
X188122666Y-62783380D02*
X187789333Y-62307190D01*
X187551238Y-62783380D02*
X187551238Y-61783380D01*
X187932190Y-61783380D01*
X188027428Y-61831000D01*
X188075047Y-61878619D01*
X188122666Y-61973857D01*
X188122666Y-62116714D01*
X188075047Y-62211952D01*
X188027428Y-62259571D01*
X187932190Y-62307190D01*
X187551238Y-62307190D01*
X188551238Y-62259571D02*
X188884571Y-62259571D01*
X189027428Y-62783380D02*
X188551238Y-62783380D01*
X188551238Y-61783380D01*
X189027428Y-61783380D01*
X189789333Y-62259571D02*
X189456000Y-62259571D01*
X189456000Y-62783380D02*
X189456000Y-61783380D01*
X189932190Y-61783380D01*
X190456000Y-61783380D02*
X190456000Y-62021476D01*
X190217904Y-61926238D02*
X190456000Y-62021476D01*
X190694095Y-61926238D01*
X190313142Y-62211952D02*
X190456000Y-62021476D01*
X190598857Y-62211952D01*
X191217904Y-61783380D02*
X191217904Y-62021476D01*
X190979809Y-61926238D02*
X191217904Y-62021476D01*
X191456000Y-61926238D01*
X191075047Y-62211952D02*
X191217904Y-62021476D01*
X191360761Y-62211952D01*
X105751333Y-115954380D02*
X105418000Y-115478190D01*
X105179904Y-115954380D02*
X105179904Y-114954380D01*
X105560857Y-114954380D01*
X105656095Y-115002000D01*
X105703714Y-115049619D01*
X105751333Y-115144857D01*
X105751333Y-115287714D01*
X105703714Y-115382952D01*
X105656095Y-115430571D01*
X105560857Y-115478190D01*
X105179904Y-115478190D01*
X106656095Y-114954380D02*
X106179904Y-114954380D01*
X106132285Y-115430571D01*
X106179904Y-115382952D01*
X106275142Y-115335333D01*
X106513238Y-115335333D01*
X106608476Y-115382952D01*
X106656095Y-115430571D01*
X106703714Y-115525809D01*
X106703714Y-115763904D01*
X106656095Y-115859142D01*
X106608476Y-115906761D01*
X106513238Y-115954380D01*
X106275142Y-115954380D01*
X106179904Y-115906761D01*
X106132285Y-115859142D01*
X107021333Y-126876380D02*
X106688000Y-126400190D01*
X106449904Y-126876380D02*
X106449904Y-125876380D01*
X106830857Y-125876380D01*
X106926095Y-125924000D01*
X106973714Y-125971619D01*
X107021333Y-126066857D01*
X107021333Y-126209714D01*
X106973714Y-126304952D01*
X106926095Y-126352571D01*
X106830857Y-126400190D01*
X106449904Y-126400190D01*
X107878476Y-125876380D02*
X107688000Y-125876380D01*
X107592761Y-125924000D01*
X107545142Y-125971619D01*
X107449904Y-126114476D01*
X107402285Y-126304952D01*
X107402285Y-126685904D01*
X107449904Y-126781142D01*
X107497523Y-126828761D01*
X107592761Y-126876380D01*
X107783238Y-126876380D01*
X107878476Y-126828761D01*
X107926095Y-126781142D01*
X107973714Y-126685904D01*
X107973714Y-126447809D01*
X107926095Y-126352571D01*
X107878476Y-126304952D01*
X107783238Y-126257333D01*
X107592761Y-126257333D01*
X107497523Y-126304952D01*
X107449904Y-126352571D01*
X107402285Y-126447809D01*
X137008380Y-111418857D02*
X136532190Y-111752190D01*
X137008380Y-111990285D02*
X136008380Y-111990285D01*
X136008380Y-111609333D01*
X136056000Y-111514095D01*
X136103619Y-111466476D01*
X136198857Y-111418857D01*
X136341714Y-111418857D01*
X136436952Y-111466476D01*
X136484571Y-111514095D01*
X136532190Y-111609333D01*
X136532190Y-111990285D01*
X136103619Y-111037904D02*
X136056000Y-110990285D01*
X136008380Y-110895047D01*
X136008380Y-110656952D01*
X136056000Y-110561714D01*
X136103619Y-110514095D01*
X136198857Y-110466476D01*
X136294095Y-110466476D01*
X136436952Y-110514095D01*
X137008380Y-111085523D01*
X137008380Y-110466476D01*
X136008380Y-109847428D02*
X136008380Y-109752190D01*
X136056000Y-109656952D01*
X136103619Y-109609333D01*
X136198857Y-109561714D01*
X136389333Y-109514095D01*
X136627428Y-109514095D01*
X136817904Y-109561714D01*
X136913142Y-109609333D01*
X136960761Y-109656952D01*
X137008380Y-109752190D01*
X137008380Y-109847428D01*
X136960761Y-109942666D01*
X136913142Y-109990285D01*
X136817904Y-110037904D01*
X136627428Y-110085523D01*
X136389333Y-110085523D01*
X136198857Y-110037904D01*
X136103619Y-109990285D01*
X136056000Y-109942666D01*
X136008380Y-109847428D01*
X119413142Y-86528380D02*
X119079809Y-86052190D01*
X118841714Y-86528380D02*
X118841714Y-85528380D01*
X119222666Y-85528380D01*
X119317904Y-85576000D01*
X119365523Y-85623619D01*
X119413142Y-85718857D01*
X119413142Y-85861714D01*
X119365523Y-85956952D01*
X119317904Y-86004571D01*
X119222666Y-86052190D01*
X118841714Y-86052190D01*
X119746476Y-85528380D02*
X120365523Y-85528380D01*
X120032190Y-85909333D01*
X120175047Y-85909333D01*
X120270285Y-85956952D01*
X120317904Y-86004571D01*
X120365523Y-86099809D01*
X120365523Y-86337904D01*
X120317904Y-86433142D01*
X120270285Y-86480761D01*
X120175047Y-86528380D01*
X119889333Y-86528380D01*
X119794095Y-86480761D01*
X119746476Y-86433142D01*
X121317904Y-86528380D02*
X120746476Y-86528380D01*
X121032190Y-86528380D02*
X121032190Y-85528380D01*
X120936952Y-85671238D01*
X120841714Y-85766476D01*
X120746476Y-85814095D01*
X172913142Y-118828380D02*
X172579809Y-118352190D01*
X172341714Y-118828380D02*
X172341714Y-117828380D01*
X172722666Y-117828380D01*
X172817904Y-117876000D01*
X172865523Y-117923619D01*
X172913142Y-118018857D01*
X172913142Y-118161714D01*
X172865523Y-118256952D01*
X172817904Y-118304571D01*
X172722666Y-118352190D01*
X172341714Y-118352190D01*
X173246476Y-117828380D02*
X173865523Y-117828380D01*
X173532190Y-118209333D01*
X173675047Y-118209333D01*
X173770285Y-118256952D01*
X173817904Y-118304571D01*
X173865523Y-118399809D01*
X173865523Y-118637904D01*
X173817904Y-118733142D01*
X173770285Y-118780761D01*
X173675047Y-118828380D01*
X173389333Y-118828380D01*
X173294095Y-118780761D01*
X173246476Y-118733142D01*
X174436952Y-118256952D02*
X174341714Y-118209333D01*
X174294095Y-118161714D01*
X174246476Y-118066476D01*
X174246476Y-118018857D01*
X174294095Y-117923619D01*
X174341714Y-117876000D01*
X174436952Y-117828380D01*
X174627428Y-117828380D01*
X174722666Y-117876000D01*
X174770285Y-117923619D01*
X174817904Y-118018857D01*
X174817904Y-118066476D01*
X174770285Y-118161714D01*
X174722666Y-118209333D01*
X174627428Y-118256952D01*
X174436952Y-118256952D01*
X174341714Y-118304571D01*
X174294095Y-118352190D01*
X174246476Y-118447428D01*
X174246476Y-118637904D01*
X174294095Y-118733142D01*
X174341714Y-118780761D01*
X174436952Y-118828380D01*
X174627428Y-118828380D01*
X174722666Y-118780761D01*
X174770285Y-118733142D01*
X174817904Y-118637904D01*
X174817904Y-118447428D01*
X174770285Y-118352190D01*
X174722666Y-118304571D01*
X174627428Y-118256952D01*
X92808380Y-117114095D02*
X91808380Y-117114095D01*
X91808380Y-116733142D01*
X91856000Y-116637904D01*
X91903619Y-116590285D01*
X91998857Y-116542666D01*
X92141714Y-116542666D01*
X92236952Y-116590285D01*
X92284571Y-116637904D01*
X92332190Y-116733142D01*
X92332190Y-117114095D01*
X92808380Y-115590285D02*
X92808380Y-116161714D01*
X92808380Y-115876000D02*
X91808380Y-115876000D01*
X91951238Y-115971238D01*
X92046476Y-116066476D01*
X92094095Y-116161714D01*
X181433380Y-76293857D02*
X180957190Y-76627190D01*
X181433380Y-76865285D02*
X180433380Y-76865285D01*
X180433380Y-76484333D01*
X180481000Y-76389095D01*
X180528619Y-76341476D01*
X180623857Y-76293857D01*
X180766714Y-76293857D01*
X180861952Y-76341476D01*
X180909571Y-76389095D01*
X180957190Y-76484333D01*
X180957190Y-76865285D01*
X180766714Y-75436714D02*
X181433380Y-75436714D01*
X180385761Y-75674809D02*
X181100047Y-75912904D01*
X181100047Y-75293857D01*
X180433380Y-75008142D02*
X180433380Y-74341476D01*
X181433380Y-74770047D01*
X111658380Y-79243857D02*
X111182190Y-79577190D01*
X111658380Y-79815285D02*
X110658380Y-79815285D01*
X110658380Y-79434333D01*
X110706000Y-79339095D01*
X110753619Y-79291476D01*
X110848857Y-79243857D01*
X110991714Y-79243857D01*
X111086952Y-79291476D01*
X111134571Y-79339095D01*
X111182190Y-79434333D01*
X111182190Y-79815285D01*
X110991714Y-78386714D02*
X111658380Y-78386714D01*
X110610761Y-78624809D02*
X111325047Y-78862904D01*
X111325047Y-78243857D01*
X111086952Y-77720047D02*
X111039333Y-77815285D01*
X110991714Y-77862904D01*
X110896476Y-77910523D01*
X110848857Y-77910523D01*
X110753619Y-77862904D01*
X110706000Y-77815285D01*
X110658380Y-77720047D01*
X110658380Y-77529571D01*
X110706000Y-77434333D01*
X110753619Y-77386714D01*
X110848857Y-77339095D01*
X110896476Y-77339095D01*
X110991714Y-77386714D01*
X111039333Y-77434333D01*
X111086952Y-77529571D01*
X111086952Y-77720047D01*
X111134571Y-77815285D01*
X111182190Y-77862904D01*
X111277428Y-77910523D01*
X111467904Y-77910523D01*
X111563142Y-77862904D01*
X111610761Y-77815285D01*
X111658380Y-77720047D01*
X111658380Y-77529571D01*
X111610761Y-77434333D01*
X111563142Y-77386714D01*
X111467904Y-77339095D01*
X111277428Y-77339095D01*
X111182190Y-77386714D01*
X111134571Y-77434333D01*
X111086952Y-77529571D01*
X111658380Y-74043857D02*
X111182190Y-74377190D01*
X111658380Y-74615285D02*
X110658380Y-74615285D01*
X110658380Y-74234333D01*
X110706000Y-74139095D01*
X110753619Y-74091476D01*
X110848857Y-74043857D01*
X110991714Y-74043857D01*
X111086952Y-74091476D01*
X111134571Y-74139095D01*
X111182190Y-74234333D01*
X111182190Y-74615285D01*
X110991714Y-73186714D02*
X111658380Y-73186714D01*
X110610761Y-73424809D02*
X111325047Y-73662904D01*
X111325047Y-73043857D01*
X111658380Y-72615285D02*
X111658380Y-72424809D01*
X111610761Y-72329571D01*
X111563142Y-72281952D01*
X111420285Y-72186714D01*
X111229809Y-72139095D01*
X110848857Y-72139095D01*
X110753619Y-72186714D01*
X110706000Y-72234333D01*
X110658380Y-72329571D01*
X110658380Y-72520047D01*
X110706000Y-72615285D01*
X110753619Y-72662904D01*
X110848857Y-72710523D01*
X111086952Y-72710523D01*
X111182190Y-72662904D01*
X111229809Y-72615285D01*
X111277428Y-72520047D01*
X111277428Y-72329571D01*
X111229809Y-72234333D01*
X111182190Y-72186714D01*
X111086952Y-72139095D01*
X190094095Y-92078380D02*
X190094095Y-92887904D01*
X190141714Y-92983142D01*
X190189333Y-93030761D01*
X190284571Y-93078380D01*
X190475047Y-93078380D01*
X190570285Y-93030761D01*
X190617904Y-92983142D01*
X190665523Y-92887904D01*
X190665523Y-92078380D01*
X191617904Y-92078380D02*
X191141714Y-92078380D01*
X191094095Y-92554571D01*
X191141714Y-92506952D01*
X191236952Y-92459333D01*
X191475047Y-92459333D01*
X191570285Y-92506952D01*
X191617904Y-92554571D01*
X191665523Y-92649809D01*
X191665523Y-92887904D01*
X191617904Y-92983142D01*
X191570285Y-93030761D01*
X191475047Y-93078380D01*
X191236952Y-93078380D01*
X191141714Y-93030761D01*
X191094095Y-92983142D01*
X196183380Y-126789095D02*
X195183380Y-126789095D01*
X195183380Y-126408142D01*
X195231000Y-126312904D01*
X195278619Y-126265285D01*
X195373857Y-126217666D01*
X195516714Y-126217666D01*
X195611952Y-126265285D01*
X195659571Y-126312904D01*
X195707190Y-126408142D01*
X195707190Y-126789095D01*
X195278619Y-125836714D02*
X195231000Y-125789095D01*
X195183380Y-125693857D01*
X195183380Y-125455761D01*
X195231000Y-125360523D01*
X195278619Y-125312904D01*
X195373857Y-125265285D01*
X195469095Y-125265285D01*
X195611952Y-125312904D01*
X196183380Y-125884333D01*
X196183380Y-125265285D01*
M02*
