G04 #@! TF.FileFunction,Soldermask,Top*
%FSLAX46Y46*%
G04 Gerber Fmt 4.6, Leading zero omitted, Abs format (unit mm)*
G04 Created by KiCad (PCBNEW (2016-05-27 BZR 6836, Git 4441a4b)-product) date 09/13/16 14:21:55*
%MOMM*%
%LPD*%
G01*
G04 APERTURE LIST*
%ADD10C,0.100000*%
%ADD11R,1.300000X0.700000*%
%ADD12C,3.175000*%
%ADD13R,1.000000X1.250000*%
%ADD14R,1.250000X1.000000*%
%ADD15R,1.800860X2.499360*%
%ADD16R,2.499360X1.800860*%
%ADD17C,2.387600*%
%ADD18R,0.600000X1.400000*%
%ADD19R,1.000000X2.000000*%
%ADD20R,2.032000X2.032000*%
%ADD21O,2.032000X2.032000*%
%ADD22R,1.750000X1.750000*%
%ADD23C,1.750000*%
%ADD24R,4.600000X1.390000*%
%ADD25R,9.400000X10.800000*%
%ADD26O,1.473200X0.609600*%
%ADD27R,1.390000X4.600000*%
%ADD28R,10.800000X9.400000*%
%ADD29R,0.700000X1.300000*%
%ADD30R,0.400000X2.000000*%
%ADD31R,1.016000X0.343000*%
%ADD32C,1.400000*%
%ADD33C,1.500000*%
%ADD34R,1.000000X2.500000*%
%ADD35R,2.500000X1.000000*%
%ADD36R,0.900000X1.700000*%
%ADD37R,1.000000X3.200000*%
%ADD38R,1.850000X1.850000*%
%ADD39C,1.850000*%
%ADD40R,0.700000X0.600000*%
%ADD41R,0.600000X0.700000*%
%ADD42C,1.100000*%
%ADD43C,1.600000*%
G04 APERTURE END LIST*
D10*
D11*
X114074000Y-69280000D03*
X114074000Y-67380000D03*
X117122000Y-67380000D03*
X117122000Y-69280000D03*
X117122000Y-70936000D03*
X117122000Y-72836000D03*
X114074000Y-72836000D03*
X114074000Y-70936000D03*
D12*
X190834000Y-69950000D03*
X108712000Y-128524000D03*
D13*
X138446000Y-86614000D03*
X140446000Y-86614000D03*
X113268000Y-100076000D03*
X111268000Y-100076000D03*
D14*
X156718000Y-80232000D03*
X156718000Y-78232000D03*
D13*
X113268000Y-97282000D03*
X111268000Y-97282000D03*
D14*
X112268000Y-103902000D03*
X112268000Y-105902000D03*
X140462000Y-112792000D03*
X140462000Y-114792000D03*
D13*
X146884000Y-104300000D03*
X144884000Y-104300000D03*
X109744000Y-118110000D03*
X111744000Y-118110000D03*
X113808000Y-118110000D03*
X115808000Y-118110000D03*
X117872000Y-118110000D03*
X119872000Y-118110000D03*
X121936000Y-118110000D03*
X123936000Y-118110000D03*
X126000000Y-118110000D03*
X128000000Y-118110000D03*
X130064000Y-118110000D03*
X132064000Y-118110000D03*
X134128000Y-118110000D03*
X136128000Y-118110000D03*
D14*
X141986000Y-73136000D03*
X141986000Y-71136000D03*
D15*
X164338000Y-76995020D03*
X164338000Y-80992980D03*
X164338000Y-72831960D03*
X164338000Y-68834000D03*
D16*
X143510000Y-101092000D03*
X147507960Y-101092000D03*
X139700000Y-101092000D03*
X135702040Y-101092000D03*
D17*
X178054000Y-124841000D03*
X164592000Y-124841000D03*
X164592000Y-128244600D03*
X178054000Y-128244600D03*
D18*
X139200000Y-90639500D03*
X140200000Y-90639500D03*
D19*
X141600000Y-93764500D03*
X137800000Y-93764500D03*
D20*
X112014000Y-89408000D03*
D21*
X112014000Y-86868000D03*
D22*
X117348000Y-126746000D03*
D23*
X119848000Y-126746000D03*
X122348000Y-126746000D03*
X124848000Y-126746000D03*
X127348000Y-126746000D03*
X129848000Y-126746000D03*
X132348000Y-126746000D03*
X134848000Y-126746000D03*
D24*
X179578000Y-90932000D03*
D25*
X170428000Y-90932000D03*
D24*
X179578000Y-88392000D03*
X179578000Y-93472000D03*
X160274000Y-90932000D03*
D25*
X151124000Y-90932000D03*
D24*
X160274000Y-88392000D03*
X160274000Y-93472000D03*
D26*
X189484000Y-96139000D03*
X189484000Y-94869000D03*
X189484000Y-93599000D03*
X189484000Y-92329000D03*
X183896000Y-92329000D03*
X183896000Y-93599000D03*
X183896000Y-94869000D03*
X183896000Y-96139000D03*
D27*
X179578000Y-112776000D03*
D28*
X179578000Y-103626000D03*
D27*
X182118000Y-112776000D03*
X177038000Y-112776000D03*
X160274000Y-101092000D03*
D28*
X160274000Y-110242000D03*
D27*
X157734000Y-101092000D03*
X162814000Y-101092000D03*
D11*
X148336000Y-80132000D03*
X148336000Y-78232000D03*
X153924000Y-80198000D03*
X153924000Y-78298000D03*
X153924000Y-75626000D03*
X153924000Y-73726000D03*
D29*
X133670000Y-86614000D03*
X135570000Y-86614000D03*
X138496000Y-83058000D03*
X140396000Y-83058000D03*
D11*
X160020000Y-80198000D03*
X160020000Y-78298000D03*
D29*
X156652000Y-68326000D03*
X154752000Y-68326000D03*
X181930000Y-83566000D03*
X183830000Y-83566000D03*
D11*
X140462000Y-116652000D03*
X140462000Y-118552000D03*
X144018000Y-116652000D03*
X144018000Y-118552000D03*
D29*
X146834000Y-106550000D03*
X144934000Y-106550000D03*
X139884000Y-106400000D03*
X137984000Y-106400000D03*
D11*
X108712000Y-115250000D03*
X108712000Y-113350000D03*
X112776000Y-115250000D03*
X112776000Y-113350000D03*
X116840000Y-115250000D03*
X116840000Y-113350000D03*
X120904000Y-115250000D03*
X120904000Y-113350000D03*
X124968000Y-115250000D03*
X124968000Y-113350000D03*
X129032000Y-115250000D03*
X129032000Y-113350000D03*
X133096000Y-115250000D03*
X133096000Y-113350000D03*
X137160000Y-115250000D03*
X137160000Y-113350000D03*
D29*
X146746000Y-110236000D03*
X144846000Y-110236000D03*
D11*
X139192000Y-73086000D03*
X139192000Y-71186000D03*
D30*
X123380500Y-92786000D03*
X122745500Y-92786000D03*
X122110500Y-92786000D03*
X121475500Y-92786000D03*
X120840500Y-92786000D03*
X120205500Y-92786000D03*
X119570500Y-92786000D03*
X118935500Y-92786000D03*
X118300500Y-92786000D03*
X117665500Y-92786000D03*
X117030500Y-92786000D03*
X116395500Y-92786000D03*
X124015500Y-92786000D03*
X124650500Y-92786000D03*
X125285500Y-92786000D03*
X125920500Y-92786000D03*
X126555500Y-92786000D03*
X127190500Y-92786000D03*
X127825500Y-92786000D03*
X128460500Y-92786000D03*
X129095500Y-92786000D03*
X129730500Y-92786000D03*
X130365500Y-92786000D03*
X131000500Y-92786000D03*
X116395500Y-102286000D03*
X117030500Y-102286000D03*
X117665500Y-102286000D03*
X118300500Y-102286000D03*
X118935500Y-102286000D03*
X119570500Y-102286000D03*
X120205500Y-102286000D03*
X120840500Y-102286000D03*
X121475500Y-102286000D03*
X122110500Y-102286000D03*
X122745500Y-102286000D03*
X123380500Y-102286000D03*
X124015500Y-102286000D03*
X124650500Y-102286000D03*
X125285500Y-102286000D03*
X125920500Y-102286000D03*
X126555500Y-102286000D03*
X127190500Y-102286000D03*
X127825500Y-102286000D03*
X128460500Y-102286000D03*
X129095500Y-102286000D03*
X129730500Y-102286000D03*
X130365500Y-102286000D03*
X131000500Y-102286000D03*
D31*
X131052500Y-69863500D03*
X131052500Y-70363500D03*
X131052500Y-70863500D03*
X131052500Y-71363500D03*
X131052500Y-71863500D03*
X135144500Y-69863500D03*
X135144500Y-70363500D03*
X135144500Y-70863500D03*
X135144500Y-71363500D03*
X135144500Y-71863500D03*
D32*
X107950000Y-81026000D03*
X110490000Y-81026000D03*
D33*
X134112000Y-94234000D03*
D32*
X107950000Y-83566000D03*
X110490000Y-83566000D03*
X113538000Y-83566000D03*
X113538000Y-81026000D03*
D34*
X125754000Y-81026000D03*
X128754000Y-81026000D03*
D35*
X149606000Y-75898000D03*
X149606000Y-72898000D03*
D34*
X122706000Y-84582000D03*
X125706000Y-84582000D03*
X143234000Y-109700000D03*
X140234000Y-109700000D03*
D36*
X140790000Y-120904000D03*
X143690000Y-120904000D03*
D37*
X168634000Y-78700000D03*
X174834000Y-78700000D03*
D38*
X110236000Y-76454000D03*
D39*
X112736000Y-76454000D03*
X115236000Y-76454000D03*
X117736000Y-76454000D03*
D12*
X108834000Y-69950000D03*
X190754000Y-128524000D03*
D40*
X151084000Y-80050000D03*
X151084000Y-78650000D03*
D41*
X146434000Y-112950000D03*
X145034000Y-112950000D03*
D38*
X122834000Y-70200000D03*
D39*
X125334000Y-70200000D03*
D42*
X177084000Y-74200000D03*
D43*
X171084000Y-70200000D03*
X174084000Y-70200000D03*
X171084000Y-73200000D03*
X174084000Y-73200000D03*
D42*
X168084000Y-74140000D03*
X180084000Y-79200000D03*
D43*
X184084000Y-73200000D03*
X184084000Y-76200000D03*
X181084000Y-73200000D03*
X181084000Y-76200000D03*
D42*
X180144000Y-70200000D03*
X159334000Y-129700000D03*
D43*
X153334000Y-125700000D03*
X156334000Y-125700000D03*
X153334000Y-128700000D03*
X156334000Y-128700000D03*
D42*
X150334000Y-129640000D03*
M02*
