<?xml version="1.0" encoding="UTF-8" standalone="no"?>
<!-- Created with Inkscape (http://www.inkscape.org/) -->

<svg
   xmlns:dc="http://purl.org/dc/elements/1.1/"
   xmlns:cc="http://creativecommons.org/ns#"
   xmlns:rdf="http://www.w3.org/1999/02/22-rdf-syntax-ns#"
   xmlns:svg="http://www.w3.org/2000/svg"
   xmlns="http://www.w3.org/2000/svg"
   xmlns:sodipodi="http://sodipodi.sourceforge.net/DTD/sodipodi-0.dtd"
   xmlns:inkscape="http://www.inkscape.org/namespaces/inkscape"
   width="744.09448"
   height="1052.3622"
   id="svg2"
   version="1.1"
   inkscape:version="0.48.3.1 r9886"
   sodipodi:docname="LTC-Interior-Power Conenctor - v2.svg">
  <defs
     id="defs4" />
  <sodipodi:namedview
     id="base"
     pagecolor="#ffffff"
     bordercolor="#666666"
     borderopacity="1.0"
     inkscape:pageopacity="0.0"
     inkscape:pageshadow="2"
     inkscape:zoom="1.5055555"
     inkscape:cx="166.97416"
     inkscape:cy="181.99998"
     inkscape:document-units="mm"
     inkscape:current-layer="layer1"
     showgrid="true"
     inkscape:window-width="1280"
     inkscape:window-height="753"
     inkscape:window-x="-4"
     inkscape:window-y="-4"
     inkscape:window-maximized="1"
     showborder="false"
     units="mm">
    <inkscape:grid
       type="xygrid"
       id="grid3833"
       empspacing="5"
       visible="true"
       enabled="true"
       snapvisiblegridlinesonly="true" />
  </sodipodi:namedview>
  <metadata
     id="metadata7">
    <rdf:RDF>
      <cc:Work
         rdf:about="">
        <dc:format>image/svg+xml</dc:format>
        <dc:type
           rdf:resource="http://purl.org/dc/dcmitype/StillImage" />
        <dc:title></dc:title>
      </cc:Work>
    </rdf:RDF>
  </metadata>
  <g
     inkscape:label="Layer 1"
     inkscape:groupmode="layer"
     id="layer1"
     transform="translate(0,3.0273436e-6)">
    <rect
       style="fill:none;stroke:#000000;stroke-width:1.05869162;stroke-linejoin:miter;stroke-miterlimit:4;stroke-opacity:1;stroke-dasharray:none;stroke-dashoffset:0"
       id="rect2985"
       width="470.20114"
       height="317.83896"
       x="-19.470654"
       y="731.9939" />
    <text
       sodipodi:linespacing="125%"
       id="text3956"
       y="920.36218"
       x="-116.75"
       style="font-size:14px;font-style:normal;font-weight:normal;line-height:125%;letter-spacing:0px;word-spacing:0px;fill:#ff0000;fill-opacity:1;stroke:none;font-family:Sans"
       xml:space="preserve"
       transform="scale(-1,1)"><tspan
         y="920.36218"
         x="-116.75"
         id="tspan3958"
         sodipodi:role="line" /></text>
    <rect
       style="fill:none;stroke:#000000;stroke-width:0.99999994;stroke-linejoin:miter;stroke-miterlimit:4;stroke-opacity:1;stroke-dasharray:none;stroke-dashoffset:0"
       id="rect3879"
       width="87.58268"
       height="183.25197"
       x="-883.28973"
       y="-307.38187"
       transform="matrix(0,-1,-1,0,0,0)" />
    <path
       sodipodi:type="arc"
       style="fill:none;stroke:#000000;stroke-width:1;stroke-linejoin:miter;stroke-miterlimit:4;stroke-opacity:1;stroke-dasharray:none;stroke-dashoffset:0"
       id="path3755"
       sodipodi:cx="75.168358"
       sodipodi:cy="951.10797"
       sodipodi:rx="14.759085"
       sodipodi:ry="14.759085"
       d="m 89.927443,951.10797 a 14.759085,14.759085 0 1 1 -29.51817,0 14.759085,14.759085 0 1 1 29.51817,0 z"
       transform="matrix(0.55294929,0,0,0.55294929,25.003127,367.89275)" />
    <path
       sodipodi:type="arc"
       style="fill:none;stroke:#000000;stroke-width:0.99862432;stroke-linejoin:miter;stroke-miterlimit:4;stroke-opacity:1;stroke-dasharray:none;stroke-dashoffset:0"
       id="path3755-3"
       sodipodi:cx="75.168358"
       sodipodi:cy="951.10797"
       sodipodi:rx="14.759085"
       sodipodi:ry="14.759085"
       d="m 89.927443,951.10797 a 14.759085,14.759085 0 1 1 -29.51817,0 14.759085,14.759085 0 1 1 29.51817,0 z"
       transform="matrix(0.55294929,0,0,0.55447377,25.003127,450.7953)" />
    <path
       sodipodi:type="arc"
       style="fill:none;stroke:#000000;stroke-width:0.99862432;stroke-linejoin:miter;stroke-miterlimit:4;stroke-opacity:1;stroke-dasharray:none;stroke-dashoffset:0"
       id="path3755-3-8"
       sodipodi:cx="75.168358"
       sodipodi:cy="951.10797"
       sodipodi:rx="14.759085"
       sodipodi:ry="14.759085"
       d="m 89.927443,951.10797 a 14.759085,14.759085 0 1 1 -29.51817,0 14.759085,14.759085 0 1 1 29.51817,0 z"
       transform="matrix(0.55294929,0,0,0.55447377,25.003127,282.0453)" />
    <path
       sodipodi:type="arc"
       style="fill:none;stroke:#000000;stroke-width:1;stroke-linejoin:miter;stroke-miterlimit:4;stroke-opacity:1;stroke-dasharray:none;stroke-dashoffset:0"
       id="path3755-1"
       sodipodi:cx="75.168358"
       sodipodi:cy="951.10797"
       sodipodi:rx="14.759085"
       sodipodi:ry="14.759085"
       d="m 89.927443,951.10797 a 14.759085,14.759085 0 1 1 -29.51817,0 14.759085,14.759085 0 1 1 29.51817,0 z"
       transform="matrix(0.55294929,0,0,0.55294929,323.12813,367.89275)" />
    <path
       sodipodi:type="arc"
       style="fill:none;stroke:#000000;stroke-width:0.99862432;stroke-linejoin:miter;stroke-miterlimit:4;stroke-opacity:1;stroke-dasharray:none;stroke-dashoffset:0"
       id="path3755-3-7"
       sodipodi:cx="75.168358"
       sodipodi:cy="951.10797"
       sodipodi:rx="14.759085"
       sodipodi:ry="14.759085"
       d="m 89.927443,951.10797 a 14.759085,14.759085 0 1 1 -29.51817,0 14.759085,14.759085 0 1 1 29.51817,0 z"
       transform="matrix(0.55294929,0,0,0.55447377,323.12813,450.7953)" />
    <path
       sodipodi:type="arc"
       style="fill:none;stroke:#000000;stroke-width:0.99862432;stroke-linejoin:miter;stroke-miterlimit:4;stroke-opacity:1;stroke-dasharray:none;stroke-dashoffset:0"
       id="path3755-3-8-4"
       sodipodi:cx="75.168358"
       sodipodi:cy="951.10797"
       sodipodi:rx="14.759085"
       sodipodi:ry="14.759085"
       d="m 89.927443,951.10797 a 14.759085,14.759085 0 1 1 -29.51817,0 14.759085,14.759085 0 1 1 29.51817,0 z"
       transform="matrix(0.55294929,0,0,0.55447377,323.12813,282.0453)" />
    <path
       sodipodi:type="arc"
       style="fill:none;stroke:#000000;stroke-width:0.31032488;stroke-linejoin:miter;stroke-miterlimit:4;stroke-opacity:1;stroke-dasharray:none;stroke-dashoffset:0"
       id="path3755-3-8-0"
       sodipodi:cx="75.168358"
       sodipodi:cy="951.10797"
       sodipodi:rx="14.759085"
       sodipodi:ry="14.759085"
       d="m 89.927443,951.10797 a 14.759085,14.759085 0 1 1 -29.51817,0 14.759085,14.759085 0 1 1 29.51817,0 z"
       transform="matrix(1.7818401,0,0,1.7818401,147.1232,-737.7174)" />
    <path
       sodipodi:type="arc"
       style="fill:none;stroke:#000000;stroke-width:0.31032488;stroke-linejoin:miter;stroke-miterlimit:4;stroke-opacity:1;stroke-dasharray:none;stroke-dashoffset:0"
       id="path3755-3-8-0-4"
       sodipodi:cx="75.168358"
       sodipodi:cy="951.10797"
       sodipodi:rx="14.759085"
       sodipodi:ry="14.759085"
       d="m 89.927443,951.10797 a 14.759085,14.759085 0 1 1 -29.51817,0 14.759085,14.759085 0 1 1 29.51817,0 z"
       transform="matrix(1.7818401,0,0,1.7818401,82.1232,-737.7174)" />
    <rect
       style="fill:none;stroke:#000000;stroke-width:1;stroke-linejoin:miter;stroke-miterlimit:4;stroke-opacity:1;stroke-dasharray:none;stroke-dashoffset:0"
       id="rect3879-9-4"
       width="23.80315"
       height="76.952759"
       x="90.248016"
       y="-993.40778"
       transform="scale(1,-1)" />
  </g>
</svg>
