G04 #@! TF.FileFunction,Soldermask,Bot*
%FSLAX46Y46*%
G04 Gerber Fmt 4.6, Leading zero omitted, Abs format (unit mm)*
G04 Created by KiCad (PCBNEW 4.0.5+dfsg1-4) date Wed Feb  8 17:15:58 2017*
%MOMM*%
%LPD*%
G01*
G04 APERTURE LIST*
%ADD10C,0.100000*%
%ADD11R,1.300000X1.300000*%
%ADD12C,1.300000*%
%ADD13C,2.600000*%
%ADD14O,1.600000X1.600000*%
%ADD15R,2.032000X2.032000*%
%ADD16O,2.032000X2.032000*%
%ADD17C,1.400000*%
%ADD18R,1.727200X1.727200*%
%ADD19O,1.727200X1.727200*%
%ADD20R,2.032000X1.727200*%
%ADD21O,2.032000X1.727200*%
%ADD22C,1.100000*%
%ADD23C,1.600000*%
%ADD24C,2.794000*%
%ADD25C,1.574800*%
%ADD26C,3.649980*%
%ADD27R,1.501140X1.501140*%
%ADD28C,1.501140*%
%ADD29R,1.750000X1.750000*%
%ADD30C,1.750000*%
G04 APERTURE END LIST*
D10*
D11*
X220162000Y-116572000D03*
D12*
X227662000Y-116572000D03*
D13*
X135417500Y-87122000D03*
X133417500Y-93122000D03*
X121217500Y-93122000D03*
X121217500Y-81122000D03*
X133417500Y-81122000D03*
D14*
X112458500Y-63246000D03*
X112458500Y-65786000D03*
X112458500Y-68326000D03*
X120078500Y-68326000D03*
X120078500Y-65786000D03*
X120078500Y-63246000D03*
X235894000Y-144208000D03*
X235894000Y-146748000D03*
X235894000Y-149288000D03*
X243514000Y-149288000D03*
X243514000Y-146748000D03*
X243514000Y-144208000D03*
D15*
X286512000Y-164084000D03*
D16*
X286512000Y-166624000D03*
D14*
X235894000Y-160958000D03*
X235894000Y-163498000D03*
X235894000Y-166038000D03*
X243514000Y-166038000D03*
X243514000Y-163498000D03*
X243514000Y-160958000D03*
X261024000Y-144208000D03*
X261024000Y-146748000D03*
X261024000Y-149288000D03*
X268644000Y-149288000D03*
X268644000Y-146748000D03*
X268644000Y-144208000D03*
X260894000Y-160958000D03*
X260894000Y-163498000D03*
X260894000Y-166038000D03*
X268514000Y-166038000D03*
X268514000Y-163498000D03*
X268514000Y-160958000D03*
D17*
X198064000Y-85076000D03*
X200604000Y-85076000D03*
X199400000Y-123440000D03*
X199400000Y-120900000D03*
X198064000Y-157212000D03*
X200604000Y-157212000D03*
X288544000Y-146304000D03*
X291084000Y-146304000D03*
X288544000Y-150368000D03*
X291084000Y-150368000D03*
X102210000Y-82750000D03*
X104750000Y-82750000D03*
X115316000Y-52324000D03*
X112776000Y-52324000D03*
X128016000Y-52324000D03*
X130556000Y-52324000D03*
X147320000Y-52324000D03*
X149860000Y-52324000D03*
X163068000Y-60960000D03*
X163068000Y-58420000D03*
X137160000Y-52324000D03*
X139700000Y-52324000D03*
X167132000Y-109220000D03*
X164592000Y-109220000D03*
D18*
X287596986Y-127474721D03*
D19*
X290136986Y-127474721D03*
X287596986Y-124934721D03*
X290136986Y-124934721D03*
X287596986Y-122394721D03*
X290136986Y-122394721D03*
X287596986Y-119854721D03*
X290136986Y-119854721D03*
X287596986Y-117314721D03*
X290136986Y-117314721D03*
X287596986Y-114774721D03*
X290136986Y-114774721D03*
X287596986Y-112234721D03*
X290136986Y-112234721D03*
X287596986Y-109694721D03*
X290136986Y-109694721D03*
X287596986Y-107154721D03*
X290136986Y-107154721D03*
X287596986Y-104614721D03*
X290136986Y-104614721D03*
X287596986Y-102074721D03*
X290136986Y-102074721D03*
X287596986Y-99534721D03*
X290136986Y-99534721D03*
X287596986Y-96994721D03*
X290136986Y-96994721D03*
X287596986Y-94454721D03*
X290136986Y-94454721D03*
X287596986Y-91914721D03*
X290136986Y-91914721D03*
X287596986Y-89374721D03*
X290136986Y-89374721D03*
X287596986Y-86834721D03*
X290136986Y-86834721D03*
X287596986Y-84294721D03*
X290136986Y-84294721D03*
X287596986Y-81754721D03*
X290136986Y-81754721D03*
X287596986Y-79214721D03*
X290136986Y-79214721D03*
X287596986Y-76674721D03*
X290136986Y-76674721D03*
X287596986Y-74134721D03*
X290136986Y-74134721D03*
X287596986Y-71594721D03*
X290136986Y-71594721D03*
D18*
X239306986Y-127514722D03*
D19*
X241846986Y-127514722D03*
X239306986Y-124974722D03*
X241846986Y-124974722D03*
X239306986Y-122434722D03*
X241846986Y-122434722D03*
X239306986Y-119894722D03*
X241846986Y-119894722D03*
X239306986Y-117354722D03*
X241846986Y-117354722D03*
X239306986Y-114814722D03*
X241846986Y-114814722D03*
X239306986Y-112274722D03*
X241846986Y-112274722D03*
X239306986Y-109734722D03*
X241846986Y-109734722D03*
X239306986Y-107194722D03*
X241846986Y-107194722D03*
X239306986Y-104654722D03*
X241846986Y-104654722D03*
X239306986Y-102114722D03*
X241846986Y-102114722D03*
X239306986Y-99574722D03*
X241846986Y-99574722D03*
X239306986Y-97034722D03*
X241846986Y-97034722D03*
X239306986Y-94494722D03*
X241846986Y-94494722D03*
X239306986Y-91954722D03*
X241846986Y-91954722D03*
X239306986Y-89414722D03*
X241846986Y-89414722D03*
X239306986Y-86874722D03*
X241846986Y-86874722D03*
X239306986Y-84334722D03*
X241846986Y-84334722D03*
X239306986Y-81794722D03*
X241846986Y-81794722D03*
X239306986Y-79254722D03*
X241846986Y-79254722D03*
X239306986Y-76714722D03*
X241846986Y-76714722D03*
X239306986Y-74174722D03*
X241846986Y-74174722D03*
X239306986Y-71634722D03*
X241846986Y-71634722D03*
D14*
X109728000Y-139700000D03*
X109728000Y-137160000D03*
X109728000Y-134620000D03*
X102108000Y-134620000D03*
X102108000Y-137160000D03*
X102108000Y-139700000D03*
X128524000Y-139700000D03*
X128524000Y-137160000D03*
X128524000Y-134620000D03*
X120904000Y-134620000D03*
X120904000Y-137160000D03*
X120904000Y-139700000D03*
X146812000Y-139700000D03*
X146812000Y-137160000D03*
X146812000Y-134620000D03*
X139192000Y-134620000D03*
X139192000Y-137160000D03*
X139192000Y-139700000D03*
X166116000Y-139700000D03*
X166116000Y-137160000D03*
X166116000Y-134620000D03*
X158496000Y-134620000D03*
X158496000Y-137160000D03*
X158496000Y-139700000D03*
D20*
X125984000Y-117348000D03*
D21*
X125984000Y-119888000D03*
X125984000Y-122428000D03*
D20*
X137668000Y-117320000D03*
D21*
X137668000Y-119860000D03*
X137668000Y-122400000D03*
D20*
X149800000Y-117120000D03*
D21*
X149800000Y-119660000D03*
X149800000Y-122200000D03*
D20*
X160400000Y-117120000D03*
D21*
X160400000Y-119660000D03*
X160400000Y-122200000D03*
D22*
X106362000Y-56882000D03*
D23*
X102362000Y-71882000D03*
X102362000Y-68882000D03*
X102362000Y-65882000D03*
X102362000Y-62882000D03*
X102362000Y-59882000D03*
X105362000Y-71882000D03*
X105362000Y-68882000D03*
X105362000Y-65882000D03*
X105362000Y-62882000D03*
X105362000Y-59882000D03*
D22*
X106302000Y-74882000D03*
D24*
X193085600Y-80504000D03*
X189910600Y-80516700D03*
X196260600Y-80504000D03*
X177210600Y-80504000D03*
X212148300Y-80504000D03*
X177210600Y-61454000D03*
X212135600Y-61454000D03*
X193085600Y-116572000D03*
X189910600Y-116584700D03*
X196260600Y-116572000D03*
X177210600Y-116572000D03*
X212148300Y-116572000D03*
X177210600Y-97522000D03*
X212135600Y-97522000D03*
X193085600Y-152640000D03*
X189910600Y-152652700D03*
X196260600Y-152640000D03*
X177210600Y-152640000D03*
X212148300Y-152640000D03*
X177210600Y-133590000D03*
X212135600Y-133590000D03*
D11*
X221862000Y-80504000D03*
D12*
X229362000Y-80504000D03*
D11*
X219830000Y-151130000D03*
D12*
X227330000Y-151130000D03*
D25*
X106934000Y-128816100D03*
D26*
X109982000Y-115354100D03*
X109982000Y-126784100D03*
D27*
X103632000Y-125514100D03*
D28*
X101092000Y-124244100D03*
X103632000Y-122974100D03*
X101092000Y-121704100D03*
X103632000Y-120434100D03*
X101092000Y-119164100D03*
X103632000Y-117894100D03*
X101092000Y-116624100D03*
D25*
X106934000Y-113322100D03*
D22*
X107200000Y-191200000D03*
D23*
X111200000Y-185200000D03*
X111200000Y-188200000D03*
X108200000Y-185200000D03*
X108200000Y-188200000D03*
D22*
X107260000Y-182200000D03*
D29*
X161000000Y-189000000D03*
D30*
X161000000Y-186500000D03*
D15*
X191000000Y-91000000D03*
D16*
X193540000Y-91000000D03*
D15*
X182200000Y-124200000D03*
D16*
X182200000Y-121660000D03*
D15*
X182600000Y-161340000D03*
D16*
X182600000Y-158800000D03*
D29*
X189400000Y-183000000D03*
D30*
X189400000Y-185500000D03*
X189400000Y-188000000D03*
X189400000Y-190500000D03*
D29*
X176800000Y-183000000D03*
D30*
X176800000Y-185500000D03*
X176800000Y-188000000D03*
X176800000Y-190500000D03*
D22*
X101219500Y-95408000D03*
D23*
X105219500Y-89408000D03*
X105219500Y-92408000D03*
X102219500Y-89408000D03*
X102219500Y-92408000D03*
D22*
X101279500Y-86408000D03*
X140827500Y-99378000D03*
D23*
X143827500Y-103378000D03*
X143827500Y-100378000D03*
D22*
X146827500Y-99438000D03*
X153146500Y-99505000D03*
D23*
X156146500Y-103505000D03*
X156146500Y-100505000D03*
D22*
X159146500Y-99565000D03*
D29*
X104250000Y-101000000D03*
D30*
X104250000Y-103500000D03*
X104250000Y-106000000D03*
X104250000Y-108500000D03*
D22*
X257244000Y-179928000D03*
D23*
X269244000Y-183928000D03*
X266244000Y-183928000D03*
X263244000Y-183928000D03*
X260244000Y-183928000D03*
X269244000Y-180928000D03*
X266244000Y-180928000D03*
X263244000Y-180928000D03*
X260244000Y-180928000D03*
D22*
X272244000Y-179988000D03*
X277244000Y-179928000D03*
D23*
X289244000Y-183928000D03*
X286244000Y-183928000D03*
X283244000Y-183928000D03*
X280244000Y-183928000D03*
X289244000Y-180928000D03*
X286244000Y-180928000D03*
X283244000Y-180928000D03*
X280244000Y-180928000D03*
D22*
X292244000Y-179988000D03*
X117400000Y-173600000D03*
D23*
X105400000Y-169600000D03*
X108400000Y-169600000D03*
X111400000Y-169600000D03*
X114400000Y-169600000D03*
X105400000Y-172600000D03*
X108400000Y-172600000D03*
X111400000Y-172600000D03*
X114400000Y-172600000D03*
D22*
X102400000Y-173540000D03*
D13*
X149150000Y-88250000D03*
X151150000Y-82250000D03*
X163350000Y-82250000D03*
X163350000Y-94250000D03*
X151150000Y-94250000D03*
M02*
