G04 #@! TF.FileFunction,Soldermask,Top*
%FSLAX46Y46*%
G04 Gerber Fmt 4.6, Leading zero omitted, Abs format (unit mm)*
G04 Created by KiCad (PCBNEW 4.0.5+dfsg1-4) date Wed Feb  8 17:15:58 2017*
%MOMM*%
%LPD*%
G01*
G04 APERTURE LIST*
%ADD10C,0.100000*%
%ADD11R,1.300000X1.300000*%
%ADD12C,1.300000*%
%ADD13R,0.700000X0.600000*%
%ADD14C,2.600000*%
%ADD15O,1.600000X1.600000*%
%ADD16R,1.300000X0.700000*%
%ADD17R,1.000000X1.250000*%
%ADD18R,1.250000X1.000000*%
%ADD19R,2.032000X2.032000*%
%ADD20O,2.032000X2.032000*%
%ADD21R,0.800100X0.800100*%
%ADD22R,0.700000X1.300000*%
%ADD23R,0.889000X0.305000*%
%ADD24R,0.450000X1.450000*%
%ADD25R,1.450000X0.450000*%
%ADD26C,1.400000*%
%ADD27R,1.727200X1.727200*%
%ADD28O,1.727200X1.727200*%
%ADD29R,1.600000X1.000000*%
%ADD30R,2.032000X1.727200*%
%ADD31O,2.032000X1.727200*%
%ADD32C,1.100000*%
%ADD33C,1.600000*%
%ADD34R,0.650000X1.060000*%
%ADD35C,2.794000*%
%ADD36R,1.000000X2.500000*%
%ADD37R,0.600000X0.700000*%
%ADD38R,1.597660X1.800860*%
%ADD39R,0.590000X0.450000*%
%ADD40C,1.574800*%
%ADD41C,3.649980*%
%ADD42R,1.501140X1.501140*%
%ADD43C,1.501140*%
%ADD44R,1.750000X1.750000*%
%ADD45C,1.750000*%
%ADD46R,1.000000X3.200000*%
%ADD47R,3.200000X1.000000*%
%ADD48R,0.660400X0.406400*%
G04 APERTURE END LIST*
D10*
D11*
X220162000Y-116572000D03*
D12*
X227662000Y-116572000D03*
D13*
X159000000Y-76200000D03*
X159000000Y-74800000D03*
D14*
X135417500Y-87122000D03*
X133417500Y-93122000D03*
X121217500Y-93122000D03*
X121217500Y-81122000D03*
X133417500Y-81122000D03*
D15*
X112458500Y-63246000D03*
X112458500Y-65786000D03*
X112458500Y-68326000D03*
X120078500Y-68326000D03*
X120078500Y-65786000D03*
X120078500Y-63246000D03*
D16*
X117284500Y-58100000D03*
X117284500Y-56200000D03*
D17*
X203750000Y-180000000D03*
X201750000Y-180000000D03*
X172750000Y-78980000D03*
X170750000Y-78980000D03*
D18*
X213100000Y-86900000D03*
X213100000Y-88900000D03*
D17*
X173156000Y-115048000D03*
X171156000Y-115048000D03*
X173156000Y-118096000D03*
X171156000Y-118096000D03*
X173156000Y-112000000D03*
X171156000Y-112000000D03*
D18*
X213000000Y-122900000D03*
X213000000Y-124900000D03*
D17*
X173156000Y-154164000D03*
X171156000Y-154164000D03*
X173156000Y-151116000D03*
X171156000Y-151116000D03*
X173156000Y-148068000D03*
X171156000Y-148068000D03*
X214300000Y-159200000D03*
X216300000Y-159200000D03*
X278368000Y-152908000D03*
X276368000Y-152908000D03*
D18*
X131000500Y-58277000D03*
X131000500Y-56277000D03*
X155250000Y-74500000D03*
X155250000Y-76500000D03*
X150368000Y-67834000D03*
X150368000Y-69834000D03*
D15*
X235894000Y-144208000D03*
X235894000Y-146748000D03*
X235894000Y-149288000D03*
X243514000Y-149288000D03*
X243514000Y-146748000D03*
X243514000Y-144208000D03*
D19*
X286512000Y-164084000D03*
D20*
X286512000Y-166624000D03*
D21*
X122984260Y-74991000D03*
X122984260Y-73091000D03*
X120985280Y-74041000D03*
X118748980Y-103950000D03*
X118748980Y-102050000D03*
X116750000Y-103000000D03*
X236794000Y-155940760D03*
X238694000Y-155940760D03*
X237744000Y-153941780D03*
D22*
X193050000Y-85076000D03*
X194950000Y-85076000D03*
X193050000Y-157212000D03*
X194950000Y-157212000D03*
D16*
X286004000Y-156906000D03*
X286004000Y-155006000D03*
D22*
X280482000Y-163068000D03*
X282382000Y-163068000D03*
D16*
X279400000Y-145354000D03*
X279400000Y-147254000D03*
X283464000Y-145354000D03*
X283464000Y-147254000D03*
X120840500Y-56200000D03*
X120840500Y-58100000D03*
X126428500Y-70419000D03*
X126428500Y-68519000D03*
X122872500Y-70419000D03*
X122872500Y-68519000D03*
X122872500Y-64455000D03*
X122872500Y-66355000D03*
D22*
X141050000Y-67250000D03*
X142950000Y-67250000D03*
X142999500Y-60706000D03*
X141099500Y-60706000D03*
D16*
X126555500Y-74991000D03*
X126555500Y-73091000D03*
D22*
X151259500Y-62357000D03*
X153159500Y-62357000D03*
X127632500Y-57023000D03*
X125732500Y-57023000D03*
D16*
X134429500Y-58227000D03*
X134429500Y-56327000D03*
X155638500Y-61407000D03*
X155638500Y-63307000D03*
X141224000Y-71694000D03*
X141224000Y-73594000D03*
X117750000Y-106550000D03*
X117750000Y-108450000D03*
X232144000Y-142298000D03*
X232144000Y-144198000D03*
D22*
X271194000Y-148248000D03*
X273094000Y-148248000D03*
D23*
X203732221Y-172807390D03*
X203732221Y-173307390D03*
X203732221Y-173807390D03*
X203732221Y-174307390D03*
X203732221Y-174807390D03*
X203732221Y-175307390D03*
X203732221Y-175807390D03*
X208072221Y-172807390D03*
X208072221Y-173307390D03*
X208072221Y-173807390D03*
X208072221Y-174307390D03*
X208072221Y-174807390D03*
X208072221Y-175307390D03*
X208072221Y-176307390D03*
X208072221Y-175807390D03*
X203732221Y-176307390D03*
D24*
X280457000Y-158906000D03*
X281107000Y-158906000D03*
X281757000Y-158906000D03*
X282407000Y-158906000D03*
X282407000Y-153006000D03*
X281757000Y-153006000D03*
X281107000Y-153006000D03*
X280457000Y-153006000D03*
D18*
X155194000Y-67834000D03*
X155194000Y-69834000D03*
D17*
X246144000Y-167748000D03*
X248144000Y-167748000D03*
X271144000Y-150998000D03*
X273144000Y-150998000D03*
X271144000Y-167748000D03*
X273144000Y-167748000D03*
D15*
X235894000Y-160958000D03*
X235894000Y-163498000D03*
X235894000Y-166038000D03*
X243514000Y-166038000D03*
X243514000Y-163498000D03*
X243514000Y-160958000D03*
X261024000Y-144208000D03*
X261024000Y-146748000D03*
X261024000Y-149288000D03*
X268644000Y-149288000D03*
X268644000Y-146748000D03*
X268644000Y-144208000D03*
X260894000Y-160958000D03*
X260894000Y-163498000D03*
X260894000Y-166038000D03*
X268514000Y-166038000D03*
X268514000Y-163498000D03*
X268514000Y-160958000D03*
D21*
X230694000Y-166996980D03*
X232594000Y-166996980D03*
X231644000Y-164998000D03*
X255694000Y-150248760D03*
X257594000Y-150248760D03*
X256644000Y-148249780D03*
X255694000Y-166998760D03*
X257594000Y-166998760D03*
X256644000Y-164999780D03*
D16*
X150500000Y-74600000D03*
X150500000Y-76500000D03*
X232144000Y-159048000D03*
X232144000Y-160948000D03*
D22*
X241620000Y-154686000D03*
X243520000Y-154686000D03*
X230694000Y-169998000D03*
X232594000Y-169998000D03*
D16*
X257144000Y-142298000D03*
X257144000Y-144198000D03*
X257144000Y-159048000D03*
X257144000Y-160948000D03*
D22*
X255694000Y-153248000D03*
X257594000Y-153248000D03*
X255694000Y-169998000D03*
X257594000Y-169998000D03*
D25*
X131352500Y-63963000D03*
X131352500Y-64613000D03*
X131352500Y-65263000D03*
X131352500Y-65913000D03*
X131352500Y-66563000D03*
X131352500Y-67213000D03*
X131352500Y-67863000D03*
X137252500Y-67863000D03*
X137252500Y-67213000D03*
X137252500Y-66563000D03*
X137252500Y-65913000D03*
X137252500Y-65263000D03*
X137252500Y-64613000D03*
X137252500Y-63963000D03*
D26*
X198064000Y-85076000D03*
X200604000Y-85076000D03*
X199400000Y-123440000D03*
X199400000Y-120900000D03*
X198064000Y-157212000D03*
X200604000Y-157212000D03*
X288544000Y-146304000D03*
X291084000Y-146304000D03*
X288544000Y-150368000D03*
X291084000Y-150368000D03*
X102210000Y-82750000D03*
X104750000Y-82750000D03*
X115316000Y-52324000D03*
X112776000Y-52324000D03*
X128016000Y-52324000D03*
X130556000Y-52324000D03*
X147320000Y-52324000D03*
X149860000Y-52324000D03*
X163068000Y-60960000D03*
X163068000Y-58420000D03*
X137160000Y-52324000D03*
X139700000Y-52324000D03*
X167132000Y-109220000D03*
X164592000Y-109220000D03*
D27*
X287596986Y-127474721D03*
D28*
X290136986Y-127474721D03*
X287596986Y-124934721D03*
X290136986Y-124934721D03*
X287596986Y-122394721D03*
X290136986Y-122394721D03*
X287596986Y-119854721D03*
X290136986Y-119854721D03*
X287596986Y-117314721D03*
X290136986Y-117314721D03*
X287596986Y-114774721D03*
X290136986Y-114774721D03*
X287596986Y-112234721D03*
X290136986Y-112234721D03*
X287596986Y-109694721D03*
X290136986Y-109694721D03*
X287596986Y-107154721D03*
X290136986Y-107154721D03*
X287596986Y-104614721D03*
X290136986Y-104614721D03*
X287596986Y-102074721D03*
X290136986Y-102074721D03*
X287596986Y-99534721D03*
X290136986Y-99534721D03*
X287596986Y-96994721D03*
X290136986Y-96994721D03*
X287596986Y-94454721D03*
X290136986Y-94454721D03*
X287596986Y-91914721D03*
X290136986Y-91914721D03*
X287596986Y-89374721D03*
X290136986Y-89374721D03*
X287596986Y-86834721D03*
X290136986Y-86834721D03*
X287596986Y-84294721D03*
X290136986Y-84294721D03*
X287596986Y-81754721D03*
X290136986Y-81754721D03*
X287596986Y-79214721D03*
X290136986Y-79214721D03*
X287596986Y-76674721D03*
X290136986Y-76674721D03*
X287596986Y-74134721D03*
X290136986Y-74134721D03*
X287596986Y-71594721D03*
X290136986Y-71594721D03*
D27*
X239306986Y-127514722D03*
D28*
X241846986Y-127514722D03*
X239306986Y-124974722D03*
X241846986Y-124974722D03*
X239306986Y-122434722D03*
X241846986Y-122434722D03*
X239306986Y-119894722D03*
X241846986Y-119894722D03*
X239306986Y-117354722D03*
X241846986Y-117354722D03*
X239306986Y-114814722D03*
X241846986Y-114814722D03*
X239306986Y-112274722D03*
X241846986Y-112274722D03*
X239306986Y-109734722D03*
X241846986Y-109734722D03*
X239306986Y-107194722D03*
X241846986Y-107194722D03*
X239306986Y-104654722D03*
X241846986Y-104654722D03*
X239306986Y-102114722D03*
X241846986Y-102114722D03*
X239306986Y-99574722D03*
X241846986Y-99574722D03*
X239306986Y-97034722D03*
X241846986Y-97034722D03*
X239306986Y-94494722D03*
X241846986Y-94494722D03*
X239306986Y-91954722D03*
X241846986Y-91954722D03*
X239306986Y-89414722D03*
X241846986Y-89414722D03*
X239306986Y-86874722D03*
X241846986Y-86874722D03*
X239306986Y-84334722D03*
X241846986Y-84334722D03*
X239306986Y-81794722D03*
X241846986Y-81794722D03*
X239306986Y-79254722D03*
X241846986Y-79254722D03*
X239306986Y-76714722D03*
X241846986Y-76714722D03*
X239306986Y-74174722D03*
X241846986Y-74174722D03*
X239306986Y-71634722D03*
X241846986Y-71634722D03*
D17*
X246144000Y-150998000D03*
X248144000Y-150998000D03*
D16*
X163250000Y-105700000D03*
X163250000Y-103800000D03*
D22*
X246194000Y-148248000D03*
X248094000Y-148248000D03*
X246194000Y-164998000D03*
X248094000Y-164998000D03*
X271194000Y-164998000D03*
X273094000Y-164998000D03*
D29*
X132651500Y-71144000D03*
X132651500Y-74144000D03*
D15*
X109728000Y-139700000D03*
X109728000Y-137160000D03*
X109728000Y-134620000D03*
X102108000Y-134620000D03*
X102108000Y-137160000D03*
X102108000Y-139700000D03*
X128524000Y-139700000D03*
X128524000Y-137160000D03*
X128524000Y-134620000D03*
X120904000Y-134620000D03*
X120904000Y-137160000D03*
X120904000Y-139700000D03*
X146812000Y-139700000D03*
X146812000Y-137160000D03*
X146812000Y-134620000D03*
X139192000Y-134620000D03*
X139192000Y-137160000D03*
X139192000Y-139700000D03*
X166116000Y-139700000D03*
X166116000Y-137160000D03*
X166116000Y-134620000D03*
X158496000Y-134620000D03*
X158496000Y-137160000D03*
X158496000Y-139700000D03*
D30*
X125984000Y-117348000D03*
D31*
X125984000Y-119888000D03*
X125984000Y-122428000D03*
D30*
X137668000Y-117320000D03*
D31*
X137668000Y-119860000D03*
X137668000Y-122400000D03*
D30*
X149800000Y-117120000D03*
D31*
X149800000Y-119660000D03*
X149800000Y-122200000D03*
D30*
X160400000Y-117120000D03*
D31*
X160400000Y-119660000D03*
X160400000Y-122200000D03*
D32*
X106362000Y-56882000D03*
D33*
X102362000Y-71882000D03*
X102362000Y-68882000D03*
X102362000Y-65882000D03*
X102362000Y-62882000D03*
X102362000Y-59882000D03*
X105362000Y-71882000D03*
X105362000Y-68882000D03*
X105362000Y-65882000D03*
X105362000Y-62882000D03*
X105362000Y-59882000D03*
D32*
X106302000Y-74882000D03*
D21*
X188986000Y-159228760D03*
X190886000Y-159228760D03*
X189936000Y-157229780D03*
X107172760Y-151826000D03*
X107172760Y-149926000D03*
X105173780Y-150876000D03*
X125430280Y-151800600D03*
X125430280Y-149900600D03*
X123431300Y-150850600D03*
X143748760Y-151826000D03*
X143748760Y-149926000D03*
X141749780Y-150876000D03*
X163052760Y-151826000D03*
X163052760Y-149926000D03*
X161053780Y-150876000D03*
D22*
X142999500Y-63246000D03*
X141099500Y-63246000D03*
D16*
X148399500Y-61534000D03*
X148399500Y-63434000D03*
X126047500Y-106619000D03*
X126047500Y-108519000D03*
X134810500Y-106619000D03*
X134810500Y-108519000D03*
X167830500Y-103698000D03*
X167830500Y-105598000D03*
X113792000Y-141666000D03*
X113792000Y-139766000D03*
X132080000Y-141666000D03*
X132080000Y-139766000D03*
D22*
X105222000Y-154432000D03*
X107122000Y-154432000D03*
X123510000Y-154432000D03*
X125410000Y-154432000D03*
D16*
X150368000Y-141666000D03*
X150368000Y-139766000D03*
X170180000Y-141666000D03*
X170180000Y-139766000D03*
D22*
X141798000Y-154432000D03*
X143698000Y-154432000D03*
X161102000Y-154432000D03*
X163002000Y-154432000D03*
D34*
X112524500Y-58250000D03*
X113474500Y-58250000D03*
X114424500Y-58250000D03*
X114424500Y-56050000D03*
X112524500Y-56050000D03*
X113474500Y-56050000D03*
D22*
X193050000Y-121144000D03*
X194950000Y-121144000D03*
D17*
X173156000Y-157212000D03*
X171156000Y-157212000D03*
X173156000Y-121144000D03*
X171156000Y-121144000D03*
D35*
X193085600Y-80504000D03*
X189910600Y-80516700D03*
X196260600Y-80504000D03*
X177210600Y-80504000D03*
X212148300Y-80504000D03*
X177210600Y-61454000D03*
X212135600Y-61454000D03*
X193085600Y-116572000D03*
X189910600Y-116584700D03*
X196260600Y-116572000D03*
X177210600Y-116572000D03*
X212148300Y-116572000D03*
X177210600Y-97522000D03*
X212135600Y-97522000D03*
X193085600Y-152640000D03*
X189910600Y-152652700D03*
X196260600Y-152640000D03*
X177210600Y-152640000D03*
X212148300Y-152640000D03*
X177210600Y-133590000D03*
X212135600Y-133590000D03*
D36*
X173656000Y-82028000D03*
X170656000Y-82028000D03*
D11*
X221862000Y-80504000D03*
D12*
X229362000Y-80504000D03*
D11*
X219830000Y-151130000D03*
D12*
X227330000Y-151130000D03*
D18*
X136207500Y-71644000D03*
X136207500Y-73644000D03*
D37*
X160550000Y-176250000D03*
X161950000Y-176250000D03*
X156500000Y-176250000D03*
X157900000Y-176250000D03*
X160600000Y-180250000D03*
X162000000Y-180250000D03*
D13*
X117500000Y-74900000D03*
X117500000Y-73500000D03*
D37*
X141540000Y-56388000D03*
X142940000Y-56388000D03*
D38*
X151297640Y-58039000D03*
X154137360Y-58039000D03*
X160919860Y-109250000D03*
X158080140Y-109250000D03*
D39*
X144710000Y-76600000D03*
X142600000Y-76600000D03*
D40*
X106934000Y-128816100D03*
D41*
X109982000Y-115354100D03*
X109982000Y-126784100D03*
D42*
X103632000Y-125514100D03*
D43*
X101092000Y-124244100D03*
X103632000Y-122974100D03*
X101092000Y-121704100D03*
X103632000Y-120434100D03*
X101092000Y-119164100D03*
X103632000Y-117894100D03*
X101092000Y-116624100D03*
D40*
X106934000Y-113322100D03*
D32*
X107200000Y-191200000D03*
D33*
X111200000Y-185200000D03*
X111200000Y-188200000D03*
X108200000Y-185200000D03*
X108200000Y-188200000D03*
D32*
X107260000Y-182200000D03*
D44*
X161000000Y-189000000D03*
D45*
X161000000Y-186500000D03*
D19*
X191000000Y-91000000D03*
D20*
X193540000Y-91000000D03*
D19*
X182200000Y-124200000D03*
D20*
X182200000Y-121660000D03*
D19*
X182600000Y-161340000D03*
D20*
X182600000Y-158800000D03*
D44*
X189400000Y-183000000D03*
D45*
X189400000Y-185500000D03*
X189400000Y-188000000D03*
X189400000Y-190500000D03*
D44*
X176800000Y-183000000D03*
D45*
X176800000Y-185500000D03*
X176800000Y-188000000D03*
X176800000Y-190500000D03*
D32*
X101219500Y-95408000D03*
D33*
X105219500Y-89408000D03*
X105219500Y-92408000D03*
X102219500Y-89408000D03*
X102219500Y-92408000D03*
D32*
X101279500Y-86408000D03*
X140827500Y-99378000D03*
D33*
X143827500Y-103378000D03*
X143827500Y-100378000D03*
D32*
X146827500Y-99438000D03*
X153146500Y-99505000D03*
D33*
X156146500Y-103505000D03*
X156146500Y-100505000D03*
D32*
X159146500Y-99565000D03*
D44*
X104250000Y-101000000D03*
D45*
X104250000Y-103500000D03*
X104250000Y-106000000D03*
X104250000Y-108500000D03*
D32*
X257244000Y-179928000D03*
D33*
X269244000Y-183928000D03*
X266244000Y-183928000D03*
X263244000Y-183928000D03*
X260244000Y-183928000D03*
X269244000Y-180928000D03*
X266244000Y-180928000D03*
X263244000Y-180928000D03*
X260244000Y-180928000D03*
D32*
X272244000Y-179988000D03*
X277244000Y-179928000D03*
D33*
X289244000Y-183928000D03*
X286244000Y-183928000D03*
X283244000Y-183928000D03*
X280244000Y-183928000D03*
X289244000Y-180928000D03*
X286244000Y-180928000D03*
X283244000Y-180928000D03*
X280244000Y-180928000D03*
D32*
X292244000Y-179988000D03*
X117400000Y-173600000D03*
D33*
X105400000Y-169600000D03*
X108400000Y-169600000D03*
X111400000Y-169600000D03*
X114400000Y-169600000D03*
X105400000Y-172600000D03*
X108400000Y-172600000D03*
X111400000Y-172600000D03*
X114400000Y-172600000D03*
D32*
X102400000Y-173540000D03*
D21*
X225550000Y-96250760D03*
X227450000Y-96250760D03*
X226500000Y-94251780D03*
X127048260Y-103947000D03*
X127048260Y-102047000D03*
X125049280Y-102997000D03*
X135811260Y-103947000D03*
X135811260Y-102047000D03*
X133812280Y-102997000D03*
X165050000Y-90500760D03*
X166950000Y-90500760D03*
X166000000Y-88501780D03*
D46*
X203900000Y-85600000D03*
X210100000Y-85600000D03*
X203900000Y-121600000D03*
X210100000Y-121600000D03*
D47*
X207000000Y-157150000D03*
X207000000Y-163350000D03*
D16*
X215600000Y-123150000D03*
X215600000Y-125050000D03*
X216200000Y-169300000D03*
X216200000Y-167400000D03*
X212000000Y-169300000D03*
X212000000Y-167400000D03*
X216200000Y-165350000D03*
X216200000Y-163450000D03*
D22*
X197300000Y-170600000D03*
X199200000Y-170600000D03*
D16*
X200750000Y-161800000D03*
X200750000Y-163700000D03*
D22*
X216050000Y-173000000D03*
X217950000Y-173000000D03*
D16*
X212000000Y-165300000D03*
X212000000Y-163400000D03*
X286750000Y-142200000D03*
X286750000Y-140300000D03*
D22*
X126450000Y-99250000D03*
X124550000Y-99250000D03*
X118700000Y-99250000D03*
X116800000Y-99250000D03*
X135700000Y-99250000D03*
X133800000Y-99250000D03*
D16*
X126000000Y-126450000D03*
X126000000Y-128350000D03*
X137600000Y-126450000D03*
X137600000Y-128350000D03*
X149800000Y-126500000D03*
X149800000Y-128400000D03*
X160500000Y-126800000D03*
X160500000Y-128700000D03*
D46*
X228000000Y-188400000D03*
X228000000Y-181600000D03*
X224000000Y-181600000D03*
X224000000Y-188400000D03*
X218000000Y-188400000D03*
X218000000Y-181600000D03*
X214000000Y-181600000D03*
X214000000Y-188400000D03*
X248000000Y-188400000D03*
X248000000Y-181600000D03*
X244000000Y-181600000D03*
X244000000Y-188400000D03*
X238000000Y-188400000D03*
X238000000Y-181600000D03*
X234000000Y-181600000D03*
X234000000Y-188400000D03*
X113000000Y-148600000D03*
X113000000Y-155400000D03*
X117000000Y-155400000D03*
X117000000Y-148600000D03*
X131000000Y-148600000D03*
X131000000Y-155400000D03*
X135000000Y-155400000D03*
X135000000Y-148600000D03*
X149000000Y-148600000D03*
X149000000Y-155400000D03*
X153000000Y-155400000D03*
X153000000Y-148600000D03*
D47*
X165400000Y-161000000D03*
X158600000Y-161000000D03*
X158600000Y-165000000D03*
X165400000Y-165000000D03*
D48*
X128016000Y-61660400D03*
X128016000Y-60339600D03*
X128016000Y-61000000D03*
X125984000Y-60339600D03*
X125984000Y-61660400D03*
D14*
X149150000Y-88250000D03*
X151150000Y-82250000D03*
X163350000Y-82250000D03*
X163350000Y-94250000D03*
X151150000Y-94250000D03*
M02*
