G04 #@! TF.FileFunction,Paste,Top*
%FSLAX46Y46*%
G04 Gerber Fmt 4.6, Leading zero omitted, Abs format (unit mm)*
G04 Created by KiCad (PCBNEW 4.0.5+dfsg1-4) date Wed Feb  8 17:15:58 2017*
%MOMM*%
%LPD*%
G01*
G04 APERTURE LIST*
%ADD10C,0.100000*%
%ADD11R,0.700000X0.600000*%
%ADD12R,1.300000X0.700000*%
%ADD13R,1.000000X1.250000*%
%ADD14R,1.250000X1.000000*%
%ADD15R,0.800100X0.800100*%
%ADD16R,0.700000X1.300000*%
%ADD17R,0.889000X0.305000*%
%ADD18R,0.450000X1.450000*%
%ADD19R,1.450000X0.450000*%
%ADD20R,1.600000X1.000000*%
%ADD21R,0.650000X1.060000*%
%ADD22R,1.000000X2.500000*%
%ADD23R,0.600000X0.700000*%
%ADD24R,1.597660X1.800860*%
%ADD25R,0.590000X0.450000*%
%ADD26R,1.000000X3.200000*%
%ADD27R,3.200000X1.000000*%
%ADD28R,0.660400X0.406400*%
G04 APERTURE END LIST*
D10*
D11*
X159000000Y-76200000D03*
X159000000Y-74800000D03*
D12*
X117284500Y-58100000D03*
X117284500Y-56200000D03*
D13*
X203750000Y-180000000D03*
X201750000Y-180000000D03*
X172750000Y-78980000D03*
X170750000Y-78980000D03*
D14*
X213100000Y-86900000D03*
X213100000Y-88900000D03*
D13*
X173156000Y-115048000D03*
X171156000Y-115048000D03*
X173156000Y-118096000D03*
X171156000Y-118096000D03*
X173156000Y-112000000D03*
X171156000Y-112000000D03*
D14*
X213000000Y-122900000D03*
X213000000Y-124900000D03*
D13*
X173156000Y-154164000D03*
X171156000Y-154164000D03*
X173156000Y-151116000D03*
X171156000Y-151116000D03*
X173156000Y-148068000D03*
X171156000Y-148068000D03*
X214300000Y-159200000D03*
X216300000Y-159200000D03*
X278368000Y-152908000D03*
X276368000Y-152908000D03*
D14*
X131000500Y-58277000D03*
X131000500Y-56277000D03*
X155250000Y-74500000D03*
X155250000Y-76500000D03*
X150368000Y-67834000D03*
X150368000Y-69834000D03*
D15*
X122984260Y-74991000D03*
X122984260Y-73091000D03*
X120985280Y-74041000D03*
X118748980Y-103950000D03*
X118748980Y-102050000D03*
X116750000Y-103000000D03*
X236794000Y-155940760D03*
X238694000Y-155940760D03*
X237744000Y-153941780D03*
D16*
X193050000Y-85076000D03*
X194950000Y-85076000D03*
X193050000Y-157212000D03*
X194950000Y-157212000D03*
D12*
X286004000Y-156906000D03*
X286004000Y-155006000D03*
D16*
X280482000Y-163068000D03*
X282382000Y-163068000D03*
D12*
X279400000Y-145354000D03*
X279400000Y-147254000D03*
X283464000Y-145354000D03*
X283464000Y-147254000D03*
X120840500Y-56200000D03*
X120840500Y-58100000D03*
X126428500Y-70419000D03*
X126428500Y-68519000D03*
X122872500Y-70419000D03*
X122872500Y-68519000D03*
X122872500Y-64455000D03*
X122872500Y-66355000D03*
D16*
X141050000Y-67250000D03*
X142950000Y-67250000D03*
X142999500Y-60706000D03*
X141099500Y-60706000D03*
D12*
X126555500Y-74991000D03*
X126555500Y-73091000D03*
D16*
X151259500Y-62357000D03*
X153159500Y-62357000D03*
X127632500Y-57023000D03*
X125732500Y-57023000D03*
D12*
X134429500Y-58227000D03*
X134429500Y-56327000D03*
X155638500Y-61407000D03*
X155638500Y-63307000D03*
X141224000Y-71694000D03*
X141224000Y-73594000D03*
X117750000Y-106550000D03*
X117750000Y-108450000D03*
X232144000Y-142298000D03*
X232144000Y-144198000D03*
D16*
X271194000Y-148248000D03*
X273094000Y-148248000D03*
D17*
X203732221Y-172807390D03*
X203732221Y-173307390D03*
X203732221Y-173807390D03*
X203732221Y-174307390D03*
X203732221Y-174807390D03*
X203732221Y-175307390D03*
X203732221Y-175807390D03*
X208072221Y-172807390D03*
X208072221Y-173307390D03*
X208072221Y-173807390D03*
X208072221Y-174307390D03*
X208072221Y-174807390D03*
X208072221Y-175307390D03*
X208072221Y-176307390D03*
X208072221Y-175807390D03*
X203732221Y-176307390D03*
D18*
X280457000Y-158906000D03*
X281107000Y-158906000D03*
X281757000Y-158906000D03*
X282407000Y-158906000D03*
X282407000Y-153006000D03*
X281757000Y-153006000D03*
X281107000Y-153006000D03*
X280457000Y-153006000D03*
D14*
X155194000Y-67834000D03*
X155194000Y-69834000D03*
D13*
X246144000Y-167748000D03*
X248144000Y-167748000D03*
X271144000Y-150998000D03*
X273144000Y-150998000D03*
X271144000Y-167748000D03*
X273144000Y-167748000D03*
D15*
X230694000Y-166996980D03*
X232594000Y-166996980D03*
X231644000Y-164998000D03*
X255694000Y-150248760D03*
X257594000Y-150248760D03*
X256644000Y-148249780D03*
X255694000Y-166998760D03*
X257594000Y-166998760D03*
X256644000Y-164999780D03*
D12*
X150500000Y-74600000D03*
X150500000Y-76500000D03*
X232144000Y-159048000D03*
X232144000Y-160948000D03*
D16*
X241620000Y-154686000D03*
X243520000Y-154686000D03*
X230694000Y-169998000D03*
X232594000Y-169998000D03*
D12*
X257144000Y-142298000D03*
X257144000Y-144198000D03*
X257144000Y-159048000D03*
X257144000Y-160948000D03*
D16*
X255694000Y-153248000D03*
X257594000Y-153248000D03*
X255694000Y-169998000D03*
X257594000Y-169998000D03*
D19*
X131352500Y-63963000D03*
X131352500Y-64613000D03*
X131352500Y-65263000D03*
X131352500Y-65913000D03*
X131352500Y-66563000D03*
X131352500Y-67213000D03*
X131352500Y-67863000D03*
X137252500Y-67863000D03*
X137252500Y-67213000D03*
X137252500Y-66563000D03*
X137252500Y-65913000D03*
X137252500Y-65263000D03*
X137252500Y-64613000D03*
X137252500Y-63963000D03*
D13*
X246144000Y-150998000D03*
X248144000Y-150998000D03*
D12*
X163250000Y-105700000D03*
X163250000Y-103800000D03*
D16*
X246194000Y-148248000D03*
X248094000Y-148248000D03*
X246194000Y-164998000D03*
X248094000Y-164998000D03*
X271194000Y-164998000D03*
X273094000Y-164998000D03*
D20*
X132651500Y-71144000D03*
X132651500Y-74144000D03*
D15*
X188986000Y-159228760D03*
X190886000Y-159228760D03*
X189936000Y-157229780D03*
X107172760Y-151826000D03*
X107172760Y-149926000D03*
X105173780Y-150876000D03*
X125430280Y-151800600D03*
X125430280Y-149900600D03*
X123431300Y-150850600D03*
X143748760Y-151826000D03*
X143748760Y-149926000D03*
X141749780Y-150876000D03*
X163052760Y-151826000D03*
X163052760Y-149926000D03*
X161053780Y-150876000D03*
D16*
X142999500Y-63246000D03*
X141099500Y-63246000D03*
D12*
X148399500Y-61534000D03*
X148399500Y-63434000D03*
X126047500Y-106619000D03*
X126047500Y-108519000D03*
X134810500Y-106619000D03*
X134810500Y-108519000D03*
X167830500Y-103698000D03*
X167830500Y-105598000D03*
X113792000Y-141666000D03*
X113792000Y-139766000D03*
X132080000Y-141666000D03*
X132080000Y-139766000D03*
D16*
X105222000Y-154432000D03*
X107122000Y-154432000D03*
X123510000Y-154432000D03*
X125410000Y-154432000D03*
D12*
X150368000Y-141666000D03*
X150368000Y-139766000D03*
X170180000Y-141666000D03*
X170180000Y-139766000D03*
D16*
X141798000Y-154432000D03*
X143698000Y-154432000D03*
X161102000Y-154432000D03*
X163002000Y-154432000D03*
D21*
X112524500Y-58250000D03*
X113474500Y-58250000D03*
X114424500Y-58250000D03*
X114424500Y-56050000D03*
X112524500Y-56050000D03*
X113474500Y-56050000D03*
D16*
X193050000Y-121144000D03*
X194950000Y-121144000D03*
D13*
X173156000Y-157212000D03*
X171156000Y-157212000D03*
X173156000Y-121144000D03*
X171156000Y-121144000D03*
D22*
X173656000Y-82028000D03*
X170656000Y-82028000D03*
D14*
X136207500Y-71644000D03*
X136207500Y-73644000D03*
D23*
X160550000Y-176250000D03*
X161950000Y-176250000D03*
X156500000Y-176250000D03*
X157900000Y-176250000D03*
X160600000Y-180250000D03*
X162000000Y-180250000D03*
D11*
X117500000Y-74900000D03*
X117500000Y-73500000D03*
D23*
X141540000Y-56388000D03*
X142940000Y-56388000D03*
D24*
X151297640Y-58039000D03*
X154137360Y-58039000D03*
X160919860Y-109250000D03*
X158080140Y-109250000D03*
D25*
X144710000Y-76600000D03*
X142600000Y-76600000D03*
D15*
X225550000Y-96250760D03*
X227450000Y-96250760D03*
X226500000Y-94251780D03*
X127048260Y-103947000D03*
X127048260Y-102047000D03*
X125049280Y-102997000D03*
X135811260Y-103947000D03*
X135811260Y-102047000D03*
X133812280Y-102997000D03*
X165050000Y-90500760D03*
X166950000Y-90500760D03*
X166000000Y-88501780D03*
D26*
X203900000Y-85600000D03*
X210100000Y-85600000D03*
X203900000Y-121600000D03*
X210100000Y-121600000D03*
D27*
X207000000Y-157150000D03*
X207000000Y-163350000D03*
D12*
X215600000Y-123150000D03*
X215600000Y-125050000D03*
X216200000Y-169300000D03*
X216200000Y-167400000D03*
X212000000Y-169300000D03*
X212000000Y-167400000D03*
X216200000Y-165350000D03*
X216200000Y-163450000D03*
D16*
X197300000Y-170600000D03*
X199200000Y-170600000D03*
D12*
X200750000Y-161800000D03*
X200750000Y-163700000D03*
D16*
X216050000Y-173000000D03*
X217950000Y-173000000D03*
D12*
X212000000Y-165300000D03*
X212000000Y-163400000D03*
X286750000Y-142200000D03*
X286750000Y-140300000D03*
D16*
X126450000Y-99250000D03*
X124550000Y-99250000D03*
X118700000Y-99250000D03*
X116800000Y-99250000D03*
X135700000Y-99250000D03*
X133800000Y-99250000D03*
D12*
X126000000Y-126450000D03*
X126000000Y-128350000D03*
X137600000Y-126450000D03*
X137600000Y-128350000D03*
X149800000Y-126500000D03*
X149800000Y-128400000D03*
X160500000Y-126800000D03*
X160500000Y-128700000D03*
D26*
X228000000Y-188400000D03*
X228000000Y-181600000D03*
X224000000Y-181600000D03*
X224000000Y-188400000D03*
X218000000Y-188400000D03*
X218000000Y-181600000D03*
X214000000Y-181600000D03*
X214000000Y-188400000D03*
X248000000Y-188400000D03*
X248000000Y-181600000D03*
X244000000Y-181600000D03*
X244000000Y-188400000D03*
X238000000Y-188400000D03*
X238000000Y-181600000D03*
X234000000Y-181600000D03*
X234000000Y-188400000D03*
X113000000Y-148600000D03*
X113000000Y-155400000D03*
X117000000Y-155400000D03*
X117000000Y-148600000D03*
X131000000Y-148600000D03*
X131000000Y-155400000D03*
X135000000Y-155400000D03*
X135000000Y-148600000D03*
X149000000Y-148600000D03*
X149000000Y-155400000D03*
X153000000Y-155400000D03*
X153000000Y-148600000D03*
D27*
X165400000Y-161000000D03*
X158600000Y-161000000D03*
X158600000Y-165000000D03*
X165400000Y-165000000D03*
D28*
X128016000Y-61660400D03*
X128016000Y-60339600D03*
X128016000Y-61000000D03*
X125984000Y-60339600D03*
X125984000Y-61660400D03*
M02*
