M48
INCH,TZ
T1C0.012
T2C0.015
T3C0.025
T4C0.031
T5C0.032
T6C0.035
T7C0.035
T8C0.039
T9C0.040
T10C0.043
T11C0.051
T12C0.065
T13C0.085
%
G90
G05
T1
X37598Y-19488
X37598Y-23425
X37598Y-27461
X37598Y-31398
X37598Y-35433
X37598Y-39862
X37598Y-43799
X37598Y-47736
X37598Y-51772
X37598Y-55807
X37598Y-59843
X37598Y-63878
X37598Y-67815
X37598Y-72539
X39469Y-76969
X39488Y-64449
X40354Y-57480
X41063Y-43701
X41181Y-72913
X41181Y-74094
X41535Y-18996
X42087Y-43465
X42244Y-42717
X42677Y-65315
X42677Y-69370
X42874Y-26850
X42913Y-23622
X43209Y-63091
X43268Y-25394
X43406Y-76969
X43661Y-71693
X43661Y-75236
X43701Y-31890
X43780Y-22874
X43898Y-36909
X45039Y-65315
X45039Y-69370
X45079Y-25984
X45354Y-42717
X45472Y-18996
X45709Y-66142
X45709Y-68504
X45906Y-47913
X46378Y-26929
X46378Y-43465
X47343Y-76969
X47402Y-42717
X47598Y-57126
X47992Y-66339
X49016Y-68996
X49311Y-18996
X49449Y-28228
X49606Y-43465
X50551Y-42717
X50630Y-47795
X50827Y-28465
X51280Y-76969
X51850Y-29764
X51969Y-69291
X52244Y-29764
X52264Y-75591
X52283Y-22717
X52638Y-29764
X52756Y-25591
X52913Y-21299
X53150Y-18996
X53228Y-29646
X53622Y-29646
X53701Y-22598
X54016Y-29646
X54016Y-42717
X54094Y-64567
X54921Y-28976
X55079Y-29409
X55197Y-47835
X55217Y-76969
X55591Y-29409
X55748Y-30472
X55906Y-34350
X56102Y-44843
X56142Y-30787
X56693Y-69685
X56969Y-63701
X56988Y-18996
X57382Y-36811
X57756Y-42677
X58780Y-28110
X59016Y-21417
X59154Y-76969
X59213Y-28110
X59646Y-28110
X59843Y-20591
X60354Y-30118
X60433Y-27480
X60591Y-44606
X60827Y-18996
X61102Y-30945
X61417Y-22402
X61417Y-22835
X61417Y-23307
X61811Y-27480
X61890Y-24921
X61969Y-30118
X63091Y-76969
X63425Y-22992
X64213Y-21969
X64665Y-18996
X65197Y-22992
X65650Y-38878
X65945Y-28839
X66142Y-74114
X66240Y-69587
X66339Y-35728
X66535Y-31102
X66535Y-31850
X66535Y-32283
X66535Y-32717
X66693Y-57756
X66693Y-58307
X66693Y-58858
X66693Y-59488
X66693Y-60079
X66693Y-60709
X66693Y-61299
X66693Y-61890
X66693Y-62559
X66732Y-44094
X66732Y-44685
X66732Y-45276
X66732Y-45866
X66732Y-46496
X66732Y-47087
X66732Y-47677
X66732Y-48189
X67028Y-76969
X67165Y-33228
X67323Y-43209
X67362Y-30315
X68504Y-18996
X70965Y-76969
X71161Y-61417
X71752Y-66240
X71890Y-61378
X72008Y-28346
X72146Y-46358
X72343Y-18996
X72736Y-33268
X72835Y-61614
X73819Y-42677
X74685Y-50591
X74902Y-76969
X75000Y-22126
X75157Y-55433
X75591Y-68701
X75709Y-66535
X76181Y-18996
X76181Y-34803
X76181Y-36890
X76772Y-32795
X76772Y-34213
X76772Y-61102
X76772Y-62638
X76772Y-62638
X77126Y-40236
X77205Y-35827
X77992Y-34213
X78465Y-52283
X78819Y-55551
X78839Y-76969
X79528Y-74331
X80000Y-29213
X80000Y-35787
X80020Y-18996
X80118Y-38583
X80157Y-44055
X81339Y-20906
X81929Y-37441
X82000Y-40000
X82100Y-24200
X82700Y-51700
X82700Y-53500
X82776Y-76969
X83071Y-54000
X83110Y-35000
X83110Y-49173
X83307Y-49685
X83346Y-35512
X83500Y-51300
X83504Y-71496
X83504Y-74173
X83858Y-18996
X83858Y-18996
X83858Y-49843
X83898Y-35630
X84252Y-64370
X84300Y-51700
X84331Y-49843
X84488Y-65472
X84500Y-37800
X84500Y-53700
X84528Y-35512
X84724Y-35000
X84900Y-24200
X85079Y-63819
X85197Y-63307
X85748Y-63189
X85945Y-62677
X86713Y-76969
X86811Y-41142
X87441Y-71496
X87441Y-74173
X87795Y-18996
X88600Y-59500
X88780Y-22441
X88928Y-45906
X89165Y-45394
X89165Y-46417
X89400Y-31700
X89500Y-58600
X89500Y-60400
X89567Y-41437
X89637Y-45118
X89700Y-31000
X89700Y-32300
X89764Y-38425
X90197Y-37598
X90197Y-38071
X90300Y-30600
X90300Y-32700
X90650Y-76969
X90748Y-75906
X90846Y-53150
X91339Y-71496
X91339Y-74173
X91535Y-61122
X91732Y-18996
X92047Y-68780
X92224Y-59154
X93150Y-49606
X93150Y-50197
X93150Y-50827
X93661Y-51260
X94094Y-21102
X94213Y-51260
X94587Y-76969
X94764Y-51260
X95236Y-51260
X95276Y-71496
X95276Y-74173
X95669Y-18996
X96299Y-50197
X96400Y-60900
X97756Y-23976
X98031Y-68799
X98425Y-58366
X98425Y-59449
X98524Y-76969
X98819Y-53937
X99567Y-74724
X99606Y-18996
X100315Y-35236
X100591Y-22933
X100591Y-26870
X100591Y-29823
X100630Y-39055
X101417Y-66299
X101417Y-67638
X101476Y-61122
X101969Y-59154
X101969Y-60335
X101969Y-65748
X101969Y-66929
X102461Y-76969
X103543Y-42913
X104528Y-29823
X104921Y-38425
X106398Y-76969
X106654Y-47008
X107520Y-57559
X107520Y-64094
X108031Y-60197
X108307Y-58346
X108307Y-59449
X108386Y-64961
X108386Y-66024
X108465Y-29823
X108819Y-60945
X109134Y-44055
X109449Y-22933
X109449Y-26870
X110335Y-76969
X110433Y-19980
X111496Y-23386
X111850Y-65591
X111969Y-50197
X111969Y-50748
X112165Y-51220
X112165Y-68583
X112362Y-74803
X112677Y-51417
X113189Y-19291
X113228Y-51417
X113740Y-51417
X113858Y-65591
X114094Y-24567
X114213Y-51417
X114272Y-76969
X114331Y-20984
X114764Y-51417
X115433Y-59213
X115472Y-57598
X116142Y-23228
X116142Y-27165
X116142Y-31102
X116142Y-35039
X116142Y-38976
X116142Y-42913
X116142Y-46850
X116142Y-50787
X116142Y-54724
X116142Y-58661
X116142Y-62598
X116142Y-66535
X116142Y-70472
X116142Y-74409
T2
X39019Y-43400
X39400Y-44800
X41000Y-29000
X41100Y-62400
X41827Y-58197
X42200Y-48200
X43150Y-59134
X43500Y-22100
X44500Y-23800
X45276Y-40551
X45571Y-56004
X45866Y-24705
X46260Y-23425
X46260Y-28445
X47343Y-61909
X48327Y-38681
X48400Y-45200
X48622Y-40551
X48700Y-22400
X48700Y-43000
X48800Y-41600
X49016Y-26378
X49016Y-26969
X49016Y-27756
X49016Y-29528
X49102Y-25405
X49192Y-58292
X50000Y-60400
X50279Y-26280
X50394Y-24705
X50444Y-21651
X50787Y-26378
X51181Y-23622
X51673Y-24409
X51800Y-43100
X51870Y-39075
X51969Y-56220
X52165Y-40551
X52264Y-22146
X52362Y-27362
X52800Y-43500
X53800Y-24400
X54000Y-27390
X54000Y-36500
X54232Y-22539
X54331Y-24114
X54724Y-26969
X55008Y-23906
X55020Y-60827
X55059Y-25000
X55118Y-25689
X55600Y-23026
X57382Y-25492
X58000Y-26900
X58563Y-32382
X59213Y-56220
X59252Y-23720
X60000Y-40200
X60079Y-48110
X60335Y-23720
X61021Y-68967
X61122Y-28051
X62598Y-28937
X62598Y-68406
X63484Y-57087
X64252Y-48110
X65453Y-59350
X66354Y-38905
X66732Y-26083
X67028Y-56398
X71815Y-57789
X72348Y-54948
X74409Y-63681
X77681Y-62781
X78248Y-66142
X78248Y-70768
X79528Y-69606
X79645Y-68765
X80217Y-64370
X80315Y-71949
X80556Y-67656
X83092Y-69351
X83465Y-67224
X84962Y-67180
X85433Y-37894
X85630Y-68996
X86011Y-61995
X86024Y-65453
X86417Y-66142
X87205Y-66831
X88976Y-63583
X89370Y-65433
X91300Y-61800
X92303Y-55703
X94000Y-61900
X94882Y-69213
X97000Y-67000
X98400Y-65900
X99000Y-57800
X99685Y-64961
X100400Y-61800
X101200Y-55300
X101900Y-65200
X102000Y-73200
X103673Y-34712
X103843Y-33193
X104800Y-57400
X104800Y-70000
X109400Y-59400
X109400Y-74400
X109700Y-63400
X110000Y-56500
X111500Y-61700
X111600Y-56500
X112300Y-62500
X112697Y-56594
X115817Y-71703
T3
X68300Y-48600
X69100Y-53800
T4
X40200Y-53000
X40200Y-54000
X40200Y-55000
X43200Y-53000
X43200Y-54000
X43200Y-55000
X44275Y-24900
X44275Y-25900
X44275Y-26900
X47275Y-24900
X47275Y-25900
X47275Y-26900
X47600Y-53000
X47600Y-54000
X47600Y-55000
X50600Y-53000
X50600Y-54000
X50600Y-55000
X54800Y-53000
X54800Y-54000
X54800Y-55000
X57800Y-53000
X57800Y-54000
X57800Y-55000
X62400Y-53000
X62400Y-54000
X62400Y-55000
X65400Y-53000
X65400Y-54000
X65400Y-55000
X86547Y-59500
X86678Y-45894
X87347Y-31694
X89500Y-59500
X89631Y-45894
X90300Y-31694
X92872Y-56775
X92872Y-57775
X92872Y-58775
X92872Y-63369
X92872Y-64369
X92872Y-65369
X95872Y-56775
X95872Y-57775
X95872Y-58775
X95872Y-63369
X95872Y-64369
X95872Y-65369
X102714Y-63369
X102714Y-64369
X102714Y-65369
X102765Y-56775
X102765Y-57775
X102765Y-58775
X105714Y-63369
X105714Y-64369
X105714Y-65369
X105765Y-56775
X105765Y-57775
X105765Y-58775
T5
X40240Y-32579
X41240Y-32579
X44400Y-20600
X45400Y-20600
X50400Y-20600
X51400Y-20600
X54000Y-20600
X55000Y-20600
X58000Y-20600
X59000Y-20600
X64200Y-23000
X64200Y-24000
X64800Y-43000
X65800Y-43000
X77978Y-33494
X77978Y-61894
X78504Y-47598
X78504Y-48598
X78978Y-33494
X78978Y-61894
X113600Y-57600
X113600Y-59200
X114600Y-57600
X114600Y-59200
T6
X39800Y-45915
X39800Y-46915
X39800Y-47915
X39800Y-48915
X40800Y-46415
X40800Y-47415
X40800Y-48415
X40800Y-49415
T7
X41043Y-39764
X41043Y-40748
X41043Y-41732
X41043Y-42717
X69606Y-72047
X69606Y-73031
X69606Y-74016
X69606Y-75000
X74567Y-72047
X74567Y-73031
X74567Y-74016
X74567Y-75000
T8
X63386Y-73425
X63386Y-74409
T9
X49600Y-46200
X49600Y-47200
X49600Y-48200
X54200Y-46189
X54200Y-47189
X54200Y-48189
X56400Y-20500
X58976Y-46110
X58976Y-47110
X58976Y-48110
X63150Y-46110
X63150Y-47110
X63150Y-48110
X71732Y-47898
X71732Y-48898
X71890Y-62520
X71890Y-63520
X75197Y-35827
X76197Y-35827
X94215Y-28203
X94215Y-29203
X94215Y-30203
X94215Y-31203
X94215Y-32203
X94215Y-33203
X94215Y-34203
X94215Y-35203
X94215Y-36203
X94215Y-37203
X94215Y-38203
X94215Y-39203
X94215Y-40203
X94215Y-41203
X94215Y-42203
X94215Y-43203
X94215Y-44203
X94215Y-45203
X94215Y-46203
X94215Y-47203
X94215Y-48203
X94215Y-49203
X94215Y-50203
X95215Y-28203
X95215Y-29203
X95215Y-30203
X95215Y-31203
X95215Y-32203
X95215Y-33203
X95215Y-34203
X95215Y-35203
X95215Y-36203
X95215Y-37203
X95215Y-38203
X95215Y-39203
X95215Y-40203
X95215Y-41203
X95215Y-42203
X95215Y-43203
X95215Y-44203
X95215Y-45203
X95215Y-46203
X95215Y-47203
X95215Y-48203
X95215Y-49203
X95215Y-50203
X112800Y-64600
X112800Y-65600
X113227Y-28187
X113227Y-29187
X113227Y-30187
X113227Y-31187
X113227Y-32187
X113227Y-33187
X113227Y-34187
X113227Y-35187
X113227Y-36187
X113227Y-37187
X113227Y-38187
X113227Y-39187
X113227Y-40187
X113227Y-41187
X113227Y-42187
X113227Y-43187
X113227Y-44187
X113227Y-45187
X113227Y-46187
X113227Y-47187
X113227Y-48187
X113227Y-49187
X113227Y-50187
X114227Y-28187
X114227Y-29187
X114227Y-30187
X114227Y-31187
X114227Y-32187
X114227Y-33187
X114227Y-34187
X114227Y-35187
X114227Y-36187
X114227Y-37187
X114227Y-38187
X114227Y-39187
X114227Y-40187
X114227Y-41187
X114227Y-42187
X114227Y-43187
X114227Y-44187
X114227Y-45187
X114227Y-46187
X114227Y-47187
X114227Y-48187
X114227Y-49187
X114227Y-50187
T10
X40244Y-35200
X40244Y-36381
X40300Y-23576
X40300Y-24757
X40300Y-25938
X40300Y-27119
X40300Y-28300
X41425Y-35200
X41425Y-36381
X41481Y-23576
X41481Y-24757
X41481Y-25938
X41481Y-27119
X41481Y-28300
X41496Y-66772
X41496Y-67953
X42598Y-72913
X42598Y-74094
X42677Y-66772
X42677Y-67953
X43780Y-72913
X43780Y-74094
X43858Y-66772
X43858Y-67953
X45039Y-66772
X45039Y-67953
X56625Y-39519
X56625Y-40700
X61475Y-39569
X61475Y-40750
X102458Y-71231
X102458Y-72413
X103639Y-71231
X103639Y-72413
X104820Y-71231
X104820Y-72413
X106002Y-71231
X106002Y-72413
X110332Y-71231
X110332Y-72413
X111513Y-71231
X111513Y-72413
X112694Y-71231
X112694Y-72413
X113876Y-71231
X113876Y-72413
T11
X47723Y-31938
X47723Y-36662
X52527Y-31938
X52527Y-36662
X53314Y-34300
X58720Y-34744
X59508Y-32382
X59508Y-37106
X64311Y-32382
X64311Y-37106
T12
X107100Y-70100
T13
X69768Y-24194
X69768Y-31694
X69768Y-38394
X69768Y-45894
X69768Y-52594
X69768Y-60094
X74768Y-31699
X74768Y-45899
X74768Y-60099
X76018Y-31694
X76018Y-45894
X76018Y-60094
X77268Y-31694
X77268Y-45894
X77268Y-60094
X83518Y-24194
X83518Y-38394
X83518Y-52594
X83523Y-31694
X83523Y-45894
X83523Y-60094
T0
M30
