M48
INCH,TZ
T1C0.030
T2C0.043
T3C0.128
%
G90
G05
T1
X42100Y-44615
X42100Y-50715
T2
X39850Y-37562
X39874Y-34019
X40315Y-68323
X41851Y-29481
X41875Y-22394
X42205Y-75276
X42228Y-71732
X46220Y-68346
X55444Y-39125
X57806Y-39149
X60294Y-39175
X62656Y-39199
X101277Y-70838
X107183Y-70861
X109151Y-70838
X115057Y-70861
T3
X43300Y-45415
X43300Y-49915
T0
M30
