G04 #@! TF.FileFunction,Copper,L2,Inr,Signal*
%FSLAX46Y46*%
G04 Gerber Fmt 4.6, Leading zero omitted, Abs format (unit mm)*
G04 Created by KiCad (PCBNEW (2016-05-27 BZR 6836, Git 4441a4b)-product) date 09/13/16 14:24:09*
%MOMM*%
%LPD*%
G01*
G04 APERTURE LIST*
%ADD10C,0.100000*%
%ADD11C,0.600000*%
%ADD12R,1.850000X1.850000*%
%ADD13C,1.850000*%
%ADD14C,3.175000*%
%ADD15C,2.387600*%
%ADD16C,1.700000*%
%ADD17R,1.700000X1.700000*%
%ADD18C,1.400000*%
%ADD19R,1.750000X1.750000*%
%ADD20C,1.750000*%
%ADD21C,1.600000*%
%ADD22O,1.600000X1.600000*%
%ADD23C,0.254000*%
G04 APERTURE END LIST*
D10*
D11*
X97531000Y-108026000D03*
X97831000Y-73726000D03*
X98631000Y-98251000D03*
X117581000Y-67801000D03*
X125381000Y-82776000D03*
X152981000Y-75801000D03*
X146981000Y-83001000D03*
X143106000Y-89901000D03*
X124231000Y-85226000D03*
X97906000Y-85226000D03*
X104381000Y-68626000D03*
X102681000Y-78576000D03*
X103581000Y-93326000D03*
D12*
X178562000Y-82042000D03*
D13*
X178562000Y-79542000D03*
X178562000Y-77042000D03*
X178562000Y-74542000D03*
D11*
X164656000Y-72826000D03*
X164656000Y-71751000D03*
X164681000Y-70151000D03*
X164681000Y-69076000D03*
X186931000Y-103426000D03*
X183331000Y-103426000D03*
X186931000Y-104901000D03*
X185156000Y-101976000D03*
X183331000Y-104901000D03*
X164556000Y-82376000D03*
X147556000Y-67676000D03*
X127956000Y-70176000D03*
X126056000Y-69676000D03*
X123556000Y-91976000D03*
X117456000Y-88376000D03*
X117456000Y-86076000D03*
X114581000Y-94651000D03*
X112806000Y-94826000D03*
X122756000Y-96876000D03*
X125281000Y-98801000D03*
X127856000Y-98876000D03*
X131456000Y-97176000D03*
X138256000Y-102976000D03*
X140256000Y-103376000D03*
X140256000Y-104476000D03*
X133356000Y-102701000D03*
X135381000Y-102701000D03*
X134381000Y-102701000D03*
X97356000Y-110776000D03*
X95456000Y-109026000D03*
X95356000Y-112801000D03*
X100056000Y-123576000D03*
X100056000Y-130976000D03*
X100056000Y-128676000D03*
X100056000Y-126276000D03*
X116856000Y-82976000D03*
X117156000Y-84276000D03*
X122706000Y-107276000D03*
X115206000Y-131526000D03*
X111956000Y-131526000D03*
X115206000Y-129526000D03*
X112956000Y-131526000D03*
X114006000Y-131526000D03*
X115206000Y-130526000D03*
X159256000Y-75776000D03*
X158181000Y-75776000D03*
X160356000Y-82876000D03*
X159856000Y-84876000D03*
X158756000Y-84876000D03*
X157756000Y-84876000D03*
X176556000Y-89976000D03*
X178956000Y-87976000D03*
X177106000Y-88376000D03*
X169756000Y-72376000D03*
X172606000Y-72476000D03*
X171206000Y-72976000D03*
X169256000Y-71026000D03*
X173206000Y-71026000D03*
X168956000Y-101526000D03*
X167956000Y-100526000D03*
X168206000Y-102926000D03*
X165956000Y-100526000D03*
X167781000Y-106026000D03*
X180706000Y-105776000D03*
X179456000Y-104676000D03*
X178481000Y-104651000D03*
X177456000Y-104676000D03*
X173456000Y-104776000D03*
X172456000Y-104776000D03*
X171456000Y-104776000D03*
X170456000Y-104776000D03*
X169456000Y-104776000D03*
X168456000Y-104776000D03*
X168456000Y-107276000D03*
X169456000Y-107276000D03*
X170456000Y-107276000D03*
X171456000Y-107276000D03*
X172456000Y-107276000D03*
X173456000Y-107276000D03*
X175206000Y-107276000D03*
X177456000Y-107276000D03*
X178456000Y-107276000D03*
X179456000Y-107276000D03*
X169856000Y-132976000D03*
X172656000Y-132876000D03*
X172556000Y-135676000D03*
X169856000Y-135676000D03*
X171256000Y-136226000D03*
X171206000Y-132326000D03*
X169256000Y-134276000D03*
X173156000Y-134226000D03*
X172706000Y-125026000D03*
X171706000Y-125026000D03*
X170706000Y-125026000D03*
X169706000Y-125026000D03*
X168956000Y-124026000D03*
X168956000Y-123026000D03*
X169706000Y-122276000D03*
X170706000Y-122276000D03*
X171706000Y-122276000D03*
X172706000Y-122276000D03*
X135456000Y-120526000D03*
X136456000Y-120526000D03*
X137206000Y-116776000D03*
X137206000Y-119776000D03*
X137206000Y-118776000D03*
X137206000Y-117776000D03*
X112456000Y-109526000D03*
X112456000Y-108526000D03*
X113231000Y-107576000D03*
X114231000Y-107576000D03*
X115231000Y-107576000D03*
X116231000Y-107576000D03*
X117231000Y-107576000D03*
X118231000Y-107576000D03*
X119231000Y-107576000D03*
X119956000Y-108526000D03*
X119956000Y-109526000D03*
X134206000Y-130276000D03*
X134206000Y-131526000D03*
X134206000Y-132776000D03*
X134206000Y-134026000D03*
X133206000Y-134776000D03*
X131956000Y-134776000D03*
X130706000Y-134776000D03*
X129706000Y-134026000D03*
X129706000Y-132776000D03*
X129706000Y-131526000D03*
X129706000Y-130276000D03*
X122706000Y-130026000D03*
X122706000Y-131276000D03*
X122706000Y-132526000D03*
X122706000Y-133776000D03*
X118206000Y-133776000D03*
X118206000Y-132526000D03*
X118206000Y-131276000D03*
X118206000Y-130026000D03*
X122706000Y-109776000D03*
X122706000Y-108526000D03*
X122706000Y-106026000D03*
X123706000Y-105276000D03*
X124956000Y-105276000D03*
X126206000Y-105276000D03*
X127206000Y-106026000D03*
X127206000Y-107276000D03*
X127206000Y-108526000D03*
X127206000Y-109776000D03*
X119456000Y-90276000D03*
X117706000Y-90276000D03*
X116506000Y-80651000D03*
X116506000Y-78401000D03*
X116506000Y-79526000D03*
X116456000Y-74776000D03*
X116206000Y-73276000D03*
X116206000Y-71776000D03*
X117456000Y-71026000D03*
X118956000Y-71026000D03*
X120456000Y-70776000D03*
X94456000Y-143526000D03*
X96206000Y-143526000D03*
X98706000Y-143526000D03*
X101206000Y-143526000D03*
X103706000Y-143526000D03*
X106206000Y-143526000D03*
X108706000Y-143526000D03*
X111206000Y-143526000D03*
X113706000Y-143526000D03*
X116206000Y-143526000D03*
X118706000Y-143526000D03*
X121206000Y-143526000D03*
X123706000Y-143526000D03*
X126206000Y-143526000D03*
X128706000Y-143526000D03*
X131206000Y-143526000D03*
X133706000Y-143526000D03*
X136206000Y-143526000D03*
X138706000Y-143526000D03*
X141206000Y-143526000D03*
X143706000Y-143526000D03*
X146206000Y-143526000D03*
X93456000Y-142776000D03*
X93456000Y-140276000D03*
X93456000Y-137776000D03*
X93456000Y-135276000D03*
X93456000Y-132776000D03*
X93456000Y-130276000D03*
X93456000Y-127776000D03*
X93456000Y-125276000D03*
X93456000Y-122776000D03*
X93456000Y-120276000D03*
X93456000Y-117776000D03*
X93456000Y-115276000D03*
X93456000Y-112776000D03*
X93456000Y-110276000D03*
X93456000Y-107776000D03*
X93456000Y-105276000D03*
X93456000Y-102776000D03*
X93456000Y-100276000D03*
X93456000Y-97776000D03*
X93456000Y-95276000D03*
X93456000Y-92776000D03*
X93456000Y-90276000D03*
X93456000Y-87776000D03*
X93456000Y-85276000D03*
X93456000Y-82776000D03*
X93456000Y-80276000D03*
X93456000Y-77776000D03*
X93456000Y-75276000D03*
X93456000Y-72776000D03*
X93456000Y-70276000D03*
X93456000Y-67776000D03*
X93456000Y-65276000D03*
X93456000Y-62776000D03*
X95706000Y-62776000D03*
X98206000Y-62776000D03*
X100706000Y-62776000D03*
X103206000Y-62776000D03*
X105706000Y-62776000D03*
X108206000Y-62776000D03*
X110706000Y-62776000D03*
X113206000Y-62776000D03*
X115706000Y-62776000D03*
X118206000Y-62776000D03*
X120706000Y-62776000D03*
X123206000Y-62776000D03*
X125706000Y-62776000D03*
X128206000Y-62776000D03*
X130706000Y-62776000D03*
X133206000Y-62776000D03*
X135706000Y-62776000D03*
X138206000Y-62776000D03*
X140706000Y-62776000D03*
X143206000Y-62776000D03*
X145706000Y-62776000D03*
X148206000Y-62776000D03*
X150706000Y-62776000D03*
X153206000Y-62776000D03*
X155706000Y-62776000D03*
X158206000Y-62776000D03*
X160706000Y-62776000D03*
X163206000Y-62776000D03*
X165706000Y-62776000D03*
X168206000Y-62776000D03*
X170706000Y-62776000D03*
X173206000Y-62776000D03*
X175706000Y-62776000D03*
X178206000Y-62776000D03*
X180706000Y-62776000D03*
X183206000Y-62776000D03*
X185706000Y-62776000D03*
X188206000Y-62776000D03*
X190706000Y-62776000D03*
X193206000Y-63526000D03*
X193206000Y-66026000D03*
X193206000Y-68526000D03*
X193206000Y-71026000D03*
X193206000Y-73526000D03*
X193206000Y-76026000D03*
X193206000Y-78526000D03*
X193206000Y-81026000D03*
X193206000Y-83526000D03*
X193206000Y-86026000D03*
X193206000Y-88526000D03*
X193206000Y-91026000D03*
X193206000Y-93526000D03*
X193206000Y-96026000D03*
X193206000Y-98526000D03*
X193206000Y-101026000D03*
X193206000Y-103526000D03*
X193206000Y-106026000D03*
X193206000Y-108526000D03*
X193206000Y-111026000D03*
X193206000Y-113526000D03*
X193206000Y-116026000D03*
X193206000Y-118526000D03*
X193206000Y-121026000D03*
X193206000Y-123526000D03*
X193206000Y-126026000D03*
X193206000Y-128526000D03*
X193206000Y-131026000D03*
X193206000Y-133526000D03*
X193206000Y-136026000D03*
X193206000Y-138526000D03*
X193206000Y-141026000D03*
X193206000Y-143526000D03*
X191206000Y-143526000D03*
X188706000Y-143526000D03*
X186206000Y-143526000D03*
X183706000Y-143526000D03*
X181206000Y-143526000D03*
X178706000Y-143526000D03*
X176206000Y-143526000D03*
X173706000Y-143526000D03*
X171206000Y-143526000D03*
X168706000Y-143526000D03*
X166206000Y-143526000D03*
X163706000Y-143526000D03*
X158706000Y-143526000D03*
X161206000Y-143526000D03*
X156206000Y-143526000D03*
X153706000Y-143526000D03*
X151206000Y-143526000D03*
D14*
X189456000Y-139776000D03*
D15*
X107352000Y-140427000D03*
X120814000Y-140427000D03*
X120814000Y-137023400D03*
X107352000Y-137023400D03*
D16*
X171206000Y-134276000D03*
D17*
X176206000Y-134276000D03*
D18*
X109220000Y-105156000D03*
X111760000Y-105156000D03*
X114173000Y-74930000D03*
X114173000Y-72390000D03*
X103378000Y-100838000D03*
X105918000Y-100838000D03*
X109093000Y-100838000D03*
X111633000Y-100838000D03*
X161442400Y-66497200D03*
X163982400Y-66497200D03*
X154990800Y-66446400D03*
X157530800Y-66446400D03*
X168456000Y-79676000D03*
X168456000Y-77136000D03*
X172212000Y-91059000D03*
X172212000Y-88519000D03*
D19*
X171196000Y-68580000D03*
D20*
X171196000Y-71080000D03*
D12*
X178562000Y-92456000D03*
D13*
X178562000Y-89956000D03*
D14*
X97456000Y-139776000D03*
X97456000Y-66776000D03*
X189456000Y-66776000D03*
D11*
X148706000Y-143526000D03*
D21*
X97356000Y-120376000D03*
X97356000Y-117376000D03*
X97356000Y-114376000D03*
X97356000Y-111376000D03*
X100356000Y-120376000D03*
X100356000Y-117376000D03*
X100356000Y-114376000D03*
X100356000Y-111376000D03*
D22*
X190856000Y-87406000D03*
X190856000Y-84866000D03*
X190856000Y-82326000D03*
X183236000Y-82326000D03*
X183236000Y-84866000D03*
X183236000Y-87406000D03*
D21*
X190731000Y-124051000D03*
X190731000Y-127051000D03*
X187731000Y-124051000D03*
X187731000Y-127051000D03*
D11*
X175181000Y-95751000D03*
X174081000Y-95726000D03*
X109220000Y-128524000D03*
X107950000Y-117602000D03*
X109220000Y-117856000D03*
X141986000Y-70993000D03*
X137160000Y-96012000D03*
X138811000Y-94742000D03*
X138303000Y-90170000D03*
X126238000Y-76581000D03*
X138684000Y-73152000D03*
X113504487Y-85641332D03*
X160556000Y-79276000D03*
X133756000Y-127376000D03*
X108585000Y-87376000D03*
X149809200Y-77978000D03*
X118999000Y-81280000D03*
X145542000Y-100584000D03*
X129286000Y-77724000D03*
X135636000Y-96266000D03*
X144018000Y-74168000D03*
X123952000Y-78359000D03*
X134874000Y-67564000D03*
X145923000Y-73279000D03*
X126492000Y-87630000D03*
X130429000Y-69342000D03*
X146558000Y-105410000D03*
X148971000Y-90170000D03*
X142367000Y-88138000D03*
X157861000Y-104521000D03*
X141478000Y-90424000D03*
X155321000Y-93345000D03*
X157734000Y-88138000D03*
X139954000Y-88646000D03*
X126873000Y-95250000D03*
X130937000Y-95377000D03*
X136756000Y-109376000D03*
X161456000Y-80376000D03*
X141097000Y-70612000D03*
X133350000Y-88646000D03*
X121793000Y-75565000D03*
X125349000Y-80772000D03*
X132588000Y-74930000D03*
X151003000Y-64770000D03*
X145756000Y-79876000D03*
X164056000Y-97276000D03*
X160556000Y-81576000D03*
X143764000Y-81280000D03*
X165227000Y-94361000D03*
X149156000Y-83676000D03*
X174756000Y-104276000D03*
X176856000Y-116276000D03*
X157886400Y-74371200D03*
X152146000Y-72390000D03*
X144272000Y-75438000D03*
X150756000Y-77976000D03*
X132334000Y-73660000D03*
X102956000Y-118776000D03*
X110456000Y-107276000D03*
X142556000Y-72076000D03*
X139856000Y-135876000D03*
X123056000Y-88376009D03*
X150056000Y-110076000D03*
X150114000Y-103632000D03*
X136271000Y-89535000D03*
X140716000Y-92456000D03*
X161290000Y-113030000D03*
X156083000Y-108458000D03*
X137541000Y-100838000D03*
X157756000Y-99976000D03*
X111356000Y-94976000D03*
X123063000Y-75311000D03*
X161671000Y-89916000D03*
X144018000Y-77216000D03*
X127127000Y-83820000D03*
X130429000Y-74041000D03*
X114808000Y-80264000D03*
X114681000Y-89789000D03*
X119126000Y-99314000D03*
X131191000Y-76835000D03*
X135255000Y-65024000D03*
X116713000Y-91567000D03*
X110744000Y-89662000D03*
X145186400Y-87122000D03*
X151180800Y-86766400D03*
X146507200Y-84886800D03*
X144780000Y-82169000D03*
X161256000Y-83676000D03*
X161056000Y-94476000D03*
X180056000Y-97676000D03*
X157353000Y-92837000D03*
X169672000Y-94234000D03*
X170434000Y-96774000D03*
X127381000Y-82423000D03*
X147828000Y-70104000D03*
X138557000Y-70612000D03*
X132842000Y-76200000D03*
X174244000Y-86106000D03*
X111556000Y-85051000D03*
X132581000Y-90301000D03*
D23*
G36*
X193771000Y-144091000D02*
X93141000Y-144091000D01*
X93141000Y-140216143D01*
X95233115Y-140216143D01*
X95570758Y-141033300D01*
X96195411Y-141659045D01*
X97011978Y-141998113D01*
X97896143Y-141998885D01*
X98713300Y-141661242D01*
X99339045Y-141036589D01*
X99678113Y-140220022D01*
X99678885Y-139335857D01*
X99341242Y-138518700D01*
X98716589Y-137892955D01*
X97900022Y-137553887D01*
X97015857Y-137553115D01*
X96198700Y-137890758D01*
X95572955Y-138515411D01*
X95233887Y-139331978D01*
X95233115Y-140216143D01*
X93141000Y-140216143D01*
X93141000Y-137385575D01*
X105522884Y-137385575D01*
X105800715Y-138057978D01*
X106314716Y-138572877D01*
X106681623Y-138725230D01*
X106317422Y-138875715D01*
X105802523Y-139389716D01*
X105523518Y-140061633D01*
X105522884Y-140789175D01*
X105800715Y-141461578D01*
X106314716Y-141976477D01*
X106986633Y-142255482D01*
X107714175Y-142256116D01*
X108386578Y-141978285D01*
X108901477Y-141464284D01*
X109180482Y-140792367D01*
X109181116Y-140064825D01*
X108903285Y-139392422D01*
X108389284Y-138877523D01*
X108022377Y-138725170D01*
X108386578Y-138574685D01*
X108901477Y-138060684D01*
X109180482Y-137388767D01*
X109180484Y-137385575D01*
X118984884Y-137385575D01*
X119262715Y-138057978D01*
X119776716Y-138572877D01*
X120143623Y-138725230D01*
X119779422Y-138875715D01*
X119264523Y-139389716D01*
X118985518Y-140061633D01*
X118984884Y-140789175D01*
X119262715Y-141461578D01*
X119776716Y-141976477D01*
X120448633Y-142255482D01*
X121176175Y-142256116D01*
X121848578Y-141978285D01*
X122363477Y-141464284D01*
X122642482Y-140792367D01*
X122642984Y-140216143D01*
X187233115Y-140216143D01*
X187570758Y-141033300D01*
X188195411Y-141659045D01*
X189011978Y-141998113D01*
X189896143Y-141998885D01*
X190713300Y-141661242D01*
X191339045Y-141036589D01*
X191678113Y-140220022D01*
X191678885Y-139335857D01*
X191341242Y-138518700D01*
X190716589Y-137892955D01*
X189900022Y-137553887D01*
X189015857Y-137553115D01*
X188198700Y-137890758D01*
X187572955Y-138515411D01*
X187233887Y-139331978D01*
X187233115Y-140216143D01*
X122642984Y-140216143D01*
X122643116Y-140064825D01*
X122365285Y-139392422D01*
X121851284Y-138877523D01*
X121484377Y-138725170D01*
X121848578Y-138574685D01*
X122363477Y-138060684D01*
X122642482Y-137388767D01*
X122643116Y-136661225D01*
X122395178Y-136061167D01*
X138920838Y-136061167D01*
X139062883Y-136404943D01*
X139325673Y-136668192D01*
X139669201Y-136810838D01*
X140041167Y-136811162D01*
X140384943Y-136669117D01*
X140648192Y-136406327D01*
X140790838Y-136062799D01*
X140791162Y-135690833D01*
X140649117Y-135347057D01*
X140622066Y-135319958D01*
X170341647Y-135319958D01*
X170421920Y-135571259D01*
X170977279Y-135772718D01*
X171567458Y-135746315D01*
X171990080Y-135571259D01*
X172070353Y-135319958D01*
X171206000Y-134455605D01*
X170341647Y-135319958D01*
X140622066Y-135319958D01*
X140386327Y-135083808D01*
X140042799Y-134941162D01*
X139670833Y-134940838D01*
X139327057Y-135082883D01*
X139063808Y-135345673D01*
X138921162Y-135689201D01*
X138920838Y-136061167D01*
X122395178Y-136061167D01*
X122365285Y-135988822D01*
X121851284Y-135473923D01*
X121179367Y-135194918D01*
X120451825Y-135194284D01*
X119779422Y-135472115D01*
X119264523Y-135986116D01*
X118985518Y-136658033D01*
X118984884Y-137385575D01*
X109180484Y-137385575D01*
X109181116Y-136661225D01*
X108903285Y-135988822D01*
X108389284Y-135473923D01*
X107717367Y-135194918D01*
X106989825Y-135194284D01*
X106317422Y-135472115D01*
X105802523Y-135986116D01*
X105523518Y-136658033D01*
X105522884Y-137385575D01*
X93141000Y-137385575D01*
X93141000Y-134047279D01*
X169709282Y-134047279D01*
X169735685Y-134637458D01*
X169910741Y-135060080D01*
X170162042Y-135140353D01*
X171026395Y-134276000D01*
X171385605Y-134276000D01*
X172249958Y-135140353D01*
X172501259Y-135060080D01*
X172702718Y-134504721D01*
X172676315Y-133914542D01*
X172501259Y-133491920D01*
X172294892Y-133426000D01*
X174708560Y-133426000D01*
X174708560Y-135126000D01*
X174757843Y-135373765D01*
X174898191Y-135583809D01*
X175108235Y-135724157D01*
X175356000Y-135773440D01*
X177056000Y-135773440D01*
X177303765Y-135724157D01*
X177513809Y-135583809D01*
X177654157Y-135373765D01*
X177703440Y-135126000D01*
X177703440Y-133426000D01*
X177654157Y-133178235D01*
X177513809Y-132968191D01*
X177303765Y-132827843D01*
X177056000Y-132778560D01*
X175356000Y-132778560D01*
X175108235Y-132827843D01*
X174898191Y-132968191D01*
X174757843Y-133178235D01*
X174708560Y-133426000D01*
X172294892Y-133426000D01*
X172249958Y-133411647D01*
X171385605Y-134276000D01*
X171026395Y-134276000D01*
X170162042Y-133411647D01*
X169910741Y-133491920D01*
X169709282Y-134047279D01*
X93141000Y-134047279D01*
X93141000Y-133232042D01*
X170341647Y-133232042D01*
X171206000Y-134096395D01*
X172070353Y-133232042D01*
X171990080Y-132980741D01*
X171434721Y-132779282D01*
X170844542Y-132805685D01*
X170421920Y-132980741D01*
X170341647Y-133232042D01*
X93141000Y-133232042D01*
X93141000Y-130285677D01*
X185545794Y-130285677D01*
X185725820Y-130721372D01*
X186058875Y-131055009D01*
X186494255Y-131235794D01*
X186965677Y-131236206D01*
X187401372Y-131056180D01*
X187735009Y-130723125D01*
X187915794Y-130287745D01*
X187916206Y-129816323D01*
X187736180Y-129380628D01*
X187403125Y-129046991D01*
X186967745Y-128866206D01*
X186496323Y-128865794D01*
X186060628Y-129045820D01*
X185726991Y-129378875D01*
X185546206Y-129814255D01*
X185545794Y-130285677D01*
X93141000Y-130285677D01*
X93141000Y-127561167D01*
X132820838Y-127561167D01*
X132962883Y-127904943D01*
X133225673Y-128168192D01*
X133569201Y-128310838D01*
X133941167Y-128311162D01*
X134284943Y-128169117D01*
X134395507Y-128058745D01*
X186902861Y-128058745D01*
X186976995Y-128304864D01*
X187514223Y-128497965D01*
X188084454Y-128470778D01*
X188485005Y-128304864D01*
X188559139Y-128058745D01*
X187731000Y-127230605D01*
X186902861Y-128058745D01*
X134395507Y-128058745D01*
X134548192Y-127906327D01*
X134690838Y-127562799D01*
X134691162Y-127190833D01*
X134549117Y-126847057D01*
X134536306Y-126834223D01*
X186284035Y-126834223D01*
X186311222Y-127404454D01*
X186477136Y-127805005D01*
X186723255Y-127879139D01*
X187551395Y-127051000D01*
X187910605Y-127051000D01*
X188738745Y-127879139D01*
X188984864Y-127805005D01*
X189153735Y-127335187D01*
X189295752Y-127335187D01*
X189513757Y-127862800D01*
X189917077Y-128266824D01*
X190444309Y-128485750D01*
X191015187Y-128486248D01*
X191542800Y-128268243D01*
X191946824Y-127864923D01*
X192165750Y-127337691D01*
X192166248Y-126766813D01*
X191948243Y-126239200D01*
X191544923Y-125835176D01*
X191017691Y-125616250D01*
X190446813Y-125615752D01*
X189919200Y-125833757D01*
X189515176Y-126237077D01*
X189296250Y-126764309D01*
X189295752Y-127335187D01*
X189153735Y-127335187D01*
X189177965Y-127267777D01*
X189150778Y-126697546D01*
X188984864Y-126296995D01*
X188738745Y-126222861D01*
X187910605Y-127051000D01*
X187551395Y-127051000D01*
X186723255Y-126222861D01*
X186477136Y-126296995D01*
X186284035Y-126834223D01*
X134536306Y-126834223D01*
X134286327Y-126583808D01*
X133942799Y-126441162D01*
X133570833Y-126440838D01*
X133227057Y-126582883D01*
X132963808Y-126845673D01*
X132821162Y-127189201D01*
X132820838Y-127561167D01*
X93141000Y-127561167D01*
X93141000Y-126043255D01*
X186902861Y-126043255D01*
X187731000Y-126871395D01*
X188559139Y-126043255D01*
X188485005Y-125797136D01*
X187947777Y-125604035D01*
X187377546Y-125631222D01*
X186976995Y-125797136D01*
X186902861Y-126043255D01*
X93141000Y-126043255D01*
X93141000Y-125058745D01*
X186902861Y-125058745D01*
X186976995Y-125304864D01*
X187514223Y-125497965D01*
X188084454Y-125470778D01*
X188485005Y-125304864D01*
X188559139Y-125058745D01*
X187731000Y-124230605D01*
X186902861Y-125058745D01*
X93141000Y-125058745D01*
X93141000Y-123610677D01*
X100110794Y-123610677D01*
X100290820Y-124046372D01*
X100623875Y-124380009D01*
X101059255Y-124560794D01*
X101530677Y-124561206D01*
X101966372Y-124381180D01*
X102300009Y-124048125D01*
X102388828Y-123834223D01*
X186284035Y-123834223D01*
X186311222Y-124404454D01*
X186477136Y-124805005D01*
X186723255Y-124879139D01*
X187551395Y-124051000D01*
X187910605Y-124051000D01*
X188738745Y-124879139D01*
X188984864Y-124805005D01*
X189153735Y-124335187D01*
X189295752Y-124335187D01*
X189513757Y-124862800D01*
X189917077Y-125266824D01*
X190444309Y-125485750D01*
X191015187Y-125486248D01*
X191542800Y-125268243D01*
X191946824Y-124864923D01*
X192165750Y-124337691D01*
X192166248Y-123766813D01*
X191948243Y-123239200D01*
X191544923Y-122835176D01*
X191017691Y-122616250D01*
X190446813Y-122615752D01*
X189919200Y-122833757D01*
X189515176Y-123237077D01*
X189296250Y-123764309D01*
X189295752Y-124335187D01*
X189153735Y-124335187D01*
X189177965Y-124267777D01*
X189150778Y-123697546D01*
X188984864Y-123296995D01*
X188738745Y-123222861D01*
X187910605Y-124051000D01*
X187551395Y-124051000D01*
X186723255Y-123222861D01*
X186477136Y-123296995D01*
X186284035Y-123834223D01*
X102388828Y-123834223D01*
X102480794Y-123612745D01*
X102481206Y-123141323D01*
X102440686Y-123043255D01*
X186902861Y-123043255D01*
X187731000Y-123871395D01*
X188559139Y-123043255D01*
X188485005Y-122797136D01*
X187947777Y-122604035D01*
X187377546Y-122631222D01*
X186976995Y-122797136D01*
X186902861Y-123043255D01*
X102440686Y-123043255D01*
X102301180Y-122705628D01*
X101968125Y-122371991D01*
X101532745Y-122191206D01*
X101061323Y-122190794D01*
X100625628Y-122370820D01*
X100291991Y-122703875D01*
X100111206Y-123139255D01*
X100110794Y-123610677D01*
X93141000Y-123610677D01*
X93141000Y-120660187D01*
X95920752Y-120660187D01*
X96138757Y-121187800D01*
X96542077Y-121591824D01*
X97069309Y-121810750D01*
X97640187Y-121811248D01*
X98167800Y-121593243D01*
X98377663Y-121383745D01*
X99527861Y-121383745D01*
X99601995Y-121629864D01*
X100139223Y-121822965D01*
X100709454Y-121795778D01*
X101110005Y-121629864D01*
X101184139Y-121383745D01*
X101086072Y-121285677D01*
X185605794Y-121285677D01*
X185785820Y-121721372D01*
X186118875Y-122055009D01*
X186554255Y-122235794D01*
X187025677Y-122236206D01*
X187461372Y-122056180D01*
X187795009Y-121723125D01*
X187975794Y-121287745D01*
X187976206Y-120816323D01*
X187796180Y-120380628D01*
X187463125Y-120046991D01*
X187027745Y-119866206D01*
X186556323Y-119865794D01*
X186120628Y-120045820D01*
X185786991Y-120378875D01*
X185606206Y-120814255D01*
X185605794Y-121285677D01*
X101086072Y-121285677D01*
X100356000Y-120555605D01*
X99527861Y-121383745D01*
X98377663Y-121383745D01*
X98571824Y-121189923D01*
X98790750Y-120662691D01*
X98791189Y-120159223D01*
X98909035Y-120159223D01*
X98936222Y-120729454D01*
X99102136Y-121130005D01*
X99348255Y-121204139D01*
X100176395Y-120376000D01*
X100535605Y-120376000D01*
X101363745Y-121204139D01*
X101609864Y-121130005D01*
X101802965Y-120592777D01*
X101775778Y-120022546D01*
X101609864Y-119621995D01*
X101363745Y-119547861D01*
X100535605Y-120376000D01*
X100176395Y-120376000D01*
X99348255Y-119547861D01*
X99102136Y-119621995D01*
X98909035Y-120159223D01*
X98791189Y-120159223D01*
X98791248Y-120091813D01*
X98573243Y-119564200D01*
X98377640Y-119368255D01*
X99527861Y-119368255D01*
X100356000Y-120196395D01*
X101184139Y-119368255D01*
X101110005Y-119122136D01*
X100662172Y-118961167D01*
X102020838Y-118961167D01*
X102162883Y-119304943D01*
X102425673Y-119568192D01*
X102769201Y-119710838D01*
X103141167Y-119711162D01*
X103484943Y-119569117D01*
X103748192Y-119306327D01*
X103890838Y-118962799D01*
X103891162Y-118590833D01*
X103749117Y-118247057D01*
X103486327Y-117983808D01*
X103142799Y-117841162D01*
X102770833Y-117840838D01*
X102427057Y-117982883D01*
X102163808Y-118245673D01*
X102021162Y-118589201D01*
X102020838Y-118961167D01*
X100662172Y-118961167D01*
X100572777Y-118929035D01*
X100002546Y-118956222D01*
X99601995Y-119122136D01*
X99527861Y-119368255D01*
X98377640Y-119368255D01*
X98169923Y-119160176D01*
X97642691Y-118941250D01*
X97071813Y-118940752D01*
X96544200Y-119158757D01*
X96140176Y-119562077D01*
X95921250Y-120089309D01*
X95920752Y-120660187D01*
X93141000Y-120660187D01*
X93141000Y-117660187D01*
X95920752Y-117660187D01*
X96138757Y-118187800D01*
X96542077Y-118591824D01*
X97069309Y-118810750D01*
X97640187Y-118811248D01*
X98167800Y-118593243D01*
X98377663Y-118383745D01*
X99527861Y-118383745D01*
X99601995Y-118629864D01*
X100139223Y-118822965D01*
X100709454Y-118795778D01*
X101110005Y-118629864D01*
X101184139Y-118383745D01*
X100356000Y-117555605D01*
X99527861Y-118383745D01*
X98377663Y-118383745D01*
X98571824Y-118189923D01*
X98790750Y-117662691D01*
X98791189Y-117159223D01*
X98909035Y-117159223D01*
X98936222Y-117729454D01*
X99102136Y-118130005D01*
X99348255Y-118204139D01*
X100176395Y-117376000D01*
X100535605Y-117376000D01*
X101363745Y-118204139D01*
X101609864Y-118130005D01*
X101802965Y-117592777D01*
X101775778Y-117022546D01*
X101609864Y-116621995D01*
X101363745Y-116547861D01*
X100535605Y-117376000D01*
X100176395Y-117376000D01*
X99348255Y-116547861D01*
X99102136Y-116621995D01*
X98909035Y-117159223D01*
X98791189Y-117159223D01*
X98791248Y-117091813D01*
X98573243Y-116564200D01*
X98377640Y-116368255D01*
X99527861Y-116368255D01*
X100356000Y-117196395D01*
X101091227Y-116461167D01*
X175920838Y-116461167D01*
X176062883Y-116804943D01*
X176325673Y-117068192D01*
X176669201Y-117210838D01*
X177041167Y-117211162D01*
X177384943Y-117069117D01*
X177648192Y-116806327D01*
X177790838Y-116462799D01*
X177791162Y-116090833D01*
X177649117Y-115747057D01*
X177386327Y-115483808D01*
X177042799Y-115341162D01*
X176670833Y-115340838D01*
X176327057Y-115482883D01*
X176063808Y-115745673D01*
X175921162Y-116089201D01*
X175920838Y-116461167D01*
X101091227Y-116461167D01*
X101184139Y-116368255D01*
X101110005Y-116122136D01*
X100572777Y-115929035D01*
X100002546Y-115956222D01*
X99601995Y-116122136D01*
X99527861Y-116368255D01*
X98377640Y-116368255D01*
X98169923Y-116160176D01*
X97642691Y-115941250D01*
X97071813Y-115940752D01*
X96544200Y-116158757D01*
X96140176Y-116562077D01*
X95921250Y-117089309D01*
X95920752Y-117660187D01*
X93141000Y-117660187D01*
X93141000Y-115383745D01*
X96527861Y-115383745D01*
X96601995Y-115629864D01*
X97139223Y-115822965D01*
X97709454Y-115795778D01*
X98110005Y-115629864D01*
X98184139Y-115383745D01*
X97356000Y-114555605D01*
X96527861Y-115383745D01*
X93141000Y-115383745D01*
X93141000Y-114159223D01*
X95909035Y-114159223D01*
X95936222Y-114729454D01*
X96102136Y-115130005D01*
X96348255Y-115204139D01*
X97176395Y-114376000D01*
X97535605Y-114376000D01*
X98363745Y-115204139D01*
X98609864Y-115130005D01*
X98778735Y-114660187D01*
X98920752Y-114660187D01*
X99138757Y-115187800D01*
X99542077Y-115591824D01*
X100069309Y-115810750D01*
X100640187Y-115811248D01*
X101167800Y-115593243D01*
X101571824Y-115189923D01*
X101790750Y-114662691D01*
X101791248Y-114091813D01*
X101573243Y-113564200D01*
X101224819Y-113215167D01*
X160354838Y-113215167D01*
X160496883Y-113558943D01*
X160759673Y-113822192D01*
X161103201Y-113964838D01*
X161475167Y-113965162D01*
X161818943Y-113823117D01*
X162082192Y-113560327D01*
X162224838Y-113216799D01*
X162225162Y-112844833D01*
X162083117Y-112501057D01*
X161820327Y-112237808D01*
X161476799Y-112095162D01*
X161104833Y-112094838D01*
X160761057Y-112236883D01*
X160497808Y-112499673D01*
X160355162Y-112843201D01*
X160354838Y-113215167D01*
X101224819Y-113215167D01*
X101169923Y-113160176D01*
X100642691Y-112941250D01*
X100071813Y-112940752D01*
X99544200Y-113158757D01*
X99140176Y-113562077D01*
X98921250Y-114089309D01*
X98920752Y-114660187D01*
X98778735Y-114660187D01*
X98802965Y-114592777D01*
X98775778Y-114022546D01*
X98609864Y-113621995D01*
X98363745Y-113547861D01*
X97535605Y-114376000D01*
X97176395Y-114376000D01*
X96348255Y-113547861D01*
X96102136Y-113621995D01*
X95909035Y-114159223D01*
X93141000Y-114159223D01*
X93141000Y-113368255D01*
X96527861Y-113368255D01*
X97356000Y-114196395D01*
X98184139Y-113368255D01*
X98110005Y-113122136D01*
X97572777Y-112929035D01*
X97002546Y-112956222D01*
X96601995Y-113122136D01*
X96527861Y-113368255D01*
X93141000Y-113368255D01*
X93141000Y-112383745D01*
X96527861Y-112383745D01*
X96601995Y-112629864D01*
X97139223Y-112822965D01*
X97709454Y-112795778D01*
X98110005Y-112629864D01*
X98184139Y-112383745D01*
X97356000Y-111555605D01*
X96527861Y-112383745D01*
X93141000Y-112383745D01*
X93141000Y-111159223D01*
X95909035Y-111159223D01*
X95936222Y-111729454D01*
X96102136Y-112130005D01*
X96348255Y-112204139D01*
X97176395Y-111376000D01*
X97535605Y-111376000D01*
X98363745Y-112204139D01*
X98609864Y-112130005D01*
X98778735Y-111660187D01*
X98920752Y-111660187D01*
X99138757Y-112187800D01*
X99542077Y-112591824D01*
X100069309Y-112810750D01*
X100640187Y-112811248D01*
X101167800Y-112593243D01*
X101571824Y-112189923D01*
X101790750Y-111662691D01*
X101791248Y-111091813D01*
X101573243Y-110564200D01*
X101169923Y-110160176D01*
X100642691Y-109941250D01*
X100071813Y-109940752D01*
X99544200Y-110158757D01*
X99140176Y-110562077D01*
X98921250Y-111089309D01*
X98920752Y-111660187D01*
X98778735Y-111660187D01*
X98802965Y-111592777D01*
X98775778Y-111022546D01*
X98609864Y-110621995D01*
X98363745Y-110547861D01*
X97535605Y-111376000D01*
X97176395Y-111376000D01*
X96348255Y-110547861D01*
X96102136Y-110621995D01*
X95909035Y-111159223D01*
X93141000Y-111159223D01*
X93141000Y-110368255D01*
X96527861Y-110368255D01*
X97356000Y-111196395D01*
X98184139Y-110368255D01*
X98110005Y-110122136D01*
X97572777Y-109929035D01*
X97002546Y-109956222D01*
X96601995Y-110122136D01*
X96527861Y-110368255D01*
X93141000Y-110368255D01*
X93141000Y-108610677D01*
X100170794Y-108610677D01*
X100350820Y-109046372D01*
X100683875Y-109380009D01*
X101119255Y-109560794D01*
X101590677Y-109561206D01*
X101590771Y-109561167D01*
X135820838Y-109561167D01*
X135962883Y-109904943D01*
X136225673Y-110168192D01*
X136569201Y-110310838D01*
X136941167Y-110311162D01*
X137062164Y-110261167D01*
X149120838Y-110261167D01*
X149262883Y-110604943D01*
X149525673Y-110868192D01*
X149869201Y-111010838D01*
X150241167Y-111011162D01*
X150584943Y-110869117D01*
X150848192Y-110606327D01*
X150990838Y-110262799D01*
X150991162Y-109890833D01*
X150849117Y-109547057D01*
X150586327Y-109283808D01*
X150242799Y-109141162D01*
X149870833Y-109140838D01*
X149527057Y-109282883D01*
X149263808Y-109545673D01*
X149121162Y-109889201D01*
X149120838Y-110261167D01*
X137062164Y-110261167D01*
X137284943Y-110169117D01*
X137548192Y-109906327D01*
X137690838Y-109562799D01*
X137691162Y-109190833D01*
X137549117Y-108847057D01*
X137345583Y-108643167D01*
X155147838Y-108643167D01*
X155289883Y-108986943D01*
X155552673Y-109250192D01*
X155896201Y-109392838D01*
X156268167Y-109393162D01*
X156611943Y-109251117D01*
X156875192Y-108988327D01*
X157017838Y-108644799D01*
X157018162Y-108272833D01*
X156876117Y-107929057D01*
X156613327Y-107665808D01*
X156269799Y-107523162D01*
X155897833Y-107522838D01*
X155554057Y-107664883D01*
X155290808Y-107927673D01*
X155148162Y-108271201D01*
X155147838Y-108643167D01*
X137345583Y-108643167D01*
X137286327Y-108583808D01*
X136942799Y-108441162D01*
X136570833Y-108440838D01*
X136227057Y-108582883D01*
X135963808Y-108845673D01*
X135821162Y-109189201D01*
X135820838Y-109561167D01*
X101590771Y-109561167D01*
X102026372Y-109381180D01*
X102360009Y-109048125D01*
X102540794Y-108612745D01*
X102541206Y-108141323D01*
X102361180Y-107705628D01*
X102117146Y-107461167D01*
X109520838Y-107461167D01*
X109662883Y-107804943D01*
X109925673Y-108068192D01*
X110269201Y-108210838D01*
X110641167Y-108211162D01*
X110984943Y-108069117D01*
X111248192Y-107806327D01*
X111390838Y-107462799D01*
X111391162Y-107090833D01*
X111249117Y-106747057D01*
X110986327Y-106483808D01*
X110642799Y-106341162D01*
X110270833Y-106340838D01*
X109927057Y-106482883D01*
X109663808Y-106745673D01*
X109521162Y-107089201D01*
X109520838Y-107461167D01*
X102117146Y-107461167D01*
X102028125Y-107371991D01*
X101592745Y-107191206D01*
X101121323Y-107190794D01*
X100685628Y-107370820D01*
X100351991Y-107703875D01*
X100171206Y-108139255D01*
X100170794Y-108610677D01*
X93141000Y-108610677D01*
X93141000Y-106091275D01*
X108464331Y-106091275D01*
X108526169Y-106327042D01*
X109027122Y-106503419D01*
X109557440Y-106474664D01*
X109913831Y-106327042D01*
X109975669Y-106091275D01*
X109220000Y-105335605D01*
X108464331Y-106091275D01*
X93141000Y-106091275D01*
X93141000Y-104963122D01*
X107872581Y-104963122D01*
X107901336Y-105493440D01*
X108048958Y-105849831D01*
X108284725Y-105911669D01*
X109040395Y-105156000D01*
X109399605Y-105156000D01*
X110155275Y-105911669D01*
X110391042Y-105849831D01*
X110488196Y-105573889D01*
X110627582Y-105911229D01*
X111002796Y-106287098D01*
X111493287Y-106490768D01*
X112024383Y-106491231D01*
X112515229Y-106288418D01*
X112891098Y-105913204D01*
X113023158Y-105595167D01*
X145622838Y-105595167D01*
X145764883Y-105938943D01*
X146027673Y-106202192D01*
X146371201Y-106344838D01*
X146743167Y-106345162D01*
X147086943Y-106203117D01*
X147350192Y-105940327D01*
X147492838Y-105596799D01*
X147493162Y-105224833D01*
X147351117Y-104881057D01*
X147176532Y-104706167D01*
X156925838Y-104706167D01*
X157067883Y-105049943D01*
X157330673Y-105313192D01*
X157674201Y-105455838D01*
X158046167Y-105456162D01*
X158389943Y-105314117D01*
X158653192Y-105051327D01*
X158795838Y-104707799D01*
X158796052Y-104461167D01*
X173820838Y-104461167D01*
X173962883Y-104804943D01*
X174225673Y-105068192D01*
X174569201Y-105210838D01*
X174941167Y-105211162D01*
X175284943Y-105069117D01*
X175548192Y-104806327D01*
X175690838Y-104462799D01*
X175691162Y-104090833D01*
X175549117Y-103747057D01*
X175286327Y-103483808D01*
X174942799Y-103341162D01*
X174570833Y-103340838D01*
X174227057Y-103482883D01*
X173963808Y-103745673D01*
X173821162Y-104089201D01*
X173820838Y-104461167D01*
X158796052Y-104461167D01*
X158796162Y-104335833D01*
X158654117Y-103992057D01*
X158391327Y-103728808D01*
X158047799Y-103586162D01*
X157675833Y-103585838D01*
X157332057Y-103727883D01*
X157068808Y-103990673D01*
X156926162Y-104334201D01*
X156925838Y-104706167D01*
X147176532Y-104706167D01*
X147088327Y-104617808D01*
X146744799Y-104475162D01*
X146372833Y-104474838D01*
X146029057Y-104616883D01*
X145765808Y-104879673D01*
X145623162Y-105223201D01*
X145622838Y-105595167D01*
X113023158Y-105595167D01*
X113094768Y-105422713D01*
X113095231Y-104891617D01*
X112892418Y-104400771D01*
X112517204Y-104024902D01*
X112026713Y-103821232D01*
X111495617Y-103820769D01*
X111004771Y-104023582D01*
X110628902Y-104398796D01*
X110496684Y-104717212D01*
X110391042Y-104462169D01*
X110155275Y-104400331D01*
X109399605Y-105156000D01*
X109040395Y-105156000D01*
X108284725Y-104400331D01*
X108048958Y-104462169D01*
X107872581Y-104963122D01*
X93141000Y-104963122D01*
X93141000Y-104220725D01*
X108464331Y-104220725D01*
X109220000Y-104976395D01*
X109975669Y-104220725D01*
X109913831Y-103984958D01*
X109437265Y-103817167D01*
X149178838Y-103817167D01*
X149320883Y-104160943D01*
X149583673Y-104424192D01*
X149927201Y-104566838D01*
X150299167Y-104567162D01*
X150642943Y-104425117D01*
X150906192Y-104162327D01*
X151048838Y-103818799D01*
X151049162Y-103446833D01*
X150907117Y-103103057D01*
X150644327Y-102839808D01*
X150300799Y-102697162D01*
X149928833Y-102696838D01*
X149585057Y-102838883D01*
X149321808Y-103101673D01*
X149179162Y-103445201D01*
X149178838Y-103817167D01*
X109437265Y-103817167D01*
X109412878Y-103808581D01*
X108882560Y-103837336D01*
X108526169Y-103984958D01*
X108464331Y-104220725D01*
X93141000Y-104220725D01*
X93141000Y-101102383D01*
X102042769Y-101102383D01*
X102245582Y-101593229D01*
X102620796Y-101969098D01*
X103111287Y-102172768D01*
X103642383Y-102173231D01*
X104133229Y-101970418D01*
X104330716Y-101773275D01*
X105162331Y-101773275D01*
X105224169Y-102009042D01*
X105725122Y-102185419D01*
X106255440Y-102156664D01*
X106611831Y-102009042D01*
X106673669Y-101773275D01*
X105918000Y-101017605D01*
X105162331Y-101773275D01*
X104330716Y-101773275D01*
X104509098Y-101595204D01*
X104641316Y-101276788D01*
X104746958Y-101531831D01*
X104982725Y-101593669D01*
X105738395Y-100838000D01*
X106097605Y-100838000D01*
X106853275Y-101593669D01*
X107089042Y-101531831D01*
X107240243Y-101102383D01*
X107757769Y-101102383D01*
X107960582Y-101593229D01*
X108335796Y-101969098D01*
X108826287Y-102172768D01*
X109357383Y-102173231D01*
X109848229Y-101970418D01*
X110045716Y-101773275D01*
X110877331Y-101773275D01*
X110939169Y-102009042D01*
X111440122Y-102185419D01*
X111970440Y-102156664D01*
X112326831Y-102009042D01*
X112388669Y-101773275D01*
X111633000Y-101017605D01*
X110877331Y-101773275D01*
X110045716Y-101773275D01*
X110224098Y-101595204D01*
X110356316Y-101276788D01*
X110461958Y-101531831D01*
X110697725Y-101593669D01*
X111453395Y-100838000D01*
X111812605Y-100838000D01*
X112568275Y-101593669D01*
X112804042Y-101531831D01*
X112980419Y-101030878D01*
X112980001Y-101023167D01*
X136605838Y-101023167D01*
X136747883Y-101366943D01*
X137010673Y-101630192D01*
X137354201Y-101772838D01*
X137726167Y-101773162D01*
X138069943Y-101631117D01*
X138333192Y-101368327D01*
X138475838Y-101024799D01*
X138476060Y-100769167D01*
X144606838Y-100769167D01*
X144748883Y-101112943D01*
X145011673Y-101376192D01*
X145355201Y-101518838D01*
X145727167Y-101519162D01*
X146070943Y-101377117D01*
X146334192Y-101114327D01*
X146476838Y-100770799D01*
X146477162Y-100398833D01*
X146378961Y-100161167D01*
X156820838Y-100161167D01*
X156962883Y-100504943D01*
X157225673Y-100768192D01*
X157569201Y-100910838D01*
X157941167Y-100911162D01*
X158284943Y-100769117D01*
X158548192Y-100506327D01*
X158690838Y-100162799D01*
X158691162Y-99790833D01*
X158549117Y-99447057D01*
X158286327Y-99183808D01*
X157942799Y-99041162D01*
X157570833Y-99040838D01*
X157227057Y-99182883D01*
X156963808Y-99445673D01*
X156821162Y-99789201D01*
X156820838Y-100161167D01*
X146378961Y-100161167D01*
X146335117Y-100055057D01*
X146072327Y-99791808D01*
X145728799Y-99649162D01*
X145356833Y-99648838D01*
X145013057Y-99790883D01*
X144749808Y-100053673D01*
X144607162Y-100397201D01*
X144606838Y-100769167D01*
X138476060Y-100769167D01*
X138476162Y-100652833D01*
X138334117Y-100309057D01*
X138071327Y-100045808D01*
X137727799Y-99903162D01*
X137355833Y-99902838D01*
X137012057Y-100044883D01*
X136748808Y-100307673D01*
X136606162Y-100651201D01*
X136605838Y-101023167D01*
X112980001Y-101023167D01*
X112951664Y-100500560D01*
X112804042Y-100144169D01*
X112568275Y-100082331D01*
X111812605Y-100838000D01*
X111453395Y-100838000D01*
X110697725Y-100082331D01*
X110461958Y-100144169D01*
X110364804Y-100420111D01*
X110225418Y-100082771D01*
X110045686Y-99902725D01*
X110877331Y-99902725D01*
X111633000Y-100658395D01*
X112388669Y-99902725D01*
X112326831Y-99666958D01*
X111850265Y-99499167D01*
X118190838Y-99499167D01*
X118332883Y-99842943D01*
X118595673Y-100106192D01*
X118939201Y-100248838D01*
X119311167Y-100249162D01*
X119654943Y-100107117D01*
X119918192Y-99844327D01*
X120060838Y-99500799D01*
X120061162Y-99128833D01*
X119919117Y-98785057D01*
X119656327Y-98521808D01*
X119312799Y-98379162D01*
X118940833Y-98378838D01*
X118597057Y-98520883D01*
X118333808Y-98783673D01*
X118191162Y-99127201D01*
X118190838Y-99499167D01*
X111850265Y-99499167D01*
X111825878Y-99490581D01*
X111295560Y-99519336D01*
X110939169Y-99666958D01*
X110877331Y-99902725D01*
X110045686Y-99902725D01*
X109850204Y-99706902D01*
X109359713Y-99503232D01*
X108828617Y-99502769D01*
X108337771Y-99705582D01*
X107961902Y-100080796D01*
X107758232Y-100571287D01*
X107757769Y-101102383D01*
X107240243Y-101102383D01*
X107265419Y-101030878D01*
X107236664Y-100500560D01*
X107089042Y-100144169D01*
X106853275Y-100082331D01*
X106097605Y-100838000D01*
X105738395Y-100838000D01*
X104982725Y-100082331D01*
X104746958Y-100144169D01*
X104649804Y-100420111D01*
X104510418Y-100082771D01*
X104330686Y-99902725D01*
X105162331Y-99902725D01*
X105918000Y-100658395D01*
X106673669Y-99902725D01*
X106611831Y-99666958D01*
X106110878Y-99490581D01*
X105580560Y-99519336D01*
X105224169Y-99666958D01*
X105162331Y-99902725D01*
X104330686Y-99902725D01*
X104135204Y-99706902D01*
X103644713Y-99503232D01*
X103113617Y-99502769D01*
X102622771Y-99705582D01*
X102246902Y-100080796D01*
X102043232Y-100571287D01*
X102042769Y-101102383D01*
X93141000Y-101102383D01*
X93141000Y-97461167D01*
X163120838Y-97461167D01*
X163262883Y-97804943D01*
X163525673Y-98068192D01*
X163869201Y-98210838D01*
X164241167Y-98211162D01*
X164584943Y-98069117D01*
X164793256Y-97861167D01*
X179120838Y-97861167D01*
X179262883Y-98204943D01*
X179525673Y-98468192D01*
X179869201Y-98610838D01*
X180241167Y-98611162D01*
X180584943Y-98469117D01*
X180848192Y-98206327D01*
X180990838Y-97862799D01*
X180991162Y-97490833D01*
X180849117Y-97147057D01*
X180586327Y-96883808D01*
X180242799Y-96741162D01*
X179870833Y-96740838D01*
X179527057Y-96882883D01*
X179263808Y-97145673D01*
X179121162Y-97489201D01*
X179120838Y-97861167D01*
X164793256Y-97861167D01*
X164848192Y-97806327D01*
X164990838Y-97462799D01*
X164991162Y-97090833D01*
X164936759Y-96959167D01*
X169498838Y-96959167D01*
X169640883Y-97302943D01*
X169903673Y-97566192D01*
X170247201Y-97708838D01*
X170619167Y-97709162D01*
X170962943Y-97567117D01*
X171226192Y-97304327D01*
X171368838Y-96960799D01*
X171369162Y-96588833D01*
X171227117Y-96245057D01*
X170964327Y-95981808D01*
X170620799Y-95839162D01*
X170248833Y-95838838D01*
X169905057Y-95980883D01*
X169641808Y-96243673D01*
X169499162Y-96587201D01*
X169498838Y-96959167D01*
X164936759Y-96959167D01*
X164849117Y-96747057D01*
X164586327Y-96483808D01*
X164242799Y-96341162D01*
X163870833Y-96340838D01*
X163527057Y-96482883D01*
X163263808Y-96745673D01*
X163121162Y-97089201D01*
X163120838Y-97461167D01*
X93141000Y-97461167D01*
X93141000Y-96451167D01*
X134700838Y-96451167D01*
X134842883Y-96794943D01*
X135105673Y-97058192D01*
X135449201Y-97200838D01*
X135821167Y-97201162D01*
X136164943Y-97059117D01*
X136428192Y-96796327D01*
X136570838Y-96452799D01*
X136571162Y-96080833D01*
X136429117Y-95737057D01*
X136166327Y-95473808D01*
X135822799Y-95331162D01*
X135450833Y-95330838D01*
X135107057Y-95472883D01*
X134843808Y-95735673D01*
X134701162Y-96079201D01*
X134700838Y-96451167D01*
X93141000Y-96451167D01*
X93141000Y-95161167D01*
X110420838Y-95161167D01*
X110562883Y-95504943D01*
X110825673Y-95768192D01*
X111169201Y-95910838D01*
X111541167Y-95911162D01*
X111884943Y-95769117D01*
X112148192Y-95506327D01*
X112177740Y-95435167D01*
X125937838Y-95435167D01*
X126079883Y-95778943D01*
X126342673Y-96042192D01*
X126686201Y-96184838D01*
X127058167Y-96185162D01*
X127401943Y-96043117D01*
X127665192Y-95780327D01*
X127755780Y-95562167D01*
X130001838Y-95562167D01*
X130143883Y-95905943D01*
X130406673Y-96169192D01*
X130750201Y-96311838D01*
X131122167Y-96312162D01*
X131465943Y-96170117D01*
X131729192Y-95907327D01*
X131871838Y-95563799D01*
X131872162Y-95191833D01*
X131730117Y-94848057D01*
X131543553Y-94661167D01*
X160120838Y-94661167D01*
X160262883Y-95004943D01*
X160525673Y-95268192D01*
X160869201Y-95410838D01*
X161241167Y-95411162D01*
X161584943Y-95269117D01*
X161848192Y-95006327D01*
X161990838Y-94662799D01*
X161990939Y-94546167D01*
X164291838Y-94546167D01*
X164433883Y-94889943D01*
X164696673Y-95153192D01*
X165040201Y-95295838D01*
X165412167Y-95296162D01*
X165755943Y-95154117D01*
X166019192Y-94891327D01*
X166161838Y-94547799D01*
X166161950Y-94419167D01*
X168736838Y-94419167D01*
X168878883Y-94762943D01*
X169141673Y-95026192D01*
X169485201Y-95168838D01*
X169857167Y-95169162D01*
X170200943Y-95027117D01*
X170464192Y-94764327D01*
X170606838Y-94420799D01*
X170607162Y-94048833D01*
X170465117Y-93705057D01*
X170202327Y-93441808D01*
X169858799Y-93299162D01*
X169486833Y-93298838D01*
X169143057Y-93440883D01*
X168879808Y-93703673D01*
X168737162Y-94047201D01*
X168736838Y-94419167D01*
X166161950Y-94419167D01*
X166162162Y-94175833D01*
X166020117Y-93832057D01*
X165757327Y-93568808D01*
X165413799Y-93426162D01*
X165041833Y-93425838D01*
X164698057Y-93567883D01*
X164434808Y-93830673D01*
X164292162Y-94174201D01*
X164291838Y-94546167D01*
X161990939Y-94546167D01*
X161991162Y-94290833D01*
X161849117Y-93947057D01*
X161586327Y-93683808D01*
X161242799Y-93541162D01*
X160870833Y-93540838D01*
X160527057Y-93682883D01*
X160263808Y-93945673D01*
X160121162Y-94289201D01*
X160120838Y-94661167D01*
X131543553Y-94661167D01*
X131467327Y-94584808D01*
X131123799Y-94442162D01*
X130751833Y-94441838D01*
X130408057Y-94583883D01*
X130144808Y-94846673D01*
X130002162Y-95190201D01*
X130001838Y-95562167D01*
X127755780Y-95562167D01*
X127807838Y-95436799D01*
X127808162Y-95064833D01*
X127666117Y-94721057D01*
X127403327Y-94457808D01*
X127059799Y-94315162D01*
X126687833Y-94314838D01*
X126344057Y-94456883D01*
X126080808Y-94719673D01*
X125938162Y-95063201D01*
X125937838Y-95435167D01*
X112177740Y-95435167D01*
X112290838Y-95162799D01*
X112291162Y-94790833D01*
X112149117Y-94447057D01*
X111886327Y-94183808D01*
X111542799Y-94041162D01*
X111170833Y-94040838D01*
X110827057Y-94182883D01*
X110563808Y-94445673D01*
X110421162Y-94789201D01*
X110420838Y-95161167D01*
X93141000Y-95161167D01*
X93141000Y-93530167D01*
X154385838Y-93530167D01*
X154527883Y-93873943D01*
X154790673Y-94137192D01*
X155134201Y-94279838D01*
X155506167Y-94280162D01*
X155849943Y-94138117D01*
X156113192Y-93875327D01*
X156255838Y-93531799D01*
X156256162Y-93159833D01*
X156199280Y-93022167D01*
X156417838Y-93022167D01*
X156559883Y-93365943D01*
X156822673Y-93629192D01*
X157166201Y-93771838D01*
X157538167Y-93772162D01*
X157881943Y-93630117D01*
X158145192Y-93367327D01*
X158287838Y-93023799D01*
X158288162Y-92651833D01*
X158146117Y-92308057D01*
X157883327Y-92044808D01*
X157539799Y-91902162D01*
X157167833Y-91901838D01*
X156824057Y-92043883D01*
X156560808Y-92306673D01*
X156418162Y-92650201D01*
X156417838Y-93022167D01*
X156199280Y-93022167D01*
X156114117Y-92816057D01*
X155851327Y-92552808D01*
X155507799Y-92410162D01*
X155135833Y-92409838D01*
X154792057Y-92551883D01*
X154528808Y-92814673D01*
X154386162Y-93158201D01*
X154385838Y-93530167D01*
X93141000Y-93530167D01*
X93141000Y-92641167D01*
X139780838Y-92641167D01*
X139922883Y-92984943D01*
X140185673Y-93248192D01*
X140529201Y-93390838D01*
X140901167Y-93391162D01*
X141244943Y-93249117D01*
X141508192Y-92986327D01*
X141650838Y-92642799D01*
X141651162Y-92270833D01*
X141509117Y-91927057D01*
X141246327Y-91663808D01*
X140902799Y-91521162D01*
X140530833Y-91520838D01*
X140187057Y-91662883D01*
X139923808Y-91925673D01*
X139781162Y-92269201D01*
X139780838Y-92641167D01*
X93141000Y-92641167D01*
X93141000Y-91752167D01*
X115777838Y-91752167D01*
X115919883Y-92095943D01*
X116182673Y-92359192D01*
X116526201Y-92501838D01*
X116898167Y-92502162D01*
X117241943Y-92360117D01*
X117505192Y-92097327D01*
X117647838Y-91753799D01*
X117648162Y-91381833D01*
X117506117Y-91038057D01*
X117243327Y-90774808D01*
X116899799Y-90632162D01*
X116527833Y-90631838D01*
X116184057Y-90773883D01*
X115920808Y-91036673D01*
X115778162Y-91380201D01*
X115777838Y-91752167D01*
X93141000Y-91752167D01*
X93141000Y-89847167D01*
X109808838Y-89847167D01*
X109950883Y-90190943D01*
X110213673Y-90454192D01*
X110557201Y-90596838D01*
X110929167Y-90597162D01*
X111272943Y-90455117D01*
X111536192Y-90192327D01*
X111626780Y-89974167D01*
X113745838Y-89974167D01*
X113887883Y-90317943D01*
X114150673Y-90581192D01*
X114494201Y-90723838D01*
X114866167Y-90724162D01*
X115209943Y-90582117D01*
X115306060Y-90486167D01*
X131645838Y-90486167D01*
X131787883Y-90829943D01*
X132050673Y-91093192D01*
X132394201Y-91235838D01*
X132766167Y-91236162D01*
X133109943Y-91094117D01*
X133373192Y-90831327D01*
X133465441Y-90609167D01*
X140542838Y-90609167D01*
X140684883Y-90952943D01*
X140947673Y-91216192D01*
X141291201Y-91358838D01*
X141663167Y-91359162D01*
X141749759Y-91323383D01*
X170876769Y-91323383D01*
X171079582Y-91814229D01*
X171454796Y-92190098D01*
X171945287Y-92393768D01*
X172476383Y-92394231D01*
X172967229Y-92191418D01*
X173343098Y-91816204D01*
X173461525Y-91531000D01*
X176989560Y-91531000D01*
X176989560Y-93381000D01*
X177038843Y-93628765D01*
X177179191Y-93838809D01*
X177389235Y-93979157D01*
X177637000Y-94028440D01*
X179487000Y-94028440D01*
X179734765Y-93979157D01*
X179944809Y-93838809D01*
X180085157Y-93628765D01*
X180134440Y-93381000D01*
X180134440Y-91531000D01*
X180085157Y-91283235D01*
X179944809Y-91073191D01*
X179768782Y-90955573D01*
X179883732Y-90840823D01*
X180121728Y-90267664D01*
X180122270Y-89647058D01*
X179885275Y-89073486D01*
X179446823Y-88634268D01*
X178873664Y-88396272D01*
X178253058Y-88395730D01*
X177679486Y-88632725D01*
X177240268Y-89071177D01*
X177002272Y-89644336D01*
X177001730Y-90264942D01*
X177238725Y-90838514D01*
X177355435Y-90955428D01*
X177179191Y-91073191D01*
X177038843Y-91283235D01*
X176989560Y-91531000D01*
X173461525Y-91531000D01*
X173546768Y-91325713D01*
X173547231Y-90794617D01*
X173344418Y-90303771D01*
X172969204Y-89927902D01*
X172650788Y-89795684D01*
X172905831Y-89690042D01*
X172967669Y-89454275D01*
X172212000Y-88698605D01*
X171456331Y-89454275D01*
X171518169Y-89690042D01*
X171794111Y-89787196D01*
X171456771Y-89926582D01*
X171080902Y-90301796D01*
X170877232Y-90792287D01*
X170876769Y-91323383D01*
X141749759Y-91323383D01*
X142006943Y-91217117D01*
X142270192Y-90954327D01*
X142412838Y-90610799D01*
X142413060Y-90355167D01*
X148035838Y-90355167D01*
X148177883Y-90698943D01*
X148440673Y-90962192D01*
X148784201Y-91104838D01*
X149156167Y-91105162D01*
X149499943Y-90963117D01*
X149763192Y-90700327D01*
X149905838Y-90356799D01*
X149906060Y-90101167D01*
X160735838Y-90101167D01*
X160877883Y-90444943D01*
X161140673Y-90708192D01*
X161484201Y-90850838D01*
X161856167Y-90851162D01*
X162199943Y-90709117D01*
X162463192Y-90446327D01*
X162605838Y-90102799D01*
X162606162Y-89730833D01*
X162464117Y-89387057D01*
X162201327Y-89123808D01*
X161857799Y-88981162D01*
X161485833Y-88980838D01*
X161142057Y-89122883D01*
X160878808Y-89385673D01*
X160736162Y-89729201D01*
X160735838Y-90101167D01*
X149906060Y-90101167D01*
X149906162Y-89984833D01*
X149764117Y-89641057D01*
X149501327Y-89377808D01*
X149157799Y-89235162D01*
X148785833Y-89234838D01*
X148442057Y-89376883D01*
X148178808Y-89639673D01*
X148036162Y-89983201D01*
X148035838Y-90355167D01*
X142413060Y-90355167D01*
X142413162Y-90238833D01*
X142271117Y-89895057D01*
X142008327Y-89631808D01*
X141664799Y-89489162D01*
X141292833Y-89488838D01*
X140949057Y-89630883D01*
X140685808Y-89893673D01*
X140543162Y-90237201D01*
X140542838Y-90609167D01*
X133465441Y-90609167D01*
X133515838Y-90487799D01*
X133516162Y-90115833D01*
X133374117Y-89772057D01*
X133322318Y-89720167D01*
X135335838Y-89720167D01*
X135477883Y-90063943D01*
X135740673Y-90327192D01*
X136084201Y-90469838D01*
X136456167Y-90470162D01*
X136799943Y-90328117D01*
X137063192Y-90065327D01*
X137205838Y-89721799D01*
X137206162Y-89349833D01*
X137064117Y-89006057D01*
X136889532Y-88831167D01*
X139018838Y-88831167D01*
X139160883Y-89174943D01*
X139423673Y-89438192D01*
X139767201Y-89580838D01*
X140139167Y-89581162D01*
X140482943Y-89439117D01*
X140746192Y-89176327D01*
X140888838Y-88832799D01*
X140889162Y-88460833D01*
X140832280Y-88323167D01*
X141431838Y-88323167D01*
X141573883Y-88666943D01*
X141836673Y-88930192D01*
X142180201Y-89072838D01*
X142552167Y-89073162D01*
X142895943Y-88931117D01*
X143159192Y-88668327D01*
X143301838Y-88324799D01*
X143301839Y-88323167D01*
X156798838Y-88323167D01*
X156940883Y-88666943D01*
X157203673Y-88930192D01*
X157547201Y-89072838D01*
X157919167Y-89073162D01*
X158262943Y-88931117D01*
X158526192Y-88668327D01*
X158668288Y-88326122D01*
X170864581Y-88326122D01*
X170893336Y-88856440D01*
X171040958Y-89212831D01*
X171276725Y-89274669D01*
X172032395Y-88519000D01*
X172391605Y-88519000D01*
X173147275Y-89274669D01*
X173383042Y-89212831D01*
X173559419Y-88711878D01*
X173530664Y-88181560D01*
X173383042Y-87825169D01*
X173147275Y-87763331D01*
X172391605Y-88519000D01*
X172032395Y-88519000D01*
X171276725Y-87763331D01*
X171040958Y-87825169D01*
X170864581Y-88326122D01*
X158668288Y-88326122D01*
X158668838Y-88324799D01*
X158669162Y-87952833D01*
X158527117Y-87609057D01*
X158501830Y-87583725D01*
X171456331Y-87583725D01*
X172212000Y-88339395D01*
X172967669Y-87583725D01*
X172905831Y-87347958D01*
X172404878Y-87171581D01*
X171874560Y-87200336D01*
X171518169Y-87347958D01*
X171456331Y-87583725D01*
X158501830Y-87583725D01*
X158264327Y-87345808D01*
X157920799Y-87203162D01*
X157548833Y-87202838D01*
X157205057Y-87344883D01*
X156941808Y-87607673D01*
X156799162Y-87951201D01*
X156798838Y-88323167D01*
X143301839Y-88323167D01*
X143302162Y-87952833D01*
X143160117Y-87609057D01*
X142897327Y-87345808D01*
X142804270Y-87307167D01*
X144251238Y-87307167D01*
X144393283Y-87650943D01*
X144656073Y-87914192D01*
X144999601Y-88056838D01*
X145371567Y-88057162D01*
X145715343Y-87915117D01*
X145978592Y-87652327D01*
X146121238Y-87308799D01*
X146121549Y-86951567D01*
X150245638Y-86951567D01*
X150387683Y-87295343D01*
X150650473Y-87558592D01*
X150994001Y-87701238D01*
X151365967Y-87701562D01*
X151709743Y-87559517D01*
X151972992Y-87296727D01*
X152115638Y-86953199D01*
X152115962Y-86581233D01*
X151996110Y-86291167D01*
X173308838Y-86291167D01*
X173450883Y-86634943D01*
X173713673Y-86898192D01*
X174057201Y-87040838D01*
X174429167Y-87041162D01*
X174772943Y-86899117D01*
X175036192Y-86636327D01*
X175178838Y-86292799D01*
X175179162Y-85920833D01*
X175037117Y-85577057D01*
X174774327Y-85313808D01*
X174430799Y-85171162D01*
X174058833Y-85170838D01*
X173715057Y-85312883D01*
X173451808Y-85575673D01*
X173309162Y-85919201D01*
X173308838Y-86291167D01*
X151996110Y-86291167D01*
X151973917Y-86237457D01*
X151711127Y-85974208D01*
X151367599Y-85831562D01*
X150995633Y-85831238D01*
X150651857Y-85973283D01*
X150388608Y-86236073D01*
X150245962Y-86579601D01*
X150245638Y-86951567D01*
X146121549Y-86951567D01*
X146121562Y-86936833D01*
X145979517Y-86593057D01*
X145716727Y-86329808D01*
X145373199Y-86187162D01*
X145001233Y-86186838D01*
X144657457Y-86328883D01*
X144394208Y-86591673D01*
X144251562Y-86935201D01*
X144251238Y-87307167D01*
X142804270Y-87307167D01*
X142553799Y-87203162D01*
X142181833Y-87202838D01*
X141838057Y-87344883D01*
X141574808Y-87607673D01*
X141432162Y-87951201D01*
X141431838Y-88323167D01*
X140832280Y-88323167D01*
X140747117Y-88117057D01*
X140484327Y-87853808D01*
X140140799Y-87711162D01*
X139768833Y-87710838D01*
X139425057Y-87852883D01*
X139161808Y-88115673D01*
X139019162Y-88459201D01*
X139018838Y-88831167D01*
X136889532Y-88831167D01*
X136801327Y-88742808D01*
X136457799Y-88600162D01*
X136085833Y-88599838D01*
X135742057Y-88741883D01*
X135478808Y-89004673D01*
X135336162Y-89348201D01*
X135335838Y-89720167D01*
X133322318Y-89720167D01*
X133183249Y-89580855D01*
X133535167Y-89581162D01*
X133878943Y-89439117D01*
X134142192Y-89176327D01*
X134284838Y-88832799D01*
X134285162Y-88460833D01*
X134143117Y-88117057D01*
X133880327Y-87853808D01*
X133536799Y-87711162D01*
X133164833Y-87710838D01*
X132821057Y-87852883D01*
X132557808Y-88115673D01*
X132415162Y-88459201D01*
X132414838Y-88831167D01*
X132556883Y-89174943D01*
X132747751Y-89366145D01*
X132395833Y-89365838D01*
X132052057Y-89507883D01*
X131788808Y-89770673D01*
X131646162Y-90114201D01*
X131645838Y-90486167D01*
X115306060Y-90486167D01*
X115473192Y-90319327D01*
X115615838Y-89975799D01*
X115616162Y-89603833D01*
X115474117Y-89260057D01*
X115211327Y-88996808D01*
X114867799Y-88854162D01*
X114495833Y-88853838D01*
X114152057Y-88995883D01*
X113888808Y-89258673D01*
X113746162Y-89602201D01*
X113745838Y-89974167D01*
X111626780Y-89974167D01*
X111678838Y-89848799D01*
X111679162Y-89476833D01*
X111537117Y-89133057D01*
X111274327Y-88869808D01*
X110930799Y-88727162D01*
X110558833Y-88726838D01*
X110215057Y-88868883D01*
X109951808Y-89131673D01*
X109809162Y-89475201D01*
X109808838Y-89847167D01*
X93141000Y-89847167D01*
X93141000Y-88561176D01*
X122120838Y-88561176D01*
X122262883Y-88904952D01*
X122525673Y-89168201D01*
X122869201Y-89310847D01*
X123241167Y-89311171D01*
X123584943Y-89169126D01*
X123848192Y-88906336D01*
X123990838Y-88562808D01*
X123991162Y-88190842D01*
X123849117Y-87847066D01*
X123817274Y-87815167D01*
X125556838Y-87815167D01*
X125698883Y-88158943D01*
X125961673Y-88422192D01*
X126305201Y-88564838D01*
X126677167Y-88565162D01*
X127020943Y-88423117D01*
X127284192Y-88160327D01*
X127426838Y-87816799D01*
X127427162Y-87444833D01*
X127285117Y-87101057D01*
X127022327Y-86837808D01*
X126678799Y-86695162D01*
X126306833Y-86694838D01*
X125963057Y-86836883D01*
X125699808Y-87099673D01*
X125557162Y-87443201D01*
X125556838Y-87815167D01*
X123817274Y-87815167D01*
X123586327Y-87583817D01*
X123242799Y-87441171D01*
X122870833Y-87440847D01*
X122527057Y-87582892D01*
X122263808Y-87845682D01*
X122121162Y-88189210D01*
X122120838Y-88561176D01*
X93141000Y-88561176D01*
X93141000Y-87561167D01*
X107649838Y-87561167D01*
X107791883Y-87904943D01*
X108054673Y-88168192D01*
X108398201Y-88310838D01*
X108770167Y-88311162D01*
X109113943Y-88169117D01*
X109377192Y-87906327D01*
X109519838Y-87562799D01*
X109520162Y-87190833D01*
X109378117Y-86847057D01*
X109115327Y-86583808D01*
X108771799Y-86441162D01*
X108399833Y-86440838D01*
X108056057Y-86582883D01*
X107792808Y-86845673D01*
X107650162Y-87189201D01*
X107649838Y-87561167D01*
X93141000Y-87561167D01*
X93141000Y-85236167D01*
X110620838Y-85236167D01*
X110762883Y-85579943D01*
X111025673Y-85843192D01*
X111369201Y-85985838D01*
X111741167Y-85986162D01*
X112084943Y-85844117D01*
X112102591Y-85826499D01*
X112569325Y-85826499D01*
X112711370Y-86170275D01*
X112974160Y-86433524D01*
X113317688Y-86576170D01*
X113689654Y-86576494D01*
X114033430Y-86434449D01*
X114296679Y-86171659D01*
X114439325Y-85828131D01*
X114439649Y-85456165D01*
X114297604Y-85112389D01*
X114257253Y-85071967D01*
X145572038Y-85071967D01*
X145714083Y-85415743D01*
X145976873Y-85678992D01*
X146320401Y-85821638D01*
X146692367Y-85821962D01*
X147036143Y-85679917D01*
X147299392Y-85417127D01*
X147442038Y-85073599D01*
X147442362Y-84701633D01*
X147300317Y-84357857D01*
X147037527Y-84094608D01*
X146693999Y-83951962D01*
X146322033Y-83951638D01*
X145978257Y-84093683D01*
X145715008Y-84356473D01*
X145572362Y-84700001D01*
X145572038Y-85071967D01*
X114257253Y-85071967D01*
X114034814Y-84849140D01*
X113691286Y-84706494D01*
X113319320Y-84706170D01*
X112975544Y-84848215D01*
X112712295Y-85111005D01*
X112569649Y-85454533D01*
X112569325Y-85826499D01*
X112102591Y-85826499D01*
X112348192Y-85581327D01*
X112490838Y-85237799D01*
X112491162Y-84865833D01*
X112349117Y-84522057D01*
X112086327Y-84258808D01*
X111742799Y-84116162D01*
X111370833Y-84115838D01*
X111027057Y-84257883D01*
X110763808Y-84520673D01*
X110621162Y-84864201D01*
X110620838Y-85236167D01*
X93141000Y-85236167D01*
X93141000Y-84005167D01*
X126191838Y-84005167D01*
X126333883Y-84348943D01*
X126596673Y-84612192D01*
X126940201Y-84754838D01*
X127312167Y-84755162D01*
X127655943Y-84613117D01*
X127919192Y-84350327D01*
X128061838Y-84006799D01*
X128061964Y-83861167D01*
X148220838Y-83861167D01*
X148362883Y-84204943D01*
X148625673Y-84468192D01*
X148969201Y-84610838D01*
X149341167Y-84611162D01*
X149684943Y-84469117D01*
X149948192Y-84206327D01*
X150090838Y-83862799D01*
X150090839Y-83861167D01*
X160320838Y-83861167D01*
X160462883Y-84204943D01*
X160725673Y-84468192D01*
X161069201Y-84610838D01*
X161441167Y-84611162D01*
X161784943Y-84469117D01*
X162048192Y-84206327D01*
X162190838Y-83862799D01*
X162191162Y-83490833D01*
X162049117Y-83147057D01*
X161786327Y-82883808D01*
X161442799Y-82741162D01*
X161070833Y-82740838D01*
X160727057Y-82882883D01*
X160463808Y-83145673D01*
X160321162Y-83489201D01*
X160320838Y-83861167D01*
X150090839Y-83861167D01*
X150091162Y-83490833D01*
X149949117Y-83147057D01*
X149686327Y-82883808D01*
X149342799Y-82741162D01*
X148970833Y-82740838D01*
X148627057Y-82882883D01*
X148363808Y-83145673D01*
X148221162Y-83489201D01*
X148220838Y-83861167D01*
X128061964Y-83861167D01*
X128062162Y-83634833D01*
X127920117Y-83291057D01*
X127864183Y-83235025D01*
X127909943Y-83216117D01*
X128173192Y-82953327D01*
X128315838Y-82609799D01*
X128316162Y-82237833D01*
X128174117Y-81894057D01*
X127911327Y-81630808D01*
X127567799Y-81488162D01*
X127195833Y-81487838D01*
X126852057Y-81629883D01*
X126588808Y-81892673D01*
X126446162Y-82236201D01*
X126445838Y-82608167D01*
X126587883Y-82951943D01*
X126643817Y-83007975D01*
X126598057Y-83026883D01*
X126334808Y-83289673D01*
X126192162Y-83633201D01*
X126191838Y-84005167D01*
X93141000Y-84005167D01*
X93141000Y-81465167D01*
X118063838Y-81465167D01*
X118205883Y-81808943D01*
X118468673Y-82072192D01*
X118812201Y-82214838D01*
X119184167Y-82215162D01*
X119527943Y-82073117D01*
X119791192Y-81810327D01*
X119933838Y-81466799D01*
X119934162Y-81094833D01*
X119877280Y-80957167D01*
X124413838Y-80957167D01*
X124555883Y-81300943D01*
X124818673Y-81564192D01*
X125162201Y-81706838D01*
X125534167Y-81707162D01*
X125877943Y-81565117D01*
X125978067Y-81465167D01*
X142828838Y-81465167D01*
X142970883Y-81808943D01*
X143233673Y-82072192D01*
X143577201Y-82214838D01*
X143844959Y-82215071D01*
X143844838Y-82354167D01*
X143986883Y-82697943D01*
X144249673Y-82961192D01*
X144593201Y-83103838D01*
X144965167Y-83104162D01*
X145308943Y-82962117D01*
X145572192Y-82699327D01*
X145714838Y-82355799D01*
X145715162Y-81983833D01*
X145573117Y-81640057D01*
X145310327Y-81376808D01*
X144966799Y-81234162D01*
X144699041Y-81233929D01*
X144699162Y-81094833D01*
X144557117Y-80751057D01*
X144294327Y-80487808D01*
X143950799Y-80345162D01*
X143578833Y-80344838D01*
X143235057Y-80486883D01*
X142971808Y-80749673D01*
X142829162Y-81093201D01*
X142828838Y-81465167D01*
X125978067Y-81465167D01*
X126141192Y-81302327D01*
X126283838Y-80958799D01*
X126284162Y-80586833D01*
X126142117Y-80243057D01*
X125960545Y-80061167D01*
X144820838Y-80061167D01*
X144962883Y-80404943D01*
X145225673Y-80668192D01*
X145569201Y-80810838D01*
X145941167Y-80811162D01*
X146284943Y-80669117D01*
X146548192Y-80406327D01*
X146690838Y-80062799D01*
X146691162Y-79690833D01*
X146596267Y-79461167D01*
X159620838Y-79461167D01*
X159762883Y-79804943D01*
X160025673Y-80068192D01*
X160369201Y-80210838D01*
X160521143Y-80210970D01*
X160520838Y-80561167D01*
X160553823Y-80640997D01*
X160370833Y-80640838D01*
X160027057Y-80782883D01*
X159763808Y-81045673D01*
X159621162Y-81389201D01*
X159620838Y-81761167D01*
X159762883Y-82104943D01*
X160025673Y-82368192D01*
X160369201Y-82510838D01*
X160741167Y-82511162D01*
X161084943Y-82369117D01*
X161348192Y-82106327D01*
X161490838Y-81762799D01*
X161491162Y-81390833D01*
X161458177Y-81311003D01*
X161641167Y-81311162D01*
X161984943Y-81169117D01*
X162037151Y-81117000D01*
X176989560Y-81117000D01*
X176989560Y-82967000D01*
X177038843Y-83214765D01*
X177179191Y-83424809D01*
X177389235Y-83565157D01*
X177637000Y-83614440D01*
X179487000Y-83614440D01*
X179734765Y-83565157D01*
X179944809Y-83424809D01*
X180085157Y-83214765D01*
X180134440Y-82967000D01*
X180134440Y-82326000D01*
X181772887Y-82326000D01*
X181882120Y-82875151D01*
X182193189Y-83340698D01*
X182575275Y-83596000D01*
X182193189Y-83851302D01*
X181882120Y-84316849D01*
X181772887Y-84866000D01*
X181882120Y-85415151D01*
X182193189Y-85880698D01*
X182575275Y-86136000D01*
X182193189Y-86391302D01*
X181882120Y-86856849D01*
X181772887Y-87406000D01*
X181882120Y-87955151D01*
X182193189Y-88420698D01*
X182658736Y-88731767D01*
X183207887Y-88841000D01*
X183264113Y-88841000D01*
X183813264Y-88731767D01*
X184278811Y-88420698D01*
X184589880Y-87955151D01*
X184699113Y-87406000D01*
X184589880Y-86856849D01*
X184278811Y-86391302D01*
X183896725Y-86136000D01*
X184278811Y-85880698D01*
X184589880Y-85415151D01*
X184699113Y-84866000D01*
X184589880Y-84316849D01*
X184278811Y-83851302D01*
X183896725Y-83596000D01*
X184278811Y-83340698D01*
X184589880Y-82875151D01*
X184699113Y-82326000D01*
X189392887Y-82326000D01*
X189502120Y-82875151D01*
X189813189Y-83340698D01*
X190195275Y-83596000D01*
X189813189Y-83851302D01*
X189502120Y-84316849D01*
X189392887Y-84866000D01*
X189502120Y-85415151D01*
X189813189Y-85880698D01*
X190195275Y-86136000D01*
X189813189Y-86391302D01*
X189502120Y-86856849D01*
X189392887Y-87406000D01*
X189502120Y-87955151D01*
X189813189Y-88420698D01*
X190278736Y-88731767D01*
X190827887Y-88841000D01*
X190884113Y-88841000D01*
X191433264Y-88731767D01*
X191898811Y-88420698D01*
X192209880Y-87955151D01*
X192319113Y-87406000D01*
X192209880Y-86856849D01*
X191898811Y-86391302D01*
X191516725Y-86136000D01*
X191898811Y-85880698D01*
X192209880Y-85415151D01*
X192319113Y-84866000D01*
X192209880Y-84316849D01*
X191898811Y-83851302D01*
X191516725Y-83596000D01*
X191898811Y-83340698D01*
X192209880Y-82875151D01*
X192319113Y-82326000D01*
X192209880Y-81776849D01*
X191898811Y-81311302D01*
X191433264Y-81000233D01*
X190884113Y-80891000D01*
X190827887Y-80891000D01*
X190278736Y-81000233D01*
X189813189Y-81311302D01*
X189502120Y-81776849D01*
X189392887Y-82326000D01*
X184699113Y-82326000D01*
X184589880Y-81776849D01*
X184278811Y-81311302D01*
X183813264Y-81000233D01*
X183264113Y-80891000D01*
X183207887Y-80891000D01*
X182658736Y-81000233D01*
X182193189Y-81311302D01*
X181882120Y-81776849D01*
X181772887Y-82326000D01*
X180134440Y-82326000D01*
X180134440Y-81117000D01*
X180085157Y-80869235D01*
X179944809Y-80659191D01*
X179768782Y-80541573D01*
X179883732Y-80426823D01*
X180121728Y-79853664D01*
X180122270Y-79233058D01*
X179885275Y-78659486D01*
X179518174Y-78291744D01*
X179883732Y-77926823D01*
X180121728Y-77353664D01*
X180122270Y-76733058D01*
X179885275Y-76159486D01*
X179518174Y-75791744D01*
X179883732Y-75426823D01*
X180121728Y-74853664D01*
X180122270Y-74233058D01*
X179885275Y-73659486D01*
X179446823Y-73220268D01*
X178873664Y-72982272D01*
X178253058Y-72981730D01*
X177679486Y-73218725D01*
X177240268Y-73657177D01*
X177002272Y-74230336D01*
X177001730Y-74850942D01*
X177238725Y-75424514D01*
X177605826Y-75792256D01*
X177240268Y-76157177D01*
X177002272Y-76730336D01*
X177001730Y-77350942D01*
X177238725Y-77924514D01*
X177605826Y-78292256D01*
X177240268Y-78657177D01*
X177002272Y-79230336D01*
X177001730Y-79850942D01*
X177238725Y-80424514D01*
X177355435Y-80541428D01*
X177179191Y-80659191D01*
X177038843Y-80869235D01*
X176989560Y-81117000D01*
X162037151Y-81117000D01*
X162248192Y-80906327D01*
X162390838Y-80562799D01*
X162391162Y-80190833D01*
X162287679Y-79940383D01*
X167120769Y-79940383D01*
X167323582Y-80431229D01*
X167698796Y-80807098D01*
X168189287Y-81010768D01*
X168720383Y-81011231D01*
X169211229Y-80808418D01*
X169587098Y-80433204D01*
X169790768Y-79942713D01*
X169791231Y-79411617D01*
X169588418Y-78920771D01*
X169213204Y-78544902D01*
X168894788Y-78412684D01*
X169149831Y-78307042D01*
X169211669Y-78071275D01*
X168456000Y-77315605D01*
X167700331Y-78071275D01*
X167762169Y-78307042D01*
X168038111Y-78404196D01*
X167700771Y-78543582D01*
X167324902Y-78918796D01*
X167121232Y-79409287D01*
X167120769Y-79940383D01*
X162287679Y-79940383D01*
X162249117Y-79847057D01*
X161986327Y-79583808D01*
X161642799Y-79441162D01*
X161490857Y-79441030D01*
X161491162Y-79090833D01*
X161349117Y-78747057D01*
X161086327Y-78483808D01*
X160742799Y-78341162D01*
X160370833Y-78340838D01*
X160027057Y-78482883D01*
X159763808Y-78745673D01*
X159621162Y-79089201D01*
X159620838Y-79461167D01*
X146596267Y-79461167D01*
X146549117Y-79347057D01*
X146286327Y-79083808D01*
X145942799Y-78941162D01*
X145570833Y-78940838D01*
X145227057Y-79082883D01*
X144963808Y-79345673D01*
X144821162Y-79689201D01*
X144820838Y-80061167D01*
X125960545Y-80061167D01*
X125879327Y-79979808D01*
X125535799Y-79837162D01*
X125163833Y-79836838D01*
X124820057Y-79978883D01*
X124556808Y-80241673D01*
X124414162Y-80585201D01*
X124413838Y-80957167D01*
X119877280Y-80957167D01*
X119792117Y-80751057D01*
X119529327Y-80487808D01*
X119185799Y-80345162D01*
X118813833Y-80344838D01*
X118470057Y-80486883D01*
X118206808Y-80749673D01*
X118064162Y-81093201D01*
X118063838Y-81465167D01*
X93141000Y-81465167D01*
X93141000Y-80449167D01*
X113872838Y-80449167D01*
X114014883Y-80792943D01*
X114277673Y-81056192D01*
X114621201Y-81198838D01*
X114993167Y-81199162D01*
X115336943Y-81057117D01*
X115600192Y-80794327D01*
X115742838Y-80450799D01*
X115743162Y-80078833D01*
X115601117Y-79735057D01*
X115338327Y-79471808D01*
X114994799Y-79329162D01*
X114622833Y-79328838D01*
X114279057Y-79470883D01*
X114015808Y-79733673D01*
X113873162Y-80077201D01*
X113872838Y-80449167D01*
X93141000Y-80449167D01*
X93141000Y-78544167D01*
X123016838Y-78544167D01*
X123158883Y-78887943D01*
X123421673Y-79151192D01*
X123765201Y-79293838D01*
X124137167Y-79294162D01*
X124480943Y-79152117D01*
X124744192Y-78889327D01*
X124886838Y-78545799D01*
X124887162Y-78173833D01*
X124777805Y-77909167D01*
X128350838Y-77909167D01*
X128492883Y-78252943D01*
X128755673Y-78516192D01*
X129099201Y-78658838D01*
X129471167Y-78659162D01*
X129814943Y-78517117D01*
X130078192Y-78254327D01*
X130116045Y-78163167D01*
X148874038Y-78163167D01*
X149016083Y-78506943D01*
X149278873Y-78770192D01*
X149622401Y-78912838D01*
X149994367Y-78913162D01*
X150285300Y-78792951D01*
X150569201Y-78910838D01*
X150941167Y-78911162D01*
X151284943Y-78769117D01*
X151548192Y-78506327D01*
X151690838Y-78162799D01*
X151691162Y-77790833D01*
X151549117Y-77447057D01*
X151286327Y-77183808D01*
X150942799Y-77041162D01*
X150570833Y-77040838D01*
X150279900Y-77161049D01*
X149995999Y-77043162D01*
X149624033Y-77042838D01*
X149280257Y-77184883D01*
X149017008Y-77447673D01*
X148874362Y-77791201D01*
X148874038Y-78163167D01*
X130116045Y-78163167D01*
X130220838Y-77910799D01*
X130221162Y-77538833D01*
X130079117Y-77195057D01*
X129904532Y-77020167D01*
X130255838Y-77020167D01*
X130397883Y-77363943D01*
X130660673Y-77627192D01*
X131004201Y-77769838D01*
X131376167Y-77770162D01*
X131719943Y-77628117D01*
X131983192Y-77365327D01*
X132125838Y-77021799D01*
X132126026Y-76806221D01*
X132311673Y-76992192D01*
X132655201Y-77134838D01*
X133027167Y-77135162D01*
X133370943Y-76993117D01*
X133634192Y-76730327D01*
X133776838Y-76386799D01*
X133777162Y-76014833D01*
X133635117Y-75671057D01*
X133393283Y-75428801D01*
X133522838Y-75116799D01*
X133523162Y-74744833D01*
X133381117Y-74401057D01*
X133333311Y-74353167D01*
X143082838Y-74353167D01*
X143224883Y-74696943D01*
X143466717Y-74939199D01*
X143337162Y-75251201D01*
X143336838Y-75623167D01*
X143478883Y-75966943D01*
X143741673Y-76230192D01*
X143863706Y-76280865D01*
X143832833Y-76280838D01*
X143489057Y-76422883D01*
X143225808Y-76685673D01*
X143083162Y-77029201D01*
X143082838Y-77401167D01*
X143224883Y-77744943D01*
X143487673Y-78008192D01*
X143831201Y-78150838D01*
X144203167Y-78151162D01*
X144546943Y-78009117D01*
X144810192Y-77746327D01*
X144952838Y-77402799D01*
X144953162Y-77030833D01*
X144916921Y-76943122D01*
X167108581Y-76943122D01*
X167137336Y-77473440D01*
X167284958Y-77829831D01*
X167520725Y-77891669D01*
X168276395Y-77136000D01*
X168635605Y-77136000D01*
X169391275Y-77891669D01*
X169627042Y-77829831D01*
X169803419Y-77328878D01*
X169774664Y-76798560D01*
X169627042Y-76442169D01*
X169391275Y-76380331D01*
X168635605Y-77136000D01*
X168276395Y-77136000D01*
X167520725Y-76380331D01*
X167284958Y-76442169D01*
X167108581Y-76943122D01*
X144916921Y-76943122D01*
X144811117Y-76687057D01*
X144548327Y-76423808D01*
X144426294Y-76373135D01*
X144457167Y-76373162D01*
X144800943Y-76231117D01*
X144831388Y-76200725D01*
X167700331Y-76200725D01*
X168456000Y-76956395D01*
X169211669Y-76200725D01*
X169149831Y-75964958D01*
X168648878Y-75788581D01*
X168118560Y-75817336D01*
X167762169Y-75964958D01*
X167700331Y-76200725D01*
X144831388Y-76200725D01*
X145064192Y-75968327D01*
X145206838Y-75624799D01*
X145207162Y-75252833D01*
X145065117Y-74909057D01*
X144823283Y-74666801D01*
X144869139Y-74556367D01*
X156951238Y-74556367D01*
X157093283Y-74900143D01*
X157356073Y-75163392D01*
X157699601Y-75306038D01*
X158071567Y-75306362D01*
X158415343Y-75164317D01*
X158678592Y-74901527D01*
X158821238Y-74557999D01*
X158821562Y-74186033D01*
X158679517Y-73842257D01*
X158416727Y-73579008D01*
X158073199Y-73436362D01*
X157701233Y-73436038D01*
X157357457Y-73578083D01*
X157094208Y-73840873D01*
X156951562Y-74184401D01*
X156951238Y-74556367D01*
X144869139Y-74556367D01*
X144952838Y-74354799D01*
X144953162Y-73982833D01*
X144811117Y-73639057D01*
X144636532Y-73464167D01*
X144987838Y-73464167D01*
X145129883Y-73807943D01*
X145392673Y-74071192D01*
X145736201Y-74213838D01*
X146108167Y-74214162D01*
X146451943Y-74072117D01*
X146715192Y-73809327D01*
X146857838Y-73465799D01*
X146858162Y-73093833D01*
X146716117Y-72750057D01*
X146541532Y-72575167D01*
X151210838Y-72575167D01*
X151352883Y-72918943D01*
X151615673Y-73182192D01*
X151959201Y-73324838D01*
X152331167Y-73325162D01*
X152674943Y-73183117D01*
X152938192Y-72920327D01*
X153080838Y-72576799D01*
X153081162Y-72204833D01*
X153055225Y-72142060D01*
X170313545Y-72142060D01*
X170396884Y-72395953D01*
X170961306Y-72601590D01*
X171561458Y-72575579D01*
X171995116Y-72395953D01*
X172078455Y-72142060D01*
X171196000Y-71259605D01*
X170313545Y-72142060D01*
X153055225Y-72142060D01*
X152939117Y-71861057D01*
X152676327Y-71597808D01*
X152332799Y-71455162D01*
X151960833Y-71454838D01*
X151617057Y-71596883D01*
X151353808Y-71859673D01*
X151211162Y-72203201D01*
X151210838Y-72575167D01*
X146541532Y-72575167D01*
X146453327Y-72486808D01*
X146109799Y-72344162D01*
X145737833Y-72343838D01*
X145394057Y-72485883D01*
X145130808Y-72748673D01*
X144988162Y-73092201D01*
X144987838Y-73464167D01*
X144636532Y-73464167D01*
X144548327Y-73375808D01*
X144204799Y-73233162D01*
X143832833Y-73232838D01*
X143489057Y-73374883D01*
X143225808Y-73637673D01*
X143083162Y-73981201D01*
X143082838Y-74353167D01*
X133333311Y-74353167D01*
X133139283Y-74158801D01*
X133268838Y-73846799D01*
X133269162Y-73474833D01*
X133127117Y-73131057D01*
X132864327Y-72867808D01*
X132520799Y-72725162D01*
X132148833Y-72724838D01*
X131805057Y-72866883D01*
X131541808Y-73129673D01*
X131399162Y-73473201D01*
X131398838Y-73845167D01*
X131540883Y-74188943D01*
X131782717Y-74431199D01*
X131653162Y-74743201D01*
X131652838Y-75115167D01*
X131794883Y-75458943D01*
X132036717Y-75701199D01*
X131907162Y-76013201D01*
X131906974Y-76228779D01*
X131721327Y-76042808D01*
X131377799Y-75900162D01*
X131005833Y-75899838D01*
X130662057Y-76041883D01*
X130398808Y-76304673D01*
X130256162Y-76648201D01*
X130255838Y-77020167D01*
X129904532Y-77020167D01*
X129816327Y-76931808D01*
X129472799Y-76789162D01*
X129100833Y-76788838D01*
X128757057Y-76930883D01*
X128493808Y-77193673D01*
X128351162Y-77537201D01*
X128350838Y-77909167D01*
X124777805Y-77909167D01*
X124745117Y-77830057D01*
X124482327Y-77566808D01*
X124138799Y-77424162D01*
X123766833Y-77423838D01*
X123423057Y-77565883D01*
X123159808Y-77828673D01*
X123017162Y-78172201D01*
X123016838Y-78544167D01*
X93141000Y-78544167D01*
X93141000Y-75194383D01*
X112837769Y-75194383D01*
X113040582Y-75685229D01*
X113415796Y-76061098D01*
X113906287Y-76264768D01*
X114437383Y-76265231D01*
X114928229Y-76062418D01*
X115241025Y-75750167D01*
X120857838Y-75750167D01*
X120999883Y-76093943D01*
X121262673Y-76357192D01*
X121606201Y-76499838D01*
X121978167Y-76500162D01*
X122321943Y-76358117D01*
X122564199Y-76116283D01*
X122876201Y-76245838D01*
X123248167Y-76246162D01*
X123591943Y-76104117D01*
X123855192Y-75841327D01*
X123997838Y-75497799D01*
X123998162Y-75125833D01*
X123856117Y-74782057D01*
X123593327Y-74518808D01*
X123249799Y-74376162D01*
X122877833Y-74375838D01*
X122534057Y-74517883D01*
X122291801Y-74759717D01*
X121979799Y-74630162D01*
X121607833Y-74629838D01*
X121264057Y-74771883D01*
X121000808Y-75034673D01*
X120858162Y-75378201D01*
X120857838Y-75750167D01*
X115241025Y-75750167D01*
X115304098Y-75687204D01*
X115507768Y-75196713D01*
X115508231Y-74665617D01*
X115326655Y-74226167D01*
X129493838Y-74226167D01*
X129635883Y-74569943D01*
X129898673Y-74833192D01*
X130242201Y-74975838D01*
X130614167Y-74976162D01*
X130957943Y-74834117D01*
X131221192Y-74571327D01*
X131363838Y-74227799D01*
X131364162Y-73855833D01*
X131222117Y-73512057D01*
X130959327Y-73248808D01*
X130615799Y-73106162D01*
X130243833Y-73105838D01*
X129900057Y-73247883D01*
X129636808Y-73510673D01*
X129494162Y-73854201D01*
X129493838Y-74226167D01*
X115326655Y-74226167D01*
X115305418Y-74174771D01*
X114930204Y-73798902D01*
X114611788Y-73666684D01*
X114866831Y-73561042D01*
X114928669Y-73325275D01*
X114173000Y-72569605D01*
X113417331Y-73325275D01*
X113479169Y-73561042D01*
X113755111Y-73658196D01*
X113417771Y-73797582D01*
X113041902Y-74172796D01*
X112838232Y-74663287D01*
X112837769Y-75194383D01*
X93141000Y-75194383D01*
X93141000Y-72197122D01*
X112825581Y-72197122D01*
X112854336Y-72727440D01*
X113001958Y-73083831D01*
X113237725Y-73145669D01*
X113993395Y-72390000D01*
X114352605Y-72390000D01*
X115108275Y-73145669D01*
X115344042Y-73083831D01*
X115520419Y-72582878D01*
X115502976Y-72261167D01*
X141620838Y-72261167D01*
X141762883Y-72604943D01*
X142025673Y-72868192D01*
X142369201Y-73010838D01*
X142741167Y-73011162D01*
X143084943Y-72869117D01*
X143348192Y-72606327D01*
X143490838Y-72262799D01*
X143491162Y-71890833D01*
X143349117Y-71547057D01*
X143086327Y-71283808D01*
X142742799Y-71141162D01*
X142370833Y-71140838D01*
X142027057Y-71282883D01*
X141763808Y-71545673D01*
X141621162Y-71889201D01*
X141620838Y-72261167D01*
X115502976Y-72261167D01*
X115491664Y-72052560D01*
X115344042Y-71696169D01*
X115108275Y-71634331D01*
X114352605Y-72390000D01*
X113993395Y-72390000D01*
X113237725Y-71634331D01*
X113001958Y-71696169D01*
X112825581Y-72197122D01*
X93141000Y-72197122D01*
X93141000Y-71454725D01*
X113417331Y-71454725D01*
X114173000Y-72210395D01*
X114928669Y-71454725D01*
X114866831Y-71218958D01*
X114365878Y-71042581D01*
X113835560Y-71071336D01*
X113479169Y-71218958D01*
X113417331Y-71454725D01*
X93141000Y-71454725D01*
X93141000Y-70797167D01*
X137621838Y-70797167D01*
X137763883Y-71140943D01*
X138026673Y-71404192D01*
X138370201Y-71546838D01*
X138742167Y-71547162D01*
X139085943Y-71405117D01*
X139349192Y-71142327D01*
X139491838Y-70798799D01*
X139491839Y-70797167D01*
X140161838Y-70797167D01*
X140303883Y-71140943D01*
X140566673Y-71404192D01*
X140910201Y-71546838D01*
X141282167Y-71547162D01*
X141625943Y-71405117D01*
X141889192Y-71142327D01*
X142031838Y-70798799D01*
X142032162Y-70426833D01*
X141975280Y-70289167D01*
X146892838Y-70289167D01*
X147034883Y-70632943D01*
X147297673Y-70896192D01*
X147641201Y-71038838D01*
X148013167Y-71039162D01*
X148356943Y-70897117D01*
X148620192Y-70634327D01*
X148762838Y-70290799D01*
X148763162Y-69918833D01*
X148621117Y-69575057D01*
X148358327Y-69311808D01*
X148014799Y-69169162D01*
X147642833Y-69168838D01*
X147299057Y-69310883D01*
X147035808Y-69573673D01*
X146893162Y-69917201D01*
X146892838Y-70289167D01*
X141975280Y-70289167D01*
X141890117Y-70083057D01*
X141627327Y-69819808D01*
X141283799Y-69677162D01*
X140911833Y-69676838D01*
X140568057Y-69818883D01*
X140304808Y-70081673D01*
X140162162Y-70425201D01*
X140161838Y-70797167D01*
X139491839Y-70797167D01*
X139492162Y-70426833D01*
X139350117Y-70083057D01*
X139087327Y-69819808D01*
X138743799Y-69677162D01*
X138371833Y-69676838D01*
X138028057Y-69818883D01*
X137764808Y-70081673D01*
X137622162Y-70425201D01*
X137621838Y-70797167D01*
X93141000Y-70797167D01*
X93141000Y-69527167D01*
X129493838Y-69527167D01*
X129635883Y-69870943D01*
X129898673Y-70134192D01*
X130242201Y-70276838D01*
X130614167Y-70277162D01*
X130957943Y-70135117D01*
X131221192Y-69872327D01*
X131363838Y-69528799D01*
X131364162Y-69156833D01*
X131222117Y-68813057D01*
X130959327Y-68549808D01*
X130615799Y-68407162D01*
X130243833Y-68406838D01*
X129900057Y-68548883D01*
X129636808Y-68811673D01*
X129494162Y-69155201D01*
X129493838Y-69527167D01*
X93141000Y-69527167D01*
X93141000Y-67216143D01*
X95233115Y-67216143D01*
X95570758Y-68033300D01*
X96195411Y-68659045D01*
X97011978Y-68998113D01*
X97896143Y-68998885D01*
X98713300Y-68661242D01*
X99339045Y-68036589D01*
X99458392Y-67749167D01*
X133938838Y-67749167D01*
X134080883Y-68092943D01*
X134343673Y-68356192D01*
X134687201Y-68498838D01*
X135059167Y-68499162D01*
X135402943Y-68357117D01*
X135666192Y-68094327D01*
X135808838Y-67750799D01*
X135809162Y-67378833D01*
X135667117Y-67035057D01*
X135404327Y-66771808D01*
X135257364Y-66710783D01*
X153655569Y-66710783D01*
X153858382Y-67201629D01*
X154233596Y-67577498D01*
X154724087Y-67781168D01*
X155255183Y-67781631D01*
X155746029Y-67578818D01*
X155943516Y-67381675D01*
X156775131Y-67381675D01*
X156836969Y-67617442D01*
X157337922Y-67793819D01*
X157868240Y-67765064D01*
X158224631Y-67617442D01*
X158286469Y-67381675D01*
X157530800Y-66626005D01*
X156775131Y-67381675D01*
X155943516Y-67381675D01*
X156121898Y-67203604D01*
X156254116Y-66885188D01*
X156359758Y-67140231D01*
X156595525Y-67202069D01*
X157351195Y-66446400D01*
X157710405Y-66446400D01*
X158466075Y-67202069D01*
X158701842Y-67140231D01*
X158835157Y-66761583D01*
X160107169Y-66761583D01*
X160309982Y-67252429D01*
X160685196Y-67628298D01*
X161175687Y-67831968D01*
X161706783Y-67832431D01*
X162197629Y-67629618D01*
X162395116Y-67432475D01*
X163226731Y-67432475D01*
X163288569Y-67668242D01*
X163789522Y-67844619D01*
X164319840Y-67815864D01*
X164587489Y-67705000D01*
X169673560Y-67705000D01*
X169673560Y-69455000D01*
X169722843Y-69702765D01*
X169863191Y-69912809D01*
X170058745Y-70043475D01*
X170019306Y-70082914D01*
X170133938Y-70197546D01*
X169880047Y-70280884D01*
X169674410Y-70845306D01*
X169700421Y-71445458D01*
X169880047Y-71879116D01*
X170133940Y-71962455D01*
X171016395Y-71080000D01*
X171002253Y-71065858D01*
X171181858Y-70886253D01*
X171196000Y-70900395D01*
X171210143Y-70886253D01*
X171389748Y-71065858D01*
X171375605Y-71080000D01*
X172258060Y-71962455D01*
X172511953Y-71879116D01*
X172717590Y-71314694D01*
X172691579Y-70714542D01*
X172511953Y-70280884D01*
X172258062Y-70197546D01*
X172372694Y-70082914D01*
X172333255Y-70043475D01*
X172528809Y-69912809D01*
X172669157Y-69702765D01*
X172718440Y-69455000D01*
X172718440Y-67705000D01*
X172669157Y-67457235D01*
X172528809Y-67247191D01*
X172482343Y-67216143D01*
X187233115Y-67216143D01*
X187570758Y-68033300D01*
X188195411Y-68659045D01*
X189011978Y-68998113D01*
X189896143Y-68998885D01*
X190713300Y-68661242D01*
X191339045Y-68036589D01*
X191678113Y-67220022D01*
X191678885Y-66335857D01*
X191341242Y-65518700D01*
X190716589Y-64892955D01*
X189900022Y-64553887D01*
X189015857Y-64553115D01*
X188198700Y-64890758D01*
X187572955Y-65515411D01*
X187233887Y-66331978D01*
X187233115Y-67216143D01*
X172482343Y-67216143D01*
X172318765Y-67106843D01*
X172071000Y-67057560D01*
X170321000Y-67057560D01*
X170073235Y-67106843D01*
X169863191Y-67247191D01*
X169722843Y-67457235D01*
X169673560Y-67705000D01*
X164587489Y-67705000D01*
X164676231Y-67668242D01*
X164738069Y-67432475D01*
X163982400Y-66676805D01*
X163226731Y-67432475D01*
X162395116Y-67432475D01*
X162573498Y-67254404D01*
X162705716Y-66935988D01*
X162811358Y-67191031D01*
X163047125Y-67252869D01*
X163802795Y-66497200D01*
X164162005Y-66497200D01*
X164917675Y-67252869D01*
X165153442Y-67191031D01*
X165329819Y-66690078D01*
X165301064Y-66159760D01*
X165153442Y-65803369D01*
X164917675Y-65741531D01*
X164162005Y-66497200D01*
X163802795Y-66497200D01*
X163047125Y-65741531D01*
X162811358Y-65803369D01*
X162714204Y-66079311D01*
X162574818Y-65741971D01*
X162395086Y-65561925D01*
X163226731Y-65561925D01*
X163982400Y-66317595D01*
X164738069Y-65561925D01*
X164676231Y-65326158D01*
X164175278Y-65149781D01*
X163644960Y-65178536D01*
X163288569Y-65326158D01*
X163226731Y-65561925D01*
X162395086Y-65561925D01*
X162199604Y-65366102D01*
X161709113Y-65162432D01*
X161178017Y-65161969D01*
X160687171Y-65364782D01*
X160311302Y-65739996D01*
X160107632Y-66230487D01*
X160107169Y-66761583D01*
X158835157Y-66761583D01*
X158878219Y-66639278D01*
X158849464Y-66108960D01*
X158701842Y-65752569D01*
X158466075Y-65690731D01*
X157710405Y-66446400D01*
X157351195Y-66446400D01*
X156595525Y-65690731D01*
X156359758Y-65752569D01*
X156262604Y-66028511D01*
X156123218Y-65691171D01*
X155943486Y-65511125D01*
X156775131Y-65511125D01*
X157530800Y-66266795D01*
X158286469Y-65511125D01*
X158224631Y-65275358D01*
X157723678Y-65098981D01*
X157193360Y-65127736D01*
X156836969Y-65275358D01*
X156775131Y-65511125D01*
X155943486Y-65511125D01*
X155748004Y-65315302D01*
X155257513Y-65111632D01*
X154726417Y-65111169D01*
X154235571Y-65313982D01*
X153859702Y-65689196D01*
X153656032Y-66179687D01*
X153655569Y-66710783D01*
X135257364Y-66710783D01*
X135060799Y-66629162D01*
X134688833Y-66628838D01*
X134345057Y-66770883D01*
X134081808Y-67033673D01*
X133939162Y-67377201D01*
X133938838Y-67749167D01*
X99458392Y-67749167D01*
X99678113Y-67220022D01*
X99678885Y-66335857D01*
X99341242Y-65518700D01*
X99032250Y-65209167D01*
X134319838Y-65209167D01*
X134461883Y-65552943D01*
X134724673Y-65816192D01*
X135068201Y-65958838D01*
X135440167Y-65959162D01*
X135783943Y-65817117D01*
X136047192Y-65554327D01*
X136189838Y-65210799D01*
X136190060Y-64955167D01*
X150067838Y-64955167D01*
X150209883Y-65298943D01*
X150472673Y-65562192D01*
X150816201Y-65704838D01*
X151188167Y-65705162D01*
X151531943Y-65563117D01*
X151795192Y-65300327D01*
X151937838Y-64956799D01*
X151938162Y-64584833D01*
X151796117Y-64241057D01*
X151533327Y-63977808D01*
X151189799Y-63835162D01*
X150817833Y-63834838D01*
X150474057Y-63976883D01*
X150210808Y-64239673D01*
X150068162Y-64583201D01*
X150067838Y-64955167D01*
X136190060Y-64955167D01*
X136190162Y-64838833D01*
X136048117Y-64495057D01*
X135785327Y-64231808D01*
X135441799Y-64089162D01*
X135069833Y-64088838D01*
X134726057Y-64230883D01*
X134462808Y-64493673D01*
X134320162Y-64837201D01*
X134319838Y-65209167D01*
X99032250Y-65209167D01*
X98716589Y-64892955D01*
X97900022Y-64553887D01*
X97015857Y-64553115D01*
X96198700Y-64890758D01*
X95572955Y-65515411D01*
X95233887Y-66331978D01*
X95233115Y-67216143D01*
X93141000Y-67216143D01*
X93141000Y-62461000D01*
X193771000Y-62461000D01*
X193771000Y-144091000D01*
X193771000Y-144091000D01*
G37*
X193771000Y-144091000D02*
X93141000Y-144091000D01*
X93141000Y-140216143D01*
X95233115Y-140216143D01*
X95570758Y-141033300D01*
X96195411Y-141659045D01*
X97011978Y-141998113D01*
X97896143Y-141998885D01*
X98713300Y-141661242D01*
X99339045Y-141036589D01*
X99678113Y-140220022D01*
X99678885Y-139335857D01*
X99341242Y-138518700D01*
X98716589Y-137892955D01*
X97900022Y-137553887D01*
X97015857Y-137553115D01*
X96198700Y-137890758D01*
X95572955Y-138515411D01*
X95233887Y-139331978D01*
X95233115Y-140216143D01*
X93141000Y-140216143D01*
X93141000Y-137385575D01*
X105522884Y-137385575D01*
X105800715Y-138057978D01*
X106314716Y-138572877D01*
X106681623Y-138725230D01*
X106317422Y-138875715D01*
X105802523Y-139389716D01*
X105523518Y-140061633D01*
X105522884Y-140789175D01*
X105800715Y-141461578D01*
X106314716Y-141976477D01*
X106986633Y-142255482D01*
X107714175Y-142256116D01*
X108386578Y-141978285D01*
X108901477Y-141464284D01*
X109180482Y-140792367D01*
X109181116Y-140064825D01*
X108903285Y-139392422D01*
X108389284Y-138877523D01*
X108022377Y-138725170D01*
X108386578Y-138574685D01*
X108901477Y-138060684D01*
X109180482Y-137388767D01*
X109180484Y-137385575D01*
X118984884Y-137385575D01*
X119262715Y-138057978D01*
X119776716Y-138572877D01*
X120143623Y-138725230D01*
X119779422Y-138875715D01*
X119264523Y-139389716D01*
X118985518Y-140061633D01*
X118984884Y-140789175D01*
X119262715Y-141461578D01*
X119776716Y-141976477D01*
X120448633Y-142255482D01*
X121176175Y-142256116D01*
X121848578Y-141978285D01*
X122363477Y-141464284D01*
X122642482Y-140792367D01*
X122642984Y-140216143D01*
X187233115Y-140216143D01*
X187570758Y-141033300D01*
X188195411Y-141659045D01*
X189011978Y-141998113D01*
X189896143Y-141998885D01*
X190713300Y-141661242D01*
X191339045Y-141036589D01*
X191678113Y-140220022D01*
X191678885Y-139335857D01*
X191341242Y-138518700D01*
X190716589Y-137892955D01*
X189900022Y-137553887D01*
X189015857Y-137553115D01*
X188198700Y-137890758D01*
X187572955Y-138515411D01*
X187233887Y-139331978D01*
X187233115Y-140216143D01*
X122642984Y-140216143D01*
X122643116Y-140064825D01*
X122365285Y-139392422D01*
X121851284Y-138877523D01*
X121484377Y-138725170D01*
X121848578Y-138574685D01*
X122363477Y-138060684D01*
X122642482Y-137388767D01*
X122643116Y-136661225D01*
X122395178Y-136061167D01*
X138920838Y-136061167D01*
X139062883Y-136404943D01*
X139325673Y-136668192D01*
X139669201Y-136810838D01*
X140041167Y-136811162D01*
X140384943Y-136669117D01*
X140648192Y-136406327D01*
X140790838Y-136062799D01*
X140791162Y-135690833D01*
X140649117Y-135347057D01*
X140622066Y-135319958D01*
X170341647Y-135319958D01*
X170421920Y-135571259D01*
X170977279Y-135772718D01*
X171567458Y-135746315D01*
X171990080Y-135571259D01*
X172070353Y-135319958D01*
X171206000Y-134455605D01*
X170341647Y-135319958D01*
X140622066Y-135319958D01*
X140386327Y-135083808D01*
X140042799Y-134941162D01*
X139670833Y-134940838D01*
X139327057Y-135082883D01*
X139063808Y-135345673D01*
X138921162Y-135689201D01*
X138920838Y-136061167D01*
X122395178Y-136061167D01*
X122365285Y-135988822D01*
X121851284Y-135473923D01*
X121179367Y-135194918D01*
X120451825Y-135194284D01*
X119779422Y-135472115D01*
X119264523Y-135986116D01*
X118985518Y-136658033D01*
X118984884Y-137385575D01*
X109180484Y-137385575D01*
X109181116Y-136661225D01*
X108903285Y-135988822D01*
X108389284Y-135473923D01*
X107717367Y-135194918D01*
X106989825Y-135194284D01*
X106317422Y-135472115D01*
X105802523Y-135986116D01*
X105523518Y-136658033D01*
X105522884Y-137385575D01*
X93141000Y-137385575D01*
X93141000Y-134047279D01*
X169709282Y-134047279D01*
X169735685Y-134637458D01*
X169910741Y-135060080D01*
X170162042Y-135140353D01*
X171026395Y-134276000D01*
X171385605Y-134276000D01*
X172249958Y-135140353D01*
X172501259Y-135060080D01*
X172702718Y-134504721D01*
X172676315Y-133914542D01*
X172501259Y-133491920D01*
X172294892Y-133426000D01*
X174708560Y-133426000D01*
X174708560Y-135126000D01*
X174757843Y-135373765D01*
X174898191Y-135583809D01*
X175108235Y-135724157D01*
X175356000Y-135773440D01*
X177056000Y-135773440D01*
X177303765Y-135724157D01*
X177513809Y-135583809D01*
X177654157Y-135373765D01*
X177703440Y-135126000D01*
X177703440Y-133426000D01*
X177654157Y-133178235D01*
X177513809Y-132968191D01*
X177303765Y-132827843D01*
X177056000Y-132778560D01*
X175356000Y-132778560D01*
X175108235Y-132827843D01*
X174898191Y-132968191D01*
X174757843Y-133178235D01*
X174708560Y-133426000D01*
X172294892Y-133426000D01*
X172249958Y-133411647D01*
X171385605Y-134276000D01*
X171026395Y-134276000D01*
X170162042Y-133411647D01*
X169910741Y-133491920D01*
X169709282Y-134047279D01*
X93141000Y-134047279D01*
X93141000Y-133232042D01*
X170341647Y-133232042D01*
X171206000Y-134096395D01*
X172070353Y-133232042D01*
X171990080Y-132980741D01*
X171434721Y-132779282D01*
X170844542Y-132805685D01*
X170421920Y-132980741D01*
X170341647Y-133232042D01*
X93141000Y-133232042D01*
X93141000Y-130285677D01*
X185545794Y-130285677D01*
X185725820Y-130721372D01*
X186058875Y-131055009D01*
X186494255Y-131235794D01*
X186965677Y-131236206D01*
X187401372Y-131056180D01*
X187735009Y-130723125D01*
X187915794Y-130287745D01*
X187916206Y-129816323D01*
X187736180Y-129380628D01*
X187403125Y-129046991D01*
X186967745Y-128866206D01*
X186496323Y-128865794D01*
X186060628Y-129045820D01*
X185726991Y-129378875D01*
X185546206Y-129814255D01*
X185545794Y-130285677D01*
X93141000Y-130285677D01*
X93141000Y-127561167D01*
X132820838Y-127561167D01*
X132962883Y-127904943D01*
X133225673Y-128168192D01*
X133569201Y-128310838D01*
X133941167Y-128311162D01*
X134284943Y-128169117D01*
X134395507Y-128058745D01*
X186902861Y-128058745D01*
X186976995Y-128304864D01*
X187514223Y-128497965D01*
X188084454Y-128470778D01*
X188485005Y-128304864D01*
X188559139Y-128058745D01*
X187731000Y-127230605D01*
X186902861Y-128058745D01*
X134395507Y-128058745D01*
X134548192Y-127906327D01*
X134690838Y-127562799D01*
X134691162Y-127190833D01*
X134549117Y-126847057D01*
X134536306Y-126834223D01*
X186284035Y-126834223D01*
X186311222Y-127404454D01*
X186477136Y-127805005D01*
X186723255Y-127879139D01*
X187551395Y-127051000D01*
X187910605Y-127051000D01*
X188738745Y-127879139D01*
X188984864Y-127805005D01*
X189153735Y-127335187D01*
X189295752Y-127335187D01*
X189513757Y-127862800D01*
X189917077Y-128266824D01*
X190444309Y-128485750D01*
X191015187Y-128486248D01*
X191542800Y-128268243D01*
X191946824Y-127864923D01*
X192165750Y-127337691D01*
X192166248Y-126766813D01*
X191948243Y-126239200D01*
X191544923Y-125835176D01*
X191017691Y-125616250D01*
X190446813Y-125615752D01*
X189919200Y-125833757D01*
X189515176Y-126237077D01*
X189296250Y-126764309D01*
X189295752Y-127335187D01*
X189153735Y-127335187D01*
X189177965Y-127267777D01*
X189150778Y-126697546D01*
X188984864Y-126296995D01*
X188738745Y-126222861D01*
X187910605Y-127051000D01*
X187551395Y-127051000D01*
X186723255Y-126222861D01*
X186477136Y-126296995D01*
X186284035Y-126834223D01*
X134536306Y-126834223D01*
X134286327Y-126583808D01*
X133942799Y-126441162D01*
X133570833Y-126440838D01*
X133227057Y-126582883D01*
X132963808Y-126845673D01*
X132821162Y-127189201D01*
X132820838Y-127561167D01*
X93141000Y-127561167D01*
X93141000Y-126043255D01*
X186902861Y-126043255D01*
X187731000Y-126871395D01*
X188559139Y-126043255D01*
X188485005Y-125797136D01*
X187947777Y-125604035D01*
X187377546Y-125631222D01*
X186976995Y-125797136D01*
X186902861Y-126043255D01*
X93141000Y-126043255D01*
X93141000Y-125058745D01*
X186902861Y-125058745D01*
X186976995Y-125304864D01*
X187514223Y-125497965D01*
X188084454Y-125470778D01*
X188485005Y-125304864D01*
X188559139Y-125058745D01*
X187731000Y-124230605D01*
X186902861Y-125058745D01*
X93141000Y-125058745D01*
X93141000Y-123610677D01*
X100110794Y-123610677D01*
X100290820Y-124046372D01*
X100623875Y-124380009D01*
X101059255Y-124560794D01*
X101530677Y-124561206D01*
X101966372Y-124381180D01*
X102300009Y-124048125D01*
X102388828Y-123834223D01*
X186284035Y-123834223D01*
X186311222Y-124404454D01*
X186477136Y-124805005D01*
X186723255Y-124879139D01*
X187551395Y-124051000D01*
X187910605Y-124051000D01*
X188738745Y-124879139D01*
X188984864Y-124805005D01*
X189153735Y-124335187D01*
X189295752Y-124335187D01*
X189513757Y-124862800D01*
X189917077Y-125266824D01*
X190444309Y-125485750D01*
X191015187Y-125486248D01*
X191542800Y-125268243D01*
X191946824Y-124864923D01*
X192165750Y-124337691D01*
X192166248Y-123766813D01*
X191948243Y-123239200D01*
X191544923Y-122835176D01*
X191017691Y-122616250D01*
X190446813Y-122615752D01*
X189919200Y-122833757D01*
X189515176Y-123237077D01*
X189296250Y-123764309D01*
X189295752Y-124335187D01*
X189153735Y-124335187D01*
X189177965Y-124267777D01*
X189150778Y-123697546D01*
X188984864Y-123296995D01*
X188738745Y-123222861D01*
X187910605Y-124051000D01*
X187551395Y-124051000D01*
X186723255Y-123222861D01*
X186477136Y-123296995D01*
X186284035Y-123834223D01*
X102388828Y-123834223D01*
X102480794Y-123612745D01*
X102481206Y-123141323D01*
X102440686Y-123043255D01*
X186902861Y-123043255D01*
X187731000Y-123871395D01*
X188559139Y-123043255D01*
X188485005Y-122797136D01*
X187947777Y-122604035D01*
X187377546Y-122631222D01*
X186976995Y-122797136D01*
X186902861Y-123043255D01*
X102440686Y-123043255D01*
X102301180Y-122705628D01*
X101968125Y-122371991D01*
X101532745Y-122191206D01*
X101061323Y-122190794D01*
X100625628Y-122370820D01*
X100291991Y-122703875D01*
X100111206Y-123139255D01*
X100110794Y-123610677D01*
X93141000Y-123610677D01*
X93141000Y-120660187D01*
X95920752Y-120660187D01*
X96138757Y-121187800D01*
X96542077Y-121591824D01*
X97069309Y-121810750D01*
X97640187Y-121811248D01*
X98167800Y-121593243D01*
X98377663Y-121383745D01*
X99527861Y-121383745D01*
X99601995Y-121629864D01*
X100139223Y-121822965D01*
X100709454Y-121795778D01*
X101110005Y-121629864D01*
X101184139Y-121383745D01*
X101086072Y-121285677D01*
X185605794Y-121285677D01*
X185785820Y-121721372D01*
X186118875Y-122055009D01*
X186554255Y-122235794D01*
X187025677Y-122236206D01*
X187461372Y-122056180D01*
X187795009Y-121723125D01*
X187975794Y-121287745D01*
X187976206Y-120816323D01*
X187796180Y-120380628D01*
X187463125Y-120046991D01*
X187027745Y-119866206D01*
X186556323Y-119865794D01*
X186120628Y-120045820D01*
X185786991Y-120378875D01*
X185606206Y-120814255D01*
X185605794Y-121285677D01*
X101086072Y-121285677D01*
X100356000Y-120555605D01*
X99527861Y-121383745D01*
X98377663Y-121383745D01*
X98571824Y-121189923D01*
X98790750Y-120662691D01*
X98791189Y-120159223D01*
X98909035Y-120159223D01*
X98936222Y-120729454D01*
X99102136Y-121130005D01*
X99348255Y-121204139D01*
X100176395Y-120376000D01*
X100535605Y-120376000D01*
X101363745Y-121204139D01*
X101609864Y-121130005D01*
X101802965Y-120592777D01*
X101775778Y-120022546D01*
X101609864Y-119621995D01*
X101363745Y-119547861D01*
X100535605Y-120376000D01*
X100176395Y-120376000D01*
X99348255Y-119547861D01*
X99102136Y-119621995D01*
X98909035Y-120159223D01*
X98791189Y-120159223D01*
X98791248Y-120091813D01*
X98573243Y-119564200D01*
X98377640Y-119368255D01*
X99527861Y-119368255D01*
X100356000Y-120196395D01*
X101184139Y-119368255D01*
X101110005Y-119122136D01*
X100662172Y-118961167D01*
X102020838Y-118961167D01*
X102162883Y-119304943D01*
X102425673Y-119568192D01*
X102769201Y-119710838D01*
X103141167Y-119711162D01*
X103484943Y-119569117D01*
X103748192Y-119306327D01*
X103890838Y-118962799D01*
X103891162Y-118590833D01*
X103749117Y-118247057D01*
X103486327Y-117983808D01*
X103142799Y-117841162D01*
X102770833Y-117840838D01*
X102427057Y-117982883D01*
X102163808Y-118245673D01*
X102021162Y-118589201D01*
X102020838Y-118961167D01*
X100662172Y-118961167D01*
X100572777Y-118929035D01*
X100002546Y-118956222D01*
X99601995Y-119122136D01*
X99527861Y-119368255D01*
X98377640Y-119368255D01*
X98169923Y-119160176D01*
X97642691Y-118941250D01*
X97071813Y-118940752D01*
X96544200Y-119158757D01*
X96140176Y-119562077D01*
X95921250Y-120089309D01*
X95920752Y-120660187D01*
X93141000Y-120660187D01*
X93141000Y-117660187D01*
X95920752Y-117660187D01*
X96138757Y-118187800D01*
X96542077Y-118591824D01*
X97069309Y-118810750D01*
X97640187Y-118811248D01*
X98167800Y-118593243D01*
X98377663Y-118383745D01*
X99527861Y-118383745D01*
X99601995Y-118629864D01*
X100139223Y-118822965D01*
X100709454Y-118795778D01*
X101110005Y-118629864D01*
X101184139Y-118383745D01*
X100356000Y-117555605D01*
X99527861Y-118383745D01*
X98377663Y-118383745D01*
X98571824Y-118189923D01*
X98790750Y-117662691D01*
X98791189Y-117159223D01*
X98909035Y-117159223D01*
X98936222Y-117729454D01*
X99102136Y-118130005D01*
X99348255Y-118204139D01*
X100176395Y-117376000D01*
X100535605Y-117376000D01*
X101363745Y-118204139D01*
X101609864Y-118130005D01*
X101802965Y-117592777D01*
X101775778Y-117022546D01*
X101609864Y-116621995D01*
X101363745Y-116547861D01*
X100535605Y-117376000D01*
X100176395Y-117376000D01*
X99348255Y-116547861D01*
X99102136Y-116621995D01*
X98909035Y-117159223D01*
X98791189Y-117159223D01*
X98791248Y-117091813D01*
X98573243Y-116564200D01*
X98377640Y-116368255D01*
X99527861Y-116368255D01*
X100356000Y-117196395D01*
X101091227Y-116461167D01*
X175920838Y-116461167D01*
X176062883Y-116804943D01*
X176325673Y-117068192D01*
X176669201Y-117210838D01*
X177041167Y-117211162D01*
X177384943Y-117069117D01*
X177648192Y-116806327D01*
X177790838Y-116462799D01*
X177791162Y-116090833D01*
X177649117Y-115747057D01*
X177386327Y-115483808D01*
X177042799Y-115341162D01*
X176670833Y-115340838D01*
X176327057Y-115482883D01*
X176063808Y-115745673D01*
X175921162Y-116089201D01*
X175920838Y-116461167D01*
X101091227Y-116461167D01*
X101184139Y-116368255D01*
X101110005Y-116122136D01*
X100572777Y-115929035D01*
X100002546Y-115956222D01*
X99601995Y-116122136D01*
X99527861Y-116368255D01*
X98377640Y-116368255D01*
X98169923Y-116160176D01*
X97642691Y-115941250D01*
X97071813Y-115940752D01*
X96544200Y-116158757D01*
X96140176Y-116562077D01*
X95921250Y-117089309D01*
X95920752Y-117660187D01*
X93141000Y-117660187D01*
X93141000Y-115383745D01*
X96527861Y-115383745D01*
X96601995Y-115629864D01*
X97139223Y-115822965D01*
X97709454Y-115795778D01*
X98110005Y-115629864D01*
X98184139Y-115383745D01*
X97356000Y-114555605D01*
X96527861Y-115383745D01*
X93141000Y-115383745D01*
X93141000Y-114159223D01*
X95909035Y-114159223D01*
X95936222Y-114729454D01*
X96102136Y-115130005D01*
X96348255Y-115204139D01*
X97176395Y-114376000D01*
X97535605Y-114376000D01*
X98363745Y-115204139D01*
X98609864Y-115130005D01*
X98778735Y-114660187D01*
X98920752Y-114660187D01*
X99138757Y-115187800D01*
X99542077Y-115591824D01*
X100069309Y-115810750D01*
X100640187Y-115811248D01*
X101167800Y-115593243D01*
X101571824Y-115189923D01*
X101790750Y-114662691D01*
X101791248Y-114091813D01*
X101573243Y-113564200D01*
X101224819Y-113215167D01*
X160354838Y-113215167D01*
X160496883Y-113558943D01*
X160759673Y-113822192D01*
X161103201Y-113964838D01*
X161475167Y-113965162D01*
X161818943Y-113823117D01*
X162082192Y-113560327D01*
X162224838Y-113216799D01*
X162225162Y-112844833D01*
X162083117Y-112501057D01*
X161820327Y-112237808D01*
X161476799Y-112095162D01*
X161104833Y-112094838D01*
X160761057Y-112236883D01*
X160497808Y-112499673D01*
X160355162Y-112843201D01*
X160354838Y-113215167D01*
X101224819Y-113215167D01*
X101169923Y-113160176D01*
X100642691Y-112941250D01*
X100071813Y-112940752D01*
X99544200Y-113158757D01*
X99140176Y-113562077D01*
X98921250Y-114089309D01*
X98920752Y-114660187D01*
X98778735Y-114660187D01*
X98802965Y-114592777D01*
X98775778Y-114022546D01*
X98609864Y-113621995D01*
X98363745Y-113547861D01*
X97535605Y-114376000D01*
X97176395Y-114376000D01*
X96348255Y-113547861D01*
X96102136Y-113621995D01*
X95909035Y-114159223D01*
X93141000Y-114159223D01*
X93141000Y-113368255D01*
X96527861Y-113368255D01*
X97356000Y-114196395D01*
X98184139Y-113368255D01*
X98110005Y-113122136D01*
X97572777Y-112929035D01*
X97002546Y-112956222D01*
X96601995Y-113122136D01*
X96527861Y-113368255D01*
X93141000Y-113368255D01*
X93141000Y-112383745D01*
X96527861Y-112383745D01*
X96601995Y-112629864D01*
X97139223Y-112822965D01*
X97709454Y-112795778D01*
X98110005Y-112629864D01*
X98184139Y-112383745D01*
X97356000Y-111555605D01*
X96527861Y-112383745D01*
X93141000Y-112383745D01*
X93141000Y-111159223D01*
X95909035Y-111159223D01*
X95936222Y-111729454D01*
X96102136Y-112130005D01*
X96348255Y-112204139D01*
X97176395Y-111376000D01*
X97535605Y-111376000D01*
X98363745Y-112204139D01*
X98609864Y-112130005D01*
X98778735Y-111660187D01*
X98920752Y-111660187D01*
X99138757Y-112187800D01*
X99542077Y-112591824D01*
X100069309Y-112810750D01*
X100640187Y-112811248D01*
X101167800Y-112593243D01*
X101571824Y-112189923D01*
X101790750Y-111662691D01*
X101791248Y-111091813D01*
X101573243Y-110564200D01*
X101169923Y-110160176D01*
X100642691Y-109941250D01*
X100071813Y-109940752D01*
X99544200Y-110158757D01*
X99140176Y-110562077D01*
X98921250Y-111089309D01*
X98920752Y-111660187D01*
X98778735Y-111660187D01*
X98802965Y-111592777D01*
X98775778Y-111022546D01*
X98609864Y-110621995D01*
X98363745Y-110547861D01*
X97535605Y-111376000D01*
X97176395Y-111376000D01*
X96348255Y-110547861D01*
X96102136Y-110621995D01*
X95909035Y-111159223D01*
X93141000Y-111159223D01*
X93141000Y-110368255D01*
X96527861Y-110368255D01*
X97356000Y-111196395D01*
X98184139Y-110368255D01*
X98110005Y-110122136D01*
X97572777Y-109929035D01*
X97002546Y-109956222D01*
X96601995Y-110122136D01*
X96527861Y-110368255D01*
X93141000Y-110368255D01*
X93141000Y-108610677D01*
X100170794Y-108610677D01*
X100350820Y-109046372D01*
X100683875Y-109380009D01*
X101119255Y-109560794D01*
X101590677Y-109561206D01*
X101590771Y-109561167D01*
X135820838Y-109561167D01*
X135962883Y-109904943D01*
X136225673Y-110168192D01*
X136569201Y-110310838D01*
X136941167Y-110311162D01*
X137062164Y-110261167D01*
X149120838Y-110261167D01*
X149262883Y-110604943D01*
X149525673Y-110868192D01*
X149869201Y-111010838D01*
X150241167Y-111011162D01*
X150584943Y-110869117D01*
X150848192Y-110606327D01*
X150990838Y-110262799D01*
X150991162Y-109890833D01*
X150849117Y-109547057D01*
X150586327Y-109283808D01*
X150242799Y-109141162D01*
X149870833Y-109140838D01*
X149527057Y-109282883D01*
X149263808Y-109545673D01*
X149121162Y-109889201D01*
X149120838Y-110261167D01*
X137062164Y-110261167D01*
X137284943Y-110169117D01*
X137548192Y-109906327D01*
X137690838Y-109562799D01*
X137691162Y-109190833D01*
X137549117Y-108847057D01*
X137345583Y-108643167D01*
X155147838Y-108643167D01*
X155289883Y-108986943D01*
X155552673Y-109250192D01*
X155896201Y-109392838D01*
X156268167Y-109393162D01*
X156611943Y-109251117D01*
X156875192Y-108988327D01*
X157017838Y-108644799D01*
X157018162Y-108272833D01*
X156876117Y-107929057D01*
X156613327Y-107665808D01*
X156269799Y-107523162D01*
X155897833Y-107522838D01*
X155554057Y-107664883D01*
X155290808Y-107927673D01*
X155148162Y-108271201D01*
X155147838Y-108643167D01*
X137345583Y-108643167D01*
X137286327Y-108583808D01*
X136942799Y-108441162D01*
X136570833Y-108440838D01*
X136227057Y-108582883D01*
X135963808Y-108845673D01*
X135821162Y-109189201D01*
X135820838Y-109561167D01*
X101590771Y-109561167D01*
X102026372Y-109381180D01*
X102360009Y-109048125D01*
X102540794Y-108612745D01*
X102541206Y-108141323D01*
X102361180Y-107705628D01*
X102117146Y-107461167D01*
X109520838Y-107461167D01*
X109662883Y-107804943D01*
X109925673Y-108068192D01*
X110269201Y-108210838D01*
X110641167Y-108211162D01*
X110984943Y-108069117D01*
X111248192Y-107806327D01*
X111390838Y-107462799D01*
X111391162Y-107090833D01*
X111249117Y-106747057D01*
X110986327Y-106483808D01*
X110642799Y-106341162D01*
X110270833Y-106340838D01*
X109927057Y-106482883D01*
X109663808Y-106745673D01*
X109521162Y-107089201D01*
X109520838Y-107461167D01*
X102117146Y-107461167D01*
X102028125Y-107371991D01*
X101592745Y-107191206D01*
X101121323Y-107190794D01*
X100685628Y-107370820D01*
X100351991Y-107703875D01*
X100171206Y-108139255D01*
X100170794Y-108610677D01*
X93141000Y-108610677D01*
X93141000Y-106091275D01*
X108464331Y-106091275D01*
X108526169Y-106327042D01*
X109027122Y-106503419D01*
X109557440Y-106474664D01*
X109913831Y-106327042D01*
X109975669Y-106091275D01*
X109220000Y-105335605D01*
X108464331Y-106091275D01*
X93141000Y-106091275D01*
X93141000Y-104963122D01*
X107872581Y-104963122D01*
X107901336Y-105493440D01*
X108048958Y-105849831D01*
X108284725Y-105911669D01*
X109040395Y-105156000D01*
X109399605Y-105156000D01*
X110155275Y-105911669D01*
X110391042Y-105849831D01*
X110488196Y-105573889D01*
X110627582Y-105911229D01*
X111002796Y-106287098D01*
X111493287Y-106490768D01*
X112024383Y-106491231D01*
X112515229Y-106288418D01*
X112891098Y-105913204D01*
X113023158Y-105595167D01*
X145622838Y-105595167D01*
X145764883Y-105938943D01*
X146027673Y-106202192D01*
X146371201Y-106344838D01*
X146743167Y-106345162D01*
X147086943Y-106203117D01*
X147350192Y-105940327D01*
X147492838Y-105596799D01*
X147493162Y-105224833D01*
X147351117Y-104881057D01*
X147176532Y-104706167D01*
X156925838Y-104706167D01*
X157067883Y-105049943D01*
X157330673Y-105313192D01*
X157674201Y-105455838D01*
X158046167Y-105456162D01*
X158389943Y-105314117D01*
X158653192Y-105051327D01*
X158795838Y-104707799D01*
X158796052Y-104461167D01*
X173820838Y-104461167D01*
X173962883Y-104804943D01*
X174225673Y-105068192D01*
X174569201Y-105210838D01*
X174941167Y-105211162D01*
X175284943Y-105069117D01*
X175548192Y-104806327D01*
X175690838Y-104462799D01*
X175691162Y-104090833D01*
X175549117Y-103747057D01*
X175286327Y-103483808D01*
X174942799Y-103341162D01*
X174570833Y-103340838D01*
X174227057Y-103482883D01*
X173963808Y-103745673D01*
X173821162Y-104089201D01*
X173820838Y-104461167D01*
X158796052Y-104461167D01*
X158796162Y-104335833D01*
X158654117Y-103992057D01*
X158391327Y-103728808D01*
X158047799Y-103586162D01*
X157675833Y-103585838D01*
X157332057Y-103727883D01*
X157068808Y-103990673D01*
X156926162Y-104334201D01*
X156925838Y-104706167D01*
X147176532Y-104706167D01*
X147088327Y-104617808D01*
X146744799Y-104475162D01*
X146372833Y-104474838D01*
X146029057Y-104616883D01*
X145765808Y-104879673D01*
X145623162Y-105223201D01*
X145622838Y-105595167D01*
X113023158Y-105595167D01*
X113094768Y-105422713D01*
X113095231Y-104891617D01*
X112892418Y-104400771D01*
X112517204Y-104024902D01*
X112026713Y-103821232D01*
X111495617Y-103820769D01*
X111004771Y-104023582D01*
X110628902Y-104398796D01*
X110496684Y-104717212D01*
X110391042Y-104462169D01*
X110155275Y-104400331D01*
X109399605Y-105156000D01*
X109040395Y-105156000D01*
X108284725Y-104400331D01*
X108048958Y-104462169D01*
X107872581Y-104963122D01*
X93141000Y-104963122D01*
X93141000Y-104220725D01*
X108464331Y-104220725D01*
X109220000Y-104976395D01*
X109975669Y-104220725D01*
X109913831Y-103984958D01*
X109437265Y-103817167D01*
X149178838Y-103817167D01*
X149320883Y-104160943D01*
X149583673Y-104424192D01*
X149927201Y-104566838D01*
X150299167Y-104567162D01*
X150642943Y-104425117D01*
X150906192Y-104162327D01*
X151048838Y-103818799D01*
X151049162Y-103446833D01*
X150907117Y-103103057D01*
X150644327Y-102839808D01*
X150300799Y-102697162D01*
X149928833Y-102696838D01*
X149585057Y-102838883D01*
X149321808Y-103101673D01*
X149179162Y-103445201D01*
X149178838Y-103817167D01*
X109437265Y-103817167D01*
X109412878Y-103808581D01*
X108882560Y-103837336D01*
X108526169Y-103984958D01*
X108464331Y-104220725D01*
X93141000Y-104220725D01*
X93141000Y-101102383D01*
X102042769Y-101102383D01*
X102245582Y-101593229D01*
X102620796Y-101969098D01*
X103111287Y-102172768D01*
X103642383Y-102173231D01*
X104133229Y-101970418D01*
X104330716Y-101773275D01*
X105162331Y-101773275D01*
X105224169Y-102009042D01*
X105725122Y-102185419D01*
X106255440Y-102156664D01*
X106611831Y-102009042D01*
X106673669Y-101773275D01*
X105918000Y-101017605D01*
X105162331Y-101773275D01*
X104330716Y-101773275D01*
X104509098Y-101595204D01*
X104641316Y-101276788D01*
X104746958Y-101531831D01*
X104982725Y-101593669D01*
X105738395Y-100838000D01*
X106097605Y-100838000D01*
X106853275Y-101593669D01*
X107089042Y-101531831D01*
X107240243Y-101102383D01*
X107757769Y-101102383D01*
X107960582Y-101593229D01*
X108335796Y-101969098D01*
X108826287Y-102172768D01*
X109357383Y-102173231D01*
X109848229Y-101970418D01*
X110045716Y-101773275D01*
X110877331Y-101773275D01*
X110939169Y-102009042D01*
X111440122Y-102185419D01*
X111970440Y-102156664D01*
X112326831Y-102009042D01*
X112388669Y-101773275D01*
X111633000Y-101017605D01*
X110877331Y-101773275D01*
X110045716Y-101773275D01*
X110224098Y-101595204D01*
X110356316Y-101276788D01*
X110461958Y-101531831D01*
X110697725Y-101593669D01*
X111453395Y-100838000D01*
X111812605Y-100838000D01*
X112568275Y-101593669D01*
X112804042Y-101531831D01*
X112980419Y-101030878D01*
X112980001Y-101023167D01*
X136605838Y-101023167D01*
X136747883Y-101366943D01*
X137010673Y-101630192D01*
X137354201Y-101772838D01*
X137726167Y-101773162D01*
X138069943Y-101631117D01*
X138333192Y-101368327D01*
X138475838Y-101024799D01*
X138476060Y-100769167D01*
X144606838Y-100769167D01*
X144748883Y-101112943D01*
X145011673Y-101376192D01*
X145355201Y-101518838D01*
X145727167Y-101519162D01*
X146070943Y-101377117D01*
X146334192Y-101114327D01*
X146476838Y-100770799D01*
X146477162Y-100398833D01*
X146378961Y-100161167D01*
X156820838Y-100161167D01*
X156962883Y-100504943D01*
X157225673Y-100768192D01*
X157569201Y-100910838D01*
X157941167Y-100911162D01*
X158284943Y-100769117D01*
X158548192Y-100506327D01*
X158690838Y-100162799D01*
X158691162Y-99790833D01*
X158549117Y-99447057D01*
X158286327Y-99183808D01*
X157942799Y-99041162D01*
X157570833Y-99040838D01*
X157227057Y-99182883D01*
X156963808Y-99445673D01*
X156821162Y-99789201D01*
X156820838Y-100161167D01*
X146378961Y-100161167D01*
X146335117Y-100055057D01*
X146072327Y-99791808D01*
X145728799Y-99649162D01*
X145356833Y-99648838D01*
X145013057Y-99790883D01*
X144749808Y-100053673D01*
X144607162Y-100397201D01*
X144606838Y-100769167D01*
X138476060Y-100769167D01*
X138476162Y-100652833D01*
X138334117Y-100309057D01*
X138071327Y-100045808D01*
X137727799Y-99903162D01*
X137355833Y-99902838D01*
X137012057Y-100044883D01*
X136748808Y-100307673D01*
X136606162Y-100651201D01*
X136605838Y-101023167D01*
X112980001Y-101023167D01*
X112951664Y-100500560D01*
X112804042Y-100144169D01*
X112568275Y-100082331D01*
X111812605Y-100838000D01*
X111453395Y-100838000D01*
X110697725Y-100082331D01*
X110461958Y-100144169D01*
X110364804Y-100420111D01*
X110225418Y-100082771D01*
X110045686Y-99902725D01*
X110877331Y-99902725D01*
X111633000Y-100658395D01*
X112388669Y-99902725D01*
X112326831Y-99666958D01*
X111850265Y-99499167D01*
X118190838Y-99499167D01*
X118332883Y-99842943D01*
X118595673Y-100106192D01*
X118939201Y-100248838D01*
X119311167Y-100249162D01*
X119654943Y-100107117D01*
X119918192Y-99844327D01*
X120060838Y-99500799D01*
X120061162Y-99128833D01*
X119919117Y-98785057D01*
X119656327Y-98521808D01*
X119312799Y-98379162D01*
X118940833Y-98378838D01*
X118597057Y-98520883D01*
X118333808Y-98783673D01*
X118191162Y-99127201D01*
X118190838Y-99499167D01*
X111850265Y-99499167D01*
X111825878Y-99490581D01*
X111295560Y-99519336D01*
X110939169Y-99666958D01*
X110877331Y-99902725D01*
X110045686Y-99902725D01*
X109850204Y-99706902D01*
X109359713Y-99503232D01*
X108828617Y-99502769D01*
X108337771Y-99705582D01*
X107961902Y-100080796D01*
X107758232Y-100571287D01*
X107757769Y-101102383D01*
X107240243Y-101102383D01*
X107265419Y-101030878D01*
X107236664Y-100500560D01*
X107089042Y-100144169D01*
X106853275Y-100082331D01*
X106097605Y-100838000D01*
X105738395Y-100838000D01*
X104982725Y-100082331D01*
X104746958Y-100144169D01*
X104649804Y-100420111D01*
X104510418Y-100082771D01*
X104330686Y-99902725D01*
X105162331Y-99902725D01*
X105918000Y-100658395D01*
X106673669Y-99902725D01*
X106611831Y-99666958D01*
X106110878Y-99490581D01*
X105580560Y-99519336D01*
X105224169Y-99666958D01*
X105162331Y-99902725D01*
X104330686Y-99902725D01*
X104135204Y-99706902D01*
X103644713Y-99503232D01*
X103113617Y-99502769D01*
X102622771Y-99705582D01*
X102246902Y-100080796D01*
X102043232Y-100571287D01*
X102042769Y-101102383D01*
X93141000Y-101102383D01*
X93141000Y-97461167D01*
X163120838Y-97461167D01*
X163262883Y-97804943D01*
X163525673Y-98068192D01*
X163869201Y-98210838D01*
X164241167Y-98211162D01*
X164584943Y-98069117D01*
X164793256Y-97861167D01*
X179120838Y-97861167D01*
X179262883Y-98204943D01*
X179525673Y-98468192D01*
X179869201Y-98610838D01*
X180241167Y-98611162D01*
X180584943Y-98469117D01*
X180848192Y-98206327D01*
X180990838Y-97862799D01*
X180991162Y-97490833D01*
X180849117Y-97147057D01*
X180586327Y-96883808D01*
X180242799Y-96741162D01*
X179870833Y-96740838D01*
X179527057Y-96882883D01*
X179263808Y-97145673D01*
X179121162Y-97489201D01*
X179120838Y-97861167D01*
X164793256Y-97861167D01*
X164848192Y-97806327D01*
X164990838Y-97462799D01*
X164991162Y-97090833D01*
X164936759Y-96959167D01*
X169498838Y-96959167D01*
X169640883Y-97302943D01*
X169903673Y-97566192D01*
X170247201Y-97708838D01*
X170619167Y-97709162D01*
X170962943Y-97567117D01*
X171226192Y-97304327D01*
X171368838Y-96960799D01*
X171369162Y-96588833D01*
X171227117Y-96245057D01*
X170964327Y-95981808D01*
X170620799Y-95839162D01*
X170248833Y-95838838D01*
X169905057Y-95980883D01*
X169641808Y-96243673D01*
X169499162Y-96587201D01*
X169498838Y-96959167D01*
X164936759Y-96959167D01*
X164849117Y-96747057D01*
X164586327Y-96483808D01*
X164242799Y-96341162D01*
X163870833Y-96340838D01*
X163527057Y-96482883D01*
X163263808Y-96745673D01*
X163121162Y-97089201D01*
X163120838Y-97461167D01*
X93141000Y-97461167D01*
X93141000Y-96451167D01*
X134700838Y-96451167D01*
X134842883Y-96794943D01*
X135105673Y-97058192D01*
X135449201Y-97200838D01*
X135821167Y-97201162D01*
X136164943Y-97059117D01*
X136428192Y-96796327D01*
X136570838Y-96452799D01*
X136571162Y-96080833D01*
X136429117Y-95737057D01*
X136166327Y-95473808D01*
X135822799Y-95331162D01*
X135450833Y-95330838D01*
X135107057Y-95472883D01*
X134843808Y-95735673D01*
X134701162Y-96079201D01*
X134700838Y-96451167D01*
X93141000Y-96451167D01*
X93141000Y-95161167D01*
X110420838Y-95161167D01*
X110562883Y-95504943D01*
X110825673Y-95768192D01*
X111169201Y-95910838D01*
X111541167Y-95911162D01*
X111884943Y-95769117D01*
X112148192Y-95506327D01*
X112177740Y-95435167D01*
X125937838Y-95435167D01*
X126079883Y-95778943D01*
X126342673Y-96042192D01*
X126686201Y-96184838D01*
X127058167Y-96185162D01*
X127401943Y-96043117D01*
X127665192Y-95780327D01*
X127755780Y-95562167D01*
X130001838Y-95562167D01*
X130143883Y-95905943D01*
X130406673Y-96169192D01*
X130750201Y-96311838D01*
X131122167Y-96312162D01*
X131465943Y-96170117D01*
X131729192Y-95907327D01*
X131871838Y-95563799D01*
X131872162Y-95191833D01*
X131730117Y-94848057D01*
X131543553Y-94661167D01*
X160120838Y-94661167D01*
X160262883Y-95004943D01*
X160525673Y-95268192D01*
X160869201Y-95410838D01*
X161241167Y-95411162D01*
X161584943Y-95269117D01*
X161848192Y-95006327D01*
X161990838Y-94662799D01*
X161990939Y-94546167D01*
X164291838Y-94546167D01*
X164433883Y-94889943D01*
X164696673Y-95153192D01*
X165040201Y-95295838D01*
X165412167Y-95296162D01*
X165755943Y-95154117D01*
X166019192Y-94891327D01*
X166161838Y-94547799D01*
X166161950Y-94419167D01*
X168736838Y-94419167D01*
X168878883Y-94762943D01*
X169141673Y-95026192D01*
X169485201Y-95168838D01*
X169857167Y-95169162D01*
X170200943Y-95027117D01*
X170464192Y-94764327D01*
X170606838Y-94420799D01*
X170607162Y-94048833D01*
X170465117Y-93705057D01*
X170202327Y-93441808D01*
X169858799Y-93299162D01*
X169486833Y-93298838D01*
X169143057Y-93440883D01*
X168879808Y-93703673D01*
X168737162Y-94047201D01*
X168736838Y-94419167D01*
X166161950Y-94419167D01*
X166162162Y-94175833D01*
X166020117Y-93832057D01*
X165757327Y-93568808D01*
X165413799Y-93426162D01*
X165041833Y-93425838D01*
X164698057Y-93567883D01*
X164434808Y-93830673D01*
X164292162Y-94174201D01*
X164291838Y-94546167D01*
X161990939Y-94546167D01*
X161991162Y-94290833D01*
X161849117Y-93947057D01*
X161586327Y-93683808D01*
X161242799Y-93541162D01*
X160870833Y-93540838D01*
X160527057Y-93682883D01*
X160263808Y-93945673D01*
X160121162Y-94289201D01*
X160120838Y-94661167D01*
X131543553Y-94661167D01*
X131467327Y-94584808D01*
X131123799Y-94442162D01*
X130751833Y-94441838D01*
X130408057Y-94583883D01*
X130144808Y-94846673D01*
X130002162Y-95190201D01*
X130001838Y-95562167D01*
X127755780Y-95562167D01*
X127807838Y-95436799D01*
X127808162Y-95064833D01*
X127666117Y-94721057D01*
X127403327Y-94457808D01*
X127059799Y-94315162D01*
X126687833Y-94314838D01*
X126344057Y-94456883D01*
X126080808Y-94719673D01*
X125938162Y-95063201D01*
X125937838Y-95435167D01*
X112177740Y-95435167D01*
X112290838Y-95162799D01*
X112291162Y-94790833D01*
X112149117Y-94447057D01*
X111886327Y-94183808D01*
X111542799Y-94041162D01*
X111170833Y-94040838D01*
X110827057Y-94182883D01*
X110563808Y-94445673D01*
X110421162Y-94789201D01*
X110420838Y-95161167D01*
X93141000Y-95161167D01*
X93141000Y-93530167D01*
X154385838Y-93530167D01*
X154527883Y-93873943D01*
X154790673Y-94137192D01*
X155134201Y-94279838D01*
X155506167Y-94280162D01*
X155849943Y-94138117D01*
X156113192Y-93875327D01*
X156255838Y-93531799D01*
X156256162Y-93159833D01*
X156199280Y-93022167D01*
X156417838Y-93022167D01*
X156559883Y-93365943D01*
X156822673Y-93629192D01*
X157166201Y-93771838D01*
X157538167Y-93772162D01*
X157881943Y-93630117D01*
X158145192Y-93367327D01*
X158287838Y-93023799D01*
X158288162Y-92651833D01*
X158146117Y-92308057D01*
X157883327Y-92044808D01*
X157539799Y-91902162D01*
X157167833Y-91901838D01*
X156824057Y-92043883D01*
X156560808Y-92306673D01*
X156418162Y-92650201D01*
X156417838Y-93022167D01*
X156199280Y-93022167D01*
X156114117Y-92816057D01*
X155851327Y-92552808D01*
X155507799Y-92410162D01*
X155135833Y-92409838D01*
X154792057Y-92551883D01*
X154528808Y-92814673D01*
X154386162Y-93158201D01*
X154385838Y-93530167D01*
X93141000Y-93530167D01*
X93141000Y-92641167D01*
X139780838Y-92641167D01*
X139922883Y-92984943D01*
X140185673Y-93248192D01*
X140529201Y-93390838D01*
X140901167Y-93391162D01*
X141244943Y-93249117D01*
X141508192Y-92986327D01*
X141650838Y-92642799D01*
X141651162Y-92270833D01*
X141509117Y-91927057D01*
X141246327Y-91663808D01*
X140902799Y-91521162D01*
X140530833Y-91520838D01*
X140187057Y-91662883D01*
X139923808Y-91925673D01*
X139781162Y-92269201D01*
X139780838Y-92641167D01*
X93141000Y-92641167D01*
X93141000Y-91752167D01*
X115777838Y-91752167D01*
X115919883Y-92095943D01*
X116182673Y-92359192D01*
X116526201Y-92501838D01*
X116898167Y-92502162D01*
X117241943Y-92360117D01*
X117505192Y-92097327D01*
X117647838Y-91753799D01*
X117648162Y-91381833D01*
X117506117Y-91038057D01*
X117243327Y-90774808D01*
X116899799Y-90632162D01*
X116527833Y-90631838D01*
X116184057Y-90773883D01*
X115920808Y-91036673D01*
X115778162Y-91380201D01*
X115777838Y-91752167D01*
X93141000Y-91752167D01*
X93141000Y-89847167D01*
X109808838Y-89847167D01*
X109950883Y-90190943D01*
X110213673Y-90454192D01*
X110557201Y-90596838D01*
X110929167Y-90597162D01*
X111272943Y-90455117D01*
X111536192Y-90192327D01*
X111626780Y-89974167D01*
X113745838Y-89974167D01*
X113887883Y-90317943D01*
X114150673Y-90581192D01*
X114494201Y-90723838D01*
X114866167Y-90724162D01*
X115209943Y-90582117D01*
X115306060Y-90486167D01*
X131645838Y-90486167D01*
X131787883Y-90829943D01*
X132050673Y-91093192D01*
X132394201Y-91235838D01*
X132766167Y-91236162D01*
X133109943Y-91094117D01*
X133373192Y-90831327D01*
X133465441Y-90609167D01*
X140542838Y-90609167D01*
X140684883Y-90952943D01*
X140947673Y-91216192D01*
X141291201Y-91358838D01*
X141663167Y-91359162D01*
X141749759Y-91323383D01*
X170876769Y-91323383D01*
X171079582Y-91814229D01*
X171454796Y-92190098D01*
X171945287Y-92393768D01*
X172476383Y-92394231D01*
X172967229Y-92191418D01*
X173343098Y-91816204D01*
X173461525Y-91531000D01*
X176989560Y-91531000D01*
X176989560Y-93381000D01*
X177038843Y-93628765D01*
X177179191Y-93838809D01*
X177389235Y-93979157D01*
X177637000Y-94028440D01*
X179487000Y-94028440D01*
X179734765Y-93979157D01*
X179944809Y-93838809D01*
X180085157Y-93628765D01*
X180134440Y-93381000D01*
X180134440Y-91531000D01*
X180085157Y-91283235D01*
X179944809Y-91073191D01*
X179768782Y-90955573D01*
X179883732Y-90840823D01*
X180121728Y-90267664D01*
X180122270Y-89647058D01*
X179885275Y-89073486D01*
X179446823Y-88634268D01*
X178873664Y-88396272D01*
X178253058Y-88395730D01*
X177679486Y-88632725D01*
X177240268Y-89071177D01*
X177002272Y-89644336D01*
X177001730Y-90264942D01*
X177238725Y-90838514D01*
X177355435Y-90955428D01*
X177179191Y-91073191D01*
X177038843Y-91283235D01*
X176989560Y-91531000D01*
X173461525Y-91531000D01*
X173546768Y-91325713D01*
X173547231Y-90794617D01*
X173344418Y-90303771D01*
X172969204Y-89927902D01*
X172650788Y-89795684D01*
X172905831Y-89690042D01*
X172967669Y-89454275D01*
X172212000Y-88698605D01*
X171456331Y-89454275D01*
X171518169Y-89690042D01*
X171794111Y-89787196D01*
X171456771Y-89926582D01*
X171080902Y-90301796D01*
X170877232Y-90792287D01*
X170876769Y-91323383D01*
X141749759Y-91323383D01*
X142006943Y-91217117D01*
X142270192Y-90954327D01*
X142412838Y-90610799D01*
X142413060Y-90355167D01*
X148035838Y-90355167D01*
X148177883Y-90698943D01*
X148440673Y-90962192D01*
X148784201Y-91104838D01*
X149156167Y-91105162D01*
X149499943Y-90963117D01*
X149763192Y-90700327D01*
X149905838Y-90356799D01*
X149906060Y-90101167D01*
X160735838Y-90101167D01*
X160877883Y-90444943D01*
X161140673Y-90708192D01*
X161484201Y-90850838D01*
X161856167Y-90851162D01*
X162199943Y-90709117D01*
X162463192Y-90446327D01*
X162605838Y-90102799D01*
X162606162Y-89730833D01*
X162464117Y-89387057D01*
X162201327Y-89123808D01*
X161857799Y-88981162D01*
X161485833Y-88980838D01*
X161142057Y-89122883D01*
X160878808Y-89385673D01*
X160736162Y-89729201D01*
X160735838Y-90101167D01*
X149906060Y-90101167D01*
X149906162Y-89984833D01*
X149764117Y-89641057D01*
X149501327Y-89377808D01*
X149157799Y-89235162D01*
X148785833Y-89234838D01*
X148442057Y-89376883D01*
X148178808Y-89639673D01*
X148036162Y-89983201D01*
X148035838Y-90355167D01*
X142413060Y-90355167D01*
X142413162Y-90238833D01*
X142271117Y-89895057D01*
X142008327Y-89631808D01*
X141664799Y-89489162D01*
X141292833Y-89488838D01*
X140949057Y-89630883D01*
X140685808Y-89893673D01*
X140543162Y-90237201D01*
X140542838Y-90609167D01*
X133465441Y-90609167D01*
X133515838Y-90487799D01*
X133516162Y-90115833D01*
X133374117Y-89772057D01*
X133322318Y-89720167D01*
X135335838Y-89720167D01*
X135477883Y-90063943D01*
X135740673Y-90327192D01*
X136084201Y-90469838D01*
X136456167Y-90470162D01*
X136799943Y-90328117D01*
X137063192Y-90065327D01*
X137205838Y-89721799D01*
X137206162Y-89349833D01*
X137064117Y-89006057D01*
X136889532Y-88831167D01*
X139018838Y-88831167D01*
X139160883Y-89174943D01*
X139423673Y-89438192D01*
X139767201Y-89580838D01*
X140139167Y-89581162D01*
X140482943Y-89439117D01*
X140746192Y-89176327D01*
X140888838Y-88832799D01*
X140889162Y-88460833D01*
X140832280Y-88323167D01*
X141431838Y-88323167D01*
X141573883Y-88666943D01*
X141836673Y-88930192D01*
X142180201Y-89072838D01*
X142552167Y-89073162D01*
X142895943Y-88931117D01*
X143159192Y-88668327D01*
X143301838Y-88324799D01*
X143301839Y-88323167D01*
X156798838Y-88323167D01*
X156940883Y-88666943D01*
X157203673Y-88930192D01*
X157547201Y-89072838D01*
X157919167Y-89073162D01*
X158262943Y-88931117D01*
X158526192Y-88668327D01*
X158668288Y-88326122D01*
X170864581Y-88326122D01*
X170893336Y-88856440D01*
X171040958Y-89212831D01*
X171276725Y-89274669D01*
X172032395Y-88519000D01*
X172391605Y-88519000D01*
X173147275Y-89274669D01*
X173383042Y-89212831D01*
X173559419Y-88711878D01*
X173530664Y-88181560D01*
X173383042Y-87825169D01*
X173147275Y-87763331D01*
X172391605Y-88519000D01*
X172032395Y-88519000D01*
X171276725Y-87763331D01*
X171040958Y-87825169D01*
X170864581Y-88326122D01*
X158668288Y-88326122D01*
X158668838Y-88324799D01*
X158669162Y-87952833D01*
X158527117Y-87609057D01*
X158501830Y-87583725D01*
X171456331Y-87583725D01*
X172212000Y-88339395D01*
X172967669Y-87583725D01*
X172905831Y-87347958D01*
X172404878Y-87171581D01*
X171874560Y-87200336D01*
X171518169Y-87347958D01*
X171456331Y-87583725D01*
X158501830Y-87583725D01*
X158264327Y-87345808D01*
X157920799Y-87203162D01*
X157548833Y-87202838D01*
X157205057Y-87344883D01*
X156941808Y-87607673D01*
X156799162Y-87951201D01*
X156798838Y-88323167D01*
X143301839Y-88323167D01*
X143302162Y-87952833D01*
X143160117Y-87609057D01*
X142897327Y-87345808D01*
X142804270Y-87307167D01*
X144251238Y-87307167D01*
X144393283Y-87650943D01*
X144656073Y-87914192D01*
X144999601Y-88056838D01*
X145371567Y-88057162D01*
X145715343Y-87915117D01*
X145978592Y-87652327D01*
X146121238Y-87308799D01*
X146121549Y-86951567D01*
X150245638Y-86951567D01*
X150387683Y-87295343D01*
X150650473Y-87558592D01*
X150994001Y-87701238D01*
X151365967Y-87701562D01*
X151709743Y-87559517D01*
X151972992Y-87296727D01*
X152115638Y-86953199D01*
X152115962Y-86581233D01*
X151996110Y-86291167D01*
X173308838Y-86291167D01*
X173450883Y-86634943D01*
X173713673Y-86898192D01*
X174057201Y-87040838D01*
X174429167Y-87041162D01*
X174772943Y-86899117D01*
X175036192Y-86636327D01*
X175178838Y-86292799D01*
X175179162Y-85920833D01*
X175037117Y-85577057D01*
X174774327Y-85313808D01*
X174430799Y-85171162D01*
X174058833Y-85170838D01*
X173715057Y-85312883D01*
X173451808Y-85575673D01*
X173309162Y-85919201D01*
X173308838Y-86291167D01*
X151996110Y-86291167D01*
X151973917Y-86237457D01*
X151711127Y-85974208D01*
X151367599Y-85831562D01*
X150995633Y-85831238D01*
X150651857Y-85973283D01*
X150388608Y-86236073D01*
X150245962Y-86579601D01*
X150245638Y-86951567D01*
X146121549Y-86951567D01*
X146121562Y-86936833D01*
X145979517Y-86593057D01*
X145716727Y-86329808D01*
X145373199Y-86187162D01*
X145001233Y-86186838D01*
X144657457Y-86328883D01*
X144394208Y-86591673D01*
X144251562Y-86935201D01*
X144251238Y-87307167D01*
X142804270Y-87307167D01*
X142553799Y-87203162D01*
X142181833Y-87202838D01*
X141838057Y-87344883D01*
X141574808Y-87607673D01*
X141432162Y-87951201D01*
X141431838Y-88323167D01*
X140832280Y-88323167D01*
X140747117Y-88117057D01*
X140484327Y-87853808D01*
X140140799Y-87711162D01*
X139768833Y-87710838D01*
X139425057Y-87852883D01*
X139161808Y-88115673D01*
X139019162Y-88459201D01*
X139018838Y-88831167D01*
X136889532Y-88831167D01*
X136801327Y-88742808D01*
X136457799Y-88600162D01*
X136085833Y-88599838D01*
X135742057Y-88741883D01*
X135478808Y-89004673D01*
X135336162Y-89348201D01*
X135335838Y-89720167D01*
X133322318Y-89720167D01*
X133183249Y-89580855D01*
X133535167Y-89581162D01*
X133878943Y-89439117D01*
X134142192Y-89176327D01*
X134284838Y-88832799D01*
X134285162Y-88460833D01*
X134143117Y-88117057D01*
X133880327Y-87853808D01*
X133536799Y-87711162D01*
X133164833Y-87710838D01*
X132821057Y-87852883D01*
X132557808Y-88115673D01*
X132415162Y-88459201D01*
X132414838Y-88831167D01*
X132556883Y-89174943D01*
X132747751Y-89366145D01*
X132395833Y-89365838D01*
X132052057Y-89507883D01*
X131788808Y-89770673D01*
X131646162Y-90114201D01*
X131645838Y-90486167D01*
X115306060Y-90486167D01*
X115473192Y-90319327D01*
X115615838Y-89975799D01*
X115616162Y-89603833D01*
X115474117Y-89260057D01*
X115211327Y-88996808D01*
X114867799Y-88854162D01*
X114495833Y-88853838D01*
X114152057Y-88995883D01*
X113888808Y-89258673D01*
X113746162Y-89602201D01*
X113745838Y-89974167D01*
X111626780Y-89974167D01*
X111678838Y-89848799D01*
X111679162Y-89476833D01*
X111537117Y-89133057D01*
X111274327Y-88869808D01*
X110930799Y-88727162D01*
X110558833Y-88726838D01*
X110215057Y-88868883D01*
X109951808Y-89131673D01*
X109809162Y-89475201D01*
X109808838Y-89847167D01*
X93141000Y-89847167D01*
X93141000Y-88561176D01*
X122120838Y-88561176D01*
X122262883Y-88904952D01*
X122525673Y-89168201D01*
X122869201Y-89310847D01*
X123241167Y-89311171D01*
X123584943Y-89169126D01*
X123848192Y-88906336D01*
X123990838Y-88562808D01*
X123991162Y-88190842D01*
X123849117Y-87847066D01*
X123817274Y-87815167D01*
X125556838Y-87815167D01*
X125698883Y-88158943D01*
X125961673Y-88422192D01*
X126305201Y-88564838D01*
X126677167Y-88565162D01*
X127020943Y-88423117D01*
X127284192Y-88160327D01*
X127426838Y-87816799D01*
X127427162Y-87444833D01*
X127285117Y-87101057D01*
X127022327Y-86837808D01*
X126678799Y-86695162D01*
X126306833Y-86694838D01*
X125963057Y-86836883D01*
X125699808Y-87099673D01*
X125557162Y-87443201D01*
X125556838Y-87815167D01*
X123817274Y-87815167D01*
X123586327Y-87583817D01*
X123242799Y-87441171D01*
X122870833Y-87440847D01*
X122527057Y-87582892D01*
X122263808Y-87845682D01*
X122121162Y-88189210D01*
X122120838Y-88561176D01*
X93141000Y-88561176D01*
X93141000Y-87561167D01*
X107649838Y-87561167D01*
X107791883Y-87904943D01*
X108054673Y-88168192D01*
X108398201Y-88310838D01*
X108770167Y-88311162D01*
X109113943Y-88169117D01*
X109377192Y-87906327D01*
X109519838Y-87562799D01*
X109520162Y-87190833D01*
X109378117Y-86847057D01*
X109115327Y-86583808D01*
X108771799Y-86441162D01*
X108399833Y-86440838D01*
X108056057Y-86582883D01*
X107792808Y-86845673D01*
X107650162Y-87189201D01*
X107649838Y-87561167D01*
X93141000Y-87561167D01*
X93141000Y-85236167D01*
X110620838Y-85236167D01*
X110762883Y-85579943D01*
X111025673Y-85843192D01*
X111369201Y-85985838D01*
X111741167Y-85986162D01*
X112084943Y-85844117D01*
X112102591Y-85826499D01*
X112569325Y-85826499D01*
X112711370Y-86170275D01*
X112974160Y-86433524D01*
X113317688Y-86576170D01*
X113689654Y-86576494D01*
X114033430Y-86434449D01*
X114296679Y-86171659D01*
X114439325Y-85828131D01*
X114439649Y-85456165D01*
X114297604Y-85112389D01*
X114257253Y-85071967D01*
X145572038Y-85071967D01*
X145714083Y-85415743D01*
X145976873Y-85678992D01*
X146320401Y-85821638D01*
X146692367Y-85821962D01*
X147036143Y-85679917D01*
X147299392Y-85417127D01*
X147442038Y-85073599D01*
X147442362Y-84701633D01*
X147300317Y-84357857D01*
X147037527Y-84094608D01*
X146693999Y-83951962D01*
X146322033Y-83951638D01*
X145978257Y-84093683D01*
X145715008Y-84356473D01*
X145572362Y-84700001D01*
X145572038Y-85071967D01*
X114257253Y-85071967D01*
X114034814Y-84849140D01*
X113691286Y-84706494D01*
X113319320Y-84706170D01*
X112975544Y-84848215D01*
X112712295Y-85111005D01*
X112569649Y-85454533D01*
X112569325Y-85826499D01*
X112102591Y-85826499D01*
X112348192Y-85581327D01*
X112490838Y-85237799D01*
X112491162Y-84865833D01*
X112349117Y-84522057D01*
X112086327Y-84258808D01*
X111742799Y-84116162D01*
X111370833Y-84115838D01*
X111027057Y-84257883D01*
X110763808Y-84520673D01*
X110621162Y-84864201D01*
X110620838Y-85236167D01*
X93141000Y-85236167D01*
X93141000Y-84005167D01*
X126191838Y-84005167D01*
X126333883Y-84348943D01*
X126596673Y-84612192D01*
X126940201Y-84754838D01*
X127312167Y-84755162D01*
X127655943Y-84613117D01*
X127919192Y-84350327D01*
X128061838Y-84006799D01*
X128061964Y-83861167D01*
X148220838Y-83861167D01*
X148362883Y-84204943D01*
X148625673Y-84468192D01*
X148969201Y-84610838D01*
X149341167Y-84611162D01*
X149684943Y-84469117D01*
X149948192Y-84206327D01*
X150090838Y-83862799D01*
X150090839Y-83861167D01*
X160320838Y-83861167D01*
X160462883Y-84204943D01*
X160725673Y-84468192D01*
X161069201Y-84610838D01*
X161441167Y-84611162D01*
X161784943Y-84469117D01*
X162048192Y-84206327D01*
X162190838Y-83862799D01*
X162191162Y-83490833D01*
X162049117Y-83147057D01*
X161786327Y-82883808D01*
X161442799Y-82741162D01*
X161070833Y-82740838D01*
X160727057Y-82882883D01*
X160463808Y-83145673D01*
X160321162Y-83489201D01*
X160320838Y-83861167D01*
X150090839Y-83861167D01*
X150091162Y-83490833D01*
X149949117Y-83147057D01*
X149686327Y-82883808D01*
X149342799Y-82741162D01*
X148970833Y-82740838D01*
X148627057Y-82882883D01*
X148363808Y-83145673D01*
X148221162Y-83489201D01*
X148220838Y-83861167D01*
X128061964Y-83861167D01*
X128062162Y-83634833D01*
X127920117Y-83291057D01*
X127864183Y-83235025D01*
X127909943Y-83216117D01*
X128173192Y-82953327D01*
X128315838Y-82609799D01*
X128316162Y-82237833D01*
X128174117Y-81894057D01*
X127911327Y-81630808D01*
X127567799Y-81488162D01*
X127195833Y-81487838D01*
X126852057Y-81629883D01*
X126588808Y-81892673D01*
X126446162Y-82236201D01*
X126445838Y-82608167D01*
X126587883Y-82951943D01*
X126643817Y-83007975D01*
X126598057Y-83026883D01*
X126334808Y-83289673D01*
X126192162Y-83633201D01*
X126191838Y-84005167D01*
X93141000Y-84005167D01*
X93141000Y-81465167D01*
X118063838Y-81465167D01*
X118205883Y-81808943D01*
X118468673Y-82072192D01*
X118812201Y-82214838D01*
X119184167Y-82215162D01*
X119527943Y-82073117D01*
X119791192Y-81810327D01*
X119933838Y-81466799D01*
X119934162Y-81094833D01*
X119877280Y-80957167D01*
X124413838Y-80957167D01*
X124555883Y-81300943D01*
X124818673Y-81564192D01*
X125162201Y-81706838D01*
X125534167Y-81707162D01*
X125877943Y-81565117D01*
X125978067Y-81465167D01*
X142828838Y-81465167D01*
X142970883Y-81808943D01*
X143233673Y-82072192D01*
X143577201Y-82214838D01*
X143844959Y-82215071D01*
X143844838Y-82354167D01*
X143986883Y-82697943D01*
X144249673Y-82961192D01*
X144593201Y-83103838D01*
X144965167Y-83104162D01*
X145308943Y-82962117D01*
X145572192Y-82699327D01*
X145714838Y-82355799D01*
X145715162Y-81983833D01*
X145573117Y-81640057D01*
X145310327Y-81376808D01*
X144966799Y-81234162D01*
X144699041Y-81233929D01*
X144699162Y-81094833D01*
X144557117Y-80751057D01*
X144294327Y-80487808D01*
X143950799Y-80345162D01*
X143578833Y-80344838D01*
X143235057Y-80486883D01*
X142971808Y-80749673D01*
X142829162Y-81093201D01*
X142828838Y-81465167D01*
X125978067Y-81465167D01*
X126141192Y-81302327D01*
X126283838Y-80958799D01*
X126284162Y-80586833D01*
X126142117Y-80243057D01*
X125960545Y-80061167D01*
X144820838Y-80061167D01*
X144962883Y-80404943D01*
X145225673Y-80668192D01*
X145569201Y-80810838D01*
X145941167Y-80811162D01*
X146284943Y-80669117D01*
X146548192Y-80406327D01*
X146690838Y-80062799D01*
X146691162Y-79690833D01*
X146596267Y-79461167D01*
X159620838Y-79461167D01*
X159762883Y-79804943D01*
X160025673Y-80068192D01*
X160369201Y-80210838D01*
X160521143Y-80210970D01*
X160520838Y-80561167D01*
X160553823Y-80640997D01*
X160370833Y-80640838D01*
X160027057Y-80782883D01*
X159763808Y-81045673D01*
X159621162Y-81389201D01*
X159620838Y-81761167D01*
X159762883Y-82104943D01*
X160025673Y-82368192D01*
X160369201Y-82510838D01*
X160741167Y-82511162D01*
X161084943Y-82369117D01*
X161348192Y-82106327D01*
X161490838Y-81762799D01*
X161491162Y-81390833D01*
X161458177Y-81311003D01*
X161641167Y-81311162D01*
X161984943Y-81169117D01*
X162037151Y-81117000D01*
X176989560Y-81117000D01*
X176989560Y-82967000D01*
X177038843Y-83214765D01*
X177179191Y-83424809D01*
X177389235Y-83565157D01*
X177637000Y-83614440D01*
X179487000Y-83614440D01*
X179734765Y-83565157D01*
X179944809Y-83424809D01*
X180085157Y-83214765D01*
X180134440Y-82967000D01*
X180134440Y-82326000D01*
X181772887Y-82326000D01*
X181882120Y-82875151D01*
X182193189Y-83340698D01*
X182575275Y-83596000D01*
X182193189Y-83851302D01*
X181882120Y-84316849D01*
X181772887Y-84866000D01*
X181882120Y-85415151D01*
X182193189Y-85880698D01*
X182575275Y-86136000D01*
X182193189Y-86391302D01*
X181882120Y-86856849D01*
X181772887Y-87406000D01*
X181882120Y-87955151D01*
X182193189Y-88420698D01*
X182658736Y-88731767D01*
X183207887Y-88841000D01*
X183264113Y-88841000D01*
X183813264Y-88731767D01*
X184278811Y-88420698D01*
X184589880Y-87955151D01*
X184699113Y-87406000D01*
X184589880Y-86856849D01*
X184278811Y-86391302D01*
X183896725Y-86136000D01*
X184278811Y-85880698D01*
X184589880Y-85415151D01*
X184699113Y-84866000D01*
X184589880Y-84316849D01*
X184278811Y-83851302D01*
X183896725Y-83596000D01*
X184278811Y-83340698D01*
X184589880Y-82875151D01*
X184699113Y-82326000D01*
X189392887Y-82326000D01*
X189502120Y-82875151D01*
X189813189Y-83340698D01*
X190195275Y-83596000D01*
X189813189Y-83851302D01*
X189502120Y-84316849D01*
X189392887Y-84866000D01*
X189502120Y-85415151D01*
X189813189Y-85880698D01*
X190195275Y-86136000D01*
X189813189Y-86391302D01*
X189502120Y-86856849D01*
X189392887Y-87406000D01*
X189502120Y-87955151D01*
X189813189Y-88420698D01*
X190278736Y-88731767D01*
X190827887Y-88841000D01*
X190884113Y-88841000D01*
X191433264Y-88731767D01*
X191898811Y-88420698D01*
X192209880Y-87955151D01*
X192319113Y-87406000D01*
X192209880Y-86856849D01*
X191898811Y-86391302D01*
X191516725Y-86136000D01*
X191898811Y-85880698D01*
X192209880Y-85415151D01*
X192319113Y-84866000D01*
X192209880Y-84316849D01*
X191898811Y-83851302D01*
X191516725Y-83596000D01*
X191898811Y-83340698D01*
X192209880Y-82875151D01*
X192319113Y-82326000D01*
X192209880Y-81776849D01*
X191898811Y-81311302D01*
X191433264Y-81000233D01*
X190884113Y-80891000D01*
X190827887Y-80891000D01*
X190278736Y-81000233D01*
X189813189Y-81311302D01*
X189502120Y-81776849D01*
X189392887Y-82326000D01*
X184699113Y-82326000D01*
X184589880Y-81776849D01*
X184278811Y-81311302D01*
X183813264Y-81000233D01*
X183264113Y-80891000D01*
X183207887Y-80891000D01*
X182658736Y-81000233D01*
X182193189Y-81311302D01*
X181882120Y-81776849D01*
X181772887Y-82326000D01*
X180134440Y-82326000D01*
X180134440Y-81117000D01*
X180085157Y-80869235D01*
X179944809Y-80659191D01*
X179768782Y-80541573D01*
X179883732Y-80426823D01*
X180121728Y-79853664D01*
X180122270Y-79233058D01*
X179885275Y-78659486D01*
X179518174Y-78291744D01*
X179883732Y-77926823D01*
X180121728Y-77353664D01*
X180122270Y-76733058D01*
X179885275Y-76159486D01*
X179518174Y-75791744D01*
X179883732Y-75426823D01*
X180121728Y-74853664D01*
X180122270Y-74233058D01*
X179885275Y-73659486D01*
X179446823Y-73220268D01*
X178873664Y-72982272D01*
X178253058Y-72981730D01*
X177679486Y-73218725D01*
X177240268Y-73657177D01*
X177002272Y-74230336D01*
X177001730Y-74850942D01*
X177238725Y-75424514D01*
X177605826Y-75792256D01*
X177240268Y-76157177D01*
X177002272Y-76730336D01*
X177001730Y-77350942D01*
X177238725Y-77924514D01*
X177605826Y-78292256D01*
X177240268Y-78657177D01*
X177002272Y-79230336D01*
X177001730Y-79850942D01*
X177238725Y-80424514D01*
X177355435Y-80541428D01*
X177179191Y-80659191D01*
X177038843Y-80869235D01*
X176989560Y-81117000D01*
X162037151Y-81117000D01*
X162248192Y-80906327D01*
X162390838Y-80562799D01*
X162391162Y-80190833D01*
X162287679Y-79940383D01*
X167120769Y-79940383D01*
X167323582Y-80431229D01*
X167698796Y-80807098D01*
X168189287Y-81010768D01*
X168720383Y-81011231D01*
X169211229Y-80808418D01*
X169587098Y-80433204D01*
X169790768Y-79942713D01*
X169791231Y-79411617D01*
X169588418Y-78920771D01*
X169213204Y-78544902D01*
X168894788Y-78412684D01*
X169149831Y-78307042D01*
X169211669Y-78071275D01*
X168456000Y-77315605D01*
X167700331Y-78071275D01*
X167762169Y-78307042D01*
X168038111Y-78404196D01*
X167700771Y-78543582D01*
X167324902Y-78918796D01*
X167121232Y-79409287D01*
X167120769Y-79940383D01*
X162287679Y-79940383D01*
X162249117Y-79847057D01*
X161986327Y-79583808D01*
X161642799Y-79441162D01*
X161490857Y-79441030D01*
X161491162Y-79090833D01*
X161349117Y-78747057D01*
X161086327Y-78483808D01*
X160742799Y-78341162D01*
X160370833Y-78340838D01*
X160027057Y-78482883D01*
X159763808Y-78745673D01*
X159621162Y-79089201D01*
X159620838Y-79461167D01*
X146596267Y-79461167D01*
X146549117Y-79347057D01*
X146286327Y-79083808D01*
X145942799Y-78941162D01*
X145570833Y-78940838D01*
X145227057Y-79082883D01*
X144963808Y-79345673D01*
X144821162Y-79689201D01*
X144820838Y-80061167D01*
X125960545Y-80061167D01*
X125879327Y-79979808D01*
X125535799Y-79837162D01*
X125163833Y-79836838D01*
X124820057Y-79978883D01*
X124556808Y-80241673D01*
X124414162Y-80585201D01*
X124413838Y-80957167D01*
X119877280Y-80957167D01*
X119792117Y-80751057D01*
X119529327Y-80487808D01*
X119185799Y-80345162D01*
X118813833Y-80344838D01*
X118470057Y-80486883D01*
X118206808Y-80749673D01*
X118064162Y-81093201D01*
X118063838Y-81465167D01*
X93141000Y-81465167D01*
X93141000Y-80449167D01*
X113872838Y-80449167D01*
X114014883Y-80792943D01*
X114277673Y-81056192D01*
X114621201Y-81198838D01*
X114993167Y-81199162D01*
X115336943Y-81057117D01*
X115600192Y-80794327D01*
X115742838Y-80450799D01*
X115743162Y-80078833D01*
X115601117Y-79735057D01*
X115338327Y-79471808D01*
X114994799Y-79329162D01*
X114622833Y-79328838D01*
X114279057Y-79470883D01*
X114015808Y-79733673D01*
X113873162Y-80077201D01*
X113872838Y-80449167D01*
X93141000Y-80449167D01*
X93141000Y-78544167D01*
X123016838Y-78544167D01*
X123158883Y-78887943D01*
X123421673Y-79151192D01*
X123765201Y-79293838D01*
X124137167Y-79294162D01*
X124480943Y-79152117D01*
X124744192Y-78889327D01*
X124886838Y-78545799D01*
X124887162Y-78173833D01*
X124777805Y-77909167D01*
X128350838Y-77909167D01*
X128492883Y-78252943D01*
X128755673Y-78516192D01*
X129099201Y-78658838D01*
X129471167Y-78659162D01*
X129814943Y-78517117D01*
X130078192Y-78254327D01*
X130116045Y-78163167D01*
X148874038Y-78163167D01*
X149016083Y-78506943D01*
X149278873Y-78770192D01*
X149622401Y-78912838D01*
X149994367Y-78913162D01*
X150285300Y-78792951D01*
X150569201Y-78910838D01*
X150941167Y-78911162D01*
X151284943Y-78769117D01*
X151548192Y-78506327D01*
X151690838Y-78162799D01*
X151691162Y-77790833D01*
X151549117Y-77447057D01*
X151286327Y-77183808D01*
X150942799Y-77041162D01*
X150570833Y-77040838D01*
X150279900Y-77161049D01*
X149995999Y-77043162D01*
X149624033Y-77042838D01*
X149280257Y-77184883D01*
X149017008Y-77447673D01*
X148874362Y-77791201D01*
X148874038Y-78163167D01*
X130116045Y-78163167D01*
X130220838Y-77910799D01*
X130221162Y-77538833D01*
X130079117Y-77195057D01*
X129904532Y-77020167D01*
X130255838Y-77020167D01*
X130397883Y-77363943D01*
X130660673Y-77627192D01*
X131004201Y-77769838D01*
X131376167Y-77770162D01*
X131719943Y-77628117D01*
X131983192Y-77365327D01*
X132125838Y-77021799D01*
X132126026Y-76806221D01*
X132311673Y-76992192D01*
X132655201Y-77134838D01*
X133027167Y-77135162D01*
X133370943Y-76993117D01*
X133634192Y-76730327D01*
X133776838Y-76386799D01*
X133777162Y-76014833D01*
X133635117Y-75671057D01*
X133393283Y-75428801D01*
X133522838Y-75116799D01*
X133523162Y-74744833D01*
X133381117Y-74401057D01*
X133333311Y-74353167D01*
X143082838Y-74353167D01*
X143224883Y-74696943D01*
X143466717Y-74939199D01*
X143337162Y-75251201D01*
X143336838Y-75623167D01*
X143478883Y-75966943D01*
X143741673Y-76230192D01*
X143863706Y-76280865D01*
X143832833Y-76280838D01*
X143489057Y-76422883D01*
X143225808Y-76685673D01*
X143083162Y-77029201D01*
X143082838Y-77401167D01*
X143224883Y-77744943D01*
X143487673Y-78008192D01*
X143831201Y-78150838D01*
X144203167Y-78151162D01*
X144546943Y-78009117D01*
X144810192Y-77746327D01*
X144952838Y-77402799D01*
X144953162Y-77030833D01*
X144916921Y-76943122D01*
X167108581Y-76943122D01*
X167137336Y-77473440D01*
X167284958Y-77829831D01*
X167520725Y-77891669D01*
X168276395Y-77136000D01*
X168635605Y-77136000D01*
X169391275Y-77891669D01*
X169627042Y-77829831D01*
X169803419Y-77328878D01*
X169774664Y-76798560D01*
X169627042Y-76442169D01*
X169391275Y-76380331D01*
X168635605Y-77136000D01*
X168276395Y-77136000D01*
X167520725Y-76380331D01*
X167284958Y-76442169D01*
X167108581Y-76943122D01*
X144916921Y-76943122D01*
X144811117Y-76687057D01*
X144548327Y-76423808D01*
X144426294Y-76373135D01*
X144457167Y-76373162D01*
X144800943Y-76231117D01*
X144831388Y-76200725D01*
X167700331Y-76200725D01*
X168456000Y-76956395D01*
X169211669Y-76200725D01*
X169149831Y-75964958D01*
X168648878Y-75788581D01*
X168118560Y-75817336D01*
X167762169Y-75964958D01*
X167700331Y-76200725D01*
X144831388Y-76200725D01*
X145064192Y-75968327D01*
X145206838Y-75624799D01*
X145207162Y-75252833D01*
X145065117Y-74909057D01*
X144823283Y-74666801D01*
X144869139Y-74556367D01*
X156951238Y-74556367D01*
X157093283Y-74900143D01*
X157356073Y-75163392D01*
X157699601Y-75306038D01*
X158071567Y-75306362D01*
X158415343Y-75164317D01*
X158678592Y-74901527D01*
X158821238Y-74557999D01*
X158821562Y-74186033D01*
X158679517Y-73842257D01*
X158416727Y-73579008D01*
X158073199Y-73436362D01*
X157701233Y-73436038D01*
X157357457Y-73578083D01*
X157094208Y-73840873D01*
X156951562Y-74184401D01*
X156951238Y-74556367D01*
X144869139Y-74556367D01*
X144952838Y-74354799D01*
X144953162Y-73982833D01*
X144811117Y-73639057D01*
X144636532Y-73464167D01*
X144987838Y-73464167D01*
X145129883Y-73807943D01*
X145392673Y-74071192D01*
X145736201Y-74213838D01*
X146108167Y-74214162D01*
X146451943Y-74072117D01*
X146715192Y-73809327D01*
X146857838Y-73465799D01*
X146858162Y-73093833D01*
X146716117Y-72750057D01*
X146541532Y-72575167D01*
X151210838Y-72575167D01*
X151352883Y-72918943D01*
X151615673Y-73182192D01*
X151959201Y-73324838D01*
X152331167Y-73325162D01*
X152674943Y-73183117D01*
X152938192Y-72920327D01*
X153080838Y-72576799D01*
X153081162Y-72204833D01*
X153055225Y-72142060D01*
X170313545Y-72142060D01*
X170396884Y-72395953D01*
X170961306Y-72601590D01*
X171561458Y-72575579D01*
X171995116Y-72395953D01*
X172078455Y-72142060D01*
X171196000Y-71259605D01*
X170313545Y-72142060D01*
X153055225Y-72142060D01*
X152939117Y-71861057D01*
X152676327Y-71597808D01*
X152332799Y-71455162D01*
X151960833Y-71454838D01*
X151617057Y-71596883D01*
X151353808Y-71859673D01*
X151211162Y-72203201D01*
X151210838Y-72575167D01*
X146541532Y-72575167D01*
X146453327Y-72486808D01*
X146109799Y-72344162D01*
X145737833Y-72343838D01*
X145394057Y-72485883D01*
X145130808Y-72748673D01*
X144988162Y-73092201D01*
X144987838Y-73464167D01*
X144636532Y-73464167D01*
X144548327Y-73375808D01*
X144204799Y-73233162D01*
X143832833Y-73232838D01*
X143489057Y-73374883D01*
X143225808Y-73637673D01*
X143083162Y-73981201D01*
X143082838Y-74353167D01*
X133333311Y-74353167D01*
X133139283Y-74158801D01*
X133268838Y-73846799D01*
X133269162Y-73474833D01*
X133127117Y-73131057D01*
X132864327Y-72867808D01*
X132520799Y-72725162D01*
X132148833Y-72724838D01*
X131805057Y-72866883D01*
X131541808Y-73129673D01*
X131399162Y-73473201D01*
X131398838Y-73845167D01*
X131540883Y-74188943D01*
X131782717Y-74431199D01*
X131653162Y-74743201D01*
X131652838Y-75115167D01*
X131794883Y-75458943D01*
X132036717Y-75701199D01*
X131907162Y-76013201D01*
X131906974Y-76228779D01*
X131721327Y-76042808D01*
X131377799Y-75900162D01*
X131005833Y-75899838D01*
X130662057Y-76041883D01*
X130398808Y-76304673D01*
X130256162Y-76648201D01*
X130255838Y-77020167D01*
X129904532Y-77020167D01*
X129816327Y-76931808D01*
X129472799Y-76789162D01*
X129100833Y-76788838D01*
X128757057Y-76930883D01*
X128493808Y-77193673D01*
X128351162Y-77537201D01*
X128350838Y-77909167D01*
X124777805Y-77909167D01*
X124745117Y-77830057D01*
X124482327Y-77566808D01*
X124138799Y-77424162D01*
X123766833Y-77423838D01*
X123423057Y-77565883D01*
X123159808Y-77828673D01*
X123017162Y-78172201D01*
X123016838Y-78544167D01*
X93141000Y-78544167D01*
X93141000Y-75194383D01*
X112837769Y-75194383D01*
X113040582Y-75685229D01*
X113415796Y-76061098D01*
X113906287Y-76264768D01*
X114437383Y-76265231D01*
X114928229Y-76062418D01*
X115241025Y-75750167D01*
X120857838Y-75750167D01*
X120999883Y-76093943D01*
X121262673Y-76357192D01*
X121606201Y-76499838D01*
X121978167Y-76500162D01*
X122321943Y-76358117D01*
X122564199Y-76116283D01*
X122876201Y-76245838D01*
X123248167Y-76246162D01*
X123591943Y-76104117D01*
X123855192Y-75841327D01*
X123997838Y-75497799D01*
X123998162Y-75125833D01*
X123856117Y-74782057D01*
X123593327Y-74518808D01*
X123249799Y-74376162D01*
X122877833Y-74375838D01*
X122534057Y-74517883D01*
X122291801Y-74759717D01*
X121979799Y-74630162D01*
X121607833Y-74629838D01*
X121264057Y-74771883D01*
X121000808Y-75034673D01*
X120858162Y-75378201D01*
X120857838Y-75750167D01*
X115241025Y-75750167D01*
X115304098Y-75687204D01*
X115507768Y-75196713D01*
X115508231Y-74665617D01*
X115326655Y-74226167D01*
X129493838Y-74226167D01*
X129635883Y-74569943D01*
X129898673Y-74833192D01*
X130242201Y-74975838D01*
X130614167Y-74976162D01*
X130957943Y-74834117D01*
X131221192Y-74571327D01*
X131363838Y-74227799D01*
X131364162Y-73855833D01*
X131222117Y-73512057D01*
X130959327Y-73248808D01*
X130615799Y-73106162D01*
X130243833Y-73105838D01*
X129900057Y-73247883D01*
X129636808Y-73510673D01*
X129494162Y-73854201D01*
X129493838Y-74226167D01*
X115326655Y-74226167D01*
X115305418Y-74174771D01*
X114930204Y-73798902D01*
X114611788Y-73666684D01*
X114866831Y-73561042D01*
X114928669Y-73325275D01*
X114173000Y-72569605D01*
X113417331Y-73325275D01*
X113479169Y-73561042D01*
X113755111Y-73658196D01*
X113417771Y-73797582D01*
X113041902Y-74172796D01*
X112838232Y-74663287D01*
X112837769Y-75194383D01*
X93141000Y-75194383D01*
X93141000Y-72197122D01*
X112825581Y-72197122D01*
X112854336Y-72727440D01*
X113001958Y-73083831D01*
X113237725Y-73145669D01*
X113993395Y-72390000D01*
X114352605Y-72390000D01*
X115108275Y-73145669D01*
X115344042Y-73083831D01*
X115520419Y-72582878D01*
X115502976Y-72261167D01*
X141620838Y-72261167D01*
X141762883Y-72604943D01*
X142025673Y-72868192D01*
X142369201Y-73010838D01*
X142741167Y-73011162D01*
X143084943Y-72869117D01*
X143348192Y-72606327D01*
X143490838Y-72262799D01*
X143491162Y-71890833D01*
X143349117Y-71547057D01*
X143086327Y-71283808D01*
X142742799Y-71141162D01*
X142370833Y-71140838D01*
X142027057Y-71282883D01*
X141763808Y-71545673D01*
X141621162Y-71889201D01*
X141620838Y-72261167D01*
X115502976Y-72261167D01*
X115491664Y-72052560D01*
X115344042Y-71696169D01*
X115108275Y-71634331D01*
X114352605Y-72390000D01*
X113993395Y-72390000D01*
X113237725Y-71634331D01*
X113001958Y-71696169D01*
X112825581Y-72197122D01*
X93141000Y-72197122D01*
X93141000Y-71454725D01*
X113417331Y-71454725D01*
X114173000Y-72210395D01*
X114928669Y-71454725D01*
X114866831Y-71218958D01*
X114365878Y-71042581D01*
X113835560Y-71071336D01*
X113479169Y-71218958D01*
X113417331Y-71454725D01*
X93141000Y-71454725D01*
X93141000Y-70797167D01*
X137621838Y-70797167D01*
X137763883Y-71140943D01*
X138026673Y-71404192D01*
X138370201Y-71546838D01*
X138742167Y-71547162D01*
X139085943Y-71405117D01*
X139349192Y-71142327D01*
X139491838Y-70798799D01*
X139491839Y-70797167D01*
X140161838Y-70797167D01*
X140303883Y-71140943D01*
X140566673Y-71404192D01*
X140910201Y-71546838D01*
X141282167Y-71547162D01*
X141625943Y-71405117D01*
X141889192Y-71142327D01*
X142031838Y-70798799D01*
X142032162Y-70426833D01*
X141975280Y-70289167D01*
X146892838Y-70289167D01*
X147034883Y-70632943D01*
X147297673Y-70896192D01*
X147641201Y-71038838D01*
X148013167Y-71039162D01*
X148356943Y-70897117D01*
X148620192Y-70634327D01*
X148762838Y-70290799D01*
X148763162Y-69918833D01*
X148621117Y-69575057D01*
X148358327Y-69311808D01*
X148014799Y-69169162D01*
X147642833Y-69168838D01*
X147299057Y-69310883D01*
X147035808Y-69573673D01*
X146893162Y-69917201D01*
X146892838Y-70289167D01*
X141975280Y-70289167D01*
X141890117Y-70083057D01*
X141627327Y-69819808D01*
X141283799Y-69677162D01*
X140911833Y-69676838D01*
X140568057Y-69818883D01*
X140304808Y-70081673D01*
X140162162Y-70425201D01*
X140161838Y-70797167D01*
X139491839Y-70797167D01*
X139492162Y-70426833D01*
X139350117Y-70083057D01*
X139087327Y-69819808D01*
X138743799Y-69677162D01*
X138371833Y-69676838D01*
X138028057Y-69818883D01*
X137764808Y-70081673D01*
X137622162Y-70425201D01*
X137621838Y-70797167D01*
X93141000Y-70797167D01*
X93141000Y-69527167D01*
X129493838Y-69527167D01*
X129635883Y-69870943D01*
X129898673Y-70134192D01*
X130242201Y-70276838D01*
X130614167Y-70277162D01*
X130957943Y-70135117D01*
X131221192Y-69872327D01*
X131363838Y-69528799D01*
X131364162Y-69156833D01*
X131222117Y-68813057D01*
X130959327Y-68549808D01*
X130615799Y-68407162D01*
X130243833Y-68406838D01*
X129900057Y-68548883D01*
X129636808Y-68811673D01*
X129494162Y-69155201D01*
X129493838Y-69527167D01*
X93141000Y-69527167D01*
X93141000Y-67216143D01*
X95233115Y-67216143D01*
X95570758Y-68033300D01*
X96195411Y-68659045D01*
X97011978Y-68998113D01*
X97896143Y-68998885D01*
X98713300Y-68661242D01*
X99339045Y-68036589D01*
X99458392Y-67749167D01*
X133938838Y-67749167D01*
X134080883Y-68092943D01*
X134343673Y-68356192D01*
X134687201Y-68498838D01*
X135059167Y-68499162D01*
X135402943Y-68357117D01*
X135666192Y-68094327D01*
X135808838Y-67750799D01*
X135809162Y-67378833D01*
X135667117Y-67035057D01*
X135404327Y-66771808D01*
X135257364Y-66710783D01*
X153655569Y-66710783D01*
X153858382Y-67201629D01*
X154233596Y-67577498D01*
X154724087Y-67781168D01*
X155255183Y-67781631D01*
X155746029Y-67578818D01*
X155943516Y-67381675D01*
X156775131Y-67381675D01*
X156836969Y-67617442D01*
X157337922Y-67793819D01*
X157868240Y-67765064D01*
X158224631Y-67617442D01*
X158286469Y-67381675D01*
X157530800Y-66626005D01*
X156775131Y-67381675D01*
X155943516Y-67381675D01*
X156121898Y-67203604D01*
X156254116Y-66885188D01*
X156359758Y-67140231D01*
X156595525Y-67202069D01*
X157351195Y-66446400D01*
X157710405Y-66446400D01*
X158466075Y-67202069D01*
X158701842Y-67140231D01*
X158835157Y-66761583D01*
X160107169Y-66761583D01*
X160309982Y-67252429D01*
X160685196Y-67628298D01*
X161175687Y-67831968D01*
X161706783Y-67832431D01*
X162197629Y-67629618D01*
X162395116Y-67432475D01*
X163226731Y-67432475D01*
X163288569Y-67668242D01*
X163789522Y-67844619D01*
X164319840Y-67815864D01*
X164587489Y-67705000D01*
X169673560Y-67705000D01*
X169673560Y-69455000D01*
X169722843Y-69702765D01*
X169863191Y-69912809D01*
X170058745Y-70043475D01*
X170019306Y-70082914D01*
X170133938Y-70197546D01*
X169880047Y-70280884D01*
X169674410Y-70845306D01*
X169700421Y-71445458D01*
X169880047Y-71879116D01*
X170133940Y-71962455D01*
X171016395Y-71080000D01*
X171002253Y-71065858D01*
X171181858Y-70886253D01*
X171196000Y-70900395D01*
X171210143Y-70886253D01*
X171389748Y-71065858D01*
X171375605Y-71080000D01*
X172258060Y-71962455D01*
X172511953Y-71879116D01*
X172717590Y-71314694D01*
X172691579Y-70714542D01*
X172511953Y-70280884D01*
X172258062Y-70197546D01*
X172372694Y-70082914D01*
X172333255Y-70043475D01*
X172528809Y-69912809D01*
X172669157Y-69702765D01*
X172718440Y-69455000D01*
X172718440Y-67705000D01*
X172669157Y-67457235D01*
X172528809Y-67247191D01*
X172482343Y-67216143D01*
X187233115Y-67216143D01*
X187570758Y-68033300D01*
X188195411Y-68659045D01*
X189011978Y-68998113D01*
X189896143Y-68998885D01*
X190713300Y-68661242D01*
X191339045Y-68036589D01*
X191678113Y-67220022D01*
X191678885Y-66335857D01*
X191341242Y-65518700D01*
X190716589Y-64892955D01*
X189900022Y-64553887D01*
X189015857Y-64553115D01*
X188198700Y-64890758D01*
X187572955Y-65515411D01*
X187233887Y-66331978D01*
X187233115Y-67216143D01*
X172482343Y-67216143D01*
X172318765Y-67106843D01*
X172071000Y-67057560D01*
X170321000Y-67057560D01*
X170073235Y-67106843D01*
X169863191Y-67247191D01*
X169722843Y-67457235D01*
X169673560Y-67705000D01*
X164587489Y-67705000D01*
X164676231Y-67668242D01*
X164738069Y-67432475D01*
X163982400Y-66676805D01*
X163226731Y-67432475D01*
X162395116Y-67432475D01*
X162573498Y-67254404D01*
X162705716Y-66935988D01*
X162811358Y-67191031D01*
X163047125Y-67252869D01*
X163802795Y-66497200D01*
X164162005Y-66497200D01*
X164917675Y-67252869D01*
X165153442Y-67191031D01*
X165329819Y-66690078D01*
X165301064Y-66159760D01*
X165153442Y-65803369D01*
X164917675Y-65741531D01*
X164162005Y-66497200D01*
X163802795Y-66497200D01*
X163047125Y-65741531D01*
X162811358Y-65803369D01*
X162714204Y-66079311D01*
X162574818Y-65741971D01*
X162395086Y-65561925D01*
X163226731Y-65561925D01*
X163982400Y-66317595D01*
X164738069Y-65561925D01*
X164676231Y-65326158D01*
X164175278Y-65149781D01*
X163644960Y-65178536D01*
X163288569Y-65326158D01*
X163226731Y-65561925D01*
X162395086Y-65561925D01*
X162199604Y-65366102D01*
X161709113Y-65162432D01*
X161178017Y-65161969D01*
X160687171Y-65364782D01*
X160311302Y-65739996D01*
X160107632Y-66230487D01*
X160107169Y-66761583D01*
X158835157Y-66761583D01*
X158878219Y-66639278D01*
X158849464Y-66108960D01*
X158701842Y-65752569D01*
X158466075Y-65690731D01*
X157710405Y-66446400D01*
X157351195Y-66446400D01*
X156595525Y-65690731D01*
X156359758Y-65752569D01*
X156262604Y-66028511D01*
X156123218Y-65691171D01*
X155943486Y-65511125D01*
X156775131Y-65511125D01*
X157530800Y-66266795D01*
X158286469Y-65511125D01*
X158224631Y-65275358D01*
X157723678Y-65098981D01*
X157193360Y-65127736D01*
X156836969Y-65275358D01*
X156775131Y-65511125D01*
X155943486Y-65511125D01*
X155748004Y-65315302D01*
X155257513Y-65111632D01*
X154726417Y-65111169D01*
X154235571Y-65313982D01*
X153859702Y-65689196D01*
X153656032Y-66179687D01*
X153655569Y-66710783D01*
X135257364Y-66710783D01*
X135060799Y-66629162D01*
X134688833Y-66628838D01*
X134345057Y-66770883D01*
X134081808Y-67033673D01*
X133939162Y-67377201D01*
X133938838Y-67749167D01*
X99458392Y-67749167D01*
X99678113Y-67220022D01*
X99678885Y-66335857D01*
X99341242Y-65518700D01*
X99032250Y-65209167D01*
X134319838Y-65209167D01*
X134461883Y-65552943D01*
X134724673Y-65816192D01*
X135068201Y-65958838D01*
X135440167Y-65959162D01*
X135783943Y-65817117D01*
X136047192Y-65554327D01*
X136189838Y-65210799D01*
X136190060Y-64955167D01*
X150067838Y-64955167D01*
X150209883Y-65298943D01*
X150472673Y-65562192D01*
X150816201Y-65704838D01*
X151188167Y-65705162D01*
X151531943Y-65563117D01*
X151795192Y-65300327D01*
X151937838Y-64956799D01*
X151938162Y-64584833D01*
X151796117Y-64241057D01*
X151533327Y-63977808D01*
X151189799Y-63835162D01*
X150817833Y-63834838D01*
X150474057Y-63976883D01*
X150210808Y-64239673D01*
X150068162Y-64583201D01*
X150067838Y-64955167D01*
X136190060Y-64955167D01*
X136190162Y-64838833D01*
X136048117Y-64495057D01*
X135785327Y-64231808D01*
X135441799Y-64089162D01*
X135069833Y-64088838D01*
X134726057Y-64230883D01*
X134462808Y-64493673D01*
X134320162Y-64837201D01*
X134319838Y-65209167D01*
X99032250Y-65209167D01*
X98716589Y-64892955D01*
X97900022Y-64553887D01*
X97015857Y-64553115D01*
X96198700Y-64890758D01*
X95572955Y-65515411D01*
X95233887Y-66331978D01*
X95233115Y-67216143D01*
X93141000Y-67216143D01*
X93141000Y-62461000D01*
X193771000Y-62461000D01*
X193771000Y-144091000D01*
M02*
