<?xml version="1.0" encoding="UTF-8" standalone="no"?>
<!-- Created with Inkscape (http://www.inkscape.org/) -->

<svg
   xmlns:dc="http://purl.org/dc/elements/1.1/"
   xmlns:cc="http://creativecommons.org/ns#"
   xmlns:rdf="http://www.w3.org/1999/02/22-rdf-syntax-ns#"
   xmlns:svg="http://www.w3.org/2000/svg"
   xmlns="http://www.w3.org/2000/svg"
   xmlns:sodipodi="http://sodipodi.sourceforge.net/DTD/sodipodi-0.dtd"
   xmlns:inkscape="http://www.inkscape.org/namespaces/inkscape"
   width="1052.3622"
   height="744.09448"
   id="svg2"
   version="1.1"
   inkscape:version="0.48.4 r9939"
   sodipodi:docname="beagleboard_to_rpi_mount.svg">
  <defs
     id="defs4" />
  <sodipodi:namedview
     id="base"
     pagecolor="#ffffff"
     bordercolor="#666666"
     borderopacity="1.0"
     inkscape:pageopacity="0.0"
     inkscape:pageshadow="2"
     inkscape:zoom="0.90983069"
     inkscape:cx="526.18109"
     inkscape:cy="372.04724"
     inkscape:document-units="px"
     inkscape:current-layer="layer1"
     showgrid="true"
     units="in"
     inkscape:snap-global="true"
     inkscape:snap-grids="true"
     inkscape:window-width="1434"
     inkscape:window-height="853"
     inkscape:window-x="0"
     inkscape:window-y="18"
     inkscape:window-maximized="0">
    <inkscape:grid
       type="xygrid"
       id="grid2987"
       empspacing="5"
       visible="true"
       enabled="true"
       snapvisiblegridlinesonly="true"
       units="in"
       spacingx="0.1in"
       spacingy="0.1in"
       dotted="false" />
  </sodipodi:namedview>
  <metadata
     id="metadata7">
    <rdf:RDF>
      <cc:Work
         rdf:about="">
        <dc:format>image/svg+xml</dc:format>
        <dc:type
           rdf:resource="http://purl.org/dc/dcmitype/StillImage" />
        <dc:title />
      </cc:Work>
    </rdf:RDF>
  </metadata>
  <g
     inkscape:label="Layer 1"
     inkscape:groupmode="layer"
     id="layer1"
     transform="translate(0,-308.26748)">
    <rect
       style="fill:none;stroke:#000000;stroke-width:1.77165353;stroke-miterlimit:4;stroke-opacity:1;stroke-dasharray:none;stroke-dashoffset:0"
       id="rect3775"
       width="313.23825"
       height="313.23825"
       x="203.32529"
       y="670.31909" />
    <g
       id="g3846">
      <path
         transform="matrix(0.5265748,0,0,0.5265748,106.64624,606.00848)"
         d="m 234,164.40942 c 0,4.97057 -4.02944,9 -9,9 -4.97056,0 -9,-4.02943 -9,-9 0,-4.97056 4.02944,-9 9,-9 4.97056,0 9,4.02944 9,9 z"
         sodipodi:ry="9"
         sodipodi:rx="9"
         sodipodi:cy="164.40942"
         sodipodi:cx="225"
         id="path3777"
         style="fill:none;stroke:#000000;stroke-width:3.36448622;stroke-miterlimit:4;stroke-opacity:1;stroke-dasharray:none;stroke-dashoffset:0"
         sodipodi:type="arc" />
      <path
         transform="matrix(0.5265748,0,0,0.5265748,106.64624,876.00848)"
         d="m 234,164.40942 c 0,4.97057 -4.02944,9 -9,9 -4.97056,0 -9,-4.02943 -9,-9 0,-4.97056 4.02944,-9 9,-9 4.97056,0 9,4.02944 9,9 z"
         sodipodi:ry="9"
         sodipodi:rx="9"
         sodipodi:cy="164.40942"
         sodipodi:cx="225"
         id="path3777-9"
         style="fill:none;stroke:#000000;stroke-width:3.36448622;stroke-miterlimit:4;stroke-opacity:1;stroke-dasharray:none;stroke-dashoffset:0"
         sodipodi:type="arc" />
      <path
         transform="matrix(0.5265748,0,0,0.5265748,376.64624,876.00848)"
         d="m 234,164.40942 c 0,4.97057 -4.02944,9 -9,9 -4.97056,0 -9,-4.02943 -9,-9 0,-4.97056 4.02944,-9 9,-9 4.97056,0 9,4.02944 9,9 z"
         sodipodi:ry="9"
         sodipodi:rx="9"
         sodipodi:cy="164.40942"
         sodipodi:cx="225"
         id="path3777-3"
         style="fill:none;stroke:#000000;stroke-width:3.36448622;stroke-miterlimit:4;stroke-opacity:1;stroke-dasharray:none;stroke-dashoffset:0"
         sodipodi:type="arc" />
      <path
         transform="matrix(0.5265748,0,0,0.5265748,376.64624,606.00848)"
         d="m 234,164.40942 c 0,4.97057 -4.02944,9 -9,9 -4.97056,0 -9,-4.02943 -9,-9 0,-4.97056 4.02944,-9 9,-9 4.97056,0 9,4.02944 9,9 z"
         sodipodi:ry="9"
         sodipodi:rx="9"
         sodipodi:cy="164.40942"
         sodipodi:cx="225"
         id="path3777-5"
         style="fill:none;stroke:#000000;stroke-width:3.36448622;stroke-miterlimit:4;stroke-opacity:1;stroke-dasharray:none;stroke-dashoffset:0"
         sodipodi:type="arc" />
    </g>
    <rect
       style="fill:none;stroke:#0000ff;stroke-width:1.77165353;stroke-miterlimit:4;stroke-opacity:1;stroke-dasharray:5.3149606, 1.77165353;stroke-dashoffset:0"
       id="rect3852"
       width="301.18109"
       height="198.4252"
       x="209.35387"
       y="727.72559" />
    <path
       sodipodi:type="arc"
       style="fill:none;stroke:#000000;stroke-width:3.36448598;stroke-miterlimit:4;stroke-opacity:1;stroke-dasharray:none;stroke-dashoffset:0"
       id="path3856"
       sodipodi:cx="171"
       sodipodi:cy="380.40942"
       sodipodi:rx="9"
       sodipodi:ry="9"
       d="m 180,380.40942 c 0,4.97057 -4.02944,9 -9,9 -4.97056,0 -9,-4.02943 -9,-9 0,-4.97056 4.02944,-9 9,-9 4.97056,0 9,4.02944 9,9 z"
       transform="matrix(0.5265748,0,0,0.52657481,210.04436,661.99818)" />
    <path
       sodipodi:type="arc"
       style="fill:none;stroke:#000000;stroke-width:3.36448598;stroke-miterlimit:4;stroke-opacity:1;stroke-dasharray:none;stroke-dashoffset:0"
       id="path3856-1"
       sodipodi:cx="171"
       sodipodi:cy="380.40942"
       sodipodi:rx="9"
       sodipodi:ry="9"
       d="m 180,380.40942 c 0,4.97057 -4.02944,9 -9,9 -4.97056,0 -9,-4.02943 -9,-9 0,-4.97056 4.02944,-9 9,-9 4.97056,0 9,4.02944 9,9 z"
       transform="matrix(0.5265748,0,0,0.52657481,401.86198,572.29064)" />
  </g>
</svg>
