M48
;DRILL file {KiCad (2016-05-27 BZR 6836, Git 4441a4b)-product} date 09/15/16 12:13:13
;FORMAT={-:-/ absolute / inch / decimal}
FMAT,2
INCH,TZ
T1C0.012
T2C0.016
T3C0.031
T4C0.032
T5C0.035
T6C0.039
T7C0.043
T8C0.047
T9C0.063
%
G90
G05
M72
T1
X3.6794Y-2.4715
X3.6794Y-2.5699
X3.6794Y-2.6683
X3.6794Y-2.7668
X3.6794Y-2.8652
X3.6794Y-2.9636
X3.6794Y-3.062
X3.6794Y-3.1605
X3.6794Y-3.2589
X3.6794Y-3.3573
X3.6794Y-3.4557
X3.6794Y-3.5542
X3.6794Y-3.6526
X3.6794Y-3.751
X3.6794Y-3.8494
X3.6794Y-3.9479
X3.6794Y-4.0463
X3.6794Y-4.1447
X3.6794Y-4.2431
X3.6794Y-4.3416
X3.6794Y-4.44
X3.6794Y-4.5384
X3.6794Y-4.6369
X3.6794Y-4.7353
X3.6794Y-4.8337
X3.6794Y-4.9321
X3.6794Y-5.0306
X3.6794Y-5.129
X3.6794Y-5.2274
X3.6794Y-5.3258
X3.6794Y-5.4243
X3.6794Y-5.5227
X3.6794Y-5.6211
X3.7187Y-5.6506
X3.7542Y-4.441
X3.7581Y-4.2924
X3.768Y-2.4715
X3.7876Y-5.6506
X3.8329Y-4.3613
X3.8398Y-4.253
X3.8516Y-2.9026
X3.8546Y-3.3554
X3.8664Y-2.4715
X3.8831Y-3.8681
X3.8861Y-5.6506
X3.9392Y-4.8652
X3.9392Y-4.9715
X3.9392Y-5.066
X3.9392Y-5.1565
X3.9648Y-2.4715
X3.9845Y-5.6506
X4.0426Y-3.0935
X4.0632Y-2.4715
X4.078Y-3.6743
X4.0829Y-5.6506
X4.1095Y-2.7018
X4.1617Y-2.4715
X4.1813Y-5.6506
X4.2601Y-2.4715
X4.2798Y-5.6506
X4.3585Y-2.4715
X4.3782Y-5.6506
X4.4077Y-5.1782
X4.4274Y-4.2727
X4.4274Y-4.312
X4.4412Y-3.7333
X4.4471Y-5.1782
X4.4569Y-2.4715
X4.4579Y-4.2353
X4.4766Y-5.6506
X4.4884Y-5.1782
X4.4973Y-4.2353
X4.5111Y-3.7264
X4.5357Y-5.0994
X4.5357Y-5.1388
X4.5357Y-5.1782
X4.5367Y-4.2353
X4.5554Y-2.4715
X4.575Y-2.8258
X4.575Y-2.8849
X4.575Y-5.6506
X4.576Y-4.2353
X4.5849Y-2.9439
X4.5869Y-3.0867
X4.5869Y-3.1309
X4.5869Y-3.1752
X4.6006Y-3.2668
X4.6124Y-3.318
X4.6154Y-4.2353
X4.6243Y-2.7963
X4.6243Y-3.3888
X4.6243Y-3.4794
X4.6292Y-2.6693
X4.6341Y-3.5542
X4.6538Y-2.4715
X4.6538Y-5.1191
X4.6538Y-5.1683
X4.6538Y-5.2176
X4.6538Y-5.2668
X4.6548Y-4.2353
X4.6735Y-5.6506
X4.6833Y-2.7963
X4.6941Y-4.2353
X4.703Y-3.5542
X4.7227Y-4.2727
X4.7227Y-4.312
X4.7424Y-2.7865
X4.7522Y-2.4715
X4.7719Y-5.6506
X4.8309Y-4.1743
X4.8309Y-4.2235
X4.8309Y-4.2727
X4.8309Y-4.3219
X4.8309Y-5.1191
X4.8309Y-5.1683
X4.8309Y-5.2176
X4.8309Y-5.2668
X4.8329Y-3.814
X4.8506Y-2.4715
X4.8644Y-3.6211
X4.8703Y-4.1447
X4.8703Y-5.6506
X4.891Y-3.3554
X4.9195Y-4.1447
X4.9323Y-3.8898
X4.9363Y-3.2589
X4.9491Y-2.4715
X4.9628Y-2.7431
X4.9687Y-4.1447
X4.9687Y-5.6506
X5.0081Y-4.1743
X5.0081Y-4.2235
X5.0081Y-4.2727
X5.0081Y-4.3219
X5.0337Y-3.8928
X5.0376Y-2.7628
X5.0475Y-2.4715
X5.0672Y-5.6506
X5.1065Y-5.129
X5.1065Y-5.1782
X5.1065Y-5.2274
X5.1065Y-5.2766
X5.1459Y-2.4715
X5.1459Y-5.3061
X5.1634Y-3.3466
X5.1656Y-5.6506
X5.1754Y-3.8258
X5.1834Y-3.3766
X5.1951Y-5.3061
X5.2443Y-2.4715
X5.2443Y-5.3061
X5.2502Y-4.0433
X5.264Y-5.6506
X5.2837Y-5.129
X5.2837Y-5.1782
X5.2837Y-5.2274
X5.2837Y-5.2766
X5.2906Y-4.0433
X5.33Y-4.0433
X5.3329Y-4.7451
X5.3428Y-2.4715
X5.3624Y-5.6506
X5.3723Y-4.7451
X5.4018Y-4.5975
X5.4018Y-4.6369
X5.4018Y-4.6762
X5.4018Y-4.7156
X5.4412Y-2.4715
X5.4431Y-4.0542
X5.4609Y-5.6506
X5.5219Y-4.0699
X5.5219Y-4.1132
X5.5396Y-2.4715
X5.5593Y-5.6506
X5.6341Y-3.5394
X5.638Y-2.4715
X5.6577Y-5.6506
X5.7365Y-2.4715
X5.7561Y-5.6506
X5.7867Y-3.2678
X5.8034Y-3.7466
X5.8093Y-2.6644
X5.8349Y-2.4715
X5.8546Y-5.6506
X5.9134Y-3.9566
X5.9333Y-2.4715
X5.953Y-5.6506
X6.0229Y-2.9843
X6.0317Y-2.4715
X6.0514Y-5.6506
X6.0534Y-3.7566
X6.1302Y-2.4715
X6.1498Y-5.6506
X6.2109Y-3.3416
X6.2276Y-2.9833
X6.2286Y-2.4715
X6.2483Y-5.6506
X6.2502Y-3.3416
X6.2699Y-2.9833
X6.2935Y-3.3416
X6.3132Y-3.2628
X6.327Y-2.4715
X6.3467Y-5.6506
X6.4254Y-2.4715
X6.4451Y-5.6506
X6.4786Y-3.2431
X6.4825Y-2.8248
X6.4825Y-2.8672
X6.4835Y-2.7195
X6.4835Y-2.7619
X6.5239Y-2.4715
X6.5337Y-3.9577
X6.5435Y-5.6506
X6.6056Y-4.1743
X6.6124Y-3.9577
X6.6223Y-2.4715
X6.6223Y-4.0522
X6.6321Y-4.125
X6.6321Y-4.2235
X6.642Y-5.6506
X6.6518Y-3.9971
X6.6518Y-4.8435
X6.6518Y-4.8829
X6.6534Y-3.2366
X6.6636Y-2.7963
X6.6636Y-5.2865
X6.6715Y-4.125
X6.6715Y-4.2235
X6.6813Y-4.814
X6.6813Y-4.9223
X6.6833Y-2.8494
X6.6872Y-5.2353
X6.6872Y-5.3416
X6.7109Y-4.125
X6.7109Y-4.2235
X6.7207Y-2.4715
X6.7207Y-4.814
X6.7207Y-4.9223
X6.7334Y-2.9866
X6.7404Y-2.8731
X6.7404Y-5.2097
X6.7404Y-5.6506
X6.7424Y-5.3632
X6.7502Y-4.125
X6.7502Y-4.2235
X6.7601Y-4.814
X6.7601Y-4.9223
X6.7896Y-4.125
X6.7896Y-4.2235
X6.7935Y-5.3416
X6.7955Y-2.8534
X6.7975Y-5.2313
X6.7994Y-4.814
X6.7994Y-4.9223
X6.8134Y-3.0566
X6.8172Y-5.2845
X6.8191Y-2.4715
X6.8191Y-2.7963
X6.829Y-4.125
X6.829Y-4.2235
X6.8388Y-5.6506
X6.8979Y-4.2235
X6.9176Y-2.4715
X6.9372Y-5.6506
X6.951Y-3.5424
X6.9727Y-3.4794
X6.9865Y-4.1211
X6.9865Y-4.2235
X7.016Y-2.4715
X7.0258Y-4.2235
X7.0268Y-4.1201
X7.0357Y-5.6506
X7.0455Y-3.4636
X7.0652Y-4.1211
X7.0652Y-4.2235
X7.1144Y-2.4715
X7.1144Y-4.1644
X7.1341Y-5.6506
X7.2128Y-2.4715
X7.2178Y-4.0719
X7.2178Y-4.13
X7.2325Y-5.6506
X7.2896Y-4.0148
X7.3113Y-2.4715
X7.3309Y-5.6506
X7.3595Y-4.0719
X7.3595Y-4.13
X7.4097Y-2.4715
X7.4294Y-5.6506
X7.5081Y-2.4715
X7.5278Y-5.6506
X7.6065Y-2.501
X7.6065Y-2.5994
X7.6065Y-2.6979
X7.6065Y-2.7963
X7.6065Y-2.8947
X7.6065Y-2.9931
X7.6065Y-3.0916
X7.6065Y-3.19
X7.6065Y-3.2884
X7.6065Y-3.3869
X7.6065Y-3.4853
X7.6065Y-3.5837
X7.6065Y-3.6821
X7.6065Y-3.7806
X7.6065Y-3.879
X7.6065Y-3.9774
X7.6065Y-4.0758
X7.6065Y-4.1743
X7.6065Y-4.2727
X7.6065Y-4.3711
X7.6065Y-4.4695
X7.6065Y-4.568
X7.6065Y-4.6664
X7.6065Y-4.7648
X7.6065Y-4.8632
X7.6065Y-4.9617
X7.6065Y-5.0601
X7.6065Y-5.1585
X7.6065Y-5.2569
X7.6065Y-5.3554
X7.6065Y-5.4538
X7.6065Y-5.5522
X7.6065Y-5.6506
T2
X4.0534Y-4.6762
X4.25Y-4.63
X4.275Y-3.44
X4.3Y-4.64
X4.3Y-5.06
X4.3487Y-4.2235
X4.36Y-3.53
X4.3841Y-3.7392
X4.392Y-3.3485
X4.4687Y-3.3717
X4.515Y-3.535
X4.52Y-3.16
X4.595Y-3.605
X4.685Y-3.2
X4.69Y-3.91
X4.795Y-2.975
X4.8447Y-3.4794
X4.845Y-2.965
X4.88Y-3.085
X4.935Y-3.18
X4.97Y-3.015
X4.98Y-3.45
X4.995Y-3.75
X5.005Y-3.3
X5.015Y-3.245
X5.09Y-3.06
X5.135Y-2.73
X5.135Y-2.915
X5.155Y-3.755
X5.165Y-3.025
X5.21Y-2.9
X5.2197Y-3.5552
X5.22Y-2.95
X5.23Y-3.
X5.25Y-3.49
X5.266Y-5.0148
X5.31Y-2.66
X5.325Y-2.56
X5.34Y-3.79
X5.365Y-3.525
X5.3841Y-4.3061
X5.4Y-3.78
X5.415Y-3.97
X5.445Y-3.55
X5.455Y-2.78
X5.46Y-2.88
X5.465Y-3.73
X5.5061Y-5.3494
X5.51Y-3.49
X5.54Y-3.64
X5.555Y-2.78
X5.57Y-3.56
X5.59Y-2.795
X5.605Y-3.47
X5.6124Y-2.8376
X5.66Y-3.2
X5.67Y-2.92
X5.67Y-3.04
X5.68Y-2.97
X5.7Y-3.235
X5.716Y-3.43
X5.73Y-3.96
X5.7384Y-3.1447
X5.745Y-2.885
X5.768Y-3.342
X5.77Y-4.15
X5.82Y-2.76
X5.865Y-3.55
X5.8723Y-3.2943
X5.898Y-3.07
X5.9077Y-4.3337
X5.91Y-4.08
X5.9353Y-3.0699
X5.945Y-2.55
X5.952Y-3.416
X5.99Y-2.85
X6.115Y-3.675
X6.145Y-4.27
X6.195Y-3.655
X6.21Y-3.47
X6.2109Y-3.9361
X6.215Y-4.115
X6.216Y-2.928
X6.3211Y-3.1211
X6.3211Y-3.2117
X6.3408Y-3.7195
X6.3487Y-3.2943
X6.35Y-4.45
X6.3565Y-3.1644
X6.365Y-3.54
X6.4589Y-3.8298
X6.505Y-3.715
X6.68Y-3.71
X6.71Y-3.81
X6.8536Y-3.7687
X6.86Y-3.39
X6.8802Y-4.1054
X6.8969Y-3.7697
X6.9628Y-4.5778
X7.0888Y-3.8455
T3
X7.214Y-3.2412
X7.214Y-3.3412
X7.214Y-3.4412
X7.514Y-3.2412
X7.514Y-3.3412
X7.514Y-3.4412
T4
X4.07Y-3.97
X4.17Y-3.97
X4.295Y-3.97
X4.3Y-4.14
X4.395Y-3.97
X4.4Y-4.14
X4.495Y-2.85
X4.495Y-2.95
X6.102Y-2.616
X6.202Y-2.616
X6.356Y-2.618
X6.456Y-2.618
X6.6321Y-3.0369
X6.6321Y-3.1369
X6.78Y-3.485
X6.78Y-3.585
T5
X7.03Y-2.9347
X7.03Y-3.0331
X7.03Y-3.1316
X7.03Y-3.23
X7.03Y-3.5416
X7.03Y-3.64
T6
X6.74Y-2.7
X6.74Y-2.7984
T7
X3.8329Y-4.3849
X3.8329Y-4.503
X3.8329Y-4.6211
X3.8329Y-4.7392
X3.951Y-4.3849
X3.951Y-4.503
X3.951Y-4.6211
X3.951Y-4.7392
X7.391Y-4.8839
X7.391Y-5.002
X7.5091Y-4.8839
X7.5091Y-5.002
T8
X6.7404Y-5.2865
X6.9372Y-5.2865
T9
X4.2265Y-5.3946
X4.2265Y-5.5286
X4.7565Y-5.3946
X4.7565Y-5.5286
T0
M30
