M48
INCH,TZ
T1C0.012
T2C0.016
T3C0.031
T4C0.032
T5C0.035
T6C0.039
T7C0.043
T8C0.047
T9C0.063
%
G90
G05
T1
X36794Y-24715
X36794Y-25699
X36794Y-26683
X36794Y-27668
X36794Y-28652
X36794Y-29636
X36794Y-30620
X36794Y-31605
X36794Y-32589
X36794Y-33573
X36794Y-34557
X36794Y-35542
X36794Y-36526
X36794Y-37510
X36794Y-38494
X36794Y-39479
X36794Y-40463
X36794Y-41447
X36794Y-42431
X36794Y-43416
X36794Y-44400
X36794Y-45384
X36794Y-46369
X36794Y-47353
X36794Y-48337
X36794Y-49321
X36794Y-50306
X36794Y-51290
X36794Y-52274
X36794Y-53258
X36794Y-54243
X36794Y-55227
X36794Y-56211
X37187Y-56506
X37542Y-44410
X37581Y-42924
X37680Y-24715
X37876Y-56506
X38329Y-43613
X38398Y-42530
X38516Y-29026
X38546Y-33554
X38664Y-24715
X38831Y-38681
X38861Y-56506
X39392Y-48652
X39392Y-49715
X39392Y-50660
X39392Y-51565
X39648Y-24715
X39845Y-56506
X40426Y-30935
X40632Y-24715
X40780Y-36743
X40829Y-56506
X41095Y-27018
X41617Y-24715
X41813Y-56506
X42601Y-24715
X42798Y-56506
X43585Y-24715
X43782Y-56506
X44077Y-51782
X44274Y-42727
X44274Y-43120
X44412Y-37333
X44471Y-51782
X44569Y-24715
X44579Y-42353
X44766Y-56506
X44884Y-51782
X44973Y-42353
X45111Y-37264
X45357Y-50994
X45357Y-51388
X45357Y-51782
X45367Y-42353
X45554Y-24715
X45750Y-28258
X45750Y-28849
X45750Y-56506
X45760Y-42353
X45849Y-29439
X45869Y-30867
X45869Y-31309
X45869Y-31752
X46006Y-32668
X46124Y-33180
X46154Y-42353
X46243Y-27963
X46243Y-33888
X46243Y-34794
X46292Y-26693
X46341Y-35542
X46538Y-24715
X46538Y-51191
X46538Y-51683
X46538Y-52176
X46538Y-52668
X46548Y-42353
X46735Y-56506
X46833Y-27963
X46941Y-42353
X47030Y-35542
X47227Y-42727
X47227Y-43120
X47424Y-27865
X47522Y-24715
X47719Y-56506
X48309Y-41743
X48309Y-42235
X48309Y-42727
X48309Y-43219
X48309Y-51191
X48309Y-51683
X48309Y-52176
X48309Y-52668
X48329Y-38140
X48506Y-24715
X48644Y-36211
X48703Y-41447
X48703Y-56506
X48910Y-33554
X49195Y-41447
X49323Y-38898
X49363Y-32589
X49491Y-24715
X49628Y-27431
X49687Y-41447
X49687Y-56506
X50081Y-41743
X50081Y-42235
X50081Y-42727
X50081Y-43219
X50337Y-38928
X50376Y-27628
X50475Y-24715
X50672Y-56506
X51065Y-51290
X51065Y-51782
X51065Y-52274
X51065Y-52766
X51459Y-24715
X51459Y-53061
X51656Y-56506
X51754Y-38258
X51951Y-53061
X52443Y-24715
X52443Y-53061
X52502Y-40433
X52640Y-56506
X52837Y-51290
X52837Y-51782
X52837Y-52274
X52837Y-52766
X52906Y-40433
X53300Y-40433
X53329Y-47451
X53428Y-24715
X53624Y-56506
X53723Y-47451
X54018Y-45975
X54018Y-46369
X54018Y-46762
X54018Y-47156
X54412Y-24715
X54431Y-40542
X54609Y-56506
X55219Y-40699
X55219Y-41132
X55396Y-24715
X55593Y-56506
X56341Y-35394
X56380Y-24715
X56577Y-56506
X57365Y-24715
X57561Y-56506
X57867Y-32678
X58093Y-26644
X58349Y-24715
X58546Y-56506
X59333Y-24715
X59530Y-56506
X60229Y-29843
X60317Y-24715
X60514Y-56506
X61302Y-24715
X61498Y-56506
X62109Y-33416
X62276Y-29833
X62286Y-24715
X62483Y-56506
X62502Y-33416
X62699Y-29833
X62935Y-33416
X63132Y-32628
X63270Y-24715
X63467Y-56506
X64254Y-24715
X64451Y-56506
X64786Y-32431
X64825Y-28248
X64825Y-28672
X64835Y-27195
X64835Y-27619
X65239Y-24715
X65337Y-39577
X65435Y-56506
X66056Y-41743
X66124Y-39577
X66223Y-24715
X66223Y-40522
X66321Y-41250
X66321Y-42235
X66420Y-56506
X66518Y-39971
X66518Y-48435
X66518Y-48829
X66636Y-27963
X66636Y-52865
X66715Y-41250
X66715Y-42235
X66813Y-48140
X66813Y-49223
X66833Y-28494
X66872Y-52353
X66872Y-53416
X67109Y-41250
X67109Y-42235
X67207Y-24715
X67207Y-48140
X67207Y-49223
X67404Y-28731
X67404Y-52097
X67404Y-56506
X67424Y-53632
X67502Y-41250
X67502Y-42235
X67601Y-48140
X67601Y-49223
X67896Y-41250
X67896Y-42235
X67935Y-53416
X67955Y-28534
X67975Y-52313
X67994Y-48140
X67994Y-49223
X68172Y-52845
X68191Y-24715
X68191Y-27963
X68290Y-41250
X68290Y-42235
X68388Y-56506
X68979Y-42235
X69176Y-24715
X69372Y-56506
X69510Y-35424
X69727Y-34794
X69865Y-41211
X69865Y-42235
X70160Y-24715
X70258Y-42235
X70268Y-41201
X70357Y-56506
X70455Y-34636
X70652Y-41211
X70652Y-42235
X71144Y-24715
X71144Y-41644
X71341Y-56506
X72128Y-24715
X72178Y-40719
X72178Y-41300
X72325Y-56506
X72896Y-40148
X73113Y-24715
X73309Y-56506
X73595Y-40719
X73595Y-41300
X74097Y-24715
X74294Y-56506
X75081Y-24715
X75278Y-56506
X76065Y-25010
X76065Y-25994
X76065Y-26979
X76065Y-27963
X76065Y-28947
X76065Y-29931
X76065Y-30916
X76065Y-31900
X76065Y-32884
X76065Y-33869
X76065Y-34853
X76065Y-35837
X76065Y-36821
X76065Y-37806
X76065Y-38790
X76065Y-39774
X76065Y-40758
X76065Y-41743
X76065Y-42727
X76065Y-43711
X76065Y-44695
X76065Y-45680
X76065Y-46664
X76065Y-47648
X76065Y-48632
X76065Y-49617
X76065Y-50601
X76065Y-51585
X76065Y-52569
X76065Y-53554
X76065Y-54538
X76065Y-55522
X76065Y-56506
T2
X40534Y-46762
X42500Y-46300
X42750Y-34400
X43000Y-46400
X43000Y-50600
X43487Y-42235
X43600Y-35300
X43841Y-37392
X43920Y-33485
X44687Y-33717
X45150Y-35350
X45200Y-31600
X45950Y-36050
X46850Y-32000
X46900Y-39100
X47950Y-29750
X48447Y-34794
X48450Y-29650
X48800Y-30850
X49350Y-31800
X49700Y-30150
X49800Y-34500
X49950Y-37500
X50050Y-33000
X50150Y-32450
X50900Y-30600
X51350Y-27300
X51350Y-29150
X51550Y-37550
X51650Y-30250
X52100Y-29000
X52197Y-35552
X52200Y-29500
X52300Y-30000
X52500Y-34900
X52660Y-50148
X53100Y-26600
X53250Y-25600
X53400Y-37900
X53650Y-35250
X53841Y-43061
X54000Y-37800
X54150Y-39700
X54450Y-35500
X54550Y-27800
X54600Y-28800
X54650Y-37300
X55061Y-53494
X55100Y-34900
X55400Y-36400
X55550Y-27800
X55700Y-35600
X55900Y-27950
X56050Y-34700
X56124Y-28376
X56600Y-32000
X56700Y-29200
X56700Y-30400
X56800Y-29700
X57000Y-32350
X57160Y-34300
X57300Y-39600
X57384Y-31447
X57450Y-28850
X57680Y-33420
X57700Y-41500
X58200Y-27600
X58650Y-35500
X58723Y-32943
X58980Y-30700
X59077Y-43337
X59100Y-40800
X59353Y-30699
X59450Y-25500
X59520Y-34160
X59900Y-28500
X61150Y-36750
X61450Y-42700
X61950Y-36550
X62100Y-34700
X62109Y-39361
X62150Y-41150
X62160Y-29280
X63211Y-31211
X63211Y-32117
X63408Y-37195
X63487Y-32943
X63500Y-44500
X63565Y-31644
X63650Y-35400
X64589Y-38298
X65050Y-37150
X66800Y-37100
X67100Y-38100
X68536Y-37687
X68600Y-33900
X68802Y-41054
X68969Y-37697
X69628Y-45778
X70888Y-38455
T3
X72140Y-32412
X72140Y-33412
X72140Y-34412
X75140Y-32412
X75140Y-33412
X75140Y-34412
T4
X40700Y-39700
X41700Y-39700
X42950Y-39700
X43000Y-41400
X43950Y-39700
X44000Y-41400
X44950Y-28500
X44950Y-29500
X61020Y-26160
X62020Y-26160
X63560Y-26180
X64560Y-26180
X66321Y-30369
X66321Y-31369
X67800Y-34850
X67800Y-35850
T5
X70300Y-29347
X70300Y-30331
X70300Y-31316
X70300Y-32300
X70300Y-35416
X70300Y-36400
T6
X67400Y-27000
X67400Y-27984
T7
X38329Y-43849
X38329Y-45030
X38329Y-46211
X38329Y-47392
X39510Y-43849
X39510Y-45030
X39510Y-46211
X39510Y-47392
X73910Y-48839
X73910Y-50020
X75091Y-48839
X75091Y-50020
T8
X67404Y-52865
X69372Y-52865
T9
X42265Y-53946
X42265Y-55286
X47565Y-53946
X47565Y-55286
T0
M30
