G04 #@! TF.FileFunction,Soldermask,Bot*
%FSLAX46Y46*%
G04 Gerber Fmt 4.6, Leading zero omitted, Abs format (unit mm)*
G04 Created by KiCad (PCBNEW (2016-05-27 BZR 6836, Git 4441a4b)-product) date 09/15/16 12:10:58*
%MOMM*%
%LPD*%
G01*
G04 APERTURE LIST*
%ADD10C,0.100000*%
%ADD11C,3.175000*%
%ADD12C,2.387600*%
%ADD13R,2.032000X2.032000*%
%ADD14O,2.032000X2.032000*%
%ADD15R,1.750000X1.750000*%
%ADD16C,1.750000*%
%ADD17C,1.400000*%
%ADD18C,1.500000*%
%ADD19R,1.850000X1.850000*%
%ADD20C,1.850000*%
%ADD21C,1.100000*%
%ADD22C,1.600000*%
G04 APERTURE END LIST*
D10*
D11*
X190834000Y-69950000D03*
X108712000Y-128524000D03*
D12*
X178054000Y-124841000D03*
X164592000Y-124841000D03*
X164592000Y-128244600D03*
X178054000Y-128244600D03*
D13*
X112014000Y-89408000D03*
D14*
X112014000Y-86868000D03*
D15*
X117348000Y-126746000D03*
D16*
X119848000Y-126746000D03*
X122348000Y-126746000D03*
X124848000Y-126746000D03*
X127348000Y-126746000D03*
X129848000Y-126746000D03*
X132348000Y-126746000D03*
X134848000Y-126746000D03*
D17*
X107950000Y-81026000D03*
X110490000Y-81026000D03*
D18*
X136144000Y-79248000D03*
X134112000Y-94234000D03*
X133084000Y-90950000D03*
X132588000Y-79248000D03*
D17*
X107950000Y-83566000D03*
X110490000Y-83566000D03*
X113538000Y-83566000D03*
X113538000Y-81026000D03*
D19*
X110236000Y-76454000D03*
D20*
X112736000Y-76454000D03*
X115236000Y-76454000D03*
X117736000Y-76454000D03*
D11*
X108834000Y-69950000D03*
X190754000Y-128524000D03*
D19*
X122834000Y-70200000D03*
D20*
X125334000Y-70200000D03*
D21*
X177084000Y-74200000D03*
D22*
X171084000Y-70200000D03*
X174084000Y-70200000D03*
X171084000Y-73200000D03*
X174084000Y-73200000D03*
D21*
X168084000Y-74140000D03*
X180084000Y-79200000D03*
D22*
X184084000Y-73200000D03*
X184084000Y-76200000D03*
X181084000Y-73200000D03*
X181084000Y-76200000D03*
D21*
X180144000Y-70200000D03*
X159334000Y-129700000D03*
D22*
X153334000Y-125700000D03*
X156334000Y-125700000D03*
X153334000Y-128700000D03*
X156334000Y-128700000D03*
D21*
X150334000Y-129640000D03*
M02*
