%
M48
M72
T01C0.0140
T02C0.0450
T03C0.0472
T04C0.0480
T05C0.0500
T06C0.0670
T07C0.0728
T08C0.1181
%
T01
X4000Y500
X500Y4000
X12500Y500
X17500Y3000
X20400Y8000
X23500Y12500
X30000Y12500
X34000Y15500
X35000Y12000
X39500Y14000
X39500Y24000
X39500Y32000
X36500Y35000
X20500Y35000
X11500Y35000
X3500Y35000
X500Y31500
X500Y24000
X9500Y22500
X11200Y17900
X16000Y26500
X500Y15000
X26000Y500
X36000Y500
X39500Y3500
T02
X32500Y6000
X29500Y6000
X26500Y6000
X14484Y23902
X13500Y23902
X12476Y23902
X28000Y26000
X29500Y26000
X31000Y26000
T03
X23500Y26650
X21000Y26650
X21000Y20350
X23500Y20350
X14000Y11150
X14000Y4850
X4500Y17350
X4500Y23650
X4500Y24850
X4500Y31150
T04
X37000Y22000
X38000Y23000
X38000Y20500
X37000Y19500
X38000Y18000
X37000Y17000
X38000Y15500
X37000Y14500
X38000Y13000
X37000Y12000
T05
X37000Y7500
X37000Y5500
X22500Y5000
X20500Y5000
X18550Y5000
X16550Y5000
X7500Y5000
X5500Y5000
X4500Y9550
X4500Y11550
X4500Y13500
X4500Y15500
X7500Y31000
X9500Y31000
X11450Y31000
X13450Y31000
X15400Y31000
X17400Y31000
X19350Y31000
X21350Y31000
X23300Y31000
X25300Y31000
X27250Y31000
X29250Y31000
T06
X26500Y26000
X32500Y26000
T07
X11650Y11600
X10350Y11600
X11000Y10350
X11000Y8500
X11000Y6650
X10350Y5400
X11650Y5400
T08
X2000Y2000
X2000Y33500
X38000Y33500
X38000Y2000
M30
