G04 #@! TF.FileFunction,Legend,Bot*
%FSLAX46Y46*%
G04 Gerber Fmt 4.6, Leading zero omitted, Abs format (unit mm)*
G04 Created by KiCad (PCBNEW (2016-05-27 BZR 6836, Git 4441a4b)-product) date 09/13/16 14:21:55*
%MOMM*%
%LPD*%
G01*
G04 APERTURE LIST*
%ADD10C,0.100000*%
%ADD11C,0.150000*%
G04 APERTURE END LIST*
D10*
D11*
X137048761Y-80700380D02*
X136810666Y-81700380D01*
X136620190Y-80986095D01*
X136429714Y-81700380D01*
X136191619Y-80700380D01*
X135858285Y-80795619D02*
X135810666Y-80748000D01*
X135715428Y-80700380D01*
X135477333Y-80700380D01*
X135382095Y-80748000D01*
X135334476Y-80795619D01*
X135286857Y-80890857D01*
X135286857Y-80986095D01*
X135334476Y-81128952D01*
X135905904Y-81700380D01*
X135286857Y-81700380D01*
X133988761Y-92402380D02*
X133750666Y-93402380D01*
X133560190Y-92688095D01*
X133369714Y-93402380D01*
X133131619Y-92402380D01*
X132322095Y-92735714D02*
X132322095Y-93402380D01*
X132560190Y-92354761D02*
X132798285Y-93069047D01*
X132179238Y-93069047D01*
X133492761Y-80700380D02*
X133254666Y-81700380D01*
X133064190Y-80986095D01*
X132873714Y-81700380D01*
X132635619Y-80700380D01*
X131778476Y-80700380D02*
X132254666Y-80700380D01*
X132302285Y-81176571D01*
X132254666Y-81128952D01*
X132159428Y-81081333D01*
X131921333Y-81081333D01*
X131826095Y-81128952D01*
X131778476Y-81176571D01*
X131730857Y-81271809D01*
X131730857Y-81509904D01*
X131778476Y-81605142D01*
X131826095Y-81652761D01*
X131921333Y-81700380D01*
X132159428Y-81700380D01*
X132254666Y-81652761D01*
X132302285Y-81605142D01*
M02*
