M48
INCH,TZ
T1C0.012
T2C0.016
T3C0.031
T4C0.032
T5C0.035
T6C0.040
T7C0.043
T8C0.063
%
G90
G05
T1
X41273Y-26161
X41273Y-27146
X41273Y-28130
X41273Y-29114
X41273Y-30098
X41273Y-31083
X41273Y-32067
X41273Y-33051
X41273Y-34035
X41273Y-35020
X41273Y-36004
X41273Y-36988
X41273Y-37972
X41273Y-38957
X41273Y-39941
X41273Y-40925
X41273Y-41909
X41273Y-42894
X41273Y-43878
X41273Y-44862
X41273Y-45846
X41273Y-46831
X41273Y-47815
X41273Y-48799
X41273Y-49783
X41273Y-50768
X41273Y-51752
X42257Y-25965
X42257Y-52047
X42356Y-42500
X42750Y-41516
X43232Y-34213
X43232Y-34656
X43242Y-25965
X43242Y-37776
X43242Y-38268
X43242Y-38760
X43242Y-39252
X43242Y-39744
X43242Y-52047
X43734Y-40039
X43832Y-37579
X44226Y-25965
X44226Y-40039
X44226Y-52047
X44275Y-28681
X45210Y-25965
X45210Y-52047
X45476Y-31900
X46194Y-25866
X46194Y-52047
X46982Y-38169
X47179Y-25965
X47179Y-52047
X48163Y-25965
X48163Y-52047
X48950Y-32854
X48950Y-33248
X48950Y-33642
X48950Y-38858
X49147Y-25965
X49147Y-52047
X50033Y-32953
X50033Y-33346
X50131Y-25965
X50131Y-52047
X50820Y-31083
X50820Y-32756
X50820Y-38563
X51116Y-25965
X51116Y-52047
X51214Y-31280
X51214Y-31673
X51214Y-32067
X51214Y-32461
X52100Y-25965
X52100Y-52047
X53084Y-25965
X53084Y-52047
X53301Y-42323
X54069Y-25965
X54069Y-52047
X54659Y-46732
X54856Y-47323
X54856Y-47717
X54856Y-48110
X55053Y-25965
X55053Y-52047
X55151Y-49783
X55446Y-48307
X55643Y-50768
X55840Y-32362
X55840Y-32756
X55840Y-33150
X55840Y-33740
X55840Y-34134
X55840Y-34528
X56037Y-25965
X56037Y-31083
X56037Y-46339
X56037Y-46732
X56037Y-52047
X56824Y-32854
X56923Y-31772
X57021Y-25965
X57021Y-52047
X58006Y-25965
X58006Y-52047
X58301Y-28130
X58694Y-28130
X58990Y-25965
X58990Y-52047
X59088Y-28130
X59482Y-28130
X59974Y-25965
X59974Y-52047
X60958Y-25965
X60958Y-52047
X61943Y-25965
X61943Y-52047
X62927Y-25965
X62927Y-52047
X63911Y-25965
X63911Y-52047
X64895Y-25965
X64895Y-52047
X65880Y-25965
X65880Y-52047
X66864Y-25965
X66864Y-52047
X67848Y-25965
X67848Y-52047
X68832Y-25965
X68832Y-52047
X69817Y-25965
X69817Y-52047
X70801Y-25965
X70801Y-52047
X71785Y-25965
X71785Y-52047
X72769Y-25965
X72769Y-52047
X73754Y-25965
X73754Y-52047
X74147Y-40630
X74541Y-47028
X74639Y-30984
X74738Y-25965
X74738Y-52047
X75722Y-25965
X75722Y-52047
X76608Y-25965
X76608Y-26654
X76608Y-27638
X76608Y-28622
X76608Y-29606
X76608Y-30591
X76608Y-31575
X76608Y-32559
X76608Y-33543
X76608Y-34528
X76608Y-35512
X76608Y-36496
X76608Y-37480
X76608Y-38465
X76608Y-39449
X76608Y-40433
X76608Y-41417
X76608Y-42402
X76608Y-43386
X76608Y-44370
X76608Y-45354
X76608Y-46339
X76608Y-47323
X76608Y-48307
X76608Y-49291
X76608Y-50276
X76608Y-51260
T2
X43900Y-29300
X44100Y-36200
X45400Y-35200
X45506Y-26949
X45900Y-34400
X46000Y-29500
X46200Y-41000
X46300Y-33700
X46785Y-28720
X46900Y-42000
X47300Y-35400
X47400Y-41000
X48300Y-35400
X48500Y-34400
X48800Y-35400
X49600Y-35400
X50100Y-35100
X50400Y-33800
X51100Y-35100
X51700Y-42300
X51900Y-35100
X51900Y-41100
X52100Y-34100
X52198Y-31969
X52600Y-32000
X52900Y-41900
X53500Y-27200
X53800Y-29400
X53900Y-34800
X54200Y-28000
X54500Y-27200
X55900Y-27400
X56000Y-41900
X56000Y-44800
X56000Y-45800
X56400Y-35200
X56600Y-28100
X56746Y-44094
X57809Y-27146
X58400Y-32300
X58916Y-30392
X59285Y-32953
X60600Y-30200
X62400Y-29900
X63100Y-37500
X65000Y-39800
X68900Y-44400
X70700Y-37600
X75200Y-36400
T3
X52800Y-37100
T4
X42500Y-31900
X42500Y-32900
X43500Y-31900
X43500Y-32900
X44700Y-31900
X44700Y-32900
T5
X43400Y-30100
X44384Y-30100
X45369Y-30100
X46200Y-49900
X46353Y-30100
X47184Y-49900
X48169Y-49900
X48360Y-27638
X49153Y-49900
X49344Y-27638
X50137Y-49900
X51121Y-49900
X52106Y-49900
X53090Y-49900
T6
X44100Y-34200
X44100Y-35200
T7
X60368Y-49488
X60368Y-50669
X61549Y-49488
X61549Y-50669
X67356Y-27638
X67356Y-28819
X68537Y-27638
X68537Y-28819
X71293Y-28819
X71293Y-30000
X72474Y-28819
X72474Y-30000
T8
X64800Y-49150
X64800Y-50490
X70100Y-49150
X70100Y-50490
T0
M30
