M48
;DRILL file {KiCad (2016-05-27 BZR 6836, Git 4441a4b)-product} date 09/15/16 15:21:37
;FORMAT={-:-/ absolute / inch / decimal}
FMAT,2
INCH,TZ
T1C0.012
T2C0.015
T3C0.025
T4C0.031
T5C0.032
T6C0.035
T7C0.035
T8C0.039
T9C0.040
T10C0.043
T11C0.051
T12C0.065
T13C0.085
%
G90
G05
M72
T1
X3.7598Y-1.9488
X3.7598Y-2.3425
X3.7598Y-2.7461
X3.7598Y-3.1398
X3.7598Y-3.5433
X3.7598Y-3.9862
X3.7598Y-4.3799
X3.7598Y-4.7736
X3.7598Y-5.1772
X3.7598Y-5.5807
X3.7598Y-5.9843
X3.7598Y-6.3878
X3.7598Y-6.7815
X3.7598Y-7.2539
X3.9469Y-7.6969
X3.9488Y-6.4449
X4.0354Y-5.748
X4.1063Y-4.3701
X4.1181Y-7.2913
X4.1181Y-7.4094
X4.1535Y-1.8996
X4.2087Y-4.3465
X4.2244Y-4.2717
X4.2677Y-6.5315
X4.2677Y-6.937
X4.2874Y-2.685
X4.2913Y-2.3622
X4.3209Y-6.3091
X4.3268Y-2.5394
X4.3406Y-7.6969
X4.3661Y-7.1693
X4.3661Y-7.5236
X4.3701Y-3.189
X4.378Y-2.2874
X4.3898Y-3.6909
X4.5039Y-6.5315
X4.5039Y-6.937
X4.5079Y-2.5984
X4.5354Y-4.2717
X4.5472Y-1.8996
X4.5709Y-6.6142
X4.5709Y-6.8504
X4.5906Y-4.7913
X4.6378Y-2.6929
X4.6378Y-4.3465
X4.7343Y-7.6969
X4.7402Y-4.2717
X4.7598Y-5.7126
X4.7992Y-6.6339
X4.9016Y-6.8996
X4.9311Y-1.8996
X4.9449Y-2.8228
X4.9606Y-4.3465
X5.0551Y-4.2717
X5.063Y-4.7795
X5.0827Y-2.8465
X5.128Y-7.6969
X5.185Y-2.9764
X5.1969Y-6.9291
X5.2244Y-2.9764
X5.2264Y-7.5591
X5.2283Y-2.2717
X5.2638Y-2.9764
X5.2756Y-2.5591
X5.2913Y-2.1299
X5.315Y-1.8996
X5.3228Y-2.9646
X5.3622Y-2.9646
X5.3701Y-2.2598
X5.4016Y-2.9646
X5.4016Y-4.2717
X5.4094Y-6.4567
X5.4921Y-2.8976
X5.5079Y-2.9409
X5.5197Y-4.7835
X5.5217Y-7.6969
X5.5591Y-2.9409
X5.5748Y-3.0472
X5.5906Y-3.435
X5.6102Y-4.4843
X5.6142Y-3.0787
X5.6693Y-6.9685
X5.6969Y-6.3701
X5.6988Y-1.8996
X5.7382Y-3.6811
X5.7756Y-4.2677
X5.878Y-2.811
X5.9016Y-2.1417
X5.9154Y-7.6969
X5.9213Y-2.811
X5.9646Y-2.811
X5.9843Y-2.0591
X6.0354Y-3.0118
X6.0433Y-2.748
X6.0591Y-4.4606
X6.0827Y-1.8996
X6.1102Y-3.0945
X6.1417Y-2.2402
X6.1417Y-2.2835
X6.1417Y-2.3307
X6.1811Y-2.748
X6.189Y-2.4921
X6.1969Y-3.0118
X6.3091Y-7.6969
X6.3425Y-2.2992
X6.4213Y-2.1969
X6.4665Y-1.8996
X6.5197Y-2.2992
X6.565Y-3.8878
X6.5945Y-2.8839
X6.6142Y-7.4114
X6.624Y-6.9587
X6.6339Y-3.5728
X6.6535Y-3.1102
X6.6535Y-3.185
X6.6535Y-3.2283
X6.6535Y-3.2717
X6.6693Y-5.7756
X6.6693Y-5.8307
X6.6693Y-5.8858
X6.6693Y-5.9488
X6.6693Y-6.0079
X6.6693Y-6.0709
X6.6693Y-6.1299
X6.6693Y-6.189
X6.6693Y-6.2559
X6.6732Y-4.4094
X6.6732Y-4.4685
X6.6732Y-4.5276
X6.6732Y-4.5866
X6.6732Y-4.6496
X6.6732Y-4.7087
X6.6732Y-4.7677
X6.6732Y-4.8189
X6.7028Y-7.6969
X6.7165Y-3.3228
X6.7323Y-4.3209
X6.7362Y-3.0315
X6.8504Y-1.8996
X7.0965Y-7.6969
X7.1161Y-6.1417
X7.1752Y-6.624
X7.189Y-6.1378
X7.2008Y-2.8346
X7.2146Y-4.6358
X7.2343Y-1.8996
X7.2736Y-3.3268
X7.2835Y-6.1614
X7.3819Y-4.2677
X7.4685Y-5.0591
X7.4902Y-7.6969
X7.5Y-2.2126
X7.5157Y-5.5433
X7.5591Y-6.8701
X7.5709Y-6.6535
X7.6181Y-1.8996
X7.6181Y-3.4803
X7.6181Y-3.689
X7.6772Y-3.2795
X7.6772Y-3.4213
X7.6772Y-6.1102
X7.6772Y-6.2638
X7.6772Y-6.2638
X7.7126Y-4.0236
X7.7205Y-3.5827
X7.7992Y-3.4213
X7.8465Y-5.2283
X7.8819Y-5.5551
X7.8839Y-7.6969
X7.9528Y-7.4331
X8.Y-2.9213
X8.Y-3.5787
X8.002Y-1.8996
X8.0118Y-3.8583
X8.0157Y-4.4055
X8.1339Y-2.0906
X8.1929Y-3.7441
X8.2Y-4.
X8.21Y-2.42
X8.27Y-5.17
X8.27Y-5.35
X8.2776Y-7.6969
X8.3071Y-5.4
X8.311Y-3.5
X8.311Y-4.9173
X8.3307Y-4.9685
X8.3346Y-3.5512
X8.35Y-5.13
X8.3504Y-7.1496
X8.3504Y-7.4173
X8.3858Y-1.8996
X8.3858Y-1.8996
X8.3858Y-4.9843
X8.3898Y-3.563
X8.4252Y-6.437
X8.43Y-5.17
X8.4331Y-4.9843
X8.4488Y-6.5472
X8.45Y-3.78
X8.45Y-5.37
X8.4528Y-3.5512
X8.4724Y-3.5
X8.49Y-2.42
X8.5079Y-6.3819
X8.5197Y-6.3307
X8.5748Y-6.3189
X8.5945Y-6.2677
X8.6713Y-7.6969
X8.6811Y-4.1142
X8.7441Y-7.1496
X8.7441Y-7.4173
X8.7795Y-1.8996
X8.86Y-5.95
X8.878Y-2.2441
X8.8928Y-4.5906
X8.9165Y-4.5394
X8.9165Y-4.6417
X8.94Y-3.17
X8.95Y-5.86
X8.95Y-6.04
X8.9567Y-4.1437
X8.9637Y-4.5118
X8.97Y-3.1
X8.97Y-3.23
X8.9764Y-3.8425
X9.0197Y-3.7598
X9.0197Y-3.8071
X9.03Y-3.06
X9.03Y-3.27
X9.065Y-7.6969
X9.0748Y-7.5906
X9.0846Y-5.315
X9.1339Y-7.1496
X9.1339Y-7.4173
X9.1535Y-6.1122
X9.1732Y-1.8996
X9.2047Y-6.878
X9.2224Y-5.9154
X9.315Y-4.9606
X9.315Y-5.0197
X9.315Y-5.0827
X9.3661Y-5.126
X9.4094Y-2.1102
X9.4213Y-5.126
X9.4587Y-7.6969
X9.4764Y-5.126
X9.5236Y-5.126
X9.5276Y-7.1496
X9.5276Y-7.4173
X9.5669Y-1.8996
X9.6299Y-5.0197
X9.64Y-6.09
X9.7756Y-2.3976
X9.8031Y-6.8799
X9.8425Y-5.8366
X9.8425Y-5.9449
X9.8524Y-7.6969
X9.8819Y-5.3937
X9.9567Y-7.4724
X9.9606Y-1.8996
X10.0315Y-3.5236
X10.0591Y-2.2933
X10.0591Y-2.687
X10.0591Y-2.9823
X10.063Y-3.9055
X10.1417Y-6.6299
X10.1417Y-6.7638
X10.1476Y-6.1122
X10.1969Y-5.9154
X10.1969Y-6.0335
X10.1969Y-6.5748
X10.1969Y-6.6929
X10.2461Y-7.6969
X10.3543Y-4.2913
X10.4528Y-2.9823
X10.4921Y-3.8425
X10.6398Y-7.6969
X10.6654Y-4.7008
X10.752Y-5.7559
X10.752Y-6.4094
X10.8031Y-6.0197
X10.8307Y-5.8346
X10.8307Y-5.9449
X10.8386Y-6.4961
X10.8386Y-6.6024
X10.8465Y-2.9823
X10.8819Y-6.0945
X10.9134Y-4.4055
X10.9449Y-2.2933
X10.9449Y-2.687
X11.0335Y-7.6969
X11.0433Y-1.998
X11.1496Y-2.3386
X11.185Y-6.5591
X11.1969Y-5.0197
X11.1969Y-5.0748
X11.2165Y-5.122
X11.2165Y-6.8583
X11.2362Y-7.4803
X11.2677Y-5.1417
X11.3189Y-1.9291
X11.3228Y-5.1417
X11.374Y-5.1417
X11.3858Y-6.5591
X11.4094Y-2.4567
X11.4213Y-5.1417
X11.4272Y-7.6969
X11.4331Y-2.0984
X11.4764Y-5.1417
X11.5433Y-5.9213
X11.5472Y-5.7598
X11.6142Y-2.3228
X11.6142Y-2.7165
X11.6142Y-3.1102
X11.6142Y-3.5039
X11.6142Y-3.8976
X11.6142Y-4.2913
X11.6142Y-4.685
X11.6142Y-5.0787
X11.6142Y-5.4724
X11.6142Y-5.8661
X11.6142Y-6.2598
X11.6142Y-6.6535
X11.6142Y-7.0472
X11.6142Y-7.4409
T2
X3.9019Y-4.34
X3.94Y-4.48
X4.1Y-2.9
X4.11Y-6.24
X4.1827Y-5.8197
X4.22Y-4.82
X4.315Y-5.9134
X4.35Y-2.21
X4.45Y-2.38
X4.5276Y-4.0551
X4.5571Y-5.6004
X4.5866Y-2.4705
X4.626Y-2.3425
X4.626Y-2.8445
X4.7343Y-6.1909
X4.8327Y-3.8681
X4.84Y-4.52
X4.8622Y-4.0551
X4.87Y-2.24
X4.87Y-4.3
X4.88Y-4.16
X4.9016Y-2.6378
X4.9016Y-2.6969
X4.9016Y-2.7756
X4.9016Y-2.9528
X4.9102Y-2.5405
X4.9192Y-5.8292
X5.Y-6.04
X5.0278Y-2.628
X5.0394Y-2.4705
X5.0444Y-2.1651
X5.0787Y-2.6378
X5.1181Y-2.3622
X5.1673Y-2.4409
X5.18Y-4.31
X5.187Y-3.9075
X5.1969Y-5.622
X5.2165Y-4.0551
X5.2264Y-2.2146
X5.2362Y-2.7362
X5.28Y-4.35
X5.38Y-2.44
X5.4Y-2.739
X5.4Y-3.65
X5.4232Y-2.2539
X5.4331Y-2.4114
X5.4724Y-2.6969
X5.5008Y-2.3906
X5.502Y-6.0827
X5.5059Y-2.5
X5.5118Y-2.5689
X5.56Y-2.3026
X5.7382Y-2.5492
X5.8Y-2.69
X5.8563Y-3.2382
X5.9213Y-5.622
X5.9252Y-2.372
X6.Y-4.02
X6.0079Y-4.811
X6.0335Y-2.372
X6.1021Y-6.8967
X6.1122Y-2.8051
X6.2598Y-2.8937
X6.2598Y-6.8406
X6.3484Y-5.7087
X6.4252Y-4.811
X6.5453Y-5.935
X6.6354Y-3.8905
X6.6732Y-2.6083
X6.7028Y-5.6398
X7.1815Y-5.7789
X7.2348Y-5.4948
X7.4409Y-6.3681
X7.7681Y-6.2781
X7.8248Y-6.6142
X7.8248Y-7.0768
X7.9528Y-6.9606
X7.9645Y-6.8765
X8.0217Y-6.437
X8.0315Y-7.1949
X8.0556Y-6.7656
X8.3092Y-6.9351
X8.3465Y-6.7224
X8.4962Y-6.718
X8.5433Y-3.7894
X8.563Y-6.8996
X8.6011Y-6.1995
X8.6024Y-6.5453
X8.6417Y-6.6142
X8.7205Y-6.6831
X8.8976Y-6.3583
X8.937Y-6.5433
X9.13Y-6.18
X9.2303Y-5.5703
X9.4Y-6.19
X9.4882Y-6.9213
X9.7Y-6.7
X9.84Y-6.59
X9.9Y-5.78
X9.9685Y-6.4961
X10.04Y-6.18
X10.12Y-5.53
X10.19Y-6.52
X10.2Y-7.32
X10.3673Y-3.4712
X10.3843Y-3.3193
X10.48Y-5.74
X10.48Y-7.
X10.94Y-5.94
X10.94Y-7.44
X10.97Y-6.34
X11.Y-5.65
X11.15Y-6.17
X11.16Y-5.65
X11.23Y-6.25
X11.2697Y-5.6594
X11.5817Y-7.1703
T3
X6.83Y-4.86
X6.91Y-5.38
T4
X4.02Y-5.3
X4.02Y-5.4
X4.02Y-5.5
X4.32Y-5.3
X4.32Y-5.4
X4.32Y-5.5
X4.4275Y-2.49
X4.4275Y-2.59
X4.4275Y-2.69
X4.7275Y-2.49
X4.7275Y-2.59
X4.7275Y-2.69
X4.76Y-5.3
X4.76Y-5.4
X4.76Y-5.5
X5.06Y-5.3
X5.06Y-5.4
X5.06Y-5.5
X5.48Y-5.3
X5.48Y-5.4
X5.48Y-5.5
X5.78Y-5.3
X5.78Y-5.4
X5.78Y-5.5
X6.24Y-5.3
X6.24Y-5.4
X6.24Y-5.5
X6.54Y-5.3
X6.54Y-5.4
X6.54Y-5.5
X8.6547Y-5.95
X8.6678Y-4.5894
X8.7347Y-3.1694
X8.95Y-5.95
X8.9631Y-4.5894
X9.03Y-3.1694
X9.2872Y-5.6775
X9.2872Y-5.7775
X9.2872Y-5.8775
X9.2872Y-6.3369
X9.2872Y-6.4369
X9.2872Y-6.5369
X9.5872Y-5.6775
X9.5872Y-5.7775
X9.5872Y-5.8775
X9.5872Y-6.3369
X9.5872Y-6.4369
X9.5872Y-6.5369
X10.2714Y-6.3369
X10.2714Y-6.4369
X10.2714Y-6.5369
X10.2765Y-5.6775
X10.2765Y-5.7775
X10.2765Y-5.8775
X10.5714Y-6.3369
X10.5714Y-6.4369
X10.5714Y-6.5369
X10.5765Y-5.6775
X10.5765Y-5.7775
X10.5765Y-5.8775
T5
X4.024Y-3.2579
X4.124Y-3.2579
X4.44Y-2.06
X4.54Y-2.06
X5.04Y-2.06
X5.14Y-2.06
X5.4Y-2.06
X5.5Y-2.06
X5.8Y-2.06
X5.9Y-2.06
X6.42Y-2.3
X6.42Y-2.4
X6.48Y-4.3
X6.58Y-4.3
X7.7978Y-3.3494
X7.7978Y-6.1894
X7.8504Y-4.7598
X7.8504Y-4.8598
X7.8978Y-3.3494
X7.8978Y-6.1894
X11.36Y-5.76
X11.36Y-5.92
X11.46Y-5.76
X11.46Y-5.92
T6
X3.98Y-4.5915
X3.98Y-4.6915
X3.98Y-4.7915
X3.98Y-4.8915
X4.08Y-4.6415
X4.08Y-4.7415
X4.08Y-4.8415
X4.08Y-4.9415
T7
X4.1043Y-3.9764
X4.1043Y-4.0748
X4.1043Y-4.1732
X4.1043Y-4.2717
X6.9606Y-7.2047
X6.9606Y-7.3031
X6.9606Y-7.4016
X6.9606Y-7.5
X7.4567Y-7.2047
X7.4567Y-7.3031
X7.4567Y-7.4016
X7.4567Y-7.5
T8
X6.3386Y-7.3425
X6.3386Y-7.4409
T9
X4.96Y-4.62
X4.96Y-4.72
X4.96Y-4.82
X5.42Y-4.6189
X5.42Y-4.7189
X5.42Y-4.8189
X5.64Y-2.05
X5.8976Y-4.611
X5.8976Y-4.711
X5.8976Y-4.811
X6.315Y-4.611
X6.315Y-4.711
X6.315Y-4.811
X7.1732Y-4.7898
X7.1732Y-4.8898
X7.189Y-6.252
X7.189Y-6.352
X7.5197Y-3.5827
X7.6197Y-3.5827
X9.4215Y-2.8203
X9.4215Y-2.9203
X9.4215Y-3.0203
X9.4215Y-3.1203
X9.4215Y-3.2203
X9.4215Y-3.3203
X9.4215Y-3.4203
X9.4215Y-3.5203
X9.4215Y-3.6203
X9.4215Y-3.7203
X9.4215Y-3.8203
X9.4215Y-3.9203
X9.4215Y-4.0203
X9.4215Y-4.1203
X9.4215Y-4.2203
X9.4215Y-4.3203
X9.4215Y-4.4203
X9.4215Y-4.5203
X9.4215Y-4.6203
X9.4215Y-4.7203
X9.4215Y-4.8203
X9.4215Y-4.9203
X9.4215Y-5.0203
X9.5215Y-2.8203
X9.5215Y-2.9203
X9.5215Y-3.0203
X9.5215Y-3.1203
X9.5215Y-3.2203
X9.5215Y-3.3203
X9.5215Y-3.4203
X9.5215Y-3.5203
X9.5215Y-3.6203
X9.5215Y-3.7203
X9.5215Y-3.8203
X9.5215Y-3.9203
X9.5215Y-4.0203
X9.5215Y-4.1203
X9.5215Y-4.2203
X9.5215Y-4.3203
X9.5215Y-4.4203
X9.5215Y-4.5203
X9.5215Y-4.6203
X9.5215Y-4.7203
X9.5215Y-4.8203
X9.5215Y-4.9203
X9.5215Y-5.0203
X11.28Y-6.46
X11.28Y-6.56
X11.3227Y-2.8187
X11.3227Y-2.9187
X11.3227Y-3.0187
X11.3227Y-3.1187
X11.3227Y-3.2187
X11.3227Y-3.3187
X11.3227Y-3.4187
X11.3227Y-3.5187
X11.3227Y-3.6187
X11.3227Y-3.7187
X11.3227Y-3.8187
X11.3227Y-3.9187
X11.3227Y-4.0187
X11.3227Y-4.1187
X11.3227Y-4.2187
X11.3227Y-4.3187
X11.3227Y-4.4187
X11.3227Y-4.5187
X11.3227Y-4.6187
X11.3227Y-4.7187
X11.3227Y-4.8187
X11.3227Y-4.9187
X11.3227Y-5.0187
X11.4227Y-2.8187
X11.4227Y-2.9187
X11.4227Y-3.0187
X11.4227Y-3.1187
X11.4227Y-3.2187
X11.4227Y-3.3187
X11.4227Y-3.4187
X11.4227Y-3.5187
X11.4227Y-3.6187
X11.4227Y-3.7187
X11.4227Y-3.8187
X11.4227Y-3.9187
X11.4227Y-4.0187
X11.4227Y-4.1187
X11.4227Y-4.2187
X11.4227Y-4.3187
X11.4227Y-4.4187
X11.4227Y-4.5187
X11.4227Y-4.6187
X11.4227Y-4.7187
X11.4227Y-4.8187
X11.4227Y-4.9187
X11.4227Y-5.0187
T10
X4.0244Y-3.52
X4.0244Y-3.6381
X4.03Y-2.3576
X4.03Y-2.4757
X4.03Y-2.5938
X4.03Y-2.7119
X4.03Y-2.83
X4.1425Y-3.52
X4.1425Y-3.6381
X4.1481Y-2.3576
X4.1481Y-2.4757
X4.1481Y-2.5938
X4.1481Y-2.7119
X4.1481Y-2.83
X4.1496Y-6.6772
X4.1496Y-6.7953
X4.2598Y-7.2913
X4.2598Y-7.4094
X4.2677Y-6.6772
X4.2677Y-6.7953
X4.378Y-7.2913
X4.378Y-7.4094
X4.3858Y-6.6772
X4.3858Y-6.7953
X4.5039Y-6.6772
X4.5039Y-6.7953
X5.6625Y-3.9519
X5.6625Y-4.07
X6.1475Y-3.9569
X6.1475Y-4.075
X10.2458Y-7.1231
X10.2458Y-7.2413
X10.3639Y-7.1231
X10.3639Y-7.2413
X10.482Y-7.1231
X10.482Y-7.2413
X10.6002Y-7.1231
X10.6002Y-7.2413
X11.0332Y-7.1231
X11.0332Y-7.2413
X11.1513Y-7.1231
X11.1513Y-7.2413
X11.2694Y-7.1231
X11.2694Y-7.2413
X11.3876Y-7.1231
X11.3876Y-7.2413
T11
X4.7723Y-3.1938
X4.7723Y-3.6662
X5.2527Y-3.1938
X5.2527Y-3.6662
X5.3314Y-3.43
X5.872Y-3.4744
X5.9508Y-3.2382
X5.9508Y-3.7106
X6.4311Y-3.2382
X6.4311Y-3.7106
T12
X10.71Y-7.01
T13
X6.9768Y-2.4194
X6.9768Y-3.1694
X6.9768Y-3.8394
X6.9768Y-4.5894
X6.9768Y-5.2594
X6.9768Y-6.0094
X7.4768Y-3.1699
X7.4768Y-4.5899
X7.4768Y-6.0099
X7.6018Y-3.1694
X7.6018Y-4.5894
X7.6018Y-6.0094
X7.7268Y-3.1694
X7.7268Y-4.5894
X7.7268Y-6.0094
X8.3518Y-2.4194
X8.3518Y-3.8394
X8.3518Y-5.2594
X8.3523Y-3.1694
X8.3523Y-4.5894
X8.3523Y-6.0094
T0
M30
