M48
;DRILL file {KiCad (2016-05-27 BZR 6836, Git 4441a4b)-product} date 09/15/16 15:21:37
;FORMAT={-:-/ absolute / inch / decimal}
FMAT,2
INCH,TZ
T1C0.030
T2C0.043
T3C0.128
%
G90
G05
M72
T1
X4.21Y-4.4615
X4.21Y-5.0715
T2
X3.985Y-3.7562
X3.9874Y-3.4019
X4.0315Y-6.8323
X4.1851Y-2.9481
X4.1875Y-2.2394
X4.2205Y-7.5276
X4.2228Y-7.1732
X4.622Y-6.8346
X5.5444Y-3.9125
X5.7806Y-3.9149
X6.0294Y-3.9175
X6.2656Y-3.9199
X10.1277Y-7.0838
X10.7183Y-7.0861
X10.9151Y-7.0838
X11.5057Y-7.0861
T3
X4.33Y-4.5415
X4.33Y-4.9915
T0
M30
