%
M48
M72
T01C0.0140
T02C0.0200
T03C0.0236
T04C0.0276
T05C0.0315
T06C0.0320
T07C0.0400
T08C0.0433
T09C0.0480
T10C0.0500
T11C0.0512
T12C0.1250
%
T01
X10500Y7000
X11500Y9000
X11000Y11000
X19000Y11000
X20000Y10500
X21000Y8500
X22500Y8500
X24000Y11000
X24000Y12500
X26500Y11000
X21000Y13500
T02
X17500Y13500
X17000Y14000
X14500Y15500
X12000Y15000
X9000Y15000
X9000Y14500
X9000Y15500
X7500Y17500
X11000Y21500
X13000Y24000
X8500Y27000
X3500Y27000
X500Y24000
X500Y20000
X500Y11000
X9000Y10374
X9000Y6000
X9000Y3000
X13000Y3000
X13500Y3000
X14000Y3000
X17000Y3000
X17500Y3000
X18500Y500
X18500Y6000
X17500Y8500
X17500Y9500
X16500Y11000
X17500Y17000
X24000Y21000
X28500Y21500
X34000Y24000
X31000Y27000
X26000Y27000
X19500Y23000
X34000Y17500
X34000Y11000
X25500Y4500
X24000Y6000
X31000Y500
X34000Y3500
X3500Y500
X500Y3500
T03
X24000Y9500
X25500Y9500
T04
X16000Y1500
X15000Y1500
T05
X13181Y6000
X10819Y6000
X15000Y17619
X15000Y19981
T06
X13000Y1500
X9000Y1500
T07
X13000Y8500
X14000Y8500
X14000Y11000
X13000Y11000
X7500Y10500
X7500Y11500
T08
X17441Y19098
X22244Y19098
X22244Y23823
X17441Y23823
T09
X30500Y10000
X29500Y9000
X7000Y1500
X6000Y2500
T10
X3000Y6000
X3000Y8000
X3000Y14500
X3000Y16500
X9500Y24000
X11500Y24000
X30000Y18000
X30000Y16000
X30000Y14000
X30000Y12000
T11
X16654Y21500
T12
X2000Y2000
X2000Y25500
X32500Y25500
X32500Y2000
M30
