G04 #@! TF.FileFunction,Legend,Bot*
%FSLAX46Y46*%
G04 Gerber Fmt 4.6, Leading zero omitted, Abs format (unit mm)*
G04 Created by KiCad (PCBNEW (2016-05-27 BZR 6836, Git 4441a4b)-product) date 09/15/16 12:13:09*
%MOMM*%
%LPD*%
G01*
G04 APERTURE LIST*
%ADD10C,0.100000*%
%ADD11C,0.150000*%
G04 APERTURE END LIST*
D10*
D11*
X108690000Y-106056000D02*
X112290000Y-106056000D01*
X112290000Y-106056000D02*
X112790000Y-105556000D01*
X112790000Y-105556000D02*
X112790000Y-104756000D01*
X112790000Y-104756000D02*
X112290000Y-104256000D01*
X112290000Y-104256000D02*
X108690000Y-104256000D01*
X108690000Y-104256000D02*
X108190000Y-104756000D01*
X108190000Y-104756000D02*
X108190000Y-105556000D01*
X108190000Y-105556000D02*
X108690000Y-106056000D01*
X115073000Y-75460000D02*
X115073000Y-71860000D01*
X115073000Y-71860000D02*
X114573000Y-71360000D01*
X114573000Y-71360000D02*
X113773000Y-71360000D01*
X113773000Y-71360000D02*
X113273000Y-71860000D01*
X113273000Y-71860000D02*
X113273000Y-75460000D01*
X113273000Y-75460000D02*
X113773000Y-75960000D01*
X113773000Y-75960000D02*
X114573000Y-75960000D01*
X114573000Y-75960000D02*
X115073000Y-75460000D01*
X102848000Y-101738000D02*
X106448000Y-101738000D01*
X106448000Y-101738000D02*
X106948000Y-101238000D01*
X106948000Y-101238000D02*
X106948000Y-100438000D01*
X106948000Y-100438000D02*
X106448000Y-99938000D01*
X106448000Y-99938000D02*
X102848000Y-99938000D01*
X102848000Y-99938000D02*
X102348000Y-100438000D01*
X102348000Y-100438000D02*
X102348000Y-101238000D01*
X102348000Y-101238000D02*
X102848000Y-101738000D01*
X108563000Y-101738000D02*
X112163000Y-101738000D01*
X112163000Y-101738000D02*
X112663000Y-101238000D01*
X112663000Y-101238000D02*
X112663000Y-100438000D01*
X112663000Y-100438000D02*
X112163000Y-99938000D01*
X112163000Y-99938000D02*
X108563000Y-99938000D01*
X108563000Y-99938000D02*
X108063000Y-100438000D01*
X108063000Y-100438000D02*
X108063000Y-101238000D01*
X108063000Y-101238000D02*
X108563000Y-101738000D01*
X160912400Y-67397200D02*
X164512400Y-67397200D01*
X164512400Y-67397200D02*
X165012400Y-66897200D01*
X165012400Y-66897200D02*
X165012400Y-66097200D01*
X165012400Y-66097200D02*
X164512400Y-65597200D01*
X164512400Y-65597200D02*
X160912400Y-65597200D01*
X160912400Y-65597200D02*
X160412400Y-66097200D01*
X160412400Y-66097200D02*
X160412400Y-66897200D01*
X160412400Y-66897200D02*
X160912400Y-67397200D01*
X154460800Y-67346400D02*
X158060800Y-67346400D01*
X158060800Y-67346400D02*
X158560800Y-66846400D01*
X158560800Y-66846400D02*
X158560800Y-66046400D01*
X158560800Y-66046400D02*
X158060800Y-65546400D01*
X158060800Y-65546400D02*
X154460800Y-65546400D01*
X154460800Y-65546400D02*
X153960800Y-66046400D01*
X153960800Y-66046400D02*
X153960800Y-66846400D01*
X153960800Y-66846400D02*
X154460800Y-67346400D01*
X169356000Y-80206000D02*
X169356000Y-76606000D01*
X169356000Y-76606000D02*
X168856000Y-76106000D01*
X168856000Y-76106000D02*
X168056000Y-76106000D01*
X168056000Y-76106000D02*
X167556000Y-76606000D01*
X167556000Y-76606000D02*
X167556000Y-80206000D01*
X167556000Y-80206000D02*
X168056000Y-80706000D01*
X168056000Y-80706000D02*
X168856000Y-80706000D01*
X168856000Y-80706000D02*
X169356000Y-80206000D01*
X173112000Y-91589000D02*
X173112000Y-87989000D01*
X173112000Y-87989000D02*
X172612000Y-87489000D01*
X172612000Y-87489000D02*
X171812000Y-87489000D01*
X171812000Y-87489000D02*
X171312000Y-87989000D01*
X171312000Y-87989000D02*
X171312000Y-91589000D01*
X171312000Y-91589000D02*
X171812000Y-92089000D01*
X171812000Y-92089000D02*
X172612000Y-92089000D01*
X172612000Y-92089000D02*
X173112000Y-91589000D01*
X111394761Y-106608380D02*
X111156666Y-107608380D01*
X110966190Y-106894095D01*
X110775714Y-107608380D01*
X110537619Y-106608380D01*
X109632857Y-107608380D02*
X110204285Y-107608380D01*
X109918571Y-107608380D02*
X109918571Y-106608380D01*
X110013809Y-106751238D01*
X110109047Y-106846476D01*
X110204285Y-106894095D01*
X115625380Y-72755238D02*
X116625380Y-72993333D01*
X115911095Y-73183809D01*
X116625380Y-73374285D01*
X115625380Y-73612380D01*
X115720619Y-73945714D02*
X115673000Y-73993333D01*
X115625380Y-74088571D01*
X115625380Y-74326666D01*
X115673000Y-74421904D01*
X115720619Y-74469523D01*
X115815857Y-74517142D01*
X115911095Y-74517142D01*
X116053952Y-74469523D01*
X116625380Y-73898095D01*
X116625380Y-74517142D01*
X105552761Y-102290380D02*
X105314666Y-103290380D01*
X105124190Y-102576095D01*
X104933714Y-103290380D01*
X104695619Y-102290380D01*
X104409904Y-102290380D02*
X103790857Y-102290380D01*
X104124190Y-102671333D01*
X103981333Y-102671333D01*
X103886095Y-102718952D01*
X103838476Y-102766571D01*
X103790857Y-102861809D01*
X103790857Y-103099904D01*
X103838476Y-103195142D01*
X103886095Y-103242761D01*
X103981333Y-103290380D01*
X104267047Y-103290380D01*
X104362285Y-103242761D01*
X104409904Y-103195142D01*
X111267761Y-102290380D02*
X111029666Y-103290380D01*
X110839190Y-102576095D01*
X110648714Y-103290380D01*
X110410619Y-102290380D01*
X109601095Y-102623714D02*
X109601095Y-103290380D01*
X109839190Y-102242761D02*
X110077285Y-102957047D01*
X109458238Y-102957047D01*
X163617161Y-67949580D02*
X163379066Y-68949580D01*
X163188590Y-68235295D01*
X162998114Y-68949580D01*
X162760019Y-67949580D01*
X161902876Y-67949580D02*
X162379066Y-67949580D01*
X162426685Y-68425771D01*
X162379066Y-68378152D01*
X162283828Y-68330533D01*
X162045733Y-68330533D01*
X161950495Y-68378152D01*
X161902876Y-68425771D01*
X161855257Y-68521009D01*
X161855257Y-68759104D01*
X161902876Y-68854342D01*
X161950495Y-68901961D01*
X162045733Y-68949580D01*
X162283828Y-68949580D01*
X162379066Y-68901961D01*
X162426685Y-68854342D01*
X157165561Y-67898780D02*
X156927466Y-68898780D01*
X156736990Y-68184495D01*
X156546514Y-68898780D01*
X156308419Y-67898780D01*
X155498895Y-67898780D02*
X155689371Y-67898780D01*
X155784609Y-67946400D01*
X155832228Y-67994019D01*
X155927466Y-68136876D01*
X155975085Y-68327352D01*
X155975085Y-68708304D01*
X155927466Y-68803542D01*
X155879847Y-68851161D01*
X155784609Y-68898780D01*
X155594133Y-68898780D01*
X155498895Y-68851161D01*
X155451276Y-68803542D01*
X155403657Y-68708304D01*
X155403657Y-68470209D01*
X155451276Y-68374971D01*
X155498895Y-68327352D01*
X155594133Y-68279733D01*
X155784609Y-68279733D01*
X155879847Y-68327352D01*
X155927466Y-68374971D01*
X155975085Y-68470209D01*
X152034761Y-82859380D02*
X151796666Y-83859380D01*
X151606190Y-83145095D01*
X151415714Y-83859380D01*
X151177619Y-82859380D01*
X150891904Y-82859380D02*
X150225238Y-82859380D01*
X150653809Y-83859380D01*
X152034761Y-85399380D02*
X151796666Y-86399380D01*
X151606190Y-85685095D01*
X151415714Y-86399380D01*
X151177619Y-85399380D01*
X150653809Y-85827952D02*
X150749047Y-85780333D01*
X150796666Y-85732714D01*
X150844285Y-85637476D01*
X150844285Y-85589857D01*
X150796666Y-85494619D01*
X150749047Y-85447000D01*
X150653809Y-85399380D01*
X150463333Y-85399380D01*
X150368095Y-85447000D01*
X150320476Y-85494619D01*
X150272857Y-85589857D01*
X150272857Y-85637476D01*
X150320476Y-85732714D01*
X150368095Y-85780333D01*
X150463333Y-85827952D01*
X150653809Y-85827952D01*
X150749047Y-85875571D01*
X150796666Y-85923190D01*
X150844285Y-86018428D01*
X150844285Y-86208904D01*
X150796666Y-86304142D01*
X150749047Y-86351761D01*
X150653809Y-86399380D01*
X150463333Y-86399380D01*
X150368095Y-86351761D01*
X150320476Y-86304142D01*
X150272857Y-86208904D01*
X150272857Y-86018428D01*
X150320476Y-85923190D01*
X150368095Y-85875571D01*
X150463333Y-85827952D01*
X154981161Y-87456780D02*
X154743066Y-88456780D01*
X154552590Y-87742495D01*
X154362114Y-88456780D01*
X154124019Y-87456780D01*
X153695447Y-88456780D02*
X153504971Y-88456780D01*
X153409733Y-88409161D01*
X153362114Y-88361542D01*
X153266876Y-88218685D01*
X153219257Y-88028209D01*
X153219257Y-87647257D01*
X153266876Y-87552019D01*
X153314495Y-87504400D01*
X153409733Y-87456780D01*
X153600209Y-87456780D01*
X153695447Y-87504400D01*
X153743066Y-87552019D01*
X153790685Y-87647257D01*
X153790685Y-87885352D01*
X153743066Y-87980590D01*
X153695447Y-88028209D01*
X153600209Y-88075828D01*
X153409733Y-88075828D01*
X153314495Y-88028209D01*
X153266876Y-87980590D01*
X153219257Y-87885352D01*
X150224952Y-89844380D02*
X149986857Y-90844380D01*
X149796380Y-90130095D01*
X149605904Y-90844380D01*
X149367809Y-89844380D01*
X148463047Y-90844380D02*
X149034476Y-90844380D01*
X148748761Y-90844380D02*
X148748761Y-89844380D01*
X148844000Y-89987238D01*
X148939238Y-90082476D01*
X149034476Y-90130095D01*
X147844000Y-89844380D02*
X147748761Y-89844380D01*
X147653523Y-89892000D01*
X147605904Y-89939619D01*
X147558285Y-90034857D01*
X147510666Y-90225333D01*
X147510666Y-90463428D01*
X147558285Y-90653904D01*
X147605904Y-90749142D01*
X147653523Y-90796761D01*
X147748761Y-90844380D01*
X147844000Y-90844380D01*
X147939238Y-90796761D01*
X147986857Y-90749142D01*
X148034476Y-90653904D01*
X148082095Y-90463428D01*
X148082095Y-90225333D01*
X148034476Y-90034857D01*
X147986857Y-89939619D01*
X147939238Y-89892000D01*
X147844000Y-89844380D01*
X169908380Y-77025047D02*
X170908380Y-77263142D01*
X170194095Y-77453619D01*
X170908380Y-77644095D01*
X169908380Y-77882190D01*
X170908380Y-78786952D02*
X170908380Y-78215523D01*
X170908380Y-78501238D02*
X169908380Y-78501238D01*
X170051238Y-78406000D01*
X170146476Y-78310761D01*
X170194095Y-78215523D01*
X170908380Y-79739333D02*
X170908380Y-79167904D01*
X170908380Y-79453619D02*
X169908380Y-79453619D01*
X170051238Y-79358380D01*
X170146476Y-79263142D01*
X170194095Y-79167904D01*
X173664380Y-88408047D02*
X174664380Y-88646142D01*
X173950095Y-88836619D01*
X174664380Y-89027095D01*
X173664380Y-89265190D01*
X174664380Y-90169952D02*
X174664380Y-89598523D01*
X174664380Y-89884238D02*
X173664380Y-89884238D01*
X173807238Y-89789000D01*
X173902476Y-89693761D01*
X173950095Y-89598523D01*
X173759619Y-90550904D02*
X173712000Y-90598523D01*
X173664380Y-90693761D01*
X173664380Y-90931857D01*
X173712000Y-91027095D01*
X173759619Y-91074714D01*
X173854857Y-91122333D01*
X173950095Y-91122333D01*
X174092952Y-91074714D01*
X174664380Y-90503285D01*
X174664380Y-91122333D01*
M02*
