G04 #@! TF.FileFunction,Legend,Top*
%FSLAX46Y46*%
G04 Gerber Fmt 4.6, Leading zero omitted, Abs format (unit mm)*
G04 Created by KiCad (PCBNEW 4.0.5+dfsg1-4) date Wed Feb  8 17:01:35 2017*
%MOMM*%
%LPD*%
G01*
G04 APERTURE LIST*
%ADD10C,0.100000*%
%ADD11C,0.300000*%
%ADD12C,0.150000*%
%ADD13C,0.062500*%
G04 APERTURE END LIST*
D10*
D11*
X191705429Y-98200001D02*
X191705429Y-97485715D01*
X193205429Y-97485715D01*
X193205429Y-98485715D02*
X193205429Y-99342858D01*
X191705429Y-98914287D02*
X193205429Y-98914287D01*
X191848286Y-100700001D02*
X191776857Y-100628572D01*
X191705429Y-100414286D01*
X191705429Y-100271429D01*
X191776857Y-100057144D01*
X191919714Y-99914286D01*
X192062571Y-99842858D01*
X192348286Y-99771429D01*
X192562571Y-99771429D01*
X192848286Y-99842858D01*
X192991143Y-99914286D01*
X193134000Y-100057144D01*
X193205429Y-100271429D01*
X193205429Y-100414286D01*
X193134000Y-100628572D01*
X193062571Y-100700001D01*
X193205429Y-101200001D02*
X193205429Y-102128572D01*
X192634000Y-101628572D01*
X192634000Y-101842858D01*
X192562571Y-101985715D01*
X192491143Y-102057144D01*
X192348286Y-102128572D01*
X191991143Y-102128572D01*
X191848286Y-102057144D01*
X191776857Y-101985715D01*
X191705429Y-101842858D01*
X191705429Y-101414286D01*
X191776857Y-101271429D01*
X191848286Y-101200001D01*
X191848286Y-102771429D02*
X191776857Y-102842857D01*
X191705429Y-102771429D01*
X191776857Y-102700000D01*
X191848286Y-102771429D01*
X191705429Y-102771429D01*
X192634000Y-102771429D02*
X192562571Y-102842857D01*
X192491143Y-102771429D01*
X192562571Y-102700000D01*
X192634000Y-102771429D01*
X192491143Y-102771429D01*
X191848286Y-105485715D02*
X191776857Y-105414286D01*
X191705429Y-105200000D01*
X191705429Y-105057143D01*
X191776857Y-104842858D01*
X191919714Y-104700000D01*
X192062571Y-104628572D01*
X192348286Y-104557143D01*
X192562571Y-104557143D01*
X192848286Y-104628572D01*
X192991143Y-104700000D01*
X193134000Y-104842858D01*
X193205429Y-105057143D01*
X193205429Y-105200000D01*
X193134000Y-105414286D01*
X193062571Y-105485715D01*
X191776857Y-106700000D02*
X191705429Y-106557143D01*
X191705429Y-106271429D01*
X191776857Y-106128572D01*
X191919714Y-106057143D01*
X192491143Y-106057143D01*
X192634000Y-106128572D01*
X192705429Y-106271429D01*
X192705429Y-106557143D01*
X192634000Y-106700000D01*
X192491143Y-106771429D01*
X192348286Y-106771429D01*
X192205429Y-106057143D01*
X191705429Y-107628572D02*
X191776857Y-107485714D01*
X191919714Y-107414286D01*
X193205429Y-107414286D01*
X191705429Y-108414286D02*
X191776857Y-108271428D01*
X191919714Y-108200000D01*
X193205429Y-108200000D01*
X191705429Y-110128571D02*
X193205429Y-110128571D01*
X193205429Y-110699999D01*
X193134000Y-110842857D01*
X193062571Y-110914285D01*
X192919714Y-110985714D01*
X192705429Y-110985714D01*
X192562571Y-110914285D01*
X192491143Y-110842857D01*
X192419714Y-110699999D01*
X192419714Y-110128571D01*
X191705429Y-111628571D02*
X192705429Y-111628571D01*
X192419714Y-111628571D02*
X192562571Y-111699999D01*
X192634000Y-111771428D01*
X192705429Y-111914285D01*
X192705429Y-112057142D01*
X191705429Y-112771428D02*
X191776857Y-112628570D01*
X191848286Y-112557142D01*
X191991143Y-112485713D01*
X192419714Y-112485713D01*
X192562571Y-112557142D01*
X192634000Y-112628570D01*
X192705429Y-112771428D01*
X192705429Y-112985713D01*
X192634000Y-113128570D01*
X192562571Y-113199999D01*
X192419714Y-113271428D01*
X191991143Y-113271428D01*
X191848286Y-113199999D01*
X191776857Y-113128570D01*
X191705429Y-112985713D01*
X191705429Y-112771428D01*
X192705429Y-113699999D02*
X192705429Y-114271428D01*
X193205429Y-113914285D02*
X191919714Y-113914285D01*
X191776857Y-113985713D01*
X191705429Y-114128571D01*
X191705429Y-114271428D01*
X191776857Y-115342856D02*
X191705429Y-115199999D01*
X191705429Y-114914285D01*
X191776857Y-114771428D01*
X191919714Y-114699999D01*
X192491143Y-114699999D01*
X192634000Y-114771428D01*
X192705429Y-114914285D01*
X192705429Y-115199999D01*
X192634000Y-115342856D01*
X192491143Y-115414285D01*
X192348286Y-115414285D01*
X192205429Y-114699999D01*
X191776857Y-116699999D02*
X191705429Y-116557142D01*
X191705429Y-116271428D01*
X191776857Y-116128570D01*
X191848286Y-116057142D01*
X191991143Y-115985713D01*
X192419714Y-115985713D01*
X192562571Y-116057142D01*
X192634000Y-116128570D01*
X192705429Y-116271428D01*
X192705429Y-116557142D01*
X192634000Y-116699999D01*
X192705429Y-117128570D02*
X192705429Y-117699999D01*
X193205429Y-117342856D02*
X191919714Y-117342856D01*
X191776857Y-117414284D01*
X191705429Y-117557142D01*
X191705429Y-117699999D01*
X191705429Y-118199999D02*
X192705429Y-118199999D01*
X193205429Y-118199999D02*
X193134000Y-118128570D01*
X193062571Y-118199999D01*
X193134000Y-118271427D01*
X193205429Y-118199999D01*
X193062571Y-118199999D01*
X191705429Y-119128571D02*
X191776857Y-118985713D01*
X191848286Y-118914285D01*
X191991143Y-118842856D01*
X192419714Y-118842856D01*
X192562571Y-118914285D01*
X192634000Y-118985713D01*
X192705429Y-119128571D01*
X192705429Y-119342856D01*
X192634000Y-119485713D01*
X192562571Y-119557142D01*
X192419714Y-119628571D01*
X191991143Y-119628571D01*
X191848286Y-119557142D01*
X191776857Y-119485713D01*
X191705429Y-119342856D01*
X191705429Y-119128571D01*
X192705429Y-120271428D02*
X191705429Y-120271428D01*
X192562571Y-120271428D02*
X192634000Y-120342856D01*
X192705429Y-120485714D01*
X192705429Y-120699999D01*
X192634000Y-120842856D01*
X192491143Y-120914285D01*
X191705429Y-120914285D01*
X189155429Y-103057144D02*
X189155429Y-103342859D01*
X189226857Y-103485716D01*
X189298286Y-103557144D01*
X189512571Y-103700002D01*
X189798286Y-103771430D01*
X190369714Y-103771430D01*
X190512571Y-103700002D01*
X190584000Y-103628573D01*
X190655429Y-103485716D01*
X190655429Y-103200002D01*
X190584000Y-103057144D01*
X190512571Y-102985716D01*
X190369714Y-102914287D01*
X190012571Y-102914287D01*
X189869714Y-102985716D01*
X189798286Y-103057144D01*
X189726857Y-103200002D01*
X189726857Y-103485716D01*
X189798286Y-103628573D01*
X189869714Y-103700002D01*
X190012571Y-103771430D01*
X190726857Y-105485715D02*
X188798286Y-104200001D01*
X189155429Y-106771430D02*
X189155429Y-105914287D01*
X189155429Y-106342859D02*
X190655429Y-106342859D01*
X190441143Y-106200002D01*
X190298286Y-106057144D01*
X190226857Y-105914287D01*
X190512571Y-107342858D02*
X190584000Y-107414287D01*
X190655429Y-107557144D01*
X190655429Y-107914287D01*
X190584000Y-108057144D01*
X190512571Y-108128573D01*
X190369714Y-108200001D01*
X190226857Y-108200001D01*
X190012571Y-108128573D01*
X189155429Y-107271430D01*
X189155429Y-108200001D01*
X190726857Y-109914286D02*
X188798286Y-108628572D01*
X190512571Y-110342858D02*
X190584000Y-110414287D01*
X190655429Y-110557144D01*
X190655429Y-110914287D01*
X190584000Y-111057144D01*
X190512571Y-111128573D01*
X190369714Y-111200001D01*
X190226857Y-111200001D01*
X190012571Y-111128573D01*
X189155429Y-110271430D01*
X189155429Y-111200001D01*
X190655429Y-112128572D02*
X190655429Y-112271429D01*
X190584000Y-112414286D01*
X190512571Y-112485715D01*
X190369714Y-112557144D01*
X190084000Y-112628572D01*
X189726857Y-112628572D01*
X189441143Y-112557144D01*
X189298286Y-112485715D01*
X189226857Y-112414286D01*
X189155429Y-112271429D01*
X189155429Y-112128572D01*
X189226857Y-111985715D01*
X189298286Y-111914286D01*
X189441143Y-111842858D01*
X189726857Y-111771429D01*
X190084000Y-111771429D01*
X190369714Y-111842858D01*
X190512571Y-111914286D01*
X190584000Y-111985715D01*
X190655429Y-112128572D01*
X189155429Y-114057143D02*
X189155429Y-113200000D01*
X189155429Y-113628572D02*
X190655429Y-113628572D01*
X190441143Y-113485715D01*
X190298286Y-113342857D01*
X190226857Y-113200000D01*
X190655429Y-115342857D02*
X190655429Y-115057143D01*
X190584000Y-114914286D01*
X190512571Y-114842857D01*
X190298286Y-114700000D01*
X190012571Y-114628571D01*
X189441143Y-114628571D01*
X189298286Y-114700000D01*
X189226857Y-114771428D01*
X189155429Y-114914286D01*
X189155429Y-115200000D01*
X189226857Y-115342857D01*
X189298286Y-115414286D01*
X189441143Y-115485714D01*
X189798286Y-115485714D01*
X189941143Y-115414286D01*
X190012571Y-115342857D01*
X190084000Y-115200000D01*
X190084000Y-114914286D01*
X190012571Y-114771428D01*
X189941143Y-114700000D01*
X189798286Y-114628571D01*
X186605429Y-105735715D02*
X187319714Y-105235715D01*
X186605429Y-104878572D02*
X188105429Y-104878572D01*
X188105429Y-105450000D01*
X188034000Y-105592858D01*
X187962571Y-105664286D01*
X187819714Y-105735715D01*
X187605429Y-105735715D01*
X187462571Y-105664286D01*
X187391143Y-105592858D01*
X187319714Y-105450000D01*
X187319714Y-104878572D01*
X186676857Y-106950000D02*
X186605429Y-106807143D01*
X186605429Y-106521429D01*
X186676857Y-106378572D01*
X186819714Y-106307143D01*
X187391143Y-106307143D01*
X187534000Y-106378572D01*
X187605429Y-106521429D01*
X187605429Y-106807143D01*
X187534000Y-106950000D01*
X187391143Y-107021429D01*
X187248286Y-107021429D01*
X187105429Y-106307143D01*
X187605429Y-107521429D02*
X186605429Y-107878572D01*
X187605429Y-108235714D01*
X186748286Y-108807143D02*
X186676857Y-108878571D01*
X186605429Y-108807143D01*
X186676857Y-108735714D01*
X186748286Y-108807143D01*
X186605429Y-108807143D01*
X186605429Y-111450000D02*
X186605429Y-110592857D01*
X186605429Y-111021429D02*
X188105429Y-111021429D01*
X187891143Y-110878572D01*
X187748286Y-110735714D01*
X187676857Y-110592857D01*
X186748286Y-112092857D02*
X186676857Y-112164285D01*
X186605429Y-112092857D01*
X186676857Y-112021428D01*
X186748286Y-112092857D01*
X186605429Y-112092857D01*
X188105429Y-113092857D02*
X188105429Y-113235714D01*
X188034000Y-113378571D01*
X187962571Y-113450000D01*
X187819714Y-113521429D01*
X187534000Y-113592857D01*
X187176857Y-113592857D01*
X186891143Y-113521429D01*
X186748286Y-113450000D01*
X186676857Y-113378571D01*
X186605429Y-113235714D01*
X186605429Y-113092857D01*
X186676857Y-112950000D01*
X186748286Y-112878571D01*
X186891143Y-112807143D01*
X187176857Y-112735714D01*
X187534000Y-112735714D01*
X187819714Y-112807143D01*
X187962571Y-112878571D01*
X188034000Y-112950000D01*
X188105429Y-113092857D01*
D12*
X114949000Y-67730000D02*
X114949000Y-68930000D01*
X113199000Y-68930000D02*
X113199000Y-67730000D01*
X116247000Y-68930000D02*
X116247000Y-67730000D01*
X117997000Y-67730000D02*
X117997000Y-68930000D01*
X116247000Y-72486000D02*
X116247000Y-71286000D01*
X117997000Y-71286000D02*
X117997000Y-72486000D01*
X114949000Y-71286000D02*
X114949000Y-72486000D01*
X113199000Y-72486000D02*
X113199000Y-71286000D01*
X139946000Y-85764000D02*
X138946000Y-85764000D01*
X138946000Y-87464000D02*
X139946000Y-87464000D01*
X111768000Y-100926000D02*
X112768000Y-100926000D01*
X112768000Y-99226000D02*
X111768000Y-99226000D01*
X155868000Y-78732000D02*
X155868000Y-79732000D01*
X157568000Y-79732000D02*
X157568000Y-78732000D01*
X111768000Y-98132000D02*
X112768000Y-98132000D01*
X112768000Y-96432000D02*
X111768000Y-96432000D01*
X113118000Y-105402000D02*
X113118000Y-104402000D01*
X111418000Y-104402000D02*
X111418000Y-105402000D01*
X141312000Y-114292000D02*
X141312000Y-113292000D01*
X139612000Y-113292000D02*
X139612000Y-114292000D01*
X145384000Y-105150000D02*
X146384000Y-105150000D01*
X146384000Y-103450000D02*
X145384000Y-103450000D01*
X111244000Y-117260000D02*
X110244000Y-117260000D01*
X110244000Y-118960000D02*
X111244000Y-118960000D01*
X115308000Y-117260000D02*
X114308000Y-117260000D01*
X114308000Y-118960000D02*
X115308000Y-118960000D01*
X119372000Y-117260000D02*
X118372000Y-117260000D01*
X118372000Y-118960000D02*
X119372000Y-118960000D01*
X123436000Y-117260000D02*
X122436000Y-117260000D01*
X122436000Y-118960000D02*
X123436000Y-118960000D01*
X127500000Y-117260000D02*
X126500000Y-117260000D01*
X126500000Y-118960000D02*
X127500000Y-118960000D01*
X131564000Y-117260000D02*
X130564000Y-117260000D01*
X130564000Y-118960000D02*
X131564000Y-118960000D01*
X135628000Y-117260000D02*
X134628000Y-117260000D01*
X134628000Y-118960000D02*
X135628000Y-118960000D01*
X141136000Y-71636000D02*
X141136000Y-72636000D01*
X142836000Y-72636000D02*
X142836000Y-71636000D01*
X162587940Y-77194860D02*
X162938460Y-77194860D01*
X166088060Y-77194860D02*
X165737540Y-77194860D01*
X162587940Y-81244440D02*
X162938460Y-81244440D01*
X162587940Y-76743560D02*
X162938460Y-76743560D01*
X166088060Y-76743560D02*
X165737540Y-76743560D01*
X166088060Y-81244440D02*
X165737540Y-81244440D01*
X162587940Y-76743560D02*
X162587940Y-81244440D01*
X166088060Y-76743560D02*
X166088060Y-81244440D01*
X166088060Y-72632120D02*
X165737540Y-72632120D01*
X162587940Y-72632120D02*
X162938460Y-72632120D01*
X166088060Y-68582540D02*
X165737540Y-68582540D01*
X166088060Y-73083420D02*
X165737540Y-73083420D01*
X162587940Y-73083420D02*
X162938460Y-73083420D01*
X162587940Y-68582540D02*
X162938460Y-68582540D01*
X166088060Y-73083420D02*
X166088060Y-68582540D01*
X162587940Y-73083420D02*
X162587940Y-68582540D01*
X143709840Y-102842060D02*
X143709840Y-102491540D01*
X143709840Y-99341940D02*
X143709840Y-99692460D01*
X147759420Y-102842060D02*
X147759420Y-102491540D01*
X143258540Y-102842060D02*
X143258540Y-102491540D01*
X143258540Y-99341940D02*
X143258540Y-99692460D01*
X147759420Y-99341940D02*
X147759420Y-99692460D01*
X143258540Y-102842060D02*
X147759420Y-102842060D01*
X143258540Y-99341940D02*
X147759420Y-99341940D01*
X139500160Y-99341940D02*
X139500160Y-99692460D01*
X139500160Y-102842060D02*
X139500160Y-102491540D01*
X135450580Y-99341940D02*
X135450580Y-99692460D01*
X139951460Y-99341940D02*
X139951460Y-99692460D01*
X139951460Y-102842060D02*
X139951460Y-102491540D01*
X135450580Y-102842060D02*
X135450580Y-102491540D01*
X139951460Y-99341940D02*
X135450580Y-99341940D01*
X139951460Y-102842060D02*
X135450580Y-102842060D01*
X161544000Y-123190000D02*
X181356000Y-123190000D01*
X161544000Y-129921000D02*
X161544000Y-123190000D01*
X181356000Y-129921000D02*
X161544000Y-129921000D01*
X181356000Y-123190000D02*
X181356000Y-129921000D01*
X137200000Y-95214500D02*
X137200000Y-95514500D01*
X137200000Y-95514500D02*
X142200000Y-95514500D01*
X142200000Y-95514500D02*
X142200000Y-95214500D01*
X137200000Y-92214500D02*
X137200000Y-91214500D01*
X137200000Y-91214500D02*
X138400000Y-91214500D01*
X142200000Y-92214500D02*
X142200000Y-91214500D01*
X142200000Y-91214500D02*
X141000000Y-91214500D01*
X138300000Y-90414500D02*
X137800000Y-90164500D01*
X137800000Y-90164500D02*
X137800000Y-90664500D01*
X137800000Y-90664500D02*
X138300000Y-90414500D01*
X110744000Y-88138000D02*
X110744000Y-85598000D01*
X110464000Y-90958000D02*
X110464000Y-89408000D01*
X110744000Y-88138000D02*
X113284000Y-88138000D01*
X113564000Y-89408000D02*
X113564000Y-90958000D01*
X113564000Y-90958000D02*
X110464000Y-90958000D01*
X113284000Y-88138000D02*
X113284000Y-85598000D01*
X113284000Y-85598000D02*
X110744000Y-85598000D01*
X114798000Y-124296000D02*
X114798000Y-130246000D01*
X114798000Y-130246000D02*
X137398000Y-130246000D01*
X137398000Y-130246000D02*
X137398000Y-124296000D01*
X137398000Y-124296000D02*
X114798000Y-124296000D01*
X118098000Y-124296000D02*
X118098000Y-125046000D01*
X118098000Y-125046000D02*
X134098000Y-125046000D01*
X134098000Y-125046000D02*
X134098000Y-124296000D01*
X134098000Y-124296000D02*
X118098000Y-124296000D01*
X114798000Y-124296000D02*
X114798000Y-125046000D01*
X114798000Y-125046000D02*
X116598000Y-125046000D01*
X116598000Y-125046000D02*
X116598000Y-124296000D01*
X116598000Y-124296000D02*
X114798000Y-124296000D01*
X135598000Y-124296000D02*
X135598000Y-125046000D01*
X135598000Y-125046000D02*
X137398000Y-125046000D01*
X137398000Y-125046000D02*
X137398000Y-124296000D01*
X137398000Y-124296000D02*
X135598000Y-124296000D01*
X114798000Y-126546000D02*
X115548000Y-126546000D01*
X115548000Y-126546000D02*
X115548000Y-129496000D01*
X115548000Y-129496000D02*
X126098000Y-129496000D01*
X137398000Y-126546000D02*
X136648000Y-126546000D01*
X136648000Y-126546000D02*
X136648000Y-129496000D01*
X136648000Y-129496000D02*
X126098000Y-129496000D01*
X117348000Y-123996000D02*
X117048000Y-123396000D01*
X117048000Y-123396000D02*
X117648000Y-123396000D01*
X117648000Y-123396000D02*
X117348000Y-123996000D01*
X177078000Y-85932000D02*
X177078000Y-87182000D01*
X177078000Y-85932000D02*
X175578000Y-85932000D01*
X177078000Y-95932000D02*
X175578000Y-95932000D01*
X177078000Y-95932000D02*
X177078000Y-94682000D01*
X157774000Y-85932000D02*
X157774000Y-87182000D01*
X157774000Y-85932000D02*
X156274000Y-85932000D01*
X157774000Y-95932000D02*
X156274000Y-95932000D01*
X157774000Y-95932000D02*
X157774000Y-94682000D01*
X187579000Y-96139000D02*
G75*
G03X187579000Y-96139000I-127000J0D01*
G01*
X188087000Y-96774000D02*
X188087000Y-91694000D01*
X184785000Y-96774000D02*
X184785000Y-91694000D01*
X188595000Y-96774000D02*
X188595000Y-91694000D01*
X188595000Y-96774000D02*
X184785000Y-96774000D01*
X188595000Y-91694000D02*
X184785000Y-91694000D01*
X184578000Y-110276000D02*
X183328000Y-110276000D01*
X184578000Y-110276000D02*
X184578000Y-108776000D01*
X174578000Y-110276000D02*
X174578000Y-108776000D01*
X174578000Y-110276000D02*
X175828000Y-110276000D01*
X155274000Y-103592000D02*
X156524000Y-103592000D01*
X155274000Y-103592000D02*
X155274000Y-105092000D01*
X165274000Y-103592000D02*
X165274000Y-105092000D01*
X165274000Y-103592000D02*
X164024000Y-103592000D01*
X149211000Y-78582000D02*
X149211000Y-79782000D01*
X147461000Y-79782000D02*
X147461000Y-78582000D01*
X154799000Y-78648000D02*
X154799000Y-79848000D01*
X153049000Y-79848000D02*
X153049000Y-78648000D01*
X154799000Y-74076000D02*
X154799000Y-75276000D01*
X153049000Y-75276000D02*
X153049000Y-74076000D01*
X135220000Y-87489000D02*
X134020000Y-87489000D01*
X134020000Y-85739000D02*
X135220000Y-85739000D01*
X140046000Y-83933000D02*
X138846000Y-83933000D01*
X138846000Y-82183000D02*
X140046000Y-82183000D01*
X160895000Y-78648000D02*
X160895000Y-79848000D01*
X159145000Y-79848000D02*
X159145000Y-78648000D01*
X155102000Y-67451000D02*
X156302000Y-67451000D01*
X156302000Y-69201000D02*
X155102000Y-69201000D01*
X183480000Y-84441000D02*
X182280000Y-84441000D01*
X182280000Y-82691000D02*
X183480000Y-82691000D01*
X139587000Y-118202000D02*
X139587000Y-117002000D01*
X141337000Y-117002000D02*
X141337000Y-118202000D01*
X143143000Y-118202000D02*
X143143000Y-117002000D01*
X144893000Y-117002000D02*
X144893000Y-118202000D01*
X145284000Y-105675000D02*
X146484000Y-105675000D01*
X146484000Y-107425000D02*
X145284000Y-107425000D01*
X138334000Y-105525000D02*
X139534000Y-105525000D01*
X139534000Y-107275000D02*
X138334000Y-107275000D01*
X109587000Y-113700000D02*
X109587000Y-114900000D01*
X107837000Y-114900000D02*
X107837000Y-113700000D01*
X113651000Y-113700000D02*
X113651000Y-114900000D01*
X111901000Y-114900000D02*
X111901000Y-113700000D01*
X117715000Y-113700000D02*
X117715000Y-114900000D01*
X115965000Y-114900000D02*
X115965000Y-113700000D01*
X121779000Y-113700000D02*
X121779000Y-114900000D01*
X120029000Y-114900000D02*
X120029000Y-113700000D01*
X125843000Y-113700000D02*
X125843000Y-114900000D01*
X124093000Y-114900000D02*
X124093000Y-113700000D01*
X129907000Y-113700000D02*
X129907000Y-114900000D01*
X128157000Y-114900000D02*
X128157000Y-113700000D01*
X133971000Y-113700000D02*
X133971000Y-114900000D01*
X132221000Y-114900000D02*
X132221000Y-113700000D01*
X138035000Y-113700000D02*
X138035000Y-114900000D01*
X136285000Y-114900000D02*
X136285000Y-113700000D01*
X145196000Y-109361000D02*
X146396000Y-109361000D01*
X146396000Y-111111000D02*
X145196000Y-111111000D01*
X140067000Y-71536000D02*
X140067000Y-72736000D01*
X138317000Y-72736000D02*
X138317000Y-71536000D01*
X116173000Y-93661000D02*
X115823000Y-94136000D01*
X115823000Y-94136000D02*
X115823000Y-100936000D01*
X115823000Y-100936000D02*
X116173000Y-101386000D01*
X131223000Y-93661000D02*
X131573000Y-94136000D01*
X131573000Y-94136000D02*
X131573000Y-100936000D01*
X131573000Y-100936000D02*
X131223000Y-101411000D01*
X132274254Y-69756000D02*
G75*
G03X132274254Y-69756000I-228254J0D01*
G01*
D10*
X134598500Y-69363500D02*
X134598500Y-72363500D01*
X134598500Y-72363500D02*
X131598500Y-72363500D01*
X131598500Y-72363500D02*
X131598500Y-69363500D01*
X131598500Y-69363500D02*
X134598500Y-69363500D01*
D12*
X107420000Y-80126000D02*
X111020000Y-80126000D01*
X111020000Y-80126000D02*
X111520000Y-80626000D01*
X111520000Y-80626000D02*
X111520000Y-81426000D01*
X111520000Y-81426000D02*
X111020000Y-81926000D01*
X111020000Y-81926000D02*
X107420000Y-81926000D01*
X107420000Y-81926000D02*
X106920000Y-81426000D01*
X106920000Y-81426000D02*
X106920000Y-80626000D01*
X106920000Y-80626000D02*
X107420000Y-80126000D01*
X107420000Y-82666000D02*
X111020000Y-82666000D01*
X111020000Y-82666000D02*
X111520000Y-83166000D01*
X111520000Y-83166000D02*
X111520000Y-83966000D01*
X111520000Y-83966000D02*
X111020000Y-84466000D01*
X111020000Y-84466000D02*
X107420000Y-84466000D01*
X107420000Y-84466000D02*
X106920000Y-83966000D01*
X106920000Y-83966000D02*
X106920000Y-83166000D01*
X106920000Y-83166000D02*
X107420000Y-82666000D01*
X112638000Y-84096000D02*
X112638000Y-80496000D01*
X112638000Y-80496000D02*
X113138000Y-79996000D01*
X113138000Y-79996000D02*
X113938000Y-79996000D01*
X113938000Y-79996000D02*
X114438000Y-80496000D01*
X114438000Y-80496000D02*
X114438000Y-84096000D01*
X114438000Y-84096000D02*
X113938000Y-84596000D01*
X113938000Y-84596000D02*
X113138000Y-84596000D01*
X113138000Y-84596000D02*
X112638000Y-84096000D01*
X128254000Y-79551000D02*
X126254000Y-79551000D01*
X126254000Y-82501000D02*
X128254000Y-82501000D01*
X148131000Y-73398000D02*
X148131000Y-75398000D01*
X151081000Y-75398000D02*
X151081000Y-73398000D01*
X125206000Y-83107000D02*
X123206000Y-83107000D01*
X123206000Y-86057000D02*
X125206000Y-86057000D01*
X140734000Y-111175000D02*
X142734000Y-111175000D01*
X142734000Y-108225000D02*
X140734000Y-108225000D01*
X143240000Y-121979000D02*
X141240000Y-121979000D01*
X141240000Y-119829000D02*
X143240000Y-119829000D01*
X174334000Y-80525000D02*
X169134000Y-80525000D01*
X169134000Y-76875000D02*
X174334000Y-76875000D01*
X107536000Y-74654000D02*
X107536000Y-78854000D01*
X107536000Y-78854000D02*
X120436000Y-78854000D01*
X120436000Y-78854000D02*
X120436000Y-74654000D01*
X120436000Y-74654000D02*
X107536000Y-74654000D01*
X107536000Y-76454000D02*
X108036000Y-76454000D01*
X108036000Y-76454000D02*
X108036000Y-75154000D01*
X108036000Y-75154000D02*
X119936000Y-75154000D01*
X119936000Y-75154000D02*
X119936000Y-76454000D01*
X119936000Y-76454000D02*
X120436000Y-76454000D01*
X107536000Y-77354000D02*
X108536000Y-77354000D01*
X108536000Y-77354000D02*
X108536000Y-78854000D01*
X120436000Y-77354000D02*
X119436000Y-77354000D01*
X119436000Y-77354000D02*
X119436000Y-78854000D01*
X110236000Y-79204000D02*
X109936000Y-79804000D01*
X109936000Y-79804000D02*
X110536000Y-79804000D01*
X110536000Y-79804000D02*
X110236000Y-79204000D01*
X151684000Y-79750000D02*
X151684000Y-78200000D01*
X150484000Y-79750000D02*
X150484000Y-78200000D01*
X146134000Y-112350000D02*
X144584000Y-112350000D01*
X146134000Y-113550000D02*
X144584000Y-113550000D01*
X120134000Y-68400000D02*
X120134000Y-72600000D01*
X120134000Y-72600000D02*
X128034000Y-72600000D01*
X128034000Y-72600000D02*
X128034000Y-68400000D01*
X128034000Y-68400000D02*
X120134000Y-68400000D01*
X120134000Y-70200000D02*
X120634000Y-70200000D01*
X120634000Y-70200000D02*
X120634000Y-68900000D01*
X120634000Y-68900000D02*
X127534000Y-68900000D01*
X127534000Y-68900000D02*
X127534000Y-70200000D01*
X127534000Y-70200000D02*
X128034000Y-70200000D01*
X120134000Y-71100000D02*
X121134000Y-71100000D01*
X121134000Y-71100000D02*
X121134000Y-72600000D01*
X128034000Y-71100000D02*
X127034000Y-71100000D01*
X127034000Y-71100000D02*
X127034000Y-72600000D01*
X122834000Y-72950000D02*
X122534000Y-73550000D01*
X122534000Y-73550000D02*
X123134000Y-73550000D01*
X123134000Y-73550000D02*
X122834000Y-72950000D01*
X166784000Y-67550000D02*
X166784000Y-75300000D01*
X178384000Y-67550000D02*
X178384000Y-75300000D01*
X166784000Y-67550000D02*
X178384000Y-67550000D01*
X166784000Y-75300000D02*
X178384000Y-75300000D01*
X186734000Y-68900000D02*
X178984000Y-68900000D01*
X186734000Y-80500000D02*
X178984000Y-80500000D01*
X186734000Y-68900000D02*
X186734000Y-80500000D01*
X178984000Y-68900000D02*
X178984000Y-80500000D01*
X149034000Y-123050000D02*
X149034000Y-130800000D01*
X160634000Y-123050000D02*
X160634000Y-130800000D01*
X149034000Y-123050000D02*
X160634000Y-123050000D01*
X149034000Y-130800000D02*
X160634000Y-130800000D01*
X113657143Y-66238381D02*
X113323809Y-65762190D01*
X113085714Y-66238381D02*
X113085714Y-65238381D01*
X113466667Y-65238381D01*
X113561905Y-65286000D01*
X113609524Y-65333619D01*
X113657143Y-65428857D01*
X113657143Y-65571714D01*
X113609524Y-65666952D01*
X113561905Y-65714571D01*
X113466667Y-65762190D01*
X113085714Y-65762190D01*
X114038095Y-65333619D02*
X114085714Y-65286000D01*
X114180952Y-65238381D01*
X114419048Y-65238381D01*
X114514286Y-65286000D01*
X114561905Y-65333619D01*
X114609524Y-65428857D01*
X114609524Y-65524095D01*
X114561905Y-65666952D01*
X113990476Y-66238381D01*
X114609524Y-66238381D01*
X114942857Y-65238381D02*
X115609524Y-65238381D01*
X115180952Y-66238381D01*
X119674381Y-68972857D02*
X119198190Y-69306191D01*
X119674381Y-69544286D02*
X118674381Y-69544286D01*
X118674381Y-69163333D01*
X118722000Y-69068095D01*
X118769619Y-69020476D01*
X118864857Y-68972857D01*
X119007714Y-68972857D01*
X119102952Y-69020476D01*
X119150571Y-69068095D01*
X119198190Y-69163333D01*
X119198190Y-69544286D01*
X118769619Y-68591905D02*
X118722000Y-68544286D01*
X118674381Y-68449048D01*
X118674381Y-68210952D01*
X118722000Y-68115714D01*
X118769619Y-68068095D01*
X118864857Y-68020476D01*
X118960095Y-68020476D01*
X119102952Y-68068095D01*
X119674381Y-68639524D01*
X119674381Y-68020476D01*
X118674381Y-67115714D02*
X118674381Y-67591905D01*
X119150571Y-67639524D01*
X119102952Y-67591905D01*
X119055333Y-67496667D01*
X119055333Y-67258571D01*
X119102952Y-67163333D01*
X119150571Y-67115714D01*
X119245810Y-67068095D01*
X119483905Y-67068095D01*
X119579143Y-67115714D01*
X119626762Y-67163333D01*
X119674381Y-67258571D01*
X119674381Y-67496667D01*
X119626762Y-67591905D01*
X119579143Y-67639524D01*
X119674381Y-72528857D02*
X119198190Y-72862191D01*
X119674381Y-73100286D02*
X118674381Y-73100286D01*
X118674381Y-72719333D01*
X118722000Y-72624095D01*
X118769619Y-72576476D01*
X118864857Y-72528857D01*
X119007714Y-72528857D01*
X119102952Y-72576476D01*
X119150571Y-72624095D01*
X119198190Y-72719333D01*
X119198190Y-73100286D01*
X118769619Y-72147905D02*
X118722000Y-72100286D01*
X118674381Y-72005048D01*
X118674381Y-71766952D01*
X118722000Y-71671714D01*
X118769619Y-71624095D01*
X118864857Y-71576476D01*
X118960095Y-71576476D01*
X119102952Y-71624095D01*
X119674381Y-72195524D01*
X119674381Y-71576476D01*
X119102952Y-71005048D02*
X119055333Y-71100286D01*
X119007714Y-71147905D01*
X118912476Y-71195524D01*
X118864857Y-71195524D01*
X118769619Y-71147905D01*
X118722000Y-71100286D01*
X118674381Y-71005048D01*
X118674381Y-70814571D01*
X118722000Y-70719333D01*
X118769619Y-70671714D01*
X118864857Y-70624095D01*
X118912476Y-70624095D01*
X119007714Y-70671714D01*
X119055333Y-70719333D01*
X119102952Y-70814571D01*
X119102952Y-71005048D01*
X119150571Y-71100286D01*
X119198190Y-71147905D01*
X119293429Y-71195524D01*
X119483905Y-71195524D01*
X119579143Y-71147905D01*
X119626762Y-71100286D01*
X119674381Y-71005048D01*
X119674381Y-70814571D01*
X119626762Y-70719333D01*
X119579143Y-70671714D01*
X119483905Y-70624095D01*
X119293429Y-70624095D01*
X119198190Y-70671714D01*
X119150571Y-70719333D01*
X119102952Y-70814571D01*
X112720381Y-72528857D02*
X112244190Y-72862191D01*
X112720381Y-73100286D02*
X111720381Y-73100286D01*
X111720381Y-72719333D01*
X111768000Y-72624095D01*
X111815619Y-72576476D01*
X111910857Y-72528857D01*
X112053714Y-72528857D01*
X112148952Y-72576476D01*
X112196571Y-72624095D01*
X112244190Y-72719333D01*
X112244190Y-73100286D01*
X111815619Y-72147905D02*
X111768000Y-72100286D01*
X111720381Y-72005048D01*
X111720381Y-71766952D01*
X111768000Y-71671714D01*
X111815619Y-71624095D01*
X111910857Y-71576476D01*
X112006095Y-71576476D01*
X112148952Y-71624095D01*
X112720381Y-72195524D01*
X112720381Y-71576476D01*
X111720381Y-70719333D02*
X111720381Y-70909810D01*
X111768000Y-71005048D01*
X111815619Y-71052667D01*
X111958476Y-71147905D01*
X112148952Y-71195524D01*
X112529905Y-71195524D01*
X112625143Y-71147905D01*
X112672762Y-71100286D01*
X112720381Y-71005048D01*
X112720381Y-70814571D01*
X112672762Y-70719333D01*
X112625143Y-70671714D01*
X112529905Y-70624095D01*
X112291810Y-70624095D01*
X112196571Y-70671714D01*
X112148952Y-70719333D01*
X112101333Y-70814571D01*
X112101333Y-71005048D01*
X112148952Y-71100286D01*
X112196571Y-71147905D01*
X112291810Y-71195524D01*
X189719714Y-74752381D02*
X189719714Y-73752381D01*
X190053048Y-74466667D01*
X190386381Y-73752381D01*
X190386381Y-74752381D01*
X190719714Y-73752381D02*
X191291143Y-73752381D01*
X191005428Y-74752381D02*
X191005428Y-73752381D01*
X192148286Y-73800000D02*
X192053048Y-73752381D01*
X191910191Y-73752381D01*
X191767333Y-73800000D01*
X191672095Y-73895238D01*
X191624476Y-73990476D01*
X191576857Y-74180952D01*
X191576857Y-74323810D01*
X191624476Y-74514286D01*
X191672095Y-74609524D01*
X191767333Y-74704762D01*
X191910191Y-74752381D01*
X192005429Y-74752381D01*
X192148286Y-74704762D01*
X192195905Y-74657143D01*
X192195905Y-74323810D01*
X192005429Y-74323810D01*
X107497714Y-124531381D02*
X107497714Y-123531381D01*
X107831048Y-124245667D01*
X108164381Y-123531381D01*
X108164381Y-124531381D01*
X108497714Y-123531381D02*
X109069143Y-123531381D01*
X108783428Y-124531381D02*
X108783428Y-123531381D01*
X109926286Y-123579000D02*
X109831048Y-123531381D01*
X109688191Y-123531381D01*
X109545333Y-123579000D01*
X109450095Y-123674238D01*
X109402476Y-123769476D01*
X109354857Y-123959952D01*
X109354857Y-124102810D01*
X109402476Y-124293286D01*
X109450095Y-124388524D01*
X109545333Y-124483762D01*
X109688191Y-124531381D01*
X109783429Y-124531381D01*
X109926286Y-124483762D01*
X109973905Y-124436143D01*
X109973905Y-124102810D01*
X109783429Y-124102810D01*
X139279334Y-84871143D02*
X139231715Y-84918762D01*
X139088858Y-84966381D01*
X138993620Y-84966381D01*
X138850762Y-84918762D01*
X138755524Y-84823524D01*
X138707905Y-84728286D01*
X138660286Y-84537810D01*
X138660286Y-84394952D01*
X138707905Y-84204476D01*
X138755524Y-84109238D01*
X138850762Y-84014000D01*
X138993620Y-83966381D01*
X139088858Y-83966381D01*
X139231715Y-84014000D01*
X139279334Y-84061619D01*
X140136477Y-84299714D02*
X140136477Y-84966381D01*
X139898381Y-83918762D02*
X139660286Y-84633048D01*
X140279334Y-84633048D01*
X109320034Y-100420443D02*
X109272415Y-100468062D01*
X109129558Y-100515681D01*
X109034320Y-100515681D01*
X108891462Y-100468062D01*
X108796224Y-100372824D01*
X108748605Y-100277586D01*
X108700986Y-100087110D01*
X108700986Y-99944252D01*
X108748605Y-99753776D01*
X108796224Y-99658538D01*
X108891462Y-99563300D01*
X109034320Y-99515681D01*
X109129558Y-99515681D01*
X109272415Y-99563300D01*
X109320034Y-99610919D01*
X110224796Y-99515681D02*
X109748605Y-99515681D01*
X109700986Y-99991871D01*
X109748605Y-99944252D01*
X109843843Y-99896633D01*
X110081939Y-99896633D01*
X110177177Y-99944252D01*
X110224796Y-99991871D01*
X110272415Y-100087110D01*
X110272415Y-100325205D01*
X110224796Y-100420443D01*
X110177177Y-100468062D01*
X110081939Y-100515681D01*
X109843843Y-100515681D01*
X109748605Y-100468062D01*
X109700986Y-100420443D01*
X156525934Y-82145143D02*
X156478315Y-82192762D01*
X156335458Y-82240381D01*
X156240220Y-82240381D01*
X156097362Y-82192762D01*
X156002124Y-82097524D01*
X155954505Y-82002286D01*
X155906886Y-81811810D01*
X155906886Y-81668952D01*
X155954505Y-81478476D01*
X156002124Y-81383238D01*
X156097362Y-81288000D01*
X156240220Y-81240381D01*
X156335458Y-81240381D01*
X156478315Y-81288000D01*
X156525934Y-81335619D01*
X157383077Y-81240381D02*
X157192600Y-81240381D01*
X157097362Y-81288000D01*
X157049743Y-81335619D01*
X156954505Y-81478476D01*
X156906886Y-81668952D01*
X156906886Y-82049905D01*
X156954505Y-82145143D01*
X157002124Y-82192762D01*
X157097362Y-82240381D01*
X157287839Y-82240381D01*
X157383077Y-82192762D01*
X157430696Y-82145143D01*
X157478315Y-82049905D01*
X157478315Y-81811810D01*
X157430696Y-81716571D01*
X157383077Y-81668952D01*
X157287839Y-81621333D01*
X157097362Y-81621333D01*
X157002124Y-81668952D01*
X156954505Y-81716571D01*
X156906886Y-81811810D01*
X109269234Y-97677243D02*
X109221615Y-97724862D01*
X109078758Y-97772481D01*
X108983520Y-97772481D01*
X108840662Y-97724862D01*
X108745424Y-97629624D01*
X108697805Y-97534386D01*
X108650186Y-97343910D01*
X108650186Y-97201052D01*
X108697805Y-97010576D01*
X108745424Y-96915338D01*
X108840662Y-96820100D01*
X108983520Y-96772481D01*
X109078758Y-96772481D01*
X109221615Y-96820100D01*
X109269234Y-96867719D01*
X109602567Y-96772481D02*
X110269234Y-96772481D01*
X109840662Y-97772481D01*
X114725143Y-105068666D02*
X114772762Y-105116285D01*
X114820381Y-105259142D01*
X114820381Y-105354380D01*
X114772762Y-105497238D01*
X114677524Y-105592476D01*
X114582286Y-105640095D01*
X114391810Y-105687714D01*
X114248952Y-105687714D01*
X114058476Y-105640095D01*
X113963238Y-105592476D01*
X113868000Y-105497238D01*
X113820381Y-105354380D01*
X113820381Y-105259142D01*
X113868000Y-105116285D01*
X113915619Y-105068666D01*
X114248952Y-104497238D02*
X114201333Y-104592476D01*
X114153714Y-104640095D01*
X114058476Y-104687714D01*
X114010857Y-104687714D01*
X113915619Y-104640095D01*
X113868000Y-104592476D01*
X113820381Y-104497238D01*
X113820381Y-104306761D01*
X113868000Y-104211523D01*
X113915619Y-104163904D01*
X114010857Y-104116285D01*
X114058476Y-104116285D01*
X114153714Y-104163904D01*
X114201333Y-104211523D01*
X114248952Y-104306761D01*
X114248952Y-104497238D01*
X114296571Y-104592476D01*
X114344190Y-104640095D01*
X114439429Y-104687714D01*
X114629905Y-104687714D01*
X114725143Y-104640095D01*
X114772762Y-104592476D01*
X114820381Y-104497238D01*
X114820381Y-104306761D01*
X114772762Y-104211523D01*
X114725143Y-104163904D01*
X114629905Y-104116285D01*
X114439429Y-104116285D01*
X114344190Y-104163904D01*
X114296571Y-104211523D01*
X114248952Y-104306761D01*
X142546343Y-113920566D02*
X142593962Y-113968185D01*
X142641581Y-114111042D01*
X142641581Y-114206280D01*
X142593962Y-114349138D01*
X142498724Y-114444376D01*
X142403486Y-114491995D01*
X142213010Y-114539614D01*
X142070152Y-114539614D01*
X141879676Y-114491995D01*
X141784438Y-114444376D01*
X141689200Y-114349138D01*
X141641581Y-114206280D01*
X141641581Y-114111042D01*
X141689200Y-113968185D01*
X141736819Y-113920566D01*
X142641581Y-113444376D02*
X142641581Y-113253900D01*
X142593962Y-113158661D01*
X142546343Y-113111042D01*
X142403486Y-113015804D01*
X142213010Y-112968185D01*
X141832057Y-112968185D01*
X141736819Y-113015804D01*
X141689200Y-113063423D01*
X141641581Y-113158661D01*
X141641581Y-113349138D01*
X141689200Y-113444376D01*
X141736819Y-113491995D01*
X141832057Y-113539614D01*
X142070152Y-113539614D01*
X142165390Y-113491995D01*
X142213010Y-113444376D01*
X142260629Y-113349138D01*
X142260629Y-113158661D01*
X142213010Y-113063423D01*
X142165390Y-113015804D01*
X142070152Y-112968185D01*
X148749643Y-104555543D02*
X148702024Y-104603162D01*
X148559167Y-104650781D01*
X148463929Y-104650781D01*
X148321071Y-104603162D01*
X148225833Y-104507924D01*
X148178214Y-104412686D01*
X148130595Y-104222210D01*
X148130595Y-104079352D01*
X148178214Y-103888876D01*
X148225833Y-103793638D01*
X148321071Y-103698400D01*
X148463929Y-103650781D01*
X148559167Y-103650781D01*
X148702024Y-103698400D01*
X148749643Y-103746019D01*
X149702024Y-104650781D02*
X149130595Y-104650781D01*
X149416309Y-104650781D02*
X149416309Y-103650781D01*
X149321071Y-103793638D01*
X149225833Y-103888876D01*
X149130595Y-103936495D01*
X150321071Y-103650781D02*
X150416310Y-103650781D01*
X150511548Y-103698400D01*
X150559167Y-103746019D01*
X150606786Y-103841257D01*
X150654405Y-104031733D01*
X150654405Y-104269829D01*
X150606786Y-104460305D01*
X150559167Y-104555543D01*
X150511548Y-104603162D01*
X150416310Y-104650781D01*
X150321071Y-104650781D01*
X150225833Y-104603162D01*
X150178214Y-104555543D01*
X150130595Y-104460305D01*
X150082976Y-104269829D01*
X150082976Y-104031733D01*
X150130595Y-103841257D01*
X150178214Y-103746019D01*
X150225833Y-103698400D01*
X150321071Y-103650781D01*
X110266243Y-120448343D02*
X110218624Y-120495962D01*
X110075767Y-120543581D01*
X109980529Y-120543581D01*
X109837671Y-120495962D01*
X109742433Y-120400724D01*
X109694814Y-120305486D01*
X109647195Y-120115010D01*
X109647195Y-119972152D01*
X109694814Y-119781676D01*
X109742433Y-119686438D01*
X109837671Y-119591200D01*
X109980529Y-119543581D01*
X110075767Y-119543581D01*
X110218624Y-119591200D01*
X110266243Y-119638819D01*
X111218624Y-120543581D02*
X110647195Y-120543581D01*
X110932909Y-120543581D02*
X110932909Y-119543581D01*
X110837671Y-119686438D01*
X110742433Y-119781676D01*
X110647195Y-119829295D01*
X112171005Y-120543581D02*
X111599576Y-120543581D01*
X111885290Y-120543581D02*
X111885290Y-119543581D01*
X111790052Y-119686438D01*
X111694814Y-119781676D01*
X111599576Y-119829295D01*
X114165143Y-120511843D02*
X114117524Y-120559462D01*
X113974667Y-120607081D01*
X113879429Y-120607081D01*
X113736571Y-120559462D01*
X113641333Y-120464224D01*
X113593714Y-120368986D01*
X113546095Y-120178510D01*
X113546095Y-120035652D01*
X113593714Y-119845176D01*
X113641333Y-119749938D01*
X113736571Y-119654700D01*
X113879429Y-119607081D01*
X113974667Y-119607081D01*
X114117524Y-119654700D01*
X114165143Y-119702319D01*
X115117524Y-120607081D02*
X114546095Y-120607081D01*
X114831809Y-120607081D02*
X114831809Y-119607081D01*
X114736571Y-119749938D01*
X114641333Y-119845176D01*
X114546095Y-119892795D01*
X115498476Y-119702319D02*
X115546095Y-119654700D01*
X115641333Y-119607081D01*
X115879429Y-119607081D01*
X115974667Y-119654700D01*
X116022286Y-119702319D01*
X116069905Y-119797557D01*
X116069905Y-119892795D01*
X116022286Y-120035652D01*
X115450857Y-120607081D01*
X116069905Y-120607081D01*
X118229143Y-120613443D02*
X118181524Y-120661062D01*
X118038667Y-120708681D01*
X117943429Y-120708681D01*
X117800571Y-120661062D01*
X117705333Y-120565824D01*
X117657714Y-120470586D01*
X117610095Y-120280110D01*
X117610095Y-120137252D01*
X117657714Y-119946776D01*
X117705333Y-119851538D01*
X117800571Y-119756300D01*
X117943429Y-119708681D01*
X118038667Y-119708681D01*
X118181524Y-119756300D01*
X118229143Y-119803919D01*
X119181524Y-120708681D02*
X118610095Y-120708681D01*
X118895809Y-120708681D02*
X118895809Y-119708681D01*
X118800571Y-119851538D01*
X118705333Y-119946776D01*
X118610095Y-119994395D01*
X119514857Y-119708681D02*
X120133905Y-119708681D01*
X119800571Y-120089633D01*
X119943429Y-120089633D01*
X120038667Y-120137252D01*
X120086286Y-120184871D01*
X120133905Y-120280110D01*
X120133905Y-120518205D01*
X120086286Y-120613443D01*
X120038667Y-120661062D01*
X119943429Y-120708681D01*
X119657714Y-120708681D01*
X119562476Y-120661062D01*
X119514857Y-120613443D01*
X122343943Y-120486443D02*
X122296324Y-120534062D01*
X122153467Y-120581681D01*
X122058229Y-120581681D01*
X121915371Y-120534062D01*
X121820133Y-120438824D01*
X121772514Y-120343586D01*
X121724895Y-120153110D01*
X121724895Y-120010252D01*
X121772514Y-119819776D01*
X121820133Y-119724538D01*
X121915371Y-119629300D01*
X122058229Y-119581681D01*
X122153467Y-119581681D01*
X122296324Y-119629300D01*
X122343943Y-119676919D01*
X123296324Y-120581681D02*
X122724895Y-120581681D01*
X123010609Y-120581681D02*
X123010609Y-119581681D01*
X122915371Y-119724538D01*
X122820133Y-119819776D01*
X122724895Y-119867395D01*
X124153467Y-119915014D02*
X124153467Y-120581681D01*
X123915371Y-119534062D02*
X123677276Y-120248348D01*
X124296324Y-120248348D01*
X126382543Y-120473743D02*
X126334924Y-120521362D01*
X126192067Y-120568981D01*
X126096829Y-120568981D01*
X125953971Y-120521362D01*
X125858733Y-120426124D01*
X125811114Y-120330886D01*
X125763495Y-120140410D01*
X125763495Y-119997552D01*
X125811114Y-119807076D01*
X125858733Y-119711838D01*
X125953971Y-119616600D01*
X126096829Y-119568981D01*
X126192067Y-119568981D01*
X126334924Y-119616600D01*
X126382543Y-119664219D01*
X127334924Y-120568981D02*
X126763495Y-120568981D01*
X127049209Y-120568981D02*
X127049209Y-119568981D01*
X126953971Y-119711838D01*
X126858733Y-119807076D01*
X126763495Y-119854695D01*
X128239686Y-119568981D02*
X127763495Y-119568981D01*
X127715876Y-120045171D01*
X127763495Y-119997552D01*
X127858733Y-119949933D01*
X128096829Y-119949933D01*
X128192067Y-119997552D01*
X128239686Y-120045171D01*
X128287305Y-120140410D01*
X128287305Y-120378505D01*
X128239686Y-120473743D01*
X128192067Y-120521362D01*
X128096829Y-120568981D01*
X127858733Y-120568981D01*
X127763495Y-120521362D01*
X127715876Y-120473743D01*
X130395743Y-120397543D02*
X130348124Y-120445162D01*
X130205267Y-120492781D01*
X130110029Y-120492781D01*
X129967171Y-120445162D01*
X129871933Y-120349924D01*
X129824314Y-120254686D01*
X129776695Y-120064210D01*
X129776695Y-119921352D01*
X129824314Y-119730876D01*
X129871933Y-119635638D01*
X129967171Y-119540400D01*
X130110029Y-119492781D01*
X130205267Y-119492781D01*
X130348124Y-119540400D01*
X130395743Y-119588019D01*
X131348124Y-120492781D02*
X130776695Y-120492781D01*
X131062409Y-120492781D02*
X131062409Y-119492781D01*
X130967171Y-119635638D01*
X130871933Y-119730876D01*
X130776695Y-119778495D01*
X132205267Y-119492781D02*
X132014790Y-119492781D01*
X131919552Y-119540400D01*
X131871933Y-119588019D01*
X131776695Y-119730876D01*
X131729076Y-119921352D01*
X131729076Y-120302305D01*
X131776695Y-120397543D01*
X131824314Y-120445162D01*
X131919552Y-120492781D01*
X132110029Y-120492781D01*
X132205267Y-120445162D01*
X132252886Y-120397543D01*
X132300505Y-120302305D01*
X132300505Y-120064210D01*
X132252886Y-119968971D01*
X132205267Y-119921352D01*
X132110029Y-119873733D01*
X131919552Y-119873733D01*
X131824314Y-119921352D01*
X131776695Y-119968971D01*
X131729076Y-120064210D01*
X134497843Y-120397543D02*
X134450224Y-120445162D01*
X134307367Y-120492781D01*
X134212129Y-120492781D01*
X134069271Y-120445162D01*
X133974033Y-120349924D01*
X133926414Y-120254686D01*
X133878795Y-120064210D01*
X133878795Y-119921352D01*
X133926414Y-119730876D01*
X133974033Y-119635638D01*
X134069271Y-119540400D01*
X134212129Y-119492781D01*
X134307367Y-119492781D01*
X134450224Y-119540400D01*
X134497843Y-119588019D01*
X135450224Y-120492781D02*
X134878795Y-120492781D01*
X135164509Y-120492781D02*
X135164509Y-119492781D01*
X135069271Y-119635638D01*
X134974033Y-119730876D01*
X134878795Y-119778495D01*
X135783557Y-119492781D02*
X136450224Y-119492781D01*
X136021652Y-120492781D01*
X144197343Y-72613757D02*
X144244962Y-72661376D01*
X144292581Y-72804233D01*
X144292581Y-72899471D01*
X144244962Y-73042329D01*
X144149724Y-73137567D01*
X144054486Y-73185186D01*
X143864010Y-73232805D01*
X143721152Y-73232805D01*
X143530676Y-73185186D01*
X143435438Y-73137567D01*
X143340200Y-73042329D01*
X143292581Y-72899471D01*
X143292581Y-72804233D01*
X143340200Y-72661376D01*
X143387819Y-72613757D01*
X143387819Y-72232805D02*
X143340200Y-72185186D01*
X143292581Y-72089948D01*
X143292581Y-71851852D01*
X143340200Y-71756614D01*
X143387819Y-71708995D01*
X143483057Y-71661376D01*
X143578295Y-71661376D01*
X143721152Y-71708995D01*
X144292581Y-72280424D01*
X144292581Y-71661376D01*
X143292581Y-71042329D02*
X143292581Y-70947090D01*
X143340200Y-70851852D01*
X143387819Y-70804233D01*
X143483057Y-70756614D01*
X143673533Y-70708995D01*
X143911629Y-70708995D01*
X144102105Y-70756614D01*
X144197343Y-70804233D01*
X144244962Y-70851852D01*
X144292581Y-70947090D01*
X144292581Y-71042329D01*
X144244962Y-71137567D01*
X144197343Y-71185186D01*
X144102105Y-71232805D01*
X143911629Y-71280424D01*
X143673533Y-71280424D01*
X143483057Y-71232805D01*
X143387819Y-71185186D01*
X143340200Y-71137567D01*
X143292581Y-71042329D01*
X167286381Y-79938095D02*
X166286381Y-79938095D01*
X166286381Y-79700000D01*
X166334000Y-79557142D01*
X166429238Y-79461904D01*
X166524476Y-79414285D01*
X166714952Y-79366666D01*
X166857810Y-79366666D01*
X167048286Y-79414285D01*
X167143524Y-79461904D01*
X167238762Y-79557142D01*
X167286381Y-79700000D01*
X167286381Y-79938095D01*
X166381619Y-78985714D02*
X166334000Y-78938095D01*
X166286381Y-78842857D01*
X166286381Y-78604761D01*
X166334000Y-78509523D01*
X166381619Y-78461904D01*
X166476857Y-78414285D01*
X166572095Y-78414285D01*
X166714952Y-78461904D01*
X167286381Y-79033333D01*
X167286381Y-78414285D01*
X161840381Y-76355905D02*
X160840381Y-76355905D01*
X161840381Y-75784476D02*
X161268952Y-76213048D01*
X160840381Y-75784476D02*
X161411810Y-76355905D01*
X161604667Y-82132095D02*
X161604667Y-81655904D01*
X161890381Y-82227333D02*
X160890381Y-81894000D01*
X161890381Y-81560666D01*
X161920181Y-71489795D02*
X160920181Y-71489795D01*
X160920181Y-71251700D01*
X160967800Y-71108842D01*
X161063038Y-71013604D01*
X161158276Y-70965985D01*
X161348752Y-70918366D01*
X161491610Y-70918366D01*
X161682086Y-70965985D01*
X161777324Y-71013604D01*
X161872562Y-71108842D01*
X161920181Y-71251700D01*
X161920181Y-71489795D01*
X160920181Y-70585033D02*
X160920181Y-69965985D01*
X161301133Y-70299319D01*
X161301133Y-70156461D01*
X161348752Y-70061223D01*
X161396371Y-70013604D01*
X161491610Y-69965985D01*
X161729705Y-69965985D01*
X161824943Y-70013604D01*
X161872562Y-70061223D01*
X161920181Y-70156461D01*
X161920181Y-70442176D01*
X161872562Y-70537414D01*
X161824943Y-70585033D01*
X161786381Y-73161905D02*
X160786381Y-73161905D01*
X161786381Y-72590476D02*
X161214952Y-73019048D01*
X160786381Y-72590476D02*
X161357810Y-73161905D01*
X161500667Y-68738095D02*
X161500667Y-68261904D01*
X161786381Y-68833333D02*
X160786381Y-68500000D01*
X161786381Y-68166666D01*
X144842005Y-98775781D02*
X144842005Y-97775781D01*
X145080100Y-97775781D01*
X145222958Y-97823400D01*
X145318196Y-97918638D01*
X145365815Y-98013876D01*
X145413434Y-98204352D01*
X145413434Y-98347210D01*
X145365815Y-98537686D01*
X145318196Y-98632924D01*
X145222958Y-98728162D01*
X145080100Y-98775781D01*
X144842005Y-98775781D01*
X146270577Y-98109114D02*
X146270577Y-98775781D01*
X146032481Y-97728162D02*
X145794386Y-98442448D01*
X146413434Y-98442448D01*
X143172095Y-98852381D02*
X143172095Y-97852381D01*
X143743524Y-98852381D02*
X143314952Y-98280952D01*
X143743524Y-97852381D02*
X143172095Y-98423810D01*
X147595905Y-98566667D02*
X148072096Y-98566667D01*
X147500667Y-98852381D02*
X147834000Y-97852381D01*
X148167334Y-98852381D01*
X136795905Y-98952381D02*
X136795905Y-97952381D01*
X137034000Y-97952381D01*
X137176858Y-98000000D01*
X137272096Y-98095238D01*
X137319715Y-98190476D01*
X137367334Y-98380952D01*
X137367334Y-98523810D01*
X137319715Y-98714286D01*
X137272096Y-98809524D01*
X137176858Y-98904762D01*
X137034000Y-98952381D01*
X136795905Y-98952381D01*
X138272096Y-97952381D02*
X137795905Y-97952381D01*
X137748286Y-98428571D01*
X137795905Y-98380952D01*
X137891143Y-98333333D01*
X138129239Y-98333333D01*
X138224477Y-98380952D01*
X138272096Y-98428571D01*
X138319715Y-98523810D01*
X138319715Y-98761905D01*
X138272096Y-98857143D01*
X138224477Y-98904762D01*
X138129239Y-98952381D01*
X137891143Y-98952381D01*
X137795905Y-98904762D01*
X137748286Y-98857143D01*
X140339115Y-98594381D02*
X140339115Y-97594381D01*
X140910544Y-98594381D02*
X140481972Y-98022952D01*
X140910544Y-97594381D02*
X140339115Y-98165810D01*
X134562925Y-98358667D02*
X135039116Y-98358667D01*
X134467687Y-98644381D02*
X134801020Y-97644381D01*
X135134354Y-98644381D01*
X171116667Y-131119571D02*
X170783333Y-131119571D01*
X170783333Y-131643381D02*
X170783333Y-130643381D01*
X171259524Y-130643381D01*
X172164286Y-131643381D02*
X171592857Y-131643381D01*
X171878571Y-131643381D02*
X171878571Y-130643381D01*
X171783333Y-130786238D01*
X171688095Y-130881476D01*
X171592857Y-130929095D01*
X138961905Y-89266881D02*
X138961905Y-88266881D01*
X139342858Y-88266881D01*
X139438096Y-88314500D01*
X139485715Y-88362119D01*
X139533334Y-88457357D01*
X139533334Y-88600214D01*
X139485715Y-88695452D01*
X139438096Y-88743071D01*
X139342858Y-88790690D01*
X138961905Y-88790690D01*
X140485715Y-89266881D02*
X139914286Y-89266881D01*
X140200000Y-89266881D02*
X140200000Y-88266881D01*
X140104762Y-88409738D01*
X140009524Y-88504976D01*
X139914286Y-88552595D01*
X109888281Y-88901495D02*
X108888281Y-88901495D01*
X108888281Y-88520542D01*
X108935900Y-88425304D01*
X108983519Y-88377685D01*
X109078757Y-88330066D01*
X109221614Y-88330066D01*
X109316852Y-88377685D01*
X109364471Y-88425304D01*
X109412090Y-88520542D01*
X109412090Y-88901495D01*
X108983519Y-87949114D02*
X108935900Y-87901495D01*
X108888281Y-87806257D01*
X108888281Y-87568161D01*
X108935900Y-87472923D01*
X108983519Y-87425304D01*
X109078757Y-87377685D01*
X109173995Y-87377685D01*
X109316852Y-87425304D01*
X109888281Y-87996733D01*
X109888281Y-87377685D01*
X125359905Y-123698381D02*
X125359905Y-122698381D01*
X125740858Y-122698381D01*
X125836096Y-122746000D01*
X125883715Y-122793619D01*
X125931334Y-122888857D01*
X125931334Y-123031714D01*
X125883715Y-123126952D01*
X125836096Y-123174571D01*
X125740858Y-123222190D01*
X125359905Y-123222190D01*
X126788477Y-123031714D02*
X126788477Y-123698381D01*
X126550381Y-122650762D02*
X126312286Y-123365048D01*
X126931334Y-123365048D01*
X165139619Y-90773238D02*
X165092000Y-90868476D01*
X164996762Y-90963714D01*
X164853905Y-91106571D01*
X164806286Y-91201810D01*
X164806286Y-91297048D01*
X165044381Y-91249429D02*
X164996762Y-91344667D01*
X164901524Y-91439905D01*
X164711048Y-91487524D01*
X164377714Y-91487524D01*
X164187238Y-91439905D01*
X164092000Y-91344667D01*
X164044381Y-91249429D01*
X164044381Y-91058952D01*
X164092000Y-90963714D01*
X164187238Y-90868476D01*
X164377714Y-90820857D01*
X164711048Y-90820857D01*
X164901524Y-90868476D01*
X164996762Y-90963714D01*
X165044381Y-91058952D01*
X165044381Y-91249429D01*
X165044381Y-89868476D02*
X165044381Y-90439905D01*
X165044381Y-90154191D02*
X164044381Y-90154191D01*
X164187238Y-90249429D01*
X164282476Y-90344667D01*
X164330095Y-90439905D01*
X145835619Y-90773238D02*
X145788000Y-90868476D01*
X145692762Y-90963714D01*
X145549905Y-91106571D01*
X145502286Y-91201810D01*
X145502286Y-91297048D01*
X145740381Y-91249429D02*
X145692762Y-91344667D01*
X145597524Y-91439905D01*
X145407048Y-91487524D01*
X145073714Y-91487524D01*
X144883238Y-91439905D01*
X144788000Y-91344667D01*
X144740381Y-91249429D01*
X144740381Y-91058952D01*
X144788000Y-90963714D01*
X144883238Y-90868476D01*
X145073714Y-90820857D01*
X145407048Y-90820857D01*
X145597524Y-90868476D01*
X145692762Y-90963714D01*
X145740381Y-91058952D01*
X145740381Y-91249429D01*
X144835619Y-90439905D02*
X144788000Y-90392286D01*
X144740381Y-90297048D01*
X144740381Y-90058952D01*
X144788000Y-89963714D01*
X144835619Y-89916095D01*
X144930857Y-89868476D01*
X145026095Y-89868476D01*
X145168952Y-89916095D01*
X145740381Y-90487524D01*
X145740381Y-89868476D01*
X186594762Y-91225619D02*
X186499524Y-91178000D01*
X186404286Y-91082762D01*
X186261429Y-90939905D01*
X186166190Y-90892286D01*
X186070952Y-90892286D01*
X186118571Y-91130381D02*
X186023333Y-91082762D01*
X185928095Y-90987524D01*
X185880476Y-90797048D01*
X185880476Y-90463714D01*
X185928095Y-90273238D01*
X186023333Y-90178000D01*
X186118571Y-90130381D01*
X186309048Y-90130381D01*
X186404286Y-90178000D01*
X186499524Y-90273238D01*
X186547143Y-90463714D01*
X186547143Y-90797048D01*
X186499524Y-90987524D01*
X186404286Y-91082762D01*
X186309048Y-91130381D01*
X186118571Y-91130381D01*
X186880476Y-90130381D02*
X187499524Y-90130381D01*
X187166190Y-90511333D01*
X187309048Y-90511333D01*
X187404286Y-90558952D01*
X187451905Y-90606571D01*
X187499524Y-90701810D01*
X187499524Y-90939905D01*
X187451905Y-91035143D01*
X187404286Y-91082762D01*
X187309048Y-91130381D01*
X187023333Y-91130381D01*
X186928095Y-91082762D01*
X186880476Y-91035143D01*
X179736762Y-98337619D02*
X179641524Y-98290000D01*
X179546286Y-98194762D01*
X179403429Y-98051905D01*
X179308190Y-98004286D01*
X179212952Y-98004286D01*
X179260571Y-98242381D02*
X179165333Y-98194762D01*
X179070095Y-98099524D01*
X179022476Y-97909048D01*
X179022476Y-97575714D01*
X179070095Y-97385238D01*
X179165333Y-97290000D01*
X179260571Y-97242381D01*
X179451048Y-97242381D01*
X179546286Y-97290000D01*
X179641524Y-97385238D01*
X179689143Y-97575714D01*
X179689143Y-97909048D01*
X179641524Y-98099524D01*
X179546286Y-98194762D01*
X179451048Y-98242381D01*
X179260571Y-98242381D01*
X180546286Y-97575714D02*
X180546286Y-98242381D01*
X180308190Y-97194762D02*
X180070095Y-97909048D01*
X180689143Y-97909048D01*
X160178762Y-98083619D02*
X160083524Y-98036000D01*
X159988286Y-97940762D01*
X159845429Y-97797905D01*
X159750190Y-97750286D01*
X159654952Y-97750286D01*
X159702571Y-97988381D02*
X159607333Y-97940762D01*
X159512095Y-97845524D01*
X159464476Y-97655048D01*
X159464476Y-97321714D01*
X159512095Y-97131238D01*
X159607333Y-97036000D01*
X159702571Y-96988381D01*
X159893048Y-96988381D01*
X159988286Y-97036000D01*
X160083524Y-97131238D01*
X160131143Y-97321714D01*
X160131143Y-97655048D01*
X160083524Y-97845524D01*
X159988286Y-97940762D01*
X159893048Y-97988381D01*
X159702571Y-97988381D01*
X161035905Y-96988381D02*
X160559714Y-96988381D01*
X160512095Y-97464571D01*
X160559714Y-97416952D01*
X160654952Y-97369333D01*
X160893048Y-97369333D01*
X160988286Y-97416952D01*
X161035905Y-97464571D01*
X161083524Y-97559810D01*
X161083524Y-97797905D01*
X161035905Y-97893143D01*
X160988286Y-97940762D01*
X160893048Y-97988381D01*
X160654952Y-97988381D01*
X160559714Y-97940762D01*
X160512095Y-97893143D01*
X148309034Y-82113381D02*
X147975700Y-81637190D01*
X147737605Y-82113381D02*
X147737605Y-81113381D01*
X148118558Y-81113381D01*
X148213796Y-81161000D01*
X148261415Y-81208619D01*
X148309034Y-81303857D01*
X148309034Y-81446714D01*
X148261415Y-81541952D01*
X148213796Y-81589571D01*
X148118558Y-81637190D01*
X147737605Y-81637190D01*
X149261415Y-82113381D02*
X148689986Y-82113381D01*
X148975700Y-82113381D02*
X148975700Y-81113381D01*
X148880462Y-81256238D01*
X148785224Y-81351476D01*
X148689986Y-81399095D01*
X153744634Y-82126081D02*
X153411300Y-81649890D01*
X153173205Y-82126081D02*
X153173205Y-81126081D01*
X153554158Y-81126081D01*
X153649396Y-81173700D01*
X153697015Y-81221319D01*
X153744634Y-81316557D01*
X153744634Y-81459414D01*
X153697015Y-81554652D01*
X153649396Y-81602271D01*
X153554158Y-81649890D01*
X153173205Y-81649890D01*
X154125586Y-81221319D02*
X154173205Y-81173700D01*
X154268443Y-81126081D01*
X154506539Y-81126081D01*
X154601777Y-81173700D01*
X154649396Y-81221319D01*
X154697015Y-81316557D01*
X154697015Y-81411795D01*
X154649396Y-81554652D01*
X154077967Y-82126081D01*
X154697015Y-82126081D01*
X153820834Y-72829681D02*
X153487500Y-72353490D01*
X153249405Y-72829681D02*
X153249405Y-71829681D01*
X153630358Y-71829681D01*
X153725596Y-71877300D01*
X153773215Y-71924919D01*
X153820834Y-72020157D01*
X153820834Y-72163014D01*
X153773215Y-72258252D01*
X153725596Y-72305871D01*
X153630358Y-72353490D01*
X153249405Y-72353490D01*
X154154167Y-71829681D02*
X154773215Y-71829681D01*
X154439881Y-72210633D01*
X154582739Y-72210633D01*
X154677977Y-72258252D01*
X154725596Y-72305871D01*
X154773215Y-72401110D01*
X154773215Y-72639205D01*
X154725596Y-72734443D01*
X154677977Y-72782062D01*
X154582739Y-72829681D01*
X154297024Y-72829681D01*
X154201786Y-72782062D01*
X154154167Y-72734443D01*
X134453334Y-84966381D02*
X134120000Y-84490190D01*
X133881905Y-84966381D02*
X133881905Y-83966381D01*
X134262858Y-83966381D01*
X134358096Y-84014000D01*
X134405715Y-84061619D01*
X134453334Y-84156857D01*
X134453334Y-84299714D01*
X134405715Y-84394952D01*
X134358096Y-84442571D01*
X134262858Y-84490190D01*
X133881905Y-84490190D01*
X135310477Y-84299714D02*
X135310477Y-84966381D01*
X135072381Y-83918762D02*
X134834286Y-84633048D01*
X135453334Y-84633048D01*
X139279334Y-81410381D02*
X138946000Y-80934190D01*
X138707905Y-81410381D02*
X138707905Y-80410381D01*
X139088858Y-80410381D01*
X139184096Y-80458000D01*
X139231715Y-80505619D01*
X139279334Y-80600857D01*
X139279334Y-80743714D01*
X139231715Y-80838952D01*
X139184096Y-80886571D01*
X139088858Y-80934190D01*
X138707905Y-80934190D01*
X140184096Y-80410381D02*
X139707905Y-80410381D01*
X139660286Y-80886571D01*
X139707905Y-80838952D01*
X139803143Y-80791333D01*
X140041239Y-80791333D01*
X140136477Y-80838952D01*
X140184096Y-80886571D01*
X140231715Y-80981810D01*
X140231715Y-81219905D01*
X140184096Y-81315143D01*
X140136477Y-81362762D01*
X140041239Y-81410381D01*
X139803143Y-81410381D01*
X139707905Y-81362762D01*
X139660286Y-81315143D01*
X158372381Y-79414666D02*
X157896190Y-79748000D01*
X158372381Y-79986095D02*
X157372381Y-79986095D01*
X157372381Y-79605142D01*
X157420000Y-79509904D01*
X157467619Y-79462285D01*
X157562857Y-79414666D01*
X157705714Y-79414666D01*
X157800952Y-79462285D01*
X157848571Y-79509904D01*
X157896190Y-79605142D01*
X157896190Y-79986095D01*
X157372381Y-78557523D02*
X157372381Y-78748000D01*
X157420000Y-78843238D01*
X157467619Y-78890857D01*
X157610476Y-78986095D01*
X157800952Y-79033714D01*
X158181905Y-79033714D01*
X158277143Y-78986095D01*
X158324762Y-78938476D01*
X158372381Y-78843238D01*
X158372381Y-78652761D01*
X158324762Y-78557523D01*
X158277143Y-78509904D01*
X158181905Y-78462285D01*
X157943810Y-78462285D01*
X157848571Y-78509904D01*
X157800952Y-78557523D01*
X157753333Y-78652761D01*
X157753333Y-78843238D01*
X157800952Y-78938476D01*
X157848571Y-78986095D01*
X157943810Y-79033714D01*
X155535334Y-70878381D02*
X155202000Y-70402190D01*
X154963905Y-70878381D02*
X154963905Y-69878381D01*
X155344858Y-69878381D01*
X155440096Y-69926000D01*
X155487715Y-69973619D01*
X155535334Y-70068857D01*
X155535334Y-70211714D01*
X155487715Y-70306952D01*
X155440096Y-70354571D01*
X155344858Y-70402190D01*
X154963905Y-70402190D01*
X155868667Y-69878381D02*
X156535334Y-69878381D01*
X156106762Y-70878381D01*
X182713334Y-81918381D02*
X182380000Y-81442190D01*
X182141905Y-81918381D02*
X182141905Y-80918381D01*
X182522858Y-80918381D01*
X182618096Y-80966000D01*
X182665715Y-81013619D01*
X182713334Y-81108857D01*
X182713334Y-81251714D01*
X182665715Y-81346952D01*
X182618096Y-81394571D01*
X182522858Y-81442190D01*
X182141905Y-81442190D01*
X183284762Y-81346952D02*
X183189524Y-81299333D01*
X183141905Y-81251714D01*
X183094286Y-81156476D01*
X183094286Y-81108857D01*
X183141905Y-81013619D01*
X183189524Y-80966000D01*
X183284762Y-80918381D01*
X183475239Y-80918381D01*
X183570477Y-80966000D01*
X183618096Y-81013619D01*
X183665715Y-81108857D01*
X183665715Y-81156476D01*
X183618096Y-81251714D01*
X183570477Y-81299333D01*
X183475239Y-81346952D01*
X183284762Y-81346952D01*
X183189524Y-81394571D01*
X183141905Y-81442190D01*
X183094286Y-81537429D01*
X183094286Y-81727905D01*
X183141905Y-81823143D01*
X183189524Y-81870762D01*
X183284762Y-81918381D01*
X183475239Y-81918381D01*
X183570477Y-81870762D01*
X183618096Y-81823143D01*
X183665715Y-81727905D01*
X183665715Y-81537429D01*
X183618096Y-81442190D01*
X183570477Y-81394571D01*
X183475239Y-81346952D01*
X139286381Y-117266666D02*
X138810190Y-117600000D01*
X139286381Y-117838095D02*
X138286381Y-117838095D01*
X138286381Y-117457142D01*
X138334000Y-117361904D01*
X138381619Y-117314285D01*
X138476857Y-117266666D01*
X138619714Y-117266666D01*
X138714952Y-117314285D01*
X138762571Y-117361904D01*
X138810190Y-117457142D01*
X138810190Y-117838095D01*
X139286381Y-116790476D02*
X139286381Y-116600000D01*
X139238762Y-116504761D01*
X139191143Y-116457142D01*
X139048286Y-116361904D01*
X138857810Y-116314285D01*
X138476857Y-116314285D01*
X138381619Y-116361904D01*
X138334000Y-116409523D01*
X138286381Y-116504761D01*
X138286381Y-116695238D01*
X138334000Y-116790476D01*
X138381619Y-116838095D01*
X138476857Y-116885714D01*
X138714952Y-116885714D01*
X138810190Y-116838095D01*
X138857810Y-116790476D01*
X138905429Y-116695238D01*
X138905429Y-116504761D01*
X138857810Y-116409523D01*
X138810190Y-116361904D01*
X138714952Y-116314285D01*
X146349981Y-118206757D02*
X145873790Y-118540091D01*
X146349981Y-118778186D02*
X145349981Y-118778186D01*
X145349981Y-118397233D01*
X145397600Y-118301995D01*
X145445219Y-118254376D01*
X145540457Y-118206757D01*
X145683314Y-118206757D01*
X145778552Y-118254376D01*
X145826171Y-118301995D01*
X145873790Y-118397233D01*
X145873790Y-118778186D01*
X146349981Y-117254376D02*
X146349981Y-117825805D01*
X146349981Y-117540091D02*
X145349981Y-117540091D01*
X145492838Y-117635329D01*
X145588076Y-117730567D01*
X145635695Y-117825805D01*
X146349981Y-116301995D02*
X146349981Y-116873424D01*
X146349981Y-116587710D02*
X145349981Y-116587710D01*
X145492838Y-116682948D01*
X145588076Y-116778186D01*
X145635695Y-116873424D01*
X148733643Y-106964281D02*
X148400309Y-106488090D01*
X148162214Y-106964281D02*
X148162214Y-105964281D01*
X148543167Y-105964281D01*
X148638405Y-106011900D01*
X148686024Y-106059519D01*
X148733643Y-106154757D01*
X148733643Y-106297614D01*
X148686024Y-106392852D01*
X148638405Y-106440471D01*
X148543167Y-106488090D01*
X148162214Y-106488090D01*
X149686024Y-106964281D02*
X149114595Y-106964281D01*
X149400309Y-106964281D02*
X149400309Y-105964281D01*
X149305071Y-106107138D01*
X149209833Y-106202376D01*
X149114595Y-106249995D01*
X150066976Y-106059519D02*
X150114595Y-106011900D01*
X150209833Y-105964281D01*
X150447929Y-105964281D01*
X150543167Y-106011900D01*
X150590786Y-106059519D01*
X150638405Y-106154757D01*
X150638405Y-106249995D01*
X150590786Y-106392852D01*
X150019357Y-106964281D01*
X150638405Y-106964281D01*
X138291143Y-105052381D02*
X137957809Y-104576190D01*
X137719714Y-105052381D02*
X137719714Y-104052381D01*
X138100667Y-104052381D01*
X138195905Y-104100000D01*
X138243524Y-104147619D01*
X138291143Y-104242857D01*
X138291143Y-104385714D01*
X138243524Y-104480952D01*
X138195905Y-104528571D01*
X138100667Y-104576190D01*
X137719714Y-104576190D01*
X139243524Y-105052381D02*
X138672095Y-105052381D01*
X138957809Y-105052381D02*
X138957809Y-104052381D01*
X138862571Y-104195238D01*
X138767333Y-104290476D01*
X138672095Y-104338095D01*
X139576857Y-104052381D02*
X140195905Y-104052381D01*
X139862571Y-104433333D01*
X140005429Y-104433333D01*
X140100667Y-104480952D01*
X140148286Y-104528571D01*
X140195905Y-104623810D01*
X140195905Y-104861905D01*
X140148286Y-104957143D01*
X140100667Y-105004762D01*
X140005429Y-105052381D01*
X139719714Y-105052381D01*
X139624476Y-105004762D01*
X139576857Y-104957143D01*
X107064381Y-114942857D02*
X106588190Y-115276191D01*
X107064381Y-115514286D02*
X106064381Y-115514286D01*
X106064381Y-115133333D01*
X106112000Y-115038095D01*
X106159619Y-114990476D01*
X106254857Y-114942857D01*
X106397714Y-114942857D01*
X106492952Y-114990476D01*
X106540571Y-115038095D01*
X106588190Y-115133333D01*
X106588190Y-115514286D01*
X107064381Y-113990476D02*
X107064381Y-114561905D01*
X107064381Y-114276191D02*
X106064381Y-114276191D01*
X106207238Y-114371429D01*
X106302476Y-114466667D01*
X106350095Y-114561905D01*
X106397714Y-113133333D02*
X107064381Y-113133333D01*
X106016762Y-113371429D02*
X106731048Y-113609524D01*
X106731048Y-112990476D01*
X111128381Y-114942857D02*
X110652190Y-115276191D01*
X111128381Y-115514286D02*
X110128381Y-115514286D01*
X110128381Y-115133333D01*
X110176000Y-115038095D01*
X110223619Y-114990476D01*
X110318857Y-114942857D01*
X110461714Y-114942857D01*
X110556952Y-114990476D01*
X110604571Y-115038095D01*
X110652190Y-115133333D01*
X110652190Y-115514286D01*
X111128381Y-113990476D02*
X111128381Y-114561905D01*
X111128381Y-114276191D02*
X110128381Y-114276191D01*
X110271238Y-114371429D01*
X110366476Y-114466667D01*
X110414095Y-114561905D01*
X110128381Y-113085714D02*
X110128381Y-113561905D01*
X110604571Y-113609524D01*
X110556952Y-113561905D01*
X110509333Y-113466667D01*
X110509333Y-113228571D01*
X110556952Y-113133333D01*
X110604571Y-113085714D01*
X110699810Y-113038095D01*
X110937905Y-113038095D01*
X111033143Y-113085714D01*
X111080762Y-113133333D01*
X111128381Y-113228571D01*
X111128381Y-113466667D01*
X111080762Y-113561905D01*
X111033143Y-113609524D01*
X115192381Y-114942857D02*
X114716190Y-115276191D01*
X115192381Y-115514286D02*
X114192381Y-115514286D01*
X114192381Y-115133333D01*
X114240000Y-115038095D01*
X114287619Y-114990476D01*
X114382857Y-114942857D01*
X114525714Y-114942857D01*
X114620952Y-114990476D01*
X114668571Y-115038095D01*
X114716190Y-115133333D01*
X114716190Y-115514286D01*
X115192381Y-113990476D02*
X115192381Y-114561905D01*
X115192381Y-114276191D02*
X114192381Y-114276191D01*
X114335238Y-114371429D01*
X114430476Y-114466667D01*
X114478095Y-114561905D01*
X114192381Y-113133333D02*
X114192381Y-113323810D01*
X114240000Y-113419048D01*
X114287619Y-113466667D01*
X114430476Y-113561905D01*
X114620952Y-113609524D01*
X115001905Y-113609524D01*
X115097143Y-113561905D01*
X115144762Y-113514286D01*
X115192381Y-113419048D01*
X115192381Y-113228571D01*
X115144762Y-113133333D01*
X115097143Y-113085714D01*
X115001905Y-113038095D01*
X114763810Y-113038095D01*
X114668571Y-113085714D01*
X114620952Y-113133333D01*
X114573333Y-113228571D01*
X114573333Y-113419048D01*
X114620952Y-113514286D01*
X114668571Y-113561905D01*
X114763810Y-113609524D01*
X119256381Y-114942857D02*
X118780190Y-115276191D01*
X119256381Y-115514286D02*
X118256381Y-115514286D01*
X118256381Y-115133333D01*
X118304000Y-115038095D01*
X118351619Y-114990476D01*
X118446857Y-114942857D01*
X118589714Y-114942857D01*
X118684952Y-114990476D01*
X118732571Y-115038095D01*
X118780190Y-115133333D01*
X118780190Y-115514286D01*
X119256381Y-113990476D02*
X119256381Y-114561905D01*
X119256381Y-114276191D02*
X118256381Y-114276191D01*
X118399238Y-114371429D01*
X118494476Y-114466667D01*
X118542095Y-114561905D01*
X118256381Y-113657143D02*
X118256381Y-112990476D01*
X119256381Y-113419048D01*
X123320381Y-114942857D02*
X122844190Y-115276191D01*
X123320381Y-115514286D02*
X122320381Y-115514286D01*
X122320381Y-115133333D01*
X122368000Y-115038095D01*
X122415619Y-114990476D01*
X122510857Y-114942857D01*
X122653714Y-114942857D01*
X122748952Y-114990476D01*
X122796571Y-115038095D01*
X122844190Y-115133333D01*
X122844190Y-115514286D01*
X123320381Y-113990476D02*
X123320381Y-114561905D01*
X123320381Y-114276191D02*
X122320381Y-114276191D01*
X122463238Y-114371429D01*
X122558476Y-114466667D01*
X122606095Y-114561905D01*
X122748952Y-113419048D02*
X122701333Y-113514286D01*
X122653714Y-113561905D01*
X122558476Y-113609524D01*
X122510857Y-113609524D01*
X122415619Y-113561905D01*
X122368000Y-113514286D01*
X122320381Y-113419048D01*
X122320381Y-113228571D01*
X122368000Y-113133333D01*
X122415619Y-113085714D01*
X122510857Y-113038095D01*
X122558476Y-113038095D01*
X122653714Y-113085714D01*
X122701333Y-113133333D01*
X122748952Y-113228571D01*
X122748952Y-113419048D01*
X122796571Y-113514286D01*
X122844190Y-113561905D01*
X122939429Y-113609524D01*
X123129905Y-113609524D01*
X123225143Y-113561905D01*
X123272762Y-113514286D01*
X123320381Y-113419048D01*
X123320381Y-113228571D01*
X123272762Y-113133333D01*
X123225143Y-113085714D01*
X123129905Y-113038095D01*
X122939429Y-113038095D01*
X122844190Y-113085714D01*
X122796571Y-113133333D01*
X122748952Y-113228571D01*
X127384381Y-114942857D02*
X126908190Y-115276191D01*
X127384381Y-115514286D02*
X126384381Y-115514286D01*
X126384381Y-115133333D01*
X126432000Y-115038095D01*
X126479619Y-114990476D01*
X126574857Y-114942857D01*
X126717714Y-114942857D01*
X126812952Y-114990476D01*
X126860571Y-115038095D01*
X126908190Y-115133333D01*
X126908190Y-115514286D01*
X127384381Y-113990476D02*
X127384381Y-114561905D01*
X127384381Y-114276191D02*
X126384381Y-114276191D01*
X126527238Y-114371429D01*
X126622476Y-114466667D01*
X126670095Y-114561905D01*
X127384381Y-113514286D02*
X127384381Y-113323810D01*
X127336762Y-113228571D01*
X127289143Y-113180952D01*
X127146286Y-113085714D01*
X126955810Y-113038095D01*
X126574857Y-113038095D01*
X126479619Y-113085714D01*
X126432000Y-113133333D01*
X126384381Y-113228571D01*
X126384381Y-113419048D01*
X126432000Y-113514286D01*
X126479619Y-113561905D01*
X126574857Y-113609524D01*
X126812952Y-113609524D01*
X126908190Y-113561905D01*
X126955810Y-113514286D01*
X127003429Y-113419048D01*
X127003429Y-113228571D01*
X126955810Y-113133333D01*
X126908190Y-113085714D01*
X126812952Y-113038095D01*
X131448381Y-114942857D02*
X130972190Y-115276191D01*
X131448381Y-115514286D02*
X130448381Y-115514286D01*
X130448381Y-115133333D01*
X130496000Y-115038095D01*
X130543619Y-114990476D01*
X130638857Y-114942857D01*
X130781714Y-114942857D01*
X130876952Y-114990476D01*
X130924571Y-115038095D01*
X130972190Y-115133333D01*
X130972190Y-115514286D01*
X130543619Y-114561905D02*
X130496000Y-114514286D01*
X130448381Y-114419048D01*
X130448381Y-114180952D01*
X130496000Y-114085714D01*
X130543619Y-114038095D01*
X130638857Y-113990476D01*
X130734095Y-113990476D01*
X130876952Y-114038095D01*
X131448381Y-114609524D01*
X131448381Y-113990476D01*
X130448381Y-113371429D02*
X130448381Y-113276190D01*
X130496000Y-113180952D01*
X130543619Y-113133333D01*
X130638857Y-113085714D01*
X130829333Y-113038095D01*
X131067429Y-113038095D01*
X131257905Y-113085714D01*
X131353143Y-113133333D01*
X131400762Y-113180952D01*
X131448381Y-113276190D01*
X131448381Y-113371429D01*
X131400762Y-113466667D01*
X131353143Y-113514286D01*
X131257905Y-113561905D01*
X131067429Y-113609524D01*
X130829333Y-113609524D01*
X130638857Y-113561905D01*
X130543619Y-113514286D01*
X130496000Y-113466667D01*
X130448381Y-113371429D01*
X135512381Y-114942857D02*
X135036190Y-115276191D01*
X135512381Y-115514286D02*
X134512381Y-115514286D01*
X134512381Y-115133333D01*
X134560000Y-115038095D01*
X134607619Y-114990476D01*
X134702857Y-114942857D01*
X134845714Y-114942857D01*
X134940952Y-114990476D01*
X134988571Y-115038095D01*
X135036190Y-115133333D01*
X135036190Y-115514286D01*
X134607619Y-114561905D02*
X134560000Y-114514286D01*
X134512381Y-114419048D01*
X134512381Y-114180952D01*
X134560000Y-114085714D01*
X134607619Y-114038095D01*
X134702857Y-113990476D01*
X134798095Y-113990476D01*
X134940952Y-114038095D01*
X135512381Y-114609524D01*
X135512381Y-113990476D01*
X135512381Y-113038095D02*
X135512381Y-113609524D01*
X135512381Y-113323810D02*
X134512381Y-113323810D01*
X134655238Y-113419048D01*
X134750476Y-113514286D01*
X134798095Y-113609524D01*
X148467843Y-110751881D02*
X148134509Y-110275690D01*
X147896414Y-110751881D02*
X147896414Y-109751881D01*
X148277367Y-109751881D01*
X148372605Y-109799500D01*
X148420224Y-109847119D01*
X148467843Y-109942357D01*
X148467843Y-110085214D01*
X148420224Y-110180452D01*
X148372605Y-110228071D01*
X148277367Y-110275690D01*
X147896414Y-110275690D01*
X148848795Y-109847119D02*
X148896414Y-109799500D01*
X148991652Y-109751881D01*
X149229748Y-109751881D01*
X149324986Y-109799500D01*
X149372605Y-109847119D01*
X149420224Y-109942357D01*
X149420224Y-110037595D01*
X149372605Y-110180452D01*
X148801176Y-110751881D01*
X149420224Y-110751881D01*
X149801176Y-109847119D02*
X149848795Y-109799500D01*
X149944033Y-109751881D01*
X150182129Y-109751881D01*
X150277367Y-109799500D01*
X150324986Y-109847119D01*
X150372605Y-109942357D01*
X150372605Y-110037595D01*
X150324986Y-110180452D01*
X149753557Y-110751881D01*
X150372605Y-110751881D01*
X137942581Y-72740757D02*
X137466390Y-73074091D01*
X137942581Y-73312186D02*
X136942581Y-73312186D01*
X136942581Y-72931233D01*
X136990200Y-72835995D01*
X137037819Y-72788376D01*
X137133057Y-72740757D01*
X137275914Y-72740757D01*
X137371152Y-72788376D01*
X137418771Y-72835995D01*
X137466390Y-72931233D01*
X137466390Y-73312186D01*
X137037819Y-72359805D02*
X136990200Y-72312186D01*
X136942581Y-72216948D01*
X136942581Y-71978852D01*
X136990200Y-71883614D01*
X137037819Y-71835995D01*
X137133057Y-71788376D01*
X137228295Y-71788376D01*
X137371152Y-71835995D01*
X137942581Y-72407424D01*
X137942581Y-71788376D01*
X137275914Y-70931233D02*
X137942581Y-70931233D01*
X136894962Y-71169329D02*
X137609248Y-71407424D01*
X137609248Y-70788376D01*
D10*
X132060190Y-97916952D02*
X132464952Y-97916952D01*
X132512571Y-97893143D01*
X132536381Y-97869333D01*
X132560190Y-97821714D01*
X132560190Y-97726476D01*
X132536381Y-97678857D01*
X132512571Y-97655048D01*
X132464952Y-97631238D01*
X132060190Y-97631238D01*
X132560190Y-97131238D02*
X132560190Y-97416952D01*
X132560190Y-97274095D02*
X132060190Y-97274095D01*
X132131619Y-97321714D01*
X132179238Y-97369333D01*
X132203048Y-97416952D01*
D13*
X132935524Y-68829095D02*
X132935524Y-69031476D01*
X132947429Y-69055286D01*
X132959333Y-69067190D01*
X132983143Y-69079095D01*
X133030762Y-69079095D01*
X133054571Y-69067190D01*
X133066476Y-69055286D01*
X133078381Y-69031476D01*
X133078381Y-68829095D01*
X133185524Y-68852905D02*
X133197429Y-68841000D01*
X133221238Y-68829095D01*
X133280762Y-68829095D01*
X133304572Y-68841000D01*
X133316476Y-68852905D01*
X133328381Y-68876714D01*
X133328381Y-68900524D01*
X133316476Y-68936238D01*
X133173619Y-69079095D01*
X133328381Y-69079095D01*
D12*
X104679238Y-80652381D02*
X104917333Y-81652381D01*
X105107810Y-80938095D01*
X105298286Y-81652381D01*
X105536381Y-80652381D01*
X106441143Y-81652381D02*
X105869714Y-81652381D01*
X106155428Y-81652381D02*
X106155428Y-80652381D01*
X106060190Y-80795238D01*
X105964952Y-80890476D01*
X105869714Y-80938095D01*
X133207238Y-91686381D02*
X133445333Y-92686381D01*
X133635810Y-91972095D01*
X133826286Y-92686381D01*
X134064381Y-91686381D01*
X134350095Y-91686381D02*
X134969143Y-91686381D01*
X134635809Y-92067333D01*
X134778667Y-92067333D01*
X134873905Y-92114952D01*
X134921524Y-92162571D01*
X134969143Y-92257810D01*
X134969143Y-92495905D01*
X134921524Y-92591143D01*
X134873905Y-92638762D01*
X134778667Y-92686381D01*
X134492952Y-92686381D01*
X134397714Y-92638762D01*
X134350095Y-92591143D01*
X104679238Y-82902381D02*
X104917333Y-83902381D01*
X105107810Y-83188095D01*
X105298286Y-83902381D01*
X105536381Y-82902381D01*
X106345905Y-82902381D02*
X106155428Y-82902381D01*
X106060190Y-82950000D01*
X106012571Y-82997619D01*
X105917333Y-83140476D01*
X105869714Y-83330952D01*
X105869714Y-83711905D01*
X105917333Y-83807143D01*
X105964952Y-83854762D01*
X106060190Y-83902381D01*
X106250667Y-83902381D01*
X106345905Y-83854762D01*
X106393524Y-83807143D01*
X106441143Y-83711905D01*
X106441143Y-83473810D01*
X106393524Y-83378571D01*
X106345905Y-83330952D01*
X106250667Y-83283333D01*
X106060190Y-83283333D01*
X105964952Y-83330952D01*
X105917333Y-83378571D01*
X105869714Y-83473810D01*
X115036381Y-83104762D02*
X116036381Y-82866667D01*
X115322095Y-82676190D01*
X116036381Y-82485714D01*
X115036381Y-82247619D01*
X115036381Y-81961905D02*
X115036381Y-81295238D01*
X116036381Y-81723810D01*
X127087334Y-78683143D02*
X127039715Y-78730762D01*
X126896858Y-78778381D01*
X126801620Y-78778381D01*
X126658762Y-78730762D01*
X126563524Y-78635524D01*
X126515905Y-78540286D01*
X126468286Y-78349810D01*
X126468286Y-78206952D01*
X126515905Y-78016476D01*
X126563524Y-77921238D01*
X126658762Y-77826000D01*
X126801620Y-77778381D01*
X126896858Y-77778381D01*
X127039715Y-77826000D01*
X127087334Y-77873619D01*
X128039715Y-78778381D02*
X127468286Y-78778381D01*
X127754000Y-78778381D02*
X127754000Y-77778381D01*
X127658762Y-77921238D01*
X127563524Y-78016476D01*
X127468286Y-78064095D01*
X147263143Y-74564666D02*
X147310762Y-74612285D01*
X147358381Y-74755142D01*
X147358381Y-74850380D01*
X147310762Y-74993238D01*
X147215524Y-75088476D01*
X147120286Y-75136095D01*
X146929810Y-75183714D01*
X146786952Y-75183714D01*
X146596476Y-75136095D01*
X146501238Y-75088476D01*
X146406000Y-74993238D01*
X146358381Y-74850380D01*
X146358381Y-74755142D01*
X146406000Y-74612285D01*
X146453619Y-74564666D01*
X146453619Y-74183714D02*
X146406000Y-74136095D01*
X146358381Y-74040857D01*
X146358381Y-73802761D01*
X146406000Y-73707523D01*
X146453619Y-73659904D01*
X146548857Y-73612285D01*
X146644095Y-73612285D01*
X146786952Y-73659904D01*
X147358381Y-74231333D01*
X147358381Y-73612285D01*
X123417334Y-82557143D02*
X123369715Y-82604762D01*
X123226858Y-82652381D01*
X123131620Y-82652381D01*
X122988762Y-82604762D01*
X122893524Y-82509524D01*
X122845905Y-82414286D01*
X122798286Y-82223810D01*
X122798286Y-82080952D01*
X122845905Y-81890476D01*
X122893524Y-81795238D01*
X122988762Y-81700000D01*
X123131620Y-81652381D01*
X123226858Y-81652381D01*
X123369715Y-81700000D01*
X123417334Y-81747619D01*
X123750667Y-81652381D02*
X124369715Y-81652381D01*
X124036381Y-82033333D01*
X124179239Y-82033333D01*
X124274477Y-82080952D01*
X124322096Y-82128571D01*
X124369715Y-82223810D01*
X124369715Y-82461905D01*
X124322096Y-82557143D01*
X124274477Y-82604762D01*
X124179239Y-82652381D01*
X123893524Y-82652381D01*
X123798286Y-82604762D01*
X123750667Y-82557143D01*
X141091143Y-112757143D02*
X141043524Y-112804762D01*
X140900667Y-112852381D01*
X140805429Y-112852381D01*
X140662571Y-112804762D01*
X140567333Y-112709524D01*
X140519714Y-112614286D01*
X140472095Y-112423810D01*
X140472095Y-112280952D01*
X140519714Y-112090476D01*
X140567333Y-111995238D01*
X140662571Y-111900000D01*
X140805429Y-111852381D01*
X140900667Y-111852381D01*
X141043524Y-111900000D01*
X141091143Y-111947619D01*
X142043524Y-112852381D02*
X141472095Y-112852381D01*
X141757809Y-112852381D02*
X141757809Y-111852381D01*
X141662571Y-111995238D01*
X141567333Y-112090476D01*
X141472095Y-112138095D01*
X142614952Y-112280952D02*
X142519714Y-112233333D01*
X142472095Y-112185714D01*
X142424476Y-112090476D01*
X142424476Y-112042857D01*
X142472095Y-111947619D01*
X142519714Y-111900000D01*
X142614952Y-111852381D01*
X142805429Y-111852381D01*
X142900667Y-111900000D01*
X142948286Y-111947619D01*
X142995905Y-112042857D01*
X142995905Y-112090476D01*
X142948286Y-112185714D01*
X142900667Y-112233333D01*
X142805429Y-112280952D01*
X142614952Y-112280952D01*
X142519714Y-112328571D01*
X142472095Y-112376190D01*
X142424476Y-112471429D01*
X142424476Y-112661905D01*
X142472095Y-112757143D01*
X142519714Y-112804762D01*
X142614952Y-112852381D01*
X142805429Y-112852381D01*
X142900667Y-112804762D01*
X142948286Y-112757143D01*
X142995905Y-112661905D01*
X142995905Y-112471429D01*
X142948286Y-112376190D01*
X142900667Y-112328571D01*
X142805429Y-112280952D01*
X141591143Y-123452381D02*
X141257809Y-122976190D01*
X141019714Y-123452381D02*
X141019714Y-122452381D01*
X141400667Y-122452381D01*
X141495905Y-122500000D01*
X141543524Y-122547619D01*
X141591143Y-122642857D01*
X141591143Y-122785714D01*
X141543524Y-122880952D01*
X141495905Y-122928571D01*
X141400667Y-122976190D01*
X141019714Y-122976190D01*
X142543524Y-123452381D02*
X141972095Y-123452381D01*
X142257809Y-123452381D02*
X142257809Y-122452381D01*
X142162571Y-122595238D01*
X142067333Y-122690476D01*
X141972095Y-122738095D01*
X143162571Y-122452381D02*
X143257810Y-122452381D01*
X143353048Y-122500000D01*
X143400667Y-122547619D01*
X143448286Y-122642857D01*
X143495905Y-122833333D01*
X143495905Y-123071429D01*
X143448286Y-123261905D01*
X143400667Y-123357143D01*
X143353048Y-123404762D01*
X143257810Y-123452381D01*
X143162571Y-123452381D01*
X143067333Y-123404762D01*
X143019714Y-123357143D01*
X142972095Y-123261905D01*
X142924476Y-123071429D01*
X142924476Y-122833333D01*
X142972095Y-122642857D01*
X143019714Y-122547619D01*
X143067333Y-122500000D01*
X143162571Y-122452381D01*
X171091143Y-82152381D02*
X170757809Y-81676190D01*
X170519714Y-82152381D02*
X170519714Y-81152381D01*
X170900667Y-81152381D01*
X170995905Y-81200000D01*
X171043524Y-81247619D01*
X171091143Y-81342857D01*
X171091143Y-81485714D01*
X171043524Y-81580952D01*
X170995905Y-81628571D01*
X170900667Y-81676190D01*
X170519714Y-81676190D01*
X171472095Y-81247619D02*
X171519714Y-81200000D01*
X171614952Y-81152381D01*
X171853048Y-81152381D01*
X171948286Y-81200000D01*
X171995905Y-81247619D01*
X172043524Y-81342857D01*
X172043524Y-81438095D01*
X171995905Y-81580952D01*
X171424476Y-82152381D01*
X172043524Y-82152381D01*
X172376857Y-81152381D02*
X172995905Y-81152381D01*
X172662571Y-81533333D01*
X172805429Y-81533333D01*
X172900667Y-81580952D01*
X172948286Y-81628571D01*
X172995905Y-81723810D01*
X172995905Y-81961905D01*
X172948286Y-82057143D01*
X172900667Y-82104762D01*
X172805429Y-82152381D01*
X172519714Y-82152381D01*
X172424476Y-82104762D01*
X172376857Y-82057143D01*
X109497905Y-73906381D02*
X109497905Y-72906381D01*
X109878858Y-72906381D01*
X109974096Y-72954000D01*
X110021715Y-73001619D01*
X110069334Y-73096857D01*
X110069334Y-73239714D01*
X110021715Y-73334952D01*
X109974096Y-73382571D01*
X109878858Y-73430190D01*
X109497905Y-73430190D01*
X110545524Y-73906381D02*
X110736000Y-73906381D01*
X110831239Y-73858762D01*
X110878858Y-73811143D01*
X110974096Y-73668286D01*
X111021715Y-73477810D01*
X111021715Y-73096857D01*
X110974096Y-73001619D01*
X110926477Y-72954000D01*
X110831239Y-72906381D01*
X110640762Y-72906381D01*
X110545524Y-72954000D01*
X110497905Y-73001619D01*
X110450286Y-73096857D01*
X110450286Y-73334952D01*
X110497905Y-73430190D01*
X110545524Y-73477810D01*
X110640762Y-73525429D01*
X110831239Y-73525429D01*
X110926477Y-73477810D01*
X110974096Y-73430190D01*
X111021715Y-73334952D01*
X107719714Y-66352381D02*
X107719714Y-65352381D01*
X108053048Y-66066667D01*
X108386381Y-65352381D01*
X108386381Y-66352381D01*
X108719714Y-65352381D02*
X109291143Y-65352381D01*
X109005428Y-66352381D02*
X109005428Y-65352381D01*
X110148286Y-65400000D02*
X110053048Y-65352381D01*
X109910191Y-65352381D01*
X109767333Y-65400000D01*
X109672095Y-65495238D01*
X109624476Y-65590476D01*
X109576857Y-65780952D01*
X109576857Y-65923810D01*
X109624476Y-66114286D01*
X109672095Y-66209524D01*
X109767333Y-66304762D01*
X109910191Y-66352381D01*
X110005429Y-66352381D01*
X110148286Y-66304762D01*
X110195905Y-66257143D01*
X110195905Y-65923810D01*
X110005429Y-65923810D01*
X189539714Y-124531381D02*
X189539714Y-123531381D01*
X189873048Y-124245667D01*
X190206381Y-123531381D01*
X190206381Y-124531381D01*
X190539714Y-123531381D02*
X191111143Y-123531381D01*
X190825428Y-124531381D02*
X190825428Y-123531381D01*
X191968286Y-123579000D02*
X191873048Y-123531381D01*
X191730191Y-123531381D01*
X191587333Y-123579000D01*
X191492095Y-123674238D01*
X191444476Y-123769476D01*
X191396857Y-123959952D01*
X191396857Y-124102810D01*
X191444476Y-124293286D01*
X191492095Y-124388524D01*
X191587333Y-124483762D01*
X191730191Y-124531381D01*
X191825429Y-124531381D01*
X191968286Y-124483762D01*
X192015905Y-124436143D01*
X192015905Y-124102810D01*
X191825429Y-124102810D01*
X150036381Y-80088095D02*
X149036381Y-80088095D01*
X149036381Y-79850000D01*
X149084000Y-79707142D01*
X149179238Y-79611904D01*
X149274476Y-79564285D01*
X149464952Y-79516666D01*
X149607810Y-79516666D01*
X149798286Y-79564285D01*
X149893524Y-79611904D01*
X149988762Y-79707142D01*
X150036381Y-79850000D01*
X150036381Y-80088095D01*
X150036381Y-78564285D02*
X150036381Y-79135714D01*
X150036381Y-78850000D02*
X149036381Y-78850000D01*
X149179238Y-78945238D01*
X149274476Y-79040476D01*
X149322095Y-79135714D01*
X144995905Y-114902381D02*
X144995905Y-113902381D01*
X145234000Y-113902381D01*
X145376858Y-113950000D01*
X145472096Y-114045238D01*
X145519715Y-114140476D01*
X145567334Y-114330952D01*
X145567334Y-114473810D01*
X145519715Y-114664286D01*
X145472096Y-114759524D01*
X145376858Y-114854762D01*
X145234000Y-114902381D01*
X144995905Y-114902381D01*
X146424477Y-113902381D02*
X146234000Y-113902381D01*
X146138762Y-113950000D01*
X146091143Y-113997619D01*
X145995905Y-114140476D01*
X145948286Y-114330952D01*
X145948286Y-114711905D01*
X145995905Y-114807143D01*
X146043524Y-114854762D01*
X146138762Y-114902381D01*
X146329239Y-114902381D01*
X146424477Y-114854762D01*
X146472096Y-114807143D01*
X146519715Y-114711905D01*
X146519715Y-114473810D01*
X146472096Y-114378571D01*
X146424477Y-114330952D01*
X146329239Y-114283333D01*
X146138762Y-114283333D01*
X146043524Y-114330952D01*
X145995905Y-114378571D01*
X145948286Y-114473810D01*
X121619714Y-67652381D02*
X121619714Y-66652381D01*
X122000667Y-66652381D01*
X122095905Y-66700000D01*
X122143524Y-66747619D01*
X122191143Y-66842857D01*
X122191143Y-66985714D01*
X122143524Y-67080952D01*
X122095905Y-67128571D01*
X122000667Y-67176190D01*
X121619714Y-67176190D01*
X123143524Y-67652381D02*
X122572095Y-67652381D01*
X122857809Y-67652381D02*
X122857809Y-66652381D01*
X122762571Y-66795238D01*
X122667333Y-66890476D01*
X122572095Y-66938095D01*
X124095905Y-67652381D02*
X123524476Y-67652381D01*
X123810190Y-67652381D02*
X123810190Y-66652381D01*
X123714952Y-66795238D01*
X123619714Y-66890476D01*
X123524476Y-66938095D01*
X172345905Y-65652381D02*
X172345905Y-64652381D01*
X172726858Y-64652381D01*
X172822096Y-64700000D01*
X172869715Y-64747619D01*
X172917334Y-64842857D01*
X172917334Y-64985714D01*
X172869715Y-65080952D01*
X172822096Y-65128571D01*
X172726858Y-65176190D01*
X172345905Y-65176190D01*
X173250667Y-64652381D02*
X173917334Y-64652381D01*
X173488762Y-65652381D01*
X189536381Y-75938095D02*
X188536381Y-75938095D01*
X188536381Y-75557142D01*
X188584000Y-75461904D01*
X188631619Y-75414285D01*
X188726857Y-75366666D01*
X188869714Y-75366666D01*
X188964952Y-75414285D01*
X189012571Y-75461904D01*
X189060190Y-75557142D01*
X189060190Y-75938095D01*
X188964952Y-74795238D02*
X188917333Y-74890476D01*
X188869714Y-74938095D01*
X188774476Y-74985714D01*
X188726857Y-74985714D01*
X188631619Y-74938095D01*
X188584000Y-74890476D01*
X188536381Y-74795238D01*
X188536381Y-74604761D01*
X188584000Y-74509523D01*
X188631619Y-74461904D01*
X188726857Y-74414285D01*
X188774476Y-74414285D01*
X188869714Y-74461904D01*
X188917333Y-74509523D01*
X188964952Y-74604761D01*
X188964952Y-74795238D01*
X189012571Y-74890476D01*
X189060190Y-74938095D01*
X189155429Y-74985714D01*
X189345905Y-74985714D01*
X189441143Y-74938095D01*
X189488762Y-74890476D01*
X189536381Y-74795238D01*
X189536381Y-74604761D01*
X189488762Y-74509523D01*
X189441143Y-74461904D01*
X189345905Y-74414285D01*
X189155429Y-74414285D01*
X189060190Y-74461904D01*
X189012571Y-74509523D01*
X188964952Y-74604761D01*
X154595905Y-121152381D02*
X154595905Y-120152381D01*
X154976858Y-120152381D01*
X155072096Y-120200000D01*
X155119715Y-120247619D01*
X155167334Y-120342857D01*
X155167334Y-120485714D01*
X155119715Y-120580952D01*
X155072096Y-120628571D01*
X154976858Y-120676190D01*
X154595905Y-120676190D01*
X155500667Y-120152381D02*
X156119715Y-120152381D01*
X155786381Y-120533333D01*
X155929239Y-120533333D01*
X156024477Y-120580952D01*
X156072096Y-120628571D01*
X156119715Y-120723810D01*
X156119715Y-120961905D01*
X156072096Y-121057143D01*
X156024477Y-121104762D01*
X155929239Y-121152381D01*
X155643524Y-121152381D01*
X155548286Y-121104762D01*
X155500667Y-121057143D01*
M02*
