G04 #@! TF.FileFunction,Legend,Bot*
%FSLAX46Y46*%
G04 Gerber Fmt 4.6, Leading zero omitted, Abs format (unit mm)*
G04 Created by KiCad (PCBNEW 4.0.5+dfsg1-4) date Wed Feb  8 17:01:35 2017*
%MOMM*%
%LPD*%
G01*
G04 APERTURE LIST*
%ADD10C,0.100000*%
%ADD11C,0.150000*%
G04 APERTURE END LIST*
D10*
D11*
X137048762Y-80700381D02*
X136810667Y-81700381D01*
X136620190Y-80986095D01*
X136429714Y-81700381D01*
X136191619Y-80700381D01*
X135858286Y-80795619D02*
X135810667Y-80748000D01*
X135715429Y-80700381D01*
X135477333Y-80700381D01*
X135382095Y-80748000D01*
X135334476Y-80795619D01*
X135286857Y-80890857D01*
X135286857Y-80986095D01*
X135334476Y-81128952D01*
X135905905Y-81700381D01*
X135286857Y-81700381D01*
X133988762Y-92402381D02*
X133750667Y-93402381D01*
X133560190Y-92688095D01*
X133369714Y-93402381D01*
X133131619Y-92402381D01*
X132322095Y-92735714D02*
X132322095Y-93402381D01*
X132560191Y-92354762D02*
X132798286Y-93069048D01*
X132179238Y-93069048D01*
X133492762Y-80700381D02*
X133254667Y-81700381D01*
X133064190Y-80986095D01*
X132873714Y-81700381D01*
X132635619Y-80700381D01*
X131778476Y-80700381D02*
X132254667Y-80700381D01*
X132302286Y-81176571D01*
X132254667Y-81128952D01*
X132159429Y-81081333D01*
X131921333Y-81081333D01*
X131826095Y-81128952D01*
X131778476Y-81176571D01*
X131730857Y-81271810D01*
X131730857Y-81509905D01*
X131778476Y-81605143D01*
X131826095Y-81652762D01*
X131921333Y-81700381D01*
X132159429Y-81700381D01*
X132254667Y-81652762D01*
X132302286Y-81605143D01*
M02*
